<svg id="Layer_1" data-name="Layer 1" xmlns="http://www.w3.org/2000/svg" viewBox="0 0 64 64"><defs><style>.cls-1,.cls-2{fill:#fff;}.cls-2{opacity:0.6;}.cls-3{fill:none;}</style></defs><path class="cls-1" d="M50.07,22.32A17.68,17.68,0,0,0,39.13,8.56a17.55,17.55,0,0,0-18,2.13,17.64,17.64,0,0,0-7.09,11,17.84,17.84,0,0,0,1.35,11.5,72.65,72.65,0,0,0,4.68,8.36c.34.54.67,1.07,1,1.6.65,1,1.32,2,2,2.94q3.73,5.34,8,10.28a4.83,4.83,0,0,0,.75.58h.39a8.27,8.27,0,0,0,1-.81,134.06,134.06,0,0,0,9.78-13c.36-.54.69-1.1,1-1.65.57-.9,1.15-1.8,1.7-2.72a44.88,44.88,0,0,0,3.61-7.16A17.15,17.15,0,0,0,50.07,22.32Zm-4.54,7.94a36.34,36.34,0,0,1-2.63,5.35c-.22.4-.45.8-.68,1.18q-1.9,3.23-4.14,6.43c-1.84,2.67-3.86,5.35-6.09,8.09-2-2.45-3.88-5-5.64-7.46l-.43-.63C24,40.47,22.43,38,21.1,35.61c-.79-1.39-1.49-2.74-2.11-4.07a13.78,13.78,0,0,1-1.06-9,13.55,13.55,0,0,1,5.52-8.62A14.24,14.24,0,0,1,31.82,11a15,15,0,0,1,5.76,1.24,13.67,13.67,0,0,1,8.56,10.82A13.18,13.18,0,0,1,45.53,30.26Z"/><path class="cls-2" d="M46.14,23.06a13.67,13.67,0,0,0-8.56-10.82A15,15,0,0,0,31.82,11a14.24,14.24,0,0,0-8.37,2.94,13.55,13.55,0,0,0-5.52,8.62,13.78,13.78,0,0,0,1.06,9c.62,1.33,1.32,2.68,2.11,4.07a7.38,7.38,0,0,1,6.12-3.77c1.22,0,1.91.91,4.78.91s3.63-.91,4.78-.91a7.37,7.37,0,0,1,6.12,3.77,36.34,36.34,0,0,0,2.63-5.35A13.18,13.18,0,0,0,46.14,23.06ZM32,29.56a6.83,6.83,0,1,1,6.83-6.83A6.84,6.84,0,0,1,32,29.56Z"/><path class="cls-3" d="M42.9,35.61c-.22.4-.45.8-.68,1.18q-1.9,3.23-4.14,6.43c-1.84,2.67-3.86,5.35-6.09,8.09-2-2.45-3.88-5-5.64-7.46l-.43-.63C24,40.47,22.43,38,21.1,35.61a7.38,7.38,0,0,1,6.12-3.77c1.22,0,1.91.91,4.78.91s3.63-.91,4.78-.91A7.37,7.37,0,0,1,42.9,35.61Z"/><path class="cls-3" d="M38.83,22.73A6.83,6.83,0,1,1,32,15.9,6.84,6.84,0,0,1,38.83,22.73Z"/></svg>