<svg id="Layer_1" data-name="Layer 1" xmlns="http://www.w3.org/2000/svg" viewBox="0 0 32 32"><defs><style>.cls-1,.cls-2{fill:#1467ba;}.cls-2{opacity:0.4;}.cls-3{fill:#fff;}</style></defs><path class="cls-1" d="M14,24a2.79,2.79,0,0,1,.14-.76c-.33-.43-.65-.87-1-1.3L13,21.61c-1-1.37-1.74-2.62-2.41-3.8-.39-.7-.74-1.37-1.05-2A6.83,6.83,0,0,1,9,11.28,6.73,6.73,0,0,1,11.73,7,7.14,7.14,0,0,1,15.91,5.5a7.48,7.48,0,0,1,2.88.62,6.86,6.86,0,0,1,4.28,5.41,6.59,6.59,0,0,1-.31,3.6,18.44,18.44,0,0,1-1.31,2.68l-.13.22c.22,0,.45,0,.67,0a7.38,7.38,0,0,1,1.56.17,18.09,18.09,0,0,0,1.08-2.32,8.59,8.59,0,0,0,.4-4.68,8.84,8.84,0,0,0-5.47-6.88,8.76,8.76,0,0,0-9,1.07A8.8,8.8,0,0,0,7,10.87a8.92,8.92,0,0,0,.68,5.75A35.51,35.51,0,0,0,10,20.8c.17.27.33.54.51.8.32.5.66,1,1,1.47,1.24,1.78,2.58,3.49,4,5.14a2.06,2.06,0,0,0,.37.29h.2a3.67,3.67,0,0,0,.47-.4l.06-.08C15,26.77,14,25.18,14,24Z"/><path class="cls-2" d="M13.61,15.92c.61,0,1,.46,2.39.46a12,12,0,0,0,2.39-.46,3.7,3.7,0,0,1,3.06,1.89,18.44,18.44,0,0,0,1.31-2.68,6.59,6.59,0,0,0,.31-3.6,6.86,6.86,0,0,0-4.28-5.41,7.48,7.48,0,0,0-2.88-.62A7.14,7.14,0,0,0,11.73,7,6.73,6.73,0,0,0,9,11.28a6.83,6.83,0,0,0,.53,4.49c.31.67.66,1.34,1.05,2A3.7,3.7,0,0,1,13.61,15.92ZM16,8a3.42,3.42,0,1,1-3.41,3.42A3.42,3.42,0,0,1,16,8Z"/><path class="cls-3" d="M18.39,15.92a12,12,0,0,1-2.39.46c-1.43,0-1.78-.46-2.39-.46a3.7,3.7,0,0,0-3.06,1.89C11.22,19,12,20.24,13,21.61l.22.32c.3.43.62.87,1,1.3.63-2.12,3.66-4.88,7.19-5.2l.13-.22A3.7,3.7,0,0,0,18.39,15.92Z"/><path class="cls-3" d="M16,14.78a3.42,3.42,0,1,0-3.41-3.41A3.41,3.41,0,0,0,16,14.78Z"/><path class="cls-3" d="M23.55,18.16A7.38,7.38,0,0,0,22,18c-.22,0-.45,0-.67,0-3.53.32-6.56,3.08-7.19,5.2A2.79,2.79,0,0,0,14,24c0,1.19,1,2.78,2.64,4A8.86,8.86,0,0,0,22,30c4.27,0,8-3.73,8-6C30,22,27.12,18.9,23.55,18.16ZM22,28a6.84,6.84,0,0,1-4.1-1.52,7.4,7.4,0,0,1-1.43-1.43A2.17,2.17,0,0,1,16,24c0-.77,1.6-2.73,3.84-3.58A6,6,0,0,1,22,20l.45,0c3.09.26,5.55,3,5.55,4S25.3,28,22,28Z"/><path class="cls-1" d="M22,22.3h-.5a1,1,0,0,1,.5.8.9.9,0,0,1-.9.9,1,1,0,0,1-.8-.5V24A1.71,1.71,0,0,0,22,25.8,1.79,1.79,0,0,0,23.8,24,1.71,1.71,0,0,0,22,22.3Z"/><path class="cls-1" d="M22.45,20,22,20a6,6,0,0,0-2.16.42C17.6,21.27,16,23.23,16,24a2.17,2.17,0,0,0,.47,1.05,7.4,7.4,0,0,0,1.43,1.43A6.84,6.84,0,0,0,22,28c3.3,0,6-3,6-4S25.54,20.28,22.45,20ZM22,27a3,3,0,0,1-.17-6H22a3,3,0,0,1,0,6Z"/><path class="cls-3" d="M22,21h-.17A2.92,2.92,0,1,0,22,21Zm0,4.8A1.71,1.71,0,0,1,20.3,24v-.5a1,1,0,0,0,.8.5.9.9,0,0,0,.9-.9,1,1,0,0,0-.5-.8H22A1.71,1.71,0,0,1,23.8,24,1.79,1.79,0,0,1,22,25.8Z"/></svg>