<svg id="Layer_1" data-name="Layer 1" xmlns="http://www.w3.org/2000/svg" viewBox="0 0 24 24"><defs><style>.cls-1{fill:#1467ba;}</style></defs><path class="cls-1" d="M19.54,9.18a7.59,7.59,0,0,0-15.08,0,6.86,6.86,0,0,0-.09.9c0,.24,0,.48,0,.71a7.54,7.54,0,0,0,1,2.93,13.63,13.63,0,0,0,1.51,2.1L12,21.55l5.07-5.73a13.63,13.63,0,0,0,1.51-2.1h0a7.54,7.54,0,0,0,1-2.93c0-.23,0-.47,0-.71A6.86,6.86,0,0,0,19.54,9.18Zm-.94,1.51a6.48,6.48,0,0,1-.89,2.53,12.13,12.13,0,0,1-1.39,1.93l0,0a13.18,13.18,0,0,0-3.22-1.1,12.09,12.09,0,0,0,1.39-2.44,3.19,3.19,0,0,0,0-1.38,5.41,5.41,0,0,0-.73-2A2.45,2.45,0,0,0,12,7.5a2.43,2.43,0,0,0-1.73.81,5.2,5.2,0,0,0-.7,2,3,3,0,0,0,0,1.34A11.62,11.62,0,0,0,11,14.1a13.25,13.25,0,0,0-3.24,1.1l-.05,0a12.13,12.13,0,0,1-1.39-1.93,6.48,6.48,0,0,1-.89-2.53c0-.2,0-.41,0-.61a3.74,3.74,0,0,1,0-.53l0-.25a6.59,6.59,0,0,1,13.1,0l0,.25a3.74,3.74,0,0,1,.05.53C18.63,10.28,18.62,10.49,18.6,10.69Z"/></svg>