<svg id="Layer_1" data-name="Layer 1" xmlns="http://www.w3.org/2000/svg" viewBox="0 0 32 32"><defs><style>.cls-1{fill:#8e24aa;}.cls-2,.cls-3{fill:#fff;}.cls-3{opacity:0.6;}</style></defs><path class="cls-1" d="M27,4H5A1,1,0,0,0,4,5V21.28a1,1,0,0,0,1,1h7.68v5.48c0,.28.24.38.48.14l5.76-5.62H27a1,1,0,0,0,1-1V5A1,1,0,0,0,27,4ZM26,20.24H18.88a2,2,0,0,0-1.4.57l-2.84,2.77V22.24a2,2,0,0,0-2-2H6V6H26Z"/><path class="cls-1" d="M6,20.24h6.64a2,2,0,0,1,2,2v1.34l2.84-2.77a2,2,0,0,1,1.4-.57H26V6H6Zm15.82-8.56A1.92,1.92,0,1,1,19.9,13.6,1.92,1.92,0,0,1,21.82,11.68Zm-5.82,0a1.92,1.92,0,1,1-1.92,1.92A1.92,1.92,0,0,1,16,11.68Zm-5.82,0A1.92,1.92,0,1,1,8.26,13.6,1.92,1.92,0,0,1,10.18,11.68Z"/><path class="cls-2" d="M16,15.52a1.92,1.92,0,1,0-1.92-1.92A1.92,1.92,0,0,0,16,15.52Z"/><path class="cls-2" d="M10.18,15.52A1.92,1.92,0,1,0,8.26,13.6,1.92,1.92,0,0,0,10.18,15.52Z"/><path class="cls-2" d="M21.82,15.52A1.92,1.92,0,1,0,19.9,13.6,1.92,1.92,0,0,0,21.82,15.52Z"/><path class="cls-3" d="M6,20.24h6.64a2,2,0,0,1,2,2v1.34l2.84-2.77a2,2,0,0,1,1.4-.57H26V6H6Zm15.82-8.56A1.92,1.92,0,1,1,19.9,13.6,1.92,1.92,0,0,1,21.82,11.68Zm-5.82,0a1.92,1.92,0,1,1-1.92,1.92A1.92,1.92,0,0,1,16,11.68Zm-5.82,0A1.92,1.92,0,1,1,8.26,13.6,1.92,1.92,0,0,1,10.18,11.68Z"/></svg>