<svg id="Layer_1" data-name="Layer 1" xmlns="http://www.w3.org/2000/svg" viewBox="0 0 32 32"><defs><style>.cls-1{fill:#8e24aa;}.cls-2,.cls-3{fill:#fff;}.cls-3{opacity:0.6;}</style></defs><path class="cls-1" d="M14.63,22.14a2,2,0,0,0-2-1.9H6V6H26V19.08a10,10,0,0,1,2,1.43V5a1,1,0,0,0-1-1H5A1,1,0,0,0,4,5V21.28a1,1,0,0,0,1,1h7.68v5.48c0,.28.24.38.48.14l1.73-1.68A4,4,0,0,1,14,24,3.78,3.78,0,0,1,14.63,22.14Z"/><path class="cls-2" d="M16,11.68a1.92,1.92,0,1,0,1.92,1.92A1.92,1.92,0,0,0,16,11.68Z"/><path class="cls-2" d="M10.18,11.68A1.92,1.92,0,1,0,12.1,13.6,1.92,1.92,0,0,0,10.18,11.68Z"/><path class="cls-2" d="M21.82,11.68a1.92,1.92,0,1,0,1.92,1.92A1.92,1.92,0,0,0,21.82,11.68Z"/><path class="cls-1" d="M6,6V20.24h6.64a2,2,0,0,1,2,1.9A9.23,9.23,0,0,1,22,18a8.42,8.42,0,0,1,4,1.08V6Zm4.18,9.52A1.92,1.92,0,1,1,12.1,13.6,1.92,1.92,0,0,1,10.18,15.52Zm5.82,0a1.92,1.92,0,1,1,1.92-1.92A1.92,1.92,0,0,1,16,15.52Zm5.82,0a1.92,1.92,0,1,1,1.92-1.92A1.92,1.92,0,0,1,21.82,15.52Z"/><path class="cls-3" d="M6,6V20.24h6.64a2,2,0,0,1,2,1.9A9.23,9.23,0,0,1,22,18a8.42,8.42,0,0,1,4,1.08V6Zm4.18,9.52A1.92,1.92,0,1,1,12.1,13.6,1.92,1.92,0,0,1,10.18,15.52Zm5.82,0a1.92,1.92,0,1,1,1.92-1.92A1.92,1.92,0,0,1,16,15.52Zm5.82,0a1.92,1.92,0,1,1,1.92-1.92A1.92,1.92,0,0,1,21.82,15.52Z"/><circle class="cls-2" cx="22" cy="24" r="3"/><path class="cls-1" d="M22,22.3h-.5a1,1,0,0,1,.5.8.9.9,0,0,1-.9.9,1,1,0,0,1-.8-.5V24A1.71,1.71,0,0,0,22,25.8,1.79,1.79,0,0,0,23.8,24,1.71,1.71,0,0,0,22,22.3Z"/><path class="cls-1" d="M22,20c-3.3,0-6,3-6,4s2.7,4,6,4,6-3,6-4S25.3,20,22,20Zm0,7a3,3,0,1,1,3-3A2.95,2.95,0,0,1,22,27Z"/></svg>