<?xml version="1.0" encoding="utf-8"?>
<!-- Generator: Adobe Illustrator 24.2.0, SVG Export Plug-In . SVG Version: 6.00 Build 0)  -->
<svg version="1.1" id="Layer_1" xmlns="http://www.w3.org/2000/svg" xmlns:xlink="http://www.w3.org/1999/xlink" x="0px" y="0px"
	 viewBox="0 0 24 24" style="enable-background:new 0 0 24 24;" xml:space="preserve">
<style type="text/css">
	.st0{fill:#1467BA;}
</style>
<path class="st0" d="M4,3C3.5,3,3,3.5,3,4v12c0,0.5,0.5,1,1,1h5v4.6c0,0.3,0.2,0.5,0.5,0.5c0.1,0,0.3-0.1,0.4-0.1l4.9-5H20
	c0.5,0,1-0.5,1-1V4c0-0.5-0.5-1-1-1H4z M10,20.4V16H4V4h16v12h-5.7"/>
<path class="st0" d="M6.8,9.4h1c0.3,0,0.5,0.2,0.5,0.5v1c0,0.3-0.2,0.5-0.5,0.5h-1c-0.3,0-0.5-0.2-0.5-0.5c0,0,0,0,0,0v-1
	C6.3,9.6,6.5,9.4,6.8,9.4z"/>
<path class="st0" d="M11.5,9.4h1c0.3,0,0.5,0.2,0.5,0.5v1c0,0.3-0.2,0.5-0.5,0.5h-1c-0.3,0-0.5-0.2-0.5-0.5c0,0,0,0,0,0v-1
	C11,9.6,11.2,9.4,11.5,9.4z"/>
<path class="st0" d="M16.2,9.4h1c0.3,0,0.5,0.2,0.5,0.5v1c0,0.3-0.2,0.5-0.5,0.5h-1c-0.3,0-0.5-0.2-0.5-0.5c0,0,0,0,0,0v-1
	C15.7,9.6,15.9,9.4,16.2,9.4z"/>
</svg>
