<?xml version="1.0" encoding="utf-8"?>
<!-- Generator: Adobe Illustrator 24.2.0, SVG Export Plug-In . SVG Version: 6.00 Build 0)  -->
<svg version="1.1" id="Layer_1" xmlns="http://www.w3.org/2000/svg" xmlns:xlink="http://www.w3.org/1999/xlink" x="0px" y="0px"
	 viewBox="0 0 64 64" style="enable-background:new 0 0 64 64;" xml:space="preserve">
<style type="text/css">
	.st0{fill:#D4AF37;}
	.st1{fill:#1565C0;}
	.st2{fill:#D32F2F;}
	.st3{fill:#66BB6A;}
	.st4{fill:#0A4466;}
	.st5{fill:#8E24AA;}
	.st6{fill:#161616;}
	.st7{fill:#3E87CF;}
	.st8{fill:#E03C24;}
	.st9{fill:#9BC6F2;}
	.st10{fill:#777777;}
	.st11{fill:#2576C7;}
	.st12{fill:#FFFFFF;}
	.st13{opacity:0.6;fill:#2576C7;enable-background:new    ;}
	.st14{opacity:0.6;fill:#FFFFFF;enable-background:new    ;}
	.st15{opacity:0.6;fill:#FFFFFF;}
	.st16{fill:#FFE39D;}
	.st17{fill:#ED9C26;}
	.st18{opacity:0.4;fill:#0A4466;}
	.st19{opacity:0.4;fill:#00796B;}
	.st20{fill:#00796B;}
	.st21{fill:none;}
	.st22{fill:#690000;}
	.st23{fill:#A08165;}
	.st24{fill:#D8C4B3;}
	.st25{fill:#FFD4FF;}
	.st26{opacity:0.6;fill:none;stroke:#FFFFFF;stroke-width:4;stroke-linecap:round;stroke-miterlimit:10;}
	.st27{fill:#571B6D;}
	.st28{opacity:0.4;fill:#571B6D;}
	.st29{opacity:0.6;fill:#571B6D;}
	.st30{fill:#CA0821;}
	.st31{opacity:0.2;fill:#CA0821;enable-background:new    ;}
	.st32{fill:#CA0821;enable-background:new    ;}
	.st33{opacity:0.4;}
	.st34{opacity:0.6;fill:#CA0821;enable-background:new    ;}
	.st35{opacity:0.6;enable-background:new    ;}
	.st36{opacity:0.6;}
	.st37{opacity:0.6;fill:#3E87CF;}
	.st38{opacity:0.8;fill:#571B6D;}
	.st39{opacity:0.6;fill:#F1FF2E;}
	.st40{opacity:0.8;fill:none;stroke:#FFFFFF;stroke-miterlimit:10;}
	.st41{fill:#283593;}
	.st42{opacity:0.4;fill:#777777;}
	.st43{opacity:0.4;fill:#283593;}
	.st44{opacity:0.4;fill:#1565C0;}
	.st45{opacity:0.6;fill:#1565C0;}
	.st46{opacity:0.4;fill:#D32F2F;}
	.st47{opacity:0.4;fill:#66BB6A;}
	.st48{opacity:0.4;fill:#D4AF37;}
	.st49{opacity:0.4;fill:#777777;enable-background:new    ;}
	.st50{fill:#9F8165;}
	.st51{opacity:0.4;fill:#9F8165;}
</style>
<g>
	<path class="st21" d="M32,25.3c-3.7,0-6.7,3-6.7,6.7c0,3.7,3,6.7,6.7,6.7c3.7,0,6.7-3,6.7-6.7C38.7,28.3,35.7,25.3,32,25.3z M32,37
		c-2.8,0-5-2.2-5-5c0-2.8,2.2-5,5-5c2.8,0,5,2.2,5,5C37,34.8,34.8,37,32,37z"/>
	<ellipse transform="matrix(0.3827 -0.9239 0.9239 0.3827 -9.7959 49.3392)" class="st12" cx="32" cy="32" rx="5" ry="5"/>
	<path class="st14" d="M41.8,41.2l-1.5-2.7c0.6-0.8,1.2-1.7,1.6-2.7h3c0.3,0,0.5-0.2,0.6-0.4c0.3-1.1,0.4-2.3,0.4-3.5
		c0-1.2-0.2-2.3-0.4-3.5c-0.1-0.3-0.3-0.4-0.6-0.4h-3c-0.4-0.9-0.9-1.8-1.6-2.7l1.5-2.6c0.1-0.2,0.1-0.5-0.1-0.7
		c-0.8-0.8-1.8-1.5-2.8-2.1c-1-0.6-2.1-1.1-3.2-1.4c-0.2-0.1-0.5,0.1-0.6,0.3l-1.5,2.7c-0.5-0.1-1.1-0.2-1.6-0.2
		c-0.5,0-1.1,0.1-1.6,0.2L29,18.9c-0.1-0.2-0.4-0.3-0.6-0.3c-1.1,0.3-2.2,0.8-3.2,1.4c-1.1,0.6-2,1.3-2.8,2.1
		c-0.2,0.2-0.2,0.4-0.1,0.7l1.5,2.6c-0.6,0.8-1.2,1.7-1.6,2.7h-3c-0.3,0-0.5,0.2-0.6,0.4c-0.3,1.1-0.4,2.3-0.4,3.5
		c0,1.2,0.2,2.4,0.4,3.5c0.1,0.2,0.3,0.4,0.6,0.4h3c0.4,1,0.9,1.9,1.6,2.7l-1.5,2.7c-0.1,0.2-0.1,0.4,0.1,0.7
		c0.8,0.8,1.8,1.5,2.8,2.1c1,0.6,2.1,1.1,3.2,1.3c0.2,0.1,0.5-0.1,0.6-0.2l1.5-2.7c0.5,0.1,1.1,0.1,1.6,0.1c0.5,0,1.1-0.1,1.6-0.1
		l1.5,2.7c0.1,0.2,0.4,0.3,0.6,0.2c1.1-0.3,2.2-0.7,3.2-1.3c1.1-0.6,2-1.3,2.8-2.1C41.9,41.7,41.9,41.4,41.8,41.2z M32,38.7
		c-3.7,0-6.7-3-6.7-6.7c0-3.7,3-6.7,6.7-6.7c3.7,0,6.7,3,6.7,6.7C38.7,35.7,35.7,38.7,32,38.7z"/>
	<path class="st15" d="M49.7,14.3c-4.6-4.6-10.5-7-16.5-7.3L32,11c5.4,0,10.7,2.1,14.8,6.1v0L49.7,14.3z"/>
	<path class="st15" d="M17.1,46.9l-2.8,2.8c4.6,4.6,10.5,7,16.5,7.3l1.1-4C26.6,53,21.2,50.9,17.1,46.9L17.1,46.9z"/>
	<path class="st12" d="M57,31.7C57,31.7,57,31.6,57,31.7c0-0.3,0-0.6,0-0.9c0-0.4,0-0.9-0.1-1.3c0-0.1,0-0.1,0-0.2
		c-0.1-0.7-0.2-1.5-0.3-2.2c0,0,0-0.1,0-0.1c0,0,0,0,0-0.1c-0.1-0.7-0.3-1.3-0.5-2c0-0.1,0-0.1-0.1-0.2c0,0,0,0,0,0c0,0,0-0.1,0-0.1
		c0,0,0,0,0,0c-0.2-0.7-0.4-1.4-0.7-2c0,0,0-0.1,0-0.1c0,0,0,0,0-0.1c0,0,0,0,0-0.1c-0.3-0.7-0.6-1.3-0.9-2c0,0,0-0.1,0-0.1
		c0,0,0,0,0,0c-0.2-0.3-0.4-0.6-0.5-0.9c0.2,0.3,0.4,0.6,0.5,0.9c-0.2-0.4-0.5-0.8-0.7-1.2c-0.4-0.6-0.8-1.3-1.2-1.9
		c-0.7-1-1.6-2-2.5-2.9l0,0c0,0,0,0,0,0c0,0,0,0,0,0l-2.8,2.8v0c1,1,1.9,2.1,2.6,3.2c0,0,0,0.1,0.1,0.1c0.3,0.4,0.5,0.8,0.8,1.3
		c0.1,0.2,0.2,0.3,0.3,0.5c0.2,0.4,0.4,0.8,0.6,1.2c0.1,0.2,0.2,0.4,0.3,0.7c0.2,0.4,0.3,0.8,0.4,1.2c0.1,0.2,0.2,0.5,0.2,0.7
		c0.1,0.4,0.2,0.8,0.3,1.3c0.1,0.2,0.1,0.4,0.2,0.7c0.1,0.5,0.1,0.9,0.2,1.4c0,0.2,0.1,0.4,0.1,0.6c0,0.5,0.1,1,0.1,1.4
		c0,0.2,0,0.4,0,0.5c0,0.5,0,1-0.1,1.5c0,0.2,0,0.3,0,0.5c0,0.5-0.1,1.1-0.2,1.6c0,0.1,0,0.2,0,0.4c-0.1,0.5-0.2,1.1-0.4,1.6
		c0,0.1,0,0.2-0.1,0.3c-0.2,0.5-0.3,1.1-0.5,1.6c0,0.1-0.1,0.2-0.1,0.3c-0.2,0.5-0.4,1.1-0.7,1.6c0,0.1-0.1,0.2-0.1,0.3
		c-0.3,0.5-0.5,1-0.8,1.5c-0.1,0.1-0.1,0.2-0.2,0.3c-0.3,0.5-0.6,0.9-1,1.4c-0.1,0.1-0.1,0.2-0.2,0.3c-0.3,0.4-0.7,0.8-1.1,1.2
		c-0.1,0.1-0.1,0.2-0.2,0.2L43.8,43l-2,7.5l-0.7,2.7l-0.6,2.2l-0.2,0.6l2.8-0.8l0,0l10.3-2.7l-3.4-3.4c0,0,0.1-0.1,0.1-0.1
		c0,0,0,0,0,0c0,0,0,0,0,0c0.1-0.1,0.1-0.2,0.2-0.2c0.4-0.5,0.8-0.9,1.2-1.4c0.1-0.1,0.1-0.2,0.2-0.2c0,0,0,0,0,0c0,0,0,0,0,0
		c0.4-0.6,0.9-1.2,1.3-1.8c0-0.1,0.1-0.1,0.1-0.2c0,0,0,0,0,0c0-0.1,0.1-0.2,0.1-0.2c0.3-0.5,0.6-1.1,0.9-1.6c0-0.1,0.1-0.2,0.1-0.2
		c0.3-0.6,0.6-1.3,0.9-2c0-0.1,0.1-0.2,0.1-0.2c0.2-0.7,0.5-1.3,0.7-2c0,0,0-0.1,0-0.2c0,0,0,0,0-0.1c0.2-0.7,0.3-1.4,0.5-2.1
		c0-0.1,0-0.2,0-0.2c0,0,0-0.1,0-0.1c0.1-0.7,0.2-1.3,0.3-2c0,0,0-0.1,0-0.1c0,0,0-0.1,0-0.1c0-0.3,0-0.6,0-0.9
		c0-0.4,0.1-0.8,0.1-1.2C57,31.8,57,31.7,57,31.7z"/>
	<path class="st12" d="M17.1,46.8c-1-1-1.9-2-2.6-3.2c0,0,0-0.1,0-0.1c-0.3-0.4-0.5-0.8-0.8-1.3c-0.1-0.2-0.2-0.3-0.3-0.5
		c-0.2-0.4-0.4-0.8-0.6-1.2c-0.1-0.2-0.2-0.4-0.3-0.7c-0.2-0.4-0.3-0.8-0.4-1.2c-0.1-0.2-0.2-0.5-0.2-0.7c-0.1-0.4-0.2-0.8-0.3-1.3
		c-0.1-0.2-0.1-0.5-0.2-0.7c-0.1-0.4-0.1-0.9-0.2-1.4c0-0.2-0.1-0.4-0.1-0.6c0-0.5-0.1-1-0.1-1.4c0-0.2,0-0.4,0-0.5
		c0-0.5,0-1,0.1-1.5c0-0.2,0-0.3,0-0.5c0-0.5,0.1-1.1,0.2-1.6c0-0.1,0-0.2,0-0.4c0.1-0.5,0.2-1.1,0.4-1.6c0-0.1,0.1-0.2,0.1-0.3
		c0.2-0.5,0.3-1.1,0.5-1.6c0-0.1,0.1-0.2,0.1-0.3c0.2-0.5,0.4-1,0.7-1.6c0-0.1,0.1-0.2,0.1-0.3c0.3-0.5,0.5-1,0.8-1.5
		c0.1-0.1,0.1-0.2,0.2-0.3c0.3-0.5,0.6-0.9,1-1.4c0.1-0.1,0.2-0.2,0.2-0.3c0.3-0.4,0.7-0.8,1.1-1.2c0.1-0.1,0.1-0.2,0.2-0.2l3.4,3.4
		l2-7.5l0.7-2.7l0.6-2.2l0.2-0.6l-2.8,0.8h0l-10.3,2.7l3.4,3.4c0,0,0,0-0.1,0.1c0,0,0,0,0,0c-0.1,0.1-0.2,0.3-0.4,0.4
		c-0.4,0.4-0.7,0.8-1.1,1.2c0,0.1-0.1,0.1-0.1,0.2c0,0,0,0.1-0.1,0.1c-0.2,0.3-0.4,0.5-0.6,0.8c-0.2,0.3-0.5,0.6-0.7,1
		c0,0.1-0.1,0.1-0.1,0.2c0,0,0,0.1-0.1,0.1c-0.4,0.6-0.7,1.2-1.1,1.9c0,0.1-0.1,0.2-0.1,0.2c-0.2,0.3-0.3,0.7-0.4,1
		c-0.1,0.3-0.3,0.6-0.4,1c0,0.1-0.1,0.2-0.1,0.2c-0.1,0.3-0.2,0.7-0.3,1c-0.1,0.3-0.2,0.7-0.3,1c0,0.1,0,0.2-0.1,0.2
		c-0.1,0.3-0.1,0.5-0.2,0.8c-0.1,0.4-0.2,0.9-0.3,1.3c0,0.1,0,0.2,0,0.2c0,0,0,0,0,0.1c-0.1,0.7-0.2,1.4-0.3,2.1c0,0.1,0,0.1,0,0.2
		c0,0,0,0,0,0c0,0,0,0,0,0C7,30.7,7,31.4,7,32c0,0,0,0.1,0,0.1v0.1v0.1c0,0.7,0,1.5,0.1,2.2c0,0.1,0,0.1,0,0.2
		c0.1,0.7,0.2,1.4,0.3,2c0,0,0,0.1,0,0.2l0,0.2c0.1,0.3,0.1,0.5,0.2,0.8c0.1,0.5,0.2,1,0.4,1.4c0,0,0,0.1,0,0.1
		c0.2,0.7,0.5,1.4,0.8,2.1c0,0,0,0,0,0c0,0,0,0,0,0.1c0,0,0,0,0,0c0.3,0.7,0.6,1.4,1,2.1c0,0,0,0,0,0c0,0,0,0,0,0c0,0,0,0,0,0
		c0.1,0.1,0.2,0.3,0.3,0.5c0.1,0.2,0.2,0.3,0.3,0.5c0.1,0.1,0.1,0.2,0.2,0.3c0,0.1,0.1,0.1,0.1,0.2c0.1,0.2,0.2,0.3,0.3,0.4
		c0,0,0,0,0,0c0,0,0.1,0.1,0.1,0.1c0.1,0.2,0.2,0.3,0.3,0.5c0,0,0,0.1,0.1,0.1c0.1,0.1,0.1,0.2,0.2,0.3c0,0,0,0,0,0
		c0,0.1,0.1,0.1,0.1,0.2C11.9,46.9,12,47,12,47c0,0,0,0,0,0.1c0.1,0.1,0.1,0.2,0.2,0.3c0,0.1,0.1,0.1,0.1,0.2
		c0.1,0.1,0.2,0.2,0.2,0.3c0.2,0.2,0.4,0.5,0.6,0.7c0,0,0.1,0.1,0.1,0.1c0,0,0,0,0.1,0.1c0.1,0.1,0.2,0.2,0.2,0.3
		c0.2,0.2,0.4,0.4,0.6,0.6c0,0,0,0,0.1,0.1l0,0c0,0,0,0,0,0h0L17.1,46.8L17.1,46.8z"/>
</g>
</svg>
