<svg id="Layer_1" data-name="Layer 1" xmlns="http://www.w3.org/2000/svg" viewBox="0 0 32 32"><defs><style>.cls-1{fill:none;}.cls-2,.cls-3,.cls-4{fill:#777;}.cls-3,.cls-4{opacity:0.4;}.cls-3{isolation:isolate;}</style></defs><path class="cls-1" d="M15.0724,21.5154c.0717-.0921.148-.1834.2261-.2747-.0225-.0024-.0468-.0024-.0689-.0049Z"/><path class="cls-1" d="M19.3515,16a3.3421,3.3421,0,1,0-3.3421,3.3419A3.3519,3.3519,0,0,0,19.3515,16Zm-5.8486,0a2.5066,2.5066,0,1,1,2.5065,2.5064A2.5065,2.5065,0,0,1,13.5029,16Z"/><path class="cls-2" d="M18.516,16a2.5066,2.5066,0,1,0-2.5066,2.5064A2.5065,2.5065,0,0,0,18.516,16Z"/><path class="cls-3" d="M15.23,21.2358c.0221.0025.0464.0025.0689.0049a9.483,9.483,0,0,1,5.5682-3.144c.022-.0508.052-.0953.0722-.1473h1.5039a.2765.2765,0,0,0,.2785-.195,6.91,6.91,0,0,0,0-3.4812.2713.2713,0,0,0-.2785-.2229H20.9389a6.4415,6.4415,0,0,0-.78-1.3367l.7519-1.3091a.2915.2915,0,0,0-.0278-.3341,6.73,6.73,0,0,0-1.42-1.0583,6.9082,6.9082,0,0,0-1.6154-.6963.28.28,0,0,0-.3063.1393l-.752,1.3369a3.67,3.67,0,0,0-1.56,0l-.7519-1.3369a.28.28,0,0,0-.3064-.1393,6.9093,6.9093,0,0,0-1.6153.6963,6.7307,6.7307,0,0,0-1.42,1.0583.2915.2915,0,0,0-.0278.3341l.7519,1.3091a6.45,6.45,0,0,0-.78,1.3367H9.576a.2713.2713,0,0,0-.2785.2229,6.91,6.91,0,0,0,0,3.4812.2765.2765,0,0,0,.2785.195H11.08a5.27,5.27,0,0,0,.78,1.3368l-.7519,1.3368a.2984.2984,0,0,0,.0278.3343,7.8607,7.8607,0,0,0,1.42,1.0583,5.83,5.83,0,0,0,1.6153.6683.2981.2981,0,0,0,.1755-.015,6.2057,6.2057,0,0,1,.7256-1.1535ZM12.6674,16a3.3421,3.3421,0,1,1,3.342,3.3419A3.3518,3.3518,0,0,1,12.6674,16Z"/><path class="cls-4" d="M24.8343,7.1607A12.41,12.41,0,0,0,16.5576,3.515l-.5351,1.99A10.4661,10.4661,0,0,1,23.424,8.576V8.571Z"/><path class="cls-4" d="M8.5711,23.4239v.005l-1.41,1.41a12.4192,12.4192,0,0,0,8.2766,3.6458l.3283-1.2211a8.4361,8.4361,0,0,1-.7236-.8153A10.45,10.45,0,0,1,8.5711,23.4239Z"/><path class="cls-2" d="M28.0149,19.4482c.007-.0249.0142-.0534.0213-.0814l.0087-.0337c.095-.3451.175-.6951.24-1.0452a.9184.9184,0,0,0,.02-.1151c.0045-.0246.0073-.0493.0116-.0742.058-.33.1008-.6606.1334-.991,0-.0145.0011-.0307.0021-.0456.0014-.021.0029-.041.0029-.0642.0127-.1507.0118-.304.0191-.4561.01-.2063.0259-.4118.0259-.6194,0-.03-.0031-.0593-.0042-.0891l-.0008-.0158c-.002-.1429-.0171-.287-.0238-.4309-.01-.2186-.0151-.4372-.0362-.6542a.5558.5558,0,0,1-.01-.09c-.04-.3651-.095-.73-.165-1.09-.0026-.0127-.0064-.0253-.01-.038s-.0074-.0248-.01-.037c-.0677-.3291-.1515-.6562-.2435-.978-.01-.0353-.0163-.0721-.0266-.1072l-.0034-.01c-.0053-.0166-.0124-.0333-.0166-.05l-.0055-.0168a10.7585,10.7585,0,0,0-.3611-1.0156c-.0066-.0159-.0118-.032-.0185-.0478a.2455.2455,0,0,1-.015-.0351l-.0157-.0359c-.1349-.3308-.2907-.6573-.46-.98-.0086-.0164-.0161-.0332-.0248-.05,0-.005,0-.005-.005-.01-.0828-.1567-.1769-.3089-.267-.4629.09.1541.1848.3062.268.4632-.1112-.21-.234-.4146-.3579-.6189-.1924-.3178-.3951-.6311-.619-.9345a12.5631,12.5631,0,0,0-1.231-1.431l-.0014.0015.0022.002h-.0043l-1.41,1.41v.005a10.3918,10.3918,0,0,1,1.3,1.58.2718.2718,0,0,0,.03.04c.1351.205.2551.42.3752.6352.0449.085.1049.1651.15.255.1.195.19.3952.28.59.05.1151.1051.22.15.3351.08.1951.1451.4.2151.6.04.12.085.23.12.35.065.21.11.42.16.6351.03.11.06.225.085.3351.045.2251.07.4551.1.68.015.1.035.2049.045.3049.025.24.035.4851.045.7251,0,.09.01.18.01.27.005.255-.01.51-.03.76a1.7338,1.7338,0,0,1-.01.23c-.02.265-.06.53-.105.795-.01.06-.015.1252-.0251.19-.05.27-.1149.54-.185.8051-.015.055-.025.11-.04.1651-.0215.0775-.0518.1537-.0761.2312a9.9156,9.9156,0,0,1,1.72,1.189C27.8367,20.0041,27.9335,19.729,28.0149,19.4482Z"/><path class="cls-2" d="M8.5711,23.4239a10.4755,10.4755,0,0,1-1.3-1.5853c-.005-.01-.02-.025-.025-.035-.14-.205-.2551-.42-.38-.6352-.045-.0849-.105-.1649-.15-.2548-.1-.1951-.19-.3953-.28-.5953-.045-.11-.105-.2151-.15-.33-.08-.1951-.145-.4-.215-.6-.04-.12-.085-.23-.12-.35-.065-.21-.11-.42-.16-.6352-.025-.11-.06-.2249-.085-.3351-.045-.2249-.07-.455-.1-.68-.015-.1051-.035-.2052-.0451-.3051-.0249-.24-.0349-.4851-.04-.7251-.005-.09-.015-.18-.015-.27,0-.255.01-.51.03-.76.005-.08.005-.1551.01-.23.02-.2651.06-.53.1051-.7953.01-.06.015-.125.025-.19.05-.27.115-.54.185-.8053.015-.055.025-.11.04-.1651.08-.27.17-.54.27-.805a1.2506,1.2506,0,0,1,.05-.1452c.1-.265.22-.5249.345-.785.0251-.0451.0451-.0951.0651-.14.13-.2551.27-.5.42-.7451l.09-.15c.15-.2348.315-.46.4851-.685.04-.055.075-.11.12-.1651.165-.2151.35-.42.5351-.62.04-.045.07-.08.11-.125l1.7,1.7,1.01-3.7657.365-1.3653L11.7617,4.24l.085-.3152-1.4236.38L5.2953,5.6787,6.9708,7.3541c-.0116.0121-.022.0249-.0327.0376l-.0174.0192c-.0644.0681-.1212.1428-.1842.2124-.1815.2007-.3639.401-.5309.6126-.0239.0275-.0458.0566-.0683.0854-.01.0134-.0206.0271-.0317.04-.0987.13-.1862.2649-.28.3969-.1158.1624-.2372.3227-.3448.4882a.9345.9345,0,0,0-.0516.0807c-.0091.015-.0195.03-.0284.0443-.19.305-.37.62-.5351.9352-.02.0449-.04.0849-.06.125-.0808.1615-.1465.3293-.22.4946-.0718.1624-.1511.322-.2156.4856l-.045.12c-.0652.1681-.1154.3412-.1731.5118s-.1221.3365-.1719.5083c-.01.0352-.02.0752-.03.1151-.035.1269-.0574.2563-.0882.3842-.0532.22-.1108.44-.1519.661a.9276.9276,0,0,0-.02.1151l-.0043.0275c-.0624.3458-.1067.6918-.1407,1.0377,0,.0275-.0027.0567-.0039.0866l-.0011.0234-.0015.0243c-.0269.3256-.04.6551-.0377.9851,0,.022-.0011.0438-.0008.0658v.105c.005.36.0249.7252.06,1.0853a.5485.5485,0,0,1,.01.09c.0372.34.0892.6793.1564,1.015.005.0249.0084.05.0136.0752l.015.0749c.0262.1273.0644.2516.0942.3784.0556.2371.1075.4756.1759.7068.005.02.015.04.02.06.1088.3607.2373.7163.38,1.0674l.005.0129a.2583.2583,0,0,1,.0147.0344l0,0c.1479.355.3108.7051.4927,1.05l.0073.0148.004.0081.001.0019c.04.075.0851.155.13.2351.04.08.09.16.1351.235.0272.048.0609.0947.0894.1427.021.0347.0435.0686.0649.1033.0463.0749.0925.15.1408.2245l.0069.0111c.0153.0226.0275.0461.043.0686.0507.0773.1065.1526.16.2292l.036.0515c.0352.05.0677.1006.1041.1492,0,.0051,0,.01.005.01a.9866.9866,0,0,0,.065.09c.0251.0341.0517.0681.077.1021l.024.0317c.0377.05.0742.1008.1141.1514.025.03.045.06.07.09.0347.0448.0757.0856.1113.13.1008.1231.2061.2435.3123.3635.0141.016.0274.0327.0417.0486l.0279.0324c.04.0445.0757.0921.1169.136.1024.1072.2014.2143.3073.3213l.0253.0274.0015-.0015-.0022-.0021h.0032l1.41-1.41Z"/><path class="cls-2" d="M22,25.8A1.7925,1.7925,0,0,0,23.8,24,1.71,1.71,0,0,0,22,22.3h-.5a1.02,1.02,0,0,1,.5.8.8963.8963,0,0,1-.9.9,1.02,1.02,0,0,1-.8-.5V24A1.71,1.71,0,0,0,22,25.8Z"/><path class="cls-2" d="M22,20c-3.3,0-6,3-6,4s2.7,4,6,4,6-3,6-4S25.3,20,22,20Zm-3,4a3,3,0,1,1,3,3A2.9465,2.9465,0,0,1,19,24Z"/></svg>