<svg id="Layer_1" data-name="Layer 1" xmlns="http://www.w3.org/2000/svg" viewBox="0 0 32 32"><defs><style>.cls-1,.cls-2,.cls-3{fill:#777;}.cls-2,.cls-3{opacity:0.4;}.cls-2{isolation:isolate;}</style></defs><circle class="cls-1" cx="16.0094" cy="15.9999" r="2.5065" transform="translate(-4.8991 24.6678) rotate(-67.5001)"/><path class="cls-2" d="M20.9111,20.6231l-.752-1.3368a5.2656,5.2656,0,0,0,.78-1.3368h1.504a.2768.2768,0,0,0,.2785-.195,6.9135,6.9135,0,0,0,0-3.4813.2712.2712,0,0,0-.2785-.2228h-1.504a6.44,6.44,0,0,0-.78-1.3368l.752-1.309a.2918.2918,0,0,0-.0279-.3342,6.7335,6.7335,0,0,0-1.42-1.0583,6.91,6.91,0,0,0-1.6154-.6963.28.28,0,0,0-.3063.1393l-.752,1.3368a3.6787,3.6787,0,0,0-1.56,0l-.7519-1.3368a.28.28,0,0,0-.3064-.1393,6.9093,6.9093,0,0,0-1.6153.6963,6.7341,6.7341,0,0,0-1.42,1.0583.292.292,0,0,0-.0278.3342l.7519,1.309a6.4441,6.4441,0,0,0-.78,1.3368H9.576a.2711.2711,0,0,0-.2785.2228,6.91,6.91,0,0,0,0,3.4813.2766.2766,0,0,0,.2785.195H11.08a5.2685,5.2685,0,0,0,.78,1.3368l-.7519,1.3368a.2985.2985,0,0,0,.0278.3341,7.8517,7.8517,0,0,0,1.42,1.0584,5.8335,5.8335,0,0,0,1.6153.6684.3093.3093,0,0,0,.3064-.1114l.7519-1.3369a7.3278,7.3278,0,0,0,.78.0557,7.3241,7.3241,0,0,0,.78-.0557l.752,1.3369a.3091.3091,0,0,0,.3063.1114,5.8341,5.8341,0,0,0,1.6154-.6684,7.8509,7.8509,0,0,0,1.42-1.0584A.2983.2983,0,0,0,20.9111,20.6231Zm-4.9017-1.2812A3.342,3.342,0,1,1,19.3515,16,3.3339,3.3339,0,0,1,16.0094,19.3419Z"/><path class="cls-3" d="M24.8343,7.1608A12.41,12.41,0,0,0,16.5576,3.515l-.5351,1.99A10.4661,10.4661,0,0,1,23.424,8.576V8.571Z"/><path class="cls-3" d="M8.5711,23.4289l-1.41,1.41a12.4192,12.4192,0,0,0,8.2766,3.6458l.5351-1.99a10.4657,10.4657,0,0,1-7.4014-3.0707Z"/><path class="cls-1" d="M28.4957,15.8332l-.0007-.0158c-.002-.1429-.0171-.287-.0239-.431-.01-.2184-.015-.4371-.0361-.6541a.5534.5534,0,0,1-.01-.09c-.04-.365-.095-.73-.165-1.09-.0026-.0127-.0064-.0253-.01-.038s-.0074-.0247-.01-.037c-.0675-.329-.1514-.6562-.2433-.978-.01-.0353-.0163-.0721-.0267-.1072l-.0034-.01c-.0053-.0166-.0125-.0333-.0166-.05l-.0055-.0168A10.7286,10.7286,0,0,0,27.5833,11.3c-.0066-.0159-.0118-.032-.0185-.0479a.2438.2438,0,0,1-.015-.035l-.0157-.0359c-.1349-.3309-.2907-.6574-.46-.98-.0086-.0163-.0161-.033-.0248-.0495,0-.005,0-.005-.005-.01-.0828-.1567-.1769-.3089-.267-.4628.09.154.1848.3062.2681.463-.1112-.21-.2341-.4145-.358-.6188-.1924-.3178-.3951-.6311-.619-.9345a12.5531,12.5531,0,0,0-1.231-1.431l-.0014.0014.0022.0022h-.0043l-1.41,1.41v.005a10.3918,10.3918,0,0,1,1.3,1.58.27.27,0,0,0,.03.04c.135.2051.255.42.375.6352.045.085.1051.165.15.255.1.1951.19.3951.28.59.05.1151.105.22.15.3352.08.1949.1451.4.2151.6.04.12.085.23.12.35.065.21.11.42.16.6351.03.11.06.225.085.3351.045.225.07.4551.1.68.015.1.035.205.045.3051.025.24.035.4851.045.7251,0,.09.01.18.01.27.005.255-.01.51-.03.76a1.7338,1.7338,0,0,1-.01.23c-.02.265-.06.53-.105.7951-.01.06-.015.125-.025.19-.05.27-.115.54-.1851.8051-.015.0551-.025.11-.04.1651-.075.27-.17.54-.265.8051-.02.05-.035.1-.0551.145-.1.2651-.22.5251-.345.7852-.025.0451-.04.095-.065.14-.13.2551-.27.5-.42.7452-.03.05-.055.1-.09.15-.15.2351-.3151.4651-.4851.69-.04.05-.075.105-.115.16-.17.215-.3551.42-.54.6251a1.1985,1.1985,0,0,1-.11.12l-1.7-1.7-1.01,3.7657-.3651,1.3653-.295,1.1053-.0851.315,1.4245-.38,0,0,5.1277-1.374-1.6755-1.6755c.0174-.0181.0317-.0379.0489-.0561l-.0074.0078.0075-.0083c.0362-.0376.0666-.0791.1022-.1171.2152-.23.4248-.4635.618-.708.03-.04.0643-.0843.0941-.1239l.0009-.0011.0028-.0041q.3359-.4332.6273-.8811c.0222-.0356.0443-.0745.0665-.1108l.0085-.0143c.0243-.0389.0444-.08.0683-.1194.1635-.2681.3228-.5409.4668-.8158.02-.045.04-.085.06-.125.16-.32.3051-.65.44-.98l.045-.12c.125-.335.24-.6751.34-1.02.0071-.0248.0142-.0534.0213-.0814l.0087-.0337c.095-.345.175-.695.24-1.0451a.924.924,0,0,0,.02-.1151c.0046-.0247.0074-.0495.0117-.0742.058-.33.1008-.6606.1334-.991,0-.0146.0011-.0308.0021-.0458.0014-.0208.0029-.0409.0029-.0642.0127-.15.0118-.3039.0191-.4559.01-.2064.0259-.4119.0259-.6194C28.5,15.8928,28.4968,15.863,28.4957,15.8332Z"/><path class="cls-1" d="M8.5711,23.4239a10.4766,10.4766,0,0,1-1.3-1.5853c-.005-.01-.02-.025-.025-.035-.14-.205-.2551-.42-.38-.6351-.045-.085-.105-.165-.15-.255-.1-.1951-.19-.3951-.28-.5952-.045-.11-.105-.215-.15-.33-.08-.195-.145-.4-.215-.6-.04-.12-.0851-.23-.12-.35-.0651-.21-.11-.42-.16-.6351-.025-.11-.06-.2251-.085-.3351-.045-.225-.07-.4551-.1-.68-.015-.105-.035-.2051-.045-.3051-.025-.24-.0351-.4851-.04-.7251-.005-.09-.0149-.18-.0149-.27,0-.255.01-.51.03-.76.005-.08.005-.1551.01-.23.02-.265.06-.53.1051-.7952.01-.06.015-.125.025-.19.05-.27.115-.54.185-.8052.015-.0549.025-.11.04-.165.08-.27.17-.54.27-.8051a1.2425,1.2425,0,0,1,.05-.1451c.1-.265.22-.525.3451-.7851.025-.045.045-.0951.065-.14.13-.255.27-.5.42-.7452l.09-.15c.15-.235.315-.46.4851-.6852.04-.0549.075-.11.12-.165.165-.2151.35-.42.5351-.62.04-.045.07-.08.11-.125l1.7,1.7,1.01-3.7657.365-1.3653L11.7617,4.24l.085-.3151-1.4236.38h0L5.2953,5.6787,6.9708,7.3541c-.0116.0121-.0221.0249-.0327.0376l-.0174.0191c-.0644.0683-.1212.1429-.1841.2125-.1816.2006-.3639.401-.531.6127-.0239.0273-.0459.0565-.0683.0853-.01.0135-.0206.027-.0317.04-.0987.13-.1862.2649-.28.397-.1158.1624-.2372.3227-.3447.4882a.9424.9424,0,0,0-.0517.0807c-.0091.015-.0195.03-.0284.0443-.19.305-.37.62-.5351.9351-.02.0451-.04.0851-.06.1251-.0808.1615-.1464.3293-.22.4946-.0717.1624-.1511.3221-.2155.4856l-.045.12c-.0652.1681-.1154.3412-.1731.5118s-.1221.3365-.1719.5084c-.01.035-.02.0751-.03.1151-.035.1267-.0574.2562-.0883.3841-.0531.22-.1107.44-.1518.661a.9276.9276,0,0,0-.02.1151l-.0043.0275c-.0624.3458-.1067.6918-.1408,1.0377,0,.0275-.0025.0566-.0039.0866l-.001.0234-.0015.0243c-.0269.3255-.04.6551-.0377.9851,0,.022-.0012.0438-.0008.0658v.105c.005.36.025.7252.06,1.0852a.5509.5509,0,0,1,.01.09c.0372.34.0892.6793.1564,1.0151.005.0249.0084.05.0136.0751l.015.075c.0262.1273.0644.2515.0942.3784.0557.237.1074.4756.1759.7068.005.02.015.04.02.06.1088.3607.2372.7164.38,1.0673l.0049.013a.25.25,0,0,1,.0148.0344l0,0c.148.355.3109.7052.4928,1.05l.0073.0149.004.0079.0011.0021c.04.0749.085.155.13.235.04.08.09.16.135.235.0272.048.0609.0948.09.1427.021.0347.0434.0687.0647.1032.0465.0751.0926.15.1408.2246l.007.0111c.0153.0226.0275.0461.0431.0686.0506.0773.1064.1526.16.2292l.036.0515c.0352.05.0677.1007.1041.1493,0,.005,0,.01.005.01a1.0006,1.0006,0,0,0,.065.09c.0251.034.0517.068.077.102l.024.0318c.0377.05.0743.1008.1141.1512.025.03.045.06.07.09.0347.0448.0757.0856.1113.13.1008.1231.2061.2435.3123.3635.0142.016.0274.0326.0417.0486l.0279.0325c.04.0444.0757.0919.1169.136.1024.1071.2014.2142.3073.3212l.0254.0274.0014-.0015-.0023-.0021h.0033l1.41-1.41Z"/></svg>