<?xml version="1.0" encoding="utf-8"?>
<!-- Generator: Adobe Illustrator 24.2.0, SVG Export Plug-In . SVG Version: 6.00 Build 0)  -->
<svg version="1.1" id="Layer_1" xmlns="http://www.w3.org/2000/svg" xmlns:xlink="http://www.w3.org/1999/xlink" x="0px" y="0px"
	 viewBox="0 0 24 24" style="enable-background:new 0 0 24 24;" xml:space="preserve">
<style type="text/css">
	.st0{fill:#1467BA;}
</style>
<g>
	<path class="st0" d="M23,12c0-6.1-4.9-11-11-11c-1.1,0-2.1,0.2-3,0.4l0.5,0.9C10.3,2.1,11.1,2,12,2c5.5,0,10,4.5,10,10
		c0,1.9-0.5,3.7-1.5,5.2l-1.5-1.5l-0.7,2.7l-0.7,2.7l2.7-0.7l2.7-0.7l-1.7-1.7C22.3,16.2,23,14.2,23,12z"/>
	<path class="st0" d="M12,22C6.5,22,2,17.5,2,12c0-1.9,0.5-3.6,1.4-5.1l1.4,1.4l0.7-2.7l0.7-2.7L3.6,3.7L0.9,4.4l1.8,1.8
		C1.6,7.8,1,9.8,1,12c0,6.1,4.9,11,11,11c1.1,0,2.1-0.2,3-0.4l-0.5-0.9C13.7,21.9,12.9,22,12,22z"/>
	<path class="st0" d="M12,9.7c-1.3,0-2.3,1-2.3,2.3c0,1.3,1,2.3,2.3,2.3s2.3-1,2.3-2.3C14.3,10.7,13.3,9.7,12,9.7z M12,13.3
		c-0.7,0-1.3-0.6-1.3-1.3s0.6-1.3,1.3-1.3c0.7,0,1.3,0.6,1.3,1.3S12.7,13.3,12,13.3z"/>
	<path class="st0" d="M15.8,15c0.3-0.4,0.5-0.8,0.7-1.2h1.4c0.1,0,0.2-0.1,0.3-0.2c0.1-0.5,0.2-1,0.2-1.6c0-0.5-0.1-1.1-0.2-1.6
		c0-0.1-0.1-0.2-0.3-0.2h-1.4c-0.2-0.4-0.4-0.8-0.7-1.2l0.7-1.2c0.1-0.1,0.1-0.2,0-0.3c-0.4-0.4-0.8-0.7-1.3-1
		c-0.5-0.3-1-0.5-1.5-0.6c0,0,0,0-0.1,0c-0.1,0-0.2,0-0.2,0.1l-0.7,1.2c-0.2-0.1-0.5-0.1-0.7-0.1s-0.5,0-0.7,0.1L10.6,6
		c0-0.1-0.1-0.1-0.2-0.1c0,0,0,0-0.1,0C9.8,6,9.3,6.2,8.8,6.5c-0.5,0.3-0.9,0.6-1.3,1c-0.1,0.1-0.1,0.2,0,0.3L8.2,9
		c-0.3,0.4-0.5,0.8-0.7,1.2H6.1c-0.1,0-0.2,0.1-0.3,0.2c-0.1,0.5-0.2,1-0.2,1.6c0,0.6,0.1,1.1,0.2,1.6c0,0.1,0.1,0.2,0.3,0.2h1.4
		c0.2,0.5,0.4,0.9,0.7,1.2l-0.7,1.2c-0.1,0.1-0.1,0.2,0,0.3c0.4,0.4,0.8,0.7,1.3,1c0.5,0.3,1,0.5,1.5,0.6c0,0,0,0,0.1,0
		c0.1,0,0.2,0,0.2-0.1l0.7-1.2c0.2,0,0.5,0.1,0.7,0.1s0.5,0,0.7-0.1l0.7,1.2c0,0.1,0.1,0.1,0.2,0.1c0,0,0,0,0.1,0
		c0.5-0.1,1-0.3,1.5-0.6c0.5-0.3,0.9-0.6,1.3-1c0.1-0.1,0.1-0.2,0-0.3L15.8,15z M14.9,15.5l0.4,0.7c-0.2,0.2-0.4,0.3-0.7,0.5
		c-0.2,0.1-0.4,0.2-0.7,0.3l-0.4-0.7l-0.3-0.6l-0.7,0.1c-0.2,0-0.4,0-0.6,0c-0.2,0-0.4,0-0.6,0l-0.7-0.1l-0.3,0.6L10,17
		c-0.2-0.1-0.5-0.2-0.7-0.3c-0.2-0.1-0.4-0.3-0.7-0.4l0.4-0.7l0.3-0.6L9,14.4c-0.3-0.3-0.4-0.6-0.6-1l-0.2-0.6H7.5H6.7
		c0-0.3-0.1-0.5-0.1-0.8c0-0.3,0-0.5,0.1-0.8h0.8h0.7l0.3-0.6c0.1-0.3,0.3-0.6,0.6-1l0.4-0.5L9.1,8.5L8.7,7.8
		c0.2-0.1,0.4-0.3,0.7-0.4C9.6,7.2,9.8,7.1,10,7l0.4,0.7l0.4,0.6l0.7-0.2c0.2,0,0.3-0.1,0.5-0.1s0.3,0,0.5,0.1l0.7,0.2l0.4-0.6L14,7
		c0.3,0.1,0.5,0.2,0.7,0.3c0.3,0.1,0.5,0.3,0.7,0.4l-0.4,0.7l-0.3,0.6L15,9.6c0.3,0.4,0.5,0.7,0.6,1l0.3,0.6h0.7h0.8
		c0,0.3,0.1,0.5,0.1,0.8c0,0.3,0,0.5-0.1,0.8h-0.8h-0.7l-0.2,0.6c-0.1,0.3-0.3,0.6-0.6,1l-0.4,0.5L14.9,15.5z"/>
</g>
</svg>
