<svg id="Layer_1" data-name="Layer 1" xmlns="http://www.w3.org/2000/svg" viewBox="0 0 24 24"><defs><style>.cls-1{fill:none;}.cls-2{fill:#1467ba;}</style></defs><path class="cls-1" d="M15.55,20.79c-.7.07-1.4.16-2.1.25L12,21.2l-1,.13,1-1.79c.42-.73.84-1.45,1.25-2.18l.08-.09c.78-.5,3-2,5-3.3L20,12.91V7.2H15.6a1.81,1.81,0,0,1-1.8-1.8V1H4.05a.12.12,0,0,0,0,.05V23s0,0,0,0l0,0H20V17.89l-4.34,2.86ZM7,6h4V7H7Zm0,4H17v1H7Zm0,4h6v1H7Z"/><polygon class="cls-1" points="16.8 4.2 19.59 4.2 16.8 1.42 16.8 4.2"/><path class="cls-1" d="M21.24,13.34c.35.56.74,1.14,1.14,1.73l.76-.5L22,12.84Z"/><rect class="cls-2" x="7" y="14" width="6" height="1"/><rect class="cls-2" x="7" y="6" width="4" height="1"/><rect class="cls-2" x="7" y="10" width="10" height="1"/><path class="cls-2" d="M24.13,14.18l-1.38-2.09a.87.87,0,0,0-1.15-.24l-.6.4v2.6c.17.27.35.54.52.79L21,16v1.25l1-.65,1.89-1.25a.83.83,0,0,0,.34-.53A.82.82,0,0,0,24.13,14.18Zm-1.75.89c-.4-.59-.79-1.17-1.14-1.73l.76-.5,1.14,1.73Z"/><path class="cls-2" d="M12.94,20.05l1.17-2L20,14.16V12.91L18.39,14c-2,1.32-4.24,2.8-5,3.3l-.08.09c-.41.73-.83,1.45-1.25,2.18l-1,1.79,1-.13L13.45,21c.7-.09,1.4-.18,2.1-.25l.11,0L20,17.89V16.64l-4.75,3.13Z"/><path class="cls-2" d="M20,23H4l0,0s0,0,0,0V1.05a.12.12,0,0,1,0-.05H13.8V5.4a1.81,1.81,0,0,0,1.8,1.8H20v5.71l1-.66v-6H15.6a.8.8,0,0,1-.8-.8V0H4A1.08,1.08,0,0,0,3,1V23a1.05,1.05,0,0,0,1,1H20a1,1,0,0,0,1-1V17.23l-1,.66Z"/><path class="cls-2" d="M20,14.16l.38-.25c.22.32.41.63.62.94v-2.6l-1,.66Z"/><path class="cls-2" d="M20,16.64v1.25l1-.66V16Z"/><path class="cls-2" d="M21,4.2,16.79,0h-1V5.2H21Zm-4.2,0V1.42L19.59,4.2Z"/></svg>