<svg id="Layer_1" data-name="Layer 1" xmlns="http://www.w3.org/2000/svg" viewBox="0 0 32 32"><defs><style>.cls-1,.cls-2{fill:#0a4466;}.cls-1{opacity:0.4;}.cls-3{fill:#fff;}</style></defs><path class="cls-1" d="M14,24c0-2.06,3.12-5.35,6.9-5.91l4.21-4.21V10.73H19.35a1,1,0,0,1-1-1V4H7.84a1,1,0,0,0-1,1V27a1,1,0,0,0,1,1H16.6C15,26.76,14,25.18,14,24ZM9.76,7.86c0-.48.19-.48.48-.48h5.28c.28,0,.47,0,.47.48V9.78c0,.48-.19.48-.47.48H10.24c-.29,0-.48,0-.48-.48Zm0,4.8c0-.48.21-.48.53-.48h9.5c.32,0,.53,0,.53.48v1.92c0,.48-.21.48-.53.48h-9.5c-.32,0-.53,0-.53-.48Zm0,6.83V17.57c0-.48.21-.48.53-.48H15c.31,0,.52,0,.52.48v1.92c0,.48-.21.48-.52.48H10.29C10,20,9.76,20,9.76,19.49Z"/><path class="cls-2" d="M20.31,9.29h4.8V8.34L20.79,4h-1V8.81C19.83,9.1,19.83,9.29,20.31,9.29Z"/><path class="cls-2" d="M10.24,10.26h5.28c.28,0,.47,0,.47-.48V7.86c0-.48-.19-.48-.47-.48H10.24c-.29,0-.48,0-.48.48V9.78C9.76,10.26,10,10.26,10.24,10.26Z"/><path class="cls-2" d="M10.29,15.06h9.5c.32,0,.53,0,.53-.48V12.66c0-.48-.21-.48-.53-.48h-9.5c-.32,0-.53,0-.53.48v1.92C9.76,15.06,10,15.06,10.29,15.06Z"/><path class="cls-2" d="M15.52,19.49V17.57c0-.48-.21-.48-.52-.48H10.29c-.32,0-.53,0-.53.48v1.92c0,.48.21.48.53.48H15C15.31,20,15.52,20,15.52,19.49Z"/><path class="cls-2" d="M22,18a8.19,8.19,0,0,1,3.33.75l2.5-2.51a.56.56,0,0,0,0-.81L26.1,13.7a.58.58,0,0,0-.81,0l-.18.18L20.9,18.09A8,8,0,0,1,22,18Z"/><circle class="cls-3" cx="22" cy="24" r="3"/><path class="cls-2" d="M22,22.3h-.5a1,1,0,0,1,.5.8.9.9,0,0,1-.9.9,1,1,0,0,1-.8-.5V24A1.71,1.71,0,0,0,22,25.8,1.79,1.79,0,0,0,23.8,24,1.71,1.71,0,0,0,22,22.3Z"/><path class="cls-2" d="M22,20c-3.3,0-6,3-6,4s2.7,4,6,4,6-3,6-4S25.3,20,22,20Zm0,7a3,3,0,1,1,3-3A2.95,2.95,0,0,1,22,27Z"/></svg>