<svg id="Layer_1" data-name="Layer 1" xmlns="http://www.w3.org/2000/svg" viewBox="0 0 64 64"><defs><style>.cls-1,.cls-2{fill:#fff;}.cls-1{opacity:0.6;isolation:isolate;}</style></defs><path class="cls-1" d="M51,30.72V21H39a2.07,2.07,0,0,1-2-2V7H15a2.07,2.07,0,0,0-2,2V55a2.07,2.07,0,0,0,2,2H49a2.07,2.07,0,0,0,2-2V30.72Z"/><path class="cls-2" d="M40,7V17c0,.6,0,1,1,1H51V16L42,7Z"/><path class="cls-2" d="M20,14H31c.6,0,1,0,1,1v4c0,1-.4,1-1,1H20c-.6,0-1,0-1-1V15C19,14,19.4,14,20,14Z"/><path class="cls-2" d="M20.1,24H39.92c.66,0,1.1,0,1.1,1v4c0,1-.44,1-1.1,1H20.1c-.66,0-1.1,0-1.1-1V25C19,24,19.44,24,20.1,24Z"/><path class="cls-2" d="M20.1,34.25h9.82c.66,0,1.1,0,1.1,1v4c0,1-.44,1-1.1,1H20.1c-.66,0-1.1,0-1.1-1v-4C19,34.25,19.44,34.25,20.1,34.25Z"/><path class="cls-2" d="M56.68,30.78l-3.61-3.61a1.21,1.21,0,0,0-1.69,0L37,41.55v5.3h5.3L56.68,32.47A1.19,1.19,0,0,0,56.68,30.78Z"/></svg>