<svg id="Layer_1" data-name="Layer 1" xmlns="http://www.w3.org/2000/svg" viewBox="0 0 32 32"><defs><style>.cls-1,.cls-2{fill:#0a4466;}.cls-1{opacity:0.4;}</style></defs><path class="cls-1" d="M25.11,15.4V10.73H19.35a1,1,0,0,1-1-1V4H7.84a1,1,0,0,0-1,1V27a1,1,0,0,0,1,1H24.15a1,1,0,0,0,1-1V15.4Z"/><path class="cls-2" d="M19.83,4V8.81c0,.29,0,.48.48.48h4.8V8.34L20.79,4Z"/><path class="cls-2" d="M10.24,7.38h5.28c.28,0,.47,0,.47.48V9.78c0,.48-.19.48-.47.48H10.24c-.29,0-.48,0-.48-.48V7.86C9.76,7.38,10,7.38,10.24,7.38Z"/><path class="cls-2" d="M10.29,12.18h9.5c.32,0,.53,0,.53.48v1.92c0,.48-.21.48-.53.48h-9.5c-.32,0-.53,0-.53-.48V12.66C9.76,12.18,10,12.18,10.29,12.18Z"/><path class="cls-2" d="M10.29,17.09H15c.31,0,.52,0,.52.48v1.92c0,.48-.21.48-.52.48H10.29c-.32,0-.53,0-.53-.48V17.57C9.76,17.09,10,17.09,10.29,17.09Z"/><path class="cls-2" d="M27.83,15.43,26.1,13.7a.58.58,0,0,0-.81,0l-6.9,6.9v2.54h2.55l6.89-6.9A.56.56,0,0,0,27.83,15.43Z"/></svg>