<svg id="Layer_1" data-name="Layer 1" xmlns="http://www.w3.org/2000/svg" viewBox="0 0 64 64"><defs><style>.cls-1{fill:none;}.cls-2,.cls-3{fill:#fff;}.cls-3{opacity:0.6;}</style></defs><path class="cls-1" d="M19.78,25.63h-.22a8.3,8.3,0,0,1-4.77-1.51,2.86,2.86,0,0,1,5,1.5Z"/><path class="cls-1" d="M27.85,18a8.46,8.46,0,0,1-.56,2.42,12.06,12.06,0,0,0-15-1.23c-.26.17-.5.36-.74.55a8.18,8.18,0,0,1-.36-2.39A8.33,8.33,0,0,1,27,13.5l-2.34,2.8a14.18,14.18,0,0,1,3.09,1.84Z"/><path class="cls-1" d="M19.33,27.63a2.88,2.88,0,0,1-5.27-1.58A10.34,10.34,0,0,0,19.33,27.63Z"/><path class="cls-2" d="M57,41.88l-.55-3.48a1.17,1.17,0,0,0-1.31-1c-.87.11-1.78.66-2.59,0-1.19-1,.2-2.67-1-3.67s-2.59.68-3.79-.32.2-2.68-1-3.68L41.05,25l-4.91,5.88,5.69,4.75c1.2,1,2.59-.68,3.79.32s-.2,2.68,1,3.68,2.6-.68,3.8.32c.85.72.38,1.78.48,2.69a1.16,1.16,0,0,0,1.2,1l3.53-.08A1.41,1.41,0,0,0,57,41.88Z"/><path class="cls-3" d="M43.18,22.43,41.06,25l-4.92,5.88L34,33.41a1.81,1.81,0,0,1-1.83.59A14,14,0,0,0,30.7,21.34c-.09-.13-.19-.24-.28-.36l2.22-2.66a1.95,1.95,0,0,0-2.9-2.6,10.05,10.05,0,0,0-1.43-3.85l.91-1.09a1.81,1.81,0,0,1,2.55-.23L43,19.87A1.82,1.82,0,0,1,43.18,22.43Z"/><path class="cls-3" d="M27.88,17.32c0,.22,0,.43,0,.65l-.15.17a14.18,14.18,0,0,0-3.09-1.84L27,13.5A8.32,8.32,0,0,1,27.88,17.32Z"/><path class="cls-3" d="M28.57,36.5a12,12,0,0,1-6.37,4.26A12,12,0,0,1,10,21.22a10.42,10.42,0,0,0,4.06,4.83,2.88,2.88,0,0,0,5.27,1.58,2.73,2.73,0,0,0,.43-1,3.1,3.1,0,0,0,0-1,2.86,2.86,0,0,0-5-1.5,8.33,8.33,0,0,1-3.2-4.42c.24-.19.48-.38.74-.55a12.06,12.06,0,0,1,15,1.23A12.71,12.71,0,0,1,28.73,22l.31.41A12,12,0,0,1,28.57,36.5Z"/><path class="cls-2" d="M38.7,51.6l-.54,4.17A1.41,1.41,0,0,1,36.4,57L33,56a1.18,1.18,0,0,1-.85-1.41c.21-.85.85-1.69.26-2.57-.87-1.3-2.68-.08-3.55-1.38s.94-2.51.08-3.81-2.69-.08-3.56-1.38L22.2,40.76a12,12,0,0,0,6.37-4.26l.7,1,2.47,3.68Z"/><path class="cls-2" d="M29.88,17.32A10.29,10.29,0,0,1,28.73,22a12.71,12.71,0,0,0-1.44-1.65A8.46,8.46,0,0,0,27.85,18c0-.22,0-.43,0-.65a8.33,8.33,0,0,0-16.65,0,8.18,8.18,0,0,0,.36,2.39,8.34,8.34,0,0,0,8,5.93h.22a3.1,3.1,0,0,1,0,1,2.73,2.73,0,0,1-.43,1,10.32,10.32,0,1,1,9-15.76,10.05,10.05,0,0,1,1.43,3.85A9.34,9.34,0,0,1,29.88,17.32Z"/></svg>