<svg id="Layer_1" data-name="Layer 1" xmlns="http://www.w3.org/2000/svg" viewBox="0 0 64 64"><defs><style>.cls-1,.cls-2{fill:#fff;}.cls-1{opacity:0.6;}.cls-3{fill:none;}</style></defs><path class="cls-1" d="M19.8,38.44a7.82,7.82,0,1,0,7.82,7.82A7.82,7.82,0,0,0,19.8,38.44Zm0,11.36a3.54,3.54,0,1,1,3.54-3.54A3.55,3.55,0,0,1,19.8,49.8Z"/><path class="cls-2" d="M44.39,43.23a2.22,2.22,0,1,0,2.22,2.22A2.21,2.21,0,0,0,44.39,43.23Z"/><path class="cls-1" d="M44.39,36.81A8.64,8.64,0,1,0,53,45.45,8.63,8.63,0,0,0,44.39,36.81Zm0,13a4.36,4.36,0,1,1,4.36-4.35A4.35,4.35,0,0,1,44.39,49.8Z"/><path class="cls-3" d="M42.08,14.74H40.61A16.59,16.59,0,0,0,24.55,27.17l-1.36,5.28,7.15,3.63L43,30.6,44,29.09,42.52,15.14A.44.44,0,0,0,42.08,14.74Z"/><path class="cls-2" d="M55,29.67H46.24L44.64,14.9a2.57,2.57,0,0,0-2.56-2.29H40.61a18.73,18.73,0,0,0-18.13,14l-.81,3.13.69-2.64-.69,2.64-.21.8L20,36.31A9.93,9.93,0,0,1,26.64,39h0c.17.16.33.33.49.5l.12.13.4.48.15.2.34.48.15.25c.16.26.3.52.44.79s.14.28.2.43.1.25.15.38.12.31.17.47.08.25.12.38.09.34.13.51.06.25.08.38.06.38.09.57,0,.23,0,.34a7.87,7.87,0,0,1,0,.84s0,.06,0,.09a10,10,0,0,1-.07,1.1H33.8a10.94,10.94,0,0,1-.18-1.91,10.78,10.78,0,1,1,21.55,0A10.94,10.94,0,0,1,55,47.36a2,2,0,0,0,2-2V31.69A2,2,0,0,0,55,29.67ZM43,30.6,30.34,36.08l-7.15-3.63,1.36-5.28A16.59,16.59,0,0,1,40.61,14.74h1.47a.44.44,0,0,1,.44.4l1.51,14Z"/><path class="cls-1" d="M23.7,11,18.36,30.58l-1.71,6.24h0l-.44-.14-1.6-.52-5.86-2-.81-.27L7,32.14l2.07.4,6.2,1.21.44-1.62,5.93-21.74a.65.65,0,0,1,.79-.45l.82.22A.64.64,0,0,1,23.7,11Z"/></svg>