<svg id="Layer_1" data-name="Layer 1" xmlns="http://www.w3.org/2000/svg" viewBox="0 0 32 32"><defs><style>.cls-1{fill:none;}.cls-2,.cls-3{fill:#a08165;}.cls-2{opacity:0.4;}</style></defs><path class="cls-1" d="M8.19,14.43a1.43,1.43,0,0,0,1.47-.61A5.17,5.17,0,0,1,7,13,1.46,1.46,0,0,0,8.19,14.43Z"/><path class="cls-1" d="M20.91,17.8l-2.84-2.37,1.09-1.31-1.09,1.31L17,16.71a.92.92,0,0,1-.92.29,7,7,0,0,0-.74-6.33l-.14-.18,1.11-1.33a1,1,0,0,0-1.45-1.3,5.29,5.29,0,0,1,.07.8A5.09,5.09,0,0,1,14.36,11l.16.21a6,6,0,0,1-.24,7l.35.52,1.24,1.84h0A9.09,9.09,0,0,1,22,18a6.65,6.65,0,0,1,.89.06L22.81,18C22.21,17.47,21.51,18.3,20.91,17.8Z"/><path class="cls-1" d="M9.89,12.82a1.45,1.45,0,0,0-1.14-1.21,1.41,1.41,0,0,0-1.35.46,4.13,4.13,0,0,0,2.38.75Z"/><path class="cls-1" d="M13.85,9.07a7.12,7.12,0,0,0-1.55-.92l1.17-1.4A4.16,4.16,0,0,0,5.62,8.66a4,4,0,0,0,.18,1.2l.37-.28a6,6,0,0,1,7.47.62A4.11,4.11,0,0,0,13.92,9Z"/><path class="cls-2" d="M19.16,14.12l-1.09,1.31,2.84,2.37c.6.5,1.3-.33,1.9.17l.08.09A9.43,9.43,0,0,1,28.49,21v-.06l-.27-1.74a.6.6,0,0,0-.66-.5c-.44.06-.89.34-1.29,0-.6-.5.1-1.34-.5-1.84s-1.3.34-1.9-.16.1-1.34-.5-1.84l-2.84-2.37h0Z"/><path class="cls-3" d="M16.19,7.79a1,1,0,0,1,.13,1.37l-1.11,1.33.14.18A7,7,0,0,1,16.09,17a.92.92,0,0,0,.92-.29l1.06-1.28,1.09-1.31,1.37-1.63h0l1.06-1.27a.91.91,0,0,0-.12-1.28L15.88,5.28a.9.9,0,0,0-1.27.11l-.46.55a5.06,5.06,0,0,1,.72,1.92A1,1,0,0,1,16.19,7.79Z"/><path class="cls-3" d="M13.85,9.07,13.92,9c0-.11,0-.22,0-.33a4.12,4.12,0,0,0-.47-1.91L12.3,8.15A7.12,7.12,0,0,1,13.85,9.07Z"/><path class="cls-3" d="M14.28,18.25a6,6,0,0,0,.24-7L14.36,11a6.31,6.31,0,0,0-.72-.82,6,6,0,0,0-7.47-.62l-.37.28a4.16,4.16,0,0,0,1.6,2.21,1.41,1.41,0,0,1,1.35-.46,1.45,1.45,0,0,1,1.14,1.21,1.56,1.56,0,0,1,0,.48,1.41,1.41,0,0,1-.22.52,1.43,1.43,0,0,1-1.47.61A1.46,1.46,0,0,1,7,13a5.27,5.27,0,0,1-2-2.42,6,6,0,0,0,7.87,9A5.77,5.77,0,0,0,14.28,18.25Z"/><path class="cls-2" d="M15.87,20.61l-1.24-1.84-.35-.52a5.77,5.77,0,0,1-1.41,1.33,6,6,0,0,1-1.77.8l1.58,2.37c.35.51,1,.24,1.46.43a6.45,6.45,0,0,1,1.74-2.56Z"/><path class="cls-2" d="M7,13a5.17,5.17,0,0,0,2.63.79,1.41,1.41,0,0,0,.22-.52,1.56,1.56,0,0,0,0-.48H9.78a4.16,4.16,0,0,1-4-3,4,4,0,0,1-.18-1.2,4.16,4.16,0,0,1,7.85-1.91,4.12,4.12,0,0,1,.47,1.91c0,.11,0,.22,0,.33a4.11,4.11,0,0,1-.28,1.21,6.31,6.31,0,0,1,.72.82,5.09,5.09,0,0,0,.58-2.36,5.29,5.29,0,0,0-.07-.8,5.06,5.06,0,0,0-.72-1.92A5.15,5.15,0,0,0,4.62,8.66,5.15,5.15,0,0,0,7,13Z"/><path class="cls-3" d="M22,22.3h-.5a1,1,0,0,1,.5.8.9.9,0,0,1-.9.9,1,1,0,0,1-.8-.5V24A1.71,1.71,0,0,0,22,25.8,1.79,1.79,0,0,0,23.8,24,1.71,1.71,0,0,0,22,22.3Z"/><path class="cls-3" d="M22,20c-3.3,0-6,3-6,4s2.7,4,6,4,6-3,6-4S25.3,20,22,20Zm0,7a3,3,0,1,1,3-3A2.95,2.95,0,0,1,22,27Z"/></svg>