<svg id="Layer_1" data-name="Layer 1" xmlns="http://www.w3.org/2000/svg" viewBox="0 0 64 64"><defs><style>.cls-1,.cls-2{fill:#fff;}.cls-1{opacity:0.6;isolation:isolate;}</style></defs><path class="cls-1" d="M49,57H15a2.07,2.07,0,0,1-2-2V16a2,2,0,0,1,2-2H25a7,7,0,0,1,14,0H49a2,2,0,0,1,2,2V55A2.07,2.07,0,0,1,49,57ZM32,11a3,3,0,1,0,3,3A2.95,2.95,0,0,0,32,11Z"/><path class="cls-2" d="M46,19H18c0-4.2,3.9-5,5-5h2a7,7,0,0,1,14,0h2C42.1,14,46,14.8,46,19ZM32,11a3,3,0,1,0,3,3A2.95,2.95,0,0,0,32,11Z"/><path class="cls-2" d="M21.82,31.06h-.6l-1.11-1.19-2-2a.39.39,0,0,1,0-.56l1.11-1.11a.44.44,0,0,1,.6,0l1.67,1.67,4.26-4.22a.39.39,0,0,1,.56,0l1.11,1.11a.39.39,0,0,1,0,.56l-4.49,4.58-1.12,1.19"/><path class="cls-2" d="M21.82,41.06h-.6l-1.11-1.19-2-2a.39.39,0,0,1,0-.56l1.11-1.11a.43.43,0,0,1,.6,0l1.67,1.67,4.26-4.22a.39.39,0,0,1,.56,0l1.11,1.11a.39.39,0,0,1,0,.56l-4.49,4.58-1.12,1.19"/><path class="cls-2" d="M21.82,51.06h-.6l-1.11-1.19-2-2a.39.39,0,0,1,0-.56l1.11-1.11a.44.44,0,0,1,.6,0l1.67,1.67,4.26-4.22a.39.39,0,0,1,.56,0l1.11,1.12a.37.37,0,0,1,0,.55l-4.49,4.58-1.12,1.19"/><path class="cls-2" d="M32.62,46.65H45.38c.37,0,.62,0,.62.62v2.48c0,.62-.25.62-.62.62H32.62c-.37,0-.62,0-.62-.62V47.27C32,46.65,32.25,46.65,32.62,46.65Z"/><path class="cls-2" d="M32.62,36.65H45.38c.37,0,.62,0,.62.62v2.48c0,.62-.25.62-.62.62H32.62c-.37,0-.62,0-.62-.62V37.27C32,36.65,32.25,36.65,32.62,36.65Z"/><path class="cls-2" d="M32.62,26.65H45.38c.37,0,.62,0,.62.62v2.48c0,.62-.25.62-.62.62H32.62c-.37,0-.62,0-.62-.62V27.27C32,26.65,32.25,26.65,32.62,26.65Z"/></svg>