<svg id="Layer_1" data-name="Layer 1" xmlns="http://www.w3.org/2000/svg" viewBox="0 0 64 64"><defs><style>.cls-1,.cls-2,.cls-3{fill:#fff;}.cls-1{opacity:0.6;isolation:isolate;}.cls-3{opacity:0;}</style></defs><path class="cls-1" d="M49,7H15a2.07,2.07,0,0,0-2,2V55a2.07,2.07,0,0,0,2,2H49a2.07,2.07,0,0,0,2-2V9A2,2,0,0,0,49,7ZM45.5,43.15H40.8V40.22a.56.56,0,0,0-.59-.6H37v5.86H31.29V41.93a.66.66,0,0,0-.7-.71H24.9a.67.67,0,0,0-.71.71v3.55H18.5V21.32a2.85,2.85,0,0,1,2.85-2.84H34.14a2.85,2.85,0,0,1,2.79,2.33h6.22a2.35,2.35,0,0,1,2.35,2.35Z"/><path class="cls-1" d="M42.57,29H40.21c-.35,0-.59.23-.59.35V31c0,.12.24.35.59.35h2.36c.35,0,.58-.11.58-.35V29.39C43.15,29.27,42.92,29,42.57,29Z"/><path class="cls-1" d="M42.57,34.92H40.21c-.35,0-.59.23-.59.35v1.65c0,.12.24.35.59.35h2.36c.35,0,.58-.11.58-.35V35.27C43.15,35.15,42.92,34.92,42.57,34.92Z"/><path class="cls-1" d="M42.57,23.16H40.21c-.35,0-.59.24-.59.35v1.65c0,.12.24.35.59.35h2.36c.35,0,.58-.11.58-.35V23.51C43.15,23.4,42.92,23.16,42.57,23.16Z"/><path class="cls-2" d="M36.93,20.81a2.85,2.85,0,0,0-2.79-2.33H21.35a2.85,2.85,0,0,0-2.85,2.84V45.48h5.69V41.93a.67.67,0,0,1,.71-.71h5.69a.66.66,0,0,1,.7.71v3.55H37V21.32A2.94,2.94,0,0,0,36.93,20.81ZM25.61,38c0,.28-.28.43-.71.43H22.06c-.42,0-.71-.29-.71-.43V36c0-.14.29-.43.71-.43H24.9c.43,0,.71.29.71.43Zm0-7.1c0,.28-.28.42-.71.42H22.06c-.42,0-.71-.28-.71-.42v-2c0-.14.29-.42.71-.42H24.9c.43,0,.71.28.71.42Zm0-7.11c0,.28-.28.42-.71.42H22.06c-.42,0-.71-.28-.71-.42v-2c0-.14.29-.43.71-.43H24.9c.43,0,.71.29.71.43ZM34.14,38c0,.28-.29.43-.71.43H30.59c-.43,0-.72-.29-.72-.43V36c0-.14.29-.43.72-.43h2.84c.42,0,.71.29.71.43Zm0-7.1c0,.28-.29.42-.71.42H30.59c-.43,0-.72-.28-.72-.42v-2c0-.14.29-.42.72-.42h2.84c.42,0,.71.28.71.42Zm0-7.11c0,.28-.29.42-.71.42H30.59c-.43,0-.72-.28-.72-.42v-2c0-.14.29-.43.72-.43h2.84c.42,0,.71.29.71.43Z"/><path class="cls-1" d="M24.9,35.53H22.06c-.42,0-.71.29-.71.43v2c0,.14.29.43.71.43H24.9c.43,0,.71-.15.71-.43V36C25.61,35.82,25.33,35.53,24.9,35.53Z"/><path class="cls-3" d="M24.9,35.53H22.06c-.42,0-.71.29-.71.43v2c0,.14.29.43.71.43H24.9c.43,0,.71-.15.71-.43V36C25.61,35.82,25.33,35.53,24.9,35.53Z"/><path class="cls-1" d="M33.43,35.53H30.59c-.43,0-.72.29-.72.43v2c0,.14.29.43.72.43h2.84c.42,0,.71-.15.71-.43V36C34.14,35.82,33.85,35.53,33.43,35.53Z"/><path class="cls-3" d="M33.43,35.53H30.59c-.43,0-.72.29-.72.43v2c0,.14.29.43.72.43h2.84c.42,0,.71-.15.71-.43V36C34.14,35.82,33.85,35.53,33.43,35.53Z"/><path class="cls-1" d="M33.43,28.43H30.59c-.43,0-.72.28-.72.42v2c0,.14.29.42.72.42h2.84c.42,0,.71-.14.71-.42v-2C34.14,28.71,33.85,28.43,33.43,28.43Z"/><path class="cls-3" d="M33.43,28.43H30.59c-.43,0-.72.28-.72.42v2c0,.14.29.42.72.42h2.84c.42,0,.71-.14.71-.42v-2C34.14,28.71,33.85,28.43,33.43,28.43Z"/><path class="cls-1" d="M24.9,28.43H22.06c-.42,0-.71.28-.71.42v2c0,.14.29.42.71.42H24.9c.43,0,.71-.14.71-.42v-2C25.61,28.71,25.33,28.43,24.9,28.43Z"/><path class="cls-3" d="M24.9,28.43H22.06c-.42,0-.71.28-.71.42v2c0,.14.29.42.71.42H24.9c.43,0,.71-.14.71-.42v-2C25.61,28.71,25.33,28.43,24.9,28.43Z"/><path class="cls-1" d="M24.9,21.32H22.06c-.42,0-.71.29-.71.43v2c0,.14.29.42.71.42H24.9c.43,0,.71-.14.71-.42v-2C25.61,21.61,25.33,21.32,24.9,21.32Z"/><path class="cls-3" d="M24.9,21.32H22.06c-.42,0-.71.29-.71.43v2c0,.14.29.42.71.42H24.9c.43,0,.71-.14.71-.42v-2C25.61,21.61,25.33,21.32,24.9,21.32Z"/><path class="cls-1" d="M33.43,21.32H30.59c-.43,0-.72.29-.72.43v2c0,.14.29.42.72.42h2.84c.42,0,.71-.14.71-.42v-2C34.14,21.61,33.85,21.32,33.43,21.32Z"/><path class="cls-3" d="M33.43,21.32H30.59c-.43,0-.72.29-.72.43v2c0,.14.29.42.72.42h2.84c.42,0,.71-.14.71-.42v-2C34.14,21.61,33.85,21.32,33.43,21.32Z"/></svg>