<svg id="Layer_1" data-name="Layer 1" xmlns="http://www.w3.org/2000/svg" xmlns:xlink="http://www.w3.org/1999/xlink" viewBox="0 0 32 32"><defs><style>.cls-1{fill:none;}.cls-2{clip-path:url(#clip-path);}.cls-3{opacity:0.4;}.cls-4{fill:#2576c7;}.cls-5,.cls-6{fill:#fff;}.cls-6{opacity:0;}</style><clipPath id="clip-path"><path class="cls-1" d="M24.5,3.5H7.5a1,1,0,0,0-1,1v23a1,1,0,0,0,1,1h9.8C15.32,27.2,14,25.34,14,24a5,5,0,0,1,1.62-3.11,10,10,0,0,1,2.87-2.06,8.86,8.86,0,0,1,1.33-.5A8,8,0,0,1,21.57,18L22,18c.26,0,.51,0,.76,0a8.62,8.62,0,0,1,2.75.79V4.5A1,1,0,0,0,24.5,3.5Z"/></clipPath></defs><g class="cls-2"><g class="cls-3"><path class="cls-4" d="M25.5,4.5a1,1,0,0,0-1-1H7.5a1,1,0,0,0-1,1v23a1,1,0,0,0,1,1h17a1,1,0,0,0,1-1V4.5Z"/></g><path class="cls-1" d="M21.28,14.53H20.11c-.18,0-.3.12-.3.18v.82c0,.06.12.18.3.18h1.17c.18,0,.29-.06.29-.18v-.82C21.57,14.65,21.46,14.53,21.28,14.53Z"/><path class="cls-1" d="M21.28,17.47H20.11c-.18,0-.3.12-.3.18v.82c0,.06.12.18.3.18h1.17c.18,0,.29-.06.29-.18v-.82C21.57,17.59,21.46,17.47,21.28,17.47Z"/><path class="cls-1" d="M21.28,11.59H20.11c-.18,0-.3.12-.3.18v.82c0,.06.12.18.3.18h1.17c.18,0,.29-.06.29-.18v-.82C21.57,11.71,21.46,11.59,21.28,11.59Z"/><path class="cls-5" d="M21.57,10.41H18.46a1.15,1.15,0,0,1,0,.26v9.15h1.62a.28.28,0,0,1,.29.3v1.47h2.35v-10A1.18,1.18,0,0,0,21.57,10.41Zm0,8.06c0,.12-.11.18-.29.18H20.11c-.18,0-.3-.12-.3-.18v-.82c0-.06.12-.18.3-.18h1.17c.18,0,.29.12.29.18Zm0-2.94c0,.12-.11.18-.29.18H20.11c-.18,0-.3-.12-.3-.18v-.82c0-.06.12-.18.3-.18h1.17c.18,0,.29.12.29.18Zm0-2.94c0,.12-.11.18-.29.18H20.11c-.18,0-.3-.12-.3-.18v-.82c0-.06.12-.18.3-.18h1.17c.18,0,.29.12.29.18Z"/><path class="cls-4" d="M18.46,10.41a1.42,1.42,0,0,0-1.39-1.16h-6.4a1.43,1.43,0,0,0-1.42,1.42V22.75h2.84V21a.34.34,0,0,1,.36-.36h2.84a.33.33,0,0,1,.35.36v1.77h2.85V10.67A1.15,1.15,0,0,0,18.46,10.41ZM12.8,19c0,.14-.14.21-.35.21H11c-.21,0-.36-.14-.36-.21V18c0-.07.15-.21.36-.21h1.42c.21,0,.35.14.35.21Zm0-3.56c0,.14-.14.21-.35.21H11c-.21,0-.36-.14-.36-.21v-1c0-.07.15-.22.36-.22h1.42a.35.35,0,0,1,.35.22Zm0-3.55c0,.14-.14.21-.35.21H11c-.21,0-.36-.14-.36-.21v-1c0-.07.15-.21.36-.21h1.42c.21,0,.35.14.35.21ZM17.07,19c0,.14-.15.21-.36.21H15.29c-.21,0-.36-.14-.36-.21V18c0-.07.15-.21.36-.21h1.42c.21,0,.36.14.36.21Zm0-3.56c0,.14-.15.21-.36.21H15.29c-.21,0-.36-.14-.36-.21v-1c0-.07.15-.22.36-.22h1.42c.21,0,.36.15.36.22Zm0-3.55c0,.14-.15.21-.36.21H15.29c-.21,0-.36-.14-.36-.21v-1c0-.07.15-.21.36-.21h1.42c.21,0,.36.14.36.21Z"/><path class="cls-6" d="M12.45,17.78H11c-.21,0-.36.14-.36.21v1c0,.07.15.21.36.21h1.42c.21,0,.35-.07.35-.21V18C12.8,17.92,12.66,17.78,12.45,17.78Z"/><path class="cls-6" d="M16.71,17.78H15.29c-.21,0-.36.14-.36.21v1c0,.07.15.21.36.21h1.42c.21,0,.36-.07.36-.21V18C17.07,17.92,16.92,17.78,16.71,17.78Z"/><path class="cls-6" d="M16.71,14.22H15.29c-.21,0-.36.15-.36.22v1c0,.07.15.21.36.21h1.42c.21,0,.36-.07.36-.21v-1C17.07,14.37,16.92,14.22,16.71,14.22Z"/><path class="cls-6" d="M12.45,14.22H11c-.21,0-.36.15-.36.22v1c0,.07.15.21.36.21h1.42c.21,0,.35-.07.35-.21v-1A.35.35,0,0,0,12.45,14.22Z"/><path class="cls-6" d="M12.45,10.67H11c-.21,0-.36.14-.36.21v1c0,.07.15.21.36.21h1.42c.21,0,.35-.07.35-.21v-1C12.8,10.81,12.66,10.67,12.45,10.67Z"/><path class="cls-6" d="M16.71,10.67H15.29c-.21,0-.36.14-.36.21v1c0,.07.15.21.36.21h1.42c.21,0,.36-.07.36-.21v-1C17.07,10.81,16.92,10.67,16.71,10.67Z"/></g><path class="cls-4" d="M22,22.29h-.5a1,1,0,0,1,.5.8.9.9,0,0,1-.9.9,1,1,0,0,1-.8-.5V24a1.71,1.71,0,0,0,1.7,1.8,1.79,1.79,0,0,0,1.8-1.8A1.71,1.71,0,0,0,22,22.29Z"/><path class="cls-4" d="M25.5,21.1a6.94,6.94,0,0,0-2.75-1.05A4.77,4.77,0,0,0,22,20a5.68,5.68,0,0,0-1.6.24,6.91,6.91,0,0,0-1.91.87,7.85,7.85,0,0,0-1.86,1.65A2.42,2.42,0,0,0,16,24c0,1,2.7,4,6,4a6.6,6.6,0,0,0,3.51-1.1C27,25.93,28,24.6,28,24S27,22.06,25.5,21.1ZM22,27a3,3,0,0,1-1.6-5.55A3.08,3.08,0,0,1,22,21a3.17,3.17,0,0,1,.76.1A3,3,0,0,1,22,27Z"/><path class="cls-5" d="M22.75,21.09A3.17,3.17,0,0,0,22,21a3.08,3.08,0,0,0-1.6.45,3,3,0,1,0,2.36-.35ZM22,25.79a1.71,1.71,0,0,1-1.7-1.8v-.5a1,1,0,0,0,.8.5.9.9,0,0,0,.9-.9,1,1,0,0,0-.5-.8H22a1.71,1.71,0,0,1,1.8,1.7A1.79,1.79,0,0,1,22,25.79Z"/></svg>