<svg id="Layer_1" data-name="Layer 1" xmlns="http://www.w3.org/2000/svg" viewBox="0 0 64 64"><defs><style>.cls-1,.cls-2{fill:#fff;}.cls-2{opacity:0.6;}</style></defs><path class="cls-1" d="M7,12.24V57H17.53V50.41a1.25,1.25,0,0,1,1.32-1.32H29.38a1.24,1.24,0,0,1,1.31,1.32V57H41.21V12.24A5.27,5.27,0,0,0,36,7H12.27A5.28,5.28,0,0,0,7,12.24Zm21.06,27.1c0-.26.53-.78,1.32-.78h5.26c.79,0,1.31.52,1.31.78V43c0,.52-.52.78-1.31.78H29.38c-.79,0-1.32-.52-1.32-.78Zm0-13.15c0-.26.53-.79,1.32-.79h5.26c.79,0,1.31.53,1.31.79v3.69c0,.52-.52.78-1.31.78H29.38c-.79,0-1.32-.52-1.32-.78Zm0-13.16c0-.26.53-.79,1.32-.79h5.26c.79,0,1.31.53,1.31.79v3.69c0,.53-.52.79-1.31.79H29.38c-.79,0-1.32-.53-1.32-.79ZM12.27,39.34c0-.26.53-.78,1.32-.78h5.26c.79,0,1.31.52,1.31.78V43c0,.52-.52.78-1.31.78H13.59c-.79,0-1.32-.52-1.32-.78Zm0-13.15c0-.26.53-.79,1.32-.79h5.26c.79,0,1.31.53,1.31.79v3.69c0,.52-.52.78-1.31.78H13.59c-.79,0-1.32-.52-1.32-.78Zm0-13.16c0-.26.53-.79,1.32-.79h5.26c.79,0,1.31.53,1.31.79v3.69c0,.53-.52.79-1.31.79H13.59c-.79,0-1.32-.53-1.32-.79Z"/><path class="cls-2" d="M12.27,39.34V43c0,.26.53.78,1.32.78h5.26c.79,0,1.31-.26,1.31-.78v-3.7c0-.26-.52-.78-1.31-.78H13.59C12.8,38.56,12.27,39.08,12.27,39.34Z"/><path class="cls-2" d="M28.06,39.34V43c0,.26.53.78,1.32.78h5.26c.79,0,1.31-.26,1.31-.78v-3.7c0-.26-.52-.78-1.31-.78H29.38C28.59,38.56,28.06,39.08,28.06,39.34Z"/><path class="cls-2" d="M28.06,26.19v3.69c0,.26.53.78,1.32.78h5.26c.79,0,1.31-.26,1.31-.78V26.19c0-.26-.52-.79-1.31-.79H29.38C28.59,25.4,28.06,25.93,28.06,26.19Z"/><path class="cls-2" d="M12.27,26.19v3.69c0,.26.53.78,1.32.78h5.26c.79,0,1.31-.26,1.31-.78V26.19c0-.26-.52-.79-1.31-.79H13.59C12.8,25.4,12.27,25.93,12.27,26.19Z"/><path class="cls-2" d="M12.27,13v3.69c0,.26.53.79,1.32.79h5.26c.79,0,1.31-.26,1.31-.79V13c0-.26-.52-.79-1.31-.79H13.59C12.8,12.24,12.27,12.77,12.27,13Z"/><path class="cls-2" d="M28.06,13v3.69c0,.26.53.79,1.32.79h5.26c.79,0,1.31-.26,1.31-.79V13c0-.26-.52-.79-1.31-.79H29.38C28.59,12.24,28.06,12.77,28.06,13Z"/><path class="cls-2" d="M38.44,41.78v4.37h8.77a1,1,0,0,1,1.08,1.09v5.44H57v-37a4.36,4.36,0,0,0-4.35-4.36H38.44v4.36h.06c.65,0,1.08.43,1.08.65v3.05c0,.44-.43.65-1.08.65h-.06v6.54h.06c.65,0,1.08.43,1.08.65v3c0,.44-.43.65-1.08.65h-.06v6.53h.06c.65,0,1.08.44,1.08.65v3.06c0,.43-.43.65-1.08.65Zm7.67-3.71c0-.21.45-.65,1.1-.65h4.35c.65,0,1.09.44,1.09.65v3.06c0,.43-.44.65-1.09.65H47.21c-.65,0-1.1-.43-1.1-.65Zm0-10.88c0-.22.45-.65,1.1-.65h4.35c.65,0,1.09.43,1.09.65v3c0,.44-.44.65-1.09.65H47.21c-.65,0-1.1-.43-1.1-.65Zm0-10.89c0-.22.45-.65,1.1-.65h4.35c.65,0,1.09.43,1.09.65v3.05c0,.44-.44.65-1.09.65H47.21c-.65,0-1.1-.43-1.1-.65Z"/><path class="cls-1" d="M39.58,38.07v3.06c0,.43-.43.65-1.08.65h-.06V37.42h.06C39.15,37.42,39.58,37.86,39.58,38.07Z"/><path class="cls-2" d="M39.58,38.07v3.06c0,.43-.43.65-1.08.65h-.06V37.42h.06C39.15,37.42,39.58,37.86,39.58,38.07Z"/><path class="cls-1" d="M39.58,27.19v3c0,.44-.43.65-1.08.65h-.06V26.54h.06C39.15,26.54,39.58,27,39.58,27.19Z"/><path class="cls-2" d="M39.58,27.19v3c0,.44-.43.65-1.08.65h-.06V26.54h.06C39.15,26.54,39.58,27,39.58,27.19Z"/><path class="cls-1" d="M39.58,16.3v3.05c0,.44-.43.65-1.08.65h-.06V15.65h.06C39.15,15.65,39.58,16.08,39.58,16.3Z"/><path class="cls-2" d="M39.58,16.3v3.05c0,.44-.43.65-1.08.65h-.06V15.65h.06C39.15,15.65,39.58,16.08,39.58,16.3Z"/></svg>