<svg id="Layer_1" data-name="Layer 1" xmlns="http://www.w3.org/2000/svg" viewBox="0 0 32 32"><defs><style>.cls-1{opacity:0.4;}.cls-2{fill:#2576c7;}.cls-3{fill:none;}.cls-4,.cls-5{fill:#fff;}.cls-5{opacity:0;}</style></defs><g class="cls-1"><path class="cls-2" d="M25.5,4.5a1,1,0,0,0-1-1H7.5a1,1,0,0,0-1,1v23a1,1,0,0,0,1,1h17a1,1,0,0,0,1-1V4.5Z"/></g><path class="cls-3" d="M21.28,14.53H20.11c-.18,0-.3.12-.3.18v.82c0,.06.12.18.3.18h1.17c.18,0,.29-.06.29-.18v-.82C21.57,14.65,21.46,14.53,21.28,14.53Z"/><path class="cls-3" d="M21.28,17.47H20.11c-.18,0-.3.12-.3.18v.82c0,.06.12.18.3.18h1.17c.18,0,.29-.06.29-.18v-.82C21.57,17.59,21.46,17.47,21.28,17.47Z"/><path class="cls-3" d="M21.28,11.59H20.11c-.18,0-.3.12-.3.18v.82c0,.06.12.18.3.18h1.17c.18,0,.29-.06.29-.18v-.82C21.57,11.71,21.46,11.59,21.28,11.59Z"/><path class="cls-4" d="M21.57,10.41H18.46a1.15,1.15,0,0,1,0,.26v9.15h1.62a.28.28,0,0,1,.29.3v1.47h2.35v-10A1.18,1.18,0,0,0,21.57,10.41Zm0,8.06c0,.12-.11.18-.29.18H20.11c-.18,0-.3-.12-.3-.18v-.82c0-.06.12-.18.3-.18h1.17c.18,0,.29.12.29.18Zm0-2.94c0,.12-.11.18-.29.18H20.11c-.18,0-.3-.12-.3-.18v-.82c0-.06.12-.18.3-.18h1.17c.18,0,.29.12.29.18Zm0-2.94c0,.12-.11.18-.29.18H20.11c-.18,0-.3-.12-.3-.18v-.82c0-.06.12-.18.3-.18h1.17c.18,0,.29.12.29.18Z"/><path class="cls-2" d="M18.46,10.41a1.42,1.42,0,0,0-1.39-1.16h-6.4a1.43,1.43,0,0,0-1.42,1.42V22.75h2.84V21a.34.34,0,0,1,.36-.36h2.84a.33.33,0,0,1,.35.36v1.77h2.85V10.67A1.15,1.15,0,0,0,18.46,10.41ZM12.8,19c0,.14-.14.21-.35.21H11c-.21,0-.36-.14-.36-.21V18c0-.07.15-.21.36-.21h1.42c.21,0,.35.14.35.21Zm0-3.56c0,.14-.14.21-.35.21H11c-.21,0-.36-.14-.36-.21v-1c0-.07.15-.22.36-.22h1.42a.35.35,0,0,1,.35.22Zm0-3.55c0,.14-.14.21-.35.21H11c-.21,0-.36-.14-.36-.21v-1c0-.07.15-.21.36-.21h1.42c.21,0,.35.14.35.21ZM17.07,19c0,.14-.15.21-.36.21H15.29c-.21,0-.36-.14-.36-.21V18c0-.07.15-.21.36-.21h1.42c.21,0,.36.14.36.21Zm0-3.56c0,.14-.15.21-.36.21H15.29c-.21,0-.36-.14-.36-.21v-1c0-.07.15-.22.36-.22h1.42c.21,0,.36.15.36.22Zm0-3.55c0,.14-.15.21-.36.21H15.29c-.21,0-.36-.14-.36-.21v-1c0-.07.15-.21.36-.21h1.42c.21,0,.36.14.36.21Z"/><path class="cls-5" d="M12.45,17.78H11c-.21,0-.36.14-.36.21v1c0,.07.15.21.36.21h1.42c.21,0,.35-.07.35-.21V18C12.8,17.92,12.66,17.78,12.45,17.78Z"/><path class="cls-5" d="M16.71,17.78H15.29c-.21,0-.36.14-.36.21v1c0,.07.15.21.36.21h1.42c.21,0,.36-.07.36-.21V18C17.07,17.92,16.92,17.78,16.71,17.78Z"/><path class="cls-5" d="M16.71,14.22H15.29c-.21,0-.36.15-.36.22v1c0,.07.15.21.36.21h1.42c.21,0,.36-.07.36-.21v-1C17.07,14.37,16.92,14.22,16.71,14.22Z"/><path class="cls-5" d="M12.45,14.22H11c-.21,0-.36.15-.36.22v1c0,.07.15.21.36.21h1.42c.21,0,.35-.07.35-.21v-1A.35.35,0,0,0,12.45,14.22Z"/><path class="cls-5" d="M12.45,10.67H11c-.21,0-.36.14-.36.21v1c0,.07.15.21.36.21h1.42c.21,0,.35-.07.35-.21v-1C12.8,10.81,12.66,10.67,12.45,10.67Z"/><path class="cls-5" d="M16.71,10.67H15.29c-.21,0-.36.14-.36.21v1c0,.07.15.21.36.21h1.42c.21,0,.36-.07.36-.21v-1C17.07,10.81,16.92,10.67,16.71,10.67Z"/></svg>