<svg id="Layer_1" data-name="Layer 1" xmlns="http://www.w3.org/2000/svg" viewBox="0 0 24 24"><defs><style>.cls-1{fill:#1467ba;}</style></defs><path class="cls-1" d="M9.48,18.18H7c-.59,0-1.13-.41-1.13-.87V15.53c0-.45.54-.87,1.13-.87H9.48c.59,0,1.13.42,1.13.87v1.78C10.61,17.71,10.31,18.18,9.48,18.18Zm-2.66-1a.23.23,0,0,0,.13,0H9.61v-1.5l-.13,0H7a.23.23,0,0,0-.13,0Z"/><path class="cls-1" d="M17.06,18.18H14.53c-.59,0-1.13-.41-1.13-.87V15.53c0-.45.54-.87,1.13-.87h2.53a1.06,1.06,0,0,1,1.12.87v1.78C18.18,17.71,17.89,18.18,17.06,18.18Zm-2.66-1a.23.23,0,0,0,.13,0h2.65v-1.5l-.12,0H14.53a.23.23,0,0,0-.13,0Z"/><path class="cls-1" d="M17.06,11.87H14.53A1.07,1.07,0,0,1,13.4,11V9.22a1.07,1.07,0,0,1,1.13-.88h2.53a1.06,1.06,0,0,1,1.12.88V11C18.18,11.4,17.89,11.87,17.06,11.87Zm-2.66-1a.35.35,0,0,0,.13,0h2.65V9.37a.21.21,0,0,0-.12,0H14.53a.35.35,0,0,0-.13,0Z"/><path class="cls-1" d="M9.48,11.87H7A1.07,1.07,0,0,1,5.82,11V9.22A1.07,1.07,0,0,1,7,8.34H9.48a1.07,1.07,0,0,1,1.13.88V11C10.61,11.4,10.31,11.87,9.48,11.87Zm-2.66-1a.35.35,0,0,0,.13,0H9.61V9.37a.28.28,0,0,0-.13,0H7a.35.35,0,0,0-.13,0Z"/><path class="cls-1" d="M9.48,5.55H7c-.59,0-1.13-.42-1.13-.87V2.9C5.82,2.44,6.36,2,7,2H9.48c.59,0,1.13.41,1.13.87V4.68C10.61,5.08,10.31,5.55,9.48,5.55Zm-2.66-1a.23.23,0,0,0,.13,0H9.61V3.05L9.48,3H7a.23.23,0,0,0-.13,0Z"/><path class="cls-1" d="M17.06,5.55H14.53c-.59,0-1.13-.42-1.13-.87V2.9c0-.46.54-.87,1.13-.87h2.53a1.05,1.05,0,0,1,1.12.87V4.68C18.18,5.08,17.89,5.55,17.06,5.55Zm-2.66-1a.23.23,0,0,0,.13,0h2.65V3.05l-.12,0H14.53a.23.23,0,0,0-.13,0Z"/><path class="cls-1" d="M17.68,1a1.52,1.52,0,0,1,1.53,1.53V23H16.16V20.85a1.6,1.6,0,0,0-1.63-1.64h-5a1.6,1.6,0,0,0-1.64,1.64V23h-3V2.53A1.52,1.52,0,0,1,6.32,1H17.68m0-1H6.32A2.54,2.54,0,0,0,3.79,2.53V24H8.84V20.85a.6.6,0,0,1,.64-.64h5a.6.6,0,0,1,.63.64V24h5.05V2.53A2.53,2.53,0,0,0,17.68,0Z"/></svg>