<svg id="Layer_1" data-name="Layer 1" xmlns="http://www.w3.org/2000/svg" viewBox="0 0 32 32"><defs><style>.cls-1,.cls-2{fill:#00aac1;}.cls-1{opacity:0.3;}.cls-3{fill:#fff;}</style></defs><path class="cls-1" d="M14.31,22.73c-.37,0-.39-.22-.39-.5V20.15c0-.31,0-.52.52-.52h2.64A8.8,8.8,0,0,1,22,18a8.65,8.65,0,0,1,4.67,1.48l1.7-2.94a1.06,1.06,0,0,0,0-1.06L22.64,5.56A1.06,1.06,0,0,0,21.72,5H10.28a1.06,1.06,0,0,0-.92.53L3.64,15.47a1.06,1.06,0,0,0,0,1.06l5.72,9.91a1.06,1.06,0,0,0,.92.53h5.2A4.89,4.89,0,0,1,14,24,3.21,3.21,0,0,1,14.31,22.73Zm-.39-13c0-.31,0-.52.52-.52h3.12c.52,0,.52.21.52.52V17c0,.31,0,.52-.52.52H14.44c-.52,0-.52-.21-.52-.52Z"/><path class="cls-2" d="M13.92,20.15v2.08c0,.28,0,.46.39.5a8.26,8.26,0,0,1,2.77-3.1H14.44C13.92,19.63,13.92,19.84,13.92,20.15Z"/><path class="cls-2" d="M14.44,17.56h3.12c.52,0,.52-.21.52-.52V9.77c0-.31,0-.52-.52-.52H14.44c-.52,0-.52.21-.52.52V17C13.92,17.35,13.92,17.56,14.44,17.56Z"/><path class="cls-2" d="M22,22.3h-.5a1,1,0,0,1,.5.8.9.9,0,0,1-.9.9,1,1,0,0,1-.8-.5V24A1.71,1.71,0,0,0,22,25.8a1.82,1.82,0,0,0,1.41-.69l.26-.46A1.75,1.75,0,0,0,23.8,24,1.71,1.71,0,0,0,22,22.3Z"/><path class="cls-2" d="M25.66,21.2A6.69,6.69,0,0,0,22,20a6.73,6.73,0,0,0-3.92,1.38,7.79,7.79,0,0,0-1.46,1.37A2.49,2.49,0,0,0,16,24c0,.61,1,2,2.61,3A6.54,6.54,0,0,0,22,28c3.3,0,6-3,6-4C28,23.41,27.08,22.15,25.66,21.2ZM22,27a3,3,0,0,1,0-6,2.92,2.92,0,0,1,2.75,1.78A3.06,3.06,0,0,1,25,24,3,3,0,0,1,22,27Z"/><path class="cls-3" d="M22,21a3,3,0,1,0,3,3,3.06,3.06,0,0,0-.25-1.22A2.92,2.92,0,0,0,22,21Zm1.41,4.11A1.82,1.82,0,0,1,22,25.8,1.71,1.71,0,0,1,20.3,24v-.5a1,1,0,0,0,.8.5.9.9,0,0,0,.9-.9,1,1,0,0,0-.5-.8H22A1.71,1.71,0,0,1,23.8,24a1.75,1.75,0,0,1-.13.65Z"/></svg>