<svg id="Layer_1" data-name="Layer 1" xmlns="http://www.w3.org/2000/svg" viewBox="0 0 32 32"><defs><style>.cls-1,.cls-2{fill:#777;}.cls-1{opacity:0.4;}</style></defs><path class="cls-1" d="M27.81,24.33c0-.69-.28-.69-.7-.69H4.89c-.42,0-.7,0-.7.69v1.39c0,.7.28.7.7.7H27.11c.42,0,.7,0,.7-.7Zm0-9a.66.66,0,0,0-.7-.7H4.89a.66.66,0,0,0-.7.7v1.38a.66.66,0,0,0,.7.7H27.11a.66.66,0,0,0,.7-.7Zm0-9a.66.66,0,0,0-.7-.7H4.89a.66.66,0,0,0-.7.7V7.67a.66.66,0,0,0,.7.69H27.11a.66.66,0,0,0,.7-.69Z"/><path class="cls-2" d="M18.08,22.25v5.56c0,.69-.27.69-.69.69H14.61c-.42,0-.69,0-.69-.69V22.25c0-.69.27-.69.69-.69h2.78C17.81,21.56,18.08,21.56,18.08,22.25Zm-6.94-9v5.56a.66.66,0,0,1-.7.69H7.67a.66.66,0,0,1-.7-.69V13.22a.66.66,0,0,1,.7-.69h2.77A.66.66,0,0,1,11.14,13.22ZM25,4.19V9.75a.65.65,0,0,1-.7.69H21.56a.65.65,0,0,1-.7-.69V4.19a.66.66,0,0,1,.7-.69h2.77A.66.66,0,0,1,25,4.19Z"/></svg>