<svg id="Layer_1" data-name="Layer 1" xmlns="http://www.w3.org/2000/svg" viewBox="0 0 32 32"><defs><style>.cls-1,.cls-2{fill:#777;}.cls-1{opacity:0.4;}.cls-3{fill:#fff;}</style></defs><path class="cls-1" d="M27.11,17.39a.66.66,0,0,0,.7-.7V15.31a.66.66,0,0,0-.7-.7h-16v2.78Z"/><path class="cls-1" d="M4.89,8.36h16V5.58h-16a.66.66,0,0,0-.7.7V7.67A.66.66,0,0,0,4.89,8.36Z"/><path class="cls-1" d="M4.89,17.39H7V14.61H4.89a.66.66,0,0,0-.7.7v1.38A.66.66,0,0,0,4.89,17.39Z"/><path class="cls-1" d="M4.89,23.64c-.42,0-.7,0-.7.69v1.39c0,.7.28.7.7.7h9V23.64Z"/><path class="cls-1" d="M27.11,8.36a.66.66,0,0,0,.7-.69V6.28a.66.66,0,0,0-.7-.7H25V8.36Z"/><path class="cls-2" d="M7,18.78a.66.66,0,0,0,.7.69h2.77a.66.66,0,0,0,.7-.69V13.22a.66.66,0,0,0-.7-.69H7.67a.66.66,0,0,0-.7.69v5.56Z"/><path class="cls-2" d="M20.86,9.75a.65.65,0,0,0,.7.69h2.77a.65.65,0,0,0,.7-.69V4.19a.66.66,0,0,0-.7-.69H21.56a.66.66,0,0,0-.7.69V9.75Z"/><path class="cls-2" d="M15,26.42A4.3,4.3,0,0,1,14,24a2.21,2.21,0,0,1,0-.35,4.77,4.77,0,0,1,1-2.08h-.42c-.42,0-.69,0-.69.69v5.56c0,.69.27.69.69.69H17.3A9.42,9.42,0,0,1,15,26.42Z"/><path class="cls-3" d="M27.81,24.58a6.28,6.28,0,0,1-1.64,1.84A6.9,6.9,0,0,1,22,28a6.83,6.83,0,0,1-3.92-1.38l-.26-.2A4.49,4.49,0,0,1,16,24a1.07,1.07,0,0,1,.08-.36,5.6,5.6,0,0,1,1.71-2.05A6.94,6.94,0,0,1,22,20c3.3,0,6,3,6,4A1.55,1.55,0,0,1,27.81,24.58Z"/><path class="cls-2" d="M22,22.3h-.5a1,1,0,0,1,.5.8.94.94,0,0,1-.2.54.9.9,0,0,1-.7.36,1,1,0,0,1-.69-.36,1.34,1.34,0,0,1-.11-.14V24A1.71,1.71,0,0,0,22,25.8,1.79,1.79,0,0,0,23.8,24a2,2,0,0,0,0-.36A1.73,1.73,0,0,0,22,22.3Z"/><path class="cls-2" d="M22,20a6.94,6.94,0,0,0-4.21,1.59,5.6,5.6,0,0,0-1.71,2.05A1.07,1.07,0,0,0,16,24a4.49,4.49,0,0,0,1.82,2.42l.26.2A6.83,6.83,0,0,0,22,28a6.9,6.9,0,0,0,4.17-1.58,6.28,6.28,0,0,0,1.64-1.84A1.55,1.55,0,0,0,28,24C28,23,25.3,20,22,20Zm0,7a3,3,0,0,1-1.8-.58A3,3,0,0,1,19,24c0-.13,0-.24,0-.36a3,3,0,0,1,5.93,0c0,.12,0,.23,0,.36a3,3,0,0,1-1.21,2.42A3,3,0,0,1,22,27Z"/><path class="cls-3" d="M25,24c0-.13,0-.24,0-.36a3,3,0,0,0-5.93,0c0,.12,0,.23,0,.36a3,3,0,0,0,1.2,2.42,3.07,3.07,0,0,0,3.59,0A3,3,0,0,0,25,24Zm-3,1.8A1.71,1.71,0,0,1,20.3,24v-.5a1.34,1.34,0,0,0,.11.14,1,1,0,0,0,.69.36.9.9,0,0,0,.7-.36.94.94,0,0,0,.2-.54,1,1,0,0,0-.5-.8H22a1.73,1.73,0,0,1,1.76,1.34,2,2,0,0,1,0,.36A1.79,1.79,0,0,1,22,25.8Z"/></svg>