<svg id="Layer_1" data-name="Layer 1" xmlns="http://www.w3.org/2000/svg" viewBox="0 0 64 64"><defs><style>.cls-1,.cls-2{fill:#fff;}.cls-1{opacity:0.6;isolation:isolate;}</style></defs><path class="cls-1" d="M54.67,48c0-1.33-.54-1.33-1.34-1.33H10.67c-.8,0-1.34,0-1.34,1.33v2.67C9.33,52,9.87,52,10.67,52H53.33c.8,0,1.34,0,1.34-1.33Zm0-17.33a1.27,1.27,0,0,0-1.34-1.34H10.67a1.27,1.27,0,0,0-1.34,1.34v2.66a1.27,1.27,0,0,0,1.34,1.34H53.33a1.27,1.27,0,0,0,1.34-1.34Zm0-17.34A1.26,1.26,0,0,0,53.33,12H10.67a1.26,1.26,0,0,0-1.34,1.33V16a1.26,1.26,0,0,0,1.34,1.33H53.33A1.26,1.26,0,0,0,54.67,16Z"/><path class="cls-2" d="M36,44V54.67C36,56,35.47,56,34.67,56H29.33c-.8,0-1.33,0-1.33-1.33V44c0-1.33.53-1.33,1.33-1.33h5.34C35.47,42.67,36,42.67,36,44ZM22.67,26.67V37.33a1.27,1.27,0,0,1-1.34,1.34H16a1.26,1.26,0,0,1-1.33-1.34V26.67A1.26,1.26,0,0,1,16,25.33h5.33A1.27,1.27,0,0,1,22.67,26.67ZM49.33,9.33V20A1.25,1.25,0,0,1,48,21.33H42.67A1.26,1.26,0,0,1,41.33,20V9.33A1.26,1.26,0,0,1,42.67,8H48A1.25,1.25,0,0,1,49.33,9.33Z"/></svg>