<svg id="Layer_1" data-name="Layer 1" xmlns="http://www.w3.org/2000/svg" viewBox="0 0 32 32"><defs><style>.cls-1,.cls-2{fill:#d32f2f;}.cls-1{opacity:0.4;}</style></defs><path class="cls-1" d="M13.6238,21.24417l-.266,1.29871h1.05078a6.70784,6.70784,0,0,1,.88709-1.29871Z"/><path class="cls-1" d="M8.2427,20.03165a.75869.75869,0,0,0-.32715.28161l-1.20221,1.9563-.168.27332h5.79291l.266-1.29871H9.056C8.21774,21.24417,8.238,20.71371,8.2427,20.03165Z"/><path class="cls-1" d="M28.30819,27.18631a9.72,9.72,0,0,1-1.584,1.30035h1.00262a.77194.77194,0,0,0,.65765-1.17614Z"/><path class="cls-1" d="M13.9996,24.00027a2.41526,2.41526,0,0,1,.048-.45849H13.1531l-1.01294,4.94488H17.275C15.31826,27.19437,13.9996,25.34006,13.9996,24.00027Z"/><path class="cls-1" d="M5.62411,24.042l-.22962.3736-.90564,1.47375L3.6155,27.31052a.772.772,0,0,0,.65766,1.17614h6.84759l1.01294-4.94488H5.93154Z"/><circle class="cls-2" cx="16.00056" cy="7.94603" r="4.43269" transform="translate(-0.93224 13.64144) rotate(-45)"/><path class="cls-2" d="M21.9996,18.00027a7.686,7.686,0,0,1,1.73669.209,4.98032,4.98032,0,0,0-4.63281-4.35291c-.74616,0-1.29291.591-3.10291.591-1.86175,0-2.31237-.591-3.1029-.591a4.9651,4.9651,0,0,0-4.65436,4.72821V19.9144c0,.04022-.00037.078-.00061.11725-.0047.68206-.025,1.21252.81329,1.21252h6.23963A9.224,9.224,0,0,1,21.9996,18.00027Z"/><path class="cls-2" d="M21.99976,22.3h-.5a1.01974,1.01974,0,0,1,.5.8.89626.89626,0,0,1-.9.9,1.01974,1.01974,0,0,1-.8-.5V24a1.71035,1.71035,0,0,0,1.7,1.8,1.79252,1.79252,0,0,0,1.8-1.8A1.71035,1.71035,0,0,0,21.99976,22.3Z"/><path class="cls-2" d="M21.99976,20c-3.3,0-6,3-6,4s2.7,4,6,4,6-3,6-4S25.29976,20,21.99976,20Zm0,7a3,3,0,1,1,3-3A2.94645,2.94645,0,0,1,21.99976,27Z"/></svg>