<?xml version="1.0" encoding="utf-8"?>
<!-- Generator: Adobe Illustrator 24.2.0, SVG Export Plug-In . SVG Version: 6.00 Build 0)  -->
<svg version="1.1" id="Layer_1" xmlns="http://www.w3.org/2000/svg" xmlns:xlink="http://www.w3.org/1999/xlink" x="0px" y="0px"
	 viewBox="0 0 64 64" style="enable-background:new 0 0 64 64;" xml:space="preserve">
<style type="text/css">
	.st0{fill:#AA8A30;}
	.st1{fill:#1565C0;}
	.st2{fill:#D32F2F;}
	.st3{fill:#66BB6A;}
	.st4{fill:#0A4466;}
	.st5{fill:#8E24AA;}
	.st6{fill:#161616;}
	.st7{fill:#3E87CF;}
	.st8{fill:#E03C24;}
	.st9{fill:#9BC6F2;}
	.st10{fill:#777777;}
	.st11{fill:#2576C7;}
	.st12{fill:#FFFFFF;}
	.st13{opacity:0.6;fill:#2576C7;enable-background:new    ;}
	.st14{opacity:0.6;fill:#FFFFFF;enable-background:new    ;}
	.st15{opacity:0.6;fill:#FFFFFF;}
	.st16{fill:#FFE39D;}
	.st17{fill:#ED9C26;}
	.st18{opacity:0.4;fill:#0A4466;}
	.st19{opacity:0.4;fill:#00796B;}
	.st20{fill:#00796B;}
	.st21{fill:none;}
	.st22{fill:#690000;}
	.st23{fill:#A08165;}
	.st24{fill:#D8C4B3;}
	.st25{fill:#FFD4FF;}
	.st26{opacity:0.6;fill:none;stroke:#FFFFFF;stroke-width:4;stroke-linecap:round;stroke-miterlimit:10;}
	.st27{fill:#571B6D;}
	.st28{opacity:0.4;fill:#571B6D;}
	.st29{opacity:0.6;fill:#571B6D;}
	.st30{fill:#CA0821;}
	.st31{opacity:0.2;fill:#CA0821;enable-background:new    ;}
	.st32{fill:#CA0821;enable-background:new    ;}
	.st33{opacity:0.4;}
	.st34{opacity:0.6;fill:#CA0821;enable-background:new    ;}
	.st35{opacity:0.6;enable-background:new    ;}
	.st36{opacity:0.6;}
	.st37{opacity:0.6;fill:#3E87CF;}
	.st38{opacity:0.8;fill:#571B6D;}
	.st39{opacity:0.6;fill:#F1FF2E;}
	.st40{opacity:0.8;fill:none;stroke:#FFFFFF;stroke-miterlimit:10;}
	.st41{fill:#283593;}
	.st42{opacity:0.4;fill:#777777;}
	.st43{opacity:0.4;fill:#283593;}
	.st44{opacity:0.4;fill:#1565C0;}
	.st45{opacity:0.6;fill:#1565C0;}
	.st46{opacity:0.4;fill:#D32F2F;}
	.st47{opacity:0.4;fill:#66BB6A;}
	.st48{opacity:0.4;fill:#AA8A30;}
	.st49{opacity:0.4;fill:#777777;enable-background:new    ;}
	.st50{fill:#9F8165;}
	.st51{opacity:0.4;fill:#9F8165;}
</style>
<g class="st36">
	<circle class="st12" cx="32" cy="32" r="14.7"/>
</g>
<g>
	<path class="st12" d="M22.5,28c0-0.6,0.1-1.1,0.3-1.6c0.2-0.5,0.5-0.9,0.9-1.3c0.4-0.4,0.8-0.7,1.3-0.9c0.5-0.2,1-0.3,1.6-0.3
		s1.1,0.1,1.6,0.3c0.5,0.2,0.9,0.5,1.3,0.9c0.4,0.4,0.7,0.8,0.9,1.3c0.2,0.5,0.3,1,0.3,1.6c0,0.6-0.1,1.1-0.3,1.6
		c-0.2,0.5-0.5,0.9-0.9,1.3c-0.4,0.4-0.8,0.7-1.3,0.9c-0.5,0.2-1,0.3-1.6,0.3S25.5,32,25,31.8c-0.5-0.2-0.9-0.5-1.3-0.9
		c-0.4-0.4-0.7-0.8-0.9-1.3C22.6,29.1,22.5,28.5,22.5,28z M28.7,28c0-0.6-0.2-1-0.6-1.4c-0.4-0.4-0.9-0.6-1.4-0.6
		c-0.6,0-1,0.2-1.4,0.6c-0.4,0.4-0.6,0.9-0.6,1.4c0,0.6,0.2,1,0.6,1.4c0.4,0.4,0.9,0.6,1.4,0.6c0.6,0,1-0.2,1.4-0.6
		C28.5,29,28.7,28.5,28.7,28z M35.8,23.3l1.9,0.9l-9.3,16.5l-1.9-0.9L35.8,23.3z M33.2,36c0-0.6,0.1-1.1,0.3-1.6
		c0.2-0.5,0.5-0.9,0.9-1.3c0.4-0.4,0.8-0.7,1.3-0.9c0.5-0.2,1-0.3,1.6-0.3c0.6,0,1.1,0.1,1.6,0.3c0.5,0.2,0.9,0.5,1.3,0.9
		c0.4,0.4,0.7,0.8,0.9,1.3c0.2,0.5,0.3,1,0.3,1.6c0,0.6-0.1,1.1-0.3,1.6c-0.2,0.5-0.5,0.9-0.9,1.3c-0.4,0.4-0.8,0.7-1.3,0.9
		c-0.5,0.2-1,0.3-1.6,0.3c-0.6,0-1.1-0.1-1.6-0.3c-0.5-0.2-0.9-0.5-1.3-0.9c-0.4-0.4-0.7-0.8-0.9-1.3C33.3,37.2,33.2,36.6,33.2,36z
		 M39.4,36c0-0.6-0.2-1-0.6-1.4c-0.4-0.4-0.9-0.6-1.4-0.6c-0.6,0-1,0.2-1.4,0.6c-0.4,0.4-0.6,0.9-0.6,1.4c0,0.6,0.2,1,0.6,1.4
		c0.4,0.4,0.9,0.6,1.4,0.6c0.6,0,1-0.2,1.4-0.6C39.2,37.1,39.4,36.6,39.4,36z"/>
</g>
<path class="st12" d="M57,27.7c-0.2-1.4-2.8-2.1-3.3-3.4c-0.5-1.3,1-3.5,0.3-4.7c-0.7-1.2-3.4-1-4.3-2.1c-0.9-1.1-0.3-3.6-1.4-4.5
	c-0.4-0.3-0.9-0.4-1.5-0.4c-0.6,0-1.4,0.1-2,0.1c-0.5,0-0.9-0.1-1.3-0.3C42.3,11.6,42,9,40.7,8.5c-0.2-0.1-0.3-0.1-0.5-0.1
	c-1.2,0-2.7,1.2-3.9,1.2c-0.1,0-0.2,0-0.3,0C34.6,9.4,33.4,7,32,7c-1.4,0-2.6,2.4-4,2.6c-0.1,0-0.2,0-0.3,0c-1.2,0-2.7-1.2-3.9-1.2
	c-0.2,0-0.3,0-0.5,0.1c-1.3,0.5-1.6,3.1-2.8,3.8c-0.3,0.2-0.8,0.3-1.3,0.3c-0.6,0-1.4-0.1-2-0.1c-0.6,0-1.1,0.1-1.5,0.4
	c-1.1,0.9-0.5,3.5-1.4,4.5c-0.9,1.1-3.6,0.9-4.3,2.1c-0.7,1.2,0.8,3.4,0.3,4.7c-0.5,1.3-3.1,2-3.3,3.4C6.8,29,8.9,30.6,8.9,32
	c0,1.4-2.2,3-1.9,4.3c0.2,1.4,2.8,2.1,3.3,3.4c0.5,1.3-1,3.5-0.3,4.7c0.7,1.2,3.4,1,4.3,2.1c0.9,1.1,0.3,3.6,1.4,4.5
	c0.4,0.3,0.9,0.4,1.5,0.4c0.6,0,1.4-0.1,2-0.1c0.5,0,0.9,0.1,1.3,0.3c1.2,0.7,1.5,3.3,2.8,3.8c0.2,0.1,0.3,0.1,0.5,0.1
	c1.2,0,2.7-1.2,3.9-1.2c0.1,0,0.2,0,0.3,0c1.4,0.2,2.6,2.6,4,2.6c1.4,0,2.6-2.4,4-2.6c0.1,0,0.2,0,0.3,0c1.2,0,2.7,1.2,3.9,1.2
	c0.2,0,0.3,0,0.5-0.1c1.3-0.5,1.6-3.1,2.8-3.8c0.3-0.2,0.8-0.3,1.3-0.3c0.6,0,1.4,0.1,2,0.1c0.6,0,1.1-0.1,1.5-0.4
	c1.1-0.9,0.5-3.5,1.4-4.5c0.9-1.1,3.6-0.9,4.3-2.1c0.7-1.2-0.8-3.4-0.3-4.7c0.5-1.3,3.1-2,3.3-3.4c0.2-1.3-1.9-2.9-1.9-4.3
	C55.1,30.6,57.2,29,57,27.7z M32,50.7c-10.3,0-18.7-8.4-18.7-18.7S21.7,13.3,32,13.3c10.3,0,18.7,8.4,18.7,18.7S42.3,50.7,32,50.7z"
	/>
<polygon class="st15" points="21.1,61.6 20.8,56.7 15.9,56.5 19.8,52.6 23.6,48.7 26.2,51.3 28.8,53.9 24.9,57.8 "/>
<polygon class="st15" points="42.9,61.6 43.2,56.7 48.1,56.5 44.2,52.6 40.4,48.7 37.8,51.3 35.2,53.9 39.1,57.8 "/>
</svg>
