<?xml version="1.0" encoding="utf-8"?>
<!-- Generator: Adobe Illustrator 24.2.0, SVG Export Plug-In . SVG Version: 6.00 Build 0)  -->
<svg version="1.1" id="Layer_1" xmlns="http://www.w3.org/2000/svg" xmlns:xlink="http://www.w3.org/1999/xlink" x="0px" y="0px"
	 viewBox="0 0 32 32" style="enable-background:new 0 0 32 32;" xml:space="preserve">
<style type="text/css">
	.st0{fill:#AA8A30;}
	.st1{fill:#1565C0;}
	.st2{fill:#D32F2F;}
	.st3{fill:#66BB6A;}
	.st4{fill:#0A4466;}
	.st5{fill:#8E24AA;}
	.st6{fill:#161616;}
	.st7{fill:#3E87CF;}
	.st8{fill:#E03C24;}
	.st9{fill:#9BC6F2;}
	.st10{fill:#777777;}
	.st11{fill:#2576C7;}
	.st12{fill:#FFFFFF;}
	.st13{opacity:0.6;fill:#2576C7;enable-background:new    ;}
	.st14{opacity:0.6;fill:#FFFFFF;enable-background:new    ;}
	.st15{opacity:0.6;fill:#FFFFFF;}
	.st16{fill:#FFE39D;}
	.st17{fill:#ED9C26;}
	.st18{opacity:0.4;fill:#0A4466;}
	.st19{opacity:0.4;fill:#00796B;}
	.st20{fill:#00796B;}
	.st21{fill:none;}
	.st22{fill:#690000;}
	.st23{fill:#A08165;}
	.st24{fill:#D8C4B3;}
	.st25{fill:#FFD4FF;}
	.st26{opacity:0.6;fill:none;stroke:#FFFFFF;stroke-width:4;stroke-linecap:round;stroke-miterlimit:10;}
	.st27{fill:#571B6D;}
	.st28{opacity:0.4;fill:#571B6D;}
	.st29{opacity:0.6;fill:#571B6D;}
	.st30{fill:#CA0821;}
	.st31{opacity:0.2;fill:#CA0821;enable-background:new    ;}
	.st32{fill:#CA0821;enable-background:new    ;}
	.st33{opacity:0.4;}
	.st34{opacity:0.6;fill:#CA0821;enable-background:new    ;}
	.st35{opacity:0.6;enable-background:new    ;}
	.st36{opacity:0.6;}
	.st37{opacity:0.6;fill:#3E87CF;}
	.st38{opacity:0.8;fill:#571B6D;}
	.st39{opacity:0.6;fill:#F1FF2E;}
	.st40{opacity:0.8;fill:none;stroke:#FFFFFF;stroke-miterlimit:10;}
	.st41{fill:#283593;}
	.st42{opacity:0.4;fill:#777777;}
	.st43{opacity:0.4;fill:#283593;}
	.st44{opacity:0.4;fill:#1565C0;}
	.st45{opacity:0.6;fill:#1565C0;}
	.st46{opacity:0.4;fill:#D32F2F;}
	.st47{opacity:0.4;fill:#66BB6A;}
	.st48{opacity:0.4;fill:#AA8A30;}
	.st49{opacity:0.4;fill:#777777;enable-background:new    ;}
	.st50{fill:#9F8165;}
	.st51{opacity:0.4;fill:#9F8165;}
</style>
<g>
	<g>
		<circle class="st48" cx="16" cy="16" r="7.3"/>
		<g>
			<path class="st0" d="M11.2,14c0-0.3,0.1-0.6,0.2-0.8c0.1-0.3,0.3-0.5,0.4-0.7c0.2-0.2,0.4-0.3,0.7-0.4c0.3-0.1,0.5-0.2,0.8-0.2
				c0.3,0,0.6,0.1,0.8,0.2c0.3,0.1,0.5,0.3,0.7,0.4c0.2,0.2,0.3,0.4,0.4,0.7c0.1,0.3,0.2,0.5,0.2,0.8c0,0.3-0.1,0.6-0.2,0.8
				c-0.1,0.3-0.3,0.5-0.4,0.7c-0.2,0.2-0.4,0.3-0.7,0.4c-0.3,0.1-0.5,0.2-0.8,0.2c-0.3,0-0.6-0.1-0.8-0.2c-0.3-0.1-0.5-0.3-0.7-0.4
				c-0.2-0.2-0.3-0.4-0.4-0.7C11.3,14.5,11.2,14.3,11.2,14z M14.3,14c0-0.3-0.1-0.5-0.3-0.7c-0.2-0.2-0.4-0.3-0.7-0.3
				c-0.3,0-0.5,0.1-0.7,0.3c-0.2,0.2-0.3,0.4-0.3,0.7c0,0.3,0.1,0.5,0.3,0.7c0.2,0.2,0.4,0.3,0.7,0.3c0.3,0,0.5-0.1,0.7-0.3
				C14.2,14.5,14.3,14.3,14.3,14z M17.9,11.7l0.9,0.4l-4.7,8.2l-0.9-0.4L17.9,11.7z M16.6,18c0-0.3,0.1-0.6,0.2-0.8
				c0.1-0.3,0.3-0.5,0.4-0.7c0.2-0.2,0.4-0.3,0.7-0.4c0.3-0.1,0.5-0.2,0.8-0.2c0.3,0,0.6,0.1,0.8,0.2c0.3,0.1,0.5,0.3,0.7,0.4
				c0.2,0.2,0.3,0.4,0.4,0.7c0.1,0.3,0.2,0.5,0.2,0.8c0,0.3-0.1,0.6-0.2,0.8c-0.1,0.3-0.3,0.5-0.4,0.7c-0.2,0.2-0.4,0.3-0.7,0.4
				c-0.3,0.1-0.5,0.2-0.8,0.2c-0.3,0-0.6-0.1-0.8-0.2c-0.3-0.1-0.5-0.3-0.7-0.4c-0.2-0.2-0.3-0.4-0.4-0.7
				C16.6,18.6,16.6,18.3,16.6,18z M19.7,18c0-0.3-0.1-0.5-0.3-0.7C19.2,17.1,19,17,18.7,17c-0.3,0-0.5,0.1-0.7,0.3
				c-0.2,0.2-0.3,0.4-0.3,0.7c0,0.3,0.1,0.5,0.3,0.7c0.2,0.2,0.4,0.3,0.7,0.3c0.3,0,0.5-0.1,0.7-0.3C19.6,18.5,19.7,18.3,19.7,18z"
				/>
		</g>
		<path class="st0" d="M28.5,13.8c-0.1-0.7-1.4-1.1-1.7-1.7c-0.2-0.7,0.5-1.8,0.1-2.4c-0.4-0.6-1.7-0.5-2.2-1.1
			c-0.5-0.5-0.1-1.8-0.7-2.3c-0.2-0.2-0.4-0.2-0.7-0.2c-0.3,0-0.7,0-1,0c-0.2,0-0.5,0-0.6-0.1c-0.6-0.3-0.8-1.7-1.4-1.9
			c-0.1,0-0.2,0-0.2,0c-0.6,0-1.4,0.6-2,0.6c0,0-0.1,0-0.1,0c-0.7-0.1-1.3-1.3-2-1.3c-0.7,0-1.3,1.2-2,1.3c0,0-0.1,0-0.1,0
			c-0.6,0-1.4-0.6-2-0.6c-0.1,0-0.2,0-0.2,0c-0.7,0.2-0.8,1.6-1.4,1.9c-0.2,0.1-0.4,0.1-0.6,0.1c-0.3,0-0.7,0-1,0
			c-0.3,0-0.6,0-0.7,0.2C7.3,6.9,7.6,8.2,7.2,8.7C6.7,9.2,5.4,9.1,5,9.8c-0.4,0.6,0.4,1.7,0.1,2.4c-0.2,0.6-1.5,1-1.7,1.7
			c-0.1,0.7,1,1.5,1,2.2c0,0.7-1.1,1.5-1,2.2c0.1,0.7,1.4,1.1,1.7,1.7c0.2,0.7-0.5,1.8-0.1,2.4c0.4,0.6,1.7,0.5,2.2,1.1
			c0.5,0.5,0.1,1.8,0.7,2.3c0.2,0.2,0.4,0.2,0.7,0.2c0.3,0,0.7,0,1,0c0.2,0,0.5,0,0.6,0.1c0.6,0.3,0.8,1.7,1.4,1.9
			c0.1,0,0.2,0,0.2,0c0.6,0,1.4-0.6,2-0.6c0,0,0.1,0,0.1,0c0.7,0.1,1.3,1.3,2,1.3c0.7,0,1.3-1.2,2-1.3c0,0,0.1,0,0.1,0
			c0.6,0,1.4,0.6,2,0.6c0.1,0,0.2,0,0.2,0c0.7-0.2,0.8-1.6,1.4-1.9c0.2-0.1,0.4-0.1,0.6-0.1c0.3,0,0.7,0,1,0c0.3,0,0.6,0,0.7-0.2
			c0.5-0.4,0.2-1.7,0.7-2.3c0.5-0.5,1.8-0.4,2.2-1.1c0.4-0.6-0.4-1.7-0.1-2.4c0.2-0.6,1.5-1,1.7-1.7c0.1-0.7-1-1.5-1-2.2
			C27.5,15.3,28.6,14.5,28.5,13.8z M16,25.3c-5.1,0-9.3-4.2-9.3-9.3s4.2-9.3,9.3-9.3c5.1,0,9.3,4.2,9.3,9.3S21.1,25.3,16,25.3z"/>
	</g>
	<g>
		<polygon class="st48" points="10.5,30.8 10.4,28.4 7.9,28.3 9.9,26.3 11.8,24.4 13.1,25.7 14.4,27 12.5,28.9 		"/>
		<polygon class="st48" points="21.5,30.8 21.6,28.4 24.1,28.3 22.1,26.3 20.2,24.4 18.9,25.7 17.6,27 19.5,28.9 		"/>
	</g>
</g>
</svg>
