<svg id="Layer_1" data-name="Layer 1" xmlns="http://www.w3.org/2000/svg" viewBox="0 0 64 64"><defs><style>.cls-1,.cls-2{fill:#fff;}.cls-1{opacity:0.6;isolation:isolate;}</style></defs><path class="cls-1" d="M49,7H15a2.0739,2.0739,0,0,0-2,2V57h.0011c2.3762-.0014,2.3767-4,4.7538-4s2.3775,3.9986,4.7536,4h.0023c2.3746-.0014,2.3751-4,4.75-4,2.3733,0,2.3739,3.9986,4.7463,4H32.01c2.3722-.0014,2.3727-4,4.7457-4s2.3742,3.9986,4.747,4h.0023c2.3728-.0014,2.3734-4,4.747-4s2.3741,3.9986,4.7469,4H51V9A2,2,0,0,0,49,7Z"/><path class="cls-2" d="M41.1646,36.7433Q40.3686,45.5,32.9718,45.5q-7.2311,0-8.3256-9.7518H22.8219V33.8243H24.48V30.3415H22.8219V28.4177h1.8243Q25.6745,18.5,32.9718,18.5a7.4038,7.4038,0,0,1,5.5724,2.156,10.2858,10.2858,0,0,1,2.62,6.1364h-3.45a8.1521,8.1521,0,0,0-1.5258-4.1462,3.9642,3.9642,0,0,0-3.2174-1.4927q-4.08,0-4.8428,7.2642h5.4066l-.5307,1.9238H27.9632v3.4828H31.91L31.38,35.7482H28.129q.7629,7.1315,4.8428,7.1314,4.1461,0,4.7432-6.1363Z"/></svg>