<?xml version="1.0" encoding="utf-8"?>
<!-- Generator: Adobe Illustrator 24.2.0, SVG Export Plug-In . SVG Version: 6.00 Build 0)  -->
<svg version="1.1" id="Layer_1" xmlns="http://www.w3.org/2000/svg" xmlns:xlink="http://www.w3.org/1999/xlink" x="0px" y="0px"
	 viewBox="0 0 32 32" style="enable-background:new 0 0 32 32;" xml:space="preserve">
<style type="text/css">
	.st0{fill:#005DED;}
	.st1{fill:#AA8A30;}
	.st2{fill:#1565C0;}
	.st3{fill:#D32F2F;}
	.st4{fill:#66BB6A;}
	.st5{fill:#0A4466;}
	.st6{fill:#8E24AA;}
	.st7{fill:#161616;}
	.st8{fill:#3E87CF;}
	.st9{fill:#9BC6F2;}
	.st10{fill:#777777;}
	.st11{fill:#2576C7;}
	.st12{fill:#FFFFFF;}
	.st13{opacity:0.6;fill:#2576C7;enable-background:new    ;}
	.st14{opacity:0.6;fill:#FFFFFF;enable-background:new    ;}
	.st15{opacity:0.6;fill:#FFFFFF;}
	.st16{fill:#FFE39D;}
	.st17{fill:#ED9C26;}
	.st18{fill:#E03C24;}
	.st19{opacity:0.4;fill:#0A4466;}
	.st20{opacity:0.4;fill:#00796B;}
	.st21{fill:#00796B;}
	.st22{fill:none;}
	.st23{fill:#690000;}
	.st24{fill:#A08165;}
	.st25{fill:#D8C4B3;}
	.st26{fill:#FFD4FF;}
	.st27{opacity:0.6;fill:none;stroke:#FFFFFF;stroke-width:4;stroke-linecap:round;stroke-miterlimit:10;}
	.st28{fill:#571B6D;}
	.st29{opacity:0.4;fill:#571B6D;}
	.st30{opacity:0.6;fill:#571B6D;}
	.st31{fill:#CA0821;}
	.st32{opacity:0.2;fill:#CA0821;enable-background:new    ;}
	.st33{fill:#CA0821;enable-background:new    ;}
	.st34{opacity:0.4;}
	.st35{opacity:0.6;fill:#CA0821;enable-background:new    ;}
	.st36{opacity:0.6;enable-background:new    ;}
	.st37{opacity:0.6;}
	.st38{opacity:0.6;fill:#3E87CF;}
	.st39{fill:#283593;}
	.st40{opacity:0.4;fill:#777777;}
	.st41{opacity:0.4;fill:#283593;}
	.st42{opacity:0.4;fill:#1565C0;}
	.st43{opacity:0.6;fill:#1565C0;}
	.st44{opacity:0.4;fill:#D32F2F;}
	.st45{opacity:0.4;fill:#66BB6A;}
	.st46{opacity:0.4;fill:#AA8A30;}
	.st47{opacity:0.4;fill:#777777;enable-background:new    ;}
	.st48{fill:#9F8165;}
	.st49{opacity:0.4;fill:#9F8165;}
	.st50{fill:#FF7600;}
	.st51{opacity:0.4;fill:#FF7600;}
	.st52{fill:#FBFAFD;}
	.st53{fill:#3606B7;}
	.st54{opacity:0.4;fill:#005DED;}
	.st55{fill:#FF7962;}
	.st56{opacity:0.4;fill:#FF7962;}
	.st57{opacity:0.4;fill:#3606B7;}
	.st58{opacity:0.4;fill:#FFFFFF;}
	.st59{opacity:0.6;fill:#777777;}
</style>
<g>
	<path class="st10" d="M28,12.4c0,0.1,0,0.2,0.1,0.3C28,12.6,28,12.5,28,12.4z"/>
	<path class="st10" d="M28.3,13.6c0,0.1,0,0.2,0,0.2C28.3,13.7,28.3,13.7,28.3,13.6z"/>
	<path class="st10" d="M28.4,14.8c0,0,0,0.1,0,0.1C28.4,14.9,28.4,14.8,28.4,14.8z"/>
	<path class="st10" d="M28.3,18c0,0.1,0,0.3-0.1,0.4C28.3,18.3,28.3,18.2,28.3,18z"/>
	<path class="st10" d="M7.2,24.8L7.2,24.8c0.2,0.2,0.4,0.4,0.6,0.5C7.5,25.2,7.3,25,7.2,24.8z"/>
	<path class="st10" d="M15,26.4c-0.3,0-0.6-0.1-0.9-0.1C14.5,26.4,14.8,26.4,15,26.4C15,26.4,15,26.4,15,26.4z"/>
	<path class="st10" d="M16,28.5c-0.4,0-0.8,0-1.2-0.1c0.8,0.1,1.6,0.1,2.5,0c0,0,0,0,0,0C16.8,28.5,16.4,28.5,16,28.5z"/>
	<path class="st10" d="M26.1,19C26,19,26,19.1,26.1,19C26,19.1,26,19.1,26.1,19C26,19.1,26,19,26.1,19z"/>
	<path class="st10" d="M28.5,16.8c0,0.1,0,0.3,0,0.4C28.5,17.1,28.5,16.9,28.5,16.8z"/>
	<path class="st10" d="M28.1,19.2c0,0.1-0.1,0.3-0.1,0.4C28,19.5,28,19.3,28.1,19.2z"/>
	<path class="st10" d="M27.6,11.3c0,0.1,0.1,0.2,0.1,0.3C27.6,11.5,27.6,11.4,27.6,11.3z"/>
	<path class="st10" d="M25.8,12.2c0.8,2.1,0.9,4.5,0.3,6.7c0.3-0.9,0.4-1.9,0.4-2.9C26.5,14.7,26.2,13.4,25.8,12.2z"/>
	<path class="st10" d="M16.2,3.5C13.1,3.4,9.8,4.6,7.4,7l1.4,1.4c2.2-2.1,5-3,7.8-2.9c-0.1,0-0.2,0-0.4,0V3.5z"/>
	<path class="st10" d="M12.5,25.9c0.2,0.1,0.3,0.1,0.5,0.2C12.8,26,12.6,25.9,12.5,25.9z"/>
	<path class="st10" d="M20.3,6.5c0,0-0.1,0-0.1-0.1C20.3,6.4,20.3,6.4,20.3,6.5z"/>
	<path class="st10" d="M27.1,10.2c0.1,0.1,0.1,0.2,0.2,0.3C27.2,10.4,27.1,10.3,27.1,10.2z"/>
	<path class="st10" d="M21.2,6.9C21.2,6.9,21.1,6.9,21.2,6.9C21.1,6.9,21.2,6.9,21.2,6.9z"/>
	<path class="st10" d="M20.3,4.3c0.2,0.1,0.4,0.2,0.6,0.2C20.7,4.4,20.5,4.3,20.3,4.3z"/>
	<path class="st10" d="M21.4,4.7C21.6,4.8,21.8,4.9,22,5C21.8,4.9,21.6,4.8,21.4,4.7z"/>
	<path class="st10" d="M25.7,12c-0.1-0.2-0.2-0.4-0.2-0.5C25.6,11.7,25.6,11.8,25.7,12z"/>
	<path class="st10" d="M25.3,11.1c0-0.1-0.1-0.1-0.1-0.2C25.2,11,25.2,11,25.3,11.1z"/>
	<path class="st10" d="M17.9,3.7c0.2,0,0.5,0.1,0.7,0.1C18.4,3.7,18.1,3.7,17.9,3.7z"/>
	<path class="st10" d="M17.6,5.6c-0.1,0-0.3,0-0.4-0.1C17.3,5.6,17.5,5.6,17.6,5.6z"/>
	<path class="st10" d="M22.5,5.3c0.2,0.1,0.4,0.2,0.6,0.4C22.8,5.5,22.6,5.4,22.5,5.3z"/>
	<path class="st10" d="M16.6,3.5c0.3,0,0.6,0,0.8,0.1C17.1,3.6,16.9,3.5,16.6,3.5z"/>
	<path class="st10" d="M19.5,6.1c-0.1,0-0.2-0.1-0.2-0.1C19.3,6,19.4,6.1,19.5,6.1z"/>
	<path class="st10" d="M18.6,5.8c-0.1,0-0.2-0.1-0.3-0.1C18.3,5.8,18.5,5.8,18.6,5.8z"/>
	<path class="st10" d="M19.1,3.9C19.3,4,19.6,4,19.8,4.1C19.6,4,19.3,4,19.1,3.9z"/>
	<path class="st10" d="M22,7.4C22,7.4,22,7.4,22,7.4C22,7.4,22,7.4,22,7.4z"/>
	<path class="st10" d="M11.9,27.8c-0.2-0.1-0.5-0.2-0.7-0.3C11.4,27.6,11.7,27.7,11.9,27.8z"/>
	<path class="st10" d="M10.8,27.3c-0.2-0.1-0.5-0.2-0.7-0.3C10.3,27.1,10.6,27.2,10.8,27.3z"/>
	<path class="st10" d="M13.3,26.1c0.2,0.1,0.4,0.1,0.6,0.2C13.8,26.3,13.5,26.2,13.3,26.1z"/>
	<path class="st10" d="M26.4,9.1c0.1,0.1,0.1,0.2,0.2,0.3C26.5,9.3,26.5,9.2,26.4,9.1z"/>
	<path class="st10" d="M14.4,28.4c-0.3,0-0.6-0.1-0.8-0.1C13.8,28.3,14.1,28.3,14.4,28.4z"/>
	<path class="st10" d="M13.1,28.1c-0.2-0.1-0.5-0.1-0.7-0.2C12.6,28,12.8,28.1,13.1,28.1z"/>
	<path class="st10" d="M9.7,26.8c-0.2-0.1-0.5-0.3-0.7-0.4C9.3,26.5,9.5,26.7,9.7,26.8z"/>
	<path class="st10" d="M25.6,8C25.6,8.1,25.7,8.1,25.6,8C25.7,8.1,25.6,8.1,25.6,8z"/>
	<path class="st10" d="M11.7,25.6c0.1,0,0.2,0.1,0.3,0.1C11.9,25.6,11.8,25.6,11.7,25.6z"/>
	<path class="st10" d="M23.5,6c0.2,0.1,0.3,0.2,0.5,0.4C23.8,6.3,23.7,6.1,23.5,6z"/>
	<path class="st10" d="M10.9,25.2C11,25.2,11,25.2,10.9,25.2C11,25.2,11,25.2,10.9,25.2z"/>
	<path class="st10" d="M24.8,7.2c-0.1-0.1-0.2-0.2-0.3-0.3C24.7,7,24.8,7.1,24.8,7.2C24.9,7.2,24.8,7.2,24.8,7.2z"/>
	<path class="st10" d="M8.7,26.1c-0.2-0.2-0.5-0.3-0.7-0.5C8.3,25.8,8.5,26,8.7,26.1z"/>
	<path class="st59" d="M18.2,5.8c-0.2,0-0.4-0.1-0.6-0.1C17.8,5.7,18,5.7,18.2,5.8z"/>
	<path class="st59" d="M17.2,5.6c-0.2,0-0.4,0-0.6,0C16.8,5.5,17,5.6,17.2,5.6z"/>
	<path class="st59" d="M19.2,6c-0.2-0.1-0.4-0.1-0.7-0.2C18.8,5.9,19,5.9,19.2,6z"/>
	<path class="st59" d="M12,25.7c0.2,0.1,0.4,0.1,0.5,0.2C12.3,25.8,12.1,25.8,12,25.7z"/>
	<path class="st59" d="M25.8,12.2c0-0.1,0-0.1-0.1-0.2C25.7,12.1,25.8,12.1,25.8,12.2z"/>
	<path class="st59" d="M14,26.3c0.1,0,0.1,0,0.2,0C14.1,26.3,14,26.3,14,26.3z"/>
	<path class="st59" d="M13,26c0.1,0,0.3,0.1,0.4,0.1C13.2,26.1,13.1,26.1,13,26z"/>
	<path class="st59" d="M22,7.4c-0.3-0.2-0.5-0.3-0.8-0.5C21.5,7,21.7,7.2,22,7.4z"/>
	<path class="st59" d="M25.5,11.5c-0.1-0.1-0.1-0.3-0.2-0.4C25.3,11.2,25.4,11.4,25.5,11.5z"/>
	<path class="st59" d="M21.1,6.8c-0.3-0.1-0.5-0.3-0.8-0.4C20.6,6.6,20.9,6.7,21.1,6.8z"/>
	<path class="st59" d="M20.2,6.4c-0.2-0.1-0.5-0.2-0.7-0.3C19.7,6.2,20,6.3,20.2,6.4z"/>
	<path class="st59" d="M26.1,19C26.1,19,26.1,18.9,26.1,19C26.1,18.9,26.1,19,26.1,19z"/>
	<path class="st59" d="M28,12.7c0.1,0.3,0.2,0.6,0.2,0.9C28.2,13.3,28.1,13,28,12.7z"/>
	<path class="st59" d="M28.3,13.8c0.1,0.3,0.1,0.6,0.1,1C28.4,14.5,28.4,14.1,28.3,13.8z"/>
	<path class="st59" d="M27.7,11.6c0.1,0.3,0.2,0.6,0.3,0.9C27.9,12.1,27.8,11.8,27.7,11.6z"/>
	<path class="st59" d="M26.6,9.4c0.2,0.3,0.3,0.5,0.5,0.8C26.9,9.9,26.7,9.6,26.6,9.4z"/>
	<path class="st59" d="M27.2,10.5c0.1,0.3,0.3,0.5,0.4,0.8C27.5,11,27.3,10.7,27.2,10.5z"/>
	<path class="st59" d="M16.2,3.5L16.2,3.5c0.1,0,0.2,0,0.3,0C16.5,3.5,16.4,3.5,16.2,3.5z"/>
	<path class="st59" d="M22,7.4c1.3,0.9,2.4,2.1,3.2,3.5c-0.5-0.8-1-1.6-1.8-2.3C23,8.1,22.5,7.7,22,7.4z"/>
	<path class="st59" d="M10.9,25.2c-3.2-1.8-5.4-5.2-5.4-9.2h-2c0,3.5,1.4,6.6,3.7,8.8l1.4-1.4C9.3,24.1,10.1,24.7,10.9,25.2z"/>
	<path class="st59" d="M28.5,16.8c0-0.3,0-0.5,0-0.8c0-0.4,0-0.7-0.1-1.1C28.5,15.6,28.5,16.2,28.5,16.8z"/>
	<path class="st59" d="M27.7,20.3c0.1-0.2,0.2-0.4,0.2-0.7C27.9,19.8,27.8,20.1,27.7,20.3C27.7,20.3,27.7,20.3,27.7,20.3z"/>
	<path class="st59" d="M28.4,17.2c0,0.3-0.1,0.6-0.1,0.8C28.4,17.8,28.4,17.5,28.4,17.2z"/>
	<path class="st59" d="M18.6,3.8c0.2,0,0.3,0.1,0.5,0.1C19,3.9,18.8,3.8,18.6,3.8z"/>
	<path class="st59" d="M20.9,4.5c0.2,0.1,0.3,0.1,0.5,0.2C21.2,4.7,21.1,4.6,20.9,4.5z"/>
	<path class="st59" d="M19.8,4.1c0.2,0.1,0.3,0.1,0.5,0.2C20.1,4.2,19.9,4.1,19.8,4.1z"/>
	<path class="st59" d="M17.4,3.6c0.2,0,0.3,0,0.5,0.1C17.7,3.6,17.6,3.6,17.4,3.6z"/>
	<path class="st59" d="M24,6.4c0.2,0.2,0.4,0.3,0.6,0.5C24.4,6.7,24.2,6.5,24,6.4z"/>
	<path class="st59" d="M24.9,7.2c0.3,0.3,0.5,0.5,0.7,0.8C25.4,7.7,25.1,7.5,24.9,7.2z"/>
	<path class="st59" d="M25.7,8.1c0.3,0.3,0.5,0.7,0.7,1C26.2,8.8,26,8.4,25.7,8.1z"/>
	<path class="st59" d="M23,5.7c0.2,0.1,0.3,0.2,0.5,0.4C23.3,5.9,23.2,5.8,23,5.7z"/>
	<path class="st59" d="M22,5c0.2,0.1,0.3,0.2,0.5,0.3C22.3,5.2,22.1,5.1,22,5z"/>
	<path class="st59" d="M28.3,18.4c-0.1,0.3-0.1,0.5-0.2,0.8C28.1,19,28.2,18.7,28.3,18.4z"/>
	<path class="st59" d="M11.2,27.5c-0.1-0.1-0.3-0.1-0.4-0.2C10.9,27.4,11.1,27.5,11.2,27.5z"/>
	<path class="st59" d="M12.4,28c-0.2,0-0.3-0.1-0.5-0.2C12,27.8,12.2,27.9,12.4,28z"/>
	<path class="st59" d="M14.8,28.4c-0.1,0-0.3,0-0.4-0.1C14.5,28.4,14.6,28.4,14.8,28.4z"/>
	<path class="st59" d="M13.5,28.3c-0.2,0-0.3-0.1-0.5-0.1C13.2,28.2,13.4,28.2,13.5,28.3z"/>
	<path class="st59" d="M10.1,27c-0.1-0.1-0.2-0.1-0.4-0.2C9.9,26.9,10,26.9,10.1,27z"/>
	<path class="st59" d="M8.1,25.7c-0.1-0.1-0.2-0.2-0.3-0.3C7.8,25.5,7.9,25.6,8.1,25.7z"/>
	<path class="st59" d="M9,26.4c-0.1-0.1-0.2-0.2-0.3-0.2C8.8,26.2,8.9,26.3,9,26.4z"/>
	<path class="st59" d="M11,25.2c0.2,0.1,0.4,0.2,0.7,0.3C11.5,25.5,11.2,25.4,11,25.2z"/>
	<path class="st10" d="M27.7,20.3c0.1-0.2,0.2-0.4,0.2-0.7c0-0.1,0.1-0.3,0.1-0.4c0.1-0.3,0.1-0.5,0.2-0.8c0-0.1,0-0.3,0.1-0.4
		c0-0.3,0.1-0.6,0.1-0.8c0-0.1,0-0.3,0-0.4c0-0.6,0-1.3,0-1.9c0,0,0-0.1,0-0.1c0-0.3-0.1-0.6-0.1-1c0-0.1,0-0.2,0-0.2
		c-0.1-0.3-0.1-0.6-0.2-0.9c0-0.1,0-0.2-0.1-0.3c-0.1-0.3-0.2-0.6-0.3-0.9c0-0.1-0.1-0.2-0.1-0.3c-0.1-0.3-0.2-0.5-0.4-0.8
		c-0.1-0.1-0.1-0.2-0.2-0.3c-0.1-0.3-0.3-0.5-0.5-0.8c-0.1-0.1-0.1-0.2-0.2-0.3c-0.2-0.3-0.5-0.7-0.7-1c0,0-0.1-0.1-0.1-0.1
		c-0.2-0.3-0.5-0.6-0.7-0.8c-0.1-0.1-0.2-0.2-0.3-0.3c-0.2-0.2-0.4-0.4-0.6-0.5c-0.2-0.1-0.3-0.2-0.5-0.4c-0.2-0.1-0.3-0.2-0.5-0.4
		c-0.2-0.1-0.4-0.2-0.6-0.4C22.3,5.2,22.1,5.1,22,5c-0.2-0.1-0.4-0.2-0.6-0.3c-0.2-0.1-0.3-0.2-0.5-0.2c-0.2-0.1-0.4-0.2-0.6-0.2
		c-0.2-0.1-0.3-0.1-0.5-0.2C19.6,4,19.3,4,19.1,3.9c-0.2,0-0.3-0.1-0.5-0.1c-0.2,0-0.5-0.1-0.7-0.1c-0.2,0-0.3-0.1-0.5-0.1
		c-0.3,0-0.6,0-0.8-0.1c-0.1,0-0.2,0-0.3,0v2c0.1,0,0.2,0,0.4,0c0.2,0,0.4,0,0.6,0c0.1,0,0.3,0,0.4,0.1c0.2,0,0.4,0.1,0.6,0.1
		c0.1,0,0.2,0.1,0.3,0.1C18.8,5.9,19,5.9,19.2,6c0.1,0,0.2,0.1,0.2,0.1c0.2,0.1,0.5,0.2,0.7,0.3c0,0,0.1,0,0.1,0.1
		c0.3,0.1,0.5,0.2,0.8,0.4c0,0,0,0,0.1,0C21.5,7,21.7,7.2,22,7.4c0,0,0,0,0,0c0.5,0.3,1,0.7,1.4,1.2c0.7,0.7,1.3,1.5,1.8,2.3
		c0,0.1,0.1,0.1,0.1,0.2c0.1,0.1,0.1,0.3,0.2,0.4c0.1,0.2,0.2,0.3,0.2,0.5c0,0.1,0,0.1,0.1,0.2c0.5,1.2,0.7,2.5,0.7,3.8
		c0,1-0.2,2-0.4,2.9c0,0,0,0.1,0,0.1c0,0,0,0.1,0,0.1C26.7,19.4,27.2,19.8,27.7,20.3z"/>
	<path class="st59" d="M27.7,20.3c0.1-0.2,0.2-0.4,0.2-0.7c0-0.1,0.1-0.3,0.1-0.4c0.1-0.3,0.1-0.5,0.2-0.8c0-0.1,0-0.3,0.1-0.4
		c0-0.3,0.1-0.6,0.1-0.8c0-0.1,0-0.3,0-0.4c0-0.6,0-1.3,0-1.9c0,0,0-0.1,0-0.1c0-0.3-0.1-0.6-0.1-1c0-0.1,0-0.2,0-0.2
		c-0.1-0.3-0.1-0.6-0.2-0.9c0-0.1,0-0.2-0.1-0.3c-0.1-0.3-0.2-0.6-0.3-0.9c0-0.1-0.1-0.2-0.1-0.3c-0.1-0.3-0.2-0.5-0.4-0.8
		c-0.1-0.1-0.1-0.2-0.2-0.3c-0.1-0.3-0.3-0.5-0.5-0.8c-0.1-0.1-0.1-0.2-0.2-0.3c-0.2-0.3-0.5-0.7-0.7-1c0,0-0.1-0.1-0.1-0.1
		c-0.2-0.3-0.5-0.6-0.7-0.8c-0.1-0.1-0.2-0.2-0.3-0.3c-0.2-0.2-0.4-0.4-0.6-0.5c-0.2-0.1-0.3-0.2-0.5-0.4c-0.2-0.1-0.3-0.2-0.5-0.4
		c-0.2-0.1-0.4-0.2-0.6-0.4C22.3,5.2,22.1,5.1,22,5c-0.2-0.1-0.4-0.2-0.6-0.3c-0.2-0.1-0.3-0.2-0.5-0.2c-0.2-0.1-0.4-0.2-0.6-0.2
		c-0.2-0.1-0.3-0.1-0.5-0.2C19.6,4,19.3,4,19.1,3.9c-0.2,0-0.3-0.1-0.5-0.1c-0.2,0-0.5-0.1-0.7-0.1c-0.2,0-0.3-0.1-0.5-0.1
		c-0.3,0-0.6,0-0.8-0.1c-0.1,0-0.2,0-0.3,0v2c0.1,0,0.2,0,0.4,0c0.2,0,0.4,0,0.6,0c0.1,0,0.3,0,0.4,0.1c0.2,0,0.4,0.1,0.6,0.1
		c0.1,0,0.2,0.1,0.3,0.1C18.8,5.9,19,5.9,19.2,6c0.1,0,0.2,0.1,0.2,0.1c0.2,0.1,0.5,0.2,0.7,0.3c0,0,0.1,0,0.1,0.1
		c0.3,0.1,0.5,0.2,0.8,0.4c0,0,0,0,0.1,0C21.5,7,21.7,7.2,22,7.4c0,0,0,0,0,0c0.5,0.3,1,0.7,1.4,1.2c0.7,0.7,1.3,1.5,1.8,2.3
		c0,0.1,0.1,0.1,0.1,0.2c0.1,0.1,0.1,0.3,0.2,0.4c0.1,0.2,0.2,0.3,0.2,0.5c0,0.1,0,0.1,0.1,0.2c0.5,1.2,0.7,2.5,0.7,3.8
		c0,1-0.2,2-0.4,2.9c0,0,0,0.1,0,0.1c0,0,0,0.1,0,0.1C26.7,19.4,27.2,19.8,27.7,20.3z"/>
	<path class="st10" d="M17.2,28.4c-0.9-0.6-1.6-1.3-2.2-2c-0.3,0-0.6-0.1-0.9-0.1c-0.1,0-0.1,0-0.2,0c-0.2,0-0.4-0.1-0.6-0.2
		c-0.1,0-0.3-0.1-0.4-0.1c-0.2,0-0.3-0.1-0.5-0.2c-0.2-0.1-0.4-0.1-0.5-0.2c-0.1,0-0.2-0.1-0.3-0.1c-0.2-0.1-0.5-0.2-0.7-0.3
		c0,0-0.1,0-0.1-0.1c-0.8-0.5-1.6-1-2.3-1.8l-1.4,1.4c0.2,0.2,0.4,0.4,0.6,0.5c0.1,0.1,0.2,0.2,0.3,0.3c0.2,0.2,0.4,0.3,0.7,0.5
		c0.1,0.1,0.2,0.2,0.3,0.2c0.2,0.2,0.5,0.3,0.7,0.4c0.1,0.1,0.2,0.1,0.4,0.2c0.2,0.1,0.5,0.2,0.7,0.3c0.1,0.1,0.3,0.1,0.4,0.2
		c0.2,0.1,0.5,0.2,0.7,0.3c0.2,0.1,0.3,0.1,0.5,0.2c0.2,0.1,0.5,0.1,0.7,0.2c0.2,0,0.3,0.1,0.5,0.1c0.3,0.1,0.5,0.1,0.8,0.1
		c0.1,0,0.3,0,0.4,0.1c0.4,0,0.8,0.1,1.2,0.1C16.4,28.5,16.8,28.5,17.2,28.4z"/>
	<path class="st59" d="M17.2,28.4c-0.9-0.6-1.6-1.3-2.2-2c-0.3,0-0.6-0.1-0.9-0.1c-0.1,0-0.1,0-0.2,0c-0.2,0-0.4-0.1-0.6-0.2
		c-0.1,0-0.3-0.1-0.4-0.1c-0.2,0-0.3-0.1-0.5-0.2c-0.2-0.1-0.4-0.1-0.5-0.2c-0.1,0-0.2-0.1-0.3-0.1c-0.2-0.1-0.5-0.2-0.7-0.3
		c0,0-0.1,0-0.1-0.1c-0.8-0.5-1.6-1-2.3-1.8l-1.4,1.4c0.2,0.2,0.4,0.4,0.6,0.5c0.1,0.1,0.2,0.2,0.3,0.3c0.2,0.2,0.4,0.3,0.7,0.5
		c0.1,0.1,0.2,0.2,0.3,0.2c0.2,0.2,0.5,0.3,0.7,0.4c0.1,0.1,0.2,0.1,0.4,0.2c0.2,0.1,0.5,0.2,0.7,0.3c0.1,0.1,0.3,0.1,0.4,0.2
		c0.2,0.1,0.5,0.2,0.7,0.3c0.2,0.1,0.3,0.1,0.5,0.2c0.2,0.1,0.5,0.1,0.7,0.2c0.2,0,0.3,0.1,0.5,0.1c0.3,0.1,0.5,0.1,0.8,0.1
		c0.1,0,0.3,0,0.4,0.1c0.4,0,0.8,0.1,1.2,0.1C16.4,28.5,16.8,28.5,17.2,28.4z"/>
	<polygon class="st10" points="5.7,5.3 3.9,11.9 10.5,10.1 8.8,8.4 7.4,7 	"/>
	<path class="st10" d="M11.2,20.4c0,0.1-0.1,0.1-0.1,0.2c-0.1,0.2,0,0.3,0.1,0.4c0,0,0.1,0,0.1,0.1c0.9,0,1.9,0,2.8,0
		c0.1-0.1,0.2-0.1,0.3-0.2c1-1.5,2.1-3,3.1-4.6c0.2-0.3,0.2-0.4,0-0.7c-0.5-0.8-1.1-1.6-1.6-2.4c-0.4-0.6-0.9-1.3-1.3-1.9
		c-0.1-0.2-0.2-0.3-0.4-0.3c-0.9,0-1.8,0-2.8,0c-0.2,0-0.3,0.1-0.4,0.3c0,0.1,0,0.2,0.1,0.3c1,1.4,2,2.9,2.9,4.3
		c0.1,0.1,0.1,0.1,0,0.3C13.2,17.5,12.2,19,11.2,20.4z"/>
	<path class="st40" d="M18.3,16.7c-0.1-0.2-0.2-0.2-0.3,0c-0.5,0.7-1,1.5-1.5,2.2c-0.1,0.1-0.1,0.1,0,0.3c0.1,0.2,0.2,0.4,0.4,0.5
		c0.8-0.6,1.6-1,2.6-1.3C19.1,17.9,18.7,17.3,18.3,16.7z"/>
	<path class="st40" d="M18.3,15.2c0.2-0.3,0.4-0.5,0.5-0.8c0.5-0.7,0.9-1.4,1.4-2.1c0.2-0.3,0.4-0.7,0.7-1c0,0,0-0.1,0-0.1
		c-0.1-0.2-0.2-0.3-0.4-0.3c-0.9,0-1.8,0-2.7,0c-0.2,0-0.3,0.1-0.4,0.2c-0.3,0.5-0.6,0.9-0.9,1.4c-0.1,0.1-0.1,0.2,0,0.3
		c0.5,0.8,1.1,1.6,1.6,2.4C18.2,15.3,18.2,15.3,18.3,15.2z"/>
	<path class="st10" d="M22,25.8c1,0,1.8-0.8,1.8-1.8S23,22.3,22,22.3h-0.5c0.3,0.2,0.5,0.5,0.5,0.8c0,0.5-0.4,0.9-0.9,0.9
		c-0.3,0-0.6-0.2-0.8-0.5V24C20.3,25,21,25.8,22,25.8z"/>
	<path class="st10" d="M22,20c-3.3,0-6,3-6,4s2.7,4,6,4c3.3,0,6-3,6-4S25.3,20,22,20z M22,27c-1.7,0-3-1.3-3-3c0-1.7,1.3-3,3-3
		c1.7,0,3,1.3,3,3C25,25.7,23.7,27,22,27z"/>
</g>
</svg>
