<svg id="Layer_1" data-name="Layer 1" xmlns="http://www.w3.org/2000/svg" viewBox="0 0 64 64"><defs><style>.cls-1,.cls-2{fill:#fff;}.cls-2{fill-opacity:0.6;fill-rule:evenodd;}</style></defs><path class="cls-1" d="M42.5,20.85a1.5,1.5,0,0,1-1.5-1.5v-4.7H23v4.7a1.5,1.5,0,0,1-3,0V14.29a2.65,2.65,0,0,1,2.64-2.64H41.36A2.65,2.65,0,0,1,44,14.29v5.06A1.5,1.5,0,0,1,42.5,20.85Z"/><path class="cls-2" d="M57.05,45.1V26.6a7.24,7.24,0,0,1-7.25-7.25H46a3.48,3.48,0,1,1-7,0H25a3.48,3.48,0,1,1-7,0H14.2A7.24,7.24,0,0,1,7,26.6V45.1a7.25,7.25,0,0,1,7.25,7.25H49.8A7.25,7.25,0,0,1,57.05,45.1Z"/><path class="cls-1" d="M14.2,19.35H8.45A1.74,1.74,0,0,0,7,20.85V26.6A7.24,7.24,0,0,0,14.2,19.35Z"/><path class="cls-1" d="M57.05,26.6V20.85a1.74,1.74,0,0,0-1.5-1.5H49.8A7.24,7.24,0,0,0,57.05,26.6Z"/><path class="cls-1" d="M7,45.1v5.75a1.74,1.74,0,0,0,1.5,1.5H14.2A7.25,7.25,0,0,0,7,45.1Z"/><path class="cls-1" d="M57.05,50.85V45.1a7.25,7.25,0,0,0-7.25,7.25h5.75A1.74,1.74,0,0,0,57.05,50.85Z"/></svg>