<svg id="Layer_1" data-name="Layer 1" xmlns="http://www.w3.org/2000/svg" viewBox="0 0 32 32"><defs><style>.cls-1,.cls-2{fill:#823591;}.cls-2{opacity:0.4;}</style></defs><path class="cls-1" d="M15.36,26.84A8.64,8.64,0,0,1,7.5,18.37a8.5,8.5,0,0,1,17,0v.05a9.42,9.42,0,0,1,1.95.92c0-.32.05-.64.05-1a10.59,10.59,0,0,0-2.1-6.3L26,10.57a.6.6,0,0,0,0-.7L24.5,8.42a.6.6,0,0,0-.7,0L22.3,10a10.27,10.27,0,0,0-4.8-2V6.37H19a.47.47,0,0,0,.5-.5V4.37a.47.47,0,0,0-.5-.5H13a.49.49,0,0,0-.5.5v1.5a.49.49,0,0,0,.5.5h1.5V8a10.52,10.52,0,0,0-9,10.4A10.37,10.37,0,0,0,16,28.87a10,10,0,0,0,1.66-.14A9.65,9.65,0,0,1,15.36,26.84Z"/><path class="cls-2" d="M21.34,16.29a.49.49,0,0,1,0-.11,7.14,7.14,0,0,0-.43-.82c-.06-.09-.12-.19-.19-.28a6.11,6.11,0,0,0-.51-.63l-.28-.27a4.43,4.43,0,0,0-.59-.48,2,2,0,0,0-.31-.2,3.72,3.72,0,0,0-.71-.38L18,13a6.4,6.4,0,0,0-.85-.26l-.17,0a5.69,5.69,0,0,0-1-.1c-.12,0-.24,0-.36,0A5.63,5.63,0,0,0,12.39,14l-1-1-1.15,4.3,4.31-1.15-.92-.92A3.93,3.93,0,0,1,16,14.4c.13,0,.25,0,.38,0a2.52,2.52,0,0,1,.47.06l.17.05a4,4,0,0,1,2.8,2.81c0,.08.06.16.08.25s0,.17,0,.26a3,3,0,0,1,0,.42A7.18,7.18,0,0,1,21.69,18,5.73,5.73,0,0,0,21.34,16.29Z"/><path class="cls-2" d="M14.46,22l-.05,0a4,4,0,0,1-1.22-.83l-.33-.32-1.23,1.23.37.39a6.61,6.61,0,0,0,.77.63l.14.09a5.31,5.31,0,0,0,.85.45l.14.05.12,0a4.09,4.09,0,0,1,.64-1.64Z"/><path class="cls-1" d="M22,28h0Z"/><path class="cls-1" d="M22.09,22.31H21.5a1,1,0,0,1,.5.8.9.9,0,0,1-.9.9,1,1,0,0,1-.8-.5V24a2,2,0,0,0,.36,1.13A1.63,1.63,0,0,0,22,25.8,1.79,1.79,0,0,0,23.8,24,1.69,1.69,0,0,0,22.09,22.31Z"/><path class="cls-1" d="M25.1,20.87A6.38,6.38,0,0,0,22.21,20H22a6,6,0,0,0-1.91.33,7,7,0,0,0-4,3.39A.79.79,0,0,0,16,24a.52.52,0,0,0,0,.11C16.18,25.19,18.79,28,22,28H22a6.5,6.5,0,0,0,3-.85C26.82,26.18,28,24.66,28,24S26.83,21.83,25.1,20.87ZM22,27a2.94,2.94,0,0,1-2.79-1.87A3.24,3.24,0,0,1,19,24a3,3,0,0,1,.54-1.75A3,3,0,1,1,22,27Z"/></svg>