<svg id="Layer_1" data-name="Layer 1" xmlns="http://www.w3.org/2000/svg" viewBox="0 0 32 32"><defs><style>.cls-1,.cls-2{fill:#05b497;}.cls-1{opacity:0.4;}.cls-3{fill:#777;}.cls-4{fill:#fff;}</style></defs><path class="cls-1" d="M26,4H9A2.00588,2.00588,0,0,0,7,6V8.8A6.71292,6.71292,0,0,1,11.5,7,6.487,6.487,0,0,1,18,13.5,6.71292,6.71292,0,0,1,16.2,18a6.62513,6.62513,0,0,1,2.9,2H26a2.00588,2.00588,0,0,0,2-2V6A2.00588,2.00588,0,0,0,26,4Z"/><path class="cls-2" d="M19,13h5v2H19Z"/><path class="cls-2" d="M19,9h5v2H19Z"/><path class="cls-3" d="M14.4999,20a27.41446,27.41446,0,0,1-3,.4,26.874,26.874,0,0,1-3-.4C6.505,20,4,22.6667,4,24.8v2.2667C4,27.6,4,28,4.63,28H18.3698c.66,0,.63-.4.63-.9333V24.8C18.9998,22.6667,16.4798,20,14.4999,20Z"/><path class="cls-4" d="M13.063,23.33333h-.88887v-.88887A.44444.44444,0,0,0,11.72963,22h-.44442a.44444.44444,0,0,0-.44446.44446v.88887H9.95188a.44445.44445,0,0,0-.44446.44446v.44442a.44445.44445,0,0,0,.44446.44446h.88887v.88887A.44444.44444,0,0,0,11.28521,26h.44442a.44444.44444,0,0,0,.44446-.44446v-.88887H13.063a.44444.44444,0,0,0,.44446-.44446v-.44442A.44444.44444,0,0,0,13.063,23.33333Z"/><path class="cls-3" d="M11.5,8.99992a4.48223,4.48223,0,1,0,4.5,4.5A4.49991,4.49991,0,0,0,11.5,8.99992Z"/></svg>