<svg id="Layer_1" data-name="Layer 1" xmlns="http://www.w3.org/2000/svg" viewBox="0 0 32 32"><defs><style>.cls-1,.cls-2{fill:#1467ba;}.cls-2{opacity:0.4;}.cls-3{fill:#fff;}</style></defs><path class="cls-1" d="M25,11.16a8.84,8.84,0,0,0-5.47-6.88,8.76,8.76,0,0,0-9,1.07A8.8,8.8,0,0,0,7,10.87a8.92,8.92,0,0,0,.68,5.75A35.51,35.51,0,0,0,10,20.8c.17.27.33.54.51.8.32.5.66,1,1,1.47,1.24,1.78,2.58,3.49,4,5.14a2.06,2.06,0,0,0,.37.29h.2a3.67,3.67,0,0,0,.47-.4,68.55,68.55,0,0,0,4.89-6.5c.18-.27.34-.55.52-.82.28-.45.57-.9.85-1.36a23.06,23.06,0,0,0,1.8-3.58A8.59,8.59,0,0,0,25,11.16Zm-2.27,4a18.44,18.44,0,0,1-1.31,2.68l-.34.59Q20.15,20,19,21.61c-.92,1.34-1.93,2.68-3,4.05-1-1.23-1.94-2.48-2.82-3.73L13,21.61c-1-1.37-1.74-2.62-2.41-3.8-.39-.7-.74-1.37-1.05-2A6.83,6.83,0,0,1,9,11.28,6.73,6.73,0,0,1,11.73,7,7.14,7.14,0,0,1,15.91,5.5a7.48,7.48,0,0,1,2.88.62,6.86,6.86,0,0,1,4.28,5.41A6.59,6.59,0,0,1,22.76,15.13Z"/><path class="cls-2" d="M23.07,11.53a6.86,6.86,0,0,0-4.28-5.41,7.48,7.48,0,0,0-2.88-.62A7.14,7.14,0,0,0,11.73,7,6.73,6.73,0,0,0,9,11.28a6.83,6.83,0,0,0,.53,4.49c.31.67.66,1.34,1.05,2a3.7,3.7,0,0,1,3.06-1.89c.61,0,1,.46,2.39.46a12,12,0,0,0,2.39-.46,3.7,3.7,0,0,1,3.06,1.89,18.44,18.44,0,0,0,1.31-2.68A6.59,6.59,0,0,0,23.07,11.53ZM16,14.78a3.42,3.42,0,1,1,3.41-3.41A3.41,3.41,0,0,1,16,14.78Z"/><path class="cls-3" d="M21.45,17.81l-.34.59Q20.15,20,19,21.61c-.92,1.34-1.93,2.68-3,4.05-1-1.23-1.94-2.48-2.82-3.73L13,21.61c-1-1.37-1.74-2.62-2.41-3.8a3.7,3.7,0,0,1,3.06-1.89c.61,0,1,.46,2.39.46a12,12,0,0,0,2.39-.46A3.7,3.7,0,0,1,21.45,17.81Z"/><path class="cls-3" d="M19.41,11.37A3.41,3.41,0,1,1,16,8,3.41,3.41,0,0,1,19.41,11.37Z"/></svg>