<svg id="Layer_1" data-name="Layer 1" xmlns="http://www.w3.org/2000/svg" viewBox="0 0 64 64"><defs><style>.cls-1,.cls-2{fill:#fff;}.cls-2{opacity:0.6;isolation:isolate;}</style></defs><circle class="cls-1" cx="14.9074" cy="47.6011" r="8"/><polygon class="cls-1" points="49.134 38.6 39.896 54.6 58.372 54.6 49.134 38.6"/><path class="cls-2" d="M34,36.5776v-9.064H30v9.064l-5.8512,3.3779a11.9943,11.9943,0,0,1,1.9936,3.4683L32,40.042l8.762,5.0586,2-3.4644Z"/><path class="cls-1" d="M40.9962,24.514h-18a1,1,0,0,1-1-1V9.3989a1,1,0,0,1,1-1h5.8432a1,1,0,0,1,.6457.2364l2.2316,1.8872a1,1,0,0,0,.6457.2364h8.634a1,1,0,0,1,1,1V23.5141A1,1,0,0,1,40.9962,24.514Z"/></svg>