<svg id="Layer_1" data-name="Layer 1" xmlns="http://www.w3.org/2000/svg" viewBox="0 0 32 32"><defs><style>.cls-1{fill:red;}</style></defs><path class="cls-1" d="M20.27833,24.3285l.79394-.79394-.79394-.79395a2.29986,2.29986,0,0,1,0-3.25293l1.24511-1.24511a2.30106,2.30106,0,0,1,3.25293.001l.79395.79395.79394-.79395a2.284,2.284,0,0,1,1.626-.67382,2.32926,2.32926,0,0,1,.50977.06152V10.12782a1.24993,1.24993,0,0,0-1.24994-1.25H16.45765a1.2493,1.2493,0,0,1-.80713-.29541L12.861,6.22352a1.24932,1.24932,0,0,0-.80707-.29541h-7.304A1.24988,1.24988,0,0,0,3.5,7.17811V24.82216a1.24988,1.24988,0,0,0,1.24987,1.25H19.616c-.002-.03955-.01147-.07764-.01147-.11768A2.28406,2.28406,0,0,1,20.27833,24.3285Z"/><path class="cls-1" d="M29.44746,21.32655a.3.3,0,0,0,0-.42431L28.5,19.955l-.29743-.29736a.29992.29992,0,0,0-.42425,0l-2.20825,2.208-2.2082-2.208a.29992.29992,0,0,0-.42425,0l-1.24494,1.24463a.30012.30012,0,0,0,0,.42431L23.901,23.535l-2.20826,2.208a.2838.2838,0,0,0-.03936.3291c.01446.03174.01312.06884.03936.09521l1.24494,1.24512a.30081.30081,0,0,0,.42425,0l1.34-1.34033.86823-.86817.86822.86817,1.34,1.34033a.30081.30081,0,0,0,.42425,0l1.24488-1.24512a.3.3,0,0,0,0-.42431L28.5,24.7953,27.23926,23.535,28.5,22.27382Z"/></svg>