<svg id="Layer_1" data-name="Layer 1" xmlns="http://www.w3.org/2000/svg" viewBox="0 0 32 32"><defs><style>.cls-1,.cls-2{fill:#8b6747;}.cls-2{opacity:0.2;isolation:isolate;}.cls-3{fill:#fff;}</style></defs><path class="cls-1" d="M17.4751,10.8493A5.2237,5.2237,0,0,0,13.17,9.2744a1.5192,1.5192,0,0,0-.63.14c-.175.14,0,.28.07.35l.8051.8051.35.35.42.42.63.63.175.1751a.5905.5905,0,0,1,.14.49l-.455,1.645a.5651.5651,0,0,1-.14.2451.7327.7327,0,0,1-.21.14l-1.68.42a.485.485,0,0,1-.49-.105l-.1751-.1751-.63-.63-.42-.42-.35-.35L9.7748,12.6c-.07-.07-.21-.2452-.35-.07a1.5189,1.5189,0,0,0-.14.63A5.2239,5.2239,0,0,0,10.86,17.4648a4.2131,4.2131,0,0,0,4.83,1.05l1.2282,1.2281A9.1516,9.1516,0,0,1,20.92,18.0744L18.5252,15.68A4.2135,4.2135,0,0,0,17.4751,10.8493Z"/><path class="cls-2" d="M24.5,3.486H7.5a1.0369,1.0369,0,0,0-1,1v23a1.0368,1.0368,0,0,0,1,1h9.7953C15.3272,27.1933,14,25.3308,14,23.9863a5.2321,5.2321,0,0,1,1.7933-3.2915c.1972-.1951.4044-.3863.6274-.57.1591-.1314.327-.2576.498-.3816L15.69,18.5148a4.2131,4.2131,0,0,1-4.83-1.05A5.2239,5.2239,0,0,1,9.2847,13.16a1.5189,1.5189,0,0,1,.14-.63c.14-.1751.28,0,.35.07l.805.8049.35.35.42.42.63.63.1751.1751a.485.485,0,0,0,.49.105l1.68-.42a.7327.7327,0,0,0,.21-.14.5651.5651,0,0,0,.14-.2451l.455-1.645a.5905.5905,0,0,0-.14-.49l-.175-.1751-.63-.63-.42-.42-.35-.35L12.61,9.7644c-.07-.07-.245-.21-.07-.35a1.5192,1.5192,0,0,1,.63-.14,5.2237,5.2237,0,0,1,4.3052,1.5749,4.2135,4.2135,0,0,1,1.05,4.83L20.92,18.0744A7.4852,7.4852,0,0,1,22,17.9863a8.2544,8.2544,0,0,1,3.5.8257V4.486A1,1,0,0,0,24.5,3.486Z"/><path class="cls-1" d="M23.7951,23.9952a1.7926,1.7926,0,0,1-1.8,1.8,1.71,1.71,0,0,1-1.7-1.8v-.5a1.02,1.02,0,0,0,.8.5.8962.8962,0,0,0,.9-.9,1.02,1.02,0,0,0-.5-.8h.5A1.71,1.71,0,0,1,23.7951,23.9952Z"/><path class="cls-1" d="M21.9951,19.9952c-3.3,0-6,3-6,4s2.7,4,6,4,6-3,6-4S25.2951,19.9952,21.9951,19.9952Zm0,7a3,3,0,1,1,3-3A2.9463,2.9463,0,0,1,21.9951,26.9952Z"/><path class="cls-3" d="M21.9951,20.9952a3,3,0,1,0,3,3A2.9465,2.9465,0,0,0,21.9951,20.9952Zm0,4.8a1.71,1.71,0,0,1-1.7-1.8v-.5a1.02,1.02,0,0,0,.8.5.8962.8962,0,0,0,.9-.9,1.02,1.02,0,0,0-.5-.8h.5a1.71,1.71,0,0,1,1.8,1.7A1.7926,1.7926,0,0,1,21.9951,25.7953Z"/></svg>