<svg id="Layer_1" data-name="Layer 1" xmlns="http://www.w3.org/2000/svg" viewBox="0 0 32 32"><defs><style>.cls-1{opacity:0.2;}.cls-2,.cls-3{fill:#00b050;}.cls-2{isolation:isolate;}</style></defs><g class="cls-1"><path class="cls-2" d="M24.5,3.5H7.5a1.037,1.037,0,0,0-1,1v24h.0006c1.1881-.0007,1.1883-2,2.3768-2s1.1888,1.9993,2.3769,2h.0011c1.1873-.0007,1.1876-2,2.3753-2s1.1869,1.9993,2.3731,2h.0012c1.186-.0007,1.1863-2,2.3728-2s1.1871,1.9993,2.3735,2h.0012c1.1864-.0007,1.1866-2,2.3734-2s1.1871,1.9993,2.3735,2H25.5V4.5A1,1,0,0,0,24.5,3.5ZM22.3609,24.71H9.6391V23.2129H22.3609Zm0-2.9327H9.6391V20.28H22.3609Z"/></g><path class="cls-3" d="M21.8012,15.3259,18.1954,11.72a3.6782,3.6782,0,0,0-.9167-4.2169A4.56,4.56,0,0,0,13.52,6.1283a1.326,1.326,0,0,0-.55.1222c-.1527.1222,0,.2445.0612.3056l.7028.7028.3055.3055.3667.3667.55.55.1528.1527a.5154.5154,0,0,1,.1222.4278l-.3972,1.4362a.4928.4928,0,0,1-.1222.2139.6384.6384,0,0,1-.1834.1222l-1.4667.3667a.423.423,0,0,1-.4278-.0917l-.1528-.1527-.55-.55-.3667-.3666-.3055-.3056-.7028-.7028c-.0612-.0611-.1834-.2139-.3056-.0611a1.3257,1.3257,0,0,0-.1222.55,4.56,4.56,0,0,0,1.375,3.7585,3.6783,3.6783,0,0,0,4.2168.9167l2.9029,2.9029.7029.7028a.2953.2953,0,0,0,.4277,0l2.0474-2.0473A.2954.2954,0,0,0,21.8012,15.3259Z"/></svg>