<svg id="Layer_1" data-name="Layer 1" xmlns="http://www.w3.org/2000/svg" viewBox="0 0 64 64"><defs><style>.cls-1{fill:none;}.cls-2,.cls-3,.cls-4,.cls-5{fill:#fff;}.cls-2,.cls-5{opacity:0.6;}.cls-2,.cls-3,.cls-4{isolation:isolate;}.cls-4{opacity:0.4;}</style></defs><rect class="cls-1" x="18.99893" y="12.00496" width="26" height="9" rx="1"/><path class="cls-1" d="M44.99893,37.005v14c0,1-.4,1-1,1h-4c-.6,0-1,0-1-1v-14a.93968.93968,0,0,1,1-1h4A.93966.93966,0,0,1,44.99893,37.005Z"/><path class="cls-2" d="M47.99893,8.005h-32a1.99955,1.99955,0,0,0-2,2V23.76473a9.47691,9.47691,0,0,1,10.39,2.30029c.19.21.38.43018.56.6499a9.44841,9.44841,0,0,1,.05,11.69V41.005a.94471.94471,0,0,1-1,1h-4a1.07965,1.07965,0,0,1-.49-.12988,9.334,9.334,0,0,1-5.51-.46V54.005a2.0738,2.0738,0,0,0,2,2h32a2.07377,2.07377,0,0,0,2-2v-44A1.99952,1.99952,0,0,0,47.99893,8.005Zm-23,43a.94471.94471,0,0,1-1,1h-4a.94473.94473,0,0,1-1-1v-4a.93968.93968,0,0,1,1-1h4a.93966.93966,0,0,1,1,1Zm10,0a.94471.94471,0,0,1-1,1h-4a.94473.94473,0,0,1-1-1v-4a.93968.93968,0,0,1,1-1h4a.93966.93966,0,0,1,1,1Zm0-10a.94471.94471,0,0,1-1,1h-4a.94473.94473,0,0,1-1-1v-4a.93968.93968,0,0,1,1-1h4a.93966.93966,0,0,1,1,1Zm0-10a.94471.94471,0,0,1-1,1h-4a.94473.94473,0,0,1-1-1v-4a.93968.93968,0,0,1,1-1h4a.93966.93966,0,0,1,1,1Zm10,20c0,1-.4,1-1,1h-4c-.6,0-1,0-1-1v-14a.93968.93968,0,0,1,1-1h4a.93966.93966,0,0,1,1,1Zm0-20a.94471.94471,0,0,1-1,1h-4a.94473.94473,0,0,1-1-1v-4a.93968.93968,0,0,1,1-1h4a.93966.93966,0,0,1,1,1Zm0-11a.94471.94471,0,0,1-1,1h-24a.94473.94473,0,0,1-1-1v-7a.93968.93968,0,0,1,1-1h24a.93966.93966,0,0,1,1,1Z"/><rect class="cls-3" x="38.99893" y="26.00496" width="6" height="6" rx="1"/><rect class="cls-3" x="28.99893" y="46.00496" width="6" height="6" rx="1"/><rect class="cls-3" x="18.99893" y="46.00496" width="6" height="6" rx="1"/><path class="cls-3" d="M24.99893,38.40487V41.005a.94471.94471,0,0,1-1,1h-4a1.07965,1.07965,0,0,1-.49-.12988A9.52622,9.52622,0,0,0,24.99893,38.40487Z"/><rect class="cls-3" x="28.99893" y="36.00496" width="6" height="6" rx="1"/><rect class="cls-3" x="28.99893" y="26.00496" width="6" height="6" rx="1"/><path class="cls-3" d="M12.19673,37.89518a7.503,7.503,0,1,0,5.30338-12.79137L17.5,32.59188Z"/><path class="cls-4" d="M12.19673,27.28858,17.5,32.59188l.00008-7.48807a7.45741,7.45741,0,0,0-5.30338,2.18477Z"/><path class="cls-5" d="M12.19673,27.28858a7.49664,7.49664,0,0,0,0,10.6066L17.5,32.59188Z"/></svg>