<svg id="Layer_1" data-name="Layer 1" xmlns="http://www.w3.org/2000/svg" viewBox="0 0 32 32"><defs><style>.cls-1,.cls-2{fill:#059a32;}.cls-2{opacity:0.4;isolation:isolate;}</style></defs><circle class="cls-1" cx="16.00001" cy="17.99995" r="2.3494" transform="translate(-6.75271 25.89377) rotate(-67.50005)"/><path class="cls-2" d="M20.59436,22.33328l-.70481-1.253a4.93714,4.93714,0,0,0,.73093-1.253h1.40964a.25935.25935,0,0,0,.261-.18276,6.47725,6.47725,0,0,0,0-3.263.25423.25423,0,0,0-.261-.20885H20.62048a6.04125,6.04125,0,0,0-.73093-1.253l.70481-1.22691a.27355.27355,0,0,0-.0261-.31322,6.31179,6.31179,0,0,0-1.33131-.992,6.47632,6.47632,0,0,0-1.51407-.65265.26239.26239,0,0,0-.28713.13057l-.70484,1.253a3.44885,3.44885,0,0,0-1.46182,0l-.70481-1.253a.26242.26242,0,0,0-.28716-.13057,6.47635,6.47635,0,0,0-1.514.65265,6.31294,6.31294,0,0,0-1.33133.992.27355.27355,0,0,0-.0261.31322l.70481,1.22691a6.04258,6.04258,0,0,0-.73093,1.253H9.96991a.25421.25421,0,0,0-.261.20885,6.47635,6.47635,0,0,0,0,3.263.25932.25932,0,0,0,.261.18276h1.40961a4.938,4.938,0,0,0,.73093,1.253l-.70481,1.253a.27981.27981,0,0,0,.0261.31323,7.36085,7.36085,0,0,0,1.33133.992,5.46513,5.46513,0,0,0,1.514.6265.28973.28973,0,0,0,.28716-.10442l.70481-1.253A6.88014,6.88014,0,0,0,16,22.95973a6.87958,6.87958,0,0,0,.7309-.05219l.70484,1.253a.2897.2897,0,0,0,.28713.10442,5.46513,5.46513,0,0,0,1.51407-.6265,7.35929,7.35929,0,0,0,1.33131-.992A.27981.27981,0,0,0,20.59436,22.33328ZM16,21.13246a3.13251,3.13251,0,1,1,3.13252-3.13251A3.125,3.125,0,0,1,16,21.13246Z"/><path class="cls-1" d="M24.4,11.70011,25.95,10.2a.60074.60074,0,0,0,0-.70007L24.5,8.05a.6012.6012,0,0,0-.7,0l-1.5,1.5502a10.26506,10.26506,0,0,0-4.8-2V6.00009H19A.47239.47239,0,0,0,19.5,5.5V4.00011A.47239.47239,0,0,0,19,3.5H13a.48606.48606,0,0,0-.5.50011V5.5a.48606.48606,0,0,0,.5.50011h1.5V7.60017A10.5207,10.5207,0,0,0,5.5,18,10.37292,10.37292,0,0,0,16,28.5,10.373,10.373,0,0,0,26.5,18,10.59337,10.59337,0,0,0,24.4,11.70011ZM16,26.5A8.62686,8.62686,0,0,1,7.5,18a8.5,8.5,0,1,1,17,0A8.62346,8.62346,0,0,1,16,26.5Z"/></svg>