<svg id="Layer_1" data-name="Layer 1" xmlns="http://www.w3.org/2000/svg" viewBox="0 0 64 64"><defs><style>.cls-1,.cls-2{fill:#fff;}.cls-1{opacity:0.6;isolation:isolate;}</style></defs><path class="cls-1" d="M51,9a2,2,0,0,0-2-2H15a2.07,2.07,0,0,0-2,2V55a2.07,2.07,0,0,0,2,2H49a2.07,2.07,0,0,0,2-2V9Z"/><path class="cls-2" d="M45.05,35.44a6.07,6.07,0,0,0-3.16-3.17,5.77,5.77,0,0,0-2.31-.45,5.67,5.67,0,0,0-2.31.45,6.13,6.13,0,0,0-1.89,1.28,5.9,5.9,0,0,0-1.28,1.89,5.81,5.81,0,0,0-.45,2.29,5.89,5.89,0,0,0,.45,2.32,6,6,0,0,0,3.17,3.16,5.84,5.84,0,0,0,2.31.46,6,6,0,0,0,2.31-.46,6.06,6.06,0,0,0,1.88-1.27,6.31,6.31,0,0,0,1.28-1.89,5.72,5.72,0,0,0,.45-2.32A5.64,5.64,0,0,0,45.05,35.44Zm-3.44,4.34a2.87,2.87,0,1,1,0-4.08,2.9,2.9,0,0,1,0,4.08Z"/><path class="cls-2" d="M29.9,24a6.13,6.13,0,0,0-1.28-1.89,6,6,0,0,0-6.5-1.27,6.1,6.1,0,0,0-1.89,1.27A6.31,6.31,0,0,0,19,24a6.07,6.07,0,0,0-.45,2.32,5.95,5.95,0,0,0,3.62,5.46,5.89,5.89,0,0,0,4.61,0,5.9,5.9,0,0,0,1.89-1.28,6,6,0,0,0,1.28-1.87,5.8,5.8,0,0,0,.45-2.31A5.72,5.72,0,0,0,29.9,24Zm-3.44,4.34a2.88,2.88,0,0,1-4.91-2,2.87,2.87,0,0,1,2.88-2.89,2.87,2.87,0,0,1,2.87,2.89A2.72,2.72,0,0,1,26.46,28.29Z"/><polygon class="cls-2" points="39.99 20.9 26.72 44.31 24.08 43.1 37.34 19.69 39.99 20.9"/></svg>