<svg id="Layer_1" data-name="Layer 1" xmlns="http://www.w3.org/2000/svg" viewBox="0 0 64 64"><defs><style>.cls-1{opacity:0.6;isolation:isolate;}.cls-2{fill:#fff;}</style></defs><g class="cls-1"><path class="cls-2" d="M14.55,30.41a10.24,10.24,0,0,1,6.09-6.71H9a1.21,1.21,0,0,0-.72,2.19Z"/><path class="cls-2" d="M55.68,25.89A1.21,1.21,0,0,0,55,23.7H39.18A1.21,1.21,0,0,1,38,22.86l-4.88-15a1.21,1.21,0,0,0-2.3,0L26,22.86a1.14,1.14,0,0,1-.16.31A9.93,9.93,0,0,1,30.07,41h.24a11.73,11.73,0,0,1,10.53,8.5l4.64,3.37a1.21,1.21,0,0,0,1.86-1.36l-4.87-15a1.2,1.2,0,0,1,.44-1.35Z"/></g><path class="cls-2" d="M11.21,57H37.15c1.68,0,2-1.08,2-2.49V52c0-4.82-4.27-8.7-9-9-1.38,0-2.65,1-6,1-3.51,0-4.48-1-6-1-4.73.32-9,4.2-9,9v2.49C9.18,55.94,9.53,57,11.21,57Z"/><path class="cls-2" d="M24.18,41a8,8,0,1,0-8-8A8.08,8.08,0,0,0,24.18,41Z"/></svg>