<svg id="Layer_1" data-name="Layer 1" xmlns="http://www.w3.org/2000/svg" viewBox="0 0 32 32"><defs><style>.cls-1{fill:#70c7e0;}.cls-2{fill:#f6e600;}</style></defs><path class="cls-1" d="M18.37124,24.43349a2.27155,2.27155,0,0,1,1.36425-4.08692l1.9834.02246L22.339,18.456a2.27161,2.27161,0,0,1,4.32129,0l.62109,1.91308L28.5,20.35536V10.12782a1.24993,1.24993,0,0,0-1.24994-1.25H16.45766a1.2493,1.2493,0,0,1-.80713-.29541L12.861,6.22353a1.24926,1.24926,0,0,0-.80707-.29541H4.7499A1.24988,1.24988,0,0,0,3.5,7.17812v17.644a1.24988,1.24988,0,0,0,1.24988,1.25H19.86544l.1347-.41406Z"/><path class="cls-2" d="M29.2604,22.34706l-.76038.0083-2.46851.02686a.27131.27131,0,0,1-.26123-.1875l-1.01214-3.1211a.27138.27138,0,0,0-.51642,0l-1.01215,3.1211a.27128.27128,0,0,1-.26117.1875l-3.22888-.03516a.27133.27133,0,0,0-.16607.48828l2.61627,1.96631a.27084.27084,0,0,1,.095.30078l-.31568.96973-.67126,2.062a.2714.2714,0,0,0,.41406.30615L24.344,26.59316a.27232.27232,0,0,1,.31189,0L27.288,28.44032a.2714.2714,0,0,0,.41407-.30615l-.67127-2.062-.31567-.96973a.27084.27084,0,0,1,.095-.30078l1.68988-1.27.92645-.69629A.27134.27134,0,0,0,29.2604,22.34706Z"/></svg>