<svg id="Layer_1" data-name="Layer 1" xmlns="http://www.w3.org/2000/svg" viewBox="0 0 32 32"><defs><style>.cls-1{fill:#2576c7;}.cls-2{fill:none;}.cls-3{fill:#9bc6f2;}.cls-3,.cls-4{opacity:0.6;}.cls-4{fill:#fff;}</style></defs><path class="cls-1" d="M22,20c-3.3,0-6,3-6,4s2.7,4,6,4,6-3,6-4S25.3,20,22,20Zm0,7a3,3,0,1,1,3-3A2.95,2.95,0,0,1,22,27Z"/><path class="cls-1" d="M22,22.3h-.5a1,1,0,0,1,.5.8.9.9,0,0,1-.9.9,1,1,0,0,1-.8-.5V24A1.71,1.71,0,0,0,22,25.8,1.79,1.79,0,0,0,23.8,24,1.71,1.71,0,0,0,22,22.3Z"/><path class="cls-2" d="M25.78,18.72h-.51a8.64,8.64,0,0,1,1.05.54v-.21C26.32,18.94,26.11,18.72,25.78,18.72Z"/><path class="cls-2" d="M23.6,10h2.18c.33,0,.54-.11.54-.32V8.16c0-.11-.21-.33-.54-.33H23.6c-.32,0-.54.22-.54.33V9.69C23.06,9.79,23.28,10,23.6,10Z"/><path class="cls-2" d="M23.6,15.46h2.18c.33,0,.54-.11.54-.33V13.6c0-.11-.21-.32-.54-.32H23.6c-.32,0-.54.21-.54.32v1.53C23.06,15.24,23.28,15.46,23.6,15.46Z"/><path class="cls-3" d="M20.61,18.14A7.12,7.12,0,0,1,22,18a8.21,8.21,0,0,1,3.27.72h.51c.33,0,.54.22.54.33v.21A9.62,9.62,0,0,1,28.5,21V7.83a2.18,2.18,0,0,0-2.18-2.17H20.56a2.42,2.42,0,0,1,.05.47Zm2.45-10c0-.11.22-.33.54-.33h2.18c.33,0,.54.22.54.33V9.69c0,.21-.21.32-.54.32H23.6c-.32,0-.54-.22-.54-.32Zm0,5.44c0-.11.22-.32.54-.32h2.18c.33,0,.54.21.54.32v1.53c0,.22-.21.33-.54.33H23.6c-.32,0-.54-.22-.54-.33Z"/><path class="cls-1" d="M15.34,26.81V28.5h2A9.6,9.6,0,0,1,15.34,26.81Z"/><path class="cls-1" d="M14.78,21.92h-.09c-.39,0-.66-.26-.66-.39V19.68c0-.13.27-.39.66-.39h2.63a.93.93,0,0,1,.24,0,8.91,8.91,0,0,1,3.05-1.19v-12a2.42,2.42,0,0,0-.05-.47A2.64,2.64,0,0,0,18,3.5H6.13A2.64,2.64,0,0,0,3.5,6.13V28.5H8.76V25.21a.62.62,0,0,1,.66-.66h4.65A2.67,2.67,0,0,1,14,24,4,4,0,0,1,14.78,21.92ZM14,6.52c0-.13.27-.39.66-.39h2.63c.39,0,.65.26.65.39V8.37c0,.26-.26.39-.65.39H14.69c-.39,0-.66-.26-.66-.39Zm0,6.58c0-.13.27-.39.66-.39h2.63c.39,0,.65.26.65.39V15c0,.26-.26.39-.65.39H14.69c-.39,0-.66-.26-.66-.39Zm-3.95,8.43c0,.26-.26.39-.66.39H6.79c-.39,0-.66-.26-.66-.39V19.68c0-.13.27-.39.66-.39H9.42c.4,0,.66.26.66.39Zm0-6.58c0,.26-.26.39-.66.39H6.79c-.39,0-.66-.26-.66-.39V13.1c0-.13.27-.39.66-.39H9.42c.4,0,.66.26.66.39Zm0-6.58c0,.26-.26.39-.66.39H6.79c-.39,0-.66-.26-.66-.39V6.52c0-.13.27-.39.66-.39H9.42c.4,0,.66.26.66.39Z"/><path class="cls-4" d="M9.42,19.29H6.79c-.39,0-.66.26-.66.39v1.85c0,.13.27.39.66.39H9.42c.4,0,.66-.13.66-.39V19.68C10.08,19.55,9.82,19.29,9.42,19.29Z"/><path class="cls-4" d="M14.69,19.29c-.39,0-.66.26-.66.39v1.85c0,.13.27.39.66.39h.09a9.06,9.06,0,0,1,2.78-2.59.93.93,0,0,0-.24,0Z"/><path class="cls-4" d="M14.69,15.34h2.63c.39,0,.65-.13.65-.39V13.1c0-.13-.26-.39-.65-.39H14.69c-.39,0-.66.26-.66.39V15C14,15.08,14.3,15.34,14.69,15.34Z"/><path class="cls-4" d="M9.42,12.71H6.79c-.39,0-.66.26-.66.39V15c0,.13.27.39.66.39H9.42c.4,0,.66-.13.66-.39V13.1C10.08,13,9.82,12.71,9.42,12.71Z"/><path class="cls-4" d="M9.42,6.13H6.79c-.39,0-.66.26-.66.39V8.37c0,.13.27.39.66.39H9.42c.4,0,.66-.13.66-.39V6.52C10.08,6.39,9.82,6.13,9.42,6.13Z"/><path class="cls-4" d="M14.69,8.76h2.63c.39,0,.65-.13.65-.39V6.52c0-.13-.26-.39-.65-.39H14.69c-.39,0-.66.26-.66.39V8.37C14,8.5,14.3,8.76,14.69,8.76Z"/></svg>