<?xml version="1.0" encoding="utf-8"?>
<!-- Generator: Adobe Illustrator 24.2.0, SVG Export Plug-In . SVG Version: 6.00 Build 0)  -->
<svg version="1.1" id="Layer_1" xmlns="http://www.w3.org/2000/svg" xmlns:xlink="http://www.w3.org/1999/xlink" x="0px" y="0px"
	 viewBox="0 0 64 64" style="enable-background:new 0 0 64 64;" xml:space="preserve">
<style type="text/css">
	.st0{fill:#005DED;}
	.st1{fill:#AA8A30;}
	.st2{fill:#1565C0;}
	.st3{fill:#D32F2F;}
	.st4{fill:#66BB6A;}
	.st5{fill:#0A4466;}
	.st6{fill:#8E24AA;}
	.st7{fill:#161616;}
	.st8{fill:#3E87CF;}
	.st9{fill:#9BC6F2;}
	.st10{fill:#777777;}
	.st11{fill:#2576C7;}
	.st12{fill:#FFFFFF;}
	.st13{opacity:0.6;fill:#2576C7;enable-background:new    ;}
	.st14{opacity:0.6;fill:#FFFFFF;enable-background:new    ;}
	.st15{opacity:0.6;fill:#FFFFFF;}
	.st16{fill:#FFE39D;}
	.st17{fill:#ED9C26;}
	.st18{fill:#E03C24;}
	.st19{opacity:0.4;fill:#0A4466;}
	.st20{opacity:0.4;fill:#00796B;}
	.st21{fill:#00796B;}
	.st22{fill:none;}
	.st23{fill:#690000;}
	.st24{fill:#A08165;}
	.st25{fill:#D8C4B3;}
	.st26{fill:#FFD4FF;}
	.st27{opacity:0.6;fill:none;stroke:#FFFFFF;stroke-width:4;stroke-linecap:round;stroke-miterlimit:10;}
	.st28{fill:#571B6D;}
	.st29{opacity:0.4;fill:#571B6D;}
	.st30{opacity:0.6;fill:#571B6D;}
	.st31{fill:#CA0821;}
	.st32{opacity:0.2;fill:#CA0821;enable-background:new    ;}
	.st33{fill:#CA0821;enable-background:new    ;}
	.st34{opacity:0.4;}
	.st35{opacity:0.6;fill:#CA0821;enable-background:new    ;}
	.st36{opacity:0.6;enable-background:new    ;}
	.st37{opacity:0.6;}
	.st38{opacity:0.6;fill:#3E87CF;}
	.st39{fill:#283593;}
	.st40{opacity:0.4;fill:#777777;}
	.st41{opacity:0.4;fill:#283593;}
	.st42{opacity:0.4;fill:#1565C0;}
	.st43{opacity:0.6;fill:#1565C0;}
	.st44{opacity:0.4;fill:#D32F2F;}
	.st45{opacity:0.4;fill:#66BB6A;}
	.st46{opacity:0.4;fill:#AA8A30;}
	.st47{opacity:0.4;fill:#777777;enable-background:new    ;}
	.st48{fill:#9F8165;}
	.st49{opacity:0.4;fill:#9F8165;}
	.st50{fill:#FF7600;}
	.st51{opacity:0.4;fill:#FF7600;}
	.st52{fill:#FBFAFD;}
	.st53{fill:#3606B7;}
	.st54{opacity:0.4;fill:#005DED;}
	.st55{fill:#FF7962;}
	.st56{opacity:0.4;fill:#FF7962;}
	.st57{opacity:0.4;fill:#3606B7;}
	.st58{opacity:0.4;fill:#FFFFFF;}
	.st59{opacity:0.6;fill:#777777;}
</style>
<rect y="0" class="st10" width="64" height="64"/>
<g>
	<path class="st12" d="M14.7,14l2.8,2.8c8.2-7.8,21.3-7.7,29.3,0.3c8.2,8.2,8.2,21.5,0,29.7c-8.2,8.2-21.5,8.2-29.7,0l-2.8,2.8
		c9.8,9.8,25.6,9.8,35.4,0c9.8-9.8,9.8-25.6,0-35.4C40,4.7,24.5,4.6,14.7,14z"/>
	<path class="st15" d="M32.5,7v4C43.8,11.3,53,20.6,53,32c0,11.6-9.4,21-21,21c-11.6,0-21-9.4-21-21H7c0,13.8,11.2,25,25,25
		c13.8,0,25-11.2,25-25C57,18.4,46.1,7.3,32.5,7z"/>
	<polygon class="st12" points="7.9,23.7 21,20.2 11.4,10.6 	"/>
</g>
<g>
	<path class="st12" d="M22.6,42.2c-0.1,0-0.1-0.1-0.2-0.1c-0.3-0.2-0.4-0.6-0.2-0.9c0.1-0.1,0.1-0.2,0.2-0.3
		c1.9-2.9,3.9-5.8,5.8-8.7c0.2-0.3,0.2-0.3,0-0.5c-2-2.9-3.9-5.7-5.9-8.6c-0.1-0.2-0.2-0.4-0.2-0.6c0.1-0.3,0.3-0.6,0.7-0.6
		c1.8,0,3.7,0,5.5,0c0.4,0,0.7,0.2,0.9,0.5c0.9,1.3,1.7,2.6,2.6,3.9c1.1,1.6,2.2,3.3,3.3,4.9c0.4,0.5,0.4,0.9,0,1.4
		c-2.1,3-4.2,6.1-6.3,9.1c-0.2,0.2-0.4,0.4-0.6,0.5C26.4,42.2,24.5,42.2,22.6,42.2z"/>
	<path class="st58" d="M35.8,42.2c-0.3-0.1-0.6-0.4-0.8-0.7c-0.7-1-1.4-2-2-3c-0.2-0.3-0.2-0.3,0-0.6c1-1.5,2-3,3.1-4.5
		c0.2-0.3,0.3-0.3,0.5,0c1.7,2.6,3.5,5.2,5.2,7.8c0,0,0,0,0,0c0,0.1,0,0.3,0,0.4c-0.1,0.2-0.3,0.4-0.5,0.5
		C39.5,42.2,37.7,42.2,35.8,42.2z"/>
	<path class="st58" d="M41.8,22.6c-0.4,0.7-0.9,1.3-1.3,2c-0.9,1.4-1.9,2.7-2.8,4.1c-0.4,0.5-0.7,1.1-1.1,1.6
		c-0.2,0.3-0.3,0.3-0.5,0c-1.1-1.6-2.1-3.2-3.2-4.7c-0.1-0.2-0.1-0.3,0-0.5c0.6-0.9,1.2-1.8,1.8-2.7c0.2-0.3,0.5-0.5,0.9-0.5
		c1.8,0,3.6,0,5.4,0c0.4,0,0.7,0.2,0.8,0.6C41.8,22.5,41.8,22.6,41.8,22.6z"/>
</g>
</svg>
