<svg id="Layer_1" data-name="Layer 1" xmlns="http://www.w3.org/2000/svg" viewBox="0 0 64 64"><defs><style>.cls-1,.cls-2{fill:#fff;}.cls-1{opacity:0.6;isolation:isolate;}</style></defs><path class="cls-1" d="M49,7H15a2.0737,2.0737,0,0,0-2,2V55a2.0739,2.0739,0,0,0,2,2H49a2.0739,2.0739,0,0,0,2-2V9A2,2,0,0,0,49,7ZM44.7219,49.42H19.2782V46.4256H44.7219Zm0-5.8652H19.2782V40.56H44.7219Z"/><path class="cls-2" d="M36.2455,24.3607l-1.4049-.582a.2646.2646,0,0,1-.16-.28,6.2,6.2,0,0,0,.0009-1.53.2646.2646,0,0,1,.16-.28l1.4024-.5809a.2722.2722,0,0,0,.1619-.3131,7.9921,7.9921,0,0,0-.3818-1.1836l-.0008-.0018a8.0035,8.0035,0,0,0-.567-1.107.2723.2723,0,0,0-.3359-.1068l-1.4023.5808a.2649.2649,0,0,1-.3112-.0852,6.1982,6.1982,0,0,0-1.0827-1.0816.2646.2646,0,0,1-.0849-.3112l.582-1.4048a.2729.2729,0,0,0-.1077-.3366,8.0854,8.0854,0,0,0-1.1072-.5644l-.0012-.0005a8.0971,8.0971,0,0,0-1.1821-.3838.2729.2729,0,0,0-.3142.1619l-.5818,1.4046a.2643.2643,0,0,1-.28.16,6.21,6.21,0,0,0-1.53-.0006.2649.2649,0,0,1-.28-.16l-.5809-1.4023a.272.272,0,0,0-.313-.1621,7.9838,7.9838,0,0,0-1.1838.382l-.0017.0005a8.0147,8.0147,0,0,0-1.107.5671.2723.2723,0,0,0-.1068.336l.5809,1.4023a.2651.2651,0,0,1-.0853.3111,6.2161,6.2161,0,0,0-1.0818,1.0826.2641.2641,0,0,1-.311.0849l-1.403-.581a.2747.2747,0,0,0-.3392.1087,8.2,8.2,0,0,0-.9473,2.2868.2749.2749,0,0,0,.163.3166l1.403.5813a.2643.2643,0,0,1,.16.28,6.2005,6.2005,0,0,0-.0008,1.5305.2648.2648,0,0,1-.16.28l-1.4024.5809a.2722.2722,0,0,0-.1619.313,7.7182,7.7182,0,0,0,.95,2.2923.272.272,0,0,0,.3359.1069l1.4023-.5808a.2648.2648,0,0,1,.3112.0853,6.2074,6.2074,0,0,0,1.0828,1.0819.2642.2642,0,0,1,.0848.3109l-.5811,1.403a.2748.2748,0,0,0,.1087.3391,8.2015,8.2015,0,0,0,2.2868.9473.2752.2752,0,0,0,.3167-.163l.5811-1.403a.2648.2648,0,0,1,.28-.16,6.1957,6.1957,0,0,0,1.5305.0007.2648.2648,0,0,1,.28.16l.5809,1.4025a.2719.2719,0,0,0,.313.1619,7.7264,7.7264,0,0,0,2.2925-.95.2721.2721,0,0,0,.1068-.3358l-.581-1.4025a.2653.2653,0,0,1,.0854-.3113,6.2017,6.2017,0,0,0,1.0817-1.0826.2643.2643,0,0,1,.311-.0847l1.4048.5818a.2728.2728,0,0,0,.3366-.1076,8.0973,8.0973,0,0,0,.5645-1.1072l.0005-.0012a8.1135,8.1135,0,0,0,.3839-1.1821A.2728.2728,0,0,0,36.2455,24.3607ZM29.47,25.12a2.5826,2.5826,0,1,1,1.3978-3.3744A2.5826,2.5826,0,0,1,29.47,25.12Z"/><path class="cls-2" d="M40.6534,28.0952H36.407a.675.675,0,0,0-.5845.3374L33.6993,32.11a.6747.6747,0,0,0,0,.6749l2.1232,3.6776a.675.675,0,0,0,.5845.3374h4.2464a.675.675,0,0,0,.5845-.3374l2.1232-3.6776a.6747.6747,0,0,0,0-.6749l-2.1232-3.6775A.675.675,0,0,0,40.6534,28.0952ZM38.53,34.7929a2.3454,2.3454,0,1,1,2.3453-2.3453A2.3452,2.3452,0,0,1,38.53,34.7929Z"/></svg>