<svg id="Layer_1" data-name="Layer 1" xmlns="http://www.w3.org/2000/svg" viewBox="0 0 64 64"><defs><style>.cls-1,.cls-2{fill:#fff;}.cls-1{opacity:0.6;isolation:isolate;}</style></defs><path class="cls-1" d="M50.97926,8.9999A1.99991,1.99991,0,0,0,48.97935,7H14.97926a2.0738,2.0738,0,0,0-2,2V55a2.0738,2.0738,0,0,0,2,2h34a2.0738,2.0738,0,0,0,2-2V8.9999Z"/><path class="cls-2" d="M18.51223,18.54882a.99942.99942,0,0,0,1,1h.69043l.72558,4.01367.00123.00342,2.26635,12.55224H23.196l.68859,3.81055a3.47064,3.47064,0,0,1,1.99335-.21973L25.229,36.11815h18l2.25878-12.51074L22.756,22.42675l-.88147-4.87793h-2.3623A.99942.99942,0,0,0,18.51223,18.54882Zm4.6084,5.90039,3.36438.17456.37433,3.6272H23.80758Zm11.09179.57519,3.65509.1897L37.5541,28.251H34.21242Zm-2,3.22657H28.87075l-.36353-3.52247,3.7052.19239Zm5.13532,2-.39911,3.86718H34.21242V30.251Zm-5.13532,3.86718h-2.7362L29.07711,30.251h3.13531Zm-4.74755,0H24.8677L24.169,30.251h2.89679Zm15.65185-8.63183L42.61721,28.251h-3.0517l.30274-2.93311Zm-1.55957,8.63183H38.96l.39911-3.86718h2.89679Z"/><path class="cls-2" d="M22.40578,43.55077a2.8936,2.8936,0,0,0,5.61139,1H38.03365a2.89959,2.89959,0,1,0,.00012-2H28.01705a2.89373,2.89373,0,0,0-5.61127,1Zm17.43946,0a.90039.90039,0,1,1,.90039.90039A.90106.90106,0,0,1,39.84524,43.55077Zm-15.43946,0a.89991.89991,0,1,1,.90039.90039A.90107.90107,0,0,1,24.40578,43.55077Z"/></svg>