<svg id="Layer_1" data-name="Layer 1" xmlns="http://www.w3.org/2000/svg" viewBox="0 0 64 64"><defs><style>.cls-1,.cls-2{fill:#fff;}.cls-1{opacity:0.6;isolation:isolate;}</style></defs><path class="cls-1" d="M49,7H15a2.074,2.074,0,0,0-2,2V57h.0011c2.3762-.0015,2.3767-4,4.7538-4s2.3775,3.9985,4.7536,4h.0023c2.3746-.0015,2.3751-4,4.75-4,2.3733,0,2.3739,3.9985,4.7463,4H32.01c2.3722-.0015,2.3727-4,4.7457-4s2.3742,3.9985,4.747,4h.0023c2.3728-.0015,2.3734-4,4.747-4s2.3741,3.9985,4.7469,4H51V9A2,2,0,0,0,49,7ZM44.7218,49.42H19.2781V46.4255H44.7218Zm0-5.8653H19.2781V40.56H44.7218Z"/><path class="cls-2" d="M40.0067,28.14q-.695,7.6448-7.1525,7.6448-6.3126,0-7.2683-8.5135H23.9933v-1.68h1.4479V22.5516H23.9933v-1.68h1.5926q.8978-8.6583,7.2683-8.6583a6.4633,6.4633,0,0,1,4.8649,1.8823,8.98,8.98,0,0,1,2.2876,5.3571H36.9951a7.1168,7.1168,0,0,0-1.332-3.62A3.4609,3.4609,0,0,0,32.8542,14.53q-3.5617,0-4.2277,6.3417h4.72l-.4633,1.68H28.4817v3.04h3.4459l-.4633,1.68H28.6265q.666,6.2258,4.2277,6.2258,3.62,0,4.1409-5.3571Z"/></svg>