<svg id="Layer_1" data-name="Layer 1" xmlns="http://www.w3.org/2000/svg" viewBox="0 0 32 32"><defs><style>.cls-1{fill:#00b050;}.cls-2{fill:#fff;}</style></defs><path class="cls-1" d="M17.46421,23.81442a2.28462,2.28462,0,0,1,.67383-1.62695l1.24511-1.24512a2.301,2.301,0,0,1,3.25293.001l.51367.51367,3.21485-3.21387a2.284,2.284,0,0,1,1.626-.67382,2.32655,2.32655,0,0,1,.50947.06152V10.1279a1.24994,1.24994,0,0,0-1.24994-1.25H16.45768a1.24928,1.24928,0,0,1-.80713-.29541L12.861,6.2236a1.24926,1.24926,0,0,0-.80707-.29541h-7.304A1.24988,1.24988,0,0,0,3.5,7.17819V24.82224a1.24988,1.24988,0,0,0,1.24987,1.25H18.76969L18.138,25.4404A2.284,2.284,0,0,1,17.46421,23.81442Z"/><path class="cls-2" d="M29.44742,21.32663,28.5,22.2739l-3.798,3.79834-.09527.09521-1.24451,1.24463a.30037.30037,0,0,1-.42462,0l-1.24457-1.24463V26.167l-.095-.09472-2.0456-2.04541a.30051.30051,0,0,1,0-.42481L20.797,22.35739a.30044.30044,0,0,1,.42468,0l1.92829,1.92871,4.62829-4.62842a.29959.29959,0,0,1,.42469,0l.29712.29737.94738.94726A.29979.29979,0,0,1,29.44742,21.32663Z"/><path class="cls-1" d="M28.5,19.95505l-.29712-.29737a.29959.29959,0,0,0-.42469,0L23.14994,24.2861l-1.92829-1.92871a.30044.30044,0,0,0-.42468,0L19.55246,23.602a.30051.30051,0,0,0,0,.42481l2.0456,2.04541.095.09472v.00049l1.24457,1.24463a.30037.30037,0,0,0,.42462,0l1.24451-1.24463.09527-.09521L28.5,22.2739l.94738-.94727a.29979.29979,0,0,0,0-.42432Z"/></svg>