<svg id="Layer_1" data-name="Layer 1" xmlns="http://www.w3.org/2000/svg" viewBox="0 0 32 32"><defs><style>.cls-1,.cls-2{fill:#05b497;}.cls-1{opacity:0.4;}.cls-3{fill:#777;}.cls-4{fill:#fff;}</style></defs><path class="cls-1" d="M26,4H9A2,2,0,0,0,7,6v4.56165A2.86168,2.86168,0,0,1,9.881,7.90479h7.23829A2.872,2.872,0,0,1,19.39065,9H24v2H20.02358v.52393h1.167a3.81391,3.81391,0,0,1,3.80958,3.80957V20H26a2,2,0,0,0,2-2V6A2,2,0,0,0,26,4Z"/><path class="cls-2" d="M20.02358,11H24V9H19.39065a2.89373,2.89373,0,0,1,.63293,1.80957Z"/><rect class="cls-3" x="4" y="13.52381" width="19" height="14.47619" rx="1.80952"/><path class="cls-3" d="M7.16667,17.14286H8.97619V24.381H7.16667Zm9.95238-7.2381H9.881a.87953.87953,0,0,0-.90476.90476v2.71429h1.80952V12.16667a.4372.4372,0,0,1,.45239-.45238h4.5238a.4372.4372,0,0,1,.45239.45238v1.35714h1.80952V10.80952A.87953.87953,0,0,0,17.11905,9.90476Zm.90476,7.2381h1.80952V24.381H18.02381Z"/><circle class="cls-4" cx="13.5" cy="20.7619" r="4.07242"/><path class="cls-3" d="M15.61209,19.85714H14.40576V18.65081a.60317.60317,0,0,0-.6032-.60319h-.60313a.60317.60317,0,0,0-.6032.60319v1.20633H11.3899a.60317.60317,0,0,0-.60319.6032v.60313a.60317.60317,0,0,0,.60319.6032h1.20633V22.873a.60317.60317,0,0,0,.6032.60319h.60313a.60317.60317,0,0,0,.6032-.60319V21.66667h1.20633a.60317.60317,0,0,0,.60319-.6032v-.60313A.60317.60317,0,0,0,15.61209,19.85714Z"/></svg>