<svg id="Layer_1" data-name="Layer 1" xmlns="http://www.w3.org/2000/svg" viewBox="0 0 64 64"><defs><style>.cls-1,.cls-2{fill:#fff;}.cls-2{opacity:0.6;isolation:isolate;}</style></defs><path class="cls-1" d="M44.63,26H53.5a2.0058,2.0058,0,0,0,2-2V10a2.0058,2.0058,0,0,0-2-2h-18a2.0058,2.0058,0,0,0-2,2v8.0833A14.0177,14.0177,0,0,1,44.63,26Z"/><path class="cls-2" d="M33.5,45.917V54a2.0058,2.0058,0,0,0,2,2h18a2.0058,2.0058,0,0,0,2-2V31a2.0058,2.0058,0,0,0-2-2H45.6681A13.9674,13.9674,0,0,1,33.5,45.917Z"/><path class="cls-2" d="M30.5,18.0833V10a2.0058,2.0058,0,0,0-2-2h-18a2.0058,2.0058,0,0,0-2,2V36a2.0058,2.0058,0,0,0,2,2h8.87A13.9621,13.9621,0,0,1,30.5,18.0833Z"/><path class="cls-1" d="M21.2914,41H10.5a2.0058,2.0058,0,0,0-2,2V54a2.0058,2.0058,0,0,0,2,2h18a2.0058,2.0058,0,0,0,2-2V45.917A13.9828,13.9828,0,0,1,21.2914,41Z"/><path class="cls-1" d="M37.28,30.27a4.338,4.338,0,0,0,1.3365-3.2324c0-2.6361-1.9047-4.3942-4.7753-4.3942h-7.05v18.74h5.6854c4.3215,0,7.5615-2.6931,7.5615-6.2654A5.71,5.71,0,0,0,37.28,30.27ZM29.3493,32V25.0813h4.2072a2.099,2.099,0,0,1,2.36,2.07c0,1.4172-1.2222,2.4947-3.7236,3.3167-1.7058.5382-2.4729.992-2.7576,1.5313L29.3493,32v0Zm2.8993,6.9464H29.3493V36.0545a3.4564,3.4564,0,0,1,2.5872-3.0056A25.1517,25.1517,0,0,0,35.3194,31.66a3.9473,3.9473,0,0,1,2.0178,3.3453C37.3372,37.2733,35.1764,38.946,32.2486,38.946Z"/></svg>