<svg id="Layer_1" data-name="Layer 1" xmlns="http://www.w3.org/2000/svg" viewBox="0 0 32 32"><defs><style>.cls-1{fill:#ffe39d;}.cls-2{fill:#ed9c26;}.cls-3{fill:#fff;}</style></defs><path class="cls-1" d="M16,6.00221H8.5a2,2,0,0,0-2,2v18a2,2,0,0,0,2,2h15a2,2,0,0,0,2-2v-18a2,2,0,0,0-2-2Z"/><path class="cls-2" d="M21.5,6.00221H19.1a3.4,3.4,0,0,0-6.2,0H10.5v4.5a.47.47,0,0,0,.5.5H21a.47.47,0,0,0,.5-.5Z"/><circle class="cls-2" cx="16" cy="7.50221" r="1.5"/><circle class="cls-3" cx="16" cy="7.50221" r="1.5"/><path class="cls-2" d="M20.75272,14.00325h-.899l-.33548,1.85653-8.65155.44932.85964,4.76146H18.577l-.247,1.36673a1.31739,1.31739,0,0,1,.75866.08346l.262-1.45019h.00011l.86252-4.77737.00047-.00124L20.49,14.7645h.26277a.38063.38063,0,1,0,0-.76125ZM19.118,18.07639H17.9565l.14249-1.38058,1.28044-.06631Zm-1.927,0H15.91915V16.809l1.41017-.07313Zm-2.033-1.22791v1.22791H13.88614l-.1193-1.15582Zm0,3.46083H14.11658l-.15189-1.47167H15.158ZM13.00538,16.96l.11522,1.11636H11.95915l-.1901-1.05211Zm-.64277,3.34928-.26593-1.47167h1.10247l.15189,1.47167Zm3.55654-1.47167h1.19326l-.15189,1.47167H15.91915Zm1.80691,1.47167.15189-1.47167h1.10247l-.26592,1.47167Z"/><path class="cls-2" d="M18.54763,22.79591a1.09749,1.09749,0,0,0-1.02645.72283H13.6983a1.10381,1.10381,0,1,0,.00006.76125h3.82277a1.09984,1.09984,0,1,0,1.0265-1.48408ZM12.67149,24.242a.34241.34241,0,1,1,.34267-.34271A.34331.34331,0,0,1,12.67149,24.242Zm5.87614,0a.34241.34241,0,1,1,.34267-.34271A.343.343,0,0,1,18.54763,24.242Z"/></svg>
