<svg id="Layer_1" data-name="Layer 1" xmlns="http://www.w3.org/2000/svg" viewBox="0 0 32 32"><defs><style>.cls-1{fill:none;}.cls-2{fill:#d8c4b3;}.cls-3{fill:#a08165;}.cls-4{fill:#fff;}.cls-5{fill:#9f8165;}</style></defs><path class="cls-1" d="M22,14.54l-.75-7a.23.23,0,0,0-.22-.2h-.73a8.3,8.3,0,0,0-8,6.22l-.69,2.64L15.17,18l6.32-2.74Z"/><path class="cls-1" d="M9.9,21.36a1.77,1.77,0,1,0,1.77,1.77A1.77,1.77,0,0,0,9.9,21.36Z"/><path class="cls-2" d="M9.9,19.22a3.91,3.91,0,1,0,3.91,3.91A3.91,3.91,0,0,0,9.9,19.22Zm0,5.68a1.77,1.77,0,1,1,1.77-1.77A1.77,1.77,0,0,1,9.9,24.9Z"/><path class="cls-3" d="M18.52,18.81a5.32,5.32,0,0,1,7.73.41A9.7,9.7,0,0,1,28.5,21V15.84a1,1,0,0,0-1-1H23.12l-.8-7.38A1.29,1.29,0,0,0,21,6.3h-.73a9.37,9.37,0,0,0-9.07,7l-.4,1.57-.11.4L10,18.15a5,5,0,0,1,3.33,1.37h0a1.88,1.88,0,0,1,.24.25l.06.07a1.59,1.59,0,0,1,.2.24l.08.1a2.07,2.07,0,0,1,.17.24l.08.12c.07.13.15.26.21.4l.11.21.07.19.09.23a1.46,1.46,0,0,1,0,.2l.06.2A9.32,9.32,0,0,1,18.52,18.81Zm-6.93-2.58.69-2.64a8.3,8.3,0,0,1,8-6.22H21a.23.23,0,0,1,.22.2l.75,7-.52.76L15.17,18Z"/><path class="cls-2" d="M8.1,18.34l.22.07.86-3.12,2.67-9.81a.32.32,0,0,0-.22-.4L11.22,5a.33.33,0,0,0-.4.22l-3,10.87-.23.82-3.09-.61-1-.2L4,17l.41.13,2.93,1Z"/><path class="cls-4" d="M22,28c-3.3,0-6-3-6-4s2.7-4,6-4,6,3,6,4S25.3,28,22,28Z"/><path class="cls-5" d="M22,22.3h-.5a1,1,0,0,1,.5.8.9.9,0,0,1-.9.9,1,1,0,0,1-.8-.5V24A1.71,1.71,0,0,0,22,25.8,1.79,1.79,0,0,0,23.8,24,1.71,1.71,0,0,0,22,22.3Z"/><path class="cls-5" d="M22,20c-3.3,0-6,3-6,4s2.7,4,6,4,6-3,6-4S25.3,20,22,20Zm0,7a3,3,0,1,1,3-3A2.95,2.95,0,0,1,22,27Z"/></svg>