<svg id="Layer_1" data-name="Layer 1" xmlns="http://www.w3.org/2000/svg" viewBox="0 0 32 32"><defs><style>.cls-1,.cls-2,.cls-5{fill:#ca0821;}.cls-1{opacity:0.4;}.cls-1,.cls-5{isolation:isolate;}.cls-3{fill:#e03c24;}.cls-4{fill:#fff;}.cls-5{opacity:0.2;}</style></defs><path class="cls-1" d="M19.29,9.5l3.21,3.21-4,3.28L16,13.53Z"/><polygon class="cls-2" points="22.5 12.71 19.29 9.5 16.01 13.53 18.47 15.99 22.5 12.71"/><path class="cls-2" d="M17.76,16.27l-.36-.36-.65-.66-.54-.53-.48-.48a5.29,5.29,0,0,1-4.31,1.3c0,.78-1.92,6.52-1.92,6.52l3.26-3.25a.75.75,0,0,1,.17-.8A.75.75,0,1,1,14,19.07a.75.75,0,0,1-.8.17L9.94,22.5s4.12-1.36,5.85-1.79q.3-.3.63-.57A5.11,5.11,0,0,1,17.76,16.27Z"/><path class="cls-3" d="M24.87,24.89a2.89,2.89,0,0,1-2.25,2.05A3,3,0,0,0,24.87,24.89Z"/><path class="cls-3" d="M24.87,23.11a3,3,0,0,0-2.25-2.05A2.89,2.89,0,0,1,24.87,23.11Z"/><path class="cls-3" d="M21.38,21.06a3,3,0,0,0-2.32,2.32A2.9,2.9,0,0,1,21.38,21.06Z"/><path class="cls-3" d="M21.38,26.94a2.9,2.9,0,0,1-2.32-2.32A3,3,0,0,0,21.38,26.94Z"/><path class="cls-4" d="M24.87,23.11a2.46,2.46,0,0,0-.14-.38A3.11,3.11,0,0,0,23,21.17a2.62,2.62,0,0,0-.4-.11h0A3.08,3.08,0,0,0,22,21a2.91,2.91,0,0,0-.6.06h0a3,3,0,0,0-.43.12A3.09,3.09,0,0,0,19.18,23a3,3,0,0,0-.12.43,3.23,3.23,0,0,0,0,1.24,3,3,0,0,0,.12.43A3.09,3.09,0,0,0,21,26.82a3,3,0,0,0,.43.12h0A2.91,2.91,0,0,0,22,27a3.08,3.08,0,0,0,.61-.06h0a2.62,2.62,0,0,0,.4-.11,3.11,3.11,0,0,0,1.71-1.56,2.46,2.46,0,0,0,.14-.38,3.11,3.11,0,0,0,0-1.78ZM22,25.8A1.71,1.71,0,0,1,20.3,24v-.5a1,1,0,0,0,.8.5.9.9,0,0,0,.9-.9,1,1,0,0,0-.5-.8H22A1.71,1.71,0,0,1,23.8,24,1.79,1.79,0,0,1,22,25.8Z"/><path class="cls-2" d="M25.5,21.1A6.54,6.54,0,0,0,22,20c-3.3,0-6,3-6,4s2.7,4,6,4a6.54,6.54,0,0,0,3.5-1.1C27,25.94,28,24.61,28,24S27,22.06,25.5,21.1Zm-.63,3.79a2.46,2.46,0,0,1-.14.38A2.84,2.84,0,0,1,23,26.83a2.62,2.62,0,0,1-.4.11h0A3.08,3.08,0,0,1,22,27a2.91,2.91,0,0,1-.6-.06h0a3,3,0,0,1-.43-.12,2.83,2.83,0,0,1-1.77-1.77,3,3,0,0,1-.12-.43,3.23,3.23,0,0,1,0-1.24,3,3,0,0,1,.12-.43A2.83,2.83,0,0,1,21,21.18a3,3,0,0,1,.43-.12h0A2.91,2.91,0,0,1,22,21a3.08,3.08,0,0,1,.61.06h0a2.62,2.62,0,0,1,.4.11,2.84,2.84,0,0,1,1.71,1.56,2.46,2.46,0,0,1,.14.38,3.11,3.11,0,0,1,0,1.78Z"/><path class="cls-2" d="M23.8,24A1.79,1.79,0,0,1,22,25.8,1.71,1.71,0,0,1,20.3,24v-.5a1,1,0,0,0,.8.5.9.9,0,0,0,.9-.9,1,1,0,0,0-.5-.8H22A1.71,1.71,0,0,1,23.8,24Z"/><path class="cls-5" d="M14,24a5.24,5.24,0,0,1,1.79-3.29c-1.73.43-5.85,1.79-5.85,1.79l3.25-3.26a.75.75,0,0,0,.8-.17A.75.75,0,1,0,12.93,18a.75.75,0,0,0-.17.8L9.5,22.06s1.89-5.74,1.92-6.52a5.29,5.29,0,0,0,4.31-1.3l.48.48.54.53.65.66.36.36a5.11,5.11,0,0,0-1.34,3.87A9,9,0,0,1,22,18a8.15,8.15,0,0,1,3.5.83V4.5a1,1,0,0,0-1-1H7.5a1,1,0,0,0-1,1v23a1,1,0,0,0,1,1h9.8C15.33,27.21,14,25.34,14,24Z"/></svg>