<?xml version="1.0" encoding="utf-8"?>
<!-- Generator: Adobe Illustrator 24.2.0, SVG Export Plug-In . SVG Version: 6.00 Build 0)  -->
<svg version="1.1" id="Layer_1" xmlns="http://www.w3.org/2000/svg" xmlns:xlink="http://www.w3.org/1999/xlink" x="0px" y="0px"
	 viewBox="0 0 32 32" style="enable-background:new 0 0 32 32;" xml:space="preserve">
<style type="text/css">
	.st0{fill:#AA8A30;}
	.st1{fill:#1565C0;}
	.st2{fill:#D32F2F;}
	.st3{fill:#66BB6A;}
	.st4{fill:#0A4466;}
	.st5{fill:#8E24AA;}
	.st6{fill:#161616;}
	.st7{fill:#3E87CF;}
	.st8{fill:#E03C24;}
	.st9{fill:#9BC6F2;}
	.st10{fill:#777777;}
	.st11{fill:#2576C7;}
	.st12{fill:#FFFFFF;}
	.st13{opacity:0.6;fill:#2576C7;enable-background:new    ;}
	.st14{opacity:0.6;fill:#FFFFFF;enable-background:new    ;}
	.st15{opacity:0.6;fill:#FFFFFF;}
	.st16{fill:#FFE39D;}
	.st17{fill:#ED9C26;}
	.st18{opacity:0.4;fill:#0A4466;}
	.st19{opacity:0.4;fill:#00796B;}
	.st20{fill:#00796B;}
	.st21{fill:none;}
	.st22{fill:#690000;}
	.st23{fill:#A08165;}
	.st24{fill:#D8C4B3;}
	.st25{fill:#FFD4FF;}
	.st26{opacity:0.6;fill:none;stroke:#FFFFFF;stroke-width:4;stroke-linecap:round;stroke-miterlimit:10;}
	.st27{fill:#571B6D;}
	.st28{opacity:0.4;fill:#571B6D;}
	.st29{opacity:0.6;fill:#571B6D;}
	.st30{fill:#CA0821;}
	.st31{opacity:0.2;fill:#CA0821;enable-background:new    ;}
	.st32{fill:#CA0821;enable-background:new    ;}
	.st33{opacity:0.4;}
	.st34{opacity:0.6;fill:#CA0821;enable-background:new    ;}
	.st35{opacity:0.6;enable-background:new    ;}
	.st36{opacity:0.6;}
	.st37{opacity:0.6;fill:#3E87CF;}
	.st38{opacity:0.8;fill:#571B6D;}
	.st39{opacity:0.6;fill:#F1FF2E;}
	.st40{opacity:0.8;fill:none;stroke:#FFFFFF;stroke-miterlimit:10;}
	.st41{fill:#283593;}
	.st42{opacity:0.4;fill:#777777;}
	.st43{opacity:0.4;fill:#283593;}
	.st44{opacity:0.4;fill:#1565C0;}
	.st45{opacity:0.6;fill:#1565C0;}
	.st46{opacity:0.4;fill:#D32F2F;}
	.st47{opacity:0.4;fill:#66BB6A;}
	.st48{opacity:0.4;fill:#AA8A30;}
	.st49{opacity:0.4;fill:#777777;enable-background:new    ;}
	.st50{fill:#9F8165;}
	.st51{opacity:0.4;fill:#9F8165;}
</style>
<g>
	<path class="st48" d="M16,8.7c-4,0-7.3,3.3-7.3,7.3c0,3.4,2.3,6.3,5.5,7.1c0.4-1.2,1.5-2.5,3.1-3.6c0,0,0,0,0,0
		c-0.2-0.2-0.3-0.4-0.4-0.7s-0.2-0.5-0.2-0.8c0-0.3,0.1-0.6,0.2-0.8s0.3-0.5,0.4-0.7c0.2-0.2,0.4-0.3,0.7-0.4
		c0.3-0.1,0.5-0.2,0.8-0.2c0.3,0,0.6,0.1,0.8,0.2c0.3,0.1,0.5,0.3,0.7,0.4c0.2,0.2,0.3,0.4,0.4,0.7c0.1,0.3,0.2,0.5,0.2,0.8
		c0,0,0,0.1,0,0.1C21.2,18,21.6,18,22,18c0.3,0,0.7,0,1,0.1c0.2-0.7,0.3-1.4,0.3-2.1C23.3,12,20,8.7,16,8.7z M11.9,15.5
		c-0.2-0.2-0.3-0.4-0.4-0.7c-0.1-0.3-0.2-0.5-0.2-0.8c0-0.3,0.1-0.6,0.2-0.8s0.3-0.5,0.4-0.7c0.2-0.2,0.4-0.3,0.7-0.4
		c0.3-0.1,0.5-0.2,0.8-0.2s0.6,0.1,0.8,0.2c0.3,0.1,0.5,0.3,0.7,0.4c0.2,0.2,0.3,0.4,0.4,0.7c0.1,0.3,0.2,0.5,0.2,0.8
		c0,0.3-0.1,0.6-0.2,0.8c-0.1,0.3-0.3,0.5-0.4,0.7c-0.2,0.2-0.4,0.3-0.7,0.4c-0.3,0.1-0.5,0.2-0.8,0.2s-0.6-0.1-0.8-0.2
		C12.3,15.8,12,15.6,11.9,15.5z M14.1,20.3l-0.9-0.4l4.7-8.2l0.9,0.4L14.1,20.3z"/>
	<path class="st48" d="M14.1,14.7c0.2-0.2,0.3-0.4,0.3-0.7c0-0.3-0.1-0.5-0.3-0.7S13.6,13,13.3,13c-0.3,0-0.5,0.1-0.7,0.3
		c-0.2,0.2-0.3,0.4-0.3,0.7c0,0.3,0.1,0.5,0.3,0.7c0.2,0.2,0.4,0.3,0.7,0.3C13.6,15,13.9,14.9,14.1,14.7z"/>
	<path class="st48" d="M19.4,17.3C19.2,17.1,19,17,18.7,17c-0.3,0-0.5,0.1-0.7,0.3c-0.2,0.2-0.3,0.4-0.3,0.7s0.1,0.5,0.3,0.7
		c0.1,0.1,0.2,0.2,0.3,0.2c0.4-0.2,0.9-0.4,1.4-0.6c0-0.1,0.1-0.2,0.1-0.4C19.7,17.7,19.6,17.5,19.4,17.3z"/>
	<path class="st0" d="M14.1,15.9c0.3-0.1,0.5-0.3,0.7-0.4c0.2-0.2,0.3-0.4,0.4-0.7c0.1-0.3,0.2-0.5,0.2-0.8c0-0.3-0.1-0.6-0.2-0.8
		c-0.1-0.3-0.3-0.5-0.4-0.7c-0.2-0.2-0.4-0.3-0.7-0.4c-0.3-0.1-0.5-0.2-0.8-0.2s-0.6,0.1-0.8,0.2c-0.3,0.1-0.5,0.3-0.7,0.4
		c-0.2,0.2-0.3,0.4-0.4,0.7s-0.2,0.5-0.2,0.8c0,0.3,0.1,0.6,0.2,0.8c0.1,0.3,0.3,0.5,0.4,0.7c0.2,0.2,0.4,0.3,0.7,0.4
		c0.3,0.1,0.5,0.2,0.8,0.2S13.9,16,14.1,15.9z M12.3,14c0-0.3,0.1-0.5,0.3-0.7c0.2-0.2,0.4-0.3,0.7-0.3c0.3,0,0.5,0.1,0.7,0.3
		s0.3,0.4,0.3,0.7c0,0.3-0.1,0.5-0.3,0.7c-0.2,0.2-0.4,0.3-0.7,0.3c-0.3,0-0.5-0.1-0.7-0.3C12.4,14.5,12.3,14.3,12.3,14z"/>
	<polygon class="st0" points="13.2,19.9 14.1,20.3 18.8,12.1 17.9,11.7 	"/>
	<path class="st0" d="M20.6,17.2c-0.1-0.3-0.3-0.5-0.4-0.7c-0.2-0.2-0.4-0.3-0.7-0.4c-0.3-0.1-0.5-0.2-0.8-0.2
		c-0.3,0-0.6,0.1-0.8,0.2c-0.3,0.1-0.5,0.3-0.7,0.4c-0.2,0.2-0.3,0.4-0.4,0.7s-0.2,0.5-0.2,0.8c0,0.3,0.1,0.6,0.2,0.8
		s0.3,0.5,0.4,0.7c0,0,0,0,0,0c0.3-0.2,0.7-0.4,1-0.6c-0.1,0-0.2-0.1-0.3-0.2c-0.2-0.2-0.3-0.4-0.3-0.7s0.1-0.5,0.3-0.7
		c0.2-0.2,0.4-0.3,0.7-0.3c0.3,0,0.5,0.1,0.7,0.3c0.2,0.2,0.3,0.4,0.3,0.7c0,0.1,0,0.3-0.1,0.4c0.4-0.1,0.7-0.2,1.1-0.3
		c0,0,0-0.1,0-0.1C20.8,17.7,20.7,17.5,20.6,17.2z"/>
	<path class="st0" d="M14.3,25.2C10,24.4,6.7,20.6,6.7,16c0-5.1,4.2-9.3,9.3-9.3s9.3,4.2,9.3,9.3c0,0.9-0.1,1.8-0.4,2.6
		c0.7,0.3,1.4,0.7,2,1.1c0.4-0.5,1.4-0.9,1.5-1.5c0.1-0.7-1-1.5-1-2.2c0-0.7,1.1-1.5,1-2.2c-0.1-0.7-1.4-1.1-1.7-1.7
		c-0.2-0.7,0.5-1.8,0.1-2.4c-0.4-0.6-1.7-0.5-2.2-1.1c-0.5-0.5-0.1-1.8-0.7-2.3c-0.2-0.2-0.4-0.2-0.7-0.2c-0.3,0-0.7,0-1,0
		c-0.2,0-0.5,0-0.6-0.1c-0.6-0.3-0.8-1.7-1.4-1.9c-0.1,0-0.2,0-0.2,0c-0.6,0-1.4,0.6-2,0.6c0,0-0.1,0-0.1,0c-0.7-0.1-1.3-1.3-2-1.3
		c-0.7,0-1.3,1.2-2,1.3c0,0-0.1,0-0.1,0c-0.6,0-1.4-0.6-2-0.6c-0.1,0-0.2,0-0.2,0c-0.7,0.2-0.8,1.6-1.4,1.9
		c-0.2,0.1-0.4,0.1-0.6,0.1c-0.3,0-0.7,0-1,0c-0.3,0-0.6,0-0.7,0.2C7.3,6.9,7.6,8.2,7.2,8.7C6.7,9.2,5.4,9.1,5,9.8
		c-0.4,0.6,0.4,1.7,0.1,2.4c-0.2,0.6-1.5,1-1.7,1.7c-0.1,0.7,1,1.5,1,2.2c0,0.7-1.1,1.5-1,2.2c0.1,0.7,1.4,1.1,1.7,1.7
		c0.2,0.7-0.5,1.8-0.1,2.4c0.4,0.6,1.7,0.5,2.2,1.1c0.5,0.5,0.1,1.8,0.7,2.3c0.2,0.2,0.4,0.2,0.7,0.2c0.3,0,0.7,0,1,0
		c0.2,0,0.5,0,0.6,0.1c0,0,0,0,0.1,0l1.5-1.5l1.3,1.3l1.3,1.3l-0.3,0.3c0.6,0.2,1.2,1.3,1.9,1.3c0.3,0,0.5-0.2,0.8-0.4
		C15.6,27.2,14.7,26.2,14.3,25.2z"/>
	<path class="st48" d="M13.9,27.2c-0.6,0-1.4,0.6-2,0.6c-0.1,0-0.2,0-0.2,0c-0.6-0.2-0.8-1.5-1.4-1.9l-0.4,0.4l-1.9,1.9l2.5,0.1
		l0.1,2.5l1.9-1.9l1.7-1.7c0,0-0.1,0-0.1,0C14,27.2,13.9,27.2,13.9,27.2z"/>
	<path class="st0" d="M13.1,25.7l-1.3-1.3l-1.5,1.5c0.6,0.4,0.7,1.6,1.4,1.9c0.1,0,0.2,0,0.2,0c0.6,0,1.4-0.6,2-0.6c0,0,0.1,0,0.1,0
		c0,0,0.1,0,0.1,0l0.3-0.3L13.1,25.7z"/>
	<path class="st48" d="M13.1,25.7l-1.3-1.3l-1.5,1.5c0.6,0.4,0.7,1.6,1.4,1.9c0.1,0,0.2,0,0.2,0c0.6,0,1.4-0.6,2-0.6
		c0,0,0.1,0,0.1,0c0,0,0.1,0,0.1,0l0.3-0.3L13.1,25.7z"/>
	<path class="st48" d="M21.5,30.8l0-0.9c-0.4,0-0.7-0.1-1.1-0.1L21.5,30.8z"/>
	<path class="st0" d="M21.9,25.8C21.9,25.8,22,25.8,21.9,25.8c0.3,0,0.4,0,0.6-0.1c0.7-0.2,1.3-0.9,1.3-1.7c0-0.7-0.4-1.3-1.1-1.6
		c-0.2-0.1-0.5-0.1-0.7-0.1h-0.5c0.3,0.2,0.5,0.5,0.5,0.8c0,0,0,0,0,0c0,0.5-0.4,0.9-0.9,0.9c-0.1,0-0.2,0-0.2,0
		c-0.2-0.1-0.4-0.2-0.6-0.5V24c0,0.1,0,0.2,0,0.3c0,0.1,0,0.2,0.1,0.3c0.2,0.6,0.6,1,1.2,1.2C21.7,25.8,21.8,25.8,21.9,25.8z"/>
	<path class="st0" d="M24.2,20.4c-0.6-0.3-1.3-0.4-2.1-0.4c0,0-0.1,0-0.1,0c-2.7,0-5,2-5.8,3.3C16.1,23.6,16,23.8,16,24
		c0,0.3,0.2,0.8,0.7,1.3c0.3,0.4,0.8,0.8,1.3,1.3c0.7,0.5,1.5,0.9,2.3,1.2c0.5,0.2,1.1,0.3,1.7,0.3c0.5,0,1.1-0.1,1.6-0.2
		c2.5-0.7,4.4-2.9,4.4-3.8c0-0.4-0.4-1-1-1.7C26.3,21.6,25.3,20.9,24.2,20.4z M22.7,26.9C22.7,26.9,22.7,26.9,22.7,26.9
		C22.4,27,22.2,27,22,27c-0.3,0-0.6-0.1-0.9-0.2c-0.8-0.3-1.5-0.8-1.8-1.6c-0.1-0.2-0.1-0.3-0.2-0.5C19,24.5,19,24.3,19,24
		c0-0.6,0.2-1.1,0.4-1.5c0.4-0.7,1-1.2,1.9-1.4C21.5,21,21.7,21,22,21c0.6,0,1.1,0.2,1.6,0.4c0.7,0.4,1.1,1,1.3,1.8
		C25,23.5,25,23.7,25,24C25,25.4,24.1,26.6,22.7,26.9z"/>
</g>
</svg>
