<svg id="Layer_1" data-name="Layer 1" xmlns="http://www.w3.org/2000/svg" viewBox="0 0 32 32"><defs><style>.cls-1{fill:#d32f2f;}.cls-2{opacity:0.4;}</style></defs><path class="cls-1" d="M16.00057,12.37877a4.43272,4.43272,0,1,0-4.43272-4.43271A4.441,4.441,0,0,0,16.00057,12.37877ZM9.056,21.2442H22.94515c.857,0,.81267-.591.81267-1.32982V18.58457a4.96513,4.96513,0,0,0-4.65435-4.72823c-.74618,0-1.29288.591-3.1029.591-1.86174,0-2.3124-.591-3.1029-.591a4.96513,4.96513,0,0,0-4.65435,4.72823v1.32981C8.24332,20.65317,8.16944,21.2442,9.056,21.2442Z"/><g class="cls-2"><polygon class="cls-1" points="13.358 22.543 18.642 22.543 18.11 19.946 16.247 19.946 15.748 19.946 13.89 19.946 13.358 22.543"/><path class="cls-1" d="M19.66153,22.54287h5.7931L24.8167,21.5048h0l-.73222-1.19151a.772.772,0,0,0-.65768-.36777H19.12948Z"/><path class="cls-1" d="M12.3383,22.54287l.53206-2.59735H8.57325a.772.772,0,0,0-.65768.36777L6.71333,22.26961l-.16794.27326Z"/><path class="cls-1" d="M28.38451,27.31055l-.76935-1.252-1.30281-2.12h0l-.24385-.39682H19.86615l1.01292,4.94485h6.84776A.77194.77194,0,0,0,28.38451,27.31055Z"/><polygon class="cls-1" points="18.847 23.542 13.153 23.542 12.14 28.487 15.251 28.487 15.688 28.487 16.188 28.487 19.085 28.487 19.86 28.487 18.847 23.542"/><path class="cls-1" d="M12.13369,23.54181H5.93151l-.30741.50026-.22958.37359L4.48887,25.8894h0l-.87333,1.42115a.77192.77192,0,0,0,.65765,1.17611h6.8476Z"/></g></svg>