<svg id="Layer_1" data-name="Layer 1" xmlns="http://www.w3.org/2000/svg" viewBox="0 0 32 32"><defs><style>.cls-1{fill:none;}.cls-2,.cls-3{fill:#00b050;}.cls-2{opacity:0.2;isolation:isolate;}.cls-4{fill:#fff;}</style></defs><path class="cls-1" d="M9.639,21.7772h5.2317A8.5647,8.5647,0,0,1,16.248,20.28H9.639Z"/><path class="cls-1" d="M9.639,24.71h4.473a2.6686,2.6686,0,0,1-.1172-.7148,2.7182,2.7182,0,0,1,.1353-.7823H9.639Z"/><path class="cls-2" d="M14.112,24.71H9.639V23.2127H14.13a5.15,5.15,0,0,1,.7406-1.4355H9.639V20.28h6.609a9.0115,9.0115,0,0,1,5.7468-2.2851,8.2578,8.2578,0,0,1,3.5052.8276V4.5a1,1,0,0,0-1-1H7.5a1.037,1.037,0,0,0-1,1v24h.0006c1.1881,0,1.1883-2,2.3768-2s1.1888,2,2.3769,2h.0011c1.1873,0,1.1875-2,2.3753-2s1.1869,2,2.3731,2h.0011a.9813.9813,0,0,0,.7558-.3774A7.2012,7.2012,0,0,1,14.112,24.71Z"/><path class="cls-3" d="M20.0034,14.07q-.3475,3.8223-3.5763,3.8224-3.1563,0-3.6341-4.2568h-.7964v-.84h.724v-1.52h-.724v-.84h.7964q.4488-4.3291,3.6341-4.3291a3.2318,3.2318,0,0,1,2.4324.9411,4.49,4.49,0,0,1,1.1439,2.6786H18.4976a3.56,3.56,0,0,0-.666-1.81,1.7306,1.7306,0,0,0-1.4045-.6515q-1.7808,0-2.1139,3.1708h2.36l-.2317.84H14.2408v1.52h1.723l-.2317.84H14.3132q.333,3.113,2.1139,3.1129,1.81,0,2.07-2.6785Z"/><path class="cls-3" d="M23.7951,23.9952a1.7926,1.7926,0,0,1-1.8,1.8,1.71,1.71,0,0,1-1.7-1.8v-.5a1.02,1.02,0,0,0,.8.5.8962.8962,0,0,0,.9-.9,1.02,1.02,0,0,0-.5-.8h.5A1.71,1.71,0,0,1,23.7951,23.9952Z"/><path class="cls-3" d="M21.9951,19.9952c-3.3,0-6,3-6,4s2.7,4,6,4,6-3,6-4S25.2951,19.9952,21.9951,19.9952Zm0,7a3,3,0,1,1,3-3A2.9463,2.9463,0,0,1,21.9951,26.9952Z"/><path class="cls-4" d="M21.9951,20.9952a3,3,0,1,0,3,3A2.9465,2.9465,0,0,0,21.9951,20.9952Zm0,4.8a1.71,1.71,0,0,1-1.7-1.8v-.5a1.02,1.02,0,0,0,.8.5.8962.8962,0,0,0,.9-.9,1.02,1.02,0,0,0-.5-.8h.5a1.71,1.71,0,0,1,1.8,1.7A1.7926,1.7926,0,0,1,21.9951,25.7953Z"/></svg>