<svg id="Layer_1" data-name="Layer 1" xmlns="http://www.w3.org/2000/svg" viewBox="0 0 32 32"><defs><style>.cls-1{fill:#0b996e;}</style></defs><path class="cls-1" d="M18.9666,15.6963a22.5012,22.5012,0,0,1-3.0233,1.2412,3.0892,3.0892,0,0,0-2.3124,2.686V22.208h2.5912c2.6168,0,4.5479-1.4951,4.5479-3.522A3.5273,3.5273,0,0,0,18.9666,15.6963Z"/><path class="cls-1" d="M16.1721,14.63C18.4077,13.8955,19.5,12.9326,19.5,11.666a1.876,1.876,0,0,0-2.1089-1.85h-3.76V16l.0767,0C13.9621,15.5171,14.6476,15.1113,16.1721,14.63Z"/><path class="cls-1" d="M16,3.5A12.5,12.5,0,1,0,28.5,16,12.5,12.5,0,0,0,16,3.5Zm.4255,20.8862H11.3443V7.6377h6.3012c2.5656,0,4.2679,1.5718,4.2679,3.9273a3.8768,3.8768,0,0,1-1.1945,2.8891,5.1036,5.1036,0,0,1,2.4645,4.333C23.1834,21.98,20.2878,24.3862,16.4255,24.3862Z"/></svg>