<svg id="Layer_1" data-name="Layer 1" xmlns="http://www.w3.org/2000/svg" viewBox="0 0 32 32"><defs><style>.cls-1,.cls-3{fill:#5457c8;}.cls-1{opacity:0.2;isolation:isolate;}.cls-2{fill:#fff;}</style></defs><path class="cls-1" d="M14.417,25.476H8.93425V23.80978h5.07862a4.4259,4.4259,0,0,1,.942-2.1543H8.93425v-1.666H16.602a8.90212,8.90212,0,0,1,5.39282-1.99462A8.25452,8.25452,0,0,1,25.5,18.82272V4.5a1,1,0,0,0-.99994-1H7.5a1.03686,1.03686,0,0,0-1,1v23a1.03686,1.03686,0,0,0,1,1h9.7987A8.51045,8.51045,0,0,1,14.417,25.476Z"/><path class="cls-2" d="M8.93425,21.65548h6.02057a8.9311,8.9311,0,0,1,1.64716-1.666H8.93425Z"/><path class="cls-2" d="M8.93425,25.476H14.417a3.34444,3.34444,0,0,1-.42224-1.4812c0-.05933.01294-.12354.01807-.18506H8.93425Z"/><path class="cls-3" d="M23.79507,23.99522a1.79254,1.79254,0,0,1-1.8,1.8,1.71041,1.71041,0,0,1-1.7-1.8v-.5a1.01965,1.01965,0,0,0,.80005.5.89615.89615,0,0,0,.9-.8999,1.01973,1.01973,0,0,0-.5-.80005h.5A1.7103,1.7103,0,0,1,23.79507,23.99522Z"/><path class="cls-3" d="M21.99509,19.99522c-3.3,0-6,3-6,4s2.7,4,6,4,6-3,6-4S25.29507,19.99522,21.99509,19.99522Zm0,7a3,3,0,1,1,3-3A2.94632,2.94632,0,0,1,21.99509,26.99522Z"/><path class="cls-3" d="M20.27367,13.5671l.85968-4.76147L12.4818,8.35616l-.33551-1.85644h-.89905a.38062.38062,0,0,0,0,.76123H11.51l.27612,1.52759.00043.00073.86261,4.77783h.00012l.262,1.4502a1.4724,1.4724,0,0,1,.54108-.10547,1.454,1.454,0,0,1,.21759.022l-.247-1.3667ZM16.842,11.334h1.19324l-.15186,1.47192H16.842Zm-2.79852-.761H12.882l-.26142-1.447,1.28046.06641Zm.2304,2.23291h-.98846L13.01952,11.334h1.10254ZM16.0808,10.573H14.809l-.13837-1.34082,1.41016.07324Zm0,2.23291H15.03942L14.88756,11.334H16.0808ZM18.23314,9.417l-.11932,1.156H16.842v-1.228Zm.56763,1.917h1.10248l-.26593,1.47192h-.98841Zm1.43011-1.81324L20.04076,10.573H18.87932l.11524-1.11645Z"/><path class="cls-3" d="M12.3485,16.39571a1.09817,1.09817,0,0,0,2.13031.38086h3.82281a1.10379,1.10379,0,1,0,0-.76123H14.47881a1.09817,1.09817,0,0,0-2.13031.38037Zm6.63733,0a.34268.34268,0,1,1,.34265.34278A.343.343,0,0,1,18.98583,16.39571Zm-5.87616,0a.3425.3425,0,1,1,.34271.34278A.343.343,0,0,1,13.10967,16.39571Z"/></svg>