<svg id="Layer_1" data-name="Layer 1" xmlns="http://www.w3.org/2000/svg" viewBox="0 0 32 32"><defs><style>.cls-1{fill:red;}.cls-2{fill:#00b050;}</style></defs><path class="cls-1" d="M17.46421,23.81483a2.28462,2.28462,0,0,1,.67383-1.627l1.24511-1.24512a2.29986,2.29986,0,0,1,3.25293,0l.51465.51367,3.21387-3.21289a2.284,2.284,0,0,1,1.626-.67382,2.32655,2.32655,0,0,1,.50947.06152V10.12782a1.24994,1.24994,0,0,0-1.24994-1.25H16.45768a1.24928,1.24928,0,0,1-.80713-.29541L12.861,6.22352a1.24932,1.24932,0,0,0-.80707-.29541h-7.304A1.24988,1.24988,0,0,0,3.5,7.17811V24.82216a1.24988,1.24988,0,0,0,1.24987,1.25H18.76944l-.6314-.63135A2.284,2.284,0,0,1,17.46421,23.81483Z"/><path class="cls-2" d="M28.5,19.955l-.29712-.29736a.30046.30046,0,0,0-.42469,0L23.14994,24.286l-1.92829-1.92871a.30046.30046,0,0,0-.42468,0l-1.24451,1.24463a.30051.30051,0,0,0,0,.42481l2.0456,2.04541.095.09521L22.93766,27.412a.30037.30037,0,0,0,.42462,0l1.24451-1.24463.09527-.09521L28.5,22.27382l.94738-.94727a.29978.29978,0,0,0,0-.42431Z"/></svg>