<svg id="Layer_1" data-name="Layer 1" xmlns="http://www.w3.org/2000/svg" viewBox="0 0 64 64"><defs><style>.cls-1,.cls-2{fill:#fff;}.cls-2,.cls-3{opacity:0.6;isolation:isolate;}</style></defs><path class="cls-1" d="M42.6522,26.0489l-2.3913-2.3913a.97.97,0,0,0-1.087,0l-10.2174,10-4.13-4.13a.9874.9874,0,0,0-1.087,0l-2.3913,2.3913a.97.97,0,0,0,0,1.0869l7.1739,7.1739a.616.616,0,0,0,1.087,0L32,37.788,42.6522,27.1359A.97.97,0,0,0,42.6522,26.0489Z"/><path class="cls-1" d="M18.402,52.9807H7v4.0176H32.5359v-.0132A24.9473,24.9473,0,0,1,18.402,52.9807Z"/><path class="cls-1" d="M32.1532,52.9807H31.838Q31.9957,52.9822,32.1532,52.9807Z"/><path class="cls-1" d="M32.1532,52.9807q-.1578.0015-.3152,0H18.402a24.9473,24.9473,0,0,0,14.1339,4.0044V52.9807Z"/><path class="cls-1" d="M49.6732,14.3206a24.9935,24.9935,0,0,0-34.9614-.3716l-.2518.2915-3.97-2.5859L9.7617,25.2,21.856,19.0574l-3.9534-2.5747a20.98,20.98,0,1,1,14.2506,36.498h.3827v4.0044A24.9924,24.9924,0,0,0,49.6732,14.3206Z"/><path class="cls-2" d="M9.199,27.0667A1.9973,1.9973,0,0,0,7.22,28.8147l-.0082.065a1.9969,1.9969,0,0,0,1.7343,2.2319,2.06,2.06,0,0,0,.25.0156,2.0035,2.0035,0,0,0,1.9846-1.7519l.0027-.022.0011-.0083,0-.0024.0028-.0225a2.0029,2.0029,0,0,0-1.7336-2.2368,1.9728,1.9728,0,0,0-.2554-.0166Zm.1116,6.6055a2.0465,2.0465,0,0,0-.32.0253A1.9968,1.9968,0,0,0,7.336,35.989l.01.065a1.9975,1.9975,0,0,0,1.9689,1.6782,2.041,2.041,0,0,0,.3249-.0264A2.0033,2.0033,0,0,0,11.2941,35.41l-.0021-.0132,0-.0015-.0013-.0083-.0051-.0317a2.0039,2.0039,0,0,0-1.9747-1.6826Zm1.98,6.3085A2,2,0,0,0,9.4923,42.85l.0286.0591A2,2,0,0,0,13.1185,41.16l-.0031-.0063-.0006-.001-.0051-.01-.0019-.0039-.0133-.0279a2.0034,2.0034,0,0,0-1.8041-1.13Zm3.7013,5.4771a1.9985,1.9985,0,0,0-1.4789,3.3442l.0441.0484a2,2,0,0,0,2.9541-2.6973l-.0191-.021-.0014-.0015-.0005,0-.0177-.02a1.9975,1.9975,0,0,0-1.4806-.6528ZM20.0941,49.66a1.9993,1.9993,0,0,0-1.0409,3.7089l.056.0337a2,2,0,1,0,2.0666-3.4248l-.02-.0122-.0185-.0112-.01-.0059a1.9938,1.9938,0,0,0-1.0331-.2885ZM26.18,52.2376a2,2,0,0,0-.5062,3.9346l.0635.0166a2,2,0,0,0,1-3.8731l-.0533-.0137a1.9977,1.9977,0,0,0-.5042-.0644Z"/><g class="cls-3"><path class="cls-1" d="M25.9389,56.9882a1.9971,1.9971,0,0,1-2-2,1.7028,1.7028,0,0,1,.04-.39,1.5669,1.5669,0,0,1,.1094-.37,2.3253,2.3253,0,0,1,.1806-.35,2.4713,2.4713,0,0,1,.25-.3,1.7385,1.7385,0,0,1,.31-.25,2.2846,2.2846,0,0,1,.34-.19,2.4177,2.4177,0,0,1,.3808-.11,1.9932,1.9932,0,0,1,1.8.5508,2.4621,2.4621,0,0,1,.25.3,2.3113,2.3113,0,0,1,.18.35,2.3364,2.3364,0,0,1,.12.37,2.6275,2.6275,0,0,1,.04.39,1.95,1.95,0,0,1-.59,1.41A1.9831,1.9831,0,0,1,25.9389,56.9882Z"/><path class="cls-1" d="M47.1791,54.9882a2.0016,2.0016,0,0,1,2.01-2h0a2,2,0,0,1,2,2h0a2,2,0,0,1-2,2h0A2.001,2.001,0,0,1,47.1791,54.9882Zm-5.81,0a2,2,0,0,1,2-2h0a1.9933,1.9933,0,0,1,2,2h0a1.9927,1.9927,0,0,1-2,2h0A1.9994,1.9994,0,0,1,41.3686,54.9882Zm-5.81,0a1.9994,1.9994,0,0,1,2-2h0a1.9938,1.9938,0,0,1,2,2h0a1.9933,1.9933,0,0,1-2,2h0A1.9989,1.9989,0,0,1,35.559,54.9882Zm-5.8106,0a1.9939,1.9939,0,0,1,2-2h0a1.9994,1.9994,0,0,1,2,2h0a1.9989,1.9989,0,0,1-2,2h0A1.9933,1.9933,0,0,1,29.7484,54.9882Z"/><path class="cls-1" d="M54.9984,56.9882a1.7877,1.7877,0,0,1-.3994-.04,2.5282,2.5282,0,0,1-.37-.1093,1.6009,1.6009,0,0,1-.34-.1905,1.7407,1.7407,0,0,1-.3106-.25,1.9807,1.9807,0,0,1-.58-1.41,1.7606,1.7606,0,0,1,.04-.39,1.6172,1.6172,0,0,1,.11-.37,1.9323,1.9323,0,0,1,.18-.35,2.4713,2.4713,0,0,1,.25-.3,1.7407,1.7407,0,0,1,.3106-.25,2.1876,2.1876,0,0,1,.34-.19,2.4349,2.4349,0,0,1,.38-.11,2,2,0,0,1,1.8.5508,1.8125,1.8125,0,0,1,.25.3,1.87,1.87,0,0,1,.18.35,2.1569,2.1569,0,0,1,.12.37,2.5123,2.5123,0,0,1,.04.39,1.95,1.95,0,0,1-.59,1.41,2.3419,2.3419,0,0,1-.6494.4405,2.2194,2.2194,0,0,1-.37.1093A1.7115,1.7115,0,0,1,54.9984,56.9882Z"/></g></svg>