<svg id="Layer_1" data-name="Layer 1" xmlns="http://www.w3.org/2000/svg" viewBox="0 0 32 32"><defs><style>.cls-1,.cls-2{fill:#283593;}.cls-1{opacity:0.4;}</style></defs><path class="cls-1" d="M21.18539,22.03963a3.65731,3.65731,0,1,0,3.65733-3.65733A3.65731,3.65731,0,0,0,21.18539,22.03963Zm2.00224.00021a1.65521,1.65521,0,1,1,1.655,1.655A1.657,1.657,0,0,1,23.18763,22.03984Z"/><path class="cls-1" d="M3.5,20.843a4.85387,4.85387,0,1,0,4.85389-4.85385A4.85388,4.85388,0,0,0,3.5,20.843Zm2.00208-.00018a2.85172,2.85172,0,1,1,2.852,2.852A2.855,2.855,0,0,1,5.50207,20.84285Z"/><path class="cls-2" d="M8.354,22.69381a1.85072,1.85072,0,1,0-1.851-1.851A1.85274,1.85274,0,0,0,8.354,22.69381Z"/><path class="cls-2" d="M3.7245,15.7775l.55554.86585,1.65164-1.12111A5.75869,5.75869,0,0,1,8.3541,14.9867a5.86336,5.86336,0,0,1,5.8558,5.85583c0,.16517-.015.32531-.025.48547h6.061a4.64474,4.64474,0,0,1,6.83181-3.37335l.23024-.54055V15.89761a1.47275,1.47275,0,0,0-1.15117-1.43642l-4.35932-.956-3.90888-.39037v-.09009L17.1228,7.88464h.41041V7.48926A1.18657,1.18657,0,0,0,16.342,6.30308H8.66942A1.18657,1.18657,0,0,0,7.47823,7.48926v.39538h.34034l-.89091,2.30228L6.47223,14.276H5.93168Zm7.47743-7.89286h4.91483l.77079,5.18014v3.57857h-3.023L11.20691,14.276h-.005ZM7.47826,14.276l.44044-3.96894.93593-2.42242h1.34628V14.276Z"/></svg>