<svg id="Layer_1" data-name="Layer 1" xmlns="http://www.w3.org/2000/svg" viewBox="0 0 32 32"><defs><style>.cls-1,.cls-2{fill:#0b996e;}.cls-2{opacity:0.6;isolation:isolate;}</style></defs><path class="cls-1" d="M14.1835,11.3732a12.7415,12.7415,0,0,1-1.711.7023,1.748,1.748,0,0,0-1.3085,1.52V15.058H12.63c1.4809,0,2.5737-.8458,2.5737-1.9929A1.9966,1.9966,0,0,0,14.1835,11.3732Z"/><path class="cls-1" d="M12.602,10.77c1.2652-.4157,1.8833-.9607,1.8833-1.6773a1.0617,1.0617,0,0,0-1.1935-1.0469H11.164v3.4991l.0433-.0005C11.3514,11.2717,11.7393,11.0423,12.602,10.77Z"/><path class="cls-1" d="M21.5634,9.3378V5.043A1.4731,1.4731,0,0,0,20.1725,3.5H5.2525A1.4731,1.4731,0,0,0,3.8617,5.043V17.8849a1.4733,1.4733,0,0,0,1.3909,1.5432h14.92a1.4732,1.4732,0,0,0,1.3908-1.5432V9.3378Zm-8.818,6.9532H9.87V6.8129h3.5659A2.2537,2.2537,0,0,1,15.175,10.67,2.8873,2.8873,0,0,1,16.57,13.1221C16.57,14.9288,14.9311,16.291,12.7454,16.291Z"/><path class="cls-2" d="M9.9308,27.7717a.73.73,0,0,0,.7283.7283H27.41a.73.73,0,0,0,.7283-.7283V18.9231a.2349.2349,0,0,0-.2185-.2186.2193.2193,0,0,0-.1456.0363c-.8012.692-1.93,1.6023-5.4623,4.3336-.1092.0726-.2185.182-.3641.2912a5.3461,5.3461,0,0,1-2.9132,1.493,5.2307,5.2307,0,0,1-2.9132-1.493c-.1457-.1092-.2549-.2186-.3642-.2912-1.1476-.8863-2.0363-1.5776-2.74-2.1293H9.9308Z"/><path class="cls-1" d="M20.1727,20.9451H14.938c.438.3416.9267.7214,1.4747,1.1459a2.0073,2.0073,0,0,1,.3277.2549h.0365c.619.51,1.5658,1.3111,2.2577,1.3111a4.7482,4.7482,0,0,0,2.2577-1.2746v-.0365h.0364a2.0079,2.0079,0,0,1,.3278-.2549c4.4426-3.4593,5.0252-3.9327,5.972-4.7339l.1821-.1457a.97.97,0,0,0,.3277-.7282V15.3906a.73.73,0,0,0-.7283-.7282H23.0809v3.2225A2.99,2.99,0,0,1,20.1727,20.9451Z"/></svg>