<svg id="Layer_1" data-name="Layer 1" xmlns="http://www.w3.org/2000/svg" viewBox="0 0 32 32"><defs><style>.cls-1{fill:#777;isolation:isolate;}.cls-2{fill:#9bc6f2;}.cls-3{fill:#2576c7;}.cls-4{fill:#fff;}</style></defs><path class="cls-1" d="M17.68,9H4.76A.79.79,0,0,0,4,9.76V28H4c.9,0,.9-1.52,1.81-1.52S6.71,28,7.61,28h0c.91,0,.91-1.52,1.81-1.52s.9,1.52,1.8,1.52h0c.91,0,.91-1.52,1.81-1.52s.9,1.52,1.8,1.52h0c.9,0,.9-1.52,1.81-1.52s.9,1.52,1.8,1.52h0V9.76A.76.76,0,0,0,17.68,9Z"/><path class="cls-2" d="M26,4H9A2,2,0,0,0,7,6V7H17.44a2.94,2.94,0,0,1,2.83,2H24v2H20.44v2H24v2H20.44v5H26a2,2,0,0,0,2-2V6A2,2,0,0,0,26,4Z"/><rect class="cls-3" x="20.44" y="13" width="3.56" height="2"/><path class="cls-3" d="M24,9H20.27a3.22,3.22,0,0,1,.17,1v1H24Z"/><path class="cls-4" d="M14.71,20.3c-.21,2.22-1.24,3.33-3.12,3.33s-2.88-1.24-3.16-3.71h-.7v-.73h.64V17.87H7.73v-.73h.7q.39-3.77,3.16-3.77a2.81,2.81,0,0,1,2.12.82,3.92,3.92,0,0,1,1,2.33H13.39A3,3,0,0,0,12.81,15a1.49,1.49,0,0,0-1.22-.57c-1,0-1.65.92-1.84,2.76h2.06l-.21.73H9.69v1.32h1.5l-.2.73H9.75c.19,1.81.81,2.71,1.84,2.71s1.65-.77,1.8-2.33Z"/></svg>