<svg id="Layer_1" data-name="Layer 1" xmlns="http://www.w3.org/2000/svg" viewBox="0 0 64 64"><defs><style>.cls-1,.cls-2{fill:#fff;}.cls-1{opacity:0.6;isolation:isolate;}</style></defs><path class="cls-1" d="M50.9793,9a2,2,0,0,0-2-2h-34a2.0738,2.0738,0,0,0-2,2V55a2.0738,2.0738,0,0,0,2,2h34a2.0738,2.0738,0,0,0,2-2V9Z"/><path class="cls-2" d="M45.29,39.62l-8.26-8.26a8.4264,8.4264,0,0,0-2.1-9.66,10.4471,10.4471,0,0,0-8.61-3.15,3.0371,3.0371,0,0,0-1.26.28c-.35.28,0,.56.14.7l1.61,1.61.7.7.84.84,1.26,1.26.35.35a1.1812,1.1812,0,0,1,.28.98l-.91,3.29a1.1282,1.1282,0,0,1-.28.49,1.4644,1.4644,0,0,1-.42.28l-3.36.84a.9691.9691,0,0,1-.98-.21l-.35-.35-1.26-1.26-.84-.84-.7-.7-1.61-1.61c-.14-.14-.42-.49-.7-.14a3.0371,3.0371,0,0,0-.28,1.26,10.447,10.447,0,0,0,3.15,8.61,8.4264,8.4264,0,0,0,9.66,2.1l6.65,6.65,1.61,1.61a.6768.6768,0,0,0,.98,0l4.69-4.69A.6768.6768,0,0,0,45.29,39.62Z"/></svg>