<svg id="Layer_1" data-name="Layer 1" xmlns="http://www.w3.org/2000/svg" viewBox="0 0 32 32"><defs><style>.cls-1{opacity:0.2;}.cls-2,.cls-3{fill:#ed9c26;}.cls-2{isolation:isolate;}</style></defs><g class="cls-1"><path class="cls-2" d="M25.5,4.5a1,1,0,0,0-.99995-1H7.5a1.0369,1.0369,0,0,0-1,1v23a1.0369,1.0369,0,0,0,1,1h17a1.0369,1.0369,0,0,0,1-1V4.5Z"/></g><path class="cls-3" d="M21.61687,9.5h-1.0625l-.39648,2.19409-10.22455.531,1.01593,5.62719h8.09625l-.29187,1.61524a1.55694,1.55694,0,0,1,.89661.09863L19.96,17.85228h.00013l1.01934-5.646.00055-.00147.32636-1.80517h.31054a.44983.44983,0,1,0,0-.89966Zm-1.93194,4.81372H18.31225l.16839-1.63159,1.51325-.07837Zm-2.27741,0H15.90447v-1.4978l1.66657-.08643Zm-2.40265-1.45117v1.45117h-1.503l-.141-1.366Zm0,4.09009H13.77416l-.1795-1.73926h1.41021Zm-2.54394-3.95826.13617,1.31934H11.22448l-.22467-1.24341Zm-.75964,3.95826L11.387,15.21337h1.30291l.17951,1.73926Zm4.20318-1.73926h1.41022l-.1795,1.73926H15.90447Zm2.13544,1.73926.1795-1.73926h1.30292l-.31427,1.73926Z"/><path class="cls-3" d="M19.01086,19.89135a1.297,1.297,0,0,0-1.21308.85424H13.27984a1.30453,1.30453,0,1,0,.00006.89966h4.51782a1.29981,1.29981,0,1,0,1.21314-1.7539Zm-6.94452,1.709a.40467.40467,0,1,1,.405-.405A.40573.40573,0,0,1,12.06634,21.60033Zm6.94452,0a.40467.40467,0,1,1,.405-.405A.40537.40537,0,0,1,19.01086,21.60033Z"/></svg>