<svg id="Layer_1" data-name="Layer 1" xmlns="http://www.w3.org/2000/svg" viewBox="0 0 32 32"><defs><style>.cls-1{fill:#9bc6f2;}.cls-2{fill:#777;}.cls-3{fill:#2576c7;}.cls-4{fill:#00b050;}</style></defs><path class="cls-1" d="M26.45588,18.035a2.27344,2.27344,0,0,1,1.452.531,1.96565,1.96565,0,0,0,.09217-.56592v-12a2.00591,2.00591,0,0,0-2-2h-17a2.00575,2.00575,0,0,0-2,2v2.8a6.71223,6.71223,0,0,1,4.5-1.8,6.48708,6.48708,0,0,1,6.5,6.5,6.71311,6.71311,0,0,1-1.80005,4.5,6.62546,6.62546,0,0,1,2.8999,2h4.4375l1.2915-1.29126A2.28462,2.28462,0,0,1,26.45588,18.035Zm-2.45581-3.03491h-5v-2h5Zm0-4h-5v-2h5Z"/><circle class="cls-2" cx="11.50007" cy="13.50007" r="4.5"/><rect class="cls-3" x="19.00007" y="13.00007" width="5" height="2"/><rect class="cls-3" x="19.00007" y="9.00007" width="5" height="2"/><path class="cls-2" d="M16.60334,22.65315l.965-.96631a4.59081,4.59081,0,0,0-3.06848-1.68677,27.41873,27.41873,0,0,1-3,.3999,26.88029,26.88029,0,0,1-2.99988-.3999c-1.995,0-4.49987,2.66675-4.49987,4.8v2.2666c0,.5332,0,.93335.62988.93335H18.36982a.93758.93758,0,0,0,.28625-.04126l-2.05273-2.05273A2.30164,2.30164,0,0,1,16.60334,22.65315Z"/><path class="cls-4" d="M27.91193,21.3675l-.94726-.94726-.29712-.29737a.30062.30062,0,0,0-.42481,0l-4.62817,4.62842-1.92835-1.92871a.30044.30044,0,0,0-.42468,0l-.57812.57812-.66639.66651a.30037.30037,0,0,0,0,.4248l.98279.98267,1.06275,1.06274.09509.09522,1.24451,1.24463a.30046.30046,0,0,0,.42468,0l1.24451-1.24463.09521-.09522,3.7981-3.79785.94726-.94775A.29957.29957,0,0,0,27.91193,21.3675Z"/></svg>