<svg xmlns="http://www.w3.org/2000/svg" xmlns:xlink="http://www.w3.org/1999/xlink" viewBox="0,0,256,256" width="32px" height="32px" fill-rule="nonzero"><g fill="#a7a7a7" fill-rule="nonzero" stroke="none" stroke-width="1" stroke-linecap="butt" stroke-linejoin="miter" stroke-miterlimit="10" stroke-dasharray="" stroke-dashoffset="0" font-family="none" font-weight="none" font-size="none" text-anchor="none" style="mix-blend-mode: normal"><g transform="scale(8,8)"><path d="M17.69922,4c-5,0 -10.09961,3.30078 -11.09961,8.30078c-0.6,3 0.20117,5.79883 -2.29883,5.79883c-1.1,0 -1.80156,1.30117 -1.10156,2.20117c1.4,1.9 3.30117,2.99922 5.20117,3.69922l0.61523,0.24609c-0.07178,0.7031 0.15739,1.40373 0.6308,1.9285c0.47341,0.52477 1.14682,0.82464 1.85357,0.82541c1.18641,-0.00198 2.20803,-0.83756 2.44531,-2h3.95508h0.15234c0.23743,1.16316 1.26012,1.99894 2.44727,2c0.80361,-0.00015 1.55816,-0.38659 2.02791,-1.0386c0.46976,-0.65201 0.59745,-1.49009 0.34318,-2.25241c4.18968,-2.13028 6.51757,-6.37112 5.72852,-10.9082c-0.6,-5.1 -5.60039,-8.80078 -10.90039,-8.80078zM17.69922,6c4.5,0 8.50117,3.10078 9.20117,7.30078c0.6,3.6 -1.30078,7.09883 -4.80078,8.79883l-0.45312,0.18164c-0.35423,-0.18393 -0.74735,-0.28036 -1.14648,-0.28125c-0.78621,0.00061 -1.52632,0.37103 -1.99805,1c-0.00069,0 -0.00126,0 -0.00195,0h-0.40039h-4.19922c-0.12235,0 -0.27954,-0.01591 -0.41992,-0.02148c-0.47243,-0.61596 -1.2042,-0.97751 -1.98047,-0.97852c-0.4859,0.00095 -0.961,0.14348 -1.36719,0.41016c-0.01048,-0.00345 -0.02284,-0.00631 -0.0332,-0.00977l-0.90039,-0.30078c-1.4,-0.5 -2.59961,-1.19922 -3.59961,-2.19922c2.4,-0.7 2.60117,-3.49961 2.70117,-5.09961c0.1,-0.7 0.09922,-1.40156 0.19922,-2.10156c0.9,-4.2 5.29922,-6.69922 9.19922,-6.69922zM14.5,11c-0.82843,0 -1.5,0.67157 -1.5,1.5c0,0.82843 0.67157,1.5 1.5,1.5c0.82843,0 1.5,-0.67157 1.5,-1.5c0,-0.82843 -0.67157,-1.5 -1.5,-1.5zM20.5,11c-0.82843,0 -1.5,0.67157 -1.5,1.5c0,0.82843 0.67157,1.5 1.5,1.5c0.82843,0 1.5,-0.67157 1.5,-1.5c0,-0.82843 -0.67157,-1.5 -1.5,-1.5zM13.60547,14.97852c-0.0625,-0.00938 -0.13008,-0.00352 -0.20508,0.02148c-0.3,0.1 -0.50039,0.29961 -0.40039,0.59961c0.5,2.3 2.7,3.40039 4.5,3.40039c1.8,0 4,-1.10039 4.5,-3.40039c0,-0.3 -0.10039,-0.49961 -0.40039,-0.59961c-0.3,0 -0.49961,0.10039 -0.59961,0.40039c-0.4,1.8 -2.1,2.59961 -3.5,2.59961c-1.4,0 -3.1,-0.79961 -3.5,-2.59961c-0.075,-0.225 -0.20703,-0.39375 -0.39453,-0.42187z"></path></g></g></svg>