<svg id="Layer_1" data-name="Layer 1" xmlns="http://www.w3.org/2000/svg" viewBox="0 0 32 32"><defs><style>.cls-1,.cls-2{fill:#00b050;}.cls-1{opacity:0.2;isolation:isolate;}</style></defs><path class="cls-1" d="M24.5,3.5H7.5a1.037,1.037,0,0,0-1,1v24h.0006c1.1881-.0007,1.1883-2,2.3768-2s1.1888,1.9993,2.3769,2h.0011c1.1873-.0007,1.1876-2,2.3753-2s1.1869,1.9993,2.3731,2h.0012c1.186-.0007,1.1863-2,2.3728-2s1.1871,1.9993,2.3735,2h.0012c1.1864-.0007,1.1866-2,2.3734-2s1.1871,1.9993,2.3735,2H25.5V4.5A1,1,0,0,0,24.5,3.5Z"/><path class="cls-2" d="M20.5857,18.3716Q20.1876,22.75,16.4892,22.75q-3.6154,0-4.1627-4.8759h-.9122v-.9619h.8292V15.1708h-.8292v-.962h.9122Q12.8406,9.25,16.4892,9.25a3.7019,3.7019,0,0,1,2.7863,1.078,5.1435,5.1435,0,0,1,1.31,3.0682H18.8609a4.0769,4.0769,0,0,0-.7629-2.0731,1.982,1.982,0,0,0-1.6088-.7463q-2.04,0-2.4213,3.632h2.7033l-.2654.962H13.9849v1.7414h1.9736l-.2653.9619H14.0679q.3815,3.5657,2.4213,3.5657,2.0732,0,2.3717-3.0682Z"/></svg>