<svg id="Layer_1" data-name="Layer 1" xmlns="http://www.w3.org/2000/svg" viewBox="0 0 32 32"><defs><style>.cls-1{fill:#ffe39d;}.cls-2{fill:#ed9c26;}.cls-3{fill:#fff;}</style></defs><path class="cls-1" d="M16,6.00221H8.5a2,2,0,0,0-2,2v18a2,2,0,0,0,2,2h15a2,2,0,0,0,2-2v-18a2,2,0,0,0-2-2Z"/><path class="cls-2" d="M21.5,6.00221H19.1a3.4,3.4,0,0,0-6.2,0H10.5v4.5a.47.47,0,0,0,.5.5H21a.47.47,0,0,0,.5-.5Z"/><circle class="cls-2" cx="16" cy="7.50221" r="1.5"/><circle class="cls-3" cx="16" cy="7.50221" r="1.5"/><path class="cls-2" d="M10.87078,25.00327l2.75556-2.75556a.63674.63674,0,1,0-.37079-.37079L10.5,24.63248s1.60233-4.86,1.62881-5.52207a4.45931,4.45931,0,0,0,3.64166-1.09912l.41051.41051.45025.45025.55617.55617.30458.30458a4.45933,4.45933,0,0,0-1.09912,3.64167C15.73074,23.40094,10.87078,25.00327,10.87078,25.00327ZM21.5,16.72236,18.7809,14.00325l-2.76911,3.41068,2.07754,2.07754Z"/></svg>
