<svg id="Layer_1" data-name="Layer 1" xmlns="http://www.w3.org/2000/svg" viewBox="0 0 32 32"><defs><style>.cls-1,.cls-2{fill:#008ab2;}.cls-1{opacity:0.4;isolation:isolate;}.cls-3{fill:#fff;}</style></defs><path class="cls-1" d="M24.16,28H7.84a1,1,0,0,1-1-1V5a1,1,0,0,1,1-1H18.4V9.76a1,1,0,0,0,1,1h5.76V27A1,1,0,0,1,24.16,28Z"/><path class="cls-2" d="M19.84,4V8.8c0,.29,0,.48.48.48h4.8v-1L20.8,4Z"/><rect class="cls-3" x="9.67" y="10.7" width="5.02" height="2.99"/><rect class="cls-3" x="17.2" y="15.47" width="5.02" height="2.99"/><rect class="cls-3" x="17.2" y="20.23" width="5.02" height="2.99"/><polygon class="cls-2" points="16 17.46 16 16.46 12.69 16.46 12.69 14.95 11.68 14.95 11.68 22.23 16 22.23 16 21.22 12.69 21.22 12.69 17.46 16 17.46"/></svg>