<svg id="Layer_1" data-name="Layer 1" xmlns="http://www.w3.org/2000/svg" viewBox="0 0 32 32"><defs><style>.cls-1,.cls-2{fill:#777;}.cls-2{opacity:0.6;}</style></defs><path class="cls-1" d="M7.3383,6.99,8.757,8.4085a10.4952,10.4952,0,1,1-.1838,15.0152L7.159,24.838A12.5,12.5,0,1,0,7.3383,6.99Z"/><path class="cls-2" d="M16.2474,3.5045V5.5108A10.4952,10.4952,0,1,1,5.5,15.9982h-2A12.5,12.5,0,1,0,16.2474,3.5045Z"/><polygon class="cls-1" points="3.925 11.85 10.476 10.095 5.681 5.299 3.925 11.85"/><path class="cls-1" d="M18.1143,15.0465a2.437,2.437,0,0,0-1.8807-4.171h-3.856v10.249H15.487c2.3635,0,4.1354-1.4729,4.1354-3.4265A3.1226,3.1226,0,0,0,18.1143,15.0465Zm-4.3374.9458V12.2087h2.301a1.1479,1.1479,0,0,1,1.2905,1.1318c0,.775-.6684,1.3643-2.0365,1.8139-.9328.2943-1.3524.5425-1.5081.8375l-.0469,0v0Zm1.5857,3.799H13.7769V18.21a1.89,1.89,0,0,1,1.415-1.6438,13.7767,13.7767,0,0,0,1.85-.7595,2.1589,2.1589,0,0,1,1.1036,1.83C18.1456,18.8765,16.9638,19.7913,15.3626,19.7913Z"/></svg>