<svg id="Layer_1" data-name="Layer 1" xmlns="http://www.w3.org/2000/svg" viewBox="0 0 32 32"><defs><style>.cls-1,.cls-2{fill:#00b050;}.cls-1{opacity:0.2;isolation:isolate;}</style></defs><path class="cls-1" d="M25.49509,4.49639V18.82647a8.30155,8.30155,0,0,0-3.5-.83008,7.7093,7.7093,0,0,0-2.35.38012,8.21375,8.21375,0,0,0-.83.3,9.82,9.82,0,0,0-3.4,2.41992c-.72-.5-1.17-1.56005-1.35-3.22h1.63l.26-.96h-1.97v-1.75h2.52l.27-.96h-2.71c.26-2.42016,1.06-3.63012,2.42-3.63012a1.9731,1.9731,0,0,1,1.61.75,4.0328,4.0328,0,0,1,.77,2.07006h1.72a5.15415,5.15415,0,0,0-1.31-3.07006,3.69844,3.69844,0,0,0-2.79-1.08008c-2.43,0-3.82,1.66015-4.16,4.9602h-.91v.96h.83v1.75h-.83v.96h.91c.25,2.25,1.01,3.7,2.24,4.3899a3.56214,3.56214,0,0,0-.57,1.73c0,1.22,1.1,2.87011,2.76,4.13012a.94735.94735,0,0,1-.75.36988c-1.19,0-1.19-2-2.37-2-.59,0-.89.5-1.19,1s-.6,1-1.19,1c-1.19,0-1.19-2-2.38-2s-1.19,2-2.37,2h-.01v-24a1.03686,1.03686,0,0,1,1-1h17A.99651.99651,0,0,1,25.49509,4.49639Z"/><path class="cls-2" d="M20.58511,13.39653h-1.72a4.0328,4.0328,0,0,0-.77-2.07006,1.9731,1.9731,0,0,0-1.61-.75c-1.36,0-2.16,1.21-2.42,3.63012h2.71l-.27.96h-2.52v1.75h1.97l-.26.96h-1.63c.18,1.65992.63,2.72,1.35,3.22a7.18876,7.18876,0,0,0-.85,1.16993c-1.23-.68994-1.99-2.1399-2.24-4.3899h-.91v-.96h.83v-1.75h-.83v-.96h.91c.34-3.30005,1.73-4.9602,4.16-4.9602a3.69844,3.69844,0,0,1,2.79,1.08008A5.15415,5.15415,0,0,1,20.58511,13.39653Z"/><path class="cls-2" d="M21.99978,28l.02966-.00165h-.05932Z"/><path class="cls-2" d="M22.09408,22.3083c-.03192-.00147-.062-.0083-.0943-.0083h-.5a1.01978,1.01978,0,0,1,.5.8.89629.89629,0,0,1-.9.9,1.01978,1.01978,0,0,1-.8-.5V24a1.88626,1.88626,0,0,0,.36377,1.12756A1.62809,1.62809,0,0,0,21.99978,25.8a1.7925,1.7925,0,0,0,1.8-1.8A1.69721,1.69721,0,0,0,22.09408,22.3083Z"/><path class="cls-2" d="M25.10366,20.86561a6.4827,6.4827,0,0,0-2.89331-.85388C22.13986,20.009,22.07082,20,21.99978,20a5.9305,5.9305,0,0,0-1.91022.3313,6.9862,6.9862,0,0,0-4.033,3.389A.96075.96075,0,0,0,15.99978,24a.81307.81307,0,0,0,.01569.10577c.16229,1.08234,2.77215,3.875,5.95465,3.89258h.05932a6.40374,6.40374,0,0,0,3.05-.85046c1.744-.96515,2.92029-2.48889,2.92029-3.14789C27.99978,23.34406,26.83431,21.83149,25.10366,20.86561ZM21.99978,27A2.9352,2.9352,0,0,1,19.212,25.12757,3.10466,3.10466,0,0,1,18.99978,24a3.02311,3.02311,0,0,1,.5451-1.75018A3.00623,3.00623,0,1,1,21.99978,27Z"/></svg>