<svg id="Layer_1" data-name="Layer 1" xmlns="http://www.w3.org/2000/svg" viewBox="0 0 64 64"><defs><style>.cls-1,.cls-2{fill:#fff;}.cls-1{opacity:0.6;isolation:isolate;}</style></defs><path class="cls-1" d="M49,7H15a2.0737,2.0737,0,0,0-2,2V55a2.0739,2.0739,0,0,0,2,2H49a2.0739,2.0739,0,0,0,2-2V9A2,2,0,0,0,49,7ZM44.7219,49.42H19.2782V46.4256H44.7219Zm0-5.8652H19.2782V40.56H44.7219Z"/><path class="cls-2" d="M42.8289,32.0087,36.0982,25.278a6.8663,6.8663,0,0,0-1.7112-7.8715A8.5125,8.5125,0,0,0,27.3711,14.84a2.4739,2.4739,0,0,0-1.0267.2282c-.2852.2282,0,.4563.1141.57L27.77,16.95l.57.57.6845.6845,1.0267,1.0267.2852.2852a.9625.9625,0,0,1,.2281.7986l-.7415,2.6808a.919.919,0,0,1-.2281.3993,1.1945,1.1945,0,0,1-.3423.2282l-2.7379.6844a.79.79,0,0,1-.7985-.1711l-.2852-.2852-1.0267-1.0267-.6845-.6845-.57-.57-1.3119-1.3119c-.1141-.1141-.3423-.3993-.57-.1141a2.4739,2.4739,0,0,0-.2282,1.0267,8.5125,8.5125,0,0,0,2.5668,7.0159,6.8661,6.8661,0,0,0,7.8715,1.7112l5.4188,5.4188,1.3119,1.3119a.5513.5513,0,0,0,.7985,0l3.8217-3.8217A.5514.5514,0,0,0,42.8289,32.0087Z"/></svg>