<?xml version="1.0" encoding="utf-8"?>
<!-- Generator: Adobe Illustrator 24.2.0, SVG Export Plug-In . SVG Version: 6.00 Build 0)  -->
<svg version="1.1" id="Layer_1" xmlns="http://www.w3.org/2000/svg" xmlns:xlink="http://www.w3.org/1999/xlink" x="0px" y="0px"
	 viewBox="0 0 64 64" style="enable-background:new 0 0 64 64;" xml:space="preserve">
<style type="text/css">
	.st0{opacity:0.6;fill:#FFFFFF;enable-background:new    ;}
	.st1{fill:#FFFFFF;}
</style>
<path class="st0" d="M54.6,7c-14.9,3.2-30.2,3.2-45.1,0C8.4,6.8,7.3,7.5,7,8.6C7,8.7,7,8.8,7,9v33c0,1.1,0.9,2,2,2
	c0.1,0,0.3,0,0.4,0c1.8-0.4,3.7-0.7,5.6-1v-5.4c0-2.2,1.8-4,4-4h2.5c0.2-2.9,3-6,6.3-6c1.1,0,1.7,0.8,4.2,0.8c2.5,0,3.2-0.8,4.2-0.8
	c3.3,0,6,3.1,6.3,6H45c2.2,0,4,1.8,4,4v5.4c1.9,0.3,3.7,0.6,5.6,1c1.1,0.2,2.2-0.4,2.4-1.5c0-0.1,0-0.3,0-0.4V9c0-1.1-0.9-2-2-2
	C54.8,7,54.7,7,54.6,7z M32,25.5c-3.3,0-6-2.7-6-6s2.7-6,6-6s6,2.7,6,6C38,22.8,35.3,25.5,32,25.5z"/>
<circle class="st1" cx="32" cy="19.5" r="6"/>
<path class="st1" d="M36.2,27.5c-1,0-1.8,0.8-4.2,0.8c-2.5,0-3.1-0.8-4.2-0.8c-3.3,0-6,3.1-6.3,6h21C42.2,30.6,39.5,27.5,36.2,27.5z
	"/>
<path class="st1" d="M47,37.5c0-1.1-0.9-2-2-2c0,0,0,0,0,0H19c-1.1,0-2,0.9-2,2c0,0,0,0,0,0V55c0,1.1,0.9,2,2,2h26c1.1,0,2-0.9,2-2
	V37.5z"/>
</svg>
