<svg id="Layer_1" data-name="Layer 1" xmlns="http://www.w3.org/2000/svg" viewBox="0 0 64 64"><defs><style>.cls-1,.cls-2{fill:#fff;}.cls-1{opacity:0.6;isolation:isolate;}</style></defs><path class="cls-1" d="M49,7H15a2.07,2.07,0,0,0-2,2V55a2.07,2.07,0,0,0,2,2H49a2.07,2.07,0,0,0,2-2V9A2,2,0,0,0,49,7ZM44.72,49.42H19.28v-3H44.72Zm0-5.87H19.28v-3H44.72Z"/><path class="cls-2" d="M21.74,36.8l5.51-5.51a1.27,1.27,0,1,0-.74-.74L21,36.06s3.2-9.72,3.26-11c0,0,4.31.77,7.28-2.19l.82.82.9.9,1.11,1.11.61.61c-3,3-2.19,7.28-2.19,7.28C31.46,33.6,21.74,36.8,21.74,36.8ZM43,20.24,37.56,14.8,32,21.62l4.16,4.16Z"/></svg>