<svg id="Layer_1" data-name="Layer 1" xmlns="http://www.w3.org/2000/svg" viewBox="0 0 24 24"><defs><style>.cls-1{fill:#1467ba;}</style></defs><path class="cls-1" d="M8.24,2a7.51,7.51,0,0,1,5.44,2.31,5.87,5.87,0,0,1,1.5,6.77l-.27.63.48.48,6.42,6.42-3.2,3.2-1-1-5.41-5.42-.49-.48-.62.27a6,6,0,0,1-2.35.5,6.25,6.25,0,0,1-4.42-2A7.48,7.48,0,0,1,2,8l.44.44L3,9.05l.69.68,1,1L5,11a1.81,1.81,0,0,0,1.26.51,1.91,1.91,0,0,0,.54-.08l2.69-.68.1,0,.1,0a2.28,2.28,0,0,0,.6-.42,1.81,1.81,0,0,0,.47-.79v0l.74-2.68V6.71A2,2,0,0,0,11,5l-.28-.29-1-1L9.05,3l-.57-.57L8,2h.2m0-1a8.44,8.44,0,0,0-.87,0,2.47,2.47,0,0,0-1,.23c-.28.23,0,.45.12.57L7.77,3.15l.57.57L9,4.41l1,1,.29.29a1,1,0,0,1,.23.8L9.82,9.2a.92.92,0,0,1-.22.4,1.13,1.13,0,0,1-.35.22l-2.73.69a.73.73,0,0,1-.25,0,.81.81,0,0,1-.55-.21l-.29-.29-1-1-.69-.69-.57-.57L1.84,6.46c-.08-.08-.21-.24-.36-.24a.26.26,0,0,0-.21.12,2.47,2.47,0,0,0-.23,1,8.5,8.5,0,0,0,2.57,7,7.19,7.19,0,0,0,5.12,2.29,6.92,6.92,0,0,0,2.75-.58l5.42,5.42,1.31,1.31a.58.58,0,0,0,.4.17.6.6,0,0,0,.4-.17L22.83,19a.55.55,0,0,0,0-.8L16.1,11.48a6.87,6.87,0,0,0-1.71-7.87A8.49,8.49,0,0,0,8.24,1Z"/></svg>