<svg id="Layer_1" data-name="Layer 1" xmlns="http://www.w3.org/2000/svg" viewBox="0 0 32 32"><defs><style>.cls-1,.cls-2{fill:#ca0821;}.cls-1{opacity:0.2;isolation:isolate;}.cls-3{fill:#777;}</style></defs><path class="cls-1" d="M18.1385,25.4411a2.307,2.307,0,0,1,0-3.2529l1.2432-1.2451a2.3009,2.3009,0,0,1,3.2539,0l.5146.5146,2.35-2.35V4.5a1,1,0,0,0-1-1H7.5a1.0368,1.0368,0,0,0-1,1v23a1.0369,1.0369,0,0,0,1,1H21.1973Z"/><path class="cls-2" d="M9.9382,22.5l3.2566-3.2566a.7525.7525,0,1,0-.4382-.4382L9.5,22.0618s1.8936-5.7436,1.9249-6.5261a5.27,5.27,0,0,0,4.3038-1.2989l.4852.4851.5321.5321.6573.6573.36.36a5.27,5.27,0,0,0-1.2989,4.3038C15.6818,20.6064,9.9382,22.5,9.9382,22.5ZM22.5,12.7135,19.2865,9.5l-3.2726,4.0308,2.4553,2.4553Z"/><path class="cls-3" d="M29.4474,20.9021l-1.2445-1.2444a.3.3,0,0,0-.4247,0L23.15,24.2859l-1.9283-1.9285a.3.3,0,0,0-.4247,0L19.5524,23.602a.3007.3007,0,0,0,0,.4249l2.1407,2.14v0l1.2445,1.2444a.3.3,0,0,0,.4246,0l1.2446-1.2444,4.8406-4.8408A.3.3,0,0,0,29.4474,20.9021Z"/></svg>