<svg id="Layer_1" data-name="Layer 1" xmlns="http://www.w3.org/2000/svg" viewBox="0 0 64 64"><defs><style>.cls-1,.cls-2{fill:#fff;}.cls-2{opacity:0.6;}</style></defs><path class="cls-1" d="M49.81,21.62l6.53-13a.92.92,0,0,0-.82-1.33h-47a.92.92,0,0,0-.82,1.33l6.53,13.05a.9.9,0,0,0,.82.5H49A.9.9,0,0,0,49.81,21.62Z"/><path class="cls-2" d="M41.46,38.33,47.2,26.84a.91.91,0,0,0-.81-1.33H17.61a.91.91,0,0,0-.81,1.33l5.74,11.49a.93.93,0,0,0,.82.5H40.64A.93.93,0,0,0,41.46,38.33Z"/><path class="cls-1" d="M25.15,43.55l6,12.05a.91.91,0,0,0,1.64,0l6-12.05A.92.92,0,0,0,38,42.22H26A.92.92,0,0,0,25.15,43.55Z"/></svg>