<svg id="Layer_1" data-name="Layer 1" xmlns="http://www.w3.org/2000/svg" viewBox="0 0 32 32"><defs><style>.cls-1{fill:#fff;}.cls-2,.cls-3{fill:#8b6747;}.cls-3{opacity:0.2;isolation:isolate;}</style></defs><path class="cls-1" d="M16.6138,19.9893h-7.68v1.6662h6.0291A8.9507,8.9507,0,0,1,16.6138,19.9893Z"/><path class="cls-1" d="M14.0182,23.81H8.9342v1.6663h5.4846A3.3375,3.3375,0,0,1,14,24C14,23.9392,14.0128,23.873,14.0182,23.81Z"/><path class="cls-1" d="M20.8251,26.7571h-.02v-.01A.031.031,0,0,1,20.8251,26.7571Z"/><path class="cls-1" d="M21.1951,26.887a1.1231,1.1231,0,0,1-.31-.1.0864.0864,0,0,1-.06-.03l.09.03A2.3149,2.3149,0,0,0,21.1951,26.887Z"/><path class="cls-1" d="M20.8251,26.7571h-.02v-.01A.031.031,0,0,1,20.8251,26.7571Z"/><path class="cls-2" d="M23.7951,23.9952a1.7926,1.7926,0,0,1-1.8,1.8,1.71,1.71,0,0,1-1.7-1.8v-.5a1.02,1.02,0,0,0,.8.5.8962.8962,0,0,0,.9-.9,1.02,1.02,0,0,0-.5-.8h.5A1.71,1.71,0,0,1,23.7951,23.9952Z"/><path class="cls-2" d="M21.9951,19.9952c-3.3,0-6,3-6,4s2.7,4,6,4,6-3,6-4S25.2951,19.9952,21.9951,19.9952Zm0,7a3,3,0,1,1,3-3A2.9463,2.9463,0,0,1,21.9951,26.9952Z"/><path class="cls-1" d="M21.9951,20.9952a3,3,0,1,0,3,3A2.9465,2.9465,0,0,0,21.9951,20.9952Zm0,4.8a1.71,1.71,0,0,1-1.7-1.8v-.5a1.02,1.02,0,0,0,.8.5.8962.8962,0,0,0,.9-.9,1.02,1.02,0,0,0-.5-.8h.5a1.71,1.71,0,0,1,1.8,1.7A1.7926,1.7926,0,0,1,21.9951,25.7953Z"/><path class="cls-3" d="M19.2651,15.051a1.1728,1.1728,0,1,0,1.1726,1.1729A1.1727,1.1727,0,0,0,19.2651,15.051Z"/><path class="cls-3" d="M13.7465,10.1738a1.2913,1.2913,0,1,0,1.6873.6987A1.2911,1.2911,0,0,0,13.7465,10.1738Z"/><path class="cls-3" d="M24.5,3.5H7.5a1.0368,1.0368,0,0,0-1,1v23a1.0369,1.0369,0,0,0,1,1h9.7951a8.5035,8.5035,0,0,1-2.8764-3.0239H8.9342V23.81h5.084a4.4383,4.4383,0,0,1,.9451-2.1543H8.9342V19.9892h7.68A9.6773,9.6773,0,0,1,19.58,18.4H18.2035a.3373.3373,0,0,1-.2923-.1687L16.85,16.3926a.3373.3373,0,0,1,0-.3374l1.0615-1.8389a.3373.3373,0,0,1,.2923-.1687h2.1232a.3373.3373,0,0,1,.2922.1687l1.0616,1.8389a.3373.3373,0,0,1,0,.3374l-1,1.7321A7.5133,7.5133,0,0,1,22,18a8.2551,8.2551,0,0,1,3.5.8257V4.5A1,1,0,0,0,24.5,3.5Zm-6.4882,9.4284,0,.0008a4.0466,4.0466,0,0,1-.2823.5534.1362.1362,0,0,1-.1683.0538l-.7024-.2908a.1319.1319,0,0,0-.1555.0422,3.096,3.096,0,0,1-.5409.5413.1327.1327,0,0,0-.0426.1557l.29.7012a.136.136,0,0,1-.0534.168,3.8636,3.8636,0,0,1-1.1462.4748.1358.1358,0,0,1-.1565-.081l-.29-.7012a.1321.1321,0,0,0-.14-.08,3.1153,3.1153,0,0,1-.7653,0,.1324.1324,0,0,0-.14.08l-.2906.7014a.1379.1379,0,0,1-.1584.0815,4.1006,4.1006,0,0,1-1.1434-.4736.1375.1375,0,0,1-.0543-.17l.29-.7014a.1323.1323,0,0,0-.0423-.1555,3.1,3.1,0,0,1-.5415-.5408.1322.1322,0,0,0-.1556-.0427l-.7011.29a.1356.1356,0,0,1-.1679-.0535,3.8526,3.8526,0,0,1-.4748-1.146A.1359.1359,0,0,1,10.36,12.18l.7012-.29a.1325.1325,0,0,0,.08-.14,3.1007,3.1007,0,0,1,0-.7653.1324.1324,0,0,0-.08-.14l-.7015-.2906a.1376.1376,0,0,1-.0815-.1584,4.1015,4.1015,0,0,1,.4737-1.1433.1375.1375,0,0,1,.17-.0545l.7015.2906a.1317.1317,0,0,0,.1555-.0425,3.1081,3.1081,0,0,1,.5409-.541.133.133,0,0,0,.0427-.1558l-.29-.7012a.1361.1361,0,0,1,.0534-.1679,4.0182,4.0182,0,0,1,.5535-.2835l.0009,0a3.9554,3.9554,0,0,1,.5918-.1909.1359.1359,0,0,1,.1565.0808l.29.7011a.1325.1325,0,0,0,.14.08,3.1047,3.1047,0,0,1,.7652,0,.1327.1327,0,0,0,.14-.08l.2908-.7024a.1368.1368,0,0,1,.1571-.0808,4.0292,4.0292,0,0,1,.5911.1919l.0006,0a4.0547,4.0547,0,0,1,.5536.2823.1362.1362,0,0,1,.0538.1682l-.291.7024a.1322.1322,0,0,0,.0424.1555,3.0937,3.0937,0,0,1,.5414.541.133.133,0,0,0,.1557.0425l.7011-.2906a.1363.1363,0,0,1,.1679.0535,4.0135,4.0135,0,0,1,.2836.5535l0,.001a3.9853,3.9853,0,0,1,.1909.5917.1358.1358,0,0,1-.081.1565l-.7011.2906a.1323.1323,0,0,0-.08.14,3.099,3.099,0,0,1,0,.7651.1324.1324,0,0,0,.08.14l.7025.291a.1364.1364,0,0,1,.0809.157A4.076,4.076,0,0,1,18.0118,12.9284Z"/><path class="cls-2" d="M18.1228,12.18l-.7025-.291a.1324.1324,0,0,1-.08-.14,3.099,3.099,0,0,0,0-.7651.1323.1323,0,0,1,.08-.14l.7011-.2906a.1358.1358,0,0,0,.081-.1565,3.9853,3.9853,0,0,0-.1909-.5917l0-.001a4.0135,4.0135,0,0,0-.2836-.5535.1363.1363,0,0,0-.1679-.0535l-.7011.2906a.133.133,0,0,1-.1557-.0425,3.0937,3.0937,0,0,0-.5414-.541.1322.1322,0,0,1-.0424-.1555l.291-.7024a.1362.1362,0,0,0-.0538-.1682,4.0547,4.0547,0,0,0-.5536-.2823l-.0006,0a4.0292,4.0292,0,0,0-.5911-.1919.1368.1368,0,0,0-.1571.0808l-.2908.7024a.1327.1327,0,0,1-.14.08,3.1047,3.1047,0,0,0-.7652,0,.1325.1325,0,0,1-.14-.08l-.29-.7011a.1359.1359,0,0,0-.1565-.0808,3.9554,3.9554,0,0,0-.5918.1909l-.0009,0a4.0182,4.0182,0,0,0-.5535.2835.1361.1361,0,0,0-.0534.1679l.29.7012a.133.133,0,0,1-.0427.1558,3.1081,3.1081,0,0,0-.5409.541.1317.1317,0,0,1-.1555.0425l-.7015-.2906a.1375.1375,0,0,0-.17.0545,4.1015,4.1015,0,0,0-.4737,1.1433.1376.1376,0,0,0,.0815.1584l.7015.2906a.1324.1324,0,0,1,.08.14,3.1007,3.1007,0,0,0,0,.7653.1325.1325,0,0,1-.08.14l-.7012.29a.1359.1359,0,0,0-.0809.1565,3.8526,3.8526,0,0,0,.4748,1.146.1356.1356,0,0,0,.1679.0535l.7011-.29a.1322.1322,0,0,1,.1556.0427,3.1,3.1,0,0,0,.5415.5408.1323.1323,0,0,1,.0423.1555l-.29.7014a.1375.1375,0,0,0,.0543.17,4.1006,4.1006,0,0,0,1.1434.4736.1379.1379,0,0,0,.1584-.0815l.2906-.7014a.1324.1324,0,0,1,.14-.08,3.1153,3.1153,0,0,0,.7653,0,.1321.1321,0,0,1,.14.08l.29.7012a.1358.1358,0,0,0,.1565.081,3.8636,3.8636,0,0,0,1.1462-.4748.136.136,0,0,0,.0534-.168l-.29-.7012a.1327.1327,0,0,1,.0426-.1557,3.096,3.096,0,0,0,.5409-.5413.1319.1319,0,0,1,.1555-.0422l.7024.2908a.1362.1362,0,0,0,.1683-.0538,4.0466,4.0466,0,0,0,.2823-.5534l0-.0008a4.076,4.076,0,0,0,.1919-.591A.1364.1364,0,0,0,18.1228,12.18Zm-3.388.3794a1.2913,1.2913,0,1,1,.699-1.6873A1.2912,1.2912,0,0,1,14.7348,12.56Z"/><path class="cls-2" d="M21.6805,16.0552l-1.0616-1.8389a.3373.3373,0,0,0-.2922-.1687H18.2035a.3373.3373,0,0,0-.2923.1687L16.85,16.0552a.3373.3373,0,0,0,0,.3374l1.0615,1.8386a.3373.3373,0,0,0,.2923.1687H19.58a8.3138,8.3138,0,0,1,1.1-.2752l1-1.7321A.3373.3373,0,0,0,21.6805,16.0552Zm-2.4154,1.3413a1.1728,1.1728,0,1,1,1.1726-1.1726A1.1725,1.1725,0,0,1,19.2651,17.3965Z"/></svg>