<svg id="Layer_1" data-name="Layer 1" xmlns="http://www.w3.org/2000/svg" viewBox="0 0 32 32"><defs><style>.cls-1{fill:#70c7e0;}.cls-2{fill:#008ab2;}</style></defs><path class="cls-1" d="M27.25,8.8783H16.4577a1.2523,1.2523,0,0,1-.8072-.2954L12.861,6.2235a1.2522,1.2522,0,0,0-.8071-.2954H4.75a1.25,1.25,0,0,0-1.25,1.25V24.8222a1.25,1.25,0,0,0,1.25,1.25H14.7738a3.9439,3.9439,0,0,1-.779-2.0772c0-1.3672,1.3724-3.271,3.3959-4.5659a8.6419,8.6419,0,0,1,4.6041-1.4341,7.9292,7.9292,0,0,1,2.532.4356A9.726,9.726,0,0,1,28.5,21.0131V10.1283A1.25,1.25,0,0,0,27.25,8.8783Z"/><path class="cls-2" d="M21.9951,22.2953h-.5a1.02,1.02,0,0,1,.5.8.8962.8962,0,0,1-.9.9,1.02,1.02,0,0,1-.8-.5v.5a1.71,1.71,0,0,0,1.7,1.8,1.7923,1.7923,0,0,0,1.8-1.8A1.7105,1.7105,0,0,0,21.9951,22.2953Z"/><path class="cls-2" d="M21.9951,19.9955c-3.3,0-6,3-6,4s2.7,4,6,4,6-3,6-4S25.2951,19.9955,21.9951,19.9955Zm0,7a3,3,0,1,1,3-3A2.9463,2.9463,0,0,1,21.9951,26.9955Z"/></svg>