<svg id="Layer_1" data-name="Layer 1" xmlns="http://www.w3.org/2000/svg" viewBox="0 0 24 24"><defs><style>.cls-1{fill:#1467ba;}.cls-2{fill:#fff;}</style></defs><path class="cls-1" d="M12,1A11,11,0,1,1,1,12,11,11,0,0,1,12,1m0-1A12,12,0,1,0,24,12,12,12,0,0,0,12,0Z"/><path class="cls-1" d="M12,4a8,8,0,1,1-8,8,8,8,0,0,1,8-8m0-1a9,9,0,1,0,9,9,9,9,0,0,0-9-9Z"/><path class="cls-1" d="M12,7a5,5,0,1,1-5,5,5,5,0,0,1,5-5m0-1a6,6,0,1,0,6,6,6,6,0,0,0-6-6Z"/><rect class="cls-2" x="10.84" width="2.31" height="24"/><rect class="cls-2" x="10.84" width="2.31" height="24" transform="translate(24) rotate(90)"/><circle class="cls-1" cx="12" cy="12" r="2.09"/></svg>