<svg id="Layer_1" data-name="Layer 1" xmlns="http://www.w3.org/2000/svg" viewBox="0 0 32 32"><defs><style>.cls-1,.cls-3{fill:#8b6747;}.cls-1{opacity:0.2;isolation:isolate;}.cls-2{fill:#fff;}</style></defs><path class="cls-1" d="M14.4188,25.4761H8.9342V23.81h5.084a4.4383,4.4383,0,0,1,.9451-2.1543H8.9342V19.9893h7.68A8.9,8.9,0,0,1,22,18a8.2565,8.2565,0,0,1,3.5.8257V4.5a1,1,0,0,0-1-1H7.5a1.0369,1.0369,0,0,0-1,1v23a1.0369,1.0369,0,0,0,1,1h9.7952A8.5009,8.5009,0,0,1,14.4188,25.4761Z"/><path class="cls-2" d="M16.6138,19.9893h-7.68v1.6662h6.0291A8.9507,8.9507,0,0,1,16.6138,19.9893Z"/><path class="cls-2" d="M14.0182,23.81H8.9342v1.6663h5.4846A3.3375,3.3375,0,0,1,14,24C14,23.9392,14.0128,23.873,14.0182,23.81Z"/><path class="cls-3" d="M21.4248,15.0921,18.06,11.7268a3.4331,3.4331,0,0,0-.8556-3.9358A4.256,4.256,0,0,0,13.696,6.5077a1.2379,1.2379,0,0,0-.5134.114c-.1426.1141,0,.2282.057.2852l.656.656.2852.2852.3422.3422.5134.5134.1426.1426a.4812.4812,0,0,1,.1141.3993l-.3708,1.34a.4583.4583,0,0,1-.1141.2.5937.5937,0,0,1-.1711.1141l-1.3689.3422a.3948.3948,0,0,1-.3993-.0855l-.1426-.1426L12.2129,10.5l-.3422-.3422-.2852-.2852-.656-.656c-.057-.057-.1711-.2-.2852-.057a1.2379,1.2379,0,0,0-.114.5134,4.2558,4.2558,0,0,0,1.2834,3.5079,3.4329,3.4329,0,0,0,3.9357.8556l2.7094,2.7094.6559.6559a.2757.2757,0,0,0,.3993,0l1.9108-1.9108A.2757.2757,0,0,0,21.4248,15.0921Z"/><path class="cls-3" d="M23.7951,23.9952a1.7926,1.7926,0,0,1-1.8,1.8,1.71,1.71,0,0,1-1.7-1.8v-.5a1.02,1.02,0,0,0,.8.5.8962.8962,0,0,0,.9-.9,1.02,1.02,0,0,0-.5-.8h.5A1.71,1.71,0,0,1,23.7951,23.9952Z"/><path class="cls-3" d="M21.9951,19.9952c-3.3,0-6,3-6,4s2.7,4,6,4,6-3,6-4S25.2951,19.9952,21.9951,19.9952Zm0,7a3,3,0,1,1,3-3A2.9463,2.9463,0,0,1,21.9951,26.9952Z"/><path class="cls-2" d="M21.9951,20.9952a3,3,0,1,0,3,3A2.9465,2.9465,0,0,0,21.9951,20.9952Zm0,4.8a1.71,1.71,0,0,1-1.7-1.8v-.5a1.02,1.02,0,0,0,.8.5.8962.8962,0,0,0,.9-.9,1.02,1.02,0,0,0-.5-.8h.5a1.71,1.71,0,0,1,1.8,1.7A1.7926,1.7926,0,0,1,21.9951,25.7953Z"/></svg>