<svg id="Layer_1" data-name="Layer 1" xmlns="http://www.w3.org/2000/svg" viewBox="0 0 32 32"><defs><style>.cls-1{fill:none;}.cls-2,.cls-3{fill:#f2aa00;}.cls-3{opacity:0.4;}.cls-4{fill:#777;}.cls-5{fill:#fff;}</style></defs><circle class="cls-1" cx="23.75" cy="25.95001" r="0.70001"/><polygon class="cls-1" points="11.75 9.55 11.75 9.554 11.75 9.549 11.75 9.55"/><path class="cls-1" d="M8.95,25.25a.84239.84239,0,0,0-.7.7.7.7,0,1,0,.7-.7Z"/><path class="cls-2" d="M13.95,7.35a2.21944,2.21944,0,0,0-2.2,2.1994l.00031.00421a2.114,2.114,0,0,0,.37786,1.16028c.00831.01153.01313.023.02179.03454h3.601A1.92184,1.92184,0,0,0,16.15,9.55,2.21953,2.21953,0,0,0,13.95,7.35Z"/><rect class="cls-2" x="19.25" y="9.15002" width="5.20001" height="1.79999"/><path class="cls-3" d="M20.85,13.45h2.2a3.35218,3.35218,0,0,1,.78345.08478A2.13339,2.13339,0,0,1,24.45,13.75a4.70058,4.70058,0,0,1,1.2.9l2.3,2.7V5.65a1.774,1.774,0,0,0-1.8-1.7H8.75a1.774,1.774,0,0,0-1.8,1.7v5.1h5.2c-.00744-.01111-.0144-.02472-.02179-.03613a2.114,2.114,0,0,1-.37786-1.16028L11.75,9.55l.00006-.00061a2.2,2.2,0,0,1,4.4.00061,1.92184,1.92184,0,0,1-.399,1.19842L15.75,10.75h.6a3.426,3.426,0,0,1,3.3,2.7Zm-1.6-4.3h5.2v1.8h-5.2Z"/><path class="cls-4" d="M16.35,12.85h-11a1.36709,1.36709,0,0,0-1.4,1.4v11.6h1.6a3.5,3.5,0,0,1,7,0H17.85V14.25A1.52,1.52,0,0,0,16.35,12.85Z"/><path class="cls-4" d="M8.95,23.85a2.11228,2.11228,0,0,0-2.1,2.1,2.16477,2.16477,0,0,0,2.1,2,2.11228,2.11228,0,0,0,2.1-2.1A2.02957,2.02957,0,0,0,8.95,23.85Zm0,2.8a.68356.68356,0,0,1-.7-.7.84239.84239,0,0,1,.7-.7.7.7,0,0,1,0,1.4Z"/><path class="cls-4" d="M23.75,23.85a2.1,2.1,0,0,0,0,4.2,2.05061,2.05061,0,0,0,2.1-2.1A2.17988,2.17988,0,0,0,23.75,23.85Zm0,2.8a.7.7,0,1,1,.7-.7A.68359.68359,0,0,1,23.75,26.65Z"/><path class="cls-4" d="M27.65,20.05l-3.5-4.1a1.60587,1.60587,0,0,0-1.1-.5h-2.2a1.367,1.367,0,0,0-1.4,1.4v9h.8a3.50294,3.50294,0,0,1,7-.2,1.33988,1.33988,0,0,0,.8-1.3v-3.4A3.55065,3.55065,0,0,0,27.65,20.05Zm-6.8.5v-3.6h2.2l3.1,3.6Z"/><polygon class="cls-5" points="20.85 16.95 20.85 20.55 26.15 20.55 23.05 16.95 20.85 16.95"/></svg>