<svg id="Layer_1" data-name="Layer 1" xmlns="http://www.w3.org/2000/svg" viewBox="0 0 64 64"><defs><style>.cls-1,.cls-2{fill:#fff;}.cls-2{opacity:0.6;isolation:isolate;}</style></defs><path class="cls-1" d="M28.4084,22.8165a25.1861,25.1861,0,0,1-3.383,1.3886,3.4563,3.4563,0,0,0-2.5872,3.0059v2.8911h2.8993c2.9279,0,5.0887-1.6724,5.0887-3.94A3.9479,3.9479,0,0,0,28.4084,22.8165Z"/><path class="cls-1" d="M25.2815,21.6236c2.5015-.8218,3.7236-1.8994,3.7236-3.3164a2.0991,2.0991,0,0,0-2.36-2.07H22.4382v6.9184l.0858-.001C22.8087,22.6158,23.5758,22.1622,25.2815,21.6236Z"/><path class="cls-1" d="M43,18.7921V10.3A2.9125,2.9125,0,0,0,40.25,7.25H10.75A2.9126,2.9126,0,0,0,8,10.3V35.6915a2.9129,2.9129,0,0,0,2.75,3.0512h29.5A2.913,2.913,0,0,0,43,35.6915V18.7921ZM25.565,32.54H19.88V13.8H26.93c2.8707,0,4.7754,1.7583,4.7754,4.3945a4.339,4.339,0,0,1-1.3366,3.2324,5.7087,5.7087,0,0,1,2.7576,4.8477C33.1265,29.8467,29.8866,32.54,25.565,32.54Z"/><path class="cls-2" d="M20,55.24a1.4441,1.4441,0,0,0,1.44,1.44H54.56A1.4441,1.4441,0,0,0,56,55.24V37.7442a.4644.4644,0,0,0-.432-.4321.4339.4339,0,0,0-.2879.0717c-1.5841,1.3682-3.8161,3.168-10.8,8.5684-.216.1436-.432.36-.72.5757C42.32,47.68,40.16,49.48,38,49.48s-4.248-1.728-5.76-2.9521c-.2879-.2158-.5039-.4321-.72-.5757-2.2692-1.7524-4.0262-3.1191-5.4184-4.21H20Z"/><path class="cls-1" d="M40.25,41.7422H29.9c.8661.6753,1.8324,1.4263,2.9158,2.2657a3.967,3.967,0,0,1,.648.5039h.072C34.76,45.52,36.632,47.1041,38,47.1041s3.24-1.5122,4.464-2.52v-.0722h.072a3.9633,3.9633,0,0,1,.6481-.5039c8.7839-6.84,9.9359-7.7759,11.8079-9.36l.36-.2881A1.9184,1.9184,0,0,0,56,32.92V30.76a1.4441,1.4441,0,0,0-1.44-1.44H46v6.3716A5.9129,5.9129,0,0,1,40.25,41.7422Z"/></svg>