<svg id="Layer_1" data-name="Layer 1" xmlns="http://www.w3.org/2000/svg" viewBox="0 0 64 64"><defs><style>.cls-1{fill:#fff;}.cls-2{opacity:0.6;}</style></defs><polygon class="cls-1" points="53.07 10.01 53.07 10.01 45.3 14.47 48.76 16.48 48.79 16.5 43.94 24.88 29.56 18.26 13 31.12 13 35.4 30.01 22.18 45.32 29.23 51.72 18.2 55.21 20.22 55.22 13.64 55.22 11.25 55.23 9.32 55.23 8.77 53.07 10.01"/><path class="cls-1" d="M55.5,57H8.5A1.5,1.5,0,0,1,7,55.5V8.5a1.5,1.5,0,0,1,3,0V54H55.5a1.5,1.5,0,0,1,0,3Z"/><g class="cls-2"><polygon class="cls-1" points="28.58 50.99 39.65 50.99 39.65 30.34 30.46 26.11 28.58 27.57 28.58 50.99"/><polygon class="cls-1" points="25.58 29.91 13 39.67 13 50.99 25.58 50.99 25.58 29.91"/><polygon class="cls-1" points="52.94 22.81 46.68 33.58 42.65 31.73 42.65 50.99 55.21 50.99 55.21 24.12 52.94 22.81"/></g></svg>