<svg id="Layer_1" data-name="Layer 1" xmlns="http://www.w3.org/2000/svg" viewBox="0 0 32 32"><defs><style>.cls-1,.cls-2{fill:#ca0821;}.cls-1{opacity:0.2;isolation:isolate;}.cls-3{fill:#fff;}</style></defs><path class="cls-1" d="M14,24c0-1.25,1.15-2.95,2.89-4.22h-2.4V18.23h5.68A8,8,0,0,1,22,18a8.15,8.15,0,0,1,3.5.83V10.5h-6a1,1,0,0,1-1-1v-6H7.5a1,1,0,0,0-1,1v23a1,1,0,0,0,1,1h9.8C15.33,27.21,14,25.34,14,24Zm8.75-10.77v1.55H14.49V13.23ZM9.64,7.3a1,1,0,0,1,1-1H15A1,1,0,0,1,16,7.3V9.48a1,1,0,0,1-1.05,1H10.68a1,1,0,0,1-1-1ZM11,25.51A1.5,1.5,0,1,1,12.5,24,1.5,1.5,0,0,1,11,25.51Zm0-5A1.5,1.5,0,1,1,12.5,19,1.5,1.5,0,0,1,11,20.51Zm0-5A1.5,1.5,0,1,1,12.5,14,1.5,1.5,0,0,1,11,15.51Z"/><path class="cls-2" d="M20.5,9h5V8L21,3.5H20v5C20,8.8,20,9,20.5,9Z"/><circle class="cls-3" cx="11" cy="14.01" r="1.5"/><circle class="cls-3" cx="11" cy="19.01" r="1.5"/><circle class="cls-3" cx="11" cy="24.01" r="1.5"/><path class="cls-2" d="M14.49,19.78h2.4a9.46,9.46,0,0,1,3.28-1.55H14.49Z"/><rect class="cls-2" x="14.49" y="13.23" width="8.26" height="1.55"/><rect class="cls-2" x="9.64" y="6.25" width="6.36" height="4.27" rx="1.05"/><path class="cls-2" d="M22,22.3h-.5a1,1,0,0,1,.5.8.9.9,0,0,1-.9.9,1,1,0,0,1-.8-.5V24A1.71,1.71,0,0,0,22,25.8,1.79,1.79,0,0,0,23.8,24,1.71,1.71,0,0,0,22,22.3Z"/><path class="cls-2" d="M22,20c-3.3,0-6,3-6,4s2.7,4,6,4,6-3,6-4S25.3,20,22,20Zm0,7a3,3,0,1,1,3-3A2.95,2.95,0,0,1,22,27Z"/></svg>