<svg id="Layer_1" data-name="Layer 1" xmlns="http://www.w3.org/2000/svg" viewBox="0 0 32 32"><defs><style>.cls-1,.cls-2{fill:#823591;}.cls-2{opacity:0.4;}</style></defs><path class="cls-1" d="M24.4,12.07,26,10.57a.6.6,0,0,0,0-.7L24.5,8.42a.6.6,0,0,0-.7,0L22.3,10a10.27,10.27,0,0,0-4.8-2V6.37H19a.47.47,0,0,0,.5-.5V4.37a.47.47,0,0,0-.5-.5H13a.48.48,0,0,0-.5.5v1.5a.48.48,0,0,0,.5.5h1.5V8a10.52,10.52,0,0,0-9,10.4A10.37,10.37,0,0,0,16,28.87a10.37,10.37,0,0,0,10.5-10.5A10.59,10.59,0,0,0,24.4,12.07ZM16,26.87a8.62,8.62,0,0,1-8.5-8.5,8.5,8.5,0,0,1,17,0A8.62,8.62,0,0,1,16,26.87Z"/><path class="cls-1" d="M21.32,20.5s0,0,0,.05S21.32,20.52,21.32,20.5Z"/><path class="cls-2" d="M21.34,16.29a.49.49,0,0,1,0-.11,7.14,7.14,0,0,0-.43-.82c-.06-.09-.12-.19-.19-.28a6.11,6.11,0,0,0-.51-.63l-.28-.27a4.43,4.43,0,0,0-.59-.48,2,2,0,0,0-.31-.2,3.72,3.72,0,0,0-.71-.38L18,13a6.4,6.4,0,0,0-.85-.26l-.17,0a5.69,5.69,0,0,0-1-.1c-.12,0-.24,0-.36,0A5.63,5.63,0,0,0,12.39,14l-1-1-1.15,4.3,4.31-1.15-.92-.92A3.93,3.93,0,0,1,16,14.4c.13,0,.25,0,.38,0a2.52,2.52,0,0,1,.47.06l.17.05a4,4,0,0,1,2.8,2.81c0,.08.06.16.08.25s0,.17,0,.26a4,4,0,0,1,0,.5,3.91,3.91,0,0,1,0,.48c0,.09,0,.19,0,.29a3.45,3.45,0,0,1-.12.43c0,.1-.06.21-.1.32a3.47,3.47,0,0,1-.18.33c-.06.12-.12.25-.19.36s-.16.19-.23.29-.16.21-.26.31a4.06,4.06,0,0,1-1.17.8l-.1.05a2.57,2.57,0,0,1-.47.15l-.28.09c-.1,0-.21,0-.31,0a3.88,3.88,0,0,1-.48,0,3.13,3.13,0,0,1-.44,0,2,2,0,0,1-.35,0,2.17,2.17,0,0,1-.24-.07,2.76,2.76,0,0,1-.51-.16l-.05,0a4,4,0,0,1-1.22-.83l-.33-.32-1.23,1.23.37.39a6.61,6.61,0,0,0,.77.63l.14.09a5.31,5.31,0,0,0,.85.45l.14.05a4.53,4.53,0,0,0,.95.29l.08,0a6,6,0,0,0,1.05.1h0A5.27,5.27,0,0,0,17.07,24h.08a5.31,5.31,0,0,0,1-.29l.12,0a6.1,6.1,0,0,0,.87-.47.41.41,0,0,0,.11-.07,5.08,5.08,0,0,0,.81-.66l.06-.06a6.11,6.11,0,0,0,.69-.85.56.56,0,0,0,.05-.08,5.41,5.41,0,0,0,.49-.92s0,0,0-.05A5.77,5.77,0,0,0,21.34,16.29Z"/></svg>