<svg id="Layer_1" data-name="Layer 1" xmlns="http://www.w3.org/2000/svg" viewBox="0 0 32 32"><defs><style>.cls-1,.cls-2{fill:#00b050;}.cls-1{opacity:0.2;isolation:isolate;}</style></defs><path class="cls-1" d="M25.4951,4.4964v14.33a8.3015,8.3015,0,0,0-3.5-.83,7.7091,7.7091,0,0,0-2.35.38,8.22,8.22,0,0,0-.83.3,9.8183,9.8183,0,0,0-3.4,2.42c-.72-.5-1.17-1.56-1.35-3.22h1.63l.26-.96h-1.97v-1.75h2.52l.27-.96h-2.71c.26-2.42,1.06-3.63,2.42-3.63a1.973,1.973,0,0,1,1.61.75,4.0325,4.0325,0,0,1,.77,2.07h1.72a5.1535,5.1535,0,0,0-1.31-3.07,3.6984,3.6984,0,0,0-2.79-1.08c-2.43,0-3.82,1.66-4.16,4.96h-.91v.96h.83v1.75h-.83v.96h.91c.25,2.25,1.01,3.7,2.24,4.39a3.5619,3.5619,0,0,0-.57,1.73c0,1.22,1.1,2.87,2.76,4.13a.9473.9473,0,0,1-.75.37c-1.19,0-1.19-2-2.37-2-.59,0-.89.5-1.19,1s-.6,1-1.19,1c-1.19,0-1.19-2-2.38-2s-1.19,2-2.37,2h-.01v-24a1.0368,1.0368,0,0,1,1-1h17A.9965.9965,0,0,1,25.4951,4.4964Z"/><path class="cls-2" d="M20.5851,13.3965h-1.72a4.0325,4.0325,0,0,0-.77-2.07,1.973,1.973,0,0,0-1.61-.75c-1.36,0-2.16,1.21-2.42,3.63h2.71l-.27.96h-2.52v1.75h1.97l-.26.96h-1.63c.18,1.66.63,2.72,1.35,3.22a7.1888,7.1888,0,0,0-.85,1.17c-1.23-.69-1.99-2.14-2.24-4.39h-.91v-.96h.83v-1.75h-.83v-.96h.91c.34-3.3,1.73-4.96,4.16-4.96a3.6984,3.6984,0,0,1,2.79,1.08A5.1535,5.1535,0,0,1,20.5851,13.3965Z"/><path class="cls-2" d="M22,28l.03-.0016H21.97Z"/><path class="cls-2" d="M22.0941,22.3083c-.0319-.0015-.062-.0083-.0943-.0083h-.5a1.02,1.02,0,0,1,.5.8.8963.8963,0,0,1-.9.9,1.02,1.02,0,0,1-.8-.5V24a1.887,1.887,0,0,0,.3637,1.1276A1.6284,1.6284,0,0,0,22,25.8,1.7925,1.7925,0,0,0,23.8,24,1.6973,1.6973,0,0,0,22.0941,22.3083Z"/><path class="cls-2" d="M25.1037,20.8656a6.483,6.483,0,0,0-2.8933-.8539C22.14,20.009,22.0708,20,22,20a5.93,5.93,0,0,0-1.91.3313,6.9863,6.9863,0,0,0-4.0331,3.389A.96.96,0,0,0,16,24a.8166.8166,0,0,0,.0157.1058c.1623,1.0823,2.7721,3.875,5.9546,3.8926h.0593a6.4038,6.4038,0,0,0,3.05-.8505C26.8235,26.1827,28,24.659,28,24,28,23.3441,26.8343,21.8315,25.1037,20.8656ZM22,27a2.9353,2.9353,0,0,1-2.7878-1.8724A3.1045,3.1045,0,0,1,19,24a3.0235,3.0235,0,0,1,.5451-1.75A3.0062,3.0062,0,1,1,22,27Z"/></svg>