<svg id="Layer_1" data-name="Layer 1" xmlns="http://www.w3.org/2000/svg" viewBox="0 0 32 32"><defs><style>.cls-1{fill:#00b050;}.cls-2{fill:red;}</style></defs><path class="cls-1" d="M20.27833,24.32907l.79394-.79394-.79394-.79493a2.30222,2.30222,0,0,1,0-3.252l1.24511-1.24512a2.29989,2.29989,0,0,1,3.25293,0l.79395.79395.79394-.79395a2.284,2.284,0,0,1,1.626-.67382,2.32926,2.32926,0,0,1,.50977.06152V10.1279a1.24993,1.24993,0,0,0-1.24994-1.25H16.45765a1.2493,1.2493,0,0,1-.80713-.29541L12.861,6.2236a1.24926,1.24926,0,0,0-.80707-.29541h-7.304A1.24988,1.24988,0,0,0,3.5,7.17819V24.82224a1.24988,1.24988,0,0,0,1.24987,1.25h14.866c-.002-.03956-.01141-.07715-.01141-.11719A2.284,2.284,0,0,1,20.27833,24.32907Z"/><path class="cls-2" d="M29.44746,21.32663a.3.3,0,0,0,0-.42432L28.5,19.95505l-.29743-.29785a.29992.29992,0,0,0-.42425,0l-2.20825,2.20849-2.2082-2.20849a.29992.29992,0,0,0-.42425,0l-1.24494,1.24511a.30014.30014,0,0,0,0,.42432l2.20826,2.208-2.20826,2.208a.28454.28454,0,0,0-.0393.32959c.01446.03173.01306.06884.0393.09472l1.24494,1.24512a.29992.29992,0,0,0,.42425,0l1.33991-1.33984.86829-.86866.86828.86866,1.34,1.33984a.29992.29992,0,0,0,.42425,0L29.44746,26.167a.3.3,0,0,0,0-.42431L28.5,24.79538l-1.26075-1.26074L28.5,22.2739Z"/></svg>