<svg id="Layer_1" data-name="Layer 1" xmlns="http://www.w3.org/2000/svg" viewBox="0 0 64 64"><defs><style>.cls-1{opacity:0.6;}.cls-2{fill:#fff;}</style></defs><g class="cls-1"><path class="cls-2" d="M43.45,10.07H20.55a2.11,2.11,0,0,0-1.82,1L7.28,31a2.13,2.13,0,0,0,0,2.1L18.73,52.88a2.11,2.11,0,0,0,1.82,1h22.9a2.11,2.11,0,0,0,1.82-1L56.72,33.05a2.13,2.13,0,0,0,0-2.1L45.27,11.12A2.11,2.11,0,0,0,43.45,10.07Z"/></g><path class="cls-2" d="M27.85,34.08V19.54c0-.62,0-1,1-1h6.24c1,0,1,.42,1,1V34.08c0,.62,0,1-1,1H28.88C27.85,35.12,27.85,34.7,27.85,34.08Zm0,10.38V40.31c0-.63,0-1,1-1h6.24c1,0,1,.41,1,1v4.15c0,.62,0,1-1,1H28.88C27.85,45.5,27.85,45.08,27.85,44.46Z"/></svg>