<svg id="Layer_1" data-name="Layer 1" xmlns="http://www.w3.org/2000/svg" viewBox="0 0 32 32"><defs><style>.cls-1{fill:#70c7e0;}.cls-2{fill:#008ab2;isolation:isolate;}</style></defs><circle class="cls-1" cx="7.4538" cy="23.8005" r="4"/><polygon class="cls-1" points="24.567 19.3 19.948 27.3 29.186 27.3 24.567 19.3"/><path class="cls-2" d="M17,18.2888v-4.532H15v4.532l-2.9256,1.689a5.9956,5.9956,0,0,1,.9968,1.7341L16,20.021l4.381,2.5293,1-1.7322Z"/><path class="cls-1" d="M20.4982,12.257h-9a.5.5,0,0,1-.5-.5V4.6994a.5.5,0,0,1,.5-.5H14.42a.4994.4994,0,0,1,.3228.1182l1.1159.9435a.4994.4994,0,0,0,.3228.1182h4.317a.5.5,0,0,1,.5.5V11.757A.5.5,0,0,1,20.4982,12.257Z"/></svg>