<svg id="Layer_1" data-name="Layer 1" xmlns="http://www.w3.org/2000/svg" viewBox="0 0 32 32"><defs><style>.cls-1,.cls-2{fill:#66bb6a;}.cls-1{opacity:0.4;}</style></defs><path class="cls-1" d="M14.12972,21.33467c.08435-.46478.18641-.92676.27594-1.38916h-.51587l-.532,2.59735h1.05078a6.61741,6.61741,0,0,1,.81256-1.20819Z"/><path class="cls-1" d="M12.87039,19.94551H8.57327a.772.772,0,0,0-.65772.3678l-1.20221,1.9563-.168.27325h5.79291Z"/><path class="cls-1" d="M28.30813,27.18635a9.72023,9.72023,0,0,1-1.58392,1.3003h1.00262a.7719.7719,0,0,0,.65765-1.17609Z"/><path class="cls-1" d="M13.9996,24.00026a2.41536,2.41536,0,0,1,.048-.4585H13.1531l-1.01294,4.94489H17.275C15.31826,27.19435,13.9996,25.34,13.9996,24.00026Z"/><path class="cls-1" d="M5.62411,24.04207l-.22962.37359-.90564,1.4737-.87335,1.4212a.77191.77191,0,0,0,.65766,1.17609h6.84759l1.01294-4.94489H5.93154Z"/><path class="cls-2" d="M15.22109,21.33467a9.29887,9.29887,0,0,1,1.69043-1.5744,8.17367,8.17367,0,0,1-.14666-1.15564,9.97253,9.97253,0,0,1,.1759-1.58667.23705.23705,0,0,1,.06317-.13568c.36206-.33509.728-.666,1.10132-1.00568a7.22161,7.22161,0,0,0,.87463.31043,2.59443,2.59443,0,0,0,3.11371-2.12739.24389.24389,0,0,1,.16126-.21557,2.53967,2.53967,0,0,0,1.53155-1.97363,2.4752,2.4752,0,0,0-.51367-2.01191.2799.2799,0,0,1-.05536-.29626,2.59738,2.59738,0,0,0-2.02093-3.33655.33959.33959,0,0,1-.287-.22168,2.59341,2.59341,0,0,0-3.53729-1.2348c-.05115.02618-.10315.05066-.15979.07837a1.0035,1.0035,0,0,1-.06763-.08374,2.59511,2.59511,0,0,0-1.90833-1.22736.32489.32489,0,0,1-.06439-.02319H14.615a5.67435,5.67435,0,0,0-.64575.1831,2.567,2.567,0,0,0-1.59247,1.84394c-.01251.05017-.02539.10022-.03705.14605-.26226.01667-.52386.01264-.77844.05292A2.60243,2.60243,0,0,0,9.40182,8.359a.26992.26992,0,0,1-.124.25806,2.53535,2.53535,0,0,0-1.0749,1.93817,1.60969,1.60969,0,0,1-.02923.16724v.03485c.04108.23291.06628.47.12646.69787a2.41877,2.41877,0,0,0,.74024,1.19513.32637.32637,0,0,1,.11889.26722,2.60719,2.60719,0,0,0,3.68213,2.36871.23121.23121,0,0,1,.25342.02368,5.71544,5.71544,0,0,0,.64984.40192c.23969.11822.49829.198.81806.32135a26.00038,26.00038,0,0,1,.0318,2.63055,11.6683,11.6683,0,0,1-.18885,1.28174c-.08953.4624-.19159.92438-.27594,1.38916Z"/><path class="cls-2" d="M21.99976,22.3h-.5a1.01974,1.01974,0,0,1,.5.8.89626.89626,0,0,1-.9.9,1.01974,1.01974,0,0,1-.8-.5V24a1.71035,1.71035,0,0,0,1.7,1.8,1.79252,1.79252,0,0,0,1.8-1.8A1.71035,1.71035,0,0,0,21.99976,22.3Z"/><path class="cls-2" d="M21.99976,20c-3.3,0-6,3-6,4s2.7,4,6,4,6-3,6-4S25.29976,20,21.99976,20Zm0,7a3,3,0,1,1,3-3A2.94645,2.94645,0,0,1,21.99976,27Z"/></svg>