<svg id="Layer_1" data-name="Layer 1" xmlns="http://www.w3.org/2000/svg" viewBox="0 0 32 32"><defs><style>.cls-1{fill:none;}.cls-2,.cls-3{fill:#00b050;}.cls-2{opacity:0.2;isolation:isolate;}</style></defs><path class="cls-1" d="M19.81,22.65l-.31-.32A3,3,0,0,0,19,24a3.24,3.24,0,0,0,.21,1.13A3,3,0,1,0,22,21h-.06L20.3,22.65A.36.36,0,0,1,19.81,22.65ZM21.1,24a.9.9,0,0,0,.9-.9,1,1,0,0,0-.5-.8h.59A1.69,1.69,0,0,1,23.8,24,1.79,1.79,0,0,1,22,25.8a1.63,1.63,0,0,1-1.34-.67A2,2,0,0,1,20.3,24v-.5A1,1,0,0,0,21.1,24Z"/><path class="cls-2" d="M10.85,17.46a5.22,5.22,0,0,1-1.58-4.3,1.5,1.5,0,0,1,.14-.63c.14-.18.28,0,.35.07l.81.8.35.35.42.42.63.63.17.18a.5.5,0,0,0,.49.1l1.68-.42a.64.64,0,0,0,.21-.14.53.53,0,0,0,.14-.24l.46-1.65a.64.64,0,0,0-.14-.49L14.8,12l-.63-.63-.42-.42-.35-.35-.8-.81c-.07-.07-.25-.21-.07-.35a1.5,1.5,0,0,1,.63-.14,5.22,5.22,0,0,1,4.3,1.58,4.2,4.2,0,0,1,1.05,4.83l2.41,2.41A6.38,6.38,0,0,1,22,18a8.3,8.3,0,0,1,3.5.83V4.5a1,1,0,0,0-1-1H7.5a1,1,0,0,0-1,1v24h0c1.18,0,1.18-2,2.37-2s1.19,2,2.38,2c.59,0,.89-.5,1.19-1s.6-1,1.19-1c1.18,0,1.18,2,2.37,2a1,1,0,0,0,.75-.37C15.1,26.87,14,25.22,14,24a3.56,3.56,0,0,1,.57-1.73,7.19,7.19,0,0,1,.85-1.17,9.39,9.39,0,0,1,1.5-1.35l-1.24-1.24A4.2,4.2,0,0,1,10.85,17.46Z"/><path class="cls-3" d="M22,28h0Z"/><path class="cls-3" d="M20.3,24a2,2,0,0,0,.36,1.13A1.63,1.63,0,0,0,22,25.8,1.79,1.79,0,0,0,23.8,24a1.69,1.69,0,0,0-1.71-1.69H21.5a1,1,0,0,1,.5.8.9.9,0,0,1-.9.9,1,1,0,0,1-.8-.5Z"/><path class="cls-3" d="M19.65,18.38a6.88,6.88,0,0,1,1.27-.29l-2.41-2.41a4.2,4.2,0,0,0-1.05-4.83,5.22,5.22,0,0,0-4.3-1.58,1.5,1.5,0,0,0-.63.14c-.18.14,0,.28.07.35l.8.81.35.35.42.42.63.63.18.17a.64.64,0,0,1,.14.49l-.46,1.65a.53.53,0,0,1-.14.24.64.64,0,0,1-.21.14l-1.68.42a.5.5,0,0,1-.49-.1L12,14.8l-.63-.63-.42-.42-.35-.35-.81-.8c-.07-.07-.21-.25-.35-.07a1.5,1.5,0,0,0-.14.63,5.22,5.22,0,0,0,1.58,4.3,4.2,4.2,0,0,0,4.83,1.05l1.24,1.24a9.73,9.73,0,0,1,1.9-1.07A8.22,8.22,0,0,1,19.65,18.38Z"/><path class="cls-3" d="M25.1,20.87a6.41,6.41,0,0,0-2.36-.8c-.17,0-.35-.05-.53-.06H22a6,6,0,0,0-1.91.33,7.58,7.58,0,0,0-1.73.87,6,6,0,0,0-2.3,2.52A.79.79,0,0,0,16,24a.52.52,0,0,0,0,.11C16.18,25.19,18.79,28,22,28H22a6.5,6.5,0,0,0,3-.85C26.82,26.18,28,24.66,28,24S26.83,21.83,25.1,20.87ZM22,27a2.94,2.94,0,0,1-2.79-1.87A3.24,3.24,0,0,1,19,24a3,3,0,0,1,.5-1.67s0,0,0-.08A3,3,0,0,1,21.94,21H22a3,3,0,0,1,0,6Z"/></svg>