<svg id="Layer_1" data-name="Layer 1" xmlns="http://www.w3.org/2000/svg" viewBox="0 0 64 64"><defs><style>.cls-1,.cls-2{fill:#fff;}.cls-2{opacity:0.6;}</style></defs><path class="cls-1" d="M14.6766,13.98l2.8373,2.8373a20.99,20.99,0,1,1-.3676,30.0306l-2.8284,2.8284A25,25,0,1,0,14.6766,13.98Z"/><path class="cls-2" d="M32.4948,7.0089v4.0126A20.99,20.99,0,1,1,11,31.9964H7A25,25,0,1,0,32.4948,7.0089Z"/><polygon class="cls-1" points="7.851 23.701 20.953 20.19 11.361 10.599 7.851 23.701"/><path class="cls-1" d="M37.7753,30.0867a4.7449,4.7449,0,0,0,1.4619-3.5356c0-2.8834-2.0834-4.8065-5.2233-4.8065H26.302v20.498h6.2187c4.727,0,8.2709-2.9457,8.2709-6.8531A6.2452,6.2452,0,0,0,37.7753,30.0867Zm-8.6747,1.8915V24.4109h4.6019a2.2959,2.2959,0,0,1,2.5811,2.2636c0,1.55-1.3368,2.7287-4.0729,3.6279-1.8658.5886-2.7049,1.085-3.0163,1.6749l-.0938.0009v0Zm3.1713,7.598H29.1006V36.4135a3.7807,3.7807,0,0,1,2.83-3.2875,27.5179,27.5179,0,0,0,3.7-1.519,4.3177,4.3177,0,0,1,2.2071,3.6591C37.8379,37.7467,35.4744,39.5762,32.2719,39.5762Z"/></svg>