<?xml version="1.0" encoding="utf-8"?>
<!-- Generator: Adobe Illustrator 24.2.0, SVG Export Plug-In . SVG Version: 6.00 Build 0)  -->
<svg version="1.1" id="Layer_1" xmlns="http://www.w3.org/2000/svg" xmlns:xlink="http://www.w3.org/1999/xlink" x="0px" y="0px"
	 viewBox="0 0 32 32" style="enable-background:new 0 0 32 32;" xml:space="preserve">
<style type="text/css">
	.st0{fill:#005DED;}
	.st1{fill:#AA8A30;}
	.st2{fill:#1565C0;}
	.st3{fill:#D32F2F;}
	.st4{fill:#66BB6A;}
	.st5{fill:#0A4466;}
	.st6{fill:#8E24AA;}
	.st7{fill:#161616;}
	.st8{fill:#3E87CF;}
	.st9{fill:#E03C24;}
	.st10{fill:#9BC6F2;}
	.st11{fill:#777777;}
	.st12{fill:#2576C7;}
	.st13{fill:#FFFFFF;}
	.st14{opacity:0.6;fill:#2576C7;enable-background:new    ;}
	.st15{opacity:0.6;fill:#FFFFFF;enable-background:new    ;}
	.st16{opacity:0.6;fill:#FFFFFF;}
	.st17{fill:#FFE39D;}
	.st18{fill:#ED9C26;}
	.st19{opacity:0.4;fill:#0A4466;}
	.st20{opacity:0.4;fill:#00796B;}
	.st21{fill:#00796B;}
	.st22{fill:none;}
	.st23{fill:#690000;}
	.st24{fill:#A08165;}
	.st25{fill:#D8C4B3;}
	.st26{fill:#FFD4FF;}
	.st27{opacity:0.6;fill:none;stroke:#FFFFFF;stroke-width:4;stroke-linecap:round;stroke-miterlimit:10;}
	.st28{fill:#571B6D;}
	.st29{opacity:0.4;fill:#571B6D;}
	.st30{opacity:0.6;fill:#571B6D;}
	.st31{fill:#CA0821;}
	.st32{opacity:0.2;fill:#CA0821;enable-background:new    ;}
	.st33{fill:#CA0821;enable-background:new    ;}
	.st34{opacity:0.4;}
	.st35{opacity:0.6;fill:#CA0821;enable-background:new    ;}
	.st36{opacity:0.6;enable-background:new    ;}
	.st37{opacity:0.6;}
	.st38{opacity:0.6;fill:#3E87CF;}
	.st39{fill:#283593;}
	.st40{opacity:0.4;fill:#777777;}
	.st41{opacity:0.4;fill:#283593;}
	.st42{opacity:0.4;fill:#1565C0;}
	.st43{opacity:0.6;fill:#1565C0;}
	.st44{opacity:0.4;fill:#D32F2F;}
	.st45{opacity:0.4;fill:#66BB6A;}
	.st46{opacity:0.4;fill:#AA8A30;}
	.st47{opacity:0.4;fill:#777777;enable-background:new    ;}
	.st48{fill:#9F8165;}
	.st49{opacity:0.4;fill:#9F8165;}
	.st50{fill:#FF7600;}
	.st51{opacity:0.4;fill:#FF7600;}
	.st52{fill:#FBFAFD;}
	.st53{fill:#3606B7;}
	.st54{opacity:0.4;fill:#005DED;}
	.st55{fill:#FF7962;}
	.st56{opacity:0.4;fill:#FF7962;}
	.st57{opacity:0.4;fill:#3606B7;}
	.st58{opacity:0.4;fill:#FFFFFF;}
</style>
<g>
	<path class="st11" d="M18.3,18.9c0.5-0.8,1-1.5,1.6-2.3c0.4-0.6,0.4-1,0-1.7c-1.3-2-2.7-4-4-6c-1.1-1.6-2.1-3.2-3.2-4.8
		c-0.3-0.4-0.6-0.7-1.1-0.7c-2.3,0-4.5,0-6.8,0C4.3,3.5,4,3.8,3.9,4.2C3.9,4.5,4,4.7,4.1,5c2.4,3.5,4.8,7,7.2,10.6
		c0.2,0.3,0.2,0.3,0,0.6C9,19.7,6.6,23.3,4.2,26.9C4.1,27,4.1,27.1,4,27.3c-0.2,0.4-0.1,0.8,0.2,1.1c0.1,0.1,0.1,0.1,0.2,0.2
		c2.3,0,4.6,0,6.9,0c0.3-0.2,0.5-0.3,0.7-0.6c0.7-1,1.4-2,2.1-3C14.1,24.6,14,24.3,14,24C14,22.4,15.8,20.2,18.3,18.9z"/>
	<path class="st40" d="M21.7,17.8c-0.3-0.4-0.4-0.4-0.7,0c-0.1,0.1-0.2,0.2-0.2,0.3c0.3-0.1,0.7-0.1,1-0.1
		C21.8,17.9,21.7,17.9,21.7,17.8z"/>
	<path class="st40" d="M27.5,28.5c0.3-0.1,0.5-0.3,0.6-0.6c0-0.2,0-0.3,0-0.5c0,0,0,0,0,0c-0.4,0.4-0.9,0.8-1.4,1.1
		C27,28.5,27.2,28.5,27.5,28.5z"/>
	<path class="st40" d="M21.1,13.9c0.2,0.3,0.4,0.3,0.6,0c0.4-0.6,0.9-1.3,1.3-1.9c1.2-1.7,2.3-3.4,3.5-5.1c0.5-0.8,1.1-1.6,1.6-2.4
		c0-0.1,0-0.1,0-0.2c-0.1-0.5-0.4-0.8-1-0.8c-2.2,0-4.4,0-6.6,0c-0.5,0-0.8,0.2-1.1,0.6c-0.7,1.1-1.5,2.2-2.2,3.3
		c-0.1,0.2-0.2,0.4,0,0.6C18.5,10,19.8,12,21.1,13.9z"/>
	<path class="st11" d="M22,27c1.7,0,3-1.3,3-3C25,25.7,23.7,27,22,27z"/>
	<path class="st11" d="M19,24c0,1.7,1.3,3,3,3C20.3,27,19,25.7,19,24z"/>
	<path class="st11" d="M22,21c1.7,0,3,1.3,3,3C25,22.3,23.7,21,22,21z"/>
	<path class="st11" d="M22,21c-1.7,0-3,1.3-3,3C19,22.3,20.3,21,22,21z"/>
	<path class="st11" d="M22,22.3h-0.5c0.3,0.2,0.5,0.5,0.5,0.8c0,0.5-0.4,0.9-0.9,0.9c-0.3,0-0.6-0.2-0.8-0.5V24c0,1,0.7,1.8,1.7,1.8
		s1.8-0.8,1.8-1.8S23,22.3,22,22.3z"/>
	<path class="st11" d="M28,24c0-1-2.7-4-6-4c-3.3,0-6,3-6,4s2.7,4,6,4C25.3,28,28,25,28,24z M22,27c-1.7,0-3-1.3-3-3s1.3-3,3-3
		c1.7,0,3,1.3,3,3S23.7,27,22,27z"/>
</g>
</svg>
