<svg id="Layer_1" data-name="Layer 1" xmlns="http://www.w3.org/2000/svg" viewBox="0 0 32 32"><defs><style>.cls-1{opacity:0.2;}.cls-1,.cls-2{isolation:isolate;}.cls-2,.cls-3{fill:#ca0821;}</style></defs><g class="cls-1"><path class="cls-2" d="M25.5,4.5a1,1,0,0,0-1-1H7.5a1,1,0,0,0-1,1v23a1,1,0,0,0,1,1h17a1,1,0,0,0,1-1V4.5Z"/></g><path class="cls-3" d="M9.94,22.5l3.25-3.26a.75.75,0,0,0,.8-.17A.75.75,0,1,0,12.93,18a.75.75,0,0,0-.17.8L9.5,22.06s1.89-5.74,1.92-6.52a5.29,5.29,0,0,0,4.31-1.3l.48.48.54.53.65.66.36.36a5.29,5.29,0,0,0-1.3,4.31C15.68,20.61,9.94,22.5,9.94,22.5ZM22.5,12.71,19.29,9.5l-3.28,4L18.47,16Z"/></svg>