<svg id="Layer_1" data-name="Layer 1" xmlns="http://www.w3.org/2000/svg" viewBox="0 0 64 64"><defs><style>.cls-1,.cls-2{fill:#fff;}.cls-1{opacity:0.6;isolation:isolate;}</style></defs><path class="cls-1" d="M51,9a2,2,0,0,0-2-2H15a2.07,2.07,0,0,0-2,2V55a2.07,2.07,0,0,0,2,2H49a2.07,2.07,0,0,0,2-2V9Z"/><path class="cls-2" d="M19.39,45.5l6.76-6.76a1.56,1.56,0,1,0-.91-.91l-6.76,6.76s3.93-11.93,4-13.55c0,0,5.3.94,8.94-2.7l1,1,1.11,1.1,1.36,1.37.75.74c-3.64,3.64-2.7,8.94-2.7,8.94C31.32,41.57,19.39,45.5,19.39,45.5ZM45.48,25.17,38.81,18.5,32,26.87l5.1,5.1Z"/></svg>