<?xml version="1.0" encoding="utf-8"?>
<!-- Generator: Adobe Illustrator 24.2.0, SVG Export Plug-In . SVG Version: 6.00 Build 0)  -->
<svg version="1.1" id="Layer_1" xmlns="http://www.w3.org/2000/svg" xmlns:xlink="http://www.w3.org/1999/xlink" x="0px" y="0px"
	 viewBox="0 0 32 32" style="enable-background:new 0 0 32 32;" xml:space="preserve">
<style type="text/css">
	.st0{opacity:0.2;fill:#CA0821;enable-background:new    ;}
	.st1{fill:#CA0821;}
	.st2{fill:#FF9251;}
	.st3{fill:#008AB1;}
	.st4{opacity:0.6;fill:none;stroke:#FFFFFF;stroke-width:4;stroke-miterlimit:10;}
	.st5{fill:#1D1D1B;}
	.st6{fill:#00B050;}
	.st7{opacity:0.3;fill:#0099C5;}
	.st8{clip-path:url(#SVGID_2_);}
	.st9{opacity:0.6;fill:#0099C5;}
	.st10{fill:#0099C5;}
	.st11{fill:#FFFFFF;}
	.st12{opacity:0.2;}
	.st13{fill:#00B050;enable-background:new    ;}
	.st14{fill:#008AB2;}
	.st15{fill:#007E44;}
	.st16{fill-rule:evenodd;clip-rule:evenodd;fill:#FFFFFF;}
	.st17{fill-rule:evenodd;clip-rule:evenodd;fill:#FFFFFF;fill-opacity:0.6;}
	.st18{fill:#3C32C4;}
	.st19{fill:#00AAC1;}
	.st20{fill:#ED9C26;enable-background:new    ;}
	.st21{opacity:0.2;fill:#ED9C26;enable-background:new    ;}
	.st22{opacity:0.6;}
	.st23{opacity:0.6;fill:#FFFFFF;}
	.st24{fill:#9F8165;}
	.st25{opacity:0.4;fill:#FFFFFF;}
	.st26{fill:#6B0AC9;}
	.st27{opacity:0.6;fill:#FFFFFF;enable-background:new    ;}
	.st28{fill:none;}
	.st29{fill:#CA0821;stroke:#FFFFFF;stroke-width:2;stroke-miterlimit:10;}
	.st30{fill:#6B0AC9;stroke:#FFFFFF;stroke-width:2;stroke-miterlimit:10;}
	.st31{fill:#823591;}
	.st32{fill:#005DED;}
	.st33{fill:#AA8A30;}
	.st34{fill:#1565C0;}
	.st35{fill:#D32F2F;}
	.st36{fill:#66BB6A;}
	.st37{fill:#0A4466;}
	.st38{fill:#8E24AA;}
	.st39{fill:#3E87CF;}
	.st40{fill:#9BC6F2;}
	.st41{fill:#777777;}
	.st42{fill:#2576C7;}
	.st43{opacity:0.6;fill:#2576C7;enable-background:new    ;}
	.st44{fill:#FFE39D;}
	.st45{fill:#ED9C26;}
	.st46{fill:#E03C24;}
	.st47{opacity:0.4;fill:#0A4466;}
	.st48{fill:#00796B;}
	.st49{opacity:0.4;fill:#00796B;}
	.st50{fill:#161616;}
	.st51{fill:#690000;}
	.st52{opacity:0.4;fill:#571B6D;}
	.st53{fill:#571B6D;}
	.st54{opacity:0.6;fill:#571B6D;}
	.st55{fill:#CA0821;enable-background:new    ;}
	.st56{opacity:0.4;}
	.st57{opacity:0.6;fill:#CA0821;enable-background:new    ;}
	.st58{opacity:0.6;enable-background:new    ;}
	.st59{opacity:0.6;fill:#3E87CF;}
	.st60{fill:#283593;}
	.st61{opacity:0.4;fill:#777777;}
	.st62{opacity:0.4;fill:#283593;}
	.st63{opacity:0.4;fill:#1565C0;}
	.st64{opacity:0.6;fill:#1565C0;}
	.st65{opacity:0.4;fill:#D32F2F;}
	.st66{opacity:0.4;fill:#66BB6A;}
	.st67{opacity:0.4;fill:#AA8A30;}
	.st68{fill:#CC0017;}
	.st69{opacity:0.4;fill:#CC0017;enable-background:new    ;}
	.st70{opacity:0.4;fill:#CC0017;}
	.st71{fill:#059A32;}
	.st72{opacity:0.4;fill:#059A32;}
	.st73{opacity:0.4;fill:#777777;enable-background:new    ;}
	.st74{opacity:0.4;fill:#9F8165;}
	.st75{fill:#FF7600;}
	.st76{opacity:0.4;fill:#FF7600;}
	.st77{opacity:0.4;fill:#005DED;}
	.st78{fill:#FF7962;}
	.st79{opacity:0.4;fill:#FF7962;}
	.st80{fill:#3606B7;}
	.st81{opacity:0.4;fill:#3606B7;}
	.st82{opacity:0.6;fill:#777777;}
	.st83{fill:#CB1335;}
	.st84{opacity:0.4;fill:#008AB2;enable-background:new    ;}
	.st85{fill:#A08165;}
	.st86{fill:#D8C4B3;}
	.st87{opacity:0.4;fill:#A08165;}
	.st88{fill:#00B78B;}
	.st89{opacity:0.4;fill:#00B78B;}
	.st90{fill:#FFFFFF;enable-background:new    ;}
	.st91{enable-background:new    ;}
	.st92{opacity:0.3;fill:#283593;enable-background:new    ;}
	.st93{fill:#283593;enable-background:new    ;}
	.st94{fill:#1467BA;}
	.st95{opacity:0.6;fill:#9BC6F2;}
	.st96{opacity:0.2;fill:#003FD7;}
	.st97{fill:#1AAD47;}
	.st98{fill:#003FD7;}
	.st99{opacity:0;fill:#FFFFFF;enable-background:new    ;}
	.st100{fill:#2B2B2B;}
	.st101{fill:#FCFDFF;}
	.st102{opacity:0.4;fill:#823591;}
	.st103{fill:none;stroke:#1467BA;stroke-miterlimit:10;}
	.st104{fill:none;stroke:#1467BA;stroke-width:1.15;}
	.st105{fill:none;stroke:#1467BA;stroke-width:1.15;stroke-linejoin:round;}
	.st106{fill:#1467BA;stroke:#1467BA;stroke-width:0.5;}
	.st107{fill:none;stroke:#1467BA;stroke-linecap:square;}
	.st108{fill:none;stroke:#1467BA;}
	.st109{fill:none;stroke:#1467BA;stroke-width:1.1641;stroke-miterlimit:10;}
	.st110{fill:#2067B0;}
	.st111{fill:none;stroke:#1467BA;stroke-linecap:round;}
	.st112{opacity:0.4;fill:#CA0821;}
	.st113{fill:none;stroke:#CA0821;stroke-width:2;stroke-linecap:round;stroke-linejoin:round;stroke-miterlimit:10;}
	.st114{fill:none;stroke:#CA0821;stroke-width:3;stroke-miterlimit:10;}
	.st115{fill:none;stroke:#FFFFFF;stroke-width:2.9951;stroke-miterlimit:10;}
	.st116{clip-path:url(#SVGID_6_);}
	.st117{clip-path:url(#SVGID_9_);}
	.st118{fill:none;stroke:#FFFFFF;stroke-miterlimit:10;}
	.st119{clip-path:url(#SVGID_12_);}
	.st120{clip-path:url(#SVGID_15_);}
	.st121{opacity:0.2;enable-background:new    ;}
	.st122{opacity:0.2;fill:#00B050;enable-background:new    ;}
	.st123{opacity:0.4;fill:#CA0821;enable-background:new    ;}
	.st124{fill:none;stroke:#1467BA;stroke-width:0.8755;stroke-miterlimit:10;}
	.st125{opacity:0.6;fill:#9F8165;}
	.st126{fill:#EFBD10;}
	.st127{opacity:0;fill:#FFFFFF;}
	.st128{opacity:0.3;fill:#FFFFFF;}
	.st129{fill:#C87E0E;}
	.st130{fill:#F6D751;}
	.st131{fill:none;stroke:#FFFFFF;stroke-width:2;stroke-miterlimit:10;}
	.st132{fill:none;stroke:#FFFFFF;stroke-width:2;stroke-linecap:round;stroke-miterlimit:10;}
	.st133{fill:#6B0ACC;}
	.st134{opacity:0.2;fill:#6B0ACC;enable-background:new    ;}
	.st135{opacity:0.3;fill:#00AAC1;}
	.st136{fill:#26A642;}
	.st137{fill:#3A85D1;}
	.st138{fill:#125DA8;}
	.st139{fill:#43B4D6;}
	.st140{opacity:0;fill:#3C32C4;}
	.st141{opacity:0.3;fill:#3C32C4;}
	.st142{fill:#FF82FF;}
	.st143{opacity:0.2;fill:#CA0821;}
	.st144{fill:#1467BA;stroke:#1467BA;stroke-width:0.5;stroke-miterlimit:10;}
	.st145{fill:none;stroke:#1467BA;stroke-width:0.9514;stroke-miterlimit:10;}
	.st146{fill:#1467BA;stroke:#1467BA;stroke-width:0.35;}
	.st147{fill:none;stroke:#1467BA;stroke-width:0.35;}
	.st148{fill:#659830;}
	.st149{fill:none;stroke:#1D1D1B;stroke-width:8.4709;stroke-miterlimit:10;}
	.st150{opacity:0.4;fill:#1467BA;}
	.st151{opacity:0.4;fill:#008AB2;}
	.st152{fill:none;stroke:#FFFFFF;stroke-width:3;stroke-miterlimit:10;}
	.st153{fill:#57C4F2;}
	.st154{opacity:0.4;fill:#57C4F2;}
	.st155{opacity:0.6;fill:#57C4F2;}
	.st156{fill:#000099;}
	.st157{opacity:0.4;fill:#000099;}
	.st158{clip-path:url(#SVGID_18_);}
	.st159{fill:#008AB2;enable-background:new    ;}
	.st160{opacity:0.6;fill:#008AB2;}
	.st161{opacity:0.4;fill:#FFFFFF;enable-background:new    ;}
	.st162{fill:#CC0113;}
	.st163{fill:#58D68D;}
	.st164{fill:#F2A900;}
	.st165{fill:#FFB533;}
	.st166{opacity:0.3;}
	.st167{fill-rule:evenodd;clip-rule:evenodd;fill:#CA0821;}
	.st168{opacity:0.6;fill:#0099C5;enable-background:new    ;}
	.st169{opacity:0.3;fill:#0099C5;enable-background:new    ;}
	.st170{opacity:0.4;fill:#0099C5;}
	.st171{clip-path:url(#SVGID_20_);}
	.st172{fill:none;stroke:#FFF9BF;stroke-width:3;stroke-miterlimit:10;}
	.st173{fill:none;stroke:#FFF9BF;stroke-width:3.208;stroke-miterlimit:10;}
	.st174{fill:none;stroke:#FFF9BF;stroke-width:1.604;stroke-miterlimit:10;}
	.st175{fill:#777777;enable-background:new    ;}
	.st176{opacity:0.4;fill:#F2AA00;}
	.st177{fill:#F2AA00;}
	.st178{fill:#FF0000;}
	.st179{fill:none;stroke:#0076B1;stroke-miterlimit:10;}
	.st180{fill:#70C7E0;}
	.st181{fill:#70C7E0;enable-background:new    ;}
	.st182{opacity:0.6;fill:#FF7CFF;enable-background:new    ;}
	.st183{fill:#FF7CFF;}
	.st184{fill-rule:evenodd;clip-rule:evenodd;fill:#008AB1;}
	.st185{fill:#F6E600;}
</style>
<path class="st0" d="M20.3,27.6c-0.4-0.4-0.7-1-0.7-1.6s0.2-1.2,0.7-1.6l0.8-0.8l-0.8-0.8c-0.4-0.4-0.7-1-0.7-1.6
	c0-0.6,0.2-1.2,0.7-1.6l1.2-1.2c0.4-0.4,1-0.7,1.6-0.7s1.2,0.2,1.6,0.7l0.7,0.7v-2.3v-1.3v-4.9v-6c0-0.6-0.4-1-1-1h-17
	c-0.5,0-1,0.4-1,1v23c0,0.6,0.5,1,1,1h13.7L20.3,27.6z"/>
<path class="st1" d="M9.9,22.5l3.3-3.3c0.3,0.1,0.6,0,0.8-0.2c0.3-0.3,0.3-0.8,0-1.1c-0.3-0.3-0.8-0.3-1.1,0
	c-0.2,0.2-0.3,0.5-0.2,0.8l-3.3,3.3c0,0,1.9-5.7,1.9-6.5c0,0,2.6,0.5,4.3-1.3l0.5,0.5l0.5,0.5l0.7,0.7l0.4,0.4
	c-1.8,1.8-1.3,4.3-1.3,4.3C15.7,20.6,9.9,22.5,9.9,22.5z M22.5,12.7l-3.2-3.2l-3.3,4l2.5,2.5L22.5,12.7z"/>
<path class="st178" d="M27.2,23.5l2.2-2.2c0.1-0.1,0.1-0.3,0-0.4l-1.2-1.2c-0.1-0.1-0.3-0.1-0.4,0l-2.2,2.2l-2.2-2.2
	c-0.1-0.1-0.3-0.1-0.4,0l-1.2,1.2c-0.1,0.1-0.1,0.3,0,0.4l2.2,2.2l-2.2,2.2c-0.1,0.1-0.1,0.3,0,0.4l1.2,1.2c0.1,0.1,0.3,0.1,0.4,0
	l2.2-2.2l2.2,2.2c0.1,0.1,0.3,0.1,0.4,0l1.2-1.2c0.1-0.1,0.1-0.3,0-0.4L27.2,23.5z"/>
</svg>
