<svg id="Layer_1" data-name="Layer 1" xmlns="http://www.w3.org/2000/svg" viewBox="0 0 32 32"><defs><style>.cls-1,.cls-2,.cls-3{fill:#1565c0;}.cls-1{opacity:0.4;}.cls-3{opacity:0.6;}</style></defs><path class="cls-1" d="M13.6238,21.24417l-.266,1.29871h1.05078a6.70784,6.70784,0,0,1,.88709-1.29871Z"/><path class="cls-1" d="M8.2427,20.03165a.75869.75869,0,0,0-.32715.28161l-1.20221,1.9563-.168.27332h5.79291l.266-1.29871H9.056C8.21774,21.24417,8.238,20.71371,8.2427,20.03165Z"/><path class="cls-1" d="M28.30819,27.18631a9.72,9.72,0,0,1-1.584,1.30035h1.00262a.77194.77194,0,0,0,.65765-1.17614Z"/><path class="cls-1" d="M13.9996,24.00027a2.41526,2.41526,0,0,1,.048-.45849H13.1531l-1.01294,4.94488H17.275C15.31826,27.19437,13.9996,25.34006,13.9996,24.00027Z"/><path class="cls-1" d="M5.62411,24.042l-.22962.3736-.90564,1.47375L3.6155,27.31052a.772.772,0,0,0,.65766,1.17614h6.84759l1.01294-4.94488H5.93154Z"/><circle class="cls-2" cx="16.00056" cy="7.94603" r="4.43269" transform="translate(-0.93224 13.64144) rotate(-45)"/><path class="cls-2" d="M21.9996,18.00027a7.686,7.686,0,0,1,1.73669.209,4.98032,4.98032,0,0,0-4.63281-4.35291c-.74616,0-1.29291.591-3.10291.591-1.86175,0-2.31237-.591-3.1029-.591a4.9651,4.9651,0,0,0-4.65436,4.72821V19.9144c0,.04022-.00037.078-.00061.11725-.0047.68206-.025,1.21252.81329,1.21252h6.23963A9.224,9.224,0,0,1,21.9996,18.00027Z"/><path class="cls-3" d="M7.54092,12.1113a2.301,2.301,0,1,0-2.301-2.301A2.30524,2.30524,0,0,0,7.54092,12.1113Z"/><path class="cls-3" d="M3.936,16.71329H7.62722a6.37207,6.37207,0,0,1,2.9632-3.28925,2.27421,2.27421,0,0,0-1.43885-.54571,8.16164,8.16164,0,0,1-1.61065.30676c-.96643,0-1.20038-.30676-1.61072-.30676a2.57739,2.57739,0,0,0-2.41608,2.4544V16.023C3.51412,16.40652,3.47579,16.71329,3.936,16.71329Z"/><path class="cls-3" d="M24.3738,16.71329h3.692c.44482,0,.42181-.30677.42181-.69031v-.69025a2.57738,2.57738,0,0,0-2.41607-2.4544,8.161,8.161,0,0,1-1.61066.30676c-.96643,0-1.20038-.30676-1.61072-.30676a2.27425,2.27425,0,0,0-1.43909.54589A6.37212,6.37212,0,0,1,24.3738,16.71329Z"/><path class="cls-3" d="M24.46084,12.1113a2.301,2.301,0,1,0-2.301-2.301A2.30524,2.30524,0,0,0,24.46084,12.1113Z"/><path class="cls-2" d="M21.99976,22.3h-.5a1.01974,1.01974,0,0,1,.5.8.89626.89626,0,0,1-.9.9,1.01974,1.01974,0,0,1-.8-.5V24a1.71035,1.71035,0,0,0,1.7,1.8,1.79252,1.79252,0,0,0,1.8-1.8A1.71035,1.71035,0,0,0,21.99976,22.3Z"/><path class="cls-2" d="M21.99976,20c-3.3,0-6,3-6,4s2.7,4,6,4,6-3,6-4S25.29976,20,21.99976,20Zm0,7a3,3,0,1,1,3-3A2.94645,2.94645,0,0,1,21.99976,27Z"/></svg>