<svg id="Layer_1" data-name="Layer 1" xmlns="http://www.w3.org/2000/svg" viewBox="0 0 32 32"><defs><style>.cls-1{opacity:0.2;}.cls-1,.cls-2{isolation:isolate;}.cls-2,.cls-3{fill:#5457c8;}</style></defs><g class="cls-1"><path class="cls-2" d="M25.5,4.5a1,1,0,0,0-.99995-1H7.5a1.0369,1.0369,0,0,0-1,1v23a1.0369,1.0369,0,0,0,1,1h17a1.0369,1.0369,0,0,0,1-1V4.5Z"/></g><path class="cls-3" d="M9.93334,9.9497a.44957.44957,0,0,0,.44983.44995h.31055l.32635,1.80517.00055.00147,1.01935,5.646h.00012l.30969,1.71387a1.55694,1.55694,0,0,1,.89661-.09863l-.29187-1.61524h8.09625l1.01593-5.62719-10.22454-.531L11.44567,9.5h-1.0625A.44952.44952,0,0,0,9.93334,9.9497Zm2.07282,2.654,1.51324.07837.1684,1.63159H12.31512Zm2.42285.12573,1.66656.08643v1.4978h-1.503Zm4.2102.21826-.141,1.366h-1.503V12.86254Zm-1.644,2.26563h1.41022l-.17951,1.73926H16.99517Zm4.00507-2.14307-.22467,1.24341H19.403l.13617-1.31934Zm-1.86963,3.88233.1795-1.73926H20.613l-.31427,1.73926Zm-3.035,0H14.86486l-.1795-1.73926h1.41021Zm-3.30359,0-.31427-1.73926h1.30292l.17951,1.73926Z"/><path class="cls-3" d="M11.68462,21.1953a1.29785,1.29785,0,0,0,2.5177.45h4.51783a1.30419,1.30419,0,1,0,.00006-.89966h-4.518a1.29792,1.29792,0,0,0-2.51764.44971Zm7.84412,0a.405.405,0,1,1,.405.405A.4051.4051,0,0,1,19.52874,21.1953Zm-6.94452,0a.40479.40479,0,1,1,.405.405A.4051.4051,0,0,1,12.58422,21.1953Z"/></svg>