<svg id="Layer_1" data-name="Layer 1" xmlns="http://www.w3.org/2000/svg" viewBox="0 0 32 32"><defs><style>.cls-1,.cls-2{fill:#9bc6f2;}.cls-1,.cls-4{opacity:0.6;}.cls-3{fill:#2576c7;}.cls-4{fill:#fff;}</style></defs><path class="cls-1" d="M19.22,20.9v2.18H23.6a.5.5,0,0,1,.54.54v2.72H28.5V7.83a2.18,2.18,0,0,0-2.18-2.17h-7.1V7.83h0c.32,0,.54.22.54.33V9.69c0,.21-.22.32-.54.32h0v3.27h0c.32,0,.54.21.54.32v1.53c0,.22-.22.33-.54.33h0v3.26h0c.32,0,.54.22.54.33v1.52c0,.22-.22.33-.54.33Zm3.84-1.85c0-.11.22-.33.54-.33h2.18c.33,0,.54.22.54.33v1.52c0,.22-.21.33-.54.33H23.6c-.32,0-.54-.22-.54-.33Zm0-5.45c0-.11.22-.32.54-.32h2.18c.33,0,.54.21.54.32v1.53c0,.22-.21.33-.54.33H23.6c-.32,0-.54-.22-.54-.33Zm0-5.44c0-.11.22-.33.54-.33h2.18c.33,0,.54.22.54.33V9.69c0,.21-.21.32-.54.32H23.6c-.32,0-.54-.22-.54-.32Z"/><path class="cls-2" d="M19.79,19.05v1.52c0,.22-.22.33-.54.33h0V18.72h0C19.57,18.72,19.79,18.94,19.79,19.05Z"/><path class="cls-1" d="M19.79,19.05v1.52c0,.22-.22.33-.54.33h0V18.72h0C19.57,18.72,19.79,18.94,19.79,19.05Z"/><path class="cls-2" d="M19.79,13.6v1.53c0,.22-.22.33-.54.33h0V13.28h0C19.57,13.28,19.79,13.49,19.79,13.6Z"/><path class="cls-1" d="M19.79,13.6v1.53c0,.22-.22.33-.54.33h0V13.28h0C19.57,13.28,19.79,13.49,19.79,13.6Z"/><path class="cls-2" d="M19.79,8.16V9.69c0,.21-.22.32-.54.32h0V7.83h0C19.57,7.83,19.79,8.05,19.79,8.16Z"/><path class="cls-1" d="M19.79,8.16V9.69c0,.21-.22.32-.54.32h0V7.83h0C19.57,7.83,19.79,8.05,19.79,8.16Z"/><path class="cls-3" d="M3.5,6.13V28.5H8.76V25.21a.62.62,0,0,1,.66-.66h5.27a.62.62,0,0,1,.65.66V28.5h5.27V6.13A2.64,2.64,0,0,0,18,3.5H6.13A2.64,2.64,0,0,0,3.5,6.13ZM14,19.68c0-.13.27-.39.66-.39h2.63c.39,0,.65.26.65.39v1.85c0,.26-.26.39-.65.39H14.69c-.39,0-.66-.26-.66-.39Zm0-6.58c0-.13.27-.39.66-.39h2.63c.39,0,.65.26.65.39V15c0,.26-.26.39-.65.39H14.69c-.39,0-.66-.26-.66-.39Zm0-6.58c0-.13.27-.39.66-.39h2.63c.39,0,.65.26.65.39V8.37c0,.26-.26.39-.65.39H14.69c-.39,0-.66-.26-.66-.39ZM6.13,19.68c0-.13.27-.39.66-.39H9.42c.4,0,.66.26.66.39v1.85c0,.26-.26.39-.66.39H6.79c-.39,0-.66-.26-.66-.39Zm0-6.58c0-.13.27-.39.66-.39H9.42c.4,0,.66.26.66.39V15c0,.26-.26.39-.66.39H6.79c-.39,0-.66-.26-.66-.39Zm0-6.58c0-.13.27-.39.66-.39H9.42c.4,0,.66.26.66.39V8.37c0,.26-.26.39-.66.39H6.79c-.39,0-.66-.26-.66-.39Z"/><path class="cls-4" d="M6.13,19.68v1.85c0,.13.27.39.66.39H9.42c.4,0,.66-.13.66-.39V19.68c0-.13-.26-.39-.66-.39H6.79C6.4,19.29,6.13,19.55,6.13,19.68Z"/><path class="cls-4" d="M14,19.68v1.85c0,.13.27.39.66.39h2.63c.39,0,.65-.13.65-.39V19.68c0-.13-.26-.39-.65-.39H14.69C14.3,19.29,14,19.55,14,19.68Z"/><path class="cls-4" d="M14,13.1V15c0,.13.27.39.66.39h2.63c.39,0,.65-.13.65-.39V13.1c0-.13-.26-.39-.65-.39H14.69C14.3,12.71,14,13,14,13.1Z"/><path class="cls-4" d="M6.13,13.1V15c0,.13.27.39.66.39H9.42c.4,0,.66-.13.66-.39V13.1c0-.13-.26-.39-.66-.39H6.79C6.4,12.71,6.13,13,6.13,13.1Z"/><path class="cls-4" d="M6.13,6.52V8.37c0,.13.27.39.66.39H9.42c.4,0,.66-.13.66-.39V6.52c0-.13-.26-.39-.66-.39H6.79C6.4,6.13,6.13,6.39,6.13,6.52Z"/><path class="cls-4" d="M14,6.52V8.37c0,.13.27.39.66.39h2.63c.39,0,.65-.13.65-.39V6.52c0-.13-.26-.39-.65-.39H14.69C14.3,6.13,14,6.39,14,6.52Z"/></svg>