<svg id="Layer_1" data-name="Layer 1" xmlns="http://www.w3.org/2000/svg" viewBox="0 0 32 32"><defs><style>.cls-1,.cls-2{fill:#ed9c26;isolation:isolate;}.cls-1{opacity:0.2;}.cls-3{fill:#fff;}</style></defs><polygon class="cls-1" points="15.158 10.573 15.158 9.345 13.767 9.417 13.886 10.573 15.158 10.573"/><path class="cls-1" d="M18.5476,16.05343a.34253.34253,0,1,0,.34271.34228A.34265.34265,0,0,0,18.5476,16.05343Z"/><polygon class="cls-1" points="18.98 11.334 17.878 11.334 17.726 12.806 18.715 12.806 18.98 11.334"/><polygon class="cls-1" points="17.329 9.232 15.919 9.305 15.919 10.573 17.191 10.573 17.329 9.232"/><polygon class="cls-1" points="14.117 12.806 15.158 12.806 15.158 11.334 13.965 11.334 14.117 12.806"/><polygon class="cls-1" points="19.379 9.126 18.099 9.192 17.956 10.573 19.118 10.573 19.379 9.126"/><polygon class="cls-1" points="17.112 11.334 15.919 11.334 15.919 12.806 16.961 12.806 17.112 11.334"/><path class="cls-1" d="M14.417,25.476H8.93425V23.80978h5.07862a4.4259,4.4259,0,0,1,.942-2.1543H8.93425v-1.666H16.602a8.90212,8.90212,0,0,1,5.39282-1.99462A8.25452,8.25452,0,0,1,25.5,18.82272V4.5a1,1,0,0,0-.99994-1H7.5a1.03686,1.03686,0,0,0-1,1v23a1.03686,1.03686,0,0,0,1,1h9.7987A8.51045,8.51045,0,0,1,14.417,25.476Zm4.13056-7.97632a1.09744,1.09744,0,0,1-1.02643-.72315H13.69835a1.10379,1.10379,0,1,1,0-.76123h3.82282a1.09986,1.09986,0,1,1,1.02643,1.48438Zm.97058-9.14356.33551-1.85644h.899a.38062.38062,0,1,1,0,.76123H20.49l-.27613,1.52759-.00042.00073-.86261,4.77783H19.3507l-.262,1.4502a1.47238,1.47238,0,0,0-.54107-.10547,1.45411,1.45411,0,0,0-.2176.022l.247-1.3667h-6.8507l-.85968-4.76147Z"/><polygon class="cls-1" points="12.363 12.806 13.351 12.806 13.199 11.334 12.097 11.334 12.363 12.806"/><path class="cls-1" d="M12.6715,16.05343a.34253.34253,0,1,0,.34265.34228A.343.343,0,0,0,12.6715,16.05343Z"/><polygon class="cls-1" points="13.121 10.573 13.005 9.457 11.769 9.521 11.959 10.573 13.121 10.573"/><path class="cls-2" d="M18.577,13.5671l-.247,1.3667a1.45411,1.45411,0,0,1,.2176-.022,1.47238,1.47238,0,0,1,.54107.10547l.262-1.4502h.00012l.86261-4.77783.00042-.00073L20.49,7.261h.26275a.38062.38062,0,1,0,0-.76123h-.899l-.33551,1.85644-8.65155.44947.85968,4.76147ZM15.158,12.80587H14.11656L13.96471,11.334H15.158Zm2.941-3.61352,1.28045-.06641L19.118,10.573H17.95647Zm-.22107,2.1416h1.10254l-.26593,1.47192h-.98847ZM15.91918,9.30538l1.41015-.07324L17.191,10.573H15.91918Zm0,2.02857h1.19323l-.15185,1.47192H15.91918Zm-.76123-1.989v1.228H13.88616l-.11933-1.156Zm-1.80689,3.46094h-.9884L12.09673,11.334h1.10248Zm-.34564-3.34936.11523,1.11645H11.95922l-.19013-1.05225Z"/><path class="cls-2" d="M18.5476,15.2922a1.09756,1.09756,0,0,0-1.02643.72314H13.69835a1.1038,1.1038,0,1,0,0,.76123h3.82282A1.09986,1.09986,0,1,0,18.5476,15.2922Zm-5.8761,1.44629a.34253.34253,0,1,1,.34265-.34278A.34324.34324,0,0,1,12.6715,16.73849Zm5.8761,0a.34253.34253,0,1,1,.34271-.34278A.34292.34292,0,0,1,18.5476,16.73849Z"/><path class="cls-3" d="M8.93425,21.65548h6.02057a8.9311,8.9311,0,0,1,1.64716-1.666H8.93425Z"/><path class="cls-3" d="M8.93425,25.476H14.417a3.34444,3.34444,0,0,1-.42224-1.4812c0-.05933.01294-.12354.01807-.18506H8.93425Z"/><path class="cls-2" d="M23.79507,23.99522a1.79254,1.79254,0,0,1-1.8,1.8,1.71041,1.71041,0,0,1-1.7-1.8v-.5a1.01965,1.01965,0,0,0,.80005.5.89615.89615,0,0,0,.9-.8999,1.01973,1.01973,0,0,0-.5-.80005h.5A1.7103,1.7103,0,0,1,23.79507,23.99522Z"/><path class="cls-2" d="M21.99509,19.99522c-3.3,0-6,3-6,4s2.7,4,6,4,6-3,6-4S25.29507,19.99522,21.99509,19.99522Zm0,7a3,3,0,1,1,3-3A2.94632,2.94632,0,0,1,21.99509,26.99522Z"/><path class="cls-3" d="M21.99509,20.99522a3,3,0,1,0,3,3A2.94647,2.94647,0,0,0,21.99509,20.99522Zm0,4.8a1.71041,1.71041,0,0,1-1.7-1.8v-.5a1.01965,1.01965,0,0,0,.80005.5.89615.89615,0,0,0,.9-.8999,1.01973,1.01973,0,0,0-.5-.80005h.5a1.7103,1.7103,0,0,1,1.8,1.7A1.79254,1.79254,0,0,1,21.99509,25.79527Z"/></svg>