<?xml version="1.0" encoding="utf-8"?>
<!-- Generator: Adobe Illustrator 24.2.0, SVG Export Plug-In . SVG Version: 6.00 Build 0)  -->
<svg version="1.1" id="Layer_1" xmlns="http://www.w3.org/2000/svg" xmlns:xlink="http://www.w3.org/1999/xlink" x="0px" y="0px"
	 viewBox="0 0 64 64" style="enable-background:new 0 0 64 64;" xml:space="preserve">
<style type="text/css">
	.st0{fill:#005DED;}
	.st1{fill:#AA8A30;}
	.st2{fill:#1565C0;}
	.st3{fill:#D32F2F;}
	.st4{fill:#66BB6A;}
	.st5{fill:#0A4466;}
	.st6{fill:#8E24AA;}
	.st7{fill:#161616;}
	.st8{fill:#3E87CF;}
	.st9{fill:#E03C24;}
	.st10{fill:#9BC6F2;}
	.st11{fill:#777777;}
	.st12{fill:#2576C7;}
	.st13{fill:#FFFFFF;}
	.st14{opacity:0.6;fill:#2576C7;enable-background:new    ;}
	.st15{opacity:0.6;fill:#FFFFFF;enable-background:new    ;}
	.st16{opacity:0.6;fill:#FFFFFF;}
	.st17{fill:#FFE39D;}
	.st18{fill:#ED9C26;}
	.st19{opacity:0.4;fill:#0A4466;}
	.st20{opacity:0.4;fill:#00796B;}
	.st21{fill:#00796B;}
	.st22{fill:none;}
	.st23{fill:#690000;}
	.st24{fill:#A08165;}
	.st25{fill:#D8C4B3;}
	.st26{fill:#FFD4FF;}
	.st27{opacity:0.6;fill:none;stroke:#FFFFFF;stroke-width:4;stroke-linecap:round;stroke-miterlimit:10;}
	.st28{fill:#571B6D;}
	.st29{opacity:0.4;fill:#571B6D;}
	.st30{opacity:0.6;fill:#571B6D;}
	.st31{fill:#CA0821;}
	.st32{opacity:0.2;fill:#CA0821;enable-background:new    ;}
	.st33{fill:#CA0821;enable-background:new    ;}
	.st34{opacity:0.4;}
	.st35{opacity:0.6;fill:#CA0821;enable-background:new    ;}
	.st36{opacity:0.6;enable-background:new    ;}
	.st37{opacity:0.6;}
	.st38{opacity:0.6;fill:#3E87CF;}
	.st39{fill:#283593;}
	.st40{opacity:0.4;fill:#777777;}
	.st41{opacity:0.4;fill:#283593;}
	.st42{opacity:0.4;fill:#1565C0;}
	.st43{opacity:0.6;fill:#1565C0;}
	.st44{opacity:0.4;fill:#D32F2F;}
	.st45{opacity:0.4;fill:#66BB6A;}
	.st46{opacity:0.4;fill:#AA8A30;}
	.st47{opacity:0.4;fill:#777777;enable-background:new    ;}
	.st48{fill:#9F8165;}
	.st49{opacity:0.4;fill:#9F8165;}
	.st50{fill:#FF7600;}
	.st51{opacity:0.4;fill:#FF7600;}
	.st52{fill:#FBFAFD;}
	.st53{fill:#3606B7;}
	.st54{opacity:0.4;fill:#005DED;}
	.st55{fill:#FF7962;}
	.st56{opacity:0.4;fill:#FF7962;}
	.st57{opacity:0.4;fill:#3606B7;}
	.st58{opacity:0.4;fill:#FFFFFF;}
</style>
<g>
	<path class="st13" d="M52.8,7H11.2C8.9,7,7,8.9,7,11.2v41.7c0,2.3,1.9,4.2,4.2,4.2h41.7c2.3,0,4.2-1.9,4.2-4.2V11.2
		C57,8.9,55.1,7,52.8,7z M24.7,51.6c-3.6,0-7.3,0-10.9,0c-0.1-0.1-0.2-0.2-0.4-0.2c-0.5-0.4-0.7-1.1-0.4-1.7
		c0.1-0.2,0.2-0.4,0.4-0.6c3.7-5.6,7.5-11.2,11.2-16.8c0.3-0.5,0.3-0.5,0-1c-3.8-5.5-7.6-11-11.4-16.6c-0.2-0.3-0.4-0.7-0.4-1.1
		c0.1-0.7,0.7-1.1,1.4-1.1c3.6,0,7.1,0,10.7,0c0.8,0,1.3,0.4,1.7,1c1.7,2.5,3.3,5,5,7.5c2.1,3.2,4.2,6.3,6.3,9.5
		c0.7,1,0.7,1.6,0,2.7c-4,5.9-8.1,11.8-12.1,17.7C25.6,51.1,25.2,51.4,24.7,51.6z M51,50.7c-0.2,0.4-0.5,0.8-1,1
		c-3.6,0-7.1,0-10.7,0c-0.7-0.2-1.1-0.7-1.5-1.3c-1.3-1.9-2.6-3.8-3.9-5.7c-0.4-0.6-0.4-0.6,0-1.1c2-2.9,4-5.8,5.9-8.7
		c0.4-0.6,0.6-0.6,1,0c3.3,5,6.7,10,10,15c0,0,0,0,0,0C51,50.2,51,50.4,51,50.7z M51,13.9c-0.8,1.3-1.7,2.6-2.5,3.8
		c-1.8,2.7-3.6,5.3-5.5,7.9c-0.7,1-1.4,2-2.1,3.1c-0.4,0.5-0.6,0.5-0.9,0c-2-3.1-4.1-6.1-6.1-9.2c-0.2-0.4-0.2-0.6,0-1
		c1.2-1.7,2.3-3.5,3.5-5.2c0.4-0.6,1-0.9,1.7-0.9c3.5,0,6.9,0,10.4,0c0.8,0,1.3,0.5,1.5,1.2C51,13.7,51,13.8,51,13.9z"/>
	<path class="st22" d="M38,30.4c-2.1-3.2-4.2-6.3-6.3-9.5c-1.7-2.5-3.3-5-5-7.5c-0.4-0.6-0.9-1-1.7-1c-3.6,0-7.1,0-10.7,0
		c-0.7,0-1.2,0.5-1.4,1.1c-0.1,0.4,0.1,0.8,0.4,1.1c3.8,5.5,7.6,11,11.4,16.6c0.4,0.5,0.4,0.5,0,1c-3.7,5.6-7.5,11.2-11.2,16.8
		c-0.1,0.2-0.3,0.4-0.4,0.6c-0.3,0.6-0.2,1.3,0.4,1.7c0.1,0.1,0.2,0.2,0.4,0.2c3.6,0,7.3,0,10.9,0c0.4-0.2,0.8-0.5,1.1-0.9
		C29.9,44.8,34,38.9,38,33C38.7,32,38.7,31.4,38,30.4z"/>
	<path class="st16" d="M40.9,34.8c-0.4-0.6-0.6-0.6-1,0c-2,2.9-4,5.8-5.9,8.7c-0.4,0.6-0.4,0.6,0,1.1c1.3,1.9,2.6,3.8,3.9,5.7
		c0.4,0.6,0.8,1.1,1.5,1.3c3.6,0,7.1,0,10.7,0c0.4-0.2,0.8-0.5,1-1c0-0.3,0-0.5,0-0.8c0,0,0,0,0,0C47.6,44.9,44.3,39.8,40.9,34.8z"
		/>
	<path class="st16" d="M49.5,12.4c-3.5,0-6.9,0-10.4,0c-0.7,0-1.3,0.3-1.7,0.9c-1.2,1.7-2.3,3.5-3.5,5.2c-0.2,0.3-0.2,0.6,0,1
		c2.1,3.1,4.1,6.1,6.1,9.2c0.3,0.5,0.6,0.5,0.9,0c0.7-1,1.4-2,2.1-3.1c1.8-2.6,3.6-5.3,5.5-7.9c0.9-1.3,1.7-2.5,2.5-3.8
		c0-0.1,0-0.2,0-0.3C50.8,12.8,50.4,12.4,49.5,12.4z"/>
</g>
</svg>
