<svg id="Layer_1" data-name="Layer 1" xmlns="http://www.w3.org/2000/svg" viewBox="0 0 32 32"><defs><style>.cls-1{fill:none;}.cls-2,.cls-3{fill:#777;}.cls-3{opacity:0.4;}</style></defs><path class="cls-1" d="M24.99978,24a3.0169,3.0169,0,0,0-.56378-1.77295l-.00141-.00183A2.956,2.956,0,0,0,21.99978,21c-.00793,0-.01489.00256-.02283.00268a2.95465,2.95465,0,0,0-2.43207,1.24707,2.98869,2.98869,0,0,0-.30834.58057A3.04755,3.04755,0,0,0,18.99978,24a3.10454,3.10454,0,0,0,.21222,1.12744,2.93159,2.93159,0,0,0,.40381.7157l.00018.00036a2.94816,2.94816,0,0,0,2.31952,1.15174l.0094.00061c.01868.00036.03613.00415.05487.00415a2.928,2.928,0,0,0,2.89246-2.2218l.00085-.00281A3.1325,3.1325,0,0,0,24.99978,24Zm-3,1.79992a1.6134,1.6134,0,0,1-1.16254-.48425l-.005-.00537a1.71,1.71,0,0,1-.1687-.18286A1.88605,1.88605,0,0,1,20.29977,24v-.5a1.02,1.02,0,0,0,.8.5.8964.8964,0,0,0,.9-.90015.82923.82923,0,0,0-.15308-.45679A1.25725,1.25725,0,0,0,21.49978,22.3h.5c.03235,0,.06238.00684.0943.0083a1.76135,1.76135,0,0,1,1.50989.91l.00152.00268A1.65874,1.65874,0,0,1,23.79977,24,1.79244,1.79244,0,0,1,21.99978,25.8Z"/><path class="cls-2" d="M10.02389,20.78129V21.8057c0,.56934-.057,1.02466.6261,1.02466h3.62219a9.075,9.075,0,0,1,5.17371-4.39258,8.42987,8.42987,0,0,1,1.25647-.3208,3.4212,3.4212,0,0,0-2.31128-.97852,12.11289,12.11289,0,0,1-2.39063.45533c-1.43439,0-1.78161-.45533-2.39062-.45533A3.82529,3.82529,0,0,0,10.02389,20.78129Z"/><path class="cls-2" d="M19.41561,12.58475A3.41516,3.41516,0,1,0,16.00045,16,3.42145,3.42145,0,0,0,19.41561,12.58475Z"/><path class="cls-2" d="M24.83663,7.16019c-.0924-.09228-.19293-.17114-.28747-.26.10656.1001.21869.19422.32171.298C24.85873,7.186,24.84884,7.1724,24.83663,7.16019Z"/><path class="cls-2" d="M26.05813,13.0225a10.56517,10.56517,0,0,1,.42242,3.24121c.00238-.0896.01947-.17529.01947-.2655A10.34436,10.34436,0,0,0,26.05813,13.0225Z"/><path class="cls-2" d="M26.339,17.72343c.023-.13453.04633-.26831.06409-.40455C26.38613,17.45438,26.36123,17.58866,26.339,17.72343Z"/><path class="cls-2" d="M26.02523,19.09281l.00733.00354c.00946-.03064.01495-.06287.0241-.09351C26.04763,19.03324,26.03451,19.06254,26.02523,19.09281Z"/><path class="cls-2" d="M15.98647,28.4976c-.41607-.00049-.82721-.02222-1.23284-.06226Q15.3685,28.49649,15.98647,28.4976Z"/><path class="cls-2" d="M17.19515,28.4379c-.28741.02722-.58007.0354-.87256.04407.293-.00732.58606-.01269.878-.04077Z"/><path class="cls-2" d="M7.159,24.83793c.18793.188.38818.355.58472.52856-.19709-.17383-.39734-.34448-.58307-.53027Z"/><path class="cls-2" d="M15.03951,26.44852c-.28619-.02612-.57067-.06884-.85437-.11828.28211.04944.56586.09289.85517.11926Z"/><path class="cls-3" d="M8.70394,23.53666A10.46094,10.46094,0,0,1,5.5,15.99821h-2a12.46057,12.46057,0,0,0,3.66059,8.838l1.41253-1.41248C8.61453,23.46512,8.662,23.49613,8.70394,23.53666Z"/><path class="cls-3" d="M8.84274,23.65653a10.5369,10.5369,0,0,0,2.08038,1.52625A10.56849,10.56849,0,0,1,8.84274,23.65653Z"/><path class="cls-3" d="M27.73025,20.28312c.082-.22449.16675-.44715.236-.67737-.0686.22827-.15484.4519-.23675.67676Z"/><path class="cls-3" d="M28.4465,14.92557a12.56236,12.56236,0,0,1,.01281,1.87964c.01715-.26806.04071-.53467.04071-.807C28.5,15.63615,28.47665,15.27982,28.4465,14.92557Z"/><path class="cls-3" d="M24.48214,9.8372c-.12878-.179-.27606-.34693-.4176-.519C24.20626,9.48917,24.35128,9.65726,24.48214,9.8372Z"/><path class="cls-3" d="M22.97506,8.169c.23358.2085.45319.43177.66724.66016-.07727-.08252-.13929-.17407-.21991-.25464C23.27847,8.43058,23.1257,8.30155,22.97506,8.169Z"/><path class="cls-3" d="M22.906,8.10624a11.1676,11.1676,0,0,0-.91364-.71778A10.445,10.445,0,0,1,22.906,8.10624Z"/><path class="cls-2" d="M28.4465,14.92557c-.0036-.042-.00238-.08545-.00635-.12744-.03125-.32519-.08344-.64843-.14008-.97082-.01336-.0763-.02-.15491-.03479-.23072-.06042-.30993-.141-.61633-.225-.92175-.02362-.08569-.04035-.17407-.06574-.25879-.08551-.28662-.19067-.56836-.29712-.84936-.038-.1-.06872-.20337-.10919-.30225-.10754-.26294-.23419-.51953-.36035-.77637-.05408-.10961-.10053-.22387-.15772-.33166-.14062-.26575-.30047-.5238-.4616-.78113-.05555-.08862-.10364-.18225-.16138-.26929q-.33692-.50866-.72815-.9906c-.027-.03332-.05823-.06286-.08557-.09582-.23413-.2815-.47992-.55664-.74256-.82141-.103-.10376-.21515-.19788-.32171-.298-.18915-.178-.37787-.35656-.57508-.5205-.15222-.12622-.31329-.24146-.47143-.36036-.16144-.1217-.32123-.24658-.48706-.35937-.183-.12451-.37427-.23731-.56409-.35205-.15308-.09253-.30463-.18872-.46075-.274-.19831-.10852-.40357-.20508-.60822-.30286-.15845-.07568-.31561-.155-.4765-.22363-.20526-.08765-.41663-.16308-.62732-.24-.16858-.06128-.33594-.12622-.50647-.18-.21222-.06714-.42981-.12146-.64679-.17737-.17334-.04468-.34582-.09351-.52057-.13062-.23156-.04907-.46814-.084-.70428-.12011-.16254-.02478-.32428-.05542-.48749-.074-.27539-.031-.5556-.04516-.83612-.05786-.1106-.00513-.21826-.02075-.32959-.02295v.0044A12.46015,12.46015,0,0,0,7.35586,6.9744L5.68075,5.29935l-1.75537,6.551L10.47646,10.095,8.77462,8.39323a10.47424,10.47424,0,0,1,7.82587-2.85657c.20422.01147.4082.02148.61151.0448.13324.01538.2633.03991.395.06018.20856.032.41675.06421.62341.10876.11261.02454.22247.05579.33374.08387.22431.0559.44751.11474.6684.18579.08172.02649.16095.05761.24176.08593.24524.0857.48852.177.72809.28125.04907.02149.09649.0459.1452.06812.26288.11938.52216.24731.77637.3894.02093.01172.04089.02491.0617.03675.27155.15429.53784.31982.79755.50024l.00909.00671a11.1676,11.1676,0,0,1,.91364.71778c.02344.02026.04584.04223.06909.06274.15064.13257.30341.2616.44733.40552.08062.08057.14264.17212.21991.25464.14831.15869.28607.32336.42224.489.14154.17212.28882.34009.4176.51905a10.82489,10.82489,0,0,1,.69495,1.07983c.02972.05347.06427.10376.09308.15771.073.13794.1333.28016.19976.42041.08417.176.1717.3501.24622.53138.02435.05981.04236.12133.06561.18151.10364.26612.19373.53882.27637.81446A10.34436,10.34436,0,0,1,26.5,15.99821c0,.09021-.01709.1759-.01947.2655a10.25539,10.25539,0,0,1-.07745,1.05517c-.01776.13624-.04108.27-.06409.40455a10.84452,10.84452,0,0,1-.258,1.18493c-.009.03137-.01508.06311-.02436.09448-.00915.03064-.01464.06287-.0241.09351.01495.00818.03027.01379.04516.0221a10.35067,10.35067,0,0,1,1.6518,1.16406c.08191-.22486.16815-.44849.23675-.67676.03845-.12769.06561-.25977.1-.38916.07043-.265.14221-.52991.19488-.79822.0246-.12536.03736-.25451.05817-.38122.04529-.27564.09271-.551.11957-.82837.01275-.13306.01178-.26953.02038-.40357A12.56236,12.56236,0,0,0,28.4465,14.92557Z"/><path class="cls-2" d="M15.04031,26.4495c-.28931-.02637-.57306-.06982-.85517-.11926-.07092-.01233-.14257-.01892-.21331-.0326-.215-.04223-.4242-.09936-.63428-.15454-.12726-.0332-.25556-.06054-.38178-.09851-.157-.04773-.30853-.10656-.46228-.16125-.17755-.06275-.35571-.12219-.53039-.19458-.09552-.04-.18665-.0874-.2807-.13013-.22589-.10156-.45081-.20508-.67047-.32349-.03028-.01635-.05866-.03564-.08881-.05236a10.5369,10.5369,0,0,1-2.08038-1.52625c-.04511-.042-.0943-.0769-.1388-.11987-.04193-.04053-.08941-.07154-.1308-.11292L7.16061,24.83622c.18573.18579.386.35644.58307.53027.106.09339.20684.19556.31512.28479.21326.17566.43958.33533.66437.49671.10614.07629.20837.16015.31634.23266.22541.15137.462.28687.69745.42371.1175.06824.232.14343.3512.20752.22668.12195.46271.2279.69757.33606.13733.063.27209.133.41113.19079.22351.09314.4549.17029.68476.25061.15728.05469.31262.1167.47155.165.22882.06958.46448.12281.69867.17957.16339.03943.3252.08679.48975.11951.27045.054.54712.08959.82361.12573.1297.01709.2583.04321.38843.05615.40563.04.81677.06177,1.23284.06226L16,28.49821c.10889,0,.21442-.01307.32257-.01624.29249-.00867.58515-.01685.87256-.04407A9.3169,9.3169,0,0,1,15.04031,26.4495Z"/><path class="cls-3" d="M15.04031,26.4495c-.28931-.02637-.57306-.06982-.85517-.11926-.07092-.01233-.14257-.01892-.21331-.0326-.215-.04223-.4242-.09936-.63428-.15454-.12726-.0332-.25556-.06054-.38178-.09851-.157-.04773-.30853-.10656-.46228-.16125-.17755-.06275-.35571-.12219-.53039-.19458-.09552-.04-.18665-.0874-.2807-.13013-.22589-.10156-.45081-.20508-.67047-.32349-.03028-.01635-.05866-.03564-.08881-.05236a10.5369,10.5369,0,0,1-2.08038-1.52625c-.04511-.042-.0943-.0769-.1388-.11987-.04193-.04053-.08941-.07154-.1308-.11292L7.16061,24.83622c.18573.18579.386.35644.58307.53027.106.09339.20684.19556.31512.28479.21326.17566.43958.33533.66437.49671.10614.07629.20837.16015.31634.23266.22541.15137.462.28687.69745.42371.1175.06824.232.14343.3512.20752.22668.12195.46271.2279.69757.33606.13733.063.27209.133.41113.19079.22351.09314.4549.17029.68476.25061.15728.05469.31262.1167.47155.165.22882.06958.46448.12281.69867.17957.16339.03943.3252.08679.48975.11951.27045.054.54712.08959.82361.12573.1297.01709.2583.04321.38843.05615.40563.04.81677.06177,1.23284.06226L16,28.49821c.10889,0,.21442-.01307.32257-.01624.29249-.00867.58515-.01685.87256-.04407A9.3169,9.3169,0,0,1,15.04031,26.4495Z"/><path class="cls-2" d="M23.604,23.2183a1.76135,1.76135,0,0,0-1.50989-.91c-.03192-.00146-.062-.0083-.0943-.0083h-.5a1.25725,1.25725,0,0,1,.34692.34314.82923.82923,0,0,1,.15308.45679.8964.8964,0,0,1-.9.90015,1.02,1.02,0,0,1-.8-.5V24a1.88605,1.88605,0,0,0,.36377,1.12744,1.71,1.71,0,0,0,.1687.18286l.005.00537A1.6134,1.6134,0,0,0,21.99978,25.8,1.79244,1.79244,0,0,0,23.79977,24a1.65874,1.65874,0,0,0-.19428-.77906Z"/><path class="cls-2" d="M26.84963,22.18119A8.17794,8.17794,0,0,0,25.25112,20.957l-.00061-.00037c-.05011-.02954-.0957-.0625-.14685-.09106a6.4826,6.4826,0,0,0-2.89331-.85376C22.13986,20.009,22.07082,20,21.99978,20c-.04614,0-.08954.011-.13538.0122a6.00005,6.00005,0,0,0-1.77484.3191,7.80752,7.80752,0,0,0-3.516,2.499,3.23107,3.23107,0,0,0-.517.88989A.96123.96123,0,0,0,15.99978,24a.81374.81374,0,0,0,.01569.10571,4.71556,4.71556,0,0,0,1.71313,2.23633l.00147.0011a7.62649,7.62649,0,0,0,2.54638,1.3883l.00165.00049a5.884,5.884,0,0,0,1.692.26636h.05932a6.40375,6.40375,0,0,0,3.05-.85047c1.744-.96521,2.92029-2.48889,2.92029-3.14782a3.42177,3.42177,0,0,0-1.147-1.81555ZM21.99978,27c-.01874,0-.03619-.00379-.05487-.00415l-.0094-.00061A2.94816,2.94816,0,0,1,19.616,25.84354l-.00018-.00036a2.93159,2.93159,0,0,1-.40381-.7157A3.10454,3.10454,0,0,1,18.99978,24a3.04755,3.04755,0,0,1,.23676-1.16968,2.98869,2.98869,0,0,1,.30834-.58057A2.95465,2.95465,0,0,1,21.977,21.00272c.00794-.00012.0149-.00268.02283-.00268a2.956,2.956,0,0,1,2.43481,1.22522l.00141.00183A3.0169,3.0169,0,0,1,24.99978,24a3.1325,3.1325,0,0,1-.10669.77539l-.00085.00281A2.928,2.928,0,0,1,21.99978,27Z"/></svg>