<svg id="Layer_1" data-name="Layer 1" xmlns="http://www.w3.org/2000/svg" viewBox="0 0 64 64"><defs><style>.cls-1{fill:none;}.cls-2{fill:#fff;}.cls-3{opacity:0.6;}.cls-4{fill:#fcfdff;}</style></defs><path class="cls-1" d="M32,19A17,17,0,0,0,15,36,17.25,17.25,0,0,0,32,53,17.25,17.25,0,0,0,49,36,17,17,0,0,0,32,19Zm0,30A13,13,0,1,1,45,36,13,13,0,0,1,32,49Z"/><path class="cls-2" d="M48.8,23.4l3.1-3a1.2,1.2,0,0,0,0-1.4L49,16.1a1.2,1.2,0,0,0-1.4,0l-3,3.1a20.54,20.54,0,0,0-9.6-4V12h3a.94.94,0,0,0,1-1V8a.94.94,0,0,0-1-1H26a1,1,0,0,0-1,1v3a1,1,0,0,0,1,1h3v3.2A21,21,0,0,0,11,36,20.75,20.75,0,0,0,32,57,20.75,20.75,0,0,0,53,36,21.19,21.19,0,0,0,48.8,23.4ZM32,53A17.25,17.25,0,0,1,15,36a17,17,0,0,1,34,0A17.25,17.25,0,0,1,32,53Z"/><g class="cls-3"><path class="cls-2" d="M32,23A13,13,0,1,1,19,36,13,13,0,0,1,32,23m0-5.61A18.61,18.61,0,1,0,50.61,36,18.63,18.63,0,0,0,32,17.39Z"/></g><path class="cls-4" d="M36.66,38.67Q36.21,43.61,32,43.6c-2.71,0-4.28-1.83-4.69-5.49h-1V37h.94v-2h-.94V34h1Q27.93,28.4,32,28.4a4.16,4.16,0,0,1,3.14,1.21,5.8,5.8,0,0,1,1.48,3.46H34.71a4.54,4.54,0,0,0-.86-2.34A2.22,2.22,0,0,0,32,29.89q-2.29,0-2.73,4.09h3.05l-.3,1.09H29.22v2h2.22l-.3,1.08H29.31q.44,4,2.73,4t2.67-3.46Z"/></svg>