<svg id="Layer_1" data-name="Layer 1" xmlns="http://www.w3.org/2000/svg" viewBox="0 0 32 32"><defs><style>.cls-1{fill:none;}.cls-2,.cls-3{fill:#283593;}.cls-2{opacity:0.4;}</style></defs><path class="cls-1" d="M8.354,17.99139a2.85172,2.85172,0,1,0,2.85144,2.85144A2.855,2.855,0,0,0,8.354,17.99139Zm0,4.70239a1.85071,1.85071,0,1,1,1.85046-1.851A1.85311,1.85311,0,0,1,8.354,22.69378Z"/><polygon class="cls-1" points="16.888 13.065 16.117 7.885 11.202 7.885 11.202 14.276 11.207 14.276 13.865 16.643 16.888 16.643 16.888 13.065"/><polygon class="cls-1" points="7.919 10.307 7.478 14.276 10.201 14.276 10.201 7.885 8.855 7.885 7.919 10.307"/><path class="cls-2" d="M28.258,20.7622a3.64873,3.64873,0,0,0-3.41522-2.37988,3.58338,3.58338,0,0,0-.3595.03625A9.73248,9.73248,0,0,1,28.258,20.7622Z"/><path class="cls-2" d="M8.35391,15.98919A4.85385,4.85385,0,1,0,13.20773,20.843,4.85385,4.85385,0,0,0,8.35391,15.98919ZM8.354,23.69482a2.85172,2.85172,0,1,1,2.85144-2.852A2.85544,2.85544,0,0,1,8.354,23.69482Z"/><path class="cls-3" d="M8.354,18.99236a1.85071,1.85071,0,1,0,1.85046,1.85047A1.8527,1.8527,0,0,0,8.354,18.99236Z"/><path class="cls-3" d="M21.9996,18.0003c.16327,0,.324.01538.48553.02606a4.622,4.622,0,0,1,4.59259-.07172l.23023-.54052V15.89758a1.47274,1.47274,0,0,0-1.15119-1.43641l-4.35931-.956-3.90888-.39032v-.09009l-.76574-5.14013h.4104V7.48925A1.18656,1.18656,0,0,0,16.342,6.30309H8.6694A1.18655,1.18655,0,0,0,7.47823,7.48925v.39539h.34034l-.89093,2.30224L6.47225,14.276H5.93166L3.72451,15.77746l.55554.86584,1.65161-1.12109a5.75908,5.75908,0,0,1,2.42243-.53552,5.86337,5.86337,0,0,1,5.85583,5.85583c0,.16516-.015.32532-.025.48548h1.04169A9.229,9.229,0,0,1,21.9996,18.0003ZM10.20089,14.276H7.47823l.4405-3.96893.93591-2.42242h1.34625Zm3.66364,2.36731L11.20693,14.276h-.005V7.88464h4.91485l.77076,5.18011V16.6433Z"/><path class="cls-3" d="M21.99976,22.3h-.5a1.01974,1.01974,0,0,1,.5.8.89626.89626,0,0,1-.9.9,1.01974,1.01974,0,0,1-.8-.5V24a1.71035,1.71035,0,0,0,1.7,1.8,1.79252,1.79252,0,0,0,1.8-1.8A1.71035,1.71035,0,0,0,21.99976,22.3Z"/><path class="cls-3" d="M21.99976,20c-3.3,0-6,3-6,4s2.7,4,6,4,6-3,6-4S25.29976,20,21.99976,20Zm0,7a3,3,0,1,1,3-3A2.94645,2.94645,0,0,1,21.99976,27Z"/></svg>