<svg id="Layer_1" data-name="Layer 1" xmlns="http://www.w3.org/2000/svg" viewBox="0 0 32 32"><defs><style>.cls-1{opacity:0.2;}.cls-1,.cls-2{isolation:isolate;}.cls-2,.cls-3{fill:#ca0821;}</style></defs><g class="cls-1"><path class="cls-2" d="M25.5,4.5a1,1,0,0,0-1-1H7.5a1,1,0,0,0-1,1v23a1,1,0,0,0,1,1h17a1,1,0,0,0,1-1V4.5Z"/></g><path class="cls-3" d="M22.52,17.72a3,3,0,0,0-.64-.95,3.15,3.15,0,0,0-.93-.64,3,3,0,0,0-1.16-.22,3,3,0,0,0-1.16.22,3.2,3.2,0,0,0-.94.64,3.12,3.12,0,0,0-.64.95,2.91,2.91,0,0,0-.23,1.15A2.88,2.88,0,0,0,17.05,20a3.12,3.12,0,0,0,.64.95,3.2,3.2,0,0,0,.94.64,3,3,0,0,0,1.16.22A3,3,0,0,0,21,21.61a3.15,3.15,0,0,0,.93-.64,3,3,0,0,0,.64-.95,2.72,2.72,0,0,0,.23-1.15A2.75,2.75,0,0,0,22.52,17.72Zm-1.71,2.17a1.39,1.39,0,0,1-1,.42,1.37,1.37,0,0,1-1-.42,1.39,1.39,0,0,1-.42-1,1.37,1.37,0,0,1,.42-1,1.41,1.41,0,0,1,1-.42,1.43,1.43,0,0,1,1,.42,1.4,1.4,0,0,1,.41,1A1.42,1.42,0,0,1,20.81,19.89Z"/><path class="cls-3" d="M15,12a3.12,3.12,0,0,0-.64-1,3.07,3.07,0,0,0-.94-.64,3.14,3.14,0,0,0-2.31,0,3.2,3.2,0,0,0-.94.64,3,3,0,0,0-.64,1,2.88,2.88,0,0,0-.23,1.15,2.9,2.9,0,0,0,.87,2.1,3.2,3.2,0,0,0,.94.64,3,3,0,0,0,2.31,0,3.07,3.07,0,0,0,.94-.64,3.2,3.2,0,0,0,.64-.94,2.83,2.83,0,0,0,.23-1.16A2.72,2.72,0,0,0,15,12Zm-1.72,2.17a1.41,1.41,0,0,1-1,.42,1.43,1.43,0,0,1-1-.42,1.4,1.4,0,0,1-.41-1,1.42,1.42,0,0,1,.41-1,1.4,1.4,0,0,1,1-.42,1.37,1.37,0,0,1,1,.42,1.39,1.39,0,0,1,.42,1A1.37,1.37,0,0,1,13.23,14.15Z"/><polygon class="cls-3" points="20 10.45 13.36 22.15 12.04 21.55 18.67 9.85 20 10.45"/></svg>