<svg id="Layer_1" data-name="Layer 1" xmlns="http://www.w3.org/2000/svg" viewBox="0 0 32 32"><defs><style>.cls-1{fill:#fff;}.cls-2,.cls-4{fill:#00796b;}.cls-3{fill:none;}.cls-4{opacity:0.4;}</style></defs><circle class="cls-1" cx="22" cy="24" r="3"/><path class="cls-2" d="M22,22.3h-.5a1,1,0,0,1,.5.8.9.9,0,0,1-.9.9,1,1,0,0,1-.8-.5V24A1.71,1.71,0,0,0,22,25.8,1.79,1.79,0,0,0,23.8,24,1.71,1.71,0,0,0,22,22.3Z"/><path class="cls-2" d="M22,20c-3.3,0-6,3-6,4s2.7,4,6,4,6-3,6-4S25.3,20,22,20Zm0,7a3,3,0,1,1,3-3A2.95,2.95,0,0,1,22,27Z"/><circle class="cls-3" cx="16" cy="7.72" r="1.38"/><path class="cls-4" d="M14,24c0-1.23,1.11-2.89,2.8-4.15h-.51c-.18,0-.29,0-.29-.29V18.42c0-.28.11-.28.29-.28H20.6A7.23,7.23,0,0,1,22,18a7.88,7.88,0,0,1,2.74.51V8.64a.92.92,0,0,0-.92-.92H20.14a2.29,2.29,0,0,1,2.3,2.3H9.56a2.29,2.29,0,0,1,2.3-2.3H8.18a.92.92,0,0,0-.92.92V26.58a1,1,0,0,0,.92.92H16A5.45,5.45,0,0,1,14,24Zm2-10.18c0-.28.11-.28.29-.28h5.86c.18,0,.29,0,.29.28V15c0,.29-.11.29-.29.29H16.29c-.18,0-.29,0-.29-.29Zm-2.1,8.29-2.07,2.11-.51.55H11l-.51-.55-.92-.93a.19.19,0,0,1,0-.26l.52-.51a.18.18,0,0,1,.27,0l.77.77,2-1.94a.17.17,0,0,1,.26,0l.51.51A.17.17,0,0,1,13.9,22.11Zm0-4.6-2.07,2.11-.51.55H11l-.51-.55-.92-.93a.19.19,0,0,1,0-.26l.52-.51a.18.18,0,0,1,.27,0l.77.77,2-1.94a.17.17,0,0,1,.26,0l.51.51A.17.17,0,0,1,13.9,17.51Zm0-4.6L11.83,15l-.51.55H11L10.53,15l-.92-.93a.19.19,0,0,1,0-.26l.52-.51a.18.18,0,0,1,.27,0l.77.77,2-1.95a.19.19,0,0,1,.26,0l.51.52A.17.17,0,0,1,13.9,12.91Z"/><path class="cls-2" d="M9.56,10H22.44a2.29,2.29,0,0,0-2.3-2.3h-.92a3.22,3.22,0,1,0-6.44,0h-.92A2.29,2.29,0,0,0,9.56,10ZM16,6.34a1.38,1.38,0,1,1-1.38,1.38A1.36,1.36,0,0,1,16,6.34Z"/><path class="cls-2" d="M13.39,12.14a.19.19,0,0,0-.26,0l-2,1.95-.77-.77a.18.18,0,0,0-.27,0l-.52.51a.19.19,0,0,0,0,.26l.92.93.51.55h.28l.51-.55,2.07-2.11a.17.17,0,0,0,0-.25Z"/><path class="cls-2" d="M13.39,16.75a.17.17,0,0,0-.26,0l-2,1.94-.77-.77a.18.18,0,0,0-.27,0l-.52.51a.19.19,0,0,0,0,.26l.92.93.51.55h.28l.51-.55,2.07-2.11a.17.17,0,0,0,0-.25Z"/><path class="cls-2" d="M13.39,21.35a.17.17,0,0,0-.26,0l-2,1.94-.77-.77a.18.18,0,0,0-.27,0L9.61,23a.19.19,0,0,0,0,.26l.92.93.51.55h.28l.51-.55,2.07-2.11a.17.17,0,0,0,0-.25Z"/><path class="cls-1" d="M16,18.42v1.14c0,.29.11.29.29.29h.51a9.09,9.09,0,0,1,3.8-1.71H16.29C16.11,18.14,16,18.14,16,18.42Z"/><path class="cls-1" d="M16.29,15.25h5.86c.18,0,.29,0,.29-.29V13.82c0-.28-.11-.28-.29-.28H16.29c-.18,0-.29,0-.29.28V15C16,15.25,16.11,15.25,16.29,15.25Z"/></svg>