<svg id="Layer_1" data-name="Layer 1" xmlns="http://www.w3.org/2000/svg" viewBox="0 0 24 24"><defs><style>.cls-1{fill:#fff;}.cls-2{fill:#1467ba;}</style></defs><path class="cls-1" d="M19.81,2.45H14.6a.37.37,0,0,0-.36.37V6.51h.37a1.32,1.32,0,0,1,1.32,1.31V21.55h3.89a.37.37,0,0,0,.36-.37V2.82A.39.39,0,0,0,19.81,2.45Z"/><path class="cls-2" d="M19.83,1.5H14.6a1.32,1.32,0,0,0-1.32,1.32V6.51H9.39A1.32,1.32,0,0,0,8.07,7.82v3.7H4.18a1.31,1.31,0,0,0-1.31,1.31v8.35A1.32,1.32,0,0,0,4.18,22.5H19.82a1.32,1.32,0,0,0,1.31-1.32V2.82A1.33,1.33,0,0,0,19.83,1.5ZM9.76,21.55H4.18a.37.37,0,0,1-.36-.37V12.83a.36.36,0,0,1,.36-.36H9.4a.36.36,0,0,1,.36.36Zm5.21,0H10.72V12.83A1.32,1.32,0,0,0,9.4,11.52H9V7.82a.36.36,0,0,1,.36-.36h5.22a.36.36,0,0,1,.36.36Zm5.21-.37a.37.37,0,0,1-.36.37H15.93V7.82a1.32,1.32,0,0,0-1.32-1.31h-.37V2.82a.37.37,0,0,1,.36-.37h5.21a.39.39,0,0,1,.37.37Z"/><path class="cls-1" d="M14.61,7.46H9.39A.36.36,0,0,0,9,7.82v3.7H9.4a1.32,1.32,0,0,1,1.32,1.31v8.72H15V7.82A.36.36,0,0,0,14.61,7.46Z"/><path class="cls-1" d="M9.4,12.47H4.18a.36.36,0,0,0-.36.36v8.35a.37.37,0,0,0,.36.37H9.76V12.83A.36.36,0,0,0,9.4,12.47Z"/></svg>