<svg id="Layer_1" data-name="Layer 1" xmlns="http://www.w3.org/2000/svg" viewBox="0 0 64 64"><defs><style>.cls-1,.cls-2{fill:#fff;}.cls-1{opacity:0.6;isolation:isolate;}</style></defs><path class="cls-1" d="M49.00008,7H15a2.07372,2.07372,0,0,0-2,2V55a2.0739,2.0739,0,0,0,2,2H49a2.0739,2.0739,0,0,0,2-2V8.99978A1.99979,1.99979,0,0,0,49.00008,7ZM44.72188,49.4197H19.27816V46.42556H44.72188Zm0-5.86524H19.27816V40.56008H44.72188Z"/><path class="cls-2" d="M21,14.04415a.81528.81528,0,0,0,.81555.81568h.56311l.59174,3.27319.001.00293,1.84833,10.23682h.00012l.56158,3.10766a2.8286,2.8286,0,0,1,1.62567-.17895l-.52923-2.92871H41.15786L43,18.16964,24.46108,17.207l-.71887-3.97827H21.81557A.81507.81507,0,0,0,21,14.04415Zm3.75842,4.812,2.74378.14234.3053,2.95825H25.31869Zm9.0459.46924,2.981.15454-.25561,2.47681H33.80434Zm-1.6311,2.63135H29.448l-.29645-2.87256,3.02173.15674Zm4.18811,1.6311-.32544,3.15406H33.80434V23.58785Zm-4.18811,3.15406H29.94173l-.32544-3.15406h2.557Zm-3.87183,0H26.18325l-.56989-3.15406h2.36249Zm12.7649-7.0398-.40741,2.25464H38.17013l.24688-2.39209Zm-1.27192,7.0398H37.67623l.32556-3.15406h2.36243Z"/><path class="cls-2" d="M24.17544,34.43453a2.35987,2.35987,0,0,0,4.57635.81568h8.169a2.3648,2.3648,0,1,0,.00012-1.63111H28.75167a2.36,2.36,0,0,0-4.57623.81543Zm14.22278,0a.73431.73431,0,1,1,.73431.73438A.73479.73479,0,0,1,38.39822,34.43453Zm-12.59168,0a.73392.73392,0,1,1,.73431.73438A.73479.73479,0,0,1,25.80654,34.43453Z"/></svg>