<?xml version="1.0" encoding="utf-8"?>
<!-- Generator: Adobe Illustrator 24.2.0, SVG Export Plug-In . SVG Version: 6.00 Build 0)  -->
<svg version="1.1" id="Layer_1" xmlns="http://www.w3.org/2000/svg" xmlns:xlink="http://www.w3.org/1999/xlink" x="0px" y="0px"
	 viewBox="0 0 100 100" style="enable-background:new 0 0 100 100;" xml:space="preserve">
<style type="text/css">
	.st0{fill:#959595;}
</style>
<path class="st0" d="M11.4,66.6c-2.9-2.8-5.8-5.3-8.4-8.2c-4.3-5.2-4-12.7,0.6-17.6C7,37.3,10.4,34,13.8,30.6L40.3,4.2
	c4.4-4.6,11.5-5.5,17-2.1c1.6,1.2,3.1,2.4,4.5,3.8c-2.1,2.1-4,4.2-5.9,6.1c-3.5,3.5-7.1,6.8-9.6,11.1c-1.3,2.5-2.4,5.2-3.1,8
	c-1.7,4.8-4.5,9.1-8.2,12.5c-7.7,7.5-15.4,15.1-23.1,22.6L11.4,66.6z"/>
<path class="st0" d="M38.5,94.2c3.5-3.7,6.8-7.4,10.3-10.8c4-3.8,6.9-8.5,8.5-13.8c1.6-5.4,4.6-10.3,8.7-14.2
	c7.4-7.2,14.8-14.5,22.2-21.8c0.1-0.1,0.3-0.3,0.2-0.1c3.1,2.7,6,5.5,8.7,8.4c4.3,5,3.6,12.8-1.3,17.7c-5.5,5.5-11,11-16.5,16.5
	c-6.5,6.5-13.1,13.1-19.6,19.6c-4.3,4.6-11.2,5.5-16.6,2.3C41.5,96.8,40,95.5,38.5,94.2z"/>
<path class="st0" d="M34.4,89.8l-3.6-3.7c2.5-2.6,5-5.3,7.5-7.9c2.5-2.6,5.1-4.9,7.5-7.5c3.2-3.4,5.5-7.5,6.8-12
	c1.6-5.5,4.7-10.5,9-14.4c6.3-6.1,12.5-12.2,18.7-18.4c0.2-0.2,0.4-0.4,0.6-0.5l3.7,3.7c-1.8,1.9-3.6,3.8-5.5,5.7
	C74,40,68.8,45.1,63.7,50.1c-4.1,4-7,9.1-8.5,14.6c-1.4,4.6-3.9,8.7-7.4,12c-4.2,4.2-8.5,8.4-12.8,12.6L34.4,89.8z"/>
<path class="st0" d="M19.1,74.4l-3.9-3.8c0.7-0.7,1.4-1.5,2.2-2.2l19.7-19.5c3.9-3.8,6.8-8.5,8.3-13.7c1.6-5.4,4.6-10.2,8.7-14
	c3.8-3.7,7.5-7.4,11.3-11.1l3.7,3.9c-1.2,1.3-2.5,2.6-3.8,4C62,21.3,58.5,24.6,55.1,28c-3.5,3.4-6.1,7.6-7.6,12.3
	c-1.7,5.9-5,11.3-9.5,15.5C31.6,61.9,25.4,68.2,19.1,74.4z"/>
<path class="st0" d="M26.8,82.1L23,78.4c1.7-1.7,3.3-3.5,5.1-5.3c4.7-4.7,9.5-9.2,14.1-14c3.3-3.5,5.7-7.8,7-12.5
	c1.5-5.1,4.3-9.8,8.2-13.5l15.2-14.8c0.2-0.2,0.4-0.4,0.6-0.6l3.8,3.8c-1.5,1.5-3.1,3.2-4.7,4.8c-4.5,4.4-9,8.7-13.4,13.1
	c-4,4-6.9,9-8.4,14.5c-1.3,4.5-3.8,8.6-7.2,11.9c-5.3,5.3-10.7,10.5-16,15.8C27.1,81.8,26.9,81.9,26.8,82.1z"/>
</svg>
