<svg id="Layer_1" data-name="Layer 1" xmlns="http://www.w3.org/2000/svg" viewBox="0 0 24 24"><defs><style>.cls-1{fill:#1467ba;}</style></defs><path class="cls-1" d="M11.42,15.51h1.16a.58.58,0,0,1,.59.58v1.17a.58.58,0,0,1-.59.59H11.42a.58.58,0,0,1-.59-.58h0V16.09A.58.58,0,0,1,11.42,15.51Zm0-9.36h1.16a.58.58,0,0,1,.59.59v7a.58.58,0,0,1-.59.59H11.42a.58.58,0,0,1-.59-.58h0v-7A.58.58,0,0,1,11.42,6.15Z"/><path class="cls-1" d="M17.49,2.47h0L23,12l-5.51,9.52H6.5L1,12,6.51,2.47h11m0-1h-11A1,1,0,0,0,5.63,2L.14,11.49a1,1,0,0,0,0,1L5.63,22a1,1,0,0,0,.88.51h11a1,1,0,0,0,.88-.51l5.49-9.51a1,1,0,0,0,0-1L18.37,2a1,1,0,0,0-.88-.51Z"/></svg>