<svg id="Layer_1" data-name="Layer 1" xmlns="http://www.w3.org/2000/svg" viewBox="0 0 64 64"><defs><style>.cls-1,.cls-2{fill:#fff;}.cls-1{opacity:0.6;isolation:isolate;}</style></defs><path class="cls-1" d="M49,7H15a2.0741,2.0741,0,0,0-2,2V57h.0012c2.3761-.0014,2.3767-4,4.7537-4s2.3775,3.9986,4.7536,4h.0024c2.3745-.0014,2.375-4,4.75-4,2.3733,0,2.3739,3.9986,4.7463,4H32.01c2.3722-.0014,2.3727-4,4.7457-4s2.3742,3.9986,4.747,4h.0023c2.3728-.0014,2.3734-4,4.747-4s2.3741,3.9986,4.7469,4H51V9A2,2,0,0,0,49,7ZM44.7219,49.42H19.2781V46.4256H44.7219Zm0-5.8653H19.2781V40.56H44.7219Z"/><path class="cls-2" d="M43.6023,30.6516,36.3909,23.44a7.3565,7.3565,0,0,0-1.8334-8.4337,9.12,9.12,0,0,0-7.517-2.75,2.65,2.65,0,0,0-1.1.2445c-.3056.2444,0,.4889.1222.6111l1.4056,1.4056.6111.6111.7334.7334,1.1,1.1.3055.3055a1.0312,1.0312,0,0,1,.2445.8556l-.7945,2.8724a.9839.9839,0,0,1-.2445.4277,1.2766,1.2766,0,0,1-.3666.2445l-2.9335.7334a.846.846,0,0,1-.8556-.1834l-.3055-.3055-1.1-1.1-.7334-.7334-.6111-.6111-1.4056-1.4056c-.1222-.1222-.3667-.4278-.6111-.1222a2.65,2.65,0,0,0-.2445,1.1,9.12,9.12,0,0,0,2.75,7.517A7.3565,7.3565,0,0,0,31.4407,28.39l5.8058,5.8058,1.4056,1.4056a.5907.5907,0,0,0,.8556,0l4.0946-4.0946A.5907.5907,0,0,0,43.6023,30.6516Z"/></svg>