<svg id="Layer_1" data-name="Layer 1" xmlns="http://www.w3.org/2000/svg" viewBox="0 0 32 32"><defs><style>.cls-1,.cls-2{fill:#ca0821;}.cls-1{opacity:0.2;isolation:isolate;}.cls-3{fill:#fff;}.cls-4{fill:#e03c24;}</style></defs><path class="cls-1" d="M14.42,25.48H8.93V23.81H14A4.39,4.39,0,0,1,15,21.66h-6V20h7.68A8.9,8.9,0,0,1,22,18a8.15,8.15,0,0,1,3.5.83V4.5a1,1,0,0,0-1-1H7.5a1,1,0,0,0-1,1v23a1,1,0,0,0,1,1h9.8A8.51,8.51,0,0,1,14.42,25.48Zm4.36-19L21.5,9.22,18.09,12,16,9.91Zm-6.65,5.11a4.47,4.47,0,0,0,3.64-1.1l.41.41.45.45.56.55.3.31a4.47,4.47,0,0,0-1.1,3.64c-.66,0-5.52,1.63-5.52,1.63l2.76-2.76a.62.62,0,0,0,.67-.14.64.64,0,1,0-.9-.9.62.62,0,0,0-.14.67L10.5,17.13S12.1,12.27,12.13,11.61Z"/><path class="cls-2" d="M13.4,13.7a.64.64,0,1,1,.9.9.62.62,0,0,1-.67.14L10.87,17.5s4.86-1.6,5.52-1.63a4.47,4.47,0,0,1,1.1-3.64l-.3-.31-.56-.55-.45-.45-.41-.41a4.47,4.47,0,0,1-3.64,1.1c0,.66-1.63,5.52-1.63,5.52l2.76-2.76A.62.62,0,0,1,13.4,13.7Z"/><polygon class="cls-2" points="21.5 9.22 18.78 6.5 16.01 9.91 18.09 11.99 21.5 9.22"/><path class="cls-3" d="M16.61,20H8.93v1.67h6A9,9,0,0,1,16.61,20Z"/><path class="cls-3" d="M14,23.81H8.93v1.67h5.49A3.34,3.34,0,0,1,14,24,1.23,1.23,0,0,1,14,23.81Z"/><path class="cls-3" d="M20.81,26.75l-.06,0-.08,0a2.56,2.56,0,0,1-.84-.61,1.49,1.49,0,0,1-.23-.27,1.85,1.85,0,0,1-.21-.33h0a2.2,2.2,0,0,0,.21.32,2,2,0,0,0,.23.27,3.05,3.05,0,0,0,.84.62l.06,0Z"/><path class="cls-3" d="M20.83,26.76h0Z"/><path class="cls-3" d="M21.2,26.89a1.12,1.12,0,0,1-.31-.1l-.06,0,.09,0Z"/><path class="cls-4" d="M24.73,25.27A2.84,2.84,0,0,1,23,26.83,3.11,3.11,0,0,0,24.73,25.27Z"/><path class="cls-4" d="M24.59,22.47a3,3,0,0,0-1.49-1.25v0A2.86,2.86,0,0,1,24.59,22.47Z"/><path class="cls-4" d="M20.15,21.66a2.27,2.27,0,0,0-.28.26l-.11.12a2.45,2.45,0,0,0-.41.6,2,2,0,0,0-.1.21.69.69,0,0,0-.05.13.33.33,0,0,1,0-.14,1.42,1.42,0,0,1,.08-.18,1.77,1.77,0,0,1,.19-.33,1.93,1.93,0,0,1,.28-.36,3.26,3.26,0,0,1,.33-.31Z"/><path class="cls-4" d="M20.76,21.27a3.51,3.51,0,0,0-.61.39h0A2.61,2.61,0,0,1,20.76,21.27Z"/><path class="cls-4" d="M23.1,21.2v0a3.24,3.24,0,0,0-.53-.16A3.18,3.18,0,0,1,23.1,21.2Z"/><path class="cls-4" d="M19.41,25.48h0a2.85,2.85,0,0,1-.28-.7A3.6,3.6,0,0,0,19.41,25.48Z"/><path class="cls-3" d="M20.83,26.76h0Z"/><path class="cls-3" d="M23.1,25.43v.05H23Z"/><path class="cls-2" d="M25.5,21.1a6.9,6.9,0,0,0-2.4-1A5.7,5.7,0,0,0,22,20a6.94,6.94,0,0,0-4.27,1.66A5.06,5.06,0,0,0,16,23.81,1.81,1.81,0,0,0,16,24a2.87,2.87,0,0,0,.83,1.48A7.25,7.25,0,0,0,22,28a6.54,6.54,0,0,0,3.5-1.1C27,25.94,28,24.61,28,24S27,22.07,25.5,21.1Zm-.63,3.79a2.46,2.46,0,0,1-.14.38A2.84,2.84,0,0,1,23,26.83a2.62,2.62,0,0,1-.4.11h0A3.08,3.08,0,0,1,22,27a3,3,0,0,1-.8-.11,1.12,1.12,0,0,1-.31-.1l-.06,0h0l-.06,0-.08,0a2.56,2.56,0,0,1-.84-.61,1.49,1.49,0,0,1-.23-.27,1.85,1.85,0,0,1-.21-.33,2.85,2.85,0,0,1-.28-.7A2.77,2.77,0,0,1,19,24c0-.06,0-.12,0-.19a2.68,2.68,0,0,1,.11-.64A1.07,1.07,0,0,1,19.2,23a.33.33,0,0,1,0-.14,1.42,1.42,0,0,1,.08-.18,1.77,1.77,0,0,1,.19-.33,1.93,1.93,0,0,1,.28-.36,2.42,2.42,0,0,1,.33-.31,2.61,2.61,0,0,1,.64-.39,1.17,1.17,0,0,1,.24-.09,1.13,1.13,0,0,1,.24-.08A2.73,2.73,0,0,1,22,21a2.62,2.62,0,0,1,.57.06,3.18,3.18,0,0,1,.53.14,2.86,2.86,0,0,1,1.49,1.27,2.65,2.65,0,0,1,.27.62A3,3,0,0,1,25,24,2.9,2.9,0,0,1,24.87,24.89Z"/><path class="cls-3" d="M24.86,23.09a2.65,2.65,0,0,0-.27-.62,3,3,0,0,0-1.49-1.25,3.24,3.24,0,0,0-.53-.16A2.62,2.62,0,0,0,22,21a2.73,2.73,0,0,0-.76.1l-.24.08a1.17,1.17,0,0,0-.24.09,3.51,3.51,0,0,0-.61.39,2.27,2.27,0,0,0-.28.26l-.11.12a2.45,2.45,0,0,0-.41.6,2,2,0,0,0-.1.21.69.69,0,0,0-.05.13,1.07,1.07,0,0,0-.07.19,2.68,2.68,0,0,0-.11.64c0,.07,0,.13,0,.19a2.77,2.77,0,0,0,.11.78,3.6,3.6,0,0,0,.3.7,2.2,2.2,0,0,0,.21.32,2,2,0,0,0,.23.27,3.05,3.05,0,0,0,.84.62l.06,0,.06,0h0l.09,0,.28.1A3,3,0,0,0,22,27a3.08,3.08,0,0,0,.61-.06h0a2.62,2.62,0,0,0,.4-.11,3.11,3.11,0,0,0,1.71-1.56,2.46,2.46,0,0,0,.14-.38A2.9,2.9,0,0,0,25,24,3,3,0,0,0,24.86,23.09ZM23.1,25.43v.05H23a1.85,1.85,0,0,1-1,.32,1.65,1.65,0,0,1-1-.32A1.82,1.82,0,0,1,20.3,24v-.5a1.27,1.27,0,0,0,.3.31.84.84,0,0,0,.5.19.94.94,0,0,0,.9-.9,1,1,0,0,0-.5-.8H22A1.71,1.71,0,0,1,23.8,24,1.78,1.78,0,0,1,23.1,25.43Z"/><path class="cls-2" d="M23.8,24a1.78,1.78,0,0,1-.7,1.43l-.06.05a1.85,1.85,0,0,1-1,.32,1.65,1.65,0,0,1-1-.32A1.82,1.82,0,0,1,20.3,24v-.5a1.27,1.27,0,0,0,.3.31.84.84,0,0,0,.5.19.94.94,0,0,0,.9-.9,1,1,0,0,0-.5-.8H22A1.71,1.71,0,0,1,23.8,24Z"/></svg>