<svg id="Layer_1" data-name="Layer 1" xmlns="http://www.w3.org/2000/svg" viewBox="0 0 32 32"><defs><style>.cls-1{opacity:0.2;}.cls-1,.cls-2{isolation:isolate;}.cls-2,.cls-4{fill:#8b6747;}.cls-3{fill:#fff;}</style></defs><g class="cls-1"><path class="cls-2" d="M25.5,4.5a1,1,0,0,0-1-1H7.5a1.0369,1.0369,0,0,0-1,1v23a1.0369,1.0369,0,0,0,1,1h17a1.0369,1.0369,0,0,0,1-1V4.5Z"/></g><rect class="cls-3" x="8.9342" y="19.9893" width="14.1594" height="1.6662"/><rect class="cls-3" x="8.9342" y="23.8098" width="14.1594" height="1.6662"/><path class="cls-4" d="M21.4248,15.0921,18.06,11.7268a3.4331,3.4331,0,0,0-.8556-3.9358A4.256,4.256,0,0,0,13.696,6.5077a1.2379,1.2379,0,0,0-.5134.114c-.1426.1141,0,.2282.057.2852l.656.656.2852.2852.3422.3422.5134.5134.1426.1426a.4812.4812,0,0,1,.1141.3993l-.3708,1.34a.4583.4583,0,0,1-.1141.2.5937.5937,0,0,1-.1711.1141l-1.3689.3422a.3948.3948,0,0,1-.3993-.0855l-.1426-.1426L12.2129,10.5l-.3422-.3422-.2852-.2852-.656-.656c-.057-.057-.1711-.2-.2852-.057a1.2379,1.2379,0,0,0-.114.5134,4.2558,4.2558,0,0,0,1.2834,3.5079,3.4329,3.4329,0,0,0,3.9357.8556l2.7094,2.7094.6559.6559a.2757.2757,0,0,0,.3993,0l1.9108-1.9108A.2757.2757,0,0,0,21.4248,15.0921Z"/></svg>