<?xml version="1.0" encoding="utf-8"?>
<!-- Generator: Adobe Illustrator 24.2.0, SVG Export Plug-In . SVG Version: 6.00 Build 0)  -->
<svg version="1.1" id="Layer_1" xmlns="http://www.w3.org/2000/svg" xmlns:xlink="http://www.w3.org/1999/xlink" x="0px" y="0px"
	 viewBox="0 0 32 32" style="enable-background:new 0 0 32 32;" xml:space="preserve">
<style type="text/css">
	.st0{fill:#005DED;}
	.st1{fill:#AA8A30;}
	.st2{fill:#1565C0;}
	.st3{fill:#D32F2F;}
	.st4{fill:#66BB6A;}
	.st5{fill:#0A4466;}
	.st6{fill:#8E24AA;}
	.st7{fill:#161616;}
	.st8{fill:#3E87CF;}
	.st9{fill:#E03C24;}
	.st10{fill:#9BC6F2;}
	.st11{fill:#777777;}
	.st12{fill:#2576C7;}
	.st13{fill:#FFFFFF;}
	.st14{opacity:0.6;fill:#2576C7;enable-background:new    ;}
	.st15{opacity:0.6;fill:#FFFFFF;enable-background:new    ;}
	.st16{opacity:0.6;fill:#FFFFFF;}
	.st17{fill:#FFE39D;}
	.st18{fill:#ED9C26;}
	.st19{opacity:0.4;fill:#0A4466;}
	.st20{opacity:0.4;fill:#00796B;}
	.st21{fill:#00796B;}
	.st22{fill:none;}
	.st23{fill:#690000;}
	.st24{fill:#A08165;}
	.st25{fill:#D8C4B3;}
	.st26{fill:#FFD4FF;}
	.st27{opacity:0.6;fill:none;stroke:#FFFFFF;stroke-width:4;stroke-linecap:round;stroke-miterlimit:10;}
	.st28{fill:#571B6D;}
	.st29{opacity:0.4;fill:#571B6D;}
	.st30{opacity:0.6;fill:#571B6D;}
	.st31{fill:#CA0821;}
	.st32{opacity:0.2;fill:#CA0821;enable-background:new    ;}
	.st33{fill:#CA0821;enable-background:new    ;}
	.st34{opacity:0.4;}
	.st35{opacity:0.6;fill:#CA0821;enable-background:new    ;}
	.st36{opacity:0.6;enable-background:new    ;}
	.st37{opacity:0.6;}
	.st38{opacity:0.6;fill:#3E87CF;}
	.st39{fill:#283593;}
	.st40{opacity:0.4;fill:#777777;}
	.st41{opacity:0.4;fill:#283593;}
	.st42{opacity:0.4;fill:#1565C0;}
	.st43{opacity:0.6;fill:#1565C0;}
	.st44{opacity:0.4;fill:#D32F2F;}
	.st45{opacity:0.4;fill:#66BB6A;}
	.st46{opacity:0.4;fill:#AA8A30;}
	.st47{opacity:0.4;fill:#777777;enable-background:new    ;}
	.st48{fill:#9F8165;}
	.st49{opacity:0.4;fill:#9F8165;}
	.st50{fill:#FF7600;}
	.st51{opacity:0.4;fill:#FF7600;}
	.st52{fill:#FBFAFD;}
	.st53{fill:#3606B7;}
	.st54{opacity:0.4;fill:#005DED;}
	.st55{fill:#FF7962;}
	.st56{opacity:0.4;fill:#FF7962;}
	.st57{opacity:0.4;fill:#3606B7;}
	.st58{opacity:0.4;fill:#FFFFFF;}
</style>
<g>
	<path class="st11" d="M4.4,28.5c-0.1-0.1-0.2-0.1-0.2-0.2c-0.3-0.3-0.4-0.7-0.2-1.1c0.1-0.1,0.2-0.3,0.2-0.4
		c2.4-3.6,4.8-7.2,7.2-10.7c0.2-0.3,0.2-0.3,0-0.6C9,12,6.5,8.5,4.1,5C4,4.7,3.9,4.5,3.9,4.2C4,3.8,4.3,3.5,4.8,3.5
		c2.3,0,4.5,0,6.8,0c0.5,0,0.8,0.3,1.1,0.7c1.1,1.6,2.1,3.2,3.2,4.8c1.3,2,2.7,4,4,6c0.4,0.7,0.4,1,0,1.7c-2.6,3.8-5.2,7.5-7.7,11.3
		c-0.2,0.3-0.4,0.4-0.7,0.6C9.1,28.5,6.8,28.5,4.4,28.5z"/>
	<path class="st40" d="M20.7,28.5c-0.4-0.2-0.7-0.5-1-0.8c-0.8-1.2-1.7-2.4-2.5-3.7c-0.2-0.4-0.2-0.4,0-0.7c1.3-1.8,2.5-3.7,3.8-5.5
		c0.2-0.4,0.4-0.4,0.7,0c2.1,3.2,4.3,6.4,6.4,9.6c0,0,0,0,0,0c0,0.2,0,0.3,0,0.5c-0.1,0.3-0.3,0.5-0.6,0.6
		C25.2,28.5,23,28.5,20.7,28.5z"/>
	<path class="st40" d="M28.1,4.5c-0.5,0.8-1.1,1.6-1.6,2.4c-1.2,1.7-2.3,3.4-3.5,5.1c-0.4,0.6-0.9,1.3-1.3,1.9
		c-0.2,0.3-0.4,0.3-0.6,0c-1.3-1.9-2.6-3.9-3.9-5.8c-0.2-0.2-0.1-0.4,0-0.6c0.7-1.1,1.5-2.2,2.2-3.3c0.3-0.4,0.6-0.6,1.1-0.6
		c2.2,0,4.4,0,6.6,0c0.5,0,0.8,0.3,1,0.8C28.1,4.3,28.1,4.4,28.1,4.5z"/>
</g>
</svg>
