<svg id="Layer_1" data-name="Layer 1" xmlns="http://www.w3.org/2000/svg" viewBox="0 0 32 32"><defs><style>.cls-1,.cls-2{fill:#5457c8;}.cls-1{opacity:0.2;isolation:isolate;}.cls-3{fill:none;}</style></defs><path class="cls-1" d="M13.99476,23.99486c0-2.26074,3.73926-6,8-6A8.25827,8.25827,0,0,1,25.5,18.82274V4.5a1,1,0,0,0-.99994-1H7.5a1.03686,1.03686,0,0,0-1,1v23a1.03686,1.03686,0,0,0,1,1h9.79865C15.32612,27.207,13.99476,25.34105,13.99476,23.99486Z"/><path class="cls-2" d="M21.99507,22.2954h-.5a1.01931,1.01931,0,0,1,.5.7998.89616.89616,0,0,1-.9.89991,1.019,1.019,0,0,1-.8-.5v.5a1.71061,1.71061,0,0,0,1.7,1.80029,1.79275,1.79275,0,0,0,1.8-1.80029A1.71011,1.71011,0,0,0,21.99507,22.2954Z"/><path class="cls-2" d="M21.99507,19.99511c-3.3,0-6,3-6,4s2.7,4,6,4,6-3,6-4S25.29506,19.99511,21.99507,19.99511Zm0,7a3,3,0,1,1,3-3A2.94633,2.94633,0,0,1,21.99507,26.99511Z"/><polygon class="cls-3" points="20.613 15.213 19.31 15.213 19.131 16.953 20.299 16.953 20.613 15.213"/><polygon class="cls-3" points="18.639 12.948 16.995 12.863 16.995 14.314 18.498 14.314 18.639 12.948"/><path class="cls-3" d="M12.98918,20.791a.40466.40466,0,1,0,.40466.40429A.40508.40508,0,0,0,12.98918,20.791Z"/><polygon class="cls-3" points="14.865 16.953 16.096 16.953 16.096 15.213 14.685 15.213 14.865 16.953"/><polygon class="cls-3" points="21 13.07 19.539 12.994 19.403 14.314 20.776 14.314 21 13.07"/><polygon class="cls-3" points="18.405 15.213 16.995 15.213 16.995 16.953 18.226 16.953 18.405 15.213"/><path class="cls-3" d="M21.05083,17.85227H12.95451l.29187,1.61524a1.55691,1.55691,0,0,0-.8966.09863l-.3097-1.71387H12.04l-1.01941-5.646-.00048-.00147-.32642-1.80517H10.3831a.44983.44983,0,0,1,0-.89966h1.0625l.39649,2.19409,10.22461.531Z"/><polygon class="cls-3" points="13.688 14.314 13.519 12.682 12.006 12.604 12.315 14.314 13.688 14.314"/><polygon class="cls-3" points="12.792 16.953 13.96 16.953 13.781 15.213 12.478 15.213 12.792 16.953"/><polygon class="cls-3" points="16.096 14.314 16.096 12.816 14.429 12.729 14.593 14.314 16.096 14.314"/><path class="cls-2" d="M11.4456,9.5H10.3831a.44983.44983,0,0,0,0,.89966h.31055l.32642,1.80517.00048.00147,1.01941,5.646h.00012l.3097,1.71387a1.55691,1.55691,0,0,1,.8966-.09863l-.29187-1.61524h8.09632l1.01587-5.62719-10.22461-.531Zm4.6499,7.45264H14.86479l-.17944-1.73926H16.0955Zm3.44361-3.95826,1.46118.07593-.22473,1.24341H19.40288Zm-.229,2.219h1.303l-.31433,1.73926H19.13066Zm-2.31494-2.35083,1.64405.0852-.141,1.366H16.99516Zm0,2.35083h1.41016l-.17944,1.73926H16.99516ZM16.0955,12.8159v1.4978H14.59258L14.429,12.72947Zm-2.13537,4.13672H12.792l-.31433-1.73926h1.30285Zm-.4408-4.27051.16846,1.63159H12.31511l-.309-1.71Z"/><path class="cls-2" d="M12.98918,19.89134a1.30437,1.30437,0,1,0,1.21314,1.7539h.75952a8.318,8.318,0,0,1,.78528-.89965H14.20219A1.2968,1.2968,0,0,0,12.98918,19.89134Zm0,1.709a.40466.40466,0,1,1,.40466-.405A.40571.40571,0,0,1,12.98918,21.60032Z"/></svg>