<svg xmlns="http://www.w3.org/2000/svg" xmlns:xlink="http://www.w3.org/1999/xlink" viewBox="0,0,256,256" width="30px" height="30px" fill-rule="nonzero"><g fill="#a7a7a7" fill-rule="nonzero" stroke="none" stroke-width="1" stroke-linecap="butt" stroke-linejoin="miter" stroke-miterlimit="10" stroke-dasharray="" stroke-dashoffset="0" font-family="none" font-weight="none" font-size="none" text-anchor="none" style="mix-blend-mode: normal"><g transform="scale(8.53333,8.53333)"><path d="M22.5,1c-2.29483,0 -4.31178,1.1991 -5.46875,3h-11.03125c-1.105,0 -2,0.895 -2,2v18c0,0.178 0.03122,0.34672 0.07422,0.51172l12.98633,-12.98633c0.30745,0.6334 0.65115,1.23606 1.00391,1.82422l-1.65039,1.65039l9.51172,9.51172c0.043,-0.165 0.07422,-0.33372 0.07422,-0.51172v-9.07031c0.15026,-0.25264 0.30264,-0.50657 0.45703,-0.75977c1.192,-1.955 2.54297,-4.16992 2.54297,-6.66992c0,-3.584 -2.916,-6.5 -6.5,-6.5zM22.5,3c2.485,0 4.5,2.015 4.5,4.5c0,1.26474 -0.50428,2.5098 -1.15039,3.72266c-0.27296,0.51196 -0.56305,1.02084 -0.86523,1.51953c-0.02312,0.03815 -0.04523,0.07717 -0.06836,0.11523c-0.02214,0.03643 -0.04233,0.07107 -0.06445,0.10742c-0.26068,0.4282 -0.51622,0.85128 -0.75781,1.26758c-0.21699,0.37425 -0.4271,0.74788 -0.60352,1.11133c-0.11623,0.23922 -0.21846,0.47487 -0.30859,0.70898c-0.02371,0.06165 -0.04285,0.12231 -0.06445,0.18359c-0.06493,0.18401 -0.1184,0.36629 -0.16211,0.54688c-0.01686,0.06975 -0.03352,0.13977 -0.04687,0.20898c-0.04549,0.23534 -0.07812,0.46825 -0.07812,0.69727c0,0.169 -0.16208,0.29492 -0.33008,0.29492c-0.168,0 -0.30664,-0.14841 -0.30664,-0.31641c-0.00007,-0.20619 -0.02449,-0.41729 -0.0625,-0.62891c-0.01271,-0.07096 -0.03423,-0.14329 -0.05078,-0.21484c-0.0304,-0.13109 -0.0632,-0.26152 -0.10547,-0.39453c-0.03134,-0.09889 -0.06626,-0.1989 -0.10352,-0.29883c-0.04601,-0.12312 -0.09632,-0.24645 -0.15039,-0.37109c-0.04227,-0.09761 -0.08419,-0.1964 -0.13086,-0.29492c-0.03593,-0.07573 -0.07696,-0.15226 -0.11523,-0.22852c-0.12899,-0.25737 -0.27756,-0.52209 -0.42773,-0.78516c-0.15434,-0.26999 -0.31096,-0.54284 -0.47852,-0.81836c-0.27378,-0.45056 -0.54933,-0.90931 -0.82617,-1.37305c-0.43914,-0.73539 -0.85626,-1.48222 -1.17188,-2.24414c-0.00136,-0.00327 -0.00255,-0.0065 -0.00391,-0.00977c-0.08417,-0.20351 -0.16001,-0.40828 -0.22852,-0.61328c-0.0004,-0.0012 0.0004,-0.00271 0,-0.00391c-0.06608,-0.19803 -0.12547,-0.39641 -0.17383,-0.5957c-0.01975,-0.08259 -0.03247,-0.16525 -0.04883,-0.24805c-0.02613,-0.13005 -0.05329,-0.26011 -0.07031,-0.39062c-0.02775,-0.21724 -0.04492,-0.4359 -0.04492,-0.6543c0,-0.27848 0.03359,-0.548 0.08203,-0.8125c0.00924,-0.04942 0.01647,-0.09962 0.02734,-0.14844c0.04965,-0.22748 0.12049,-0.44696 0.20313,-0.66016c0.03585,-0.09063 0.07371,-0.17995 0.11523,-0.26758c0.07101,-0.15273 0.15317,-0.29855 0.24023,-0.44141c0.08943,-0.14418 0.18637,-0.28309 0.29102,-0.41602c0.0347,-0.04467 0.0711,-0.08755 0.10742,-0.13086c0.1867,-0.21997 0.39276,-0.42363 0.61719,-0.60547c0.00682,-0.00552 0.01268,-0.01209 0.01953,-0.01758c0.76998,-0.61623 1.73412,-1 2.79688,-1zM10.08203,6c1.058,0 2.02105,0.40345 2.74805,1.06445l-1.14844,1.14844c-0.431,-0.369 -0.98961,-0.59375 -1.59961,-0.59375c-1.36,0 -2.46094,1.10094 -2.46094,2.46094c0,1.359 1.10094,2.46289 2.46094,2.46289c1.141,0 1.93266,-0.67609 2.22266,-1.62109h-2.22266v-1.56055l3.84766,0.00586c0.334,1.591 -0.42366,4.79297 -3.84766,4.79297c-2.255,0 -4.08203,-1.82608 -4.08203,-4.08008c0,-2.254 1.82703,-4.08008 4.08203,-4.08008zM22.5,6c-0.82843,0 -1.5,0.67157 -1.5,1.5c0,0.82843 0.67157,1.5 1.5,1.5c0.82843,0 1.5,-0.67157 1.5,-1.5c0,-0.82843 -0.67157,-1.5 -1.5,-1.5zM15,16.41406l-9.51172,9.51172c0.165,0.043 0.33372,0.07422 0.51172,0.07422h18c0.178,0 0.34672,-0.03122 0.51172,-0.07422z"></path></g></g></svg>