<svg id="Layer_1" data-name="Layer 1" xmlns="http://www.w3.org/2000/svg" viewBox="0 0 64 64"><defs><style>.cls-1,.cls-2,.cls-3,.cls-4{fill:#fff;}.cls-1{opacity:0;}.cls-3{opacity:0.3;}.cls-4{opacity:0.6;}</style></defs><path class="cls-1" d="M49.16,10H37.71a1.85,1.85,0,0,0-1.85,1.84V18h1.87a4.85,4.85,0,0,1,4.84,4.84V54h6.59A1.84,1.84,0,0,0,51,52.16V11.84A1.88,1.88,0,0,0,49.16,10Z"/><path class="cls-2" d="M49.24,7H37.71a4.85,4.85,0,0,0-4.85,4.84V18H26.27a4.85,4.85,0,0,0-4.84,4.84V29H14.84A4.84,4.84,0,0,0,10,33.83V52.16A4.84,4.84,0,0,0,14.84,57H49.16A4.84,4.84,0,0,0,54,52.16V11.84A4.9,4.9,0,0,0,49.24,7ZM28.14,54H14.84A1.84,1.84,0,0,1,13,52.16V33.83A1.84,1.84,0,0,1,14.84,32H26.29a1.85,1.85,0,0,1,1.85,1.84Zm11.43,0H31.14V33.83A4.85,4.85,0,0,0,26.29,29H24.43V22.83A1.84,1.84,0,0,1,26.27,21H37.73a1.85,1.85,0,0,1,1.84,1.84ZM51,52.16A1.84,1.84,0,0,1,49.16,54H42.57V22.83A4.85,4.85,0,0,0,37.73,18H35.86V11.84A1.85,1.85,0,0,1,37.71,10H49.16A1.88,1.88,0,0,1,51,11.84Z"/><path class="cls-3" d="M37.73,21H26.27a1.84,1.84,0,0,0-1.84,1.84V29h1.86a4.85,4.85,0,0,1,4.85,4.84V54h8.43V22.83A1.85,1.85,0,0,0,37.73,21Z"/><path class="cls-4" d="M26.29,32H14.84A1.84,1.84,0,0,0,13,33.83V52.16A1.84,1.84,0,0,0,14.84,54h13.3V33.83A1.85,1.85,0,0,0,26.29,32Z"/></svg>