<svg id="Layer_1" data-name="Layer 1" xmlns="http://www.w3.org/2000/svg" viewBox="0 0 32 32"><defs><style>.cls-1{opacity:0.6;}.cls-2{fill:#3e87cf;}</style></defs><g class="cls-1"><path class="cls-2" d="M7.27,15.22a5.12,5.12,0,0,1,3.05-3.36H4.52A.61.61,0,0,0,4.16,13Z"/><path class="cls-2" d="M27.84,13a.61.61,0,0,0-.36-1.1H19.59a.62.62,0,0,1-.58-.42l-2.43-7.5a.61.61,0,0,0-1.16,0L13,11.44a.53.53,0,0,1-.08.15,5.09,5.09,0,0,1,4.18,4.93,5,5,0,0,1-2.06,4h.13a5.87,5.87,0,0,1,5.26,4.25l2.32,1.68a.61.61,0,0,0,.93-.68l-2.44-7.5a.62.62,0,0,1,.22-.68Z"/></g><path class="cls-2" d="M5.6,28.52h13c.84,0,1-.54,1-1.25V26a4.76,4.76,0,0,0-4.5-4.51,18.08,18.08,0,0,1-3,.5c-1.76,0-2.24-.5-3-.5A4.75,4.75,0,0,0,4.59,26v1.24C4.59,28,4.77,28.52,5.6,28.52Z"/><path class="cls-2" d="M12.09,20.52a4,4,0,1,0-4-4A4,4,0,0,0,12.09,20.52Z"/></svg>