<svg id="Layer_1" data-name="Layer 1" xmlns="http://www.w3.org/2000/svg" viewBox="0 0 32 32"><defs><style>.cls-1{opacity:0.2;}.cls-1,.cls-2{isolation:isolate;}.cls-2,.cls-3{fill:#5457c8;}.cls-4{fill:#fff;}</style></defs><g class="cls-1"><path class="cls-2" d="M25.5,4.5a1,1,0,0,0-.99995-1H7.5a1.0369,1.0369,0,0,0-1,1v23a1.0369,1.0369,0,0,0,1,1h17a1.0369,1.0369,0,0,0,1-1V4.5Z"/></g><path class="cls-3" d="M10.86663,6.88033a.38051.38051,0,0,0,.38062.38062H11.51l.27612,1.52759.00043.00073.86261,4.77783h.00012l.262,1.4502a1.47238,1.47238,0,0,1,.54107-.10547,1.45411,1.45411,0,0,1,.2176.022l-.247-1.3667h6.8507l.85968-4.76147L12.4818,8.35616l-.33551-1.85644h-.899A.38034.38034,0,0,0,10.86663,6.88033Zm1.75391,2.24561,1.28045.06641.14252,1.38061H12.882Zm2.05011.1062,1.41015.07324V10.573H14.809Zm3.5625.18481-.11933,1.156H16.842v-1.228ZM16.842,11.334h1.19324l-.15186,1.47192H16.842Zm3.38886-1.81324L20.04076,10.573H18.87933l.11523-1.11645Zm-1.582,3.28516.15185-1.47192h1.10248l-.26593,1.47192Zm-2.56812,0H15.03942L14.88757,11.334H16.0808Zm-2.79535,0L13.01952,11.334h1.10254l.15186,1.47192Z"/><path class="cls-3" d="M12.3485,16.39571a1.09817,1.09817,0,0,0,2.13031.38086h3.82282a1.10379,1.10379,0,1,0,0-.76123H14.47881a1.09817,1.09817,0,0,0-2.13031.38037Zm6.63733,0a.34269.34269,0,1,1,.34265.34278A.343.343,0,0,1,18.98583,16.39571Zm-5.87616,0a.3425.3425,0,1,1,.34271.34278A.343.343,0,0,1,13.10967,16.39571Z"/><rect class="cls-4" x="8.93424" y="19.98935" width="14.15939" height="1.66623"/><rect class="cls-4" x="8.93424" y="23.80984" width="14.15939" height="1.66623"/></svg>