<svg id="Layer_1" data-name="Layer 1" xmlns="http://www.w3.org/2000/svg" viewBox="0 0 64 64"><defs><style>.cls-1{fill:#fff;}</style></defs><path class="cls-1" d="M37.9333,31.3926a44.9838,44.9838,0,0,1-6.0469,2.4824c-2.6933.8618-4.6245,3.0918-4.6245,5.3726v5.1679h5.1824c5.2335,0,9.0958-2.99,9.0958-7.0434A7.0558,7.0558,0,0,0,37.9333,31.3926Z"/><path class="cls-1" d="M32.3443,29.2608C36.8155,27.7915,39,25.8652,39,23.332c0-2.2294-1.6778-3.6987-4.2178-3.6987h-7.52V32l.1534-.0019C27.9241,31.0337,29.2953,30.2227,32.3443,29.2608Z"/><path class="cls-1" d="M32,7A25,25,0,1,0,57,32,25,25,0,0,0,32,7Zm.851,41.773H22.6885V15.2759H35.291c5.1312,0,8.5358,3.1426,8.5358,7.8545a7.7536,7.7536,0,0,1-2.389,5.7778,10.2055,10.2055,0,0,1,4.9291,8.6655C46.3669,43.959,40.5756,48.773,32.851,48.773Z"/></svg>