<svg id="Layer_1" data-name="Layer 1" xmlns="http://www.w3.org/2000/svg" viewBox="0 0 32 32"><defs><style>.cls-1,.cls-3{fill:#777;}.cls-2{fill:none;}.cls-3{opacity:0.6;}.cls-4{fill:#fff;}</style></defs><polygon class="cls-1" points="3.925 11.85 10.476 10.095 5.681 5.299 3.925 11.85"/><path class="cls-2" d="M17.042,15.8069a13.7359,13.7359,0,0,1-1.85.7592A1.8906,1.8906,0,0,0,13.7769,18.21v1.5815h1.5857c1.6012,0,2.783-.9145,2.783-2.1547A2.1587,2.1587,0,0,0,17.042,15.8069Z"/><path class="cls-2" d="M15.3319,15.1545c1.3681-.45,2.0365-1.039,2.0365-1.8139a1.148,1.148,0,0,0-1.2905-1.1319h-2.301v3.7837l.0469-.0005C13.98,15.697,14.3991,15.449,15.3319,15.1545Z"/><path class="cls-1" d="M24.8366,7.16c-.0924-.0923-.1929-.1714-.2875-.26.1066.1.2187.1944.3218.2979C24.8587,7.1858,24.8488,7.1726,24.8366,7.16Z"/><path class="cls-1" d="M15.0418,26.4485c-.2873-.0259-.5727-.0689-.8575-.1182.2831.0493.568.0928.8584.12Z"/><path class="cls-1" d="M7.1589,24.8381c.188.188.3882.355.5848.5283-.1971-.1738-.3974-.3442-.5831-.53Z"/><path class="cls-1" d="M16.3716,28.4792c.279-.0078.5582-.0122.8362-.039l-.0042-.003C16.93,28.4636,16.65,28.47,16.3716,28.4792Z"/><path class="cls-1" d="M16.2474,3.509A12.46,12.46,0,0,0,7.3383,6.99L8.757,8.4084a10.4736,10.4736,0,0,1,7.8435-2.8716c-.1183-.0068-.2339-.0234-.3531-.0263Z"/><path class="cls-1" d="M26.026,19.0906l.007.0039c.0092-.03.0146-.0611.0235-.0909C26.0477,19.0329,26.035,19.0613,26.026,19.0906Z"/><path class="cls-1" d="M26.06,13.0271a10.5727,10.5727,0,0,1,.421,3.2378c.0024-.09.02-.1763.02-.2666A10.3439,10.3439,0,0,0,26.06,13.0271Z"/><path class="cls-3" d="M16.2474,3.5046V3.509c.11.002.22.0132.33.0181C16.4664,3.5222,16.3587,3.5066,16.2474,3.5046Z"/><path class="cls-3" d="M28.4465,14.9255a12.5629,12.5629,0,0,1,.0128,1.88c.0172-.2686.0407-.5347.0407-.8071C28.5,15.636,28.4766,15.28,28.4465,14.9255Z"/><path class="cls-3" d="M8.7036,23.5359A10.4587,10.4587,0,0,1,5.5,15.9983h-2a12.46,12.46,0,0,0,3.6606,8.8379l1.4126-1.4126C8.6145,23.4646,8.6618,23.4958,8.7036,23.5359Z"/><path class="cls-3" d="M9.8321,24.48a9.8956,9.8956,0,0,0,1.089.7012A10.0869,10.0869,0,0,1,9.8321,24.48Z"/><path class="cls-3" d="M27.7338,20.2732c.0807-.2212.1642-.4405.2325-.6675-.0676.2251-.1528.4453-.2333.667Z"/><path class="cls-3" d="M22.9772,8.1711c.2326.2075.4515.43.6647.6573-.0771-.0826-.139-.1734-.22-.254C23.2792,8.4314,23.1271,8.303,22.9772,8.1711Z"/><path class="cls-1" d="M28.4465,14.9255c-.0036-.042-.0024-.0854-.0064-.1274-.0312-.3252-.0834-.6485-.14-.9707-.0134-.0762-.02-.1548-.0348-.231-.0605-.31-.1411-.6162-.2251-.9214-.0236-.0859-.04-.1743-.0657-.2592-.0855-.2862-.1907-.5679-.2971-.8492-.038-.1-.0687-.2036-.1092-.3022-.1076-.2627-.2342-.52-.36-.7764-.054-.1094-.1005-.2236-.1577-.3315-.1406-.2661-.3-.5239-.4616-.7813-.0555-.0884-.1036-.1821-.1614-.269q-.3369-.5091-.7281-.9907c-.0271-.0332-.0582-.063-.0856-.0957-.2341-.2818-.48-.5567-.7425-.8218C24.7678,7.0945,24.6557,7,24.5491,6.9c-.1891-.1777-.3778-.3564-.575-.5205-.1523-.126-.3133-.2412-.4715-.36-.1614-.1216-.3212-.2466-.487-.3594-.1834-.1245-.3748-.2373-.565-.3525-.1526-.0923-.3037-.188-.4593-.2735-.1989-.1084-.4047-.2055-.61-.3037-.1581-.0752-.3149-.1543-.4753-.2226-.2056-.0879-.4173-.1636-.6283-.2408-.168-.061-.3349-.1255-.5049-.1792-.2133-.0674-.432-.122-.65-.1782-.1722-.0444-.3436-.0933-.5172-.13-.2324-.0493-.47-.0844-.7067-.1206-.162-.0249-.3231-.0552-.4857-.0737-.2754-.0308-.5557-.0449-.8362-.0581-.11-.0049-.22-.0161-.33-.0181V5.5105c.1192.0029.2348.0195.3531.0263.2042.0113.4082.0215.6115.0445.1332.0156.2633.04.395.0605.2086.0318.4167.064.6234.1084.1126.0249.2225.0562.3338.084.2243.0562.4475.1148.6684.186.0817.0264.1609.0577.2417.086.2453.0854.4885.1767.7281.2812.0491.0215.0965.0459.1452.0679.2629.12.5222.2476.7764.39.0208.0117.0406.0244.0613.0366.2718.1543.5384.32.7984.5005l.0071.0053a11.2636,11.2636,0,0,1,.9123.7163c.0251.022.0492.0455.0741.0674.15.1319.302.26.4452.4033.0805.0806.1424.1714.22.254.1491.16.2874.3251.4243.4917.141.1718.2879.3393.4162.5175a10.8139,10.8139,0,0,1,.6957,1.0811c.0294.0527.0635.1025.0921.1562.0734.1382.134.2813.2008.4224.0837.1753.1708.3481.245.5288.025.0615.0437.125.0676.187.1034.2661.1934.5386.2759.814A10.3439,10.3439,0,0,1,26.5,15.9983c0,.09-.0171.1762-.02.2666a10.269,10.269,0,0,1-.0771,1.0512c-.0179.1368-.0412.271-.0643.4058a10.8083,10.8083,0,0,1-.257,1.1821c-.0095.0332-.0159.0664-.0256.1-.0089.03-.0143.0611-.0235.0909a9.9042,9.9042,0,0,1,1.7,1.1782c.0805-.2217.1657-.4419.2333-.667.0384-.1274.0656-.26.1-.3892.07-.2651.1422-.53.1949-.7983.0246-.125.0373-.2544.0581-.3814.0453-.2753.0928-.5507.12-.8281.0128-.1328.0118-.27.02-.4033A12.5629,12.5629,0,0,0,28.4465,14.9255Z"/><path class="cls-3" d="M28.4465,14.9255c-.0036-.042-.0024-.0854-.0064-.1274-.0312-.3252-.0834-.6485-.14-.9707-.0134-.0762-.02-.1548-.0348-.231-.0605-.31-.1411-.6162-.2251-.9214-.0236-.0859-.04-.1743-.0657-.2592-.0855-.2862-.1907-.5679-.2971-.8492-.038-.1-.0687-.2036-.1092-.3022-.1076-.2627-.2342-.52-.36-.7764-.054-.1094-.1005-.2236-.1577-.3315-.1406-.2661-.3-.5239-.4616-.7813-.0555-.0884-.1036-.1821-.1614-.269q-.3369-.5091-.7281-.9907c-.0271-.0332-.0582-.063-.0856-.0957-.2341-.2818-.48-.5567-.7425-.8218C24.7678,7.0945,24.6557,7,24.5491,6.9c-.1891-.1777-.3778-.3564-.575-.5205-.1523-.126-.3133-.2412-.4715-.36-.1614-.1216-.3212-.2466-.487-.3594-.1834-.1245-.3748-.2373-.565-.3525-.1526-.0923-.3037-.188-.4593-.2735-.1989-.1084-.4047-.2055-.61-.3037-.1581-.0752-.3149-.1543-.4753-.2226-.2056-.0879-.4173-.1636-.6283-.2408-.168-.061-.3349-.1255-.5049-.1792-.2133-.0674-.432-.122-.65-.1782-.1722-.0444-.3436-.0933-.5172-.13-.2324-.0493-.47-.0844-.7067-.1206-.162-.0249-.3231-.0552-.4857-.0737-.2754-.0308-.5557-.0449-.8362-.0581-.11-.0049-.22-.0161-.33-.0181V5.5105c.1192.0029.2348.0195.3531.0263.2042.0113.4082.0215.6115.0445.1332.0156.2633.04.395.0605.2086.0318.4167.064.6234.1084.1126.0249.2225.0562.3338.084.2243.0562.4475.1148.6684.186.0817.0264.1609.0577.2417.086.2453.0854.4885.1767.7281.2812.0491.0215.0965.0459.1452.0679.2629.12.5222.2476.7764.39.0208.0117.0406.0244.0613.0366.2718.1543.5384.32.7984.5005l.0071.0053a11.2636,11.2636,0,0,1,.9123.7163c.0251.022.0492.0455.0741.0674.15.1319.302.26.4452.4033.0805.0806.1424.1714.22.254.1491.16.2874.3251.4243.4917.141.1718.2879.3393.4162.5175a10.8139,10.8139,0,0,1,.6957,1.0811c.0294.0527.0635.1025.0921.1562.0734.1382.134.2813.2008.4224.0837.1753.1708.3481.245.5288.025.0615.0437.125.0676.187.1034.2661.1934.5386.2759.814A10.3439,10.3439,0,0,1,26.5,15.9983c0,.09-.0171.1762-.02.2666a10.269,10.269,0,0,1-.0771,1.0512c-.0179.1368-.0412.271-.0643.4058a10.8083,10.8083,0,0,1-.257,1.1821c-.0095.0332-.0159.0664-.0256.1-.0089.03-.0143.0611-.0235.0909a9.9042,9.9042,0,0,1,1.7,1.1782c.0805-.2217.1657-.4419.2333-.667.0384-.1274.0656-.26.1-.3892.07-.2651.1422-.53.1949-.7983.0246-.125.0373-.2544.0581-.3814.0453-.2753.0928-.5507.12-.8281.0128-.1328.0118-.27.02-.4033A12.5629,12.5629,0,0,0,28.4465,14.9255Z"/><path class="cls-1" d="M15.0427,26.45c-.29-.0268-.5753-.07-.8584-.12-.0706-.0127-.1419-.019-.2123-.0327-.2152-.0425-.4245-.1-.6348-.1548-.1271-.0332-.2553-.06-.3814-.0981-.1573-.0479-.309-.107-.463-.1617-.1772-.0625-.3551-.122-.5294-.1943-.0961-.04-.1879-.0879-.2825-.1309-.2253-.101-.45-.2045-.6686-.3227-.0311-.0166-.06-.0361-.0912-.0537a9.8956,9.8956,0,0,1-1.089-.7012,11.3,11.3,0,0,1-1.0023-.835c-.041-.038-.0857-.07-.1262-.1093s-.0891-.0713-.13-.1123L7.1606,24.8362c.1857.186.386.3564.5831.53.1059.0933.2068.1958.3151.2847.2126.1753.4382.3345.6622.4951.1069.0772.21.1616.3188.2344.2246.1514.46.2861.695.4224.1184.0688.2336.1445.3537.2089.2263.1216.462.2276.6965.3355.1375.0635.2725.1333.4118.1914.2236.0928.4549.17.6848.2505.1573.0547.3126.1167.4716.165.2288.07.4644.1231.6986.18.1634.04.3252.0864.49.12.27.0538.5471.0894.8236.1255.13.0171.2583.0435.3884.0562q.6081.06,1.2321.0625l.0143,0c.1254,0,.2471-.0147.3716-.0191.2786-.0092.558-.0156.832-.042A9.3063,9.3063,0,0,1,15.0427,26.45Z"/><path class="cls-3" d="M15.0427,26.45c-.29-.0268-.5753-.07-.8584-.12-.0706-.0127-.1419-.019-.2123-.0327-.2152-.0425-.4245-.1-.6348-.1548-.1271-.0332-.2553-.06-.3814-.0981-.1573-.0479-.309-.107-.463-.1617-.1772-.0625-.3551-.122-.5294-.1943-.0961-.04-.1879-.0879-.2825-.1309-.2253-.101-.45-.2045-.6686-.3227-.0311-.0166-.06-.0361-.0912-.0537a9.8956,9.8956,0,0,1-1.089-.7012,11.3,11.3,0,0,1-1.0023-.835c-.041-.038-.0857-.07-.1262-.1093s-.0891-.0713-.13-.1123L7.1606,24.8362c.1857.186.386.3564.5831.53.1059.0933.2068.1958.3151.2847.2126.1753.4382.3345.6622.4951.1069.0772.21.1616.3188.2344.2246.1514.46.2861.695.4224.1184.0688.2336.1445.3537.2089.2263.1216.462.2276.6965.3355.1375.0635.2725.1333.4118.1914.2236.0928.4549.17.6848.2505.1573.0547.3126.1167.4716.165.2288.07.4644.1231.6986.18.1634.04.3252.0864.49.12.27.0538.5471.0894.8236.1255.13.0171.2583.0435.3884.0562q.6081.06,1.2321.0625l.0143,0c.1254,0,.2471-.0147.3716-.0191.2786-.0092.558-.0156.832-.042A9.3063,9.3063,0,0,1,15.0427,26.45Z"/><path class="cls-1" d="M16.2335,10.8757H12.3776v10.249h3.0072a9.7169,9.7169,0,0,1,4.1573-2.7226,3.0918,3.0918,0,0,0-1.4278-3.3555,2.4369,2.4369,0,0,0-1.8808-4.1709Zm-2.4566,1.333h2.301a1.148,1.148,0,0,1,1.2905,1.1319c0,.7749-.6684,1.3642-2.0365,1.8139-.9328.2945-1.3524.5425-1.5081.8374l-.0469.0005Zm4.3687,5.4278c0,1.24-1.1818,2.1547-2.783,2.1547H13.7769V18.21a1.8906,1.8906,0,0,1,1.4149-1.6436,13.7359,13.7359,0,0,0,1.85-.7592A2.1587,2.1587,0,0,1,18.1456,17.6365Z"/><path class="cls-4" d="M20.2145,27.7541c.0231-.0083.0464-.0156.07-.0244l-.0019-.0005Z"/><path class="cls-4" d="M17.2078,28.44l.0318-.0044-.036.0014Z"/><path class="cls-4" d="M27.709,20.341l.0248-.0678-.0008,0C27.7247,20.2951,27.7174,20.3186,27.709,20.341Z"/><path class="cls-4" d="M24.9951,23.9953a3.0186,3.0186,0,0,0-.5594-1.7675l-.0015-.002a3.011,3.011,0,0,0-5.4391,1.77,3.004,3.004,0,0,0,.6241,1.8467l0,.0005a2.9519,2.9519,0,0,0,2.3244,1.148l.0106.0009c.0139,0,.0266.0039.0406.0039a2.9275,2.9275,0,0,0,2.888-2.207l.0008-.0029A3.1235,3.1235,0,0,0,24.9951,23.9953ZM20.827,25.3205l-.0056-.0048a1.8471,1.8471,0,0,1-.5263-1.32v-.5a1.02,1.02,0,0,0,.8.5.8962.8962,0,0,0,.9-.9,1.02,1.02,0,0,0-.5-.8h.5a1.772,1.772,0,0,1,1.6085.9234l.0016.0029a1.6686,1.6686,0,0,1,.19.7739,1.7923,1.7923,0,0,1-1.8,1.8A1.6345,1.6345,0,0,1,20.827,25.3205Z"/><path class="cls-1" d="M23.7951,23.9953a1.6686,1.6686,0,0,0-.19-.7739l-.0016-.0029a1.772,1.772,0,0,0-1.6085-.9234h-.5a1.02,1.02,0,0,1,.5.8.8962.8962,0,0,1-.9.9,1.02,1.02,0,0,1-.8-.5v.5a1.8471,1.8471,0,0,0,.5263,1.32l.0056.0048a1.6345,1.6345,0,0,0,1.1681.4746A1.7923,1.7923,0,0,0,23.7951,23.9953Z"/><path class="cls-1" d="M26.8515,22.178a8.1171,8.1171,0,0,0-1.5959-1.23h0a6.4733,6.4733,0,0,0-3.26-.9527c-3.3,0-6,3-6,4a4.3212,4.3212,0,0,0,1.73,2.3472l.0015.001a7.6412,7.6412,0,0,0,2.5555,1.3857l.0019.0005a5.8622,5.8622,0,0,0,1.711.2656c3.3,0,6-3,6-4a3.4166,3.4166,0,0,0-1.14-1.8139Zm-4.8564,4.8173c-.014,0-.0267-.0039-.0406-.0039l-.0106-.0009a2.9519,2.9519,0,0,1-2.3244-1.148l0-.0005a3.004,3.004,0,0,1-.6241-1.8467,3.011,3.011,0,0,1,5.4391-1.77l.0015.002a3.0186,3.0186,0,0,1,.5594,1.7675,3.1235,3.1235,0,0,1-.1112.79l-.0008.0029A2.9275,2.9275,0,0,1,21.9951,26.9953Z"/></svg>