<svg id="Layer_1" data-name="Layer 1" xmlns="http://www.w3.org/2000/svg" viewBox="0 0 24 24"><defs><style>.cls-1{fill:#1467ba;}</style></defs><path class="cls-1" d="M6.57,15.77A2.55,2.55,0,1,1,4,18.31a2.55,2.55,0,0,1,2.54-2.54m0-1a3.55,3.55,0,1,0,3.55,3.54,3.53,3.53,0,0,0-3.55-3.54Z"/><path class="cls-1" d="M17.71,15a2.92,2.92,0,1,1-2.91,2.91A2.92,2.92,0,0,1,17.71,15m0-1a3.92,3.92,0,1,0,3.92,3.91A3.91,3.91,0,0,0,17.71,14Z"/><path class="cls-1" d="M22.52,19.31h-.6l.1-.59a4.3,4.3,0,0,0,.08-.78,4.39,4.39,0,0,0-8.77,0,4.3,4.3,0,0,0,.08.78l.1.59h-3l.07-.56c0-.14,0-.29,0-.44a2.06,2.06,0,0,0,0-.37h0V17.8a1.85,1.85,0,0,0,0-.23l0-.14c0-.08,0-.15-.05-.22l-.25-.64c-.07-.14-.13-.24-.19-.35h0l-.06-.09a2.43,2.43,0,0,0-.14-.2,3.3,3.3,0,0,0-.22-.27l-.24-.26a4,4,0,0,0-2.68-1.1H6l1.29-5A9,9,0,0,1,16,2.56h.67a1.66,1.66,0,0,1,1.65,1.49L19,10.3h3.56a1.41,1.41,0,0,1,1.41,1.41V17.9A1.41,1.41,0,0,1,22.52,19.31Zm-10.94-1h.77c0-.12,0-.25,0-.37a5.39,5.39,0,0,1,10.6-1.34V11.71a.41.41,0,0,0-.41-.41H18.06l-.73-7.14a.67.67,0,0,0-.66-.6H16a8,8,0,0,0-7.73,6l-1,3.8A5,5,0,0,1,10,14.68l.24.25a3.75,3.75,0,0,1,.26.3l.08.11.17.24.08.13a3.72,3.72,0,0,1,.21.39l.11.22.06.15.1.27.06.2a2.27,2.27,0,0,1,.06.25l0,.19a2.93,2.93,0,0,1,0,.29l0,.17c0,.14,0,.28,0,.42Z"/><polygon class="cls-1" points="5.25 14.15 0.07 13.13 0.27 12.15 4.52 12.99 7.38 2.15 8.34 2.4 5.25 14.15"/></svg>