<svg id="Layer_1" data-name="Layer 1" xmlns="http://www.w3.org/2000/svg" viewBox="0 0 32 32"><defs><style>.cls-1{fill:#777;}.cls-2{fill:#fff;}.cls-3,.cls-4{fill:#05b497;}.cls-3{opacity:0.4;}</style></defs><circle class="cls-1" cx="10.5" cy="11" r="6.5"/><circle class="cls-1" cx="10.5" cy="11" r="6.5"/><path class="cls-1" d="M15,9H6a2.00588,2.00588,0,0,0-2,2V28H8V25.5a.47239.47239,0,0,1,.5-.5h4a.47239.47239,0,0,1,.5.5V28h4V11A2.00588,2.00588,0,0,0,15,9Z"/><path class="cls-2" d="M9,18.70006c0,.1-.2.3-.5.3h-2c-.3,0-.5-.1-.5-.3v-1.4c0-.1.2-.3.5-.3h2c.3,0,.5.2.5.3Zm6,0c0,.1-.2.3-.5.3h-2c-.3,0-.5-.1-.5-.3v-1.4c0-.1.2-.3.5-.3h2c.3,0,.5.2.5.3ZM9,22.7c0,.1-.2.3-.5.3h-2c-.3,0-.5-.1-.5-.3V21.3c0-.1.2-.3.5-.3h2c.3,0,.5.2.5.3Zm6,0c0,.1-.2.3-.5.3h-2c-.3,0-.5-.1-.5-.3V21.3c0-.1.2-.3.5-.3h2c.3,0,.5.2.5.3Z"/><circle class="cls-2" cx="10.5" cy="11" r="4.5011"/><path class="cls-1" d="M12.83441,10H11.5011V8.66669A.66666.66666,0,0,0,10.83441,8h-.66662a.66666.66666,0,0,0-.66669.66669V10H8.16779a.66666.66666,0,0,0-.66669.66669v.66662A.66666.66666,0,0,0,8.16779,12H9.5011v1.33331A.66666.66666,0,0,0,10.16779,14h.66662a.66666.66666,0,0,0,.66669-.66669V12h1.33331a.66666.66666,0,0,0,.66669-.66669v-.66662A.66666.66666,0,0,0,12.83441,10Z"/><path class="cls-3" d="M26,4H15.31129a8.56319,8.56319,0,0,1,2.04755,2,8.462,8.462,0,0,1,1.28442,2.575c.04169.13959.07495.28247.1095.425A8.46509,8.46509,0,0,1,19,10.994V11l-.00006-.00006L19,11.00006V20h7a2.00591,2.00591,0,0,0,2-2V6A2.00591,2.00591,0,0,0,26,4Z"/><path class="cls-4" d="M19,13h5v2H19Z"/><path class="cls-4" d="M19,9h5v2H19Z"/></svg>