<svg id="Layer_1" data-name="Layer 1" xmlns="http://www.w3.org/2000/svg" viewBox="0 0 32 32"><defs><style>.cls-1,.cls-2{fill:#00b78b;}.cls-2{opacity:0.4;}</style></defs><path class="cls-1" d="M22,22.3h-.5a1,1,0,0,1,.5.8.9.9,0,0,1-.9.9,1,1,0,0,1-.8-.5V24A1.71,1.71,0,0,0,22,25.8,1.79,1.79,0,0,0,23.8,24,1.71,1.71,0,0,0,22,22.3Z"/><path class="cls-1" d="M22,20c-3.3,0-6,3-6,4s2.7,4,6,4,6-3,6-4S25.3,20,22,20Zm0,7a3,3,0,1,1,3-3A2.95,2.95,0,0,1,22,27Z"/><path class="cls-2" d="M7.53,15.73a2.3,2.3,0,1,0-2.3-2.3A2.31,2.31,0,0,0,7.53,15.73Z"/><path class="cls-2" d="M10.58,17.05a2.28,2.28,0,0,0-1.44-.55,8,8,0,0,1-1.61.31c-1,0-1.2-.31-1.61-.31A2.58,2.58,0,0,0,3.5,19v.69c0,.38,0,.69.42.69h3.7A6.37,6.37,0,0,1,10.58,17.05Z"/><path class="cls-2" d="M28.08,20.34c.44,0,.42-.31.42-.69V19a2.58,2.58,0,0,0-2.42-2.46,8.11,8.11,0,0,1-1.61.31c-1,0-1.2-.31-1.61-.31a2.28,2.28,0,0,0-1.44.55,6,6,0,0,1,1.36,1,9.33,9.33,0,0,1,5,2.3Z"/><path class="cls-2" d="M24.47,15.73a2.3,2.3,0,1,0-2.3-2.3A2.3,2.3,0,0,0,24.47,15.73Z"/><path class="cls-1" d="M21.18,18.05a4.15,4.15,0,0,0-2.07-.57c-.75,0-1.3.59-3.11.59s-2.31-.59-3.11-.59a5,5,0,0,0-4.66,4.73v1.33c0,.74-.07,1.33.82,1.33h5.11A2.82,2.82,0,0,1,14,24C14,21.89,17.27,18.48,21.18,18.05Z"/><circle class="cls-1" cx="16" cy="11.56" r="4.44"/></svg>