<svg id="Layer_1" data-name="Layer 1" xmlns="http://www.w3.org/2000/svg" viewBox="0 0 32 32"><defs><style>.cls-1{opacity:0.2;}.cls-1,.cls-2{isolation:isolate;}.cls-2,.cls-4{fill:#8b6747;}.cls-3{fill:#fff;}</style></defs><g class="cls-1"><path class="cls-2" d="M25.5,4.5a1,1,0,0,0-1-1H7.5a1.0369,1.0369,0,0,0-1,1v23a1.0369,1.0369,0,0,0,1,1h17a1.0369,1.0369,0,0,0,1-1V4.5Z"/></g><rect class="cls-3" x="8.9342" y="19.9893" width="14.1594" height="1.6662"/><rect class="cls-3" x="8.9342" y="23.8098" width="14.1594" height="1.6662"/><path class="cls-4" d="M18.1228,12.18l-.7025-.291a.1321.1321,0,0,1-.08-.14,3.095,3.095,0,0,0,0-.7652.1324.1324,0,0,1,.08-.14l.7012-.29a.1359.1359,0,0,0,.0809-.1565,3.9864,3.9864,0,0,0-.1909-.5918l0-.0009a3.9966,3.9966,0,0,0-.2836-.5535.136.136,0,0,0-.1679-.0534l-.7012.29a.1324.1324,0,0,1-.1555-.0426,3.0994,3.0994,0,0,0-.5414-.5408.1323.1323,0,0,1-.0424-.1556l.2909-.7024a.1364.1364,0,0,0-.0538-.1683,4.0428,4.0428,0,0,0-.5536-.2822l-.0006,0a4.0532,4.0532,0,0,0-.5911-.1919.1364.1364,0,0,0-.157.081l-.291.7023a.1322.1322,0,0,1-.14.08,3.1007,3.1007,0,0,0-.7653,0,.1323.1323,0,0,1-.14-.08l-.29-.7011a.1361.1361,0,0,0-.1565-.0811,3.9907,3.9907,0,0,0-.5918.191l-.0009,0a4.0182,4.0182,0,0,0-.5535.2835.1362.1362,0,0,0-.0534.168l.29.7012a.1324.1324,0,0,1-.0426.1555,3.11,3.11,0,0,0-.5409.5413.132.132,0,0,1-.1555.0425l-.7015-.29a.1373.1373,0,0,0-.17.0544,4.099,4.099,0,0,0-.4737,1.1433.1376.1376,0,0,0,.0815.1584l.7015.2906a.1322.1322,0,0,1,.08.14,3.1,3.1,0,0,0-.0005.7652.1322.1322,0,0,1-.08.14l-.7012.29a.136.136,0,0,0-.0809.1565,3.86,3.86,0,0,0,.4747,1.1462.1361.1361,0,0,0,.168.0534l.7011-.29a.1325.1325,0,0,1,.1556.0426,3.1045,3.1045,0,0,0,.5415.541.1321.1321,0,0,1,.0423.1554l-.29.7016a.1373.1373,0,0,0,.0543.17,4.1,4.1,0,0,0,1.1435.4736.1375.1375,0,0,0,.1583-.0815l.2906-.7015a.1322.1322,0,0,1,.14-.08,3.1007,3.1007,0,0,0,.7653,0,.1327.1327,0,0,1,.14.08l.29.7012a.136.136,0,0,0,.1565.081,3.8636,3.8636,0,0,0,1.1462-.4748.1359.1359,0,0,0,.0534-.1679l-.2905-.7013a.1327.1327,0,0,1,.0427-.1556,3.0994,3.0994,0,0,0,.5409-.5413.1322.1322,0,0,1,.1555-.0424l.7024.2909a.1364.1364,0,0,0,.1683-.0537,4.0547,4.0547,0,0,0,.2823-.5536l0-.0007a4.052,4.052,0,0,0,.1919-.591A.1365.1365,0,0,0,18.1228,12.18Zm-3.3879.3794a1.2913,1.2913,0,1,1,.6988-1.6872A1.2914,1.2914,0,0,1,14.7349,12.56Z"/><path class="cls-4" d="M20.3267,14.0476H18.2035a.3372.3372,0,0,0-.2922.1687L16.85,16.0551a.3377.3377,0,0,0,0,.3374l1.0617,1.8388a.3372.3372,0,0,0,.2922.1687h2.1232a.3372.3372,0,0,0,.2922-.1687l1.0617-1.8388a.3377.3377,0,0,0,0-.3374l-1.0617-1.8388A.3372.3372,0,0,0,20.3267,14.0476Zm-1.0616,3.3489a1.1727,1.1727,0,1,1,1.1727-1.1727A1.1727,1.1727,0,0,1,19.2651,17.3965Z"/></svg>