<svg id="Layer_1" data-name="Layer 1" xmlns="http://www.w3.org/2000/svg" viewBox="0 0 64 64"><defs><style>.cls-1{fill:none;}.cls-2,.cls-3,.cls-4,.cls-5{fill:#fff;}.cls-3{opacity:0;}.cls-3,.cls-5{isolation:isolate;}.cls-4{opacity:0.6;}.cls-5{opacity:0.6;}</style></defs><path class="cls-1" d="M32,25.19a8.9,8.9,0,0,0-8.9,8.91,8.9,8.9,0,0,0,17.8,0A8.9,8.9,0,0,0,32,25.19ZM32,40.9a6.81,6.81,0,1,1,6.81-6.8A6.8,6.8,0,0,1,32,40.9Z"/><path class="cls-2" d="M40.8,27.5l1.62-1.58a.62.62,0,0,0,0-.73L40.9,23.67a.62.62,0,0,0-.73,0L38.6,25.3a10.74,10.74,0,0,0-5-2.1V21.52h1.57a.5.5,0,0,0,.53-.52V19.43a.5.5,0,0,0-.53-.53H28.86a.51.51,0,0,0-.53.53V21a.51.51,0,0,0,.53.52h1.57V23.2A11,11,0,0,0,21,34.1a11,11,0,0,0,22,0A11.09,11.09,0,0,0,40.8,27.5ZM32,43a9,9,0,0,1-8.9-8.9,8.9,8.9,0,1,1,17.8,0A9,9,0,0,1,32,43Z"/><path class="cls-3" d="M32,27.29a6.81,6.81,0,1,0,6.81,6.81A6.8,6.8,0,0,0,32,27.29Zm2.67,2.93-.61,2.25a2.66,2.66,0,0,1,.56,1.63,2.62,2.62,0,0,1-5.24,0A2.57,2.57,0,0,1,31,31.69l.61-2.31a.56.56,0,0,1,.64-.37l2,.58A.54.54,0,0,1,34.67,30.22Z"/><path class="cls-4" d="M34.3,29.59l-2-.58a.56.56,0,0,0-.64.37L31,31.69a2.57,2.57,0,0,0-1.64,2.41,2.62,2.62,0,0,0,5.24,0,2.66,2.66,0,0,0-.56-1.63l.61-2.25A.54.54,0,0,0,34.3,29.59Z"/><path class="cls-2" d="M38.67,19.43v1.64a3.71,3.71,0,0,1,1.87-.52,3.62,3.62,0,0,1,2.16.72l.17.13,1.83,1.82.13.17A3.66,3.66,0,0,1,45.51,26h8a2,2,0,0,0,2-2V10a2,2,0,0,0-2-2h-18a2,2,0,0,0-2,2v5.9h1.64A3.49,3.49,0,0,1,38.67,19.43Z"/><path class="cls-5" d="M25.41,21.75a3.67,3.67,0,0,1-.08-.75V19.43a3.54,3.54,0,0,1,3.53-3.53H30.5V10a2,2,0,0,0-2-2h-18a2,2,0,0,0-2,2V36a2,2,0,0,0,2,2h8A14.69,14.69,0,0,1,18,34.1,14.12,14.12,0,0,1,25.41,21.75Z"/><path class="cls-5" d="M33.5,48v6a2,2,0,0,0,2,2h18a2,2,0,0,0,2-2V31a2,2,0,0,0-2-2H45a14,14,0,0,1,1,5.1A13.83,13.83,0,0,1,33.5,48Z"/><path class="cls-2" d="M19.77,41H10.5a2,2,0,0,0-2,2V54a2,2,0,0,0,2,2h18a2,2,0,0,0,2-2V48A13.81,13.81,0,0,1,19.77,41Z"/></svg>