<svg id="Layer_1" data-name="Layer 1" xmlns="http://www.w3.org/2000/svg" viewBox="0 0 32 32"><defs><style>.cls-1{fill:#70c7e0;}.cls-2{fill:#008ab1;}.cls-3{fill:#fff;}</style></defs><path class="cls-1" d="M28.49654,21.00921,28.5,20.99407V4.497a1.001,1.001,0,0,0-1.22039-.97363,53.5455,53.5455,0,0,1-22.55927,0A1.001,1.001,0,0,0,3.5,4.497V20.99407a1.00148,1.00148,0,0,0,1.22034.97363q1.38465-.29883,2.78027-.52246V18.74553a2.002,2.002,0,0,1,2-2h1.27228a3.35534,3.35534,0,0,1,3.1275-3c.535,0,.84.39991,2.1.39991a10.642,10.642,0,0,0,2.1-.39991,3.35534,3.35534,0,0,1,3.1275,3h1.27276a1.99889,1.99889,0,0,1,1.96595,1.66358A9.722,9.722,0,0,1,28.49654,21.00921ZM16.00039,12.74553a3,3,0,1,1,3-3A3.00563,3.00563,0,0,1,16.00039,12.74553Z"/><path class="cls-2" d="M18.10037,13.74553a10.642,10.642,0,0,1-2.1.39991c-1.26,0-1.565-.39991-2.1-.39991a3.35534,3.35534,0,0,0-3.1275,3h10.455A3.35534,3.35534,0,0,0,18.10037,13.74553Z"/><circle class="cls-2" cx="16.00039" cy="9.74553" r="3"/><path class="cls-1" d="M13.99477,23.99505c0-2.26075,3.73926-6,8-6a7.52689,7.52689,0,0,1,1.26215.11669.98454.98454,0,0,0-.75653-.36621h-13a1.00005,1.00005,0,0,0-1,1v8.7544a1.00005,1.00005,0,0,0,1,1h7.79816C15.32607,27.207,13.99477,25.34124,13.99477,23.99505Z"/><path class="cls-3" d="M21.99508,27.99505c-3.3,0-6-3-6-4s2.7-4,6-4,6,3,6,4S25.29507,27.99505,21.99508,27.99505Z"/><path class="cls-2" d="M21.99508,22.29534h-.5a1.01931,1.01931,0,0,1,.5.7998.89615.89615,0,0,1-.9.89991,1.019,1.019,0,0,1-.80005-.5v.5a1.71061,1.71061,0,0,0,1.7,1.80029,1.79275,1.79275,0,0,0,1.8-1.80029A1.71011,1.71011,0,0,0,21.99508,22.29534Z"/><path class="cls-2" d="M21.99508,19.99505c-3.3,0-6,3-6,4s2.7,4,6,4,6-3,6-4S25.29507,19.99505,21.99508,19.99505Zm0,7a3,3,0,1,1,3-3A2.94633,2.94633,0,0,1,21.99508,26.99505Z"/><path class="cls-3" d="M21.99508,20.99505a3,3,0,1,0,3,3A2.94662,2.94662,0,0,0,21.99508,20.99505Zm0,4.80029a1.71061,1.71061,0,0,1-1.7-1.80029v-.5a1.019,1.019,0,0,0,.80005.5.89615.89615,0,0,0,.9-.89991,1.01931,1.01931,0,0,0-.5-.7998h.5a1.71011,1.71011,0,0,1,1.8,1.69971A1.79275,1.79275,0,0,1,21.99508,25.79534Z"/></svg>