<svg xmlns="http://www.w3.org/2000/svg" xmlns:xlink="http://www.w3.org/1999/xlink" viewBox="0,0,256,256" width="30px" height="30px" fill-rule="nonzero"><g fill="#a7a7a7" fill-rule="nonzero" stroke="none" stroke-width="1" stroke-linecap="butt" stroke-linejoin="miter" stroke-miterlimit="10" stroke-dasharray="" stroke-dashoffset="0" font-family="none" font-weight="none" font-size="none" text-anchor="none" style="mix-blend-mode: normal"><g transform="scale(8.53333,8.53333)"><path d="M9,4c-0.343,0 -0.677,0.03556 -1,0.10156v9.17383c-0.35374,0.12612 -0.69314,0.28038 -1,0.48633v-9.33984c-1.245,0.545 -2.21264,1.58709 -2.68164,2.87109l1.68164,1.17773v6.14062l-2,-1.40039v7.78906c0,2.049 1.236,3.80613 3,4.57813v-4.33984c0.71576,0.48038 1.57524,0.76172 2.5,0.76172c0.92476,0 1.78424,-0.28134 2.5,-0.76172v4.76172h9c0.369,0 0.72627,-0.04509 1.07227,-0.12109l-8.71094,-6.10547c0.39611,-0.66981 0.63867,-1.44062 0.63867,-2.27344c0,-1.06031 -0.38401,-2.02296 -1,-2.79297v-1.33008l12.79492,8.96875c0.121,-0.431 0.20508,-0.8767 0.20508,-1.3457v-5.02539c-6.503,-0.258 -11.71661,-5.47161 -11.97461,-11.97461h-2.02539v9.76172c-0.30686,-0.20595 -0.64626,-0.36021 -1,-0.48633v-9.27539zM18.02539,4c0.25,4.294 3.68061,7.72361 7.97461,7.97461v-2.97461c0,-2.761 -2.239,-5 -5,-5zM9.5,14c0.98099,0 1.86452,0.40645 2.5,1.05664c0.15425,0.15775 0.29334,0.32934 0.41602,0.51367c0.12267,0.18433 0.22801,0.38133 0.31445,0.58789c0.08644,0.20656 0.15367,0.42203 0.19922,0.64648c0.04538,0.22493 0.07031,0.457 0.07031,0.69531c0,0.238 -0.02477,0.47086 -0.07031,0.69531c-0.04555,0.22445 -0.11278,0.43992 -0.19922,0.64648c-0.08644,0.20656 -0.19178,0.40356 -0.31445,0.58789c-0.12267,0.18433 -0.26177,0.35592 -0.41602,0.51367c-0.63548,0.65019 -1.51901,1.05664 -2.5,1.05664c-0.98045,0 -1.86459,-0.40513 -2.5,-1.05469c-0.01811,-0.01855 -0.03113,-0.04161 -0.04883,-0.06055c-0.13308,-0.14239 -0.25892,-0.29227 -0.36719,-0.45508c-0.12267,-0.18447 -0.22802,-0.38127 -0.31445,-0.58789c-0.08644,-0.20662 -0.15367,-0.42202 -0.19922,-0.64648c-0.04555,-0.22447 -0.07031,-0.45731 -0.07031,-0.69531c0,-0.23831 0.02493,-0.47038 0.07031,-0.69531c0.04555,-0.22445 0.11278,-0.43992 0.19922,-0.64648c0.08644,-0.20656 0.19178,-0.40356 0.31445,-0.58789c0.12267,-0.18433 0.26177,-0.35592 0.41602,-0.51367c0.63548,-0.65019 1.51901,-1.05664 2.5,-1.05664zM9.52539,15.2168c-0.09563,-0.0005 -0.19152,0.05456 -0.22852,0.16406l-1.2832,3.80078c-0.085,0.255 0.23192,0.44981 0.41992,0.25781l1.09375,-1.11914l1.03516,1.09375c0.185,0.195 0.50783,0.00405 0.42383,-0.25195l-1.23437,-3.7793c-0.0355,-0.1095 -0.13094,-0.16551 -0.22656,-0.16601z"></path></g></g></svg>