<svg id="Layer_1" data-name="Layer 1" xmlns="http://www.w3.org/2000/svg" viewBox="0 0 32 32"><defs><style>.cls-1{fill:#70c7e0;}.cls-2{fill:#008ab1;}</style></defs><path class="cls-1" d="M27.27961,3.52337a53.54546,53.54546,0,0,1-22.55926,0A1.001,1.001,0,0,0,3.5,4.497V20.99407a1.00148,1.00148,0,0,0,1.22034.97363q1.38465-.29883,2.78027-.52246V18.74553a2.002,2.002,0,0,1,2-2H10.7729a3.35534,3.35534,0,0,1,3.1275-3c.535,0,.84.39991,2.1.39991a10.64183,10.64183,0,0,0,2.1-.39991,3.35534,3.35534,0,0,1,3.12751,3h1.27276a2.002,2.002,0,0,1,2,2v2.69971q1.39445.22485,2.779.52246A1.0015,1.0015,0,0,0,28.5,20.99407V4.497A1.001,1.001,0,0,0,27.27961,3.52337ZM16.00038,12.74553a3,3,0,1,1,3-3A3.00563,3.00563,0,0,1,16.00038,12.74553Z"/><path class="cls-2" d="M18.10035,13.74553a10.64183,10.64183,0,0,1-2.1.39991c-1.26,0-1.565-.39991-2.1-.39991a3.35534,3.35534,0,0,0-3.1275,3h10.455A3.35534,3.35534,0,0,0,18.10035,13.74553Z"/><circle class="cls-2" cx="16.00038" cy="9.74553" r="3"/><path class="cls-1" d="M23.50038,18.74553a1,1,0,0,0-1-1h-13a1.00005,1.00005,0,0,0-1,1v8.7544a1.00005,1.00005,0,0,0,1,1h13a1,1,0,0,0,1-1v-8.7544Z"/></svg>