<?xml version="1.0" encoding="utf-8"?>
<!-- Generator: Adobe Illustrator 24.2.0, SVG Export Plug-In . SVG Version: 6.00 Build 0)  -->
<svg version="1.1" id="Layer_1" xmlns="http://www.w3.org/2000/svg" xmlns:xlink="http://www.w3.org/1999/xlink" x="0px" y="0px"
	 viewBox="0 0 32 32" style="enable-background:new 0 0 32 32;" xml:space="preserve">
<style type="text/css">
	.st0{fill:#9F8165;}
	.st1{opacity:0.4;fill:#FFFFFF;}
	.st2{fill:#FFFFFF;}
	.st3{fill:#1467BA;}
	.st4{opacity:0.2;enable-background:new    ;}
	.st5{fill:#CA0821;enable-background:new    ;}
	.st6{fill:#6B0AC9;}
	.st7{opacity:0.6;fill:#FFFFFF;enable-background:new    ;}
	.st8{fill:none;}
	.st9{fill:#CA0821;}
	.st10{fill:#CA0821;stroke:#FFFFFF;stroke-width:2;stroke-miterlimit:10;}
	.st11{fill:#6B0AC9;stroke:#FFFFFF;stroke-width:2;stroke-miterlimit:10;}
	.st12{fill:#823591;}
	.st13{fill:#1D1D1B;}
	.st14{fill:#008AB2;}
	.st15{fill:#005DED;}
	.st16{fill:#AA8A30;}
	.st17{fill:#1565C0;}
	.st18{fill:#D32F2F;}
	.st19{fill:#66BB6A;}
	.st20{fill:#0A4466;}
	.st21{fill:#8E24AA;}
	.st22{fill:#161616;}
	.st23{fill:#3E87CF;}
	.st24{fill:#9BC6F2;}
	.st25{fill:#777777;}
	.st26{fill:#2576C7;}
	.st27{opacity:0.6;fill:#2576C7;enable-background:new    ;}
	.st28{opacity:0.6;fill:#FFFFFF;}
	.st29{fill:#FFE39D;}
	.st30{fill:#ED9C26;}
	.st31{fill:#E03C24;}
	.st32{opacity:0.4;fill:#0A4466;}
	.st33{fill:#00796B;}
	.st34{opacity:0.4;fill:#00796B;}
	.st35{fill:#690000;}
	.st36{opacity:0.4;fill:#571B6D;}
	.st37{fill:#571B6D;}
	.st38{opacity:0.6;fill:#571B6D;}
	.st39{opacity:0.2;fill:#CA0821;enable-background:new    ;}
	.st40{opacity:0.4;}
	.st41{opacity:0.6;fill:#CA0821;enable-background:new    ;}
	.st42{opacity:0.6;enable-background:new    ;}
	.st43{opacity:0.6;}
	.st44{opacity:0.6;fill:#3E87CF;}
	.st45{fill:#283593;}
	.st46{opacity:0.4;fill:#777777;}
	.st47{opacity:0.4;fill:#283593;}
	.st48{opacity:0.4;fill:#1565C0;}
	.st49{opacity:0.6;fill:#1565C0;}
	.st50{opacity:0.4;fill:#D32F2F;}
	.st51{opacity:0.4;fill:#66BB6A;}
	.st52{opacity:0.4;fill:#AA8A30;}
	.st53{opacity:0.4;fill:#777777;enable-background:new    ;}
	.st54{opacity:0.4;fill:#9F8165;}
	.st55{fill:#FF7600;}
	.st56{opacity:0.4;fill:#FF7600;}
	.st57{opacity:0.4;fill:#005DED;}
	.st58{fill:#FF7962;}
	.st59{opacity:0.4;fill:#FF7962;}
	.st60{fill:#3606B7;}
	.st61{opacity:0.4;fill:#3606B7;}
	.st62{opacity:0.6;fill:#777777;}
	.st63{fill:#CB1335;}
	.st64{opacity:0.4;fill:#CA0821;}
	.st65{opacity:0.4;fill:#008AB2;enable-background:new    ;}
	.st66{fill:#A08165;}
	.st67{fill:#D8C4B3;}
	.st68{opacity:0.4;fill:#A08165;}
	.st69{fill:#00B78B;}
	.st70{opacity:0.4;fill:#00B78B;}
	.st71{fill:#FFFFFF;enable-background:new    ;}
	.st72{enable-background:new    ;}
	.st73{opacity:0.3;fill:#283593;enable-background:new    ;}
	.st74{fill:#283593;enable-background:new    ;}
	.st75{opacity:0.6;fill:#9BC6F2;}
	.st76{opacity:0.2;fill:#003FD7;}
	.st77{fill:#1AAD47;}
	.st78{fill:#003FD7;}
	.st79{opacity:0;fill:#FFFFFF;enable-background:new    ;}
	.st80{fill:#2B2B2B;}
	.st81{fill:#FCFDFF;}
	.st82{fill:#989898;}
	.st83{fill:#9E8067;}
	.st84{fill:#D6C3B3;}
	.st85{opacity:0.4;fill:#823591;}
	.st86{fill:none;stroke:#1467BA;stroke-miterlimit:10;}
	.st87{fill:none;stroke:#1467BA;stroke-width:1.15;}
	.st88{fill:none;stroke:#1467BA;stroke-width:1.15;stroke-linejoin:round;}
	.st89{fill:#1467BA;stroke:#1467BA;stroke-width:0.5;}
	.st90{fill:none;stroke:#1467BA;stroke-linecap:square;}
	.st91{fill:none;stroke:#1467BA;}
	.st92{fill:none;stroke:#1467BA;stroke-width:1.1641;stroke-miterlimit:10;}
	.st93{fill:#2067B0;}
	.st94{fill:none;stroke:#1467BA;stroke-linecap:round;}
	.st95{fill:none;stroke:#CA0821;stroke-width:2;stroke-linecap:round;stroke-linejoin:round;stroke-miterlimit:10;}
	.st96{fill:none;stroke:#CA0821;stroke-width:3;stroke-miterlimit:10;}
	.st97{fill:none;stroke:#FFFFFF;stroke-width:2.9951;stroke-miterlimit:10;}
	.st98{clip-path:url(#SVGID_4_);}
	.st99{clip-path:url(#SVGID_7_);}
	.st100{fill:none;stroke:#FFFFFF;stroke-miterlimit:10;}
	.st101{clip-path:url(#SVGID_10_);}
	.st102{clip-path:url(#SVGID_13_);}
	.st103{opacity:0.4;fill:#CA0821;enable-background:new    ;}
	.st104{opacity:0.2;}
	.st105{fill:none;stroke:#1467BA;stroke-width:0.8755;stroke-miterlimit:10;}
	.st106{opacity:0.6;fill:#9F8165;}
</style>
<g>
	<path class="st8" d="M8,23.1c-0.5,0-0.9,0.4-0.9,0.9c0,0.5,0.4,0.9,0.9,0.9c0.5,0,0.9-0.4,0.9-0.9C8.9,23.5,8.5,23.1,8,23.1z"/>
	<path class="st0" d="M12.5,9.4V7.9V5c0-0.8-0.7-1.5-1.5-1.5H5C4.2,3.5,3.5,4.2,3.5,5v2.9v1.5v4.4v1.5v4.4V20l9-9V9.4z"/>
	<path class="st0" d="M24.6,13.7c0.6-0.6,0.6-1.5,0-2.1l-4.2-4.2c-0.6-0.6-1.5-0.6-2.1,0l-2,2l6.4,6.4L24.6,13.7z"/>
	<polygon class="st0" points="16.5,18 20.4,18 21.5,16.9 15.2,10.5 12.1,13.6 	"/>
	<polygon class="st0" points="7.9,17.8 8.1,18 14.3,18 14.3,18 11,14.7 	"/>
	<rect x="18.1" y="8.6" transform="matrix(0.7071 -0.7071 0.7071 0.7071 -3.7668 17.1887)" class="st106" width="1.5" height="9"/>
	<polygon class="st106" points="11,14.7 14.3,18 16.4,18 16.5,18 12.1,13.6 	"/>
	<polygon class="st106" points="7.7,18 8.1,18 8.1,18 7.9,17.8 	"/>
	<rect x="12.3" y="19.5" class="st54" width="4.4" height="9"/>
	<rect x="18.2" y="19.5" class="st54" width="4.4" height="9"/>
	<path class="st54" d="M8,19.5L8,19.5c-2.5,0-4.5,2-4.5,4.5c0,2.5,2,4.5,4.5,4.5h2.8v-9H8z M8,24.9c-0.5,0-0.9-0.4-0.9-0.9
		c0-0.5,0.4-0.9,0.9-0.9c0.5,0,0.9,0.4,0.9,0.9C8.9,24.5,8.5,24.9,8,24.9z"/>
	<path class="st54" d="M27,19.5h-2.9v9H27c0.8,0,1.5-0.7,1.5-1.5v-6C28.5,20.2,27.8,19.5,27,19.5z"/>
	<polygon class="st106" points="23,19.5 23,19.5 22.6,19.5 22.6,28.5 24.1,28.5 24.1,19.5 	"/>
	<rect x="16.7" y="19.5" class="st106" width="1.5" height="9"/>
	<rect x="10.8" y="19.5" class="st106" width="1.5" height="9"/>
</g>
</svg>
