<svg id="Layer_1" data-name="Layer 1" xmlns="http://www.w3.org/2000/svg" viewBox="0 0 32 32"><defs><style>.cls-1,.cls-3{opacity:0.4;}.cls-2,.cls-3{fill:#059a32;}</style></defs><g class="cls-1"><path class="cls-2" d="M20.85637,12.35778l.8961-.86727a.34727.34727,0,0,0,0-.40473l-.8383-.8383a.34759.34759,0,0,0-.4047,0l-.8672.89623A5.93457,5.93457,0,0,0,16.8672,9.98745V9.06238h.8672a.27311.27311,0,0,0,.28907-.28914V7.90611A.27311.27311,0,0,0,17.7344,7.617H14.26556a.281.281,0,0,0-.28906.28914v.86713a.281.281,0,0,0,.28906.28914h.86721v.92507A6.08243,6.08243,0,0,0,9.92952,16a6.07048,6.07048,0,0,0,12.141,0A6.12445,6.12445,0,0,0,20.85637,12.35778ZM16,19.354A3.4041,3.4041,0,0,1,12.64594,16,3.354,3.354,0,1,1,19.354,16,3.40276,3.40276,0,0,1,16,19.354Z"/></g><circle class="cls-2" cx="16.00001" cy="16" r="2.50654" transform="translate(-4.90499 24.65916) rotate(-67.50005)"/><path class="cls-3" d="M24.83426,7.16076A12.40963,12.40963,0,0,0,16.55763,3.515l-.53511,1.99044A10.46625,10.46625,0,0,1,23.424,8.576V8.571Z"/><path class="cls-3" d="M8.57106,23.42893,7.16078,24.83924A12.41945,12.41945,0,0,0,15.43741,28.485l.53511-1.99038a10.46619,10.46619,0,0,1-7.40146-3.07068Z"/><path class="cls-2" d="M28.49575,15.83319l-.00076-.01575c-.002-.143-.01713-.287-.02384-.431-.0102-.21848-.01508-.43709-.03617-.65418a.55108.55108,0,0,1-.01-.09c-.04-.36506-.095-.73013-.165-1.09024-.00253-.01264-.00631-.02528-.01013-.038-.00369-.01233-.00742-.02466-.00989-.037-.06758-.329-.1514-.65626-.24336-.978-.01011-.03528-.0163-.07215-.02668-.10726l-.00336-.01007c-.00531-.0166-.01248-.03327-.01663-.04994l-.00547-.01672a10.75807,10.75807,0,0,0-.36109-1.01558c-.0066-.01588-.01185-.032-.01853-.04787a.2438.2438,0,0,1-.015-.035l-.01572-.03589c-.13488-.33082-.29067-.65736-.45956-.97981-.00861-.01636-.01615-.03309-.02482-.04951,0-.005,0-.005-.005-.01-.08278-.15671-.17692-.309-.267-.4628.09038.154.18479.30615.268.463-.1112-.20963-.23406-.41451-.358-.61883-.19236-.31776-.3951-.63105-.619-.93445a12.564,12.564,0,0,0-1.231-1.43107l-.0014.00146.00225.00214h-.00436L23.424,8.571v.005a10.38907,10.38907,0,0,1,1.30027,1.58033.27971.27971,0,0,0,.03.04c.135.20506.25505.42013.37507.63514.045.085.105.16507.15.25505.1.19505.19.3951.28006.59009.05.11507.105.22007.15.33514.08.195.145.40005.215.6001.04.12.085.23.12.35.065.21.11.42013.16.63514.03.11.06.225.085.335.045.22508.07.45516.1.68018.015.1.035.205.045.30506.025.24.035.48508.045.72512,0,.09.01.18.01.27007.005.255-.01.51005-.03.7601a1.73638,1.73638,0,0,1-.01.23008c-.02.26507-.06.53008-.105.79514-.01.06008-.015.125-.025.19011-.05.27-.115.54-.185.80509-.015.05506-.025.11-.04.16507-.075.27007-.17.54008-.265.80515-.02.05-.035.10006-.055.145-.1.26506-.22005.52513-.34507.78519-.025.045-.04.095-.065.14-.13.255-.27.5001-.42006.74514-.03.05-.055.1-.09.15006-.15.235-.31506.465-.48511.69007-.04.05006-.075.105-.115.16007-.17.215-.35508.42007-.54012.62512a1.20768,1.20768,0,0,1-.11.12l-1.70035-1.70035-1.01021,3.76576-.36506,1.36526-.295,1.10526-.085.315,1.4245-.37984.00028.00024,5.12769-1.374-1.67547-1.67544c.01733-.01813.03165-.038.04887-.05616l-.00745.00781.00757-.0083c.0362-.0376.0666-.079.10219-.11709.21519-.2299.42483-.46347.618-.708.02973-.03968.06438-.08425.09417-.12393l.00085-.0011.00284-.004q.33583-.43322.62726-.88115c.02219-.03553.04432-.07448.06648-.1108l.00855-.01423c.02426-.03894.04438-.08009.06831-.1194.16348-.26819.32282-.54094.4668-.81584.02-.045.04-.085.06-.125.16-.32.305-.6501.44009-.98018l.045-.12c.125-.335.24007-.67512.34009-1.02022.007-.02478.01416-.05335.02125-.08138l.00876-.03363c.095-.345.175-.69509.24-1.04519a.92034.92034,0,0,0,.02-.11508c.00451-.02472.00732-.04944.01166-.07417.058-.33032.10082-.66065.13338-.991,0-.01459.00107-.03083.00208-.04578.00143-.02088.00293-.0409.00293-.06422.01273-.15055.01175-.304.01908-.456.00995-.2064.02591-.41188.02591-.61932C28.5,15.89277,28.49685,15.863,28.49575,15.83319Z"/><path class="cls-2" d="M8.57106,23.42392a10.47887,10.47887,0,0,1-1.30027-1.58527c-.005-.01-.02-.025-.025-.035-.14-.205-.25505-.42-.38008-.63508-.045-.085-.105-.165-.15-.25505-.1-.195-.19-.3951-.28006-.59515-.045-.11-.105-.215-.15-.33-.08-.195-.14505-.40011-.215-.6001-.04-.12008-.085-.23008-.12-.3501-.065-.21007-.11-.42007-.16-.63514-.025-.11-.06-.22508-.085-.33509-.045-.225-.07-.455-.1-.68006-.015-.10507-.035-.20512-.045-.30512-.025-.24-.035-.48508-.04-.72512-.005-.09-.015-.18009-.015-.27007,0-.25505.01-.51011.03-.76016.005-.08.005-.15506.01-.23.02-.26507.06-.53014.105-.79521.01-.05994.015-.125.025-.19.05-.27008.11505-.54015.185-.80522.015-.05494.025-.11.04-.165.08-.27.17-.54008.27-.80515a1.24222,1.24222,0,0,1,.05-.145c.1-.26507.22005-.52507.34507-.78513.025-.045.045-.095.065-.14.13-.255.27-.5001.42006-.74514l.09-.15c.15-.235.31506-.46012.48511-.6852.04-.05494.075-.11.12-.165.165-.21507.35007-.42007.53511-.62012.04-.045.07-.08.11-.125l1.70034,1.70035,1.01021-3.76576.36507-1.36526.29507-1.1052.085-.31513-1.42363.37959h0l-5.12772,1.374L6.9708,7.3541c-.01163.01214-.02207.0249-.03275.0376l-.01734.01911c-.0644.06825-.12117.14291-.18414.2125-.18159.2006-.36391.401-.531.61267-.0239.02735-.04585.05653-.06828.08535-.01041.01343-.02064.027-.03172.03968-.09868.13009-.18616.26488-.28036.397-.11587.16244-.2372.32269-.34476.48819-.01939.02583-.03514.05342-.05168.08071-.0091.015-.0195.03015-.02836.04432-.19.305-.37006.62012-.5351.93512-.02.045-.04.085-.06.125-.08077.16153-.14646.32935-.21956.49467-.07176.16232-.15112.322-.21553.48557l-.045.12c-.06523.16812-.11544.34119-.17313.51176-.05729.16946-.12212.33649-.17194.5084-.01.035-.02.07509-.03.11507-.03492.1268-.05736.25622-.08822.38411-.05314.22014-.11074.43966-.15185.66108a.93085.93085,0,0,0-.02.115l-.00433.02754c-.06233.34583-.10662.69185-.14071,1.03768,0,.02753-.0026.05665-.00391.08662l-.00107.02345-.00149.02423c-.02687.32557-.04.65516-.0377.98512.00015.022-.00113.04383-.00083.06581v.105c.005.36012.025.72518.06,1.08524a.54965.54965,0,0,1,.01.09c.0372.33979.08922.67927.15646,1.0151.005.0249.00836.05018.01355.07508l.015.075c.02616.12728.06437.25151.09417.37843.05567.237.10747.47556.17587.70681.005.02.015.04.02.06.10872.36066.23719.71632.38011,1.06728l.005.013a.24973.24973,0,0,1,.01477.03443l.00025.00055c.14792.355.31082.70515.49271,1.05038l.00739.01483.004.00794.001.00207c.04.075.085.15506.13.235.04.08.09.16007.135.235.02723.048.06089.09474.08947.14266.021.03468.04343.06868.06477.10323.04642.07509.09254.15018.1408.22454l.007.01111c.01529.02258.02744.04615.043.06861.05064.07729.10644.15262.15991.22917l.036.05159c.03526.04957.0677.10067.10415.14926,0,.005,0,.01.005.01a1.01211,1.01211,0,0,0,.065.09005c.02506.034.05167.06806.077.102l.024.0318c.03773.05043.07429.10079.1141.15122.025.03.045.06007.07.09.03467.04475.0757.08553.11135.1296.10079.12307.206.24346.31222.36342.0142.016.02744.03266.04173.04859l.028.03254c.04041.04444.07567.09194.11687.136.10241.10708.20143.21416.30729.32123l.02536.02735.00144-.00146-.00226-.00208h.00323l1.41028-1.41031Z"/></svg>