<svg id="Layer_1" data-name="Layer 1" xmlns="http://www.w3.org/2000/svg" viewBox="0 0 32 32"><defs><style>.cls-1{fill:#ffe39d;}.cls-2{fill:#ed9c26;}.cls-3{fill:#fff;}</style></defs><path class="cls-1" d="M16,6.00221H8.5a2,2,0,0,0-2,2v18a2,2,0,0,0,2,2h15a2,2,0,0,0,2-2v-18a2,2,0,0,0-2-2Z"/><path class="cls-2" d="M21.5,6.00221H19.1a3.4,3.4,0,0,0-6.2,0H10.5v4.5a.47.47,0,0,0,.5.5H21a.47.47,0,0,0,.5-.5Z"/><circle class="cls-2" cx="16" cy="7.50221" r="1.5"/><circle class="cls-3" cx="16" cy="7.50221" r="1.5"/><path class="cls-2" d="M17.83958,21.89649c.18824.14088.36736.26949.53817.40832a.14186.14186,0,0,1,.02176.13509,5.54289,5.54289,0,0,1-2.12037,2.29587,2.31361,2.31361,0,0,1-1.47212.22006,1.267,1.267,0,0,1-1.13883-1.5272,15.06519,15.06519,0,0,1,.47724-1.78749c.226-.7531.47451-1.49943.71241-2.249a1.24978,1.24978,0,0,0,.03665-.15691c.08277-.46062-.08471-.6658-.54758-.66925-.24046-.0018-.48095-.00032-.75516-.00032.07483-.277.13365-.52408.21367-.76409.01445-.04335.11517-.08.17734-.0821q1.60518-.05412,3.21076-.09691c.19955-.00555.39939-.00079.63463-.00079-.05775.20162-.10961.39217-.16686.58108q-.73712,2.432-1.47491,4.86388a1.69808,1.69808,0,0,0-.06916.31457c-.02283.22185.12473.33676.31068.22008a1.95618,1.95618,0,0,0,.49757-.43237c.286-.36445.54095-.75323.80895-1.13182C17.76429,21.995,17.79627,21.95432,17.83958,21.89649Z"/><path class="cls-2" d="M16.88972,16.678a1.34336,1.34336,0,0,1,.05931-2.686,1.3438,1.3438,0,0,1-.05931,2.686Z"/></svg>