<svg id="Layer_1" data-name="Layer 1" xmlns="http://www.w3.org/2000/svg" viewBox="0 0 32 32"><defs><style>.cls-1{fill:none;}.cls-2,.cls-3{fill:#0b996e;}.cls-3{opacity:0.6;isolation:isolate;}.cls-4{fill:#fff;}</style></defs><path class="cls-1" d="M15.175,10.6705A2.2537,2.2537,0,0,0,13.4358,6.813H9.87v9.4781h2.8755c2.1857,0,3.8243-1.3623,3.8243-3.169A2.8867,2.8867,0,0,0,15.175,10.6705ZM11.164,8.046h2.1278a1.0614,1.0614,0,0,1,1.1935,1.0463c0,.7168-.6181,1.2618-1.8833,1.6773-.8627.2725-1.2506.5019-1.3946.7749l-.0434.0005ZM12.63,15.0582H11.164V13.5958a1.7484,1.7484,0,0,1,1.3085-1.5205,12.6826,12.6826,0,0,0,1.7109-.7022A1.9967,1.9967,0,0,1,15.204,13.065C15.204,14.212,14.1112,15.0582,12.63,15.0582Z"/><path class="cls-2" d="M14.1834,11.3731a12.6826,12.6826,0,0,1-1.7109.7022,1.7484,1.7484,0,0,0-1.3085,1.5205v1.4624H12.63c1.4809,0,2.5737-.8462,2.5737-1.9932A1.9967,1.9967,0,0,0,14.1834,11.3731Z"/><path class="cls-2" d="M12.602,10.77c1.2652-.4155,1.8833-.96,1.8833-1.6773A1.0614,1.0614,0,0,0,13.2918,8.046H11.164v3.499l.0434-.0005C11.3514,11.2715,11.7393,11.0421,12.602,10.77Z"/><path class="cls-2" d="M21.5635,17.8848V9.338h0V5.043A1.4729,1.4729,0,0,0,20.1725,3.5H5.2525A1.4729,1.4729,0,0,0,3.8617,5.043V13.59h0v4.2949a1.4735,1.4735,0,0,0,1.3908,1.5435h12.14a8.7763,8.7763,0,0,1,4.1594-1.41C21.5552,17.9737,21.5635,17.93,21.5635,17.8848Zm-8.8181-1.5937H9.87V6.813h3.5659a2.2537,2.2537,0,0,1,1.7392,3.8575A2.8867,2.8867,0,0,1,16.57,13.1221C16.57,14.9288,14.9311,16.2911,12.7454,16.2911Z"/><path class="cls-3" d="M13.9948,23.9947a3.6691,3.6691,0,0,1,.6078-1.814q-.9168-.7119-1.5858-1.2353H9.9308v6.8261a.7305.7305,0,0,0,.7284.7286h6.64C15.3262,27.2071,13.9948,25.3409,13.9948,23.9947Z"/><path class="cls-3" d="M28.1383,20.6378V18.9229a.2346.2346,0,0,0-.2185-.2183.22.22,0,0,0-.1456.0362c-.2631.227-.5724.4858-.98.8169A9.7885,9.7885,0,0,1,28.1383,20.6378Z"/><path class="cls-3" d="M26.6908,28.5H27.41a.73.73,0,0,0,.7283-.7286v-.4194A9.842,9.842,0,0,1,26.6908,28.5Z"/><path class="cls-2" d="M14.938,20.9454c.114.0888.2413.1875.3623.2817.0814-.0947.1666-.1885.2544-.2817Z"/><path class="cls-2" d="M27.6285,17.357l.1821-.1455a.9708.9708,0,0,0,.3277-.7285V15.3907a.7307.7307,0,0,0-.7283-.7285H23.0808v3.2226c0,.0674-.0147.13-.0188.1963a8.6925,8.6925,0,0,1,2.6495.8379C26.6989,18.1378,27.1116,17.7945,27.6285,17.357Z"/><path class="cls-2" d="M21.9951,22.2955h-.5a1.0193,1.0193,0,0,1,.5.8.8962.8962,0,0,1-.9.9,1.019,1.019,0,0,1-.8-.5v.5a1.7106,1.7106,0,0,0,1.7,1.8,1.7928,1.7928,0,0,0,1.8-1.8A1.71,1.71,0,0,0,21.9951,22.2955Z"/><path class="cls-2" d="M21.9951,19.9952c-3.3,0-6,3-6,4s2.7,4,6,4,6-3,6-4S25.2951,19.9952,21.9951,19.9952Zm0,7a3,3,0,1,1,3-3A2.9463,2.9463,0,0,1,21.9951,26.9952Z"/><path class="cls-4" d="M21.9951,20.9952a3,3,0,1,0,3,3A2.9466,2.9466,0,0,0,21.9951,20.9952Zm0,4.8a1.7106,1.7106,0,0,1-1.7-1.8v-.5a1.019,1.019,0,0,0,.8.5.8962.8962,0,0,0,.9-.9,1.0193,1.0193,0,0,0-.5-.8h.5a1.71,1.71,0,0,1,1.8,1.7A1.7928,1.7928,0,0,1,21.9951,25.7955Z"/></svg>