<svg id="Layer_1" data-name="Layer 1" xmlns="http://www.w3.org/2000/svg" viewBox="0 0 32 32"><defs><style>.cls-1{fill:none;}.cls-2,.cls-3{fill:#00b050;}.cls-2{opacity:0.2;isolation:isolate;}.cls-4{fill:#fff;}</style></defs><path class="cls-1" d="M9.639,21.7772h5.2317A8.5647,8.5647,0,0,1,16.248,20.28H9.639Z"/><path class="cls-1" d="M9.639,24.71h4.473a2.6686,2.6686,0,0,1-.1172-.7148,2.7182,2.7182,0,0,1,.1353-.7823H9.639Z"/><path class="cls-2" d="M14.112,24.71H9.639V23.2127H14.13a5.15,5.15,0,0,1,.7406-1.4355H9.639V20.28h6.609a9.0115,9.0115,0,0,1,5.7468-2.2851,8.2578,8.2578,0,0,1,3.5052.8276V4.5a1,1,0,0,0-1-1H7.5a1.037,1.037,0,0,0-1,1v24h.0006c1.1881,0,1.1883-2,2.3768-2s1.1888,2,2.3769,2h.0011c1.1873,0,1.1875-2,2.3753-2s1.1869,2,2.3731,2h.0011a.9813.9813,0,0,0,.7558-.3774A7.2012,7.2012,0,0,1,14.112,24.71Z"/><path class="cls-3" d="M23.7951,23.9952a1.7926,1.7926,0,0,1-1.8,1.8,1.71,1.71,0,0,1-1.7-1.8v-.5a1.02,1.02,0,0,0,.8.5.8962.8962,0,0,0,.9-.9,1.02,1.02,0,0,0-.5-.8h.5A1.71,1.71,0,0,1,23.7951,23.9952Z"/><path class="cls-3" d="M21.9951,19.9952c-3.3,0-6,3-6,4s2.7,4,6,4,6-3,6-4S25.2951,19.9952,21.9951,19.9952Zm0,7a3,3,0,1,1,3-3A2.9463,2.9463,0,0,1,21.9951,26.9952Z"/><path class="cls-4" d="M21.9951,20.9952a3,3,0,1,0,3,3A2.9465,2.9465,0,0,0,21.9951,20.9952Zm0,4.8a1.71,1.71,0,0,1-1.7-1.8v-.5a1.02,1.02,0,0,0,.8.5.8962.8962,0,0,0,.9-.9,1.02,1.02,0,0,0-.5-.8h.5a1.71,1.71,0,0,1,1.8,1.7A1.7926,1.7926,0,0,1,21.9951,25.7953Z"/><path class="cls-3" d="M21.8012,15.3259,18.1954,11.72a3.6782,3.6782,0,0,0-.9167-4.2169A4.56,4.56,0,0,0,13.52,6.1283a1.326,1.326,0,0,0-.55.1222c-.1527.1222,0,.2445.0612.3056l.7028.7028.3055.3055.3667.3667.55.55.1528.1527a.5154.5154,0,0,1,.1222.4278l-.3972,1.4362a.4928.4928,0,0,1-.1222.2139.6384.6384,0,0,1-.1834.1222l-1.4667.3667a.423.423,0,0,1-.4278-.0917l-.1528-.1527-.55-.55-.3667-.3666-.3055-.3056-.7028-.7028c-.0612-.0611-.1834-.2139-.3056-.0611a1.3257,1.3257,0,0,0-.1222.55,4.56,4.56,0,0,0,1.375,3.7585,3.6783,3.6783,0,0,0,4.2168.9167l2.9029,2.9029.7029.7028a.2953.2953,0,0,0,.4277,0l2.0474-2.0473A.2954.2954,0,0,0,21.8012,15.3259Z"/></svg>