<svg id="Layer_1" data-name="Layer 1" xmlns="http://www.w3.org/2000/svg" viewBox="0 0 32 32"><defs><style>.cls-1{fill:#9bc6f2;}.cls-2{fill:#2576c7;}.cls-3{fill:#777;}</style></defs><path class="cls-1" d="M26,4H9A2.00171,2.00171,0,0,0,7.00907,5.9103L11.02073,4.304l.48046-.01855a2.24809,2.24809,0,0,1,.84278.16406L20.49241,7.7112a2.25384,2.25384,0,0,1-.28223,4.27734l-2.21.56824v.94446l-.00086.01038a6.23152,6.23152,0,0,1-.07122.88067c-.01148.08124-.0224.162-.03693.24256a6.50023,6.50023,0,0,1-.19287.78167c-.03.09528-.0661.18805-.10059.28192a6.77374,6.77374,0,0,1-.28412.66767c-.02148.04291-.03784.0874-.0603.12994A7.01793,7.01793,0,0,1,16.2,18a6.62543,6.62543,0,0,1,2.9,2H26a2.00583,2.00583,0,0,0,2-2V6A2.00587,2.00587,0,0,0,26,4Z"/><path class="cls-2" d="M19,13h5v2H19Z"/><path class="cls-3" d="M14.4999,20a27.41446,27.41446,0,0,1-3,.4,26.874,26.874,0,0,1-3-.4C6.505,20,4,22.6667,4,24.8v2.2667C4,27.6,4,28,4.63,28H18.3698c.66,0,.63-.4.63-.9333V24.8C18.9998,22.6667,16.4798,20,14.4999,20Z"/><path class="cls-3" d="M19.74961,9.56789l-8.15326-3.264a.25464.25464,0,0,0-.18939,0L5.182,8.796V8.79592l-.60492.24219h0l-1.3233.52978a.25422.25422,0,0,0,.03125.48236l1.29205.332v.68085a.77693.77693,0,0,0-.06805,1.4024l-.13037,1.18079a.182.182,0,0,0,.1773.22327H5.2031a.182.182,0,0,0,.17737-.22327L5.25,12.46547a.77687.77687,0,0,0-.068-1.4024v-.52539l1.82135.468V10.064c0-.62017,2.01416-1.12323,4.49829-1.12323S16,9.44381,16,10.064v.94172l3.71833-.95545A.25424.25424,0,0,0,19.74961,9.56789Z"/><path class="cls-3" d="M15.64646,10.58828a2.33225,2.33225,0,0,0-.29773-.14521,5.26973,5.26973,0,0,0-.82257-.249c-.15979-.03632-.33-.06964-.50952-.1a15.44978,15.44978,0,0,0-2.515-.19189,15.44878,15.44878,0,0,0-2.515.19189c-.17951.03034-.34973.06366-.50952.1a5.26973,5.26973,0,0,0-.82257.249,2.33094,2.33094,0,0,0-.29773.14521c-.2276.1344-.35352.2821-.35352.43719v2.44306C7.00327,13.47988,7,13.48854,7,13.5a4.5,4.5,0,0,0,8.99988.00122L16,13.50167v-2.4762C16,10.87038,15.87406,10.72268,15.64646,10.58828Z"/><path class="cls-2" d="M24,9H21.75614a2.22079,2.22079,0,0,1-.19257,2H24Z"/></svg>