<svg id="Layer_1" data-name="Layer 1" xmlns="http://www.w3.org/2000/svg" viewBox="0 0 32 32"><defs><style>.cls-1,.cls-2,.cls-3{isolation:isolate;}.cls-2{opacity:0.2;}.cls-3,.cls-4{fill:#8b6747;}</style></defs><g class="cls-1"><g class="cls-2"><path class="cls-3" d="M25.5,4.5a1,1,0,0,0-1-1H7.5a1.0369,1.0369,0,0,0-1,1v23a1.0369,1.0369,0,0,0,1,1h17a1.0369,1.0369,0,0,0,1-1V4.5Z"/></g></g><path class="cls-4" d="M22.6554,19.81l-4.13-4.13a4.2134,4.2134,0,0,0-1.05-4.83A5.2235,5.2235,0,0,0,13.17,9.2744a1.5182,1.5182,0,0,0-.63.14c-.175.14,0,.28.07.35l.805.805.35.35.42.42.63.63.175.175a.5906.5906,0,0,1,.14.49L14.675,14.28a.5641.5641,0,0,1-.14.245.7322.7322,0,0,1-.21.14l-1.68.42a.4845.4845,0,0,1-.49-.105l-.175-.175-.63-.63-.42-.42-.35-.35L9.7748,12.6c-.07-.07-.21-.245-.35-.07a1.5186,1.5186,0,0,0-.14.63A5.2238,5.2238,0,0,0,10.86,17.4648a4.2134,4.2134,0,0,0,4.83,1.05L19.0152,21.84l.805.805a.3385.3385,0,0,0,.49,0L22.6554,20.3A.3383.3383,0,0,0,22.6554,19.81Z"/></svg>