<svg id="Layer_1" data-name="Layer 1" xmlns="http://www.w3.org/2000/svg" viewBox="0 0 64 64"><defs><style>.cls-1,.cls-2,.cls-3{fill:#fff;}.cls-2{opacity:0.4;}.cls-3{opacity:0.6;}</style></defs><path class="cls-1" d="M1.25,28.69l4.93-2v5L1.37,30.48A.94.94,0,0,1,1.25,28.69Z"/><path class="cls-1" d="M62.63,30.48,48.78,34.06V30.55c0-2.32-7.51-4.2-16.78-4.2s-16.77,1.88-16.77,4.2v3.51L8.44,32.32V25.81L31.65,16.5a1.05,1.05,0,0,1,.7,0L62.76,28.69A.94.94,0,0,1,62.63,30.48Z"/><path class="cls-2" d="M16.84,41.58l-.11.06.05,0S16.81,41.59,16.84,41.58Z"/><path class="cls-2" d="M47.27,41.64l-.16-.08.11,0Z"/><path class="cls-3" d="M48.78,43.38c0,2.3-7.51,4.18-16.78,4.18a51.07,51.07,0,0,1-11.85-1.23c-3-.75-4.92-1.8-4.92-2.95a1.22,1.22,0,0,1,.09-.46,1.25,1.25,0,0,1,.09-.12,1.17,1.17,0,0,1,.2-.31,1.85,1.85,0,0,1,.14-.14l.32-.29.18-.11c.15-.1.3-.21.48-.31l.11-.06.05,0c.29-.14.58-.27.88-.38a9.05,9.05,0,0,1,6,0l3.59,1.18a15,15,0,0,0,9.35,0l3.58-1.18a9.08,9.08,0,0,1,6,0c.29.11.58.24.87.38l.16.08a5,5,0,0,1,.48.31l.17.11c.13.1.23.2.33.29a1.85,1.85,0,0,1,.14.14,1.54,1.54,0,0,1,.21.31s0,.07.08.12A1.23,1.23,0,0,1,48.78,43.38Z"/><path class="cls-1" d="M48.78,34.13v9.25a1.23,1.23,0,0,0-.1-.46c0-.05-.07-.08-.08-.12a1.54,1.54,0,0,0-.21-.31,1.85,1.85,0,0,0-.14-.14c-.1-.09-.2-.19-.33-.29L47.75,42a5,5,0,0,0-.48-.31l-.05,0-.11,0c-.29-.14-.58-.27-.87-.38a9.08,9.08,0,0,0-6,0l-3.58,1.18a15,15,0,0,1-9.35,0l-3.59-1.18a9.05,9.05,0,0,0-6,0c-.3.11-.59.24-.88.38l-.05,0s-.05,0-.06,0l-.05,0c-.18.1-.33.21-.48.31l-.18.11-.32.29a1.85,1.85,0,0,0-.14.14,1.17,1.17,0,0,0-.2.31,1.25,1.25,0,0,0-.09.12,1.22,1.22,0,0,0-.09.46V34.13c0-.57.47-1.12,1.32-1.63C19.1,31,25.05,29.93,32,29.93S44.9,31,47.46,32.5C48.3,33,48.78,33.56,48.78,34.13Z"/><path class="cls-3" d="M8.69,39.5l.49,4.41a.68.68,0,0,1-.67.83H6.1a.68.68,0,0,1-.66-.83l.49-4.41a2.9,2.9,0,0,1,.25-5.23V26.71l2.26-.9v8.46a2.9,2.9,0,0,1,.25,5.23Z"/></svg>