<svg id="Layer_1" data-name="Layer 1" xmlns="http://www.w3.org/2000/svg" viewBox="0 0 32 32"><defs><style>.cls-1{fill:#0b996e;}.cls-2{fill:#fff;}</style></defs><path class="cls-1" d="M17.3911,9.8164h-3.76V16l.0766,0c.2545-.4819.94-.8877,2.4645-1.3686C18.4078,13.8955,19.5,12.9326,19.5,11.666A1.876,1.876,0,0,0,17.3911,9.8164Z"/><path class="cls-1" d="M14.0339,24.3862h-2.69V7.6377h6.3013c2.5656,0,4.2679,1.5718,4.2679,3.9273a3.8768,3.8768,0,0,1-1.1945,2.8891,5.16,5.16,0,0,1,2.4138,3.6377,9.3514,9.3514,0,0,1,4.6018,2.1812A12.4927,12.4927,0,1,0,16,28.5c.4074,0,.8094-.0229,1.2069-.061A7.1035,7.1035,0,0,1,14.0339,24.3862Z"/><path class="cls-1" d="M20.7111,18.1152a3.604,3.604,0,0,0-1.7444-2.4189,22.5048,22.5048,0,0,1-3.0235,1.2412,3.0891,3.0891,0,0,0-2.3122,2.686V22.208h.9572A9.3544,9.3544,0,0,1,20.7111,18.1152Z"/><path class="cls-2" d="M20.7189,14.4541a3.8768,3.8768,0,0,0,1.1945-2.8891c0-2.3555-1.7023-3.9273-4.2679-3.9273H11.3442V24.3862h2.69a2.3771,2.3771,0,0,1-.0384-.3916,3.6433,3.6433,0,0,1,.5927-1.7866H13.631V19.6235a3.0891,3.0891,0,0,1,2.3122-2.686,22.5048,22.5048,0,0,0,3.0235-1.2412,3.604,3.604,0,0,1,1.7444,2.4189,6.8051,6.8051,0,0,1,2.4216-.0234A5.16,5.16,0,0,0,20.7189,14.4541Zm-4.5468.1763c-1.5245.4809-2.21.8867-2.4645,1.3686l-.0766,0V9.8164h3.76A1.876,1.876,0,0,1,19.5,11.666C19.5,12.9326,18.4078,13.8955,16.1721,14.63Z"/><path class="cls-1" d="M21.9951,22.2955h-.5a1.0193,1.0193,0,0,1,.5.8.8962.8962,0,0,1-.9.9,1.019,1.019,0,0,1-.8-.5v.5a1.7106,1.7106,0,0,0,1.7,1.8,1.7928,1.7928,0,0,0,1.8-1.8A1.71,1.71,0,0,0,21.9951,22.2955Z"/><path class="cls-1" d="M21.9951,19.9952c-3.3,0-6,3-6,4s2.7,4,6,4,6-3,6-4S25.2951,19.9952,21.9951,19.9952Zm0,7a3,3,0,1,1,3-3A2.9463,2.9463,0,0,1,21.9951,26.9952Z"/><path class="cls-2" d="M21.9951,20.9952a3,3,0,1,0,3,3A2.9466,2.9466,0,0,0,21.9951,20.9952Zm0,4.8a1.7106,1.7106,0,0,1-1.7-1.8v-.5a1.019,1.019,0,0,0,.8.5.8962.8962,0,0,0,.9-.9,1.0193,1.0193,0,0,0-.5-.8h.5a1.71,1.71,0,0,1,1.8,1.7A1.7928,1.7928,0,0,1,21.9951,25.7955Z"/></svg>