<svg id="Layer_1" data-name="Layer 1" xmlns="http://www.w3.org/2000/svg" viewBox="0 0 32 32"><defs><style>.cls-1,.cls-2,.cls-3{fill:#3c32c4;}.cls-2{opacity:0;}.cls-3{opacity:0.3;}</style></defs><path class="cls-1" d="M28.45,15h-2A10.51,10.51,0,0,0,17,5.55v-2A12.5,12.5,0,0,1,28.45,15Z"/><path class="cls-1" d="M15,26.45v2A12.51,12.51,0,0,1,3.54,17h2A10.51,10.51,0,0,0,15,26.45Z"/><path class="cls-1" d="M15,3.54v2A10.5,10.5,0,0,0,5.55,15h-2A12.5,12.5,0,0,1,15,3.54Z"/><path class="cls-1" d="M28.45,17A12.51,12.51,0,0,1,17,28.46v-2A10.53,10.53,0,0,0,26.45,17Z"/><path class="cls-2" d="M26.45,15h-2A8.52,8.52,0,0,0,17,7.56v-2A10.51,10.51,0,0,1,26.45,15Z"/><path class="cls-2" d="M26.45,17A10.53,10.53,0,0,1,17,26.45v-2A8.52,8.52,0,0,0,24.43,17Z"/><path class="cls-2" d="M15,24.44v2A10.51,10.51,0,0,1,5.55,17h2A8.52,8.52,0,0,0,15,24.44Z"/><path class="cls-2" d="M15,5.55v2A8.52,8.52,0,0,0,7.56,15h-2A10.5,10.5,0,0,1,15,5.55Z"/><path class="cls-3" d="M15,22.42v2A8.52,8.52,0,0,1,7.56,17h2A6.53,6.53,0,0,0,15,22.42Z"/><path class="cls-3" d="M24.43,15h-2A6.49,6.49,0,0,0,17,9.58v-2A8.52,8.52,0,0,1,24.43,15Z"/><path class="cls-3" d="M15,7.56v2A6.5,6.5,0,0,0,9.58,15h-2A8.52,8.52,0,0,1,15,7.56Z"/><path class="cls-3" d="M24.43,17A8.52,8.52,0,0,1,17,24.44v-2A6.52,6.52,0,0,0,22.41,17Z"/><path class="cls-2" d="M22.41,17A6.52,6.52,0,0,1,17,22.42v-2A4.51,4.51,0,0,0,20.38,17Z"/><path class="cls-2" d="M15,9.58v2A4.54,4.54,0,0,0,11.61,15h-2A6.5,6.5,0,0,1,15,9.58Z"/><path class="cls-2" d="M22.41,15h-2A4.51,4.51,0,0,0,17,11.61v-2A6.49,6.49,0,0,1,22.41,15Z"/><path class="cls-2" d="M15,20.39v2A6.53,6.53,0,0,1,9.58,17h2A4.54,4.54,0,0,0,15,20.39Z"/><path class="cls-1" d="M20.38,17A4.51,4.51,0,0,1,17,20.39v-2.1A2.61,2.61,0,0,0,18.29,17Z"/><path class="cls-1" d="M15,11.61v2.1A2.5,2.5,0,0,0,13.71,15h-2.1A4.54,4.54,0,0,1,15,11.61Z"/><path class="cls-1" d="M15,18.29v2.1A4.54,4.54,0,0,1,11.61,17h2.1A2.54,2.54,0,0,0,15,18.29Z"/><path class="cls-1" d="M20.38,15H18.29A2.57,2.57,0,0,0,17,13.71v-2.1A4.51,4.51,0,0,1,20.38,15Z"/><path class="cls-2" d="M28.5,16v0c0,.33,0,.66-.05,1H18.29A2.61,2.61,0,0,1,17,18.29V28.46c-.33,0-.67,0-1,0s-.67,0-1,0V18.29A2.54,2.54,0,0,1,13.71,17H3.54c0-.33,0-.67,0-1s0-.67,0-1H13.71A2.5,2.5,0,0,1,15,13.71V3.54c.32,0,.65,0,1,0h0c.34,0,.66,0,1,0V13.71A2.57,2.57,0,0,1,18.29,15H28.45C28.48,15.32,28.5,15.65,28.5,16Z"/></svg>