<svg id="Layer_1" data-name="Layer 1" xmlns="http://www.w3.org/2000/svg" viewBox="0 0 64 64"><defs><style>.cls-1,.cls-2{fill:#fff;}.cls-1{opacity:0.6;isolation:isolate;}</style></defs><path class="cls-1" d="M49.00006,7H15a2.0739,2.0739,0,0,0-2,2V57h.00116c2.37616-.00146,2.37671-4,4.75372-4s2.37751,3.99854,4.75366,4h.00232c2.37452-.00146,2.37507-4,4.75049-4,2.37329,0,2.37384,3.99854,4.74628,4H32.01c2.37213-.00146,2.37268-4,4.74567-4,2.37365,0,2.3742,3.99854,4.747,4h.00232c2.37281-.00146,2.37336-4,4.747-4s2.37415,3.99854,4.74695,4H51V9A2,2,0,0,0,49.00006,7Z"/><path class="cls-2" d="M27.84615,34.07692V19.53846c0-.62308,0-1.03846,1.03847-1.03846h6.23076c1.03847,0,1.03847.41538,1.03847,1.03846V34.07692c0,.62308,0,1.03846-1.03847,1.03846H28.88462C27.84615,35.11538,27.84615,34.7,27.84615,34.07692Zm0,10.38462V40.30769c0-.62307,0-1.03846,1.03847-1.03846h6.23076c1.03847,0,1.03847.41539,1.03847,1.03846v4.15385c0,.62307,0,1.03846-1.03847,1.03846H28.88462C27.84615,45.5,27.84615,45.08461,27.84615,44.46154Z"/></svg>