<svg id="Layer_1" data-name="Layer 1" xmlns="http://www.w3.org/2000/svg" viewBox="0 0 64 64"><defs><style>.cls-1,.cls-2,.cls-3{fill:#fff;}.cls-1{opacity:0.6;}.cls-1,.cls-3{isolation:isolate;}</style></defs><path class="cls-1" d="M37,19V7H15a2.07,2.07,0,0,0-2,2V55a2.07,2.07,0,0,0,2,2H49a2.07,2.07,0,0,0,2-2V21H39A2.07,2.07,0,0,1,37,19Z"/><path class="cls-2" d="M42,7H40V17c0,.6,0,1,1,1H51V16Z"/><path class="cls-3" d="M19.19,29.58a6.72,6.72,0,0,0,7.39,1.79l1.17,1.17L41.83,46.79A3.38,3.38,0,0,0,46.57,42l-14-14.24-1.1-1.1A6.63,6.63,0,0,0,29.76,19a9.18,9.18,0,0,0-6.16-2.7,8.11,8.11,0,0,0-2.1.25l2,1.91,1.23,1.22,1,1a1.09,1.09,0,0,1,.21.67l-.82,3c-.07.27-.27.48-.48.48l-3,.81a.8.8,0,0,1-.68-.14l-.95-1-3.18-3.17A8.76,8.76,0,0,0,19.19,29.58ZM42.65,42.8a1.42,1.42,0,0,1,1.89,0,1.39,1.39,0,0,1,0,2,1.31,1.31,0,0,1-1.89,0A1.37,1.37,0,0,1,42.65,42.8Z"/></svg>