<svg id="Layer_1" data-name="Layer 1" xmlns="http://www.w3.org/2000/svg" viewBox="0 0 32 32"><defs><style>.cls-1,.cls-2{fill:#00aac1;}.cls-1{opacity:0.3;}</style></defs><path class="cls-1" d="M22.05,21H10a.53.53,0,0,1-.53-.53V14.08a.15.15,0,0,1,.16-.16.09.09,0,0,1,.08,0c.58.47,1.31,1.08,4,3.13.08.05.16.13.26.21A3.8,3.8,0,0,0,16,18.37a3.9,3.9,0,0,0,2.11-1.08c.1-.08.18-.16.26-.21,2.55-2,3.37-2.63,3.95-3.13,0,0,.07,0,.1,0a.17.17,0,0,1,.16.16v6.39A.53.53,0,0,1,22.05,21ZM16,17.5c-.5,0-1.18-.58-1.63-.95h0a1.62,1.62,0,0,0-.23-.18C11,13.92,10.5,13.53,9.82,13l-.16-.13a.74.74,0,0,1-.24-.5v-.81A.53.53,0,0,1,10,11h12.1a.53.53,0,0,1,.53.53v.79a.69.69,0,0,1-.24.52l-.13.11c-.68.58-1.1.92-4.32,3.42a1.62,1.62,0,0,0-.23.18h0v0A3.42,3.42,0,0,1,16,17.5Z"/><path class="cls-2" d="M16,17.5c-.5,0-1.18-.58-1.63-.95h0a1.62,1.62,0,0,0-.23-.18C11,13.92,10.5,13.53,9.82,13l-.16-.13a.74.74,0,0,1-.24-.5v-.81A.53.53,0,0,1,10,11h12.1a.53.53,0,0,1,.53.53v.79a.69.69,0,0,1-.24.52l-.13.11c-.68.58-1.1.92-4.32,3.42a1.62,1.62,0,0,0-.23.18h0v0A3.42,3.42,0,0,1,16,17.5Z"/><path class="cls-2" d="M16.25,3.5v2A10.5,10.5,0,1,1,5.5,16h-2A12.5,12.5,0,1,0,16.25,3.5Z"/><path class="cls-1" d="M25,7.34,23.59,8.76a10.49,10.49,0,1,1-15-.19L7.16,7.16A12.5,12.5,0,1,0,25,7.34Z"/><polygon class="cls-2" points="10.4 4.53 16.27 7.92 16.27 1.14 10.4 4.53"/></svg>