<svg id="Layer_1" data-name="Layer 1" xmlns="http://www.w3.org/2000/svg" viewBox="0 0 64 64"><defs><style>.cls-1,.cls-2{fill:#fff;}.cls-1{opacity:0.6;isolation:isolate;}</style></defs><path class="cls-1" d="M49,7H15a2.07,2.07,0,0,0-2,2V57h0c2.38,0,2.38-4,4.75-4s2.38,4,4.76,4h0c2.38,0,2.38-4,4.75-4s2.38,4,4.75,4h0c2.37,0,2.37-4,4.75-4s2.37,4,4.74,4h0c2.38,0,2.38-4,4.75-4s2.38,4,4.75,4h0V9A2,2,0,0,0,49,7Z"/><path class="cls-2" d="M45.29,39.62,37,31.36a8.43,8.43,0,0,0-2.1-9.66,10.45,10.45,0,0,0-8.61-3.15,3,3,0,0,0-1.26.28c-.35.28,0,.56.14.7l1.61,1.61.7.7.84.84,1.26,1.26.35.35a1.18,1.18,0,0,1,.28,1l-.91,3.29a1.13,1.13,0,0,1-.28.49,1.46,1.46,0,0,1-.42.28l-3.36.84a1,1,0,0,1-1-.21l-.35-.35-1.26-1.26-.84-.84-.7-.7L19.53,25.2c-.14-.14-.42-.49-.7-.14a3,3,0,0,0-.28,1.26,10.45,10.45,0,0,0,3.15,8.61A8.43,8.43,0,0,0,31.36,37L38,43.68l1.61,1.61a.68.68,0,0,0,1,0l4.69-4.69A.68.68,0,0,0,45.29,39.62Z"/></svg>