<svg id="Layer_1" data-name="Layer 1" xmlns="http://www.w3.org/2000/svg" viewBox="0 0 32 32"><defs><style>.cls-1,.cls-2{fill:#00aac1;}.cls-1{opacity:0.3;}</style></defs><path class="cls-1" d="M21.72,5H10.28a1.06,1.06,0,0,0-.92.53L3.64,15.47a1.06,1.06,0,0,0,0,1.06l5.72,9.91a1.06,1.06,0,0,0,.92.53H21.72a1.06,1.06,0,0,0,.92-.53l5.72-9.91a1.06,1.06,0,0,0,0-1.06L22.64,5.56A1.06,1.06,0,0,0,21.72,5Z"/><path class="cls-2" d="M13.92,17V9.77c0-.31,0-.52.52-.52h3.12c.52,0,.52.21.52.52V17c0,.31,0,.52-.52.52H14.44C13.92,17.56,13.92,17.35,13.92,17Zm0,5.19V20.15c0-.31,0-.52.52-.52h3.12c.52,0,.52.21.52.52v2.08c0,.31,0,.52-.52.52H14.44C13.92,22.75,13.92,22.54,13.92,22.23Z"/></svg>