<svg id="Layer_1" data-name="Layer 1" xmlns="http://www.w3.org/2000/svg" viewBox="0 0 24 24"><defs><style>.cls-1{fill:#1467ba;}</style></defs><path class="cls-1" d="M8.35,9.55a1.61,1.61,0,0,1,.12-.63,1.78,1.78,0,0,1,.35-.51,1.52,1.52,0,0,1,.51-.34A1.44,1.44,0,0,1,10,7.94a1.48,1.48,0,0,1,.63.13,1.56,1.56,0,0,1,.85.85,1.57,1.57,0,0,1,0,1.25,1.75,1.75,0,0,1-.34.51,1.78,1.78,0,0,1-.51.35,1.64,1.64,0,0,1-.63.12A1.59,1.59,0,0,1,9.33,11a1.54,1.54,0,0,1-.51-.35,1.78,1.78,0,0,1-.35-.51A1.59,1.59,0,0,1,8.35,9.55Zm2.38,0A.77.77,0,0,0,10.5,9,.8.8,0,0,0,9.4,9a.76.76,0,0,0-.22.56.78.78,0,0,0,1.32.55A.75.75,0,0,0,10.73,9.55Zm2.71-1.78.72.33-3.59,6.33-.71-.33Zm-1,4.88a1.6,1.6,0,0,1,.13-.62,1.52,1.52,0,0,1,.34-.51,1.78,1.78,0,0,1,.51-.35,1.64,1.64,0,0,1,.63-.12,1.59,1.59,0,0,1,.62.12,1.69,1.69,0,0,1,.86.86,1.59,1.59,0,0,1,.12.62,1.64,1.64,0,0,1-.12.63,1.78,1.78,0,0,1-.35.51,1.52,1.52,0,0,1-.51.34,1.6,1.6,0,0,1-.62.13,1.65,1.65,0,0,1-.63-.13,1.56,1.56,0,0,1-.85-.85A1.65,1.65,0,0,1,12.44,12.65Zm2.38,0a.78.78,0,0,0-1.32-.55.78.78,0,1,0,1.1,1.1A.74.74,0,0,0,14.82,12.65Z"/><path class="cls-1" d="M21.59,9.43c-.09-.53-1.09-.82-1.27-1.31s.38-1.36.11-1.82-1.3-.4-1.65-.81-.11-1.4-.52-1.74a.84.84,0,0,0-.56-.15c-.25,0-.53,0-.78,0a.94.94,0,0,1-.49-.1c-.47-.26-.59-1.28-1.1-1.46a.57.57,0,0,0-.18,0c-.46,0-1,.46-1.51.46h-.1c-.53-.09-1-1-1.54-1s-1,.91-1.54,1h-.1c-.47,0-1-.46-1.51-.46a.57.57,0,0,0-.18,0c-.51.18-.63,1.2-1.09,1.46a1,1,0,0,1-.5.1c-.25,0-.53,0-.77,0a.86.86,0,0,0-.57.15c-.41.34-.17,1.33-.52,1.74s-1.38.35-1.65.81.3,1.31.11,1.82S2.5,8.9,2.41,9.43s.74,1.13.74,1.67-.83,1.15-.74,1.67,1.09.82,1.27,1.31-.38,1.36-.11,1.82,1.3.4,1.65.81.11,1.4.52,1.74a.84.84,0,0,0,.56.15c.25,0,.53,0,.78,0a.94.94,0,0,1,.49.1c.47.26.59,1.28,1.1,1.46a.57.57,0,0,0,.18,0c.46,0,1-.46,1.51-.46h.1c.53.1,1,1,1.54,1s1-.91,1.54-1h.1c.47,0,1,.46,1.51.46a.57.57,0,0,0,.18,0c.51-.18.63-1.2,1.09-1.46a1,1,0,0,1,.5-.1c.25,0,.53,0,.77,0a.86.86,0,0,0,.57-.15c.41-.34.17-1.34.52-1.74s1.38-.35,1.65-.81-.3-1.31-.11-1.82,1.18-.78,1.27-1.31-.74-1.13-.74-1.67S21.68,10,21.59,9.43ZM12,18.27a7.17,7.17,0,1,1,7.17-7.17A7.18,7.18,0,0,1,12,18.27Z"/><polygon class="cls-1" points="7.8 22.5 7.7 20.61 5.8 20.51 7.3 19.02 8.79 17.52 9.79 18.52 10.78 19.51 9.29 21.01 7.8 22.5"/><polygon class="cls-1" points="16.2 22.5 16.3 20.61 18.2 20.51 16.7 19.02 15.21 17.52 14.21 18.52 13.22 19.51 14.71 21.01 16.2 22.5"/></svg>