<svg id="Layer_1" data-name="Layer 1" xmlns="http://www.w3.org/2000/svg" viewBox="0 0 32 32"><defs><style>.cls-1{fill:#70c7e0;}.cls-2{fill:#fff;}.cls-3{fill:#008ab2;}</style></defs><path class="cls-1" d="M27.25,26.0719H4.75a1.25,1.25,0,0,1-1.25-1.25V7.178a1.25,1.25,0,0,1,1.25-1.25h7.304a1.25,1.25,0,0,1,.8071.2955l2.7895,2.3589a1.25,1.25,0,0,0,.8071.2955H27.25a1.25,1.25,0,0,1,1.25,1.25V24.822A1.25,1.25,0,0,1,27.25,26.0719Z"/><circle class="cls-2" cx="10.1341" cy="17.2504" r="4"/><polygon class="cls-3" points="21.247 12.75 16.628 20.75 25.866 20.75 21.247 12.75"/></svg>