<svg id="Layer_1" data-name="Layer 1" xmlns="http://www.w3.org/2000/svg" viewBox="0 0 32 32"><defs><style>.cls-1{fill:#00b050;}.cls-2{fill:#fff;}.cls-3{fill:#f6e600;}</style></defs><path class="cls-1" d="M18.37124,24.43356a2.27155,2.27155,0,0,1,1.36425-4.08691l1.9834.02148L22.339,18.456a2.27161,2.27161,0,0,1,4.32129,0l.62012,1.91211L28.5,20.355V10.1279a1.24993,1.24993,0,0,0-1.24994-1.25H16.45766a1.2493,1.2493,0,0,1-.80713-.29541L12.861,6.2236a1.24926,1.24926,0,0,0-.80707-.29541H4.7499A1.24988,1.24988,0,0,0,3.5,7.17819V24.82224a1.24988,1.24988,0,0,0,1.24988,1.25H19.86544l.1347-.41407Z"/><path class="cls-2" d="M29.42647,22.83542,28.5,23.53171l-1.68988,1.27a.27083.27083,0,0,0-.095.30078l.31567.96973.67127,2.062a.27147.27147,0,0,1-.41407.30615L24.6559,26.59323a.27066.27066,0,0,0-.31189,0L21.71187,28.4404a.27147.27147,0,0,1-.41406-.30615l.67126-2.062.31568-.96973a.27083.27083,0,0,0-.095-.30078l-2.61627-1.96631a.27165.27165,0,0,1,.16607-.48877l3.22888.03564a.27126.27126,0,0,0,.26117-.1875l1.01215-3.12109a.27138.27138,0,0,1,.51642,0l1.01214,3.12109a.27129.27129,0,0,0,.26123.1875L28.5,22.35544l.76038-.00879A.27166.27166,0,0,1,29.42647,22.83542Z"/><path class="cls-3" d="M29.2604,22.34665,28.5,22.35544l-2.46851.02685a.27129.27129,0,0,1-.26123-.1875L24.75814,19.0737a.27138.27138,0,0,0-.51642,0l-1.01215,3.12109a.27126.27126,0,0,1-.26117.1875l-3.22888-.03564a.27165.27165,0,0,0-.16607.48877l2.61627,1.96631a.27083.27083,0,0,1,.095.30078l-.31568.96973-.67126,2.062a.27147.27147,0,0,0,.41406.30615L24.344,26.59323a.27066.27066,0,0,1,.31189,0L27.288,28.4404a.27147.27147,0,0,0,.41407-.30615l-.67127-2.062-.31567-.96973a.27083.27083,0,0,1,.095-.30078l1.68988-1.27.92645-.69629A.27166.27166,0,0,0,29.2604,22.34665Z"/></svg>