<svg id="Layer_1" data-name="Layer 1" xmlns="http://www.w3.org/2000/svg" viewBox="0 0 32 32"><defs><style>.cls-1,.cls-2{fill:#6b0ac9;}.cls-2{opacity:0.2;}.cls-3{fill:#fff;}</style></defs><path class="cls-1" d="M14.63,22.13a2,2,0,0,0-2-1.89H6V6H26V19.08a9.61,9.61,0,0,1,2,1.43V5a1,1,0,0,0-1-1H5A1,1,0,0,0,4,5V21.28a1,1,0,0,0,1,1h7.68v5.48c0,.28.24.38.48.14l1.73-1.68A4.07,4.07,0,0,1,14,24,3.7,3.7,0,0,1,14.63,22.13Z"/><path class="cls-2" d="M6,6V20.24h6.64a2,2,0,0,1,2,1.89A9.22,9.22,0,0,1,22,18a8.47,8.47,0,0,1,4,1.09V6Zm10.86,5.72-.21.75h-2v1.37h1.55l-.21.75H14.74q.3,2.79,1.89,2.79T18.49,15h1.35q-.3,3.43-3.21,3.43t-3.26-3.82h-.71v-.75h.65V12.47h-.65v-.75h.71q.41-3.88,3.26-3.88a2.93,2.93,0,0,1,2.19.84,4,4,0,0,1,1,2.4H18.49a3.06,3.06,0,0,0-.6-1.62,1.55,1.55,0,0,0-1.26-.58c-1.06,0-1.69.94-1.89,2.84Z"/><path class="cls-1" d="M16.63,8.88a1.55,1.55,0,0,1,1.26.58,3.06,3.06,0,0,1,.6,1.62h1.35a4,4,0,0,0-1-2.4,2.93,2.93,0,0,0-2.19-.84q-2.85,0-3.26,3.88h-.71v.75h.65v1.37h-.65v.75h.71q.44,3.82,3.26,3.82T19.84,15H18.49q-.22,2.4-1.86,2.4t-1.89-2.79H16l.21-.75H14.67V12.47h2l.21-.75H14.74C14.94,9.82,15.57,8.88,16.63,8.88Z"/><path class="cls-1" d="M22,22.3h-.5a1,1,0,0,1,.5.8.9.9,0,0,1-.9.9,1,1,0,0,1-.8-.5V24A1.71,1.71,0,0,0,22,25.8,1.79,1.79,0,0,0,23.8,24,1.71,1.71,0,0,0,22,22.3Z"/><path class="cls-1" d="M22,20c-3.3,0-6,3-6,4s2.7,4,6,4,6-3,6-4S25.3,20,22,20Zm0,7a3,3,0,1,1,3-3A2.95,2.95,0,0,1,22,27Z"/><path class="cls-3" d="M22,21a3,3,0,1,0,3,3A2.95,2.95,0,0,0,22,21Zm0,4.8A1.71,1.71,0,0,1,20.3,24v-.5a1,1,0,0,0,.8.5.9.9,0,0,0,.9-.9,1,1,0,0,0-.5-.8H22A1.71,1.71,0,0,1,23.8,24,1.79,1.79,0,0,1,22,25.8Z"/></svg>