<svg id="Layer_1" data-name="Layer 1" xmlns="http://www.w3.org/2000/svg" viewBox="0 0 32 32"><defs><style>.cls-1,.cls-2{fill:#00796b;}.cls-1{opacity:0.4;}.cls-3{fill:#fff;}</style></defs><path class="cls-1" d="M23.82,27.5H8.18a1,1,0,0,1-.92-.92V8.64a.92.92,0,0,1,.92-.92h4.6a3.22,3.22,0,1,1,6.44,0h4.6a.92.92,0,0,1,.92.92V26.58A1,1,0,0,1,23.82,27.5ZM16,6.34a1.38,1.38,0,1,0,1.38,1.38A1.36,1.36,0,0,0,16,6.34Z"/><path class="cls-2" d="M22.44,10H9.56a2.29,2.29,0,0,1,2.3-2.3h.92a3.22,3.22,0,1,1,6.44,0h.92A2.29,2.29,0,0,1,22.44,10ZM16,6.34a1.38,1.38,0,1,0,1.38,1.38A1.36,1.36,0,0,0,16,6.34Z"/><path class="cls-2" d="M11.32,15.57H11L10.53,15l-.92-.93a.19.19,0,0,1,0-.26l.52-.51a.18.18,0,0,1,.27,0l.77.77,2-1.95a.19.19,0,0,1,.26,0l.51.52a.17.17,0,0,1,0,.25L11.83,15l-.51.55"/><path class="cls-2" d="M11.32,20.17H11l-.51-.55-.92-.93a.19.19,0,0,1,0-.26l.52-.51a.18.18,0,0,1,.27,0l.77.77,2-1.94a.17.17,0,0,1,.26,0l.51.51a.17.17,0,0,1,0,.25l-2.07,2.11-.51.55"/><path class="cls-2" d="M11.32,24.77H11l-.51-.55-.92-.93a.19.19,0,0,1,0-.26l.52-.51a.18.18,0,0,1,.27,0l.77.77,2-1.94a.17.17,0,0,1,.26,0l.51.51a.17.17,0,0,1,0,.25l-2.07,2.11-.51.55"/><path class="cls-3" d="M16.29,22.74h5.86c.18,0,.29,0,.29.28v1.14c0,.29-.11.29-.29.29H16.29c-.18,0-.29,0-.29-.29V23C16,22.74,16.11,22.74,16.29,22.74Z"/><path class="cls-3" d="M16.29,18.14h5.86c.18,0,.29,0,.29.28v1.14c0,.29-.11.29-.29.29H16.29c-.18,0-.29,0-.29-.29V18.42C16,18.14,16.11,18.14,16.29,18.14Z"/><path class="cls-3" d="M16.29,13.54h5.86c.18,0,.29,0,.29.28V15c0,.29-.11.29-.29.29H16.29c-.18,0-.29,0-.29-.29V13.82C16,13.54,16.11,13.54,16.29,13.54Z"/></svg>