<svg id="Layer_1" data-name="Layer 1" xmlns="http://www.w3.org/2000/svg" viewBox="0 0 32 32"><defs><style>.cls-1{opacity:0.2;}.cls-2,.cls-3{fill:#5457c8;}.cls-2{isolation:isolate;}</style></defs><g class="cls-1"><path class="cls-2" d="M24.5,3.5H7.5a1.037,1.037,0,0,0-1,1v24h.0006c1.1881-.0007,1.1883-2,2.3768-2s1.1888,1.9993,2.3769,2h.0011c1.1873-.0007,1.1876-2,2.3753-2s1.1869,1.9993,2.3731,2h.0012c1.186-.0007,1.1863-2,2.3728-2s1.1871,1.9993,2.3735,2h.0012c1.1864-.0007,1.1866-2,2.3734-2s1.1871,1.9993,2.3735,2H25.5V4.5A1,1,0,0,0,24.5,3.5ZM22.3609,24.71H9.6391V23.2129H22.3609Zm0-2.9327H9.6391V20.28H22.3609Z"/></g><path class="cls-3" d="M20.0034,14.07q-.3475,3.8223-3.5763,3.8224-3.1563,0-3.6341-4.2568h-.7964v-.84h.724v-1.52h-.724v-.84h.7964q.4488-4.3291,3.6341-4.3291a3.2318,3.2318,0,0,1,2.4324.9411,4.49,4.49,0,0,1,1.1439,2.6786H18.4976a3.56,3.56,0,0,0-.666-1.81,1.7306,1.7306,0,0,0-1.4045-.6515q-1.7808,0-2.1139,3.1708h2.36l-.2317.84H14.2408v1.52h1.723l-.2317.84H14.3132q.333,3.113,2.1139,3.1129,1.81,0,2.07-2.6785Z"/></svg>