<svg id="Layer_1" data-name="Layer 1" xmlns="http://www.w3.org/2000/svg" viewBox="0 0 32 32"><defs><style>.cls-1{fill:#70c7e0;}.cls-2{fill:#00b050;}</style></defs><path class="cls-1" d="M4.74991,26.07216H18.76975l-.63171-.63184a2.29986,2.29986,0,0,1,0-3.25293l1.24511-1.24511a2.30106,2.30106,0,0,1,3.25293.001l.51367.51368,3.21485-3.21387a2.284,2.284,0,0,1,1.626-.67383,2.32655,2.32655,0,0,1,.50947.06152V10.12782a1.24994,1.24994,0,0,0-1.24994-1.25H16.45768a1.24928,1.24928,0,0,1-.80713-.29541L12.861,6.22353a1.24926,1.24926,0,0,0-.80707-.29541h-7.304A1.24988,1.24988,0,0,0,3.5,7.17812v17.644A1.24988,1.24988,0,0,0,4.74991,26.07216Z"/><path class="cls-2" d="M27.77823,19.65761,23.14994,24.286l-1.92829-1.92871a.30044.30044,0,0,0-.42468,0L19.55246,23.602a.3005.3005,0,0,0,0,.4248l2.0456,2.04541.095.09521L22.93766,27.412a.30037.30037,0,0,0,.42462,0l1.24451-1.24463.09527-.09521L28.5,22.27431l.94738-.94776a.29978.29978,0,0,0,0-.42431L28.5,19.955l-.29712-.29736A.30046.30046,0,0,0,27.77823,19.65761Z"/></svg>