<svg id="Layer_1" data-name="Layer 1" xmlns="http://www.w3.org/2000/svg" viewBox="0 0 64 64"><defs><style>.cls-1,.cls-2,.cls-3{fill:#fff;}.cls-2{opacity:0;}.cls-3{opacity:0.6;}</style></defs><path class="cls-1" d="M56.91,30h-4A21,21,0,0,0,34,11.1v-4A25,25,0,0,1,56.91,30Z"/><path class="cls-1" d="M30,52.9v4A25,25,0,0,1,7.09,34h4A21,21,0,0,0,30,52.9Z"/><path class="cls-1" d="M30,7.09v4A21,21,0,0,0,11.1,30h-4A25,25,0,0,1,30,7.09Z"/><path class="cls-1" d="M56.91,34A25,25,0,0,1,34,56.91v-4A21,21,0,0,0,52.9,34Z"/><path class="cls-2" d="M52.9,30h-4A17,17,0,0,0,34,15.13v-4A21,21,0,0,1,52.9,30Z"/><path class="cls-2" d="M52.9,34A21,21,0,0,1,34,52.9v-4A17,17,0,0,0,48.87,34Z"/><path class="cls-2" d="M30,48.87v4A21,21,0,0,1,11.1,34h4A17,17,0,0,0,30,48.87Z"/><path class="cls-2" d="M30,11.1v4A17,17,0,0,0,15.13,30h-4A21,21,0,0,1,30,11.1Z"/><path class="cls-3" d="M30,44.83v4A17,17,0,0,1,15.13,34h4A13,13,0,0,0,30,44.83Z"/><path class="cls-3" d="M48.87,30h-4A13,13,0,0,0,34,19.17v-4A17,17,0,0,1,48.87,30Z"/><path class="cls-3" d="M30,15.13v4A13,13,0,0,0,19.17,30h-4A17,17,0,0,1,30,15.13Z"/><path class="cls-3" d="M48.87,34A17,17,0,0,1,34,48.87v-4A13,13,0,0,0,44.83,34Z"/><path class="cls-2" d="M44.83,34A13,13,0,0,1,34,44.83V40.77A9,9,0,0,0,40.77,34Z"/><path class="cls-2" d="M30,19.17v4.06A9,9,0,0,0,23.23,30H19.17A13,13,0,0,1,30,19.17Z"/><path class="cls-2" d="M44.83,30H40.77A9,9,0,0,0,34,23.23V19.17A13,13,0,0,1,44.83,30Z"/><path class="cls-2" d="M30,40.77v4.06A13,13,0,0,1,19.17,34h4.06A9,9,0,0,0,30,40.77Z"/><path class="cls-1" d="M40.77,34A9,9,0,0,1,34,40.77V36.58A5.07,5.07,0,0,0,36.58,34Z"/><path class="cls-1" d="M30,23.23v4.19A5.07,5.07,0,0,0,27.42,30H23.23A9,9,0,0,1,30,23.23Z"/><path class="cls-1" d="M30,36.58v4.19A9,9,0,0,1,23.23,34h4.19A5.07,5.07,0,0,0,30,36.58Z"/><path class="cls-1" d="M40.77,30H36.58A5.07,5.07,0,0,0,34,27.42V23.23A9,9,0,0,1,40.77,30Z"/><path class="cls-2" d="M57,32V32c0,.66,0,1.31-.09,2H36.58A5.07,5.07,0,0,1,34,36.58V56.91c-.66.06-1.33.09-2,.09s-1.34,0-2-.09V36.58A5.07,5.07,0,0,1,27.42,34H7.09C7,33.34,7,32.67,7,32s0-1.34.09-2H27.42A5.07,5.07,0,0,1,30,27.42V7.09C30.65,7,31.31,7,32,7H32c.66,0,1.32,0,2,.09V27.42A5.07,5.07,0,0,1,36.58,30H56.91C57,30.65,57,31.3,57,32Z"/></svg>