<svg id="Layer_1" data-name="Layer 1" xmlns="http://www.w3.org/2000/svg" viewBox="0 0 64 64"><defs><style>.cls-1,.cls-2{fill:#fff;}.cls-1{opacity:0.6;}.cls-3{fill:none;}</style></defs><path class="cls-1" d="M15.52,21.17h33A1.81,1.81,0,0,1,50.28,23V28.2a0,0,0,0,1,0,0H13.72a0,0,0,0,1,0,0V23A1.81,1.81,0,0,1,15.52,21.17Z"/><polygon class="cls-2" points="32 47.14 13.72 28.2 50.28 28.2 32 47.14"/><rect class="cls-2" x="28.01" y="34.26" width="7.98" height="22.74"/><path class="cls-3" d="M32,8.71a8.89,8.89,0,0,0-8.65,10.9h1.77a7,7,0,0,1-.29-2,7.17,7.17,0,0,1,14.34,0,7,7,0,0,1-.29,2h1.77A8.89,8.89,0,0,0,32,8.71Z"/><path class="cls-2" d="M23.12,17.6a8.88,8.88,0,1,1,17.53,2H42.4a10.23,10.23,0,0,0,.2-2,10.6,10.6,0,1,0-21.2,0,10.23,10.23,0,0,0,.2,2h1.75A8.91,8.91,0,0,1,23.12,17.6Z"/><path class="cls-1" d="M39.17,17.6a7.17,7.17,0,0,0-14.34,0,7,7,0,0,0,.29,2H38.88A7,7,0,0,0,39.17,17.6Z"/></svg>