<svg id="Layer_1" data-name="Layer 1" xmlns="http://www.w3.org/2000/svg" viewBox="0 0 32 32"><defs><style>.cls-1{opacity:0.4;}.cls-2{fill:#00b78b;}</style></defs><g class="cls-1"><circle class="cls-2" cx="7.53" cy="13.43" r="2.3" transform="translate(-2.88 2.09) rotate(-13.28)"/><path class="cls-2" d="M10.58,17.05a2.28,2.28,0,0,0-1.44-.55,8,8,0,0,1-1.61.31c-1,0-1.2-.31-1.61-.31A2.58,2.58,0,0,0,3.5,19v.69c0,.38,0,.69.42.69h3.7A6.37,6.37,0,0,1,10.58,17.05Z"/><path class="cls-2" d="M28.5,19.65V19a2.58,2.58,0,0,0-2.42-2.46,8.11,8.11,0,0,1-1.61.31c-1,0-1.2-.31-1.61-.31a2.28,2.28,0,0,0-1.44.55,6.37,6.37,0,0,1,3,3.29h3.7C28.52,20.34,28.5,20,28.5,19.65Z"/><circle class="cls-2" cx="24.47" cy="13.43" r="2.3"/></g><path class="cls-2" d="M16,16a4.44,4.44,0,1,0-4.44-4.44A4.45,4.45,0,0,0,16,16ZM9.05,24.87H23c.86,0,.82-.59.82-1.33V22.21a5,5,0,0,0-4.66-4.73c-.75,0-1.3.59-3.11.59s-2.31-.59-3.11-.59a5,5,0,0,0-4.66,4.73v1.33C8.23,24.28,8.16,24.87,9.05,24.87Z"/></svg>