<svg id="Layer_1" data-name="Layer 1" xmlns="http://www.w3.org/2000/svg" viewBox="0 0 64 64"><defs><style>.cls-1,.cls-2,.cls-3{fill:#fff;}.cls-2{fill-opacity:0.6;fill-rule:evenodd;}.cls-3{opacity:0.6;isolation:isolate;}</style></defs><path class="cls-1" d="M38.28,25.33a.9.9,0,0,1-.89-.9V21.61H26.61v2.82a.9.9,0,0,1-1.8,0v-3a1.58,1.58,0,0,1,1.58-1.58H37.6a1.58,1.58,0,0,1,1.58,1.58v3A.9.9,0,0,1,38.28,25.33Z"/><path class="cls-2" d="M47,28.77V39.85a4.34,4.34,0,0,0-4.35,4.33H21.34A4.33,4.33,0,0,0,17,39.85V28.77a4.34,4.34,0,0,0,4.34-4.34h2.28a2.09,2.09,0,0,0,4.18,0h8.4a2.08,2.08,0,1,0,4.16,0h2.29A4.34,4.34,0,0,0,47,28.77Z"/><path class="cls-1" d="M21.34,24.43A4.34,4.34,0,0,1,17,28.78V25.33a1,1,0,0,1,.9-.9Z"/><path class="cls-1" d="M47,25.33v3.45a4.34,4.34,0,0,1-4.34-4.35H46.1A1,1,0,0,1,47,25.33Z"/><path class="cls-1" d="M21.34,44.18H17.9a1,1,0,0,1-.9-.88V39.85A4.34,4.34,0,0,1,21.34,44.18Z"/><path class="cls-1" d="M47,39.85V43.3a1,1,0,0,1-.9.88H42.66A4.34,4.34,0,0,1,47,39.85Z"/><path class="cls-1" d="M42.18,21.4v0H46.1a4,4,0,0,1,3.9,3.9V26h3.5a2,2,0,0,0,2-2V10a2,2,0,0,0-2-2h-18a2,2,0,0,0-2,2v6.82h4.1A4.58,4.58,0,0,1,42.18,21.4Z"/><path class="cls-3" d="M14,31.77V25.33a4,4,0,0,1,3.9-3.9h3.91v0a4.59,4.59,0,0,1,4.58-4.58H30.5V10a2,2,0,0,0-2-2h-18a2,2,0,0,0-2,2V36a2,2,0,0,0,2,2H14V31.77Z"/><path class="cls-3" d="M50,36.85V43.3a4,4,0,0,1-3.9,3.88H33.5V54a2,2,0,0,0,2,2h18a2,2,0,0,0,2-2V31a2,2,0,0,0-2-2H50v7.85Z"/><path class="cls-1" d="M17.9,47.18A4,4,0,0,1,14,43.3V41H10.5a2,2,0,0,0-2,2V54a2,2,0,0,0,2,2h18a2,2,0,0,0,2-2V47.18H17.9Z"/></svg>