<svg id="Layer_1" data-name="Layer 1" xmlns="http://www.w3.org/2000/svg" viewBox="0 0 32 32"><defs><style>.cls-1,.cls-2{fill:#009;}.cls-2{opacity:0.4;}</style></defs><path class="cls-1" d="M3.74,14.82l2-.79v2l-1.92-.5A.37.37,0,0,1,3.74,14.82Z"/><path class="cls-1" d="M28.22,15.53,22.69,17v-1.4c0-.93-3-1.68-6.69-1.68s-6.69.75-6.69,1.68V17l-2.71-.7v-2.6L15.86,10a.45.45,0,0,1,.28,0l12.13,4.87A.38.38,0,0,1,28.22,15.53Z"/><path class="cls-2" d="M10,20l0,0h0Z"/><path class="cls-2" d="M22.09,20,22,20l0,0Z"/><path class="cls-2" d="M22.69,20.67c0,.92-3,1.67-6.69,1.67a20.57,20.57,0,0,1-4.73-.49c-1.21-.3-2-.72-2-1.18a.39.39,0,0,1,0-.18l0,0a.83.83,0,0,1,.08-.12l.06-.06.13-.11.07,0L9.91,20l0,0h0a2.63,2.63,0,0,1,.35-.15,3.54,3.54,0,0,1,2.38,0l1.44.47a5.92,5.92,0,0,0,3.72,0l1.43-.47a3.56,3.56,0,0,1,2.39,0L22,20l.06,0,.19.12.07,0,.13.11.06.06a.83.83,0,0,1,.08.12l0,0A.39.39,0,0,1,22.69,20.67Z"/><path class="cls-1" d="M22.69,17v3.68a.39.39,0,0,0,0-.18l0,0a.83.83,0,0,0-.08-.12l-.06-.06-.13-.11-.07,0L22.09,20h0l0,0-.35-.15a3.56,3.56,0,0,0-2.39,0l-1.43.47a5.92,5.92,0,0,1-3.72,0l-1.44-.47a3.54,3.54,0,0,0-2.38,0A2.63,2.63,0,0,0,10,20H9.91l-.19.12-.07,0-.13.11-.06.06a.83.83,0,0,0-.08.12l0,0a.39.39,0,0,0,0,.18V17c0-.23.19-.45.53-.65,1-.6,3.39-1,6.16-1a14.38,14.38,0,0,1,6.16,1C22.5,16.54,22.69,16.76,22.69,17Z"/><path class="cls-2" d="M6.7,19.13l.2,1.76a.27.27,0,0,1-.27.33h-1a.27.27,0,0,1-.26-.33l.19-1.76A1.16,1.16,0,0,1,5.7,17V14l.9-.37V17a1.16,1.16,0,0,1,.1,2.09Z"/></svg>