<svg id="Layer_1" data-name="Layer 1" xmlns="http://www.w3.org/2000/svg" viewBox="0 0 32 32"><defs><style>.cls-1{fill:#d8c4b3;}.cls-2{fill:#a08165;}.cls-3{fill:none;}</style></defs><path class="cls-1" d="M9.9,19.22a3.91,3.91,0,1,0,3.91,3.91A3.91,3.91,0,0,0,9.9,19.22Zm0,5.68a1.77,1.77,0,1,1,1.77-1.77A1.77,1.77,0,0,1,9.9,24.9Z"/><path class="cls-2" d="M22.2,21.61a1.11,1.11,0,1,0,1.1,1.11A1.11,1.11,0,0,0,22.2,21.61Z"/><path class="cls-1" d="M22.2,18.4a4.32,4.32,0,1,0,4.31,4.32A4.32,4.32,0,0,0,22.2,18.4Zm0,6.5a2.18,2.18,0,1,1,2.17-2.18A2.19,2.19,0,0,1,22.2,24.9Z"/><path class="cls-3" d="M21,7.37h-.73a8.3,8.3,0,0,0-8,6.22l-.69,2.64L15.17,18l6.32-2.74.52-.76-.75-7A.23.23,0,0,0,21,7.37Z"/><path class="cls-2" d="M27.49,14.84H23.12l-.8-7.38A1.29,1.29,0,0,0,21,6.3h-.73a9.37,9.37,0,0,0-9.07,7l-.4,1.57.34-1.33-.34,1.33-.11.4L10,18.15a5,5,0,0,1,3.33,1.37h0a1.88,1.88,0,0,1,.24.25l.06.07a1.59,1.59,0,0,1,.2.24l.08.1a2.07,2.07,0,0,1,.17.24l.08.12c.07.13.15.26.21.4l.11.21.07.19.09.23a1.46,1.46,0,0,1,0,.2,1.82,1.82,0,0,1,.07.25c0,.06,0,.13,0,.19a2.7,2.7,0,0,1,0,.28l0,.18c0,.13,0,.27,0,.41v.05a4.93,4.93,0,0,1,0,.55h2a5,5,0,0,1-.09-1,5.39,5.39,0,0,1,10.77,0,5,5,0,0,1-.09,1,1,1,0,0,0,1-1V15.84A1,1,0,0,0,27.49,14.84Zm-6,.46L15.17,18l-3.58-1.81.69-2.64a8.3,8.3,0,0,1,8-6.22H21a.23.23,0,0,1,.22.2l.75,7Z"/><path class="cls-1" d="M11.85,5.48,9.18,15.29l-.86,3.12h0l-.22-.07-.79-.26-2.93-1L4,17l-.47-.9,1,.2,3.09.61.23-.82,3-10.87a.33.33,0,0,1,.4-.22l.41.11A.32.32,0,0,1,11.85,5.48Z"/></svg>