<svg id="Layer_1" data-name="Layer 1" xmlns="http://www.w3.org/2000/svg" viewBox="0 0 32 32"><defs><style>.cls-1,.cls-2{fill:#00aac1;}.cls-1{opacity:0.3;}.cls-3{fill:#fff;}</style></defs><path class="cls-1" d="M22,18a5.65,5.65,0,0,1,.59,0v-4a.17.17,0,0,0-.16-.16s-.08,0-.1,0c-.58.5-1.4,1.16-3.95,3.13-.08.05-.16.13-.26.21A3.9,3.9,0,0,1,16,18.37a3.8,3.8,0,0,1-2.11-1.08c-.1-.08-.18-.16-.26-.21-2.66-2-3.39-2.66-4-3.13a.09.09,0,0,0-.08,0,.15.15,0,0,0-.16.16v6.39A.53.53,0,0,0,10,21H15.5A9.22,9.22,0,0,1,22,18Z"/><path class="cls-2" d="M9.82,13c.68.56,1.13.95,4.29,3.4a1.62,1.62,0,0,1,.23.18h0c.45.37,1.13.95,1.63.95a3.42,3.42,0,0,0,1.63-.92v0h0a1.62,1.62,0,0,1,.23-.18c3.22-2.5,3.64-2.84,4.32-3.42l.13-.11a.69.69,0,0,0,.24-.52v-.79a.53.53,0,0,0-.53-.53H10a.53.53,0,0,0-.53.53v.81a.74.74,0,0,0,.24.5Z"/><path class="cls-2" d="M27.77,11.84c.08.21.16.43.22.64C27.93,12.26,27.85,12.05,27.77,11.84Z"/><path class="cls-2" d="M6.19,19.71c0,.09.07.19.1.29C6.26,19.9,6.22,19.8,6.19,19.71Z"/><path class="cls-2" d="M5.92,18.9s0,.07,0,.1S5.93,18.94,5.92,18.9Z"/><path class="cls-2" d="M28.36,14.25c0,.19.06.39.08.59C28.42,14.64,28.39,14.44,28.36,14.25Z"/><path class="cls-2" d="M26.76,9.66c.11.19.23.39.33.58C27,10.05,26.87,9.85,26.76,9.66Z"/><path class="cls-2" d="M27.32,10.73c.1.2.19.41.28.61C27.51,11.13,27.42,10.93,27.32,10.73Z"/><path class="cls-2" d="M7,21.29c.11.19.21.38.33.56C7.16,21.67,7.06,21.48,7,21.29Z"/><path class="cls-2" d="M28,19.68c0,.12-.09.23-.13.35C27.86,19.91,27.91,19.8,28,19.68Z"/><path class="cls-2" d="M28.25,18.5c0,.1-.06.2-.08.3C28.19,18.7,28.23,18.6,28.25,18.5Z"/><path class="cls-2" d="M3.68,18c-.05-.27-.09-.55-.12-.82C3.59,17.49,3.63,17.76,3.68,18Z"/><path class="cls-2" d="M4.29,20.34c-.09-.25-.18-.49-.26-.73C4.11,19.85,4.2,20.1,4.29,20.34Z"/><path class="cls-2" d="M28.44,17.16a.49.49,0,0,1,0,.12A.49.49,0,0,0,28.44,17.16Z"/><path class="cls-2" d="M3.93,19.21c-.07-.26-.14-.52-.19-.79C3.79,18.69,3.86,19,3.93,19.21Z"/><path class="cls-2" d="M28.5,16c0-.13,0-.26,0-.39,0,.15,0,.29,0,.44Z"/><path class="cls-2" d="M6.53,20.51l.21.44Z"/><path class="cls-2" d="M26,19.07c0-.05,0-.11,0-.17S26.05,19,26,19.07Z"/><path class="cls-2" d="M13,26.05l.29.07Z"/><path class="cls-2" d="M14,26.3l.13,0Z"/><path class="cls-2" d="M25.45,11.46a2.4,2.4,0,0,0-.11-.23A1.63,1.63,0,0,1,25.45,11.46Z"/><path class="cls-2" d="M26.33,14.14Z"/><path class="cls-2" d="M26.11,13.22s0-.05,0-.07S26.11,13.2,26.11,13.22Z"/><path class="cls-2" d="M25.82,12.32l-.05-.15Z"/><path class="cls-2" d="M25,10.62c-.06-.09-.11-.19-.17-.29C24.89,10.43,24.94,10.53,25,10.62Z"/><path class="cls-2" d="M10.14,24.71c.21.14.42.26.64.38C10.56,25,10.35,24.85,10.14,24.71Z"/><path class="cls-2" d="M25.23,7.59c.19.21.37.41.55.63C25.6,8,25.42,7.79,25.23,7.59Z"/><path class="cls-2" d="M11,25.25l.53.26Z"/><path class="cls-2" d="M12,25.7l.42.15Z"/><path class="cls-2" d="M26.07,8.62c.14.19.28.38.41.58C26.35,9,26.21,8.81,26.07,8.62Z"/><path class="cls-2" d="M24.46,9.81a3.81,3.81,0,0,0-.24-.32A3.81,3.81,0,0,1,24.46,9.81Z"/><path class="cls-2" d="M28.12,13c.06.22.11.43.15.65C28.23,13.43,28.18,13.22,28.12,13Z"/><path class="cls-2" d="M3.5,16h0c0,.26,0,.52,0,.78C3.52,16.52,3.5,16.26,3.5,16Z"/><path class="cls-2" d="M5.34,22.5c-.13-.21-.26-.41-.37-.63C5.08,22.09,5.21,22.29,5.34,22.5Z"/><path class="cls-2" d="M10.11,27c-.18-.09-.36-.21-.53-.31C9.75,26.81,9.93,26.93,10.11,27Z"/><path class="cls-2" d="M12.37,28c-.2-.06-.39-.14-.59-.21C12,27.82,12.17,27.9,12.37,28Z"/><path class="cls-2" d="M11.22,27.55l-.55-.26Z"/><path class="cls-2" d="M10,24.63A10.65,10.65,0,0,1,7.41,22,10.37,10.37,0,0,0,10,24.63Z"/><path class="cls-2" d="M9.06,26.4c-.2-.14-.4-.3-.6-.45C8.66,26.1,8.86,26.26,9.06,26.4Z"/><path class="cls-2" d="M6.09,23.6c-.17-.22-.34-.44-.49-.67C5.75,23.16,5.92,23.38,6.09,23.6Z"/><path class="cls-2" d="M6.33,23.91a12.65,12.65,0,0,0,1.75,1.76c-.31-.26-.62-.54-.92-.83A12,12,0,0,1,6.33,23.91Z"/><path class="cls-2" d="M13.55,28.25c-.2,0-.39-.09-.59-.14C13.16,28.16,13.35,28.22,13.55,28.25Z"/><path class="cls-2" d="M25,7.34a12.48,12.48,0,0,0-8.74-3.83v2A10.48,10.48,0,0,1,23.82,9c-.08-.08-.15-.18-.23-.26Z"/><path class="cls-2" d="M4.75,21.42c-.1-.21-.21-.43-.31-.66C4.54,21,4.65,21.21,4.75,21.42Z"/><path class="cls-2" d="M14.76,28.44l-.48-.07Z"/><path class="cls-1" d="M28.17,18.8c-.07.3-.14.59-.22.88C28,19.39,28.1,19.1,28.17,18.8Z"/><path class="cls-1" d="M28.43,17.28c0,.41-.1.82-.18,1.22C28.33,18.1,28.39,17.69,28.43,17.28Z"/><path class="cls-1" d="M4,19.61c0-.13-.06-.27-.1-.4C4,19.34,4,19.48,4,19.61Z"/><path class="cls-1" d="M27.73,20.27l.09-.24-.09.24Z"/><path class="cls-1" d="M4.44,20.76l-.15-.42Z"/><path class="cls-1" d="M28.5,16.05c0,.37,0,.75-.06,1.11C28.47,16.79,28.5,16.42,28.5,16.05Z"/><path class="cls-1" d="M16,28.5c-.42,0-.83,0-1.24-.06a12.54,12.54,0,0,0,2.45,0h0C16.81,28.47,16.41,28.5,16,28.5Z"/><path class="cls-1" d="M10.67,27.29c-.19-.09-.38-.17-.56-.27C10.29,27.12,10.48,27.2,10.67,27.29Z"/><path class="cls-1" d="M8.46,26l-.38-.28Z"/><path class="cls-1" d="M9.58,26.71l-.52-.31Z"/><path class="cls-1" d="M14.28,28.37c-.24,0-.49-.07-.73-.12C13.79,28.3,14,28.33,14.28,28.37Z"/><path class="cls-1" d="M13,28.11c-.2-.05-.4-.09-.59-.15Z"/><path class="cls-1" d="M5,21.87c-.08-.14-.15-.3-.22-.45C4.82,21.57,4.89,21.73,5,21.87Z"/><path class="cls-1" d="M11.78,27.75l-.56-.2Z"/><path class="cls-1" d="M5.6,22.93a4.92,4.92,0,0,1-.26-.43A4.92,4.92,0,0,0,5.6,22.93Z"/><path class="cls-1" d="M26,19.07v0h0Z"/><path class="cls-1" d="M5.92,18.9A10.49,10.49,0,0,1,8.58,8.57L7.16,7.16A12.46,12.46,0,0,0,3.5,16h2A10.27,10.27,0,0,0,5.92,18.9Z"/><path class="cls-1" d="M26.33,14.14a10.65,10.65,0,0,1-.25,4.76A10.27,10.27,0,0,0,26.5,16,11.38,11.38,0,0,0,26.33,14.14Z"/><path class="cls-1" d="M15,26.45c-.31,0-.62-.07-.93-.13.31.05.62.1.93.13Z"/><path class="cls-1" d="M6.33,23.91c-.09-.1-.16-.21-.24-.31C6.17,23.7,6.24,23.81,6.33,23.91Z"/><path class="cls-1" d="M3.56,17.21c0-.14,0-.29,0-.43C3.55,16.92,3.55,17.07,3.56,17.21Z"/><path class="cls-1" d="M7.28,21.85l.13.17Z"/><path class="cls-1" d="M25.78,8.22l.29.4Z"/><path class="cls-1" d="M6.29,20l.24.51Z"/><path class="cls-1" d="M10,24.63l.11.08Z"/><path class="cls-1" d="M27.09,10.24c.08.16.16.33.23.49C27.25,10.57,27.17,10.4,27.09,10.24Z"/><path class="cls-1" d="M26.48,9.2c.1.15.19.31.28.46C26.67,9.51,26.58,9.35,26.48,9.2Z"/><path class="cls-1" d="M6.74,21l.21.34Z"/><path class="cls-1" d="M25,7.34h0c.07.08.14.17.22.25C25.15,7.51,25.09,7.42,25,7.34Z"/><path class="cls-1" d="M10.78,25.09l.26.16Z"/><path class="cls-1" d="M25.34,11.23c-.1-.21-.22-.41-.34-.61C25.12,10.82,25.24,11,25.34,11.23Z"/><path class="cls-1" d="M25.77,12.17c-.1-.24-.2-.48-.32-.71C25.57,11.7,25.67,11.93,25.77,12.17Z"/><path class="cls-1" d="M13.26,26.12q.36.11.72.18Q13.62,26.23,13.26,26.12Z"/><path class="cls-1" d="M12.4,25.85l.57.2Z"/><path class="cls-1" d="M24.22,9.49c-.12-.16-.26-.31-.4-.47C24,9.18,24.1,9.33,24.22,9.49Z"/><path class="cls-1" d="M11.57,25.51l.41.19Z"/><path class="cls-1" d="M24.83,10.33c-.12-.18-.25-.35-.37-.52C24.58,10,24.71,10.15,24.83,10.33Z"/><path class="cls-1" d="M5.94,19c.07.24.16.48.25.71C6.1,19.47,6,19.24,5.94,19Z"/><path class="cls-1" d="M28.44,14.84c0,.25,0,.51,0,.77C28.47,15.35,28.47,15.09,28.44,14.84Z"/><path class="cls-1" d="M28,12.48c.05.17.09.35.13.52C28.08,12.83,28,12.65,28,12.48Z"/><path class="cls-1" d="M26.1,13.15c-.08-.28-.18-.56-.28-.83C25.92,12.6,26,12.87,26.1,13.15Z"/><path class="cls-1" d="M28.27,13.65c0,.2.06.4.09.6C28.33,14.05,28.31,13.85,28.27,13.65Z"/><path class="cls-1" d="M26.33,14.14c-.06-.31-.13-.62-.22-.92C26.2,13.52,26.27,13.83,26.33,14.14Z"/><path class="cls-1" d="M3.74,18.42c0-.13,0-.26-.06-.39C3.7,18.16,3.71,18.29,3.74,18.42Z"/><path class="cls-1" d="M27.6,11.34c.06.16.12.33.17.5C27.72,11.67,27.66,11.51,27.6,11.34Z"/><path class="cls-2" d="M17.2,28.44a9.47,9.47,0,0,1-2.16-2c-.31,0-.62-.08-.93-.13l-.13,0q-.36-.07-.72-.18L13,26.05l-.57-.2L12,25.7l-.41-.19L11,25.25l-.26-.16c-.22-.12-.43-.24-.64-.38L10,24.63A10.37,10.37,0,0,1,7.41,22l-.13-.17c-.12-.18-.22-.37-.33-.56L6.74,21l-.21-.44L6.29,20c0-.1-.07-.2-.1-.29S6,19.24,5.94,19c0,0,0-.06,0-.1A10.27,10.27,0,0,1,5.5,16h-2c0,.26,0,.52,0,.78s0,.29,0,.43.07.55.12.82,0,.26.06.39.12.53.19.79.06.27.1.4.17.48.26.73l.15.42c.1.23.21.45.31.66s.14.31.22.45.24.42.37.63a4.92,4.92,0,0,0,.26.43c.15.23.32.45.49.67s.15.21.24.31a12,12,0,0,0,.83.93c.3.29.61.57.92.83l.38.28c.2.15.4.31.6.45l.52.31c.17.1.35.22.53.31s.37.18.56.27l.55.26.56.2c.2.07.39.15.59.21s.39.1.59.15.39.11.59.14.49.08.73.12l.48.07c.41,0,.82.06,1.24.06S16.81,28.47,17.2,28.44Z"/><path class="cls-1" d="M17.2,28.44a9.47,9.47,0,0,1-2.16-2c-.31,0-.62-.08-.93-.13l-.13,0q-.36-.07-.72-.18L13,26.05l-.57-.2L12,25.7l-.41-.19L11,25.25l-.26-.16c-.22-.12-.43-.24-.64-.38L10,24.63A10.37,10.37,0,0,1,7.41,22l-.13-.17c-.12-.18-.22-.37-.33-.56L6.74,21l-.21-.44L6.29,20c0-.1-.07-.2-.1-.29S6,19.24,5.94,19c0,0,0-.06,0-.1A10.27,10.27,0,0,1,5.5,16h-2c0,.26,0,.52,0,.78s0,.29,0,.43.07.55.12.82,0,.26.06.39.12.53.19.79.06.27.1.4.17.48.26.73l.15.42c.1.23.21.45.31.66s.14.31.22.45.24.42.37.63a4.92,4.92,0,0,0,.26.43c.15.23.32.45.49.67s.15.21.24.31a12,12,0,0,0,.83.93c.3.29.61.57.92.83l.38.28c.2.15.4.31.6.45l.52.31c.17.1.35.22.53.31s.37.18.56.27l.55.26.56.2c.2.07.39.15.59.21s.39.1.59.15.39.11.59.14.49.08.73.12l.48.07c.41,0,.82.06,1.24.06S16.81,28.47,17.2,28.44Z"/><path class="cls-2" d="M27.73,20.27l.09-.24c0-.12.09-.23.13-.35.08-.29.15-.58.22-.88,0-.1.06-.2.08-.3.08-.4.14-.81.18-1.22a.49.49,0,0,0,0-.12c0-.36,0-.74.06-1.11,0-.15,0-.29,0-.44s0-.52,0-.77-.05-.4-.08-.59-.05-.4-.09-.6-.09-.43-.15-.65-.08-.35-.13-.52-.14-.43-.22-.64-.11-.34-.17-.5-.18-.41-.28-.61-.15-.33-.23-.49-.22-.39-.33-.58-.18-.31-.28-.46-.27-.39-.41-.58l-.29-.4c-.18-.22-.36-.42-.55-.63s-.15-.17-.22-.25L23.59,8.76c.08.08.15.18.23.26s.28.31.4.47a3.81,3.81,0,0,1,.24.32c.12.17.25.34.37.52s.11.2.17.29.24.4.34.61a2.4,2.4,0,0,1,.11.23c.12.23.22.47.32.71l.05.15c.1.27.2.55.28.83,0,0,0,0,0,.07.09.3.16.61.22.92h0A11.38,11.38,0,0,1,26.5,16a10.27,10.27,0,0,1-.42,2.9c0,.06,0,.12,0,.17v0A10.23,10.23,0,0,1,27.73,20.27Z"/><path class="cls-1" d="M27.73,20.27l.09-.24c0-.12.09-.23.13-.35.08-.29.15-.58.22-.88,0-.1.06-.2.08-.3.08-.4.14-.81.18-1.22a.49.49,0,0,0,0-.12c0-.36,0-.74.06-1.11,0-.15,0-.29,0-.44s0-.52,0-.77-.05-.4-.08-.59-.05-.4-.09-.6-.09-.43-.15-.65-.08-.35-.13-.52-.14-.43-.22-.64-.11-.34-.17-.5-.18-.41-.28-.61-.15-.33-.23-.49-.22-.39-.33-.58-.18-.31-.28-.46-.27-.39-.41-.58l-.29-.4c-.18-.22-.36-.42-.55-.63s-.15-.17-.22-.25L23.59,8.76c.08.08.15.18.23.26s.28.31.4.47a3.81,3.81,0,0,1,.24.32c.12.17.25.34.37.52s.11.2.17.29.24.4.34.61a2.4,2.4,0,0,1,.11.23c.12.23.22.47.32.71l.05.15c.1.27.2.55.28.83,0,0,0,0,0,.07.09.3.16.61.22.92h0A11.38,11.38,0,0,1,26.5,16a10.27,10.27,0,0,1-.42,2.9c0,.06,0,.12,0,.17v0A10.23,10.23,0,0,1,27.73,20.27Z"/><polygon class="cls-2" points="16.27 1.14 10.4 4.53 16.27 7.92 16.27 5.51 16.27 3.5 16.27 1.14"/><path class="cls-2" d="M22,25.8A1.79,1.79,0,0,0,23.8,24,1.71,1.71,0,0,0,22,22.3h-.5a1,1,0,0,1,.5.8.9.9,0,0,1-.9.9,1,1,0,0,1-.8-.5V24A1.71,1.71,0,0,0,22,25.8Z"/><path class="cls-2" d="M22,20c-3.3,0-6,3-6,4s2.7,4,6,4,6-3,6-4S25.3,20,22,20Zm0,7a3,3,0,1,1,3-3A2.95,2.95,0,0,1,22,27Z"/><path class="cls-3" d="M25,24a3,3,0,1,0-3,3A2.95,2.95,0,0,0,25,24Zm-4.7-.5a1,1,0,0,0,.8.5.9.9,0,0,0,.9-.9,1,1,0,0,0-.5-.8H22A1.71,1.71,0,0,1,23.8,24,1.79,1.79,0,0,1,22,25.8,1.71,1.71,0,0,1,20.3,24Z"/></svg>