<svg id="Layer_1" data-name="Layer 1" xmlns="http://www.w3.org/2000/svg" viewBox="0 0 32 32"><defs><style>.cls-1{fill:#c87e0e;}.cls-2{fill:#efbd10;}.cls-3{fill:#f6d751;}.cls-4{fill:#fff;}</style></defs><path class="cls-1" d="M26.8,4.55v22.9a1.06,1.06,0,0,1-1.05,1.05H19.24a1,1,0,0,1-1-1.05V4.55a1,1,0,0,1,1-1h6.51A1.08,1.08,0,0,1,26.8,4.55Z"/><path class="cls-2" d="M20.3,10.79V28.5H11.7V10.79a1,1,0,0,1,1.05-1h6.5A1,1,0,0,1,20.3,10.79Z"/><path class="cls-3" d="M5.2,17V27.45a1.06,1.06,0,0,0,1,1.05H13.8V17a1,1,0,0,0-1-1H6.25A1,1,0,0,0,5.2,17Z"/><path class="cls-4" d="M22,30c-4.26,0-8-3.73-8-6s3.74-6,8-6,8,3.74,8,6S26.26,30,22,30Z"/><path class="cls-1" d="M23.8,24A1.79,1.79,0,0,1,22,25.8,1.71,1.71,0,0,1,20.3,24v-.5a1,1,0,0,0,.8.5.9.9,0,0,0,.9-.9,1,1,0,0,0-.5-.8H22A1.71,1.71,0,0,1,23.8,24Z"/><path class="cls-1" d="M22,20c-3.3,0-6,3-6,4s2.7,4,6,4,6-3,6-4S25.3,20,22,20Zm0,7a3,3,0,1,1,3-3A2.95,2.95,0,0,1,22,27Z"/><path class="cls-4" d="M22,21a3,3,0,1,0,3,3A2.95,2.95,0,0,0,22,21Zm0,4.8A1.71,1.71,0,0,1,20.3,24v-.5a1,1,0,0,0,.8.5.9.9,0,0,0,.9-.9,1,1,0,0,0-.5-.8H22A1.71,1.71,0,0,1,23.8,24,1.79,1.79,0,0,1,22,25.8Z"/></svg>