<svg id="Layer_1" data-name="Layer 1" xmlns="http://www.w3.org/2000/svg" viewBox="0 0 32 32"><defs><style>.cls-1,.cls-4{fill:#05b497;}.cls-1{opacity:0.4;}.cls-2{fill:#777;}.cls-3{fill:#fff;}</style></defs><path class="cls-1" d="M26.00119,4.01654h-17a2,2,0,0,0-2,2V7.77441c.06415-.029.12494-.0639.18995-.09149a8.466,8.466,0,0,1,8.78155,1.33362c.1842.1554.36487.3158.5368.48767a8.56692,8.56692,0,0,1,1.19343,1.51233,8.18475,8.18475,0,0,1,1.27417,4c.00958.16547.02459.33008.02459.49695a8.28238,8.28238,0,0,1-1.30139,4.50122h8.3009a2,2,0,0,0,2-2V6.01654A2,2,0,0,0,26.00119,4.01654Z"/><path class="cls-2" d="M17.00172,15.51359a6.481,6.481,0,0,0-1.90662-4.59472,6.53262,6.53262,0,0,0-2.067-1.39453,6.50156,6.50156,0,0,0-5.05652,0,6.53829,6.53829,0,0,0-3.46112,3.46142,6.50016,6.50016,0,0,0,0,5.05567c.07385.1748.18084.3291.26916.4956L4.735,18.51652l4.92584,8.96973a.95859.95859,0,0,0,1.68042,0l4.92334-8.96973-.0437.02c.08825-.166.19519-.3208.269-.49511A6.46341,6.46341,0,0,0,17.00172,15.51359Z"/><circle class="cls-3" cx="10.50012" cy="15.51364" r="4.5011"/><path class="cls-2" d="M12.83453,14.51364H11.50122V13.18033a.66666.66666,0,0,0-.66669-.66669h-.66662a.66666.66666,0,0,0-.66669.66669v1.33331H8.16791a.66666.66666,0,0,0-.66669.66669V15.847a.66666.66666,0,0,0,.66669.66669H9.50122V17.847a.66666.66666,0,0,0,.66669.66669h.66662a.66666.66666,0,0,0,.66669-.66669V16.51364h1.33331a.66666.66666,0,0,0,.66669-.66669v-.66662A.66666.66666,0,0,0,12.83453,14.51364Z"/><path class="cls-4" d="M19,13h5v2H19Z"/><path class="cls-4" d="M19,9h5v2H19Z"/></svg>