<svg id="Layer_1" data-name="Layer 1" xmlns="http://www.w3.org/2000/svg" viewBox="0 0 32 32"><defs><style>.cls-1,.cls-2{fill:#00b050;}.cls-1{opacity:0.2;isolation:isolate;}</style></defs><path class="cls-1" d="M24.5,3.5H7.5a1,1,0,0,0-1,1v24h0c1.19,0,1.19-2,2.38-2s1.19,2,2.37,2h0c1.18,0,1.18-2,2.37-2s1.19,2,2.37,2h0c1.19,0,1.19-2,2.38-2s1.18,2,2.37,2h0c1.19,0,1.19-2,2.38-2s1.18,2,2.37,2h0V4.5A1,1,0,0,0,24.5,3.5Z"/><path class="cls-2" d="M22.65,19.81l-4.14-4.13a4.2,4.2,0,0,0-1.05-4.83,5.22,5.22,0,0,0-4.3-1.58,1.5,1.5,0,0,0-.63.14c-.18.14,0,.28.07.35l.8.81.35.35.42.42.63.63.18.17a.64.64,0,0,1,.14.49l-.46,1.65a.53.53,0,0,1-.14.24.64.64,0,0,1-.21.14l-1.68.42a.5.5,0,0,1-.49-.1L12,14.8l-.63-.63-.42-.42-.35-.35-.81-.8c-.07-.07-.21-.25-.35-.07a1.5,1.5,0,0,0-.14.63,5.22,5.22,0,0,0,1.58,4.3,4.2,4.2,0,0,0,4.83,1.05L19,21.84l.81.81a.34.34,0,0,0,.49,0l2.35-2.35A.34.34,0,0,0,22.65,19.81Z"/></svg>