<svg height="64" width="64" xmlns="http://www.w3.org/2000/svg">
  <g fill="#fff">
    <path d="M54 56H10c-1.1 0-2-.9-2-2V10c0-1.1.9-2 2-2h44c1 0 2 .9 2 2v44c0 1.1-1 2-2 2zM44 15c-1 0-1 .4-1 1v32c0 .6 0 1 1 1h2c1 0 1-.4 1-1V16c0-.6 0-1-1-1zm-13 0c-.6 0-1 .4-1 1v32c0 .6.4 1 1 1h2c.6 0 1-.4 1-1V16c0-.6-.4-1-1-1zm-13 0c-.6 0-1 .4-1 1v32c0 .6.4 1 1 1h2c.6 0 1-.4 1-1V16c0-.6-.4-1-1-1z" opacity=".6"/>
    <path d="M41 29h8c1 0 1 .4 1 1v4c0 .6 0 1-1 1h-8c-1 0-1-.4-1-1v-4c0-.6 0-1 1-1zM28 39h8c.6 0 1 .4 1 1v4c0 .6-.4 1-1 1h-8c-.6 0-1-.4-1-1v-4c0-.6.4-1 1-1zM15 19h8c.6 0 1 .4 1 1v4c0 .6-.4 1-1 1h-8c-.6 0-1-.4-1-1v-4c0-.6.4-1 1-1z"/>
  </g>
</svg>
