<?xml version="1.0" encoding="utf-8"?>
<!-- Generator: Adobe Illustrator 24.2.0, SVG Export Plug-In . SVG Version: 6.00 Build 0)  -->
<svg version="1.1" id="Layer_1" xmlns="http://www.w3.org/2000/svg" xmlns:xlink="http://www.w3.org/1999/xlink" x="0px" y="0px"
	 viewBox="0 0 64 64" style="enable-background:new 0 0 64 64;" xml:space="preserve">
<style type="text/css">
	.st0{fill:#005DED;}
	.st1{fill:#AA8A30;}
	.st2{fill:#1565C0;}
	.st3{fill:#D32F2F;}
	.st4{fill:#66BB6A;}
	.st5{fill:#0A4466;}
	.st6{fill:#8E24AA;}
	.st7{fill:#161616;}
	.st8{fill:#3E87CF;}
	.st9{fill:#E03C24;}
	.st10{fill:#9BC6F2;}
	.st11{fill:#777777;}
	.st12{fill:#2576C7;}
	.st13{fill:#FFFFFF;}
	.st14{opacity:0.6;fill:#2576C7;enable-background:new    ;}
	.st15{opacity:0.6;fill:#FFFFFF;enable-background:new    ;}
	.st16{opacity:0.6;fill:#FFFFFF;}
	.st17{fill:#FFE39D;}
	.st18{fill:#ED9C26;}
	.st19{opacity:0.4;fill:#0A4466;}
	.st20{opacity:0.4;fill:#00796B;}
	.st21{fill:#00796B;}
	.st22{fill:none;}
	.st23{fill:#690000;}
	.st24{fill:#A08165;}
	.st25{fill:#D8C4B3;}
	.st26{fill:#FFD4FF;}
	.st27{opacity:0.6;fill:none;stroke:#FFFFFF;stroke-width:4;stroke-linecap:round;stroke-miterlimit:10;}
	.st28{fill:#571B6D;}
	.st29{opacity:0.4;fill:#571B6D;}
	.st30{opacity:0.6;fill:#571B6D;}
	.st31{fill:#CA0821;}
	.st32{opacity:0.2;fill:#CA0821;enable-background:new    ;}
	.st33{fill:#CA0821;enable-background:new    ;}
	.st34{opacity:0.4;}
	.st35{opacity:0.6;fill:#CA0821;enable-background:new    ;}
	.st36{opacity:0.6;enable-background:new    ;}
	.st37{opacity:0.6;}
	.st38{opacity:0.6;fill:#3E87CF;}
	.st39{fill:#283593;}
	.st40{opacity:0.4;fill:#777777;}
	.st41{opacity:0.4;fill:#283593;}
	.st42{opacity:0.4;fill:#1565C0;}
	.st43{opacity:0.6;fill:#1565C0;}
	.st44{opacity:0.4;fill:#D32F2F;}
	.st45{opacity:0.4;fill:#66BB6A;}
	.st46{opacity:0.4;fill:#AA8A30;}
	.st47{opacity:0.4;fill:#777777;enable-background:new    ;}
	.st48{fill:#9F8165;}
	.st49{opacity:0.4;fill:#9F8165;}
	.st50{fill:#FF7600;}
	.st51{opacity:0.4;fill:#FF7600;}
	.st52{fill:#FBFAFD;}
	.st53{fill:#3606B7;}
	.st54{opacity:0.4;fill:#005DED;}
	.st55{fill:#FF7962;}
	.st56{opacity:0.4;fill:#FF7962;}
	.st57{opacity:0.4;fill:#3606B7;}
	.st58{opacity:0.4;fill:#FFFFFF;}
</style>
<g>
	<path class="st13" d="M8.9,57c-0.1-0.1-0.3-0.2-0.4-0.3c-0.7-0.5-0.9-1.4-0.5-2.1c0.1-0.3,0.3-0.5,0.5-0.8
		c4.8-7.2,9.5-14.3,14.3-21.5c0.4-0.6,0.4-0.6,0-1.3C17.9,24,13.1,17,8.3,9.9C8,9.5,7.7,9,7.8,8.5C7.9,7.6,8.6,7,9.5,7
		c4.5,0,9.1,0,13.6,0c1,0,1.7,0.5,2.2,1.3c2.1,3.2,4.2,6.4,6.4,9.5c2.7,4,5.4,8,8,12c0.9,1.3,0.9,2.1,0,3.4
		c-5.2,7.5-10.3,15-15.5,22.5c-0.4,0.6-0.9,0.9-1.5,1.2C18.1,57,13.5,57,8.9,57z"/>
	<path class="st58" d="M41.4,57c-0.9-0.3-1.4-0.9-1.9-1.7c-1.6-2.4-3.3-4.9-5-7.3c-0.5-0.7-0.5-0.7,0-1.5c2.5-3.7,5-7.3,7.6-11
		c0.5-0.7,0.8-0.7,1.3,0c4.3,6.4,8.5,12.8,12.8,19.2c0,0,0,0,0.1,0c0,0.3,0,0.6,0,1c-0.3,0.6-0.7,1-1.2,1.2C50.5,57,45.9,57,41.4,57
		z"/>
	<path class="st58" d="M56.2,9c-1.1,1.6-2.1,3.3-3.2,4.9c-2.3,3.4-4.6,6.7-7,10.1c-0.9,1.3-1.8,2.6-2.7,3.9c-0.5,0.7-0.7,0.7-1.2,0
		c-2.6-3.9-5.2-7.8-7.8-11.7c-0.3-0.5-0.3-0.8,0-1.2c1.5-2.2,3-4.4,4.5-6.7C39.4,7.4,40.1,7,41.1,7c4.4,0,8.8,0,13.2,0
		c1.1,0,1.6,0.6,1.9,1.5C56.2,8.7,56.2,8.8,56.2,9z"/>
</g>
</svg>
