<svg id="Layer_1" data-name="Layer 1" xmlns="http://www.w3.org/2000/svg" viewBox="0 0 24 24"><defs><style>.cls-1{fill:#1467ba;}</style></defs><path class="cls-1" d="M8.1,2a.44.44,0,0,1,.12.14l2,3L11,6.34l3.53,5.29a1.42,1.42,0,0,1,.12.2,2,2,0,0,1-.11.17l-1.91,2.79L7.75,21.9a.38.38,0,0,1-.09.09H2.57l4.55-6.82L8.77,12.7a1.29,1.29,0,0,0,0-1.69l-.7-1L2.58,2H8.1M5,1H2.12a.76.76,0,0,0-.76.64.9.9,0,0,0,.2.65l6.36,9.27c.2.29.2.29,0,.57Q4.8,16.86,1.64,21.58a3.7,3.7,0,0,0-.21.33.73.73,0,0,0,.22.94l.19.14h6.1a1.7,1.7,0,0,0,.64-.53l6.79-9.89a1.09,1.09,0,0,0,0-1.49l-3.52-5.3q-1.41-2.09-2.8-4.19a1.12,1.12,0,0,0-1-.58Z"/><path class="cls-1" d="M16.71,14.93l2.85,4.28L21.42,22h-5a1.13,1.13,0,0,1-.25-.29c-.49-.73-1-1.45-1.48-2.17l-.55-.81,2.61-3.79m0-1.61c-.09,0-.18.08-.28.24L13.11,18.4c-.22.32-.22.33,0,.64.74,1.07,1.48,2.14,2.2,3.21a1.68,1.68,0,0,0,.84.74h6a1.09,1.09,0,0,0,.54-.54V22a0,0,0,0,0,0,0L17,13.58c-.11-.17-.2-.26-.29-.26Z"/><path class="cls-1" d="M21.36,2c-.31.48-.62,1-.94,1.42l-2.2,3.21-.86,1.23-.23.34-.37.54-.63-1-2-3.06c.6-.88,1.18-1.77,1.77-2.66C15.91,2,15.91,2,16,2h5.37m.45-1H16a1.08,1.08,0,0,0-1,.52c-.65,1-1.3,2-2,2.93a.44.44,0,0,0,0,.55l3.44,5.14c.09.14.17.22.25.22s.16-.08.26-.22l1.18-1.71q1.53-2.22,3-4.45c.49-.7,1-1.42,1.41-2.13V1.69A.81.81,0,0,0,21.81,1Z"/></svg>