<svg id="Layer_1" data-name="Layer 1" xmlns="http://www.w3.org/2000/svg" viewBox="0 0 64 64"><defs><style>.cls-1,.cls-2,.cls-3{fill:#fff;}.cls-2{opacity:0.4;}.cls-3{opacity:0.6;isolation:isolate;}</style></defs><path class="cls-1" d="M21.51,43.35l-.2-.14a.77.77,0,0,1-.22-1,2.46,2.46,0,0,1,.22-.34l6.49-9.74c.2-.29.2-.29,0-.59L21.23,22a.89.89,0,0,1-.21-.66.79.79,0,0,1,.78-.67H28a1.16,1.16,0,0,1,1,.61l2.88,4.32c1.22,1.82,2.43,3.65,3.64,5.47a1.12,1.12,0,0,1,0,1.54l-7,10.21a1.87,1.87,0,0,1-.67.55Z"/><path class="cls-2" d="M36.27,43.35a1.77,1.77,0,0,1-.86-.76c-.75-1.12-1.51-2.21-2.27-3.32-.22-.33-.22-.33,0-.66l3.44-5c.23-.33.36-.32.59,0L43,42.33s0,0,0,0v.44a1.17,1.17,0,0,1-.56.56Z"/><path class="cls-1" d="M42.12,17.66a3.82,3.82,0,0,1,3.74,2.8,3,3,0,0,1,.14.89v.19a2.94,2.94,0,0,1-.5,1.65l-.43.67c-.35.53-.69,1.06-1,1.57-.13.19-.26.38-.38.57H53.5a2,2,0,0,0,2-2V10a2,2,0,0,0-2-2h-18a2,2,0,0,0-2,2v8.59a4.14,4.14,0,0,1,2.62-.92Z"/><path class="cls-3" d="M18.75,23.68a3.85,3.85,0,0,1-.69-2.85,3.78,3.78,0,0,1,3.74-3.18H28a4.09,4.09,0,0,1,2.53.89V10a2,2,0,0,0-2-2h-18a2,2,0,0,0-2,2V36a2,2,0,0,0,2,2h9.8l4.07-6.12Z"/><path class="cls-3" d="M39.59,31.87l.08.1,5.7,8.54A3,3,0,0,1,46,42.35v.44a3,3,0,0,1-.29,1.29,4.16,4.16,0,0,1-2,2,3,3,0,0,1-1.28.29H36.27a3,3,0,0,1-1-.18A4.61,4.61,0,0,1,33.5,45v9a2,2,0,0,0,2,2h18a2,2,0,0,0,2-2V31a2,2,0,0,0-2-2H41.57l-1.94,2.81Z"/><path class="cls-1" d="M27.8,46.35H21.51a3,3,0,0,1-1.73-.56l-.31-.21A3.74,3.74,0,0,1,18.37,41H10.5a2,2,0,0,0-2,2V54a2,2,0,0,0,2,2h18a2,2,0,0,0,2-2V45a5.06,5.06,0,0,1-1.27,1A3.09,3.09,0,0,1,27.8,46.35Z"/><path class="cls-2" d="M43,21.54c-.48.74-1,1.48-1.46,2.2-1,1.54-2.1,3.06-3.15,4.59L37.17,30.1c-.2.3-.33.3-.53,0L33.1,24.79a.43.43,0,0,1,0-.56l2-3a1.12,1.12,0,0,1,1-.53h6a.85.85,0,0,1,.87.69Z"/></svg>