<?xml version="1.0" encoding="utf-8"?>
<!-- Generator: Adobe Illustrator 24.2.0, SVG Export Plug-In . SVG Version: 6.00 Build 0)  -->
<svg version="1.1" id="Layer_1" xmlns="http://www.w3.org/2000/svg" xmlns:xlink="http://www.w3.org/1999/xlink" x="0px" y="0px"
	 viewBox="0 0 32 32" style="enable-background:new 0 0 32 32;" xml:space="preserve">
<style type="text/css">
	.st0{fill:#005DED;}
	.st1{fill:#AA8A30;}
	.st2{fill:#1565C0;}
	.st3{fill:#D32F2F;}
	.st4{fill:#66BB6A;}
	.st5{fill:#0A4466;}
	.st6{fill:#8E24AA;}
	.st7{fill:#161616;}
	.st8{fill:#3E87CF;}
	.st9{fill:#9BC6F2;}
	.st10{fill:#777777;}
	.st11{fill:#2576C7;}
	.st12{fill:#FFFFFF;}
	.st13{opacity:0.6;fill:#2576C7;enable-background:new    ;}
	.st14{opacity:0.6;fill:#FFFFFF;enable-background:new    ;}
	.st15{opacity:0.6;fill:#FFFFFF;}
	.st16{fill:#FFE39D;}
	.st17{fill:#ED9C26;}
	.st18{fill:#E03C24;}
	.st19{opacity:0.4;fill:#0A4466;}
	.st20{opacity:0.4;fill:#00796B;}
	.st21{fill:#00796B;}
	.st22{fill:none;}
	.st23{fill:#690000;}
	.st24{fill:#A08165;}
	.st25{fill:#D8C4B3;}
	.st26{fill:#FFD4FF;}
	.st27{opacity:0.6;fill:none;stroke:#FFFFFF;stroke-width:4;stroke-linecap:round;stroke-miterlimit:10;}
	.st28{fill:#571B6D;}
	.st29{opacity:0.4;fill:#571B6D;}
	.st30{opacity:0.6;fill:#571B6D;}
	.st31{fill:#CA0821;}
	.st32{opacity:0.2;fill:#CA0821;enable-background:new    ;}
	.st33{fill:#CA0821;enable-background:new    ;}
	.st34{opacity:0.4;}
	.st35{opacity:0.6;fill:#CA0821;enable-background:new    ;}
	.st36{opacity:0.6;enable-background:new    ;}
	.st37{opacity:0.6;}
	.st38{opacity:0.6;fill:#3E87CF;}
	.st39{fill:#283593;}
	.st40{opacity:0.4;fill:#777777;}
	.st41{opacity:0.4;fill:#283593;}
	.st42{opacity:0.4;fill:#1565C0;}
	.st43{opacity:0.6;fill:#1565C0;}
	.st44{opacity:0.4;fill:#D32F2F;}
	.st45{opacity:0.4;fill:#66BB6A;}
	.st46{opacity:0.4;fill:#AA8A30;}
	.st47{opacity:0.4;fill:#777777;enable-background:new    ;}
	.st48{fill:#9F8165;}
	.st49{opacity:0.4;fill:#9F8165;}
	.st50{fill:#FF7600;}
	.st51{opacity:0.4;fill:#FF7600;}
	.st52{fill:#FBFAFD;}
	.st53{fill:#3606B7;}
	.st54{opacity:0.4;fill:#005DED;}
	.st55{fill:#FF7962;}
	.st56{opacity:0.4;fill:#FF7962;}
	.st57{opacity:0.4;fill:#3606B7;}
	.st58{opacity:0.4;fill:#FFFFFF;}
	.st59{opacity:0.6;fill:#777777;}
</style>
<g>
	<path class="st10" d="M7.3,7l1.4,1.4c4.1-3.9,10.6-3.9,14.7,0.2c4.1,4.1,4.1,10.8,0,14.8c-4.1,4.1-10.8,4.1-14.8,0l-1.4,1.4
		c4.9,4.9,12.8,4.9,17.7,0c4.9-4.9,4.9-12.8,0-17.7C20,2.3,12.2,2.3,7.3,7z"/>
	<path class="st59" d="M16.2,3.5v2c5.7,0.1,10.3,4.8,10.3,10.5c0,5.8-4.7,10.5-10.5,10.5c-5.8,0-10.5-4.7-10.5-10.5h-2
		c0,6.9,5.6,12.5,12.5,12.5c6.9,0,12.5-5.6,12.5-12.5C28.5,9.2,23,3.6,16.2,3.5z"/>
	<polygon class="st10" points="3.9,11.9 10.5,10.1 5.7,5.3 	"/>
</g>
<g>
	<path class="st10" d="M11.3,21.1C11.3,21.1,11.2,21,11.3,21.1c-0.2-0.2-0.3-0.3-0.2-0.5c0-0.1,0.1-0.1,0.1-0.2
		c1-1.5,1.9-2.9,2.9-4.4c0.1-0.1,0.1-0.1,0-0.3c-1-1.4-2-2.9-2.9-4.3c-0.1-0.1-0.1-0.2-0.1-0.3c0-0.2,0.2-0.3,0.4-0.3
		c0.9,0,1.8,0,2.8,0c0.2,0,0.3,0.1,0.4,0.3c0.4,0.6,0.9,1.3,1.3,1.9c0.5,0.8,1.1,1.6,1.6,2.4c0.2,0.3,0.2,0.4,0,0.7
		c-1,1.5-2.1,3-3.1,4.6c-0.1,0.1-0.2,0.2-0.3,0.2C13.2,21.1,12.2,21.1,11.3,21.1z"/>
	<path class="st40" d="M17.9,21.1c-0.2-0.1-0.3-0.2-0.4-0.3c-0.3-0.5-0.7-1-1-1.5c-0.1-0.1-0.1-0.1,0-0.3c0.5-0.7,1-1.5,1.5-2.2
		c0.1-0.1,0.2-0.1,0.3,0c0.9,1.3,1.7,2.6,2.6,3.9c0,0,0,0,0,0c0,0.1,0,0.1,0,0.2c-0.1,0.1-0.1,0.2-0.3,0.3
		C19.8,21.1,18.8,21.1,17.9,21.1z"/>
	<path class="st40" d="M20.9,11.3c-0.2,0.3-0.4,0.7-0.7,1c-0.5,0.7-0.9,1.4-1.4,2.1c-0.2,0.3-0.4,0.5-0.5,0.8
		c-0.1,0.1-0.1,0.1-0.2,0c-0.5-0.8-1.1-1.6-1.6-2.4c-0.1-0.1-0.1-0.2,0-0.3c0.3-0.4,0.6-0.9,0.9-1.4c0.1-0.2,0.3-0.2,0.4-0.2
		c0.9,0,1.8,0,2.7,0C20.8,10.9,20.9,11,20.9,11.3C20.9,11.3,20.9,11.3,20.9,11.3z"/>
</g>
</svg>
