<svg id="Layer_1" data-name="Layer 1" xmlns="http://www.w3.org/2000/svg" viewBox="0 0 32 32"><defs><style>.cls-1{fill:#fff;}.cls-2,.cls-3{fill:#008ab2;}.cls-3{opacity:0.4;isolation:isolate;}</style></defs><circle class="cls-1" cx="22" cy="24" r="3"/><path class="cls-2" d="M22,22.3h-.5a1,1,0,0,1,.5.8.9.9,0,0,1-.9.9,1,1,0,0,1-.8-.5V24A1.71,1.71,0,0,0,22,25.8,1.79,1.79,0,0,0,23.8,24,1.71,1.71,0,0,0,22,22.3Z"/><path class="cls-2" d="M22,20c-3.3,0-6,3-6,4s2.7,4,6,4,6-3,6-4S25.3,20,22,20Zm0,7a3,3,0,1,1,3-3A2.95,2.95,0,0,1,22,27Z"/><path class="cls-3" d="M14,24a3.61,3.61,0,0,1,.58-1.77h-2.9V15h1v1.51H16v1H12.69v3.75h2.62a9.73,9.73,0,0,1,4.1-2.76H17.2v-3h5V18a8.28,8.28,0,0,1,2.9.64V10.72H19.36a1,1,0,0,1-1-1V4H7.84a1,1,0,0,0-1,1V27a1,1,0,0,0,1,1H16.6C15,26.76,14,25.18,14,24ZM9.67,10.7h5v3h-5Z"/><path class="cls-2" d="M20.32,9.28h4.8v-1L20.8,4h-1V8.8C19.84,9.09,19.84,9.28,20.32,9.28Z"/><rect class="cls-1" x="9.67" y="10.7" width="5.02" height="2.99"/><path class="cls-1" d="M17.2,15.47v3h2.21A7.76,7.76,0,0,1,22,18h.22V15.47Z"/><path class="cls-2" d="M12.69,17.47H16v-1H12.69V15h-1v7.28h2.9a8,8,0,0,1,.73-1H12.69Z"/></svg>