<svg id="Layer_1" data-name="Layer 1" xmlns="http://www.w3.org/2000/svg" viewBox="0 0 64 64"><defs><style>.cls-1,.cls-2{fill:#fff;}.cls-1{opacity:0.6;isolation:isolate;}.cls-3{fill:#008ab2;}</style></defs><path class="cls-1" d="M49,57H15a2.07,2.07,0,0,1-2-2V9a2.07,2.07,0,0,1,2-2H37V19a2.07,2.07,0,0,0,2,2H51V55A2.07,2.07,0,0,1,49,57Z"/><path class="cls-2" d="M40,7V17c0,.6,0,1,1,1H51V16L42,7Z"/><rect class="cls-2" x="18.82" y="20.96" width="10.46" height="6.22"/><rect class="cls-2" x="34.5" y="30.9" width="10.46" height="6.22"/><rect class="cls-2" x="34.5" y="40.82" width="10.46" height="6.22"/><polygon class="cls-3" points="32 35.05 32 32.96 25.1 32.96 25.1 29.81 23 29.81 23 44.98 32 44.98 32 42.88 25.1 42.88 25.1 35.05 32 35.05"/></svg>