<svg id="Layer_1" data-name="Layer 1" xmlns="http://www.w3.org/2000/svg" viewBox="0 0 64 64"><defs><style>.cls-1,.cls-2{fill:#fff;}.cls-1{opacity:0.6;isolation:isolate;}</style></defs><path class="cls-1" d="M50.97926,8.9999A1.99991,1.99991,0,0,0,48.97935,7H14.97926a2.0738,2.0738,0,0,0-2,2V55a2.0738,2.0738,0,0,0,2,2h34a2.0738,2.0738,0,0,0,2-2V8.9999Z"/><path class="cls-2" d="M44.48781,17.54882h-2.3623L41.244,22.42675,18.51223,23.60741,20.771,36.11815h18L38.12209,39.709a3.47064,3.47064,0,0,1,1.99335.21973l.6886-3.81055h.00018l2.26636-12.55224.00122-.00342.72559-4.01367h.69042a1,1,0,0,0,0-2ZM40.19247,28.251H37.14071l.37433-3.6272,3.36438-.17456Zm-10.40485,0H26.44594l-.31341-3.03687,3.65509-.1897Zm2-3.33008,3.7052-.19239L35.12929,28.251H31.78762Zm-2,5.33008v3.86718H27.05141L26.6523,30.251Zm2,0h3.13531l-.3991,3.86718H31.78762Zm5.14667,0h2.89679l-.69873,3.86718H36.53518ZM24.1318,25.31786l.30273,2.93311h-3.0517l-.49951-2.76465ZM21.74416,30.251H24.641l.39911,3.86718H22.44289Z"/><path class="cls-2" d="M38.69387,40.65136A2.89619,2.89619,0,0,0,35.983,42.55077H25.96627a2.90025,2.90025,0,1,0,.00012,2H35.98287a2.8955,2.8955,0,1,0,2.711-3.89941Zm-15.43945,3.7998a.8999.8999,0,1,1,.90039-.90039A.9019.9019,0,0,1,23.25442,44.45116Zm15.43945,0a.8999.8999,0,1,1,.90039-.90039A.90107.90107,0,0,1,38.69387,44.45116Z"/></svg>