<svg id="Layer_1" data-name="Layer 1" xmlns="http://www.w3.org/2000/svg" viewBox="0 0 32 32"><defs><style>.cls-1,.cls-2{fill:#ed9c26;}.cls-1{opacity:0.2;isolation:isolate;}.cls-3{fill:#fff;}</style></defs><path class="cls-1" d="M13.99476,23.99486c0-2.26074,3.73926-6,8-6A8.25827,8.25827,0,0,1,25.5,18.82274V4.5a1,1,0,0,0-.99994-1H7.5a1.03686,1.03686,0,0,0-1,1v23a1.03686,1.03686,0,0,0,1,1h9.79865C15.32612,27.207,13.99476,25.34105,13.99476,23.99486Z"/><path class="cls-2" d="M21.99507,22.2954h-.5a1.01931,1.01931,0,0,1,.5.7998.89616.89616,0,0,1-.9.89991,1.019,1.019,0,0,1-.8-.5v.5a1.71061,1.71061,0,0,0,1.7,1.80029,1.79275,1.79275,0,0,0,1.8-1.80029A1.71011,1.71011,0,0,0,21.99507,22.2954Z"/><path class="cls-2" d="M21.99507,19.99511c-3.3,0-6,3-6,4s2.7,4,6,4,6-3,6-4S25.29506,19.99511,21.99507,19.99511Zm0,7a3,3,0,1,1,3-3A2.94633,2.94633,0,0,1,21.99507,26.99511Z"/><path class="cls-3" d="M21.99507,20.99511a3,3,0,1,0,3,3A2.94662,2.94662,0,0,0,21.99507,20.99511Zm0,4.80029a1.71061,1.71061,0,0,1-1.7-1.80029v-.5a1.019,1.019,0,0,0,.8.5.89616.89616,0,0,0,.9-.89991,1.01931,1.01931,0,0,0-.5-.7998h.5a1.71011,1.71011,0,0,1,1.8,1.69971A1.79275,1.79275,0,0,1,21.99507,25.7954Z"/><path class="cls-2" d="M21.61689,9.5H20.55433l-.39648,2.19409-10.22455.531,1.016,5.62719h8.09625l-.14123.78174a8.83166,8.83166,0,0,1,.97436-.332l.0813-.44971H19.96l1.01941-5.64575.00055-.00171.32636-1.80517h.31054a.44983.44983,0,0,0,0-.89966ZM10.99983,13.0703l1.46112-.07593.13617,1.31934H11.2245Zm.70148,3.88233L11.387,15.21337H12.69l.17951,1.73926Zm3.30358,0H13.77412l-.17944-1.73926h1.41021Zm0-2.63892h-1.503l-.141-1.366,1.644-.0852Zm2.13031,2.63892H15.90449V15.21337h1.41022Zm.27234-2.63892H15.90449v-1.4978l1.66657-.08643Zm1.80054,2.63892H18.03987l.1795-1.73926h1.303Zm.47681-2.63892H18.31221l.16839-1.63159,1.51325-.07837Z"/><path class="cls-2" d="M12.0663,19.89135a1.30437,1.30437,0,1,0,1.21356,1.7539h1.682a8.32777,8.32777,0,0,1,.78528-.89966H13.2798A1.29734,1.29734,0,0,0,12.0663,19.89135Zm0,1.709a.40467.40467,0,1,1,.405-.405A.40567.40567,0,0,1,12.0663,21.60033Z"/></svg>