<svg id="Layer_1" data-name="Layer 1" xmlns="http://www.w3.org/2000/svg" viewBox="0 0 64 64"><defs><style>.cls-1,.cls-2{fill:#fff;}.cls-1{opacity:0.6;}</style></defs><circle class="cls-1" cx="15.06" cy="26.86" r="4.61" transform="translate(-5.77 4.18) rotate(-13.28)"/><path class="cls-1" d="M21.17,34.09A4.57,4.57,0,0,0,18.29,33c-.78,0-1.35.61-3.23.61S12.66,33,11.84,33A5.16,5.16,0,0,0,7,37.91V39.3c0,.76-.08,1.38.85,1.38h7.39A12.77,12.77,0,0,1,21.17,34.09Z"/><path class="cls-1" d="M57,39.3V37.91A5.16,5.16,0,0,0,52.16,33c-.77,0-1.34.61-3.22.61S46.54,33,45.71,33a4.57,4.57,0,0,0-2.88,1.09,12.79,12.79,0,0,1,5.94,6.59h7.39C57.05,40.68,57,40.06,57,39.3Z"/><circle class="cls-1" cx="48.94" cy="26.86" r="4.61"/><path class="cls-2" d="M32,32a8.88,8.88,0,1,0-8.87-8.87A8.89,8.89,0,0,0,32,32ZM18.1,49.75H45.91c1.71,0,1.62-1.18,1.62-2.66V44.42C47.53,40,43.36,35,38.21,35c-1.49,0-2.58,1.18-6.21,1.18S27.37,35,25.79,35c-5.15,0-9.32,5-9.32,9.46v2.67C16.47,48.57,16.32,49.75,18.1,49.75Z"/></svg>