<?xml version="1.0" encoding="utf-8"?>
<!-- Generator: Adobe Illustrator 24.2.0, SVG Export Plug-In . SVG Version: 6.00 Build 0)  -->
<svg version="1.1" id="Layer_1" xmlns="http://www.w3.org/2000/svg" xmlns:xlink="http://www.w3.org/1999/xlink" x="0px" y="0px"
	 viewBox="0 0 32 32" style="enable-background:new 0 0 32 32;" xml:space="preserve">
<style type="text/css">
	.st0{opacity:0.4;fill:#CC0017;}
	.st1{fill:#CC0017;}
</style>
<path class="st0" d="M21.2,18.2c0.5-0.9,0.8-2,0.8-3.2c0-3.9-3.1-7-7-7s-7,3.1-7,7c0,3.8,3,6.9,6.8,7C16,20.3,18.4,18.5,21.2,18.2z"
	/>
<path class="st1" d="M14,24v-0.1c-4.5-0.5-8-4.3-8-8.9c0-5,4-9,9-9s9,4,9,9c0,1.2-0.2,2.3-0.6,3.3c0.6,0.2,1.2,0.4,1.8,0.7
	c0.5-1.3,0.8-2.6,0.8-4c0-6.1-4.9-11-11-11S4,8.9,4,15c0,6,4.8,10.9,10.8,11C14.3,25.3,14,24.6,14,24z"/>
<path class="st1" d="M14.2,12.7l-1.9,0.9L12,12.2l2.4-1.2H16v8h-1.8V12.7z"/>
<g>
	<path class="st1" d="M22,22.2c-0.2,0-0.3,0.1-0.5,0.1c0.3,0.2,0.5,0.5,0.5,0.8c0,0.5-0.4,0.9-0.9,0.9c-0.3,0-0.6-0.2-0.8-0.5V24
		c0,1,0.7,1.7,1.7,1.7s1.8-0.7,1.8-1.7S23,22.2,22,22.2z"/>
	<path class="st1" d="M22,20c-3.3,0-6,3-6,4s2.7,4,6,4s6-3,6-4S25.3,20,22,20z M22,27c-1.7,0-3-1.3-3-3s1.3-3,3-3s3,1.3,3,3
		S23.7,27,22,27z"/>
</g>
</svg>
