<?xml version="1.0" encoding="utf-8"?>
<!-- Generator: Adobe Illustrator 24.2.0, SVG Export Plug-In . SVG Version: 6.00 Build 0)  -->
<svg version="1.1" id="Layer_1" xmlns="http://www.w3.org/2000/svg" xmlns:xlink="http://www.w3.org/1999/xlink" x="0px" y="0px"
	 viewBox="0 0 32 32" style="enable-background:new 0 0 32 32;" xml:space="preserve">
<style type="text/css">
	.st0{opacity:0.4;fill:#CC0017;}
	.st1{fill:#CC0017;}
</style>
<path class="st0" d="M16,8c-4.4,0-8,3.6-8,8s3.6,8,8,8s8-3.6,8-8S20.4,8,16,8z"/>
<g>
	<path class="st1" d="M16,4C9.4,4,4,9.4,4,16s5.4,12,12,12s12-5.4,12-12S22.6,4,16,4z M16,26c-5.5,0-10-4.5-10-10S10.5,6,16,6
		s10,4.5,10,10S21.5,26,16,26z"/>
	<path class="st1" d="M15.8,13.1l-2.2,1.1l-0.4-1.8l2.9-1.4H18v10h-2.2V13.1z"/>
</g>
</svg>
