<svg id="Layer_1" data-name="Layer 1" xmlns="http://www.w3.org/2000/svg" viewBox="0 0 64 64"><defs><style>.cls-1,.cls-2{fill:#fff;}.cls-1{opacity:0.6;isolation:isolate;}</style></defs><path class="cls-1" d="M49.00006,6.99984H15a2.07408,2.07408,0,0,0-2,2v48h.00116c2.37616-.00146,2.37671-4,4.75372-4s2.3775,3.99854,4.75366,4h.00232c2.37451-.00146,2.37506-4,4.75049-4,2.37329,0,2.37384,3.99854,4.74628,4H32.01c2.37213-.00146,2.37268-4,4.74566-4,2.37366,0,2.37421,3.99854,4.747,4h.00232c2.3728-.00146,2.37335-4,4.747-4s2.37414,3.99854,4.74695,4H51v-48A2,2,0,0,0,49.00006,6.99984Zm-4.2782,42.41993H19.27813V46.42563H44.72186Zm0-5.86524H19.27813V40.56015H44.72186Z"/><path class="cls-2" d="M40.00672,28.14041q-.695,7.64475-7.15248,7.64475-6.31272,0-7.2683-8.51347H23.99328V25.59216h1.44787V22.55163H23.99328V20.8721h1.59266q.89766-8.65827,7.2683-8.65827a6.46353,6.46353,0,0,1,4.86484,1.88224,8.97976,8.97976,0,0,1,2.28764,5.35711H36.99515a7.11747,7.11747,0,0,0-1.332-3.61967,3.46075,3.46075,0,0,0-2.80887-1.30309q-3.56176,0-4.22778,6.34167h4.72006l-.46332,1.67953H28.48168v3.04053H31.9276l-.46332,1.67953H28.62646q.666,6.22584,4.22778,6.22584,3.61968,0,4.14091-5.35711Z"/></svg>