<svg id="Layer_1" data-name="Layer 1" xmlns="http://www.w3.org/2000/svg" viewBox="0 0 32 32"><defs><style>.cls-1{opacity:0.2;}.cls-2,.cls-3{fill:#00b050;}.cls-2{isolation:isolate;}</style></defs><g class="cls-1"><path class="cls-2" d="M24.5,3.5H7.5a1.037,1.037,0,0,0-1,1v24h.00058c1.18808-.00073,1.18835-2,2.37686-2s1.18875,1.99927,2.37683,2h.00116c1.18726-.00073,1.18753-2,2.37525-2,1.18664,0,1.18692,1.99927,2.37313,2H16.005c1.18607-.00073,1.18634-2,2.37284-2,1.18683,0,1.1871,1.99927,2.3735,2h.00116c1.1864-.00073,1.18668-2,2.37348-2s1.18707,1.99927,2.37347,2H25.5V4.5A1,1,0,0,0,24.5,3.5Zm-2.1391,21.21H9.63907V23.21289H22.36093Zm0-2.93262H9.63907V20.28015H22.36093Z"/></g><path class="cls-3" d="M20.00336,14.07028q-.34749,3.82237-3.57624,3.82238-3.15636,0-3.63415-4.25674h-.79633v-.83976h.72394V11.27589h-.72394v-.83976H12.793Q13.2418,6.107,16.42712,6.107a3.23179,3.23179,0,0,1,2.43242.94112,4.48988,4.48988,0,0,1,1.14382,2.67856H18.49757a3.55871,3.55871,0,0,0-.666-1.80984,1.73038,1.73038,0,0,0-1.40444-.65154q-1.78087,0-2.11389,3.17083h2.36l-.23166.83977H14.24084v1.52026h1.723l-.23166.83977H14.31323q.333,3.11292,2.11389,3.11292,1.80984,0,2.07045-2.67856Z"/></svg>