<svg id="Layer_1" data-name="Layer 1" xmlns="http://www.w3.org/2000/svg" viewBox="0 0 32 32"><defs><style>.cls-1{fill:none;}.cls-2,.cls-3{fill:#00b050;}.cls-2{opacity:0.2;isolation:isolate;}.cls-4{fill:#fff;}</style></defs><path class="cls-1" d="M9.639,21.77719h5.23169A8.56045,8.56045,0,0,1,16.248,20.28012H9.639Z"/><path class="cls-1" d="M9.639,24.70981h4.473a2.66847,2.66847,0,0,1-.11724-.71485,2.71689,2.71689,0,0,1,.13531-.78222H9.639Z"/><path class="cls-2" d="M14.112,24.70981H9.639V23.21274h4.491a5.1485,5.1485,0,0,1,.74066-1.43555H9.639V20.28012h6.609A9.01137,9.01137,0,0,1,21.99476,17.995,8.25806,8.25806,0,0,1,25.5,18.8226V4.49984a1,1,0,0,0-1-1H7.5a1.037,1.037,0,0,0-1,1v24h.00055c1.18811-.00048,1.18836-2,2.3769-2s1.18872,1.99952,2.37683,2h.00116c1.18725-.00048,1.1875-2,2.37524-2,1.18665,0,1.18689,1.99952,2.37311,2H16.005a.98119.98119,0,0,0,.75574-.37744A7.20126,7.20126,0,0,1,14.112,24.70981ZM11.99665,12.79623h.72394V11.276h-.72394v-.83985H12.793q.4488-4.329,3.63416-4.3291a3.23174,3.23174,0,0,1,2.43243.94116,4.49,4.49,0,0,1,1.1438,2.67847h-1.5058a3.55825,3.55825,0,0,0-.666-1.80981,1.73045,1.73045,0,0,0-1.40442-.65161q-1.78089,0-2.11389,3.17089h2.36l-.23169.8396H14.24085v1.52051h1.723l-.23169.8396H14.31324q.333,3.11316,2.11389,3.113,1.80981,0,2.07043-2.67871h1.5058q-.34754,3.82251-3.57623,3.82251-3.15637,0-3.63416-4.25684h-.79632Z"/><path class="cls-3" d="M16.42713,17.89267q3.22869,0,3.57623-3.82251h-1.5058Q18.237,16.749,16.42713,16.74887q-1.78089,0-2.11389-3.113h1.41888l.23169-.8396h-1.723V11.27572h2.20074l.23169-.8396h-2.36q.333-3.171,2.11389-3.17089a1.73045,1.73045,0,0,1,1.40442.65161,3.55825,3.55825,0,0,1,.666,1.80981h1.5058a4.49,4.49,0,0,0-1.1438-2.67847A3.23174,3.23174,0,0,0,16.42713,6.107q-3.18531,0-3.63416,4.3291h-.79632V11.276h.72394v1.52026h-.72394v.8396H12.793Q13.2708,17.89267,16.42713,17.89267Z"/><path class="cls-3" d="M23.79507,23.99522a1.79254,1.79254,0,0,1-1.8,1.8,1.71041,1.71041,0,0,1-1.7-1.8v-.5a1.01965,1.01965,0,0,0,.80005.5.89615.89615,0,0,0,.9-.8999,1.01973,1.01973,0,0,0-.5-.80005h.5A1.7103,1.7103,0,0,1,23.79507,23.99522Z"/><path class="cls-3" d="M21.99509,19.99522c-3.3,0-6,3-6,4s2.7,4,6,4,6-3,6-4S25.29507,19.99522,21.99509,19.99522Zm0,7a3,3,0,1,1,3-3A2.94632,2.94632,0,0,1,21.99509,26.99522Z"/><path class="cls-4" d="M21.99509,20.99522a3,3,0,1,0,3,3A2.94647,2.94647,0,0,0,21.99509,20.99522Zm0,4.8a1.71041,1.71041,0,0,1-1.7-1.8v-.5a1.01965,1.01965,0,0,0,.80005.5.89615.89615,0,0,0,.9-.8999,1.01973,1.01973,0,0,0-.5-.80005h.5a1.7103,1.7103,0,0,1,1.8,1.7A1.79254,1.79254,0,0,1,21.99509,25.79527Z"/></svg>