<?xml version="1.0" encoding="utf-8"?>
<!-- Generator: Adobe Illustrator 24.2.0, SVG Export Plug-In . SVG Version: 6.00 Build 0)  -->
<svg version="1.1" id="Layer_1" xmlns="http://www.w3.org/2000/svg" xmlns:xlink="http://www.w3.org/1999/xlink" x="0px" y="0px"
	 viewBox="0 0 16 16" style="enable-background:new 0 0 16 16;" xml:space="preserve">
<style type="text/css">
	.st0{fill:none;stroke:#959595;}
</style>
<path class="st0" d="M1,0.5h4.3c0.2,0,0.3,0.1,0.4,0.2l1.2,1.6C7,2.4,7.1,2.5,7.3,2.5H15c0.3,0,0.5,0.2,0.5,0.5v12
	c0,0.3-0.2,0.5-0.5,0.5H1c-0.3,0-0.5-0.2-0.5-0.5V1C0.5,0.7,0.7,0.5,1,0.5z"/>
<path class="st0" d="M0.5,14.5V7.9c0-1,0.8-1.9,1.9-1.9h11.3c1,0,1.9,0.8,1.9,1.9v6.6"/>
</svg>
