<svg id="Layer_1" data-name="Layer 1" xmlns="http://www.w3.org/2000/svg" viewBox="0 0 64 64"><defs><style>.cls-1,.cls-3{fill:#fff;}.cls-2{fill:none;}.cls-3{opacity:0.6;}</style></defs><path class="cls-1" d="M54.31,19.42A31.43,31.43,0,0,1,48,16C44.47,13.34,38,7,32,7s-12.47,6.34-16,9a31.43,31.43,0,0,1-6.29,3.47,1.31,1.31,0,0,0-.49,2.06L15,26.41a46.84,46.84,0,0,1,17-2.92,46.84,46.84,0,0,1,17,2.92l5.76-4.93A1.31,1.31,0,0,0,54.31,19.42Zm-14-3.72-4.2,3.16a1.51,1.51,0,0,1-.87.29H33.84a1.84,1.84,0,0,1-3.68,0H28.73a1.51,1.51,0,0,1-.87-.29l-4.2-3.16a.24.24,0,0,1,.18-.44l5.65.81a1.44,1.44,0,0,1,1.15.94l.2.57a1.85,1.85,0,0,1,2.32,0l.2-.57a1.44,1.44,0,0,1,1.15-.94l5.65-.81A.24.24,0,0,1,40.34,15.7Z"/><path class="cls-2" d="M40.16,15.26l-5.65.81a1.44,1.44,0,0,0-1.15.94l-.2.57a1.85,1.85,0,0,0-2.32,0l-.2-.57a1.44,1.44,0,0,0-1.15-.94l-5.65-.81a.24.24,0,0,0-.18.44l4.2,3.16a1.51,1.51,0,0,0,.87.29h1.43a1.84,1.84,0,0,0,3.68,0h1.43a1.51,1.51,0,0,0,.87-.29l4.2-3.16A.24.24,0,0,0,40.16,15.26Z"/><path class="cls-3" d="M48.09,31.58l-.26.18A38.37,38.37,0,0,1,32,35.81a38.37,38.37,0,0,1-15.83-4.05l-.26-.18c-.83.3-2,1.32-2,4.68,0,5.26,3.42,5.05,3.42,5.05S21.42,57,32,57,46.65,41.31,46.65,41.31s3.42.21,3.42-5.05C50.07,32.9,48.92,31.88,48.09,31.58ZM25.54,42.82a2.9,2.9,0,1,1,2.9-2.9A2.9,2.9,0,0,1,25.54,42.82Zm12.92,0a2.9,2.9,0,1,1,2.9-2.9A2.9,2.9,0,0,1,38.46,42.82Z"/><path class="cls-2" d="M25.54,37a2.9,2.9,0,1,0,2.9,2.9A2.9,2.9,0,0,0,25.54,37Z"/><path class="cls-2" d="M38.46,37a2.9,2.9,0,1,0,2.9,2.9A2.9,2.9,0,0,0,38.46,37Z"/><path class="cls-3" d="M14.85,25l.26,3.26H48.89L49.15,25A54.29,54.29,0,0,0,32,21.93,54.29,54.29,0,0,0,14.85,25Z"/><path class="cls-1" d="M48.89,28.28C46.08,27,32,26.41,32,26.41s-14.08.6-16.89,1.87c-.4.59-1.06,2,.8,3.3l.26.18A38.37,38.37,0,0,0,32,35.81a38.37,38.37,0,0,0,15.83-4.05l.26-.18C50,30.32,49.29,28.87,48.89,28.28Z"/></svg>