<svg id="Layer_1" data-name="Layer 1" xmlns="http://www.w3.org/2000/svg" viewBox="0 0 64 64"><defs><style>.cls-1,.cls-2{fill:#fff;}.cls-2{opacity:0.6;isolation:isolate;}</style></defs><path class="cls-1" d="M53.5,8h-18a2,2,0,0,0-2,2v8.08A14,14,0,0,1,44.63,26H53.5a2,2,0,0,0,2-2V10A2,2,0,0,0,53.5,8Z"/><path class="cls-2" d="M53.5,29H45.67A14,14,0,0,1,33.5,45.92V54a2,2,0,0,0,2,2h18a2,2,0,0,0,2-2V31A2,2,0,0,0,53.5,29Z"/><path class="cls-2" d="M10.5,38h8.87A13.87,13.87,0,0,1,18,32,14,14,0,0,1,30.5,18.08V10a2,2,0,0,0-2-2h-18a2,2,0,0,0-2,2V36A2,2,0,0,0,10.5,38Z"/><path class="cls-1" d="M21.29,41H10.5a2,2,0,0,0-2,2V54a2,2,0,0,0,2,2h18a2,2,0,0,0,2-2V45.92A14,14,0,0,1,21.29,41Z"/><path class="cls-1" d="M43,32A11,11,0,1,0,32,43,11,11,0,0,0,43,32ZM32.52,30.15l-.27,1h-2.6v1.8h2l-.27,1H29.73c.27,2.46,1.1,3.68,2.5,3.68s2.24-1,2.45-3.16h1.78c-.28,3-1.68,4.51-4.23,4.51s-3.92-1.67-4.29-5H27v-1h.86v-1.8H27v-1h1Q28.46,25,32.23,25a3.84,3.84,0,0,1,2.88,1.12,5.28,5.28,0,0,1,1.35,3.16H34.68a4.31,4.31,0,0,0-.79-2.14,2,2,0,0,0-1.66-.77q-2.1,0-2.5,3.75Z"/></svg>