<svg id="Layer_1" data-name="Layer 1" xmlns="http://www.w3.org/2000/svg" viewBox="0 0 64 64"><defs><style>.cls-1,.cls-2{fill:#fff;}.cls-2{opacity:0.6;isolation:isolate;}</style></defs><path class="cls-1" d="M44.63,26H53.5a2,2,0,0,0,2-2V10a2,2,0,0,0-2-2h-18a2,2,0,0,0-2,2v8.08A14,14,0,0,1,44.63,26Z"/><path class="cls-2" d="M33.5,45.92V54a2,2,0,0,0,2,2h18a2,2,0,0,0,2-2V31a2,2,0,0,0-2-2H45.67A14,14,0,0,1,33.5,45.92Z"/><path class="cls-2" d="M30.5,18.08V10a2,2,0,0,0-2-2h-18a2,2,0,0,0-2,2V36a2,2,0,0,0,2,2h8.87A13.87,13.87,0,0,1,18,32,14,14,0,0,1,30.5,18.08Z"/><path class="cls-1" d="M21.29,41H10.5a2,2,0,0,0-2,2V54a2,2,0,0,0,2,2h18a2,2,0,0,0,2-2V45.92A14,14,0,0,1,21.29,41Z"/><path class="cls-1" d="M32,21A11,11,0,1,0,43,32,11,11,0,0,0,32,21Zm0,5a3,3,0,1,1-3,3A2.95,2.95,0,0,1,32,26Zm5,11.1c0,.5,0,.9-.5.9h-9c-.5,0-.5-.4-.5-.9v-.9A3.25,3.25,0,0,1,30,33c.5,0,.8.4,2,.4s1.5-.4,2-.4a3.25,3.25,0,0,1,3,3.2Z"/></svg>