<svg id="Layer_1" data-name="Layer 1" xmlns="http://www.w3.org/2000/svg" viewBox="0 0 64 64"><defs><style>.cls-1,.cls-2,.cls-4{fill:#fff;}.cls-1{opacity:0.6;isolation:isolate;}.cls-3{opacity:0.6;}.cls-4{font-size:12px;font-family:MyriadPro-Bold, Myriad Pro;font-weight:700;}</style></defs><path class="cls-1" d="M46.81,41.08A3.86,3.86,0,0,1,43,44.94H33.5V54a2,2,0,0,0,2,2h18a2,2,0,0,0,2-2V31a2,2,0,0,0-2-2H46.81V41.08Z"/><path class="cls-2" d="M17.19,41.08V41H10.5a2,2,0,0,0-2,2V54a2,2,0,0,0,2,2h18a2,2,0,0,0,2-2V44.94H21A3.86,3.86,0,0,1,17.19,41.08Z"/><path class="cls-1" d="M17.19,24.74V22.92A3.86,3.86,0,0,1,21,19.06H30.5V10a2,2,0,0,0-2-2h-18a2,2,0,0,0-2,2V36a2,2,0,0,0,2,2h6.69V24.74Z"/><path class="cls-2" d="M46.81,22.92V26H53.5a2,2,0,0,0,2-2V10a2,2,0,0,0-2-2h-18a2,2,0,0,0-2,2v9.06H43A3.86,3.86,0,0,1,46.81,22.92Z"/><g class="cls-3"><path class="cls-2" d="M43,41.94H21a.85.85,0,0,1-.85-.86V26.33H43.81V41.08A.85.85,0,0,1,43,41.94Z"/></g><path class="cls-2" d="M43,22.06H21a.85.85,0,0,0-.85.86v3.41H43.81V22.92A.85.85,0,0,0,43,22.06Zm-7.2,3a.89.89,0,1,1,0-1.77.89.89,0,0,1,0,1.77Zm2.85,0a.89.89,0,1,1,.89-.89A.89.89,0,0,1,38.61,25.08Zm2.86,0a.89.89,0,1,1,.89-.89A.88.88,0,0,1,41.47,25.08Z"/><text class="cls-4" transform="translate(27 38)">IT</text></svg>