<svg id="Layer_1" data-name="Layer 1" xmlns="http://www.w3.org/2000/svg" viewBox="0 0 32 32"><defs><style>.cls-1,.cls-2,.cls-3{fill:#571b6d;}.cls-1{opacity:0.4;}.cls-3{opacity:0.6;}</style></defs><path class="cls-1" d="M10.62,15.33v5.6a.48.48,0,0,0,.45.45h9.86a.48.48,0,0,0,.45-.45v-5.6ZM20.26,20c0,.14,0,.23-.23.23H17.57c-.23,0-.23-.09-.23-.23V18.69c0-.14,0-.23.23-.23H20c.23,0,.23.09.23.23Z"/><path class="cls-2" d="M12.19,10.62h3.59v4H10.62s1.12-3.45,1.12-3.58C12,10.69,12,10.62,12.19,10.62Zm7.62,0H16.22v4h5.16s-1.12-3.45-1.12-3.58C20,10.69,20,10.62,19.81,10.62Z"/><path class="cls-2" d="M7.68,7.35,9.05,8.71a10.08,10.08,0,1,1-.18,14.42L7.51,24.48A12,12,0,1,0,7.68,7.35Z"/><path class="cls-3" d="M16.24,4V5.93A10.08,10.08,0,1,1,5.92,16H4A12,12,0,1,0,16.24,4Z"/><polygon class="cls-2" points="4.41 12.02 10.7 10.33 6.09 5.73 4.41 12.02"/></svg>