<svg id="Layer_1" data-name="Layer 1" xmlns="http://www.w3.org/2000/svg" viewBox="0 0 32 32"><defs><style>.cls-1,.cls-2,.cls-3{fill:#571b6d;}.cls-1{opacity:0.4;}.cls-3{opacity:0.6;}.cls-4{fill:#fff;}</style></defs><path class="cls-1" d="M10.62,20.93a.48.48,0,0,0,.45.45h4.12a9.56,9.56,0,0,1,2.15-1.91v-.78c0-.14,0-.23.23-.23h1.82a8.31,8.31,0,0,1,2-.43v-2.7H10.62Z"/><path class="cls-2" d="M20.26,11.07c-.23-.38-.23-.45-.45-.45H16.22v4h5.16S20.26,11.2,20.26,11.07Z"/><path class="cls-2" d="M12.19,10.62c-.22,0-.22.07-.45.45,0,.13-1.12,3.58-1.12,3.58h5.16v-4Z"/><path class="cls-2" d="M14.71,26l-.45-.06.46.07Z"/><path class="cls-2" d="M15.76,28c-.32,0-.64,0-1,0C15.12,28,15.44,28,15.76,28Z"/><path class="cls-2" d="M16.56,28h0Z"/><path class="cls-2" d="M24.48,7.51l-.27-.24.31.28A.08.08,0,0,1,24.48,7.51Z"/><path class="cls-2" d="M7.51,24.48c.19.19.38.35.57.52l-.57-.52Z"/><path class="cls-2" d="M25.93,17.65l.06-.39Z"/><path class="cls-2" d="M25.66,13.15a10.2,10.2,0,0,1,.4,3.1c0-.08,0-.16,0-.25A9.92,9.92,0,0,0,25.66,13.15Z"/><polygon class="cls-2" points="25.65 18.89 25.65 18.89 25.65 18.88 25.65 18.89"/><path class="cls-3" d="M16.24,4h0l.31,0Z"/><path class="cls-3" d="M27.32,19.94c.06-.16.12-.32.17-.48,0,.16-.11.32-.17.48Z"/><path class="cls-3" d="M28,16.76c0-.25,0-.5,0-.76s0-.69-.05-1A11.75,11.75,0,0,1,28,16.76Z"/><path class="cls-3" d="M9,23.24A10,10,0,0,1,5.92,16H4a12,12,0,0,0,3.51,8.48l1.36-1.35Z"/><path class="cls-3" d="M9.12,23.35a10.57,10.57,0,0,0,2,1.47A10.81,10.81,0,0,1,9.12,23.35Z"/><path class="cls-3" d="M22.63,8.42a11.08,11.08,0,0,0-.88-.69A9.9,9.9,0,0,1,22.63,8.42Z"/><path class="cls-3" d="M24.14,10.09c-.12-.17-.26-.33-.39-.5C23.88,9.75,24,9.91,24.14,10.09Z"/><path class="cls-3" d="M22.7,8.49c.22.19.43.41.64.62a2.41,2.41,0,0,1-.21-.24C23,8.73,22.84,8.61,22.7,8.49Z"/><path class="cls-2" d="M14.72,26l-.46-.07-.21,0c-.2,0-.4-.1-.6-.15l-.37-.1c-.15,0-.3-.1-.45-.15l-.51-.19-.27-.12-.64-.31-.08-.05a10.57,10.57,0,0,1-2-1.47L9,23.24l-.13-.11L7.51,24.48l.57.52.3.26a7.62,7.62,0,0,0,.64.48,3.4,3.4,0,0,0,.3.23l.67.4.33.2c.22.12.45.22.68.33l.39.18c.21.09.44.16.66.24l.45.16.67.17.47.11a7.18,7.18,0,0,0,.79.12l.37.06c.32,0,.64,0,1,0H16c.17,0,.33,0,.49,0h.07A8.45,8.45,0,0,1,14.72,26Z"/><path class="cls-3" d="M14.72,26l-.46-.07-.21,0c-.2,0-.4-.1-.6-.15l-.37-.1c-.15,0-.3-.1-.45-.15l-.51-.19-.27-.12-.64-.31-.08-.05a10.57,10.57,0,0,1-2-1.47L9,23.24l-.13-.11L7.51,24.48l.57.52.3.26a7.62,7.62,0,0,0,.64.48,3.4,3.4,0,0,0,.3.23l.67.4.33.2c.22.12.45.22.68.33l.39.18c.21.09.44.16.66.24l.45.16.67.17.47.11a7.18,7.18,0,0,0,.79.12l.37.06c.32,0,.64,0,1,0H16c.17,0,.33,0,.49,0h.07A8.45,8.45,0,0,1,14.72,26Z"/><path class="cls-2" d="M16.58,6l.58,0c.13,0,.26,0,.38.06l.6.1.32.08c.22,0,.43.11.64.18l.24.08.69.27.14.07a7.45,7.45,0,0,1,.75.37l.06,0a6.88,6.88,0,0,1,.76.48h0a11.08,11.08,0,0,1,.88.69l.07.07c.14.12.29.24.43.38a2.41,2.41,0,0,0,.21.24l.41.48c.13.17.27.33.39.5a7.66,7.66,0,0,1,.67,1l.09.14c.07.14.13.27.19.41s.17.33.24.5l.06.18c.1.26.19.52.27.79A9.92,9.92,0,0,1,26.08,16c0,.09,0,.17,0,.25,0,.34,0,.68-.07,1l-.06.39a10.48,10.48,0,0,1-.25,1.14l0,.09h0a10,10,0,0,1,1.67,1.05c.06-.16.12-.32.17-.48l.09-.37c.07-.26.14-.51.19-.77l.06-.37c0-.26.09-.52.11-.79s0-.26,0-.4A11.75,11.75,0,0,0,28,15a.53.53,0,0,0,0-.13c0-.32-.08-.63-.13-.93a1.85,1.85,0,0,0,0-.23c-.05-.29-.13-.59-.21-.88l-.06-.25c-.09-.28-.19-.54-.29-.81,0-.1-.07-.2-.1-.3s-.23-.5-.35-.74l-.15-.32q-.21-.39-.45-.75L26,9.38c-.22-.32-.45-.64-.7-1l-.07-.08c-.23-.27-.47-.54-.72-.8l-.31-.28c-.18-.18-.37-.35-.55-.51l-.46-.34-.46-.35c-.18-.12-.36-.22-.55-.33s-.29-.19-.44-.27l-.58-.29L20.71,5c-.2-.09-.4-.16-.6-.23l-.49-.18L19,4.39c-.17,0-.33-.09-.5-.12s-.45-.08-.68-.12l-.46-.07c-.27,0-.54,0-.81,0l-.31,0V5.93Z"/><path class="cls-2" d="M28,15a.53.53,0,0,0,0-.13c0-.32-.08-.63-.13-.93a1.85,1.85,0,0,0,0-.23c-.05-.29-.13-.59-.21-.88l-.06-.25c-.09-.28-.19-.54-.29-.81,0-.1-.07-.2-.1-.3s-.23-.5-.35-.74l-.15-.32q-.21-.39-.45-.75L26,9.38c-.22-.32-.45-.64-.7-1l-.07-.08c-.23-.27-.47-.54-.72-.8l-.31-.28c-.18-.18-.37-.35-.55-.51l-.46-.34-.46-.35c-.18-.12-.36-.22-.55-.33s-.29-.19-.44-.27l-.58-.29L20.71,5c-.2-.09-.4-.16-.6-.23l-.49-.18L19,4.39c-.17,0-.33-.09-.5-.12s-.45-.08-.68-.12l-.46-.07c-.27,0-.54,0-.81,0l-.31,0A11.93,11.93,0,0,0,7.7,7.34L6.09,5.73,4.41,12l6.29-1.69L9.06,8.7A10,10,0,0,1,16.58,6l.58,0c.13,0,.26,0,.38.06l.6.1.32.08c.22,0,.43.11.64.18l.24.08.69.27.14.07a7.45,7.45,0,0,1,.75.37l.06,0a6.88,6.88,0,0,1,.76.48h0a11.08,11.08,0,0,1,.88.69l.07.07c.14.12.29.24.43.38a2.41,2.41,0,0,0,.21.24l.41.48c.13.17.27.33.39.5a7.66,7.66,0,0,1,.67,1l.09.14c.07.14.13.27.19.41s.17.33.24.5l.06.18c.1.26.19.52.27.79A9.92,9.92,0,0,1,26.08,16c0,.09,0,.17,0,.25,0,.34,0,.68-.07,1l-.06.39a10.48,10.48,0,0,1-.25,1.14l0,.09h0a10,10,0,0,1,1.67,1.05c.06-.16.12-.32.17-.48l.09-.37c.07-.26.14-.51.19-.77l.06-.37c0-.26.09-.52.11-.79s0-.26,0-.4A11.75,11.75,0,0,0,28,15Z"/><path class="cls-4" d="M22,21a3,3,0,0,0-3,3A3,3,0,0,1,22,21Z"/><path class="cls-4" d="M22,27a3,3,0,0,0,3-3A3,3,0,0,1,22,27Z"/><path class="cls-4" d="M19,24a3,3,0,0,0,3,3A3,3,0,0,1,19,24Z"/><path class="cls-4" d="M22,21a3,3,0,0,1,3,3A3,3,0,0,0,22,21Z"/><path class="cls-4" d="M22,21a3,3,0,1,0,3,3A3,3,0,0,0,22,21Zm0,4.8A1.71,1.71,0,0,1,20.3,24v-.5a1,1,0,0,0,.8.5.9.9,0,0,0,.9-.9,1,1,0,0,0-.5-.8H22A1.71,1.71,0,0,1,23.8,24,1.79,1.79,0,0,1,22,25.8Z"/><path class="cls-2" d="M22,22.3h-.5a1,1,0,0,1,.5.8.9.9,0,0,1-.9.9,1,1,0,0,1-.8-.5V24A1.71,1.71,0,0,0,22,25.8,1.79,1.79,0,0,0,23.8,24,1.71,1.71,0,0,0,22,22.3Z"/><path class="cls-2" d="M22,20c-3.3,0-6,3-6,4s2.7,4,6,4,6-3,6-4S25.3,20,22,20Zm0,7a3,3,0,1,1,3-3A2.95,2.95,0,0,1,22,27Z"/></svg>