<svg id="Layer_1" data-name="Layer 1" xmlns="http://www.w3.org/2000/svg" viewBox="0 0 64 64"><defs><style>.cls-1,.cls-2,.cls-3{fill:#fff;}.cls-1{opacity:0.6;isolation:isolate;}.cls-3{opacity:0.6;}</style></defs><path class="cls-1" d="M20.8,30.6V42.27a1,1,0,0,0,.93.93H42.27a1,1,0,0,0,.93-.93V30.6Zm20.07,9.8c0,.28,0,.47-.47.47H35.27c-.47,0-.47-.19-.47-.47V37.6c0-.28,0-.47.47-.47H40.4c.47,0,.47.19.47.47Z"/><path class="cls-2" d="M24.06,20.8h7.47v8.4H20.8s2.33-7.19,2.33-7.47C23.6,20.94,23.6,20.8,24.06,20.8Zm15.88,0H32.47v8.4H43.2S40.87,22,40.87,21.73C40.4,20.94,40.4,20.8,39.94,20.8Z"/><path class="cls-2" d="M14.68,14l2.83,2.84a21,21,0,1,1-.36,30l-2.83,2.83A25,25,0,1,0,14.68,14Z"/><path class="cls-3" d="M32.49,7v4A21,21,0,1,1,11,32H7A25,25,0,1,0,32.49,7Z"/><polygon class="cls-2" points="7.85 23.7 20.95 20.19 11.36 10.6 7.85 23.7"/></svg>