<svg id="Layer_1" data-name="Layer 1" xmlns="http://www.w3.org/2000/svg" viewBox="0 0 24 24"><defs><style>.cls-1,.cls-3{fill:#1467ba;}.cls-1,.cls-2{stroke:#1467ba;stroke-width:0.35px;}</style></defs><path class="cls-1" d="M7.59,10.66v6.53a.68.68,0,0,0,.65.66h9.15a.69.69,0,0,0,.65-.66V10.66a.68.68,0,0,0-.65-.65H8.24A.68.68,0,0,0,7.59,10.66Zm.65,0h9.15v6.53H8.24Z"/><path class="cls-1" d="M9.22,6.74,7.59,10v.65H18V10L16.41,6.74c-.15-.3-.32-.59-.66-.59H9.87C9.54,6.15,9.37,6.45,9.22,6.74Zm.65,0h5.88L17.39,10H8.24Z"/><path class="cls-2" d="M8.89,8.37h7.84"/><rect class="cls-1" x="8.89" y="8.05" width="7.84" height="0.65"/><path class="cls-3" d="M1.83,11.62a11,11,0,1,1,3,7.87l.81-.76a9.87,9.87,0,0,0,17.08-6.35v0a9.85,9.85,0,0,0-9.48-10.2h0A9.85,9.85,0,0,0,3,11.62v0"/><path class="cls-3" d="M5.45,9.75,2.83,8.94.2,8.14l.62,2.68.62,2.67,2-1.87Z"/></svg>