<svg id="Layer_1" data-name="Layer 1" xmlns="http://www.w3.org/2000/svg" viewBox="0 0 32 32"><defs><style>.cls-1{fill:#26a642;}.cls-2{fill:#3a85d1;}.cls-3{fill:#125da8;}.cls-4{fill:#43b4d6;}.cls-5{fill:#fff;}</style></defs><polygon class="cls-1" points="22.63 15.62 26.42 9.08 28.49 10.28 28.5 6.38 28.5 4.97 28.5 3.83 28.5 3.5 27.22 4.23 27.22 4.23 22.62 6.88 24.67 8.07 24.69 8.08 21.82 13.04 13.3 9.12 3.5 16.73 3.5 19.27 13.57 11.44 22.63 15.62"/><path class="cls-2" d="M14,24c0-1.76,2.27-4.4,5.29-5.49V16.28l-5.44-2.51-1.12.87V28.5H17.3C15.33,27.21,14,25.34,14,24Z"/><polygon class="cls-3" points="3.5 28.5 10.94 28.5 10.94 16.02 3.5 21.8 3.5 28.5"/><path class="cls-4" d="M23.27,18.11l-2.22-1v1A7.43,7.43,0,0,1,22,18,7.71,7.71,0,0,1,23.27,18.11Z"/><path class="cls-4" d="M28.49,21V12.59l-1.34-.77-3.68,6.32A9.58,9.58,0,0,1,28.49,21Z"/><path class="cls-1" d="M22,22.3h-.5a1,1,0,0,1,.5.8.9.9,0,0,1-.9.9h-.05a1,1,0,0,1-.75-.49V24a1.79,1.79,0,0,0,.75,1.51,1.69,1.69,0,0,0,.95.29A1.79,1.79,0,0,0,23.8,24,1.71,1.71,0,0,0,22,22.3Z"/><path class="cls-1" d="M22,20a5.89,5.89,0,0,0-.95.08,6.68,6.68,0,0,0-1.77.58C17.34,21.6,16,23.29,16,24s1.34,2.39,3.28,3.33a6.68,6.68,0,0,0,1.77.58A5.88,5.88,0,0,0,22,28c3.3,0,6-3,6-4S25.3,20,22,20Zm0,7a3.26,3.26,0,0,1-.95-.16,2.88,2.88,0,0,1-1.77-1.56,3.09,3.09,0,0,1,0-2.57,2.88,2.88,0,0,1,1.77-1.56A3.26,3.26,0,0,1,22,21a3,3,0,0,1,0,6Z"/><path class="cls-5" d="M22,21a3.26,3.26,0,0,0-.95.15,2.88,2.88,0,0,0-1.77,1.56,3.09,3.09,0,0,0,0,2.57,2.88,2.88,0,0,0,1.77,1.56A3.26,3.26,0,0,0,22,27a3,3,0,0,0,0-6Zm0,4.8a1.69,1.69,0,0,1-.95-.29A1.79,1.79,0,0,1,20.3,24v-.5a1,1,0,0,0,.75.49h.05a.9.9,0,0,0,.9-.9,1,1,0,0,0-.5-.8H22A1.71,1.71,0,0,1,23.8,24,1.79,1.79,0,0,1,22,25.8Z"/></svg>