<svg id="Layer_1" data-name="Layer 1" xmlns="http://www.w3.org/2000/svg" viewBox="0 0 32 32"><defs><style>.cls-1{fill:#26a642;}.cls-2{fill:#3a85d1;}.cls-3{fill:#125da8;}.cls-4{fill:#43b4d6;}</style></defs><polygon class="cls-1" points="27.22 4.23 27.22 4.23 22.62 6.88 24.67 8.07 24.69 8.08 21.82 13.04 13.3 9.12 3.5 16.73 3.5 19.27 13.57 11.44 22.63 15.62 26.42 9.08 28.49 10.28 28.5 6.38 28.5 4.97 28.5 3.83 28.5 3.5 27.22 4.23"/><polygon class="cls-2" points="12.72 28.5 19.28 28.5 19.28 16.28 13.84 13.77 12.72 14.63 12.72 28.5"/><polygon class="cls-3" points="10.94 16.02 3.5 21.8 3.5 28.5 10.94 28.5 10.94 16.02"/><polygon class="cls-4" points="27.15 11.82 23.44 18.19 21.05 17.09 21.05 28.5 28.49 28.5 28.49 12.59 27.15 11.82"/></svg>