<svg id="Layer_1" data-name="Layer 1" xmlns="http://www.w3.org/2000/svg" viewBox="0 0 32 32"><defs><style>.cls-1{fill:#ffe39d;}.cls-2{fill:#cc0017;}.cls-3{fill:#ed9c26;}.cls-4{fill:#fff;}</style></defs><path class="cls-1" d="M16.5,6H9A2,2,0,0,0,7,8V26a2,2,0,0,0,2,2H24a2,2,0,0,0,2-2V8a2,2,0,0,0-2-2Z"/><path class="cls-2" d="M21.9,15.3l-1.2-1.2a.63.63,0,0,0-.6,0L15,19.2l-2.1-2.1c-.1-.2-.4-.2-.6,0l-1.2,1.2a.64.64,0,0,0,0,.6l3.6,3.6a.64.64,0,0,0,.6,0l1.2-1.2,5.4-5.4A.63.63,0,0,0,21.9,15.3Z"/><path class="cls-3" d="M22,6H19.6a3.4,3.4,0,0,0-6.2,0H11v4.5a.47.47,0,0,0,.5.5h10a.47.47,0,0,0,.5-.5V6Z"/><circle class="cls-3" cx="16.5" cy="7.5" r="1.5"/><circle class="cls-4" cx="16.5" cy="7.5" r="1.5"/></svg>