<svg id="Layer_1" data-name="Layer 1" xmlns="http://www.w3.org/2000/svg" viewBox="0 0 64 64"><defs><style>.cls-1,.cls-2{fill:#fff;}.cls-1{opacity:0.6;}</style></defs><polygon class="cls-1" points="26.71 45.1 37.29 45.1 36.225 39.899 32.495 39.899 31.494 39.899 27.775 39.899 26.71 45.1"/><path class="cls-1" d="M39.33087,45.09973H50.92944l-1.27722-2.07837h-.00006l-1.466-2.38556a1.54561,1.54561,0,0,0-1.31678-.73632H38.26562Z"/><path class="cls-1" d="M24.66876,45.09973,25.734,39.89948h-8.6034a1.5456,1.5456,0,0,0-1.31677.73632l-2.407,3.91681-.33625.54712Z"/><path class="cls-1" d="M56.79547,54.64526l-1.54035-2.50659-2.60839-4.24444h.00006l-.48822-.7945h-12.418L41.76855,57H55.4787A1.54554,1.54554,0,0,0,56.79547,54.64526Z"/><polygon class="cls-1" points="37.7 47.1 26.3 47.1 24.272 57 30.5 57 31.376 57 32.376 57 38.176 57 39.728 57 37.7 47.1"/><path class="cls-1" d="M24.25909,47.09973H11.84149L11.226,48.10132l-.45965.748L8.95312,51.79993H8.95306L7.20453,54.64526A1.5455,1.5455,0,0,0,8.52124,57H22.23108Z"/><path class="cls-2" d="M32.00112,24.7498a8.8749,8.8749,0,1,0-8.87491-8.8749A8.89144,8.89144,0,0,0,32.00112,24.7498ZM18.0971,42.4996h27.808c1.71581,0,1.62706-1.18332,1.62706-2.66247V37.17467c0-4.43746-4.1712-9.46657-9.31864-9.46657-1.49394,0-2.58852,1.18332-6.21243,1.18332-3.72746,0-4.62975-1.18332-6.21244-1.18332-5.14744,0-9.31864,5.02911-9.31864,9.46657v2.66246C16.47,41.31628,16.32212,42.4996,18.0971,42.4996Z"/><circle class="cls-2" cx="15.0637" cy="19.60742" r="4.60689" transform="translate(-4.10191 3.98547) rotate(-13.2826)"/><path class="cls-2" d="M21.16931,26.84267A4.553,4.553,0,0,0,18.28851,25.75c-.77545,0-1.34369.61425-3.22479.61425-1.93494,0-2.40332-.61425-3.22486-.61425A5.16025,5.16025,0,0,0,7.00158,30.664V32.0461c0,.76782-.07678,1.38208.84461,1.38208h7.39032A12.75741,12.75741,0,0,1,21.16931,26.84267Z"/><path class="cls-2" d="M57.00183,32.0461V30.664A5.16029,5.16029,0,0,0,52.16455,25.75c-.77551,0-1.34369.61425-3.22486.61425-1.93487,0-2.40325-.61425-3.22485-.61425A4.55333,4.55333,0,0,0,42.83362,26.843a12.7577,12.7577,0,0,1,5.93188,6.58515h7.39172C57.04791,33.42818,57.00183,32.81392,57.00183,32.0461Z"/><circle class="cls-2" cx="48.93969" cy="19.60742" r="4.60693"/></svg>