<svg id="Layer_1" data-name="Layer 1" xmlns="http://www.w3.org/2000/svg" viewBox="0 0 32 32"><defs><style>.cls-1{opacity:0.4;}.cls-2{fill:#1565c0;}.cls-3{opacity:0.6;}</style></defs><g class="cls-1"><polygon class="cls-2" points="13.358 22.543 18.642 22.543 18.11 19.946 16.247 19.946 15.748 19.946 13.89 19.946 13.358 22.543"/><path class="cls-2" d="M19.66153,22.54287h5.7931L24.8167,21.5048h0l-.73222-1.19151a.772.772,0,0,0-.65768-.36777H19.12948Z"/><path class="cls-2" d="M12.3383,22.54287l.53206-2.59735H8.57325a.772.772,0,0,0-.65768.36777L6.71333,22.26961l-.16794.27326Z"/><path class="cls-2" d="M28.38451,27.31055l-.76935-1.252-1.30281-2.12h0l-.24385-.39682H19.86615l1.01292,4.94485h6.84776A.77194.77194,0,0,0,28.38451,27.31055Z"/><polygon class="cls-2" points="18.847 23.542 13.153 23.542 12.14 28.487 15.251 28.487 15.688 28.487 16.188 28.487 19.085 28.487 19.86 28.487 18.847 23.542"/><path class="cls-2" d="M12.13369,23.54181H5.93151l-.30741.50026-.22958.37359L4.48887,25.8894h0l-.87333,1.42115a.77192.77192,0,0,0,.65765,1.17611h6.8476Z"/></g><path class="cls-2" d="M16.00057,12.37877a4.43272,4.43272,0,1,0-4.43272-4.43271A4.441,4.441,0,0,0,16.00057,12.37877ZM9.056,21.2442H22.94515c.857,0,.81267-.591.81267-1.32982V18.58457a4.96513,4.96513,0,0,0-4.65435-4.72823c-.74618,0-1.29288.591-3.1029.591-1.86174,0-2.3124-.591-3.1029-.591a4.96513,4.96513,0,0,0-4.65435,4.72823v1.32981C8.24332,20.65317,8.16944,21.2442,9.056,21.2442Z"/><g class="cls-3"><circle class="cls-2" cx="7.5409" cy="9.81033" r="2.30098" transform="translate(-2.05223 1.99499) rotate(-13.2826)"/><path class="cls-2" d="M10.59044,13.42409a2.274,2.274,0,0,0-1.43886-.54578,8.16018,8.16018,0,0,1-1.61067.3068c-.96644,0-1.20038-.3068-1.61071-.3068a2.57738,2.57738,0,0,0-2.41606,2.45441v.6903c0,.38351-.03835.69031.42186.69031H7.62721A6.37189,6.37189,0,0,1,10.59044,13.42409Z"/><path class="cls-2" d="M28.48758,16.023v-.6903a2.5774,2.5774,0,0,0-2.41606-2.45441,8.1608,8.1608,0,0,1-1.6107.3068c-.96641,0-1.20035-.3068-1.61071-.3068a2.2742,2.2742,0,0,0-1.43907.546,6.372,6.372,0,0,1,2.96277,3.28906h3.69192C28.5106,16.71333,28.48758,16.40653,28.48758,16.023Z"/><circle class="cls-2" cx="24.46082" cy="9.81033" r="2.301"/></g></svg>