<svg id="Layer_1" data-name="Layer 1" xmlns="http://www.w3.org/2000/svg" viewBox="0 0 32 32"><defs><style>.cls-1{fill:#c87e0e;}.cls-2{fill:#efbd10;}.cls-3{fill:#f6d751;}</style></defs><path class="cls-1" d="M26.8,4.55v22.9a1.06,1.06,0,0,1-1.05,1.05H19.24a1,1,0,0,1-1-1.05V4.55a1,1,0,0,1,1-1h6.51A1.08,1.08,0,0,1,26.8,4.55Z"/><path class="cls-2" d="M20.3,10.79V28.5H11.7V10.79a1,1,0,0,1,1.05-1h6.5A1,1,0,0,1,20.3,10.79Z"/><path class="cls-3" d="M5.2,17V27.45a1.06,1.06,0,0,0,1,1.05H13.8V17a1,1,0,0,0-1-1H6.25A1,1,0,0,0,5.2,17Z"/></svg>