<svg id="Layer_1" data-name="Layer 1" xmlns="http://www.w3.org/2000/svg" viewBox="0 0 32 32"><defs><style>.cls-1,.cls-2{fill:#6b0acc;}.cls-1{opacity:0.2;isolation:isolate;}</style></defs><path class="cls-1" d="M24.5,3.5H7.5a1.037,1.037,0,0,0-1,1v24h.00058c1.18808-.00073,1.18835-2,2.37686-2s1.18875,1.99927,2.37683,2h.00116c1.18726-.00073,1.18753-2,2.37525-2,1.18664,0,1.18692,1.99927,2.37313,2H16.005c1.18607-.00073,1.18634-2,2.37284-2,1.18683,0,1.1871,1.99927,2.3735,2h.00116c1.1864-.00073,1.18668-2,2.37348-2s1.18707,1.99927,2.37347,2H25.5V4.5A1,1,0,0,0,24.5,3.5Z"/><path class="cls-2" d="M13.92308,17.03846V9.76923c0-.31154,0-.51923.51923-.51923h3.11538c.51923,0,.51923.20769.51923.51923v7.26923c0,.31154,0,.51923-.51923.51923H14.44231C13.92308,17.55769,13.92308,17.35,13.92308,17.03846Zm0,5.19231V20.15385c0-.31154,0-.51923.51923-.51923h3.11538c.51923,0,.51923.20769.51923.51923v2.07692c0,.31154,0,.51923-.51923.51923H14.44231C13.92308,22.75,13.92308,22.54231,13.92308,22.23077Z"/></svg>