<svg id="Layer_1" data-name="Layer 1" xmlns="http://www.w3.org/2000/svg" viewBox="0 0 32 32"><defs><style>.cls-1,.cls-2{fill:#6b0acc;}.cls-2{opacity:0.2;isolation:isolate;}</style></defs><path class="cls-1" d="M23.79507,23.99522a1.79254,1.79254,0,0,1-1.8,1.8,1.71041,1.71041,0,0,1-1.7-1.8v-.5a1.01965,1.01965,0,0,0,.80005.5.89615.89615,0,0,0,.9-.8999,1.01973,1.01973,0,0,0-.5-.80005h.5A1.7103,1.7103,0,0,1,23.79507,23.99522Z"/><path class="cls-1" d="M21.99509,19.99522c-3.3,0-6,3-6,4s2.7,4,6,4,6-3,6-4S25.29507,19.99522,21.99509,19.99522Zm0,7a3,3,0,1,1,3-3A2.94632,2.94632,0,0,1,21.99509,26.99522Z"/><path class="cls-2" d="M13.99478,23.99487a3.14136,3.14136,0,0,1,.31763-1.261c-.36829-.03906-.38935-.22534-.38935-.50317V20.1538c0-.31152,0-.51928.51923-.51928h2.63617a8.75027,8.75027,0,0,1,4.91632-1.63965A8.25458,8.25458,0,0,1,25.5,18.82275V4.5a1,1,0,0,0-1-1H7.5a1.037,1.037,0,0,0-1,1v24h.00055c1.18811-.00073,1.18835-2,2.37689-2s1.18872,1.99927,2.37683,2h.00116c1.18726-.00073,1.1875-2,2.37525-2,1.18664,0,1.18688,1.99927,2.3731,2H16.005a.98215.98215,0,0,0,.7558-.37744C15.089,26.86132,13.99478,25.21459,13.99478,23.99487ZM13.92306,9.76928c0-.31152,0-.51929.51923-.51929h3.11542c.51922,0,.51922.20777.51922.51929v7.26929c0,.31152,0,.519-.51922.519H14.44229c-.51923,0-.51923-.20752-.51923-.519Z"/><path class="cls-1" d="M14.44229,17.55761h3.11542c.51922,0,.51922-.20752.51922-.519V9.76928c0-.31152,0-.51929-.51922-.51929H14.44229c-.51923,0-.51923.20777-.51923.51929v7.26929C13.92306,17.35009,13.92306,17.55761,14.44229,17.55761Z"/><path class="cls-1" d="M13.92306,20.1538v2.07691c0,.27783.02106.46411.38935.50317a8.12468,8.12468,0,0,1,2.76605-3.09936H14.44229C13.92306,19.63452,13.92306,19.84228,13.92306,20.1538Z"/></svg>