<svg id="Layer_1" data-name="Layer 1" xmlns="http://www.w3.org/2000/svg" viewBox="0 0 24 24"><defs><style>.cls-1{fill:none;stroke:#1467ba;stroke-miterlimit:10;stroke-width:0.95px;}.cls-2{fill:#1467ba;}</style></defs><path class="cls-1" d="M20.5,23.5V.5H3.5v23c2.13,0,2.13-2,4.25-2s2.13,2,4.25,2,2.13-2,4.25-2S18.38,23.5,20.5,23.5Z"/><path class="cls-2" d="M11.42,15.51h1.16a.58.58,0,0,1,.59.58v1.17a.58.58,0,0,1-.59.59H11.42a.58.58,0,0,1-.59-.58h0V16.09A.58.58,0,0,1,11.42,15.51Zm0-9.36h1.16a.58.58,0,0,1,.59.59v7a.58.58,0,0,1-.59.59H11.42a.58.58,0,0,1-.59-.58h0v-7A.58.58,0,0,1,11.42,6.15Z"/></svg>