<svg id="Layer_1" data-name="Layer 1" xmlns="http://www.w3.org/2000/svg" viewBox="0 0 32 32"><defs><style>.cls-1,.cls-2{fill:#823591;}.cls-2{opacity:0.4;}</style></defs><path class="cls-1" d="M15.36,26.84A8.64,8.64,0,0,1,7.5,18.37a8.5,8.5,0,0,1,17,0v.05a9.42,9.42,0,0,1,1.95.92c0-.32.05-.64.05-1a10.59,10.59,0,0,0-2.1-6.3L26,10.57a.6.6,0,0,0,0-.7L24.5,8.42a.6.6,0,0,0-.7,0L22.3,10a10.27,10.27,0,0,0-4.8-2V6.37H19a.47.47,0,0,0,.5-.5V4.37a.47.47,0,0,0-.5-.5H13a.49.49,0,0,0-.5.5v1.5a.49.49,0,0,0,.5.5h1.5V8a10.52,10.52,0,0,0-9,10.4A10.37,10.37,0,0,0,16,28.87a10,10,0,0,0,1.66-.14A9.65,9.65,0,0,1,15.36,26.84Z"/><path class="cls-2" d="M14.31,19.76h1.21l.19-.71H14.25V17.76h1.87l.2-.72h-2q.28-2.7,1.8-2.7a1.46,1.46,0,0,1,1.19.56,3,3,0,0,1,.57,1.54h1.28a3.81,3.81,0,0,0-1-2.28,2.77,2.77,0,0,0-2.07-.8Q13.4,13.36,13,17h-.68v.72H13v1.29h-.61v.71H13a4.43,4.43,0,0,0,1.28,3,5.76,5.76,0,0,1,.6-1A4.35,4.35,0,0,1,14.31,19.76Z"/><path class="cls-1" d="M22,28h0Z"/><path class="cls-1" d="M22.09,22.31H21.5a1,1,0,0,1,.5.8.9.9,0,0,1-.9.9,1,1,0,0,1-.8-.5V24a2,2,0,0,0,.36,1.13A1.63,1.63,0,0,0,22,25.8,1.79,1.79,0,0,0,23.8,24,1.69,1.69,0,0,0,22.09,22.31Z"/><path class="cls-1" d="M25.1,20.87A6.38,6.38,0,0,0,22.21,20H22a6,6,0,0,0-1.91.33,7,7,0,0,0-4,3.39A.79.79,0,0,0,16,24a.52.52,0,0,0,0,.11C16.18,25.19,18.79,28,22,28H22a6.5,6.5,0,0,0,3-.85C26.82,26.18,28,24.66,28,24S26.83,21.83,25.1,20.87ZM22,27a2.94,2.94,0,0,1-2.79-1.87A3.24,3.24,0,0,1,19,24a3,3,0,0,1,.54-1.75A3,3,0,1,1,22,27Z"/></svg>