<svg id="Layer_1" data-name="Layer 1" xmlns="http://www.w3.org/2000/svg" viewBox="0 0 32 32"><defs><style>.cls-1{fill:#823591;}.cls-2{opacity:0.4;}</style></defs><path class="cls-1" d="M24.4,12.07,26,10.57a.6.6,0,0,0,0-.7L24.5,8.42a.6.6,0,0,0-.7,0L22.3,10a10.27,10.27,0,0,0-4.8-2V6.37H19a.47.47,0,0,0,.5-.5V4.37a.47.47,0,0,0-.5-.5H13a.48.48,0,0,0-.5.5v1.5a.48.48,0,0,0,.5.5h1.5V8a10.52,10.52,0,0,0-9,10.4A10.37,10.37,0,0,0,16,28.87a10.37,10.37,0,0,0,10.5-10.5A10.59,10.59,0,0,0,24.4,12.07ZM16,26.87a8.62,8.62,0,0,1-8.5-8.5,8.5,8.5,0,0,1,17,0A8.62,8.62,0,0,1,16,26.87Z"/><g class="cls-2"><path class="cls-1" d="M19.15,20.13q-.3,3.26-3,3.26T13,19.76h-.68v-.71H13V17.76h-.61V17H13q.38-3.67,3.09-3.68a2.73,2.73,0,0,1,2.07.8,3.81,3.81,0,0,1,1,2.28H17.87a3,3,0,0,0-.57-1.54,1.46,1.46,0,0,0-1.19-.56q-1.52,0-1.8,2.7h2l-.2.72H14.25v1.29h1.46l-.19.71H14.31c.19,1.77.79,2.65,1.8,2.65s1.61-.76,1.76-2.28Z"/></g></svg>