<svg id="Layer_1" data-name="Layer 1" xmlns="http://www.w3.org/2000/svg" viewBox="0 0 32 32"><defs><style>.cls-1,.cls-2{fill:#aa8a30;}.cls-2{opacity:0.4;}</style></defs><path class="cls-1" d="M22,28h0Z"/><path class="cls-1" d="M22.09,22.31H21.5a1,1,0,0,1,.5.8.9.9,0,0,1-.9.9,1,1,0,0,1-.8-.5V24a2,2,0,0,0,.36,1.13A1.63,1.63,0,0,0,22,25.8,1.79,1.79,0,0,0,23.8,24,1.69,1.69,0,0,0,22.09,22.31Z"/><path class="cls-1" d="M25.1,20.87A6.38,6.38,0,0,0,22.21,20H22a6,6,0,0,0-1.91.33,7,7,0,0,0-4,3.39A.79.79,0,0,0,16,24a.52.52,0,0,0,0,.11C16.18,25.19,18.79,28,22,28H22a6.5,6.5,0,0,0,3-.85C26.82,26.18,28,24.66,28,24S26.83,21.83,25.1,20.87ZM22,27a2.94,2.94,0,0,1-2.79-1.87A3.24,3.24,0,0,1,19,24a3,3,0,0,1,.54-1.75A3,3,0,1,1,22,27Z"/><polygon class="cls-1" points="28.5 9.68 22.32 3.5 16.03 11.25 20.75 15.97 28.5 9.68"/><path class="cls-2" d="M10.61,22.24,4.34,28.5s6.3-2.07,10-3.12A3.21,3.21,0,0,1,14,24c0-1.4,1.44-3.37,3.54-4.66a8.48,8.48,0,0,1,1.85-2.82l-.69-.69-1.27-1.26-1-1-.93-.93C12.11,16,7.2,15.11,7.2,15.11c-.06,1.5-3.7,12.55-3.7,12.55l6.26-6.27a1.45,1.45,0,1,1,.85.85Z"/></svg>