<svg id="Layer_1" data-name="Layer 1" xmlns="http://www.w3.org/2000/svg" viewBox="0 0 24 24"><defs><style>.cls-1{fill:#1467ba;}.cls-2{fill:none;stroke:#1467ba;stroke-linecap:square;}</style></defs><path class="cls-1" d="M3.11463,1V23a1.05717,1.05717,0,0,0,1,1h16a.9708.9708,0,0,0,1-1V1a1.00553,1.00553,0,0,0-1-1h-16A1.08691,1.08691,0,0,0,3.11463,1Zm1,0h16V23h-16Z"/><path class="cls-2" d="M16.61463,7.5h-9v-3h9Z"/><rect class="cls-2" x="7.61463" y="17.60919" width="1.83463" height="1.83463"/><rect class="cls-2" x="11.19731" y="17.60919" width="1.83463" height="1.83463"/><rect class="cls-2" x="7.61463" y="14.02651" width="1.83463" height="1.83463"/><rect class="cls-2" x="7.61463" y="10.44382" width="1.83463" height="1.83463"/><rect class="cls-2" x="11.19731" y="14.02651" width="1.83463" height="1.83463"/><rect class="cls-2" x="11.19731" y="10.44382" width="1.83463" height="1.83463"/><rect class="cls-2" x="14.77999" y="14.02651" width="1.83463" height="5.41732"/><rect class="cls-2" x="14.77999" y="10.44382" width="1.83463" height="1.83463"/></svg>