<svg id="Layer_1" data-name="Layer 1" xmlns="http://www.w3.org/2000/svg" viewBox="0 0 32 32"><defs><style>.cls-1,.cls-2,.cls-3{fill:#008ab2;}.cls-1{opacity:0.4;}.cls-1,.cls-2{isolation:isolate;}.cls-3{opacity:0.6;}</style></defs><path class="cls-1" d="M24.32175,3.5H7.65508A1.04144,1.04144,0,0,0,6.61341,4.54167v7.16654a4.93588,4.93588,0,0,1,5.41147,1.19807c.099.10936.19792.22405.29166.33849a4.921,4.921,0,0,1,.026,6.08851V20.6875a.492.492,0,0,1-.52083.52083H9.73841a.56235.56235,0,0,1-.2552-.06764,4.86148,4.86148,0,0,1-2.8698-.23957v6.55721A1.08011,1.08011,0,0,0,7.65508,28.5H24.32175a1.08008,1.08008,0,0,0,1.04166-1.04167V4.54167A1.04141,1.04141,0,0,0,24.32175,3.5ZM12.34258,25.89583a.492.492,0,0,1-.52083.52084H9.73841a.49206.49206,0,0,1-.52083-.52084V23.8125a.48941.48941,0,0,1,.52083-.52083h2.08334a.48939.48939,0,0,1,.52083.52083Zm5.20833,0a.492.492,0,0,1-.52083.52084H14.94675a.49206.49206,0,0,1-.52084-.52084V23.8125a.48942.48942,0,0,1,.52084-.52083h2.08333a.48939.48939,0,0,1,.52083.52083Zm0-5.20833a.492.492,0,0,1-.52083.52083H14.94675a.49205.49205,0,0,1-.52084-.52083V18.60417a.48942.48942,0,0,1,.52084-.52084h2.08333a.4894.4894,0,0,1,.52083.52084Zm0-5.20833A.492.492,0,0,1,17.03008,16H14.94675a.49205.49205,0,0,1-.52084-.52083V13.39583a.48942.48942,0,0,1,.52084-.52083h2.08333a.4894.4894,0,0,1,.52083.52083Zm5.20834,10.41666c0,.52084-.20832.52084-.52084.52084H20.15508c-.31249,0-.52083,0-.52083-.52084V18.60417a.48942.48942,0,0,1,.52083-.52084h2.08333a.48941.48941,0,0,1,.52084.52084Zm0-10.41666A.492.492,0,0,1,22.23841,16H20.15508a.492.492,0,0,1-.52083-.52083V13.39583a.48941.48941,0,0,1,.52083-.52083h2.08333a.48941.48941,0,0,1,.52084.52083Zm0-5.72917a.492.492,0,0,1-.52084.52083h-12.5A.492.492,0,0,1,9.21758,9.75V6.10417a.48942.48942,0,0,1,.52083-.52084h12.5a.48941.48941,0,0,1,.52084.52084Z"/><rect class="cls-2" x="19.63425" y="12.875" width="3.125" height="3.125" rx="0.52083"/><rect class="cls-2" x="14.42591" y="23.29167" width="3.125" height="3.125" rx="0.52083"/><rect class="cls-2" x="9.21758" y="23.29167" width="3.125" height="3.125" rx="0.52083"/><path class="cls-2" d="M12.34258,19.33328V20.6875a.492.492,0,0,1-.52083.52083H9.73841a.56235.56235,0,0,1-.2552-.06764A4.96157,4.96157,0,0,0,12.34258,19.33328Z"/><rect class="cls-2" x="14.42591" y="18.08333" width="3.125" height="3.125" rx="0.52083"/><rect class="cls-2" x="14.42591" y="12.875" width="3.125" height="3.125" rx="0.52083"/><path class="cls-2" d="M5.67477,19.06782A3.90783,3.90783,0,1,0,8.437,12.40565l0,3.9Z"/><path class="cls-1" d="M5.67477,13.54355,8.4369,16.30568l0-3.9a3.88411,3.88411,0,0,0-2.76218,1.1379Z"/><path class="cls-3" d="M5.67477,13.54355a3.9045,3.9045,0,0,0,0,5.52427L8.4369,16.30568Z"/></svg>