<svg id="Layer_1" data-name="Layer 1" xmlns="http://www.w3.org/2000/svg" viewBox="0 0 32 32"><defs><style>.cls-1,.cls-2,.cls-3{fill:#008ab2;}.cls-1,.cls-2{isolation:isolate;}.cls-2{opacity:0.4;}.cls-3{opacity:0.6;}.cls-4{fill:none;}</style></defs><path class="cls-1" d="M11.8218,21.208a.49334.49334,0,0,0,.52-.52V19.33787l.00079-.00147v-.00293a4.95979,4.95979,0,0,1-2.855,1.80567.51948.51948,0,0,0,.25421.06884Z"/><path class="cls-1" d="M11.19906,19.06785a3.90649,3.90649,0,0,0,0-5.52442,3.9635,3.9635,0,0,0-.60785-.49707A3.88541,3.88541,0,0,0,8.437,12.40574l-.00006,3.8999L5.67476,19.06785A3.90646,3.90646,0,0,0,11.19906,19.06785Z"/><path class="cls-2" d="M8.437,12.40574a3.88424,3.88424,0,0,0-2.76221,1.13769l2.76215,2.76221Z"/><path class="cls-3" d="M5.67476,13.54343a3.90465,3.90465,0,0,0,0,5.52442l2.76215-2.76221Z"/><path class="cls-4" d="M14.42592,13.396a.48381.48381,0,0,1,.29737-.47754.482.482,0,0,0-.30152.47949V15.478a.51806.51806,0,0,0,.14716.37842.52155.52155,0,0,1-.143-.37744Z"/><path class="cls-4" d="M14.73025,15.96042a.48639.48639,0,0,1-.08887-.05712A.46734.46734,0,0,0,14.73025,15.96042Z"/><path class="cls-4" d="M17.55092,13.396v2.083a.59337.59337,0,0,1-.037.21142.58432.58432,0,0,0,.0379-.2124V13.39792a.59882.59882,0,0,0-.03821-.21728A.60123.60123,0,0,1,17.55092,13.396Z"/><path class="cls-1" d="M17.55092,13.396a.60123.60123,0,0,0-.03735-.21533.48515.48515,0,0,0-.48181-.30274h-2.09a.58705.58705,0,0,0-.2185.04053.48381.48381,0,0,0-.29737.47754v2.083a.52155.52155,0,0,0,.143.37744.47507.47507,0,0,0,.07245.04688.48639.48639,0,0,0,.08887.05712.58453.58453,0,0,0,.21154.0376h2.09a.49023.49023,0,0,0,.48212-.30762.59337.59337,0,0,0,.037-.21142Z"/><path class="cls-1" d="M14.94179,26.41794h.07a6.84826,6.84826,0,0,1-.59-.93017v.41015A.49339.49339,0,0,0,14.94179,26.41794Z"/><path class="cls-4" d="M19.63424,13.396a.52164.52164,0,0,1,.14294-.37939.51829.51829,0,0,0-.14538.38134V15.478a.51934.51934,0,0,0,.14428.37647.52178.52178,0,0,1-.14184-.37549Z"/><path class="cls-4" d="M22.61635,13.01658a.52133.52133,0,0,1,.14289.37939v2.083a.52146.52146,0,0,1-.14179.37549.51914.51914,0,0,0,.14435-.37647V13.39792A.51806.51806,0,0,0,22.61635,13.01658Z"/><path class="cls-1" d="M22.75924,13.396a.48477.48477,0,0,0-.51746-.51807h-2.09a.48484.48484,0,0,0-.51751.51807v2.083a.49012.49012,0,0,0,.51751.519h2.09a.49.49,0,0,0,.51746-.519Z"/><path class="cls-1" d="M17.03176,18.08787h-2.09a.488.488,0,0,0-.52.52V20.688a.49339.49339,0,0,0,.52.52h.37a9.71587,9.71587,0,0,1,2.24-1.88037v-.71972A.488.488,0,0,0,17.03176,18.08787Z"/><path class="cls-4" d="M9.73842,26.41648a.52061.52061,0,0,1-.37683-.14258.51876.51876,0,0,0,.38019.144h2.08a.51991.51991,0,0,0,.35675-.13134.52025.52025,0,0,1-.35681.12988Z"/><path class="cls-4" d="M11.82174,23.29148a.52332.52332,0,0,1,.37671.14062.51862.51862,0,0,0-.37665-.14453h-2.08a.51791.51791,0,0,0-.38061.145.52247.52247,0,0,1,.37725-.14111Z"/><path class="cls-1" d="M12.34176,25.89792V23.80808a.48811.48811,0,0,0-.52-.5166H9.73842a.48314.48314,0,0,0-.51666.5166v2.08984a.48589.48589,0,0,0,.51666.51856h2.08332a.52025.52025,0,0,0,.35681-.12988A.509.509,0,0,0,12.34176,25.89792Z"/><path class="cls-4" d="M22.75924,9.75a.52682.52682,0,0,1-.10474.31788.523.523,0,0,0,.1073-.31983V6.10789a.51959.51959,0,0,0-.1438-.38038.52043.52043,0,0,1,.14124.37647Z"/><path class="cls-4" d="M9.74178,5.58787a.48306.48306,0,0,0-.52.52V9.748a.48817.48817,0,0,0,.52.52h12.5a.49646.49646,0,0,0,.41272-.20019A.52682.52682,0,0,0,22.75924,9.75V6.104a.48366.48366,0,0,0-.51746-.51611Z"/><path class="cls-2" d="M15.0118,26.41794h-.07a.49339.49339,0,0,1-.52-.52v-.41015a3.40506,3.40506,0,0,1-.43-1.48975,4.72819,4.72819,0,0,1,1.32-2.79h-.37a.49339.49339,0,0,1-.52-.52V18.60789a.488.488,0,0,1,.52-.52h2.09a.488.488,0,0,1,.52.52v.71972a8.93649,8.93649,0,0,1,2.15-.98,8.18561,8.18561,0,0,1,1.21-.25976,6.55287,6.55287,0,0,1,1.08-.08985,8.18189,8.18189,0,0,1,3.37.75977V4.53757a1.04536,1.04536,0,0,0-1.04-1.03955h-16.67a1.0454,1.0454,0,0,0-1.04,1.03955V11.708a5.03214,5.03214,0,0,1,1.82-.35009,4.92838,4.92838,0,0,1,3.59,1.5498c.1.11035.19995.22021.29.34033a4.88238,4.88238,0,0,1,1.07,3.06006,4.93372,4.93372,0,0,1-1.03925,3.02832v1.35107a.49218.49218,0,0,1-.52081.521H9.73842a.55878.55878,0,0,1-.25518-.06787l.00433-.00146-.0058-.00147a4.56436,4.56436,0,0,1-1.05.12012,4.841,4.841,0,0,1-1.82-.35987V27.458a1.07987,1.07987,0,0,0,1.04,1.04h9.65A9.08941,9.08941,0,0,1,15.0118,26.41794Zm-2.66925-.522a.508.508,0,0,1-.164.39063.51991.51991,0,0,1-.35675.13134h-2.08a.49474.49474,0,0,1-.52423-.522v-2.0835a.49577.49577,0,0,1,.52423-.5249h2.08a.49547.49547,0,0,1,.52075.5249Zm5.20923-10.418a.58432.58432,0,0,1-.0379.2124A.48809.48809,0,0,1,17.03005,16H14.94674a.58689.58689,0,0,1-.21649-.03955.46734.46734,0,0,1-.08887-.05712.47263.47263,0,0,1-.07245-.04688.51806.51806,0,0,1-.14716-.37842V13.39792a.482.482,0,0,1,.30152-.47949.58025.58025,0,0,1,.22345-.04346h2.08331a.48562.48562,0,0,1,.48352.30567.59882.59882,0,0,1,.03821.21728Zm5.21,0a.49716.49716,0,0,1-.52338.522H20.15505a.49705.49705,0,0,1-.52325-.522V13.39792a.51829.51829,0,0,1,.14538-.38134.52374.52374,0,0,1,.37787-.14161h2.08337a.52376.52376,0,0,1,.37793.14161.51806.51806,0,0,1,.14545.38134ZM9.73842,10.271a.49223.49223,0,0,1-.52087-.521V6.104a.48932.48932,0,0,1,.52087-.52051h12.5a.49454.49454,0,0,1,.52338.52442V9.748a.523.523,0,0,1-.1073.31983.49534.49534,0,0,1-.41608.20312Z"/><path class="cls-2" d="M22.6545,10.06785a.49646.49646,0,0,1-.41272.20019h-12.5a.48817.48817,0,0,1-.52-.52V6.10789a.48306.48306,0,0,1,.52-.52h12.5a.52315.52315,0,0,1,.37622.13964.52144.52144,0,0,0-.37958-.144h-12.5a.48932.48932,0,0,0-.52087.52051V9.75a.49223.49223,0,0,0,.52087.521h12.5A.49534.49534,0,0,0,22.6545,10.06785Z"/><path class="cls-1" d="M20.15175,15.998a.51851.51851,0,0,1-.37567-.14355.51949.51949,0,0,0,.379.1455h2.08337a.51963.51963,0,0,0,.379-.1455.51851.51851,0,0,1-.37567.14355Z"/><path class="cls-2" d="M20.15175,15.998a.51851.51851,0,0,1-.37567-.14355.51949.51949,0,0,0,.379.1455h2.08337a.51963.51963,0,0,0,.379-.1455.51851.51851,0,0,1-.37567.14355Z"/><path class="cls-1" d="M22.24178,12.8779a.52384.52384,0,0,1,.37457.13868.52376.52376,0,0,0-.37793-.14161H20.15505a.52374.52374,0,0,0-.37787.14161.52377.52377,0,0,1,.37457-.13868Z"/><path class="cls-2" d="M22.24178,12.8779a.52384.52384,0,0,1,.37457.13868.52376.52376,0,0,0-.37793-.14161H20.15505a.52374.52374,0,0,0-.37787.14161.52377.52377,0,0,1,.37457-.13868Z"/><path class="cls-1" d="M9.22176,23.80808a.524.524,0,0,1,.13941-.37549.51964.51964,0,0,0-.14362.37988V25.896a.52.52,0,0,0,.144.37793.52308.52308,0,0,1-.13983-.376Z"/><path class="cls-2" d="M9.22176,23.80808a.524.524,0,0,1,.13941-.37549.51964.51964,0,0,0-.14362.37988V25.896a.52.52,0,0,0,.144.37793.52308.52308,0,0,1-.13983-.376Z"/><path class="cls-1" d="M12.19845,23.4321a.52063.52063,0,0,1,.14331.376v2.08984a.509.509,0,0,1-.16321.38868.508.508,0,0,0,.164-.39063v-2.0835A.52093.52093,0,0,0,12.19845,23.4321Z"/><path class="cls-2" d="M12.19845,23.4321a.52063.52063,0,0,1,.14331.376v2.08984a.509.509,0,0,1-.16321.38868.508.508,0,0,0,.164-.39063v-2.0835A.52093.52093,0,0,0,12.19845,23.4321Z"/><path class="cls-1" d="M9.73842,21.20847h2.08332a.49218.49218,0,0,0,.52081-.521V19.3364l-.00079.00147V20.688a.49334.49334,0,0,1-.52.52h-2.08a.51948.51948,0,0,1-.25421-.06884l-.00433.00146A.55878.55878,0,0,0,9.73842,21.20847Z"/><path class="cls-2" d="M9.73842,21.20847h2.08332a.49218.49218,0,0,0,.52081-.521V19.3364l-.00079.00147V20.688a.49334.49334,0,0,1-.52.52h-2.08a.51948.51948,0,0,1-.25421-.06884l-.00433.00146A.55878.55878,0,0,0,9.73842,21.20847Z"/><path class="cls-1" d="M17.03176,15.998h-2.09a.58453.58453,0,0,1-.21154-.0376A.58689.58689,0,0,0,14.94674,16h2.08331a.48809.48809,0,0,0,.48383-.30957A.49023.49023,0,0,1,17.03176,15.998Z"/><path class="cls-2" d="M17.03176,15.998h-2.09a.58453.58453,0,0,1-.21154-.0376A.58689.58689,0,0,0,14.94674,16h2.08331a.48809.48809,0,0,0,.48383-.30957A.49023.49023,0,0,1,17.03176,15.998Z"/><path class="cls-1" d="M14.64138,15.9033a.47507.47507,0,0,1-.07245-.04688A.47263.47263,0,0,0,14.64138,15.9033Z"/><path class="cls-2" d="M14.64138,15.9033a.47507.47507,0,0,1-.07245-.04688A.47263.47263,0,0,0,14.64138,15.9033Z"/><path class="cls-1" d="M17.03176,12.8779a.48515.48515,0,0,1,.48181.30274.48562.48562,0,0,0-.48352-.30567H14.94674a.58025.58025,0,0,0-.22345.04346.58705.58705,0,0,1,.2185-.04053Z"/><path class="cls-2" d="M17.03176,12.8779a.48515.48515,0,0,1,.48181.30274.48562.48562,0,0,0-.48352-.30567H14.94674a.58025.58025,0,0,0-.22345.04346.58705.58705,0,0,1,.2185-.04053Z"/><path class="cls-1" d="M25.36178,21.00779a6.875,6.875,0,0,0-2.6-.94971,4.89341,4.89341,0,0,0-.77-.06006,6.04613,6.04613,0,0,0-2.36.5,7.57754,7.57754,0,0,0-3.39,2.78955,1.59521,1.59521,0,0,0-.25.71045,3.98743,3.98743,0,0,0,1.5,2.13965,7.01883,7.01883,0,0,0,4.5,1.86035,6.49017,6.49017,0,0,0,3.37-1.02c1.59-.96,2.63-2.36035,2.63-2.98C27.99178,23.3779,26.9518,21.978,25.36178,21.00779Zm-3.37,5.99023a3.03949,3.03949,0,0,1-1.79-.58008,3.359,3.359,0,0,1-.57-.56005,3.03726,3.03726,0,0,1,0-3.73,2.95963,2.95963,0,0,1,2.36-1.12988,3.24546,3.24546,0,0,1,.77.09961,3.00051,3.00051,0,0,1-.77,5.90039Z"/><path class="cls-4" d="M22.7618,21.09763a3.24546,3.24546,0,0,0-.77-.09961,2.95963,2.95963,0,0,0-2.36,1.12988,3.03726,3.03726,0,0,0,0,3.73,3.359,3.359,0,0,0,.57.56005,3.03949,3.03949,0,0,0,1.79.58008,3.00051,3.00051,0,0,0,.77-5.90039Zm0,4.52a1.77564,1.77564,0,0,1-.77.18018,1.7102,1.7102,0,0,1-1.7-1.79981v-.5a1.02024,1.02024,0,0,0,.8.5.89661.89661,0,0,0,.9-.90039,1.02,1.02,0,0,0-.5-.7998h.5a1.92146,1.92146,0,0,1,.77.1499,1.647,1.647,0,0,1,1.03,1.55029A1.776,1.776,0,0,1,22.7618,25.61765Z"/><path class="cls-1" d="M22.7618,22.44773a1.92146,1.92146,0,0,0-.77-.1499h-.5a1.02,1.02,0,0,1,.5.7998.89661.89661,0,0,1-.9.90039,1.02024,1.02024,0,0,1-.8-.5v.5a1.7102,1.7102,0,0,0,1.7,1.79981,1.81981,1.81981,0,0,0,1.8-1.79981A1.647,1.647,0,0,0,22.7618,22.44773Z"/></svg>