<svg id="Layer_1" data-name="Layer 1" xmlns="http://www.w3.org/2000/svg" viewBox="0 0 64 64"><defs><style>.cls-1,.cls-2{fill:#fff;}.cls-1{opacity:0.6;isolation:isolate;}</style></defs><path class="cls-1" d="M55,7H9A2.07,2.07,0,0,0,7,9V43a2.07,2.07,0,0,0,2,2H25V56.4c0,.59.49.81,1,.3h0L38,45H55a2.07,2.07,0,0,0,2-2V9A2.07,2.07,0,0,0,55,7Z"/><path class="cls-2" d="M41.21,30.74q-.8,8.76-8.2,8.76-7.23,0-8.32-9.75H22.86V27.82h1.66V24.34H22.86V22.42h1.83q1-9.92,8.32-9.92a7.41,7.41,0,0,1,5.58,2.16,10.28,10.28,0,0,1,2.62,6.13H37.76a8.06,8.06,0,0,0-1.53-4.14A4,4,0,0,0,33,15.15q-4.08,0-4.84,7.27h5.41l-.53,1.92H28v3.48H32l-.53,1.93H28.17q.76,7.13,4.84,7.13t4.75-6.14Z"/></svg>