<svg id="Layer_1" data-name="Layer 1" xmlns="http://www.w3.org/2000/svg" viewBox="0 0 32 32"><defs><style>.cls-1,.cls-2{fill:#6b0ac9;}.cls-2{opacity:0.2;}</style></defs><path class="cls-1" d="M27,4H5A1,1,0,0,0,4,5V21.28a1,1,0,0,0,1,1h7.68v5.48c0,.28.24.38.48.14l5.76-5.62H27a1,1,0,0,0,1-1V5A1,1,0,0,0,27,4ZM26,20.24H18.88a2,2,0,0,0-1.4.57l-2.84,2.77V22.24a2,2,0,0,0-2-2H6V6H26Z"/><path class="cls-2" d="M6,20.24h6.64a2,2,0,0,1,2,2v1.34l2.84-2.77a2,2,0,0,1,1.4-.57H26V6H6Z"/><path class="cls-1" d="M19.84,15q-.3,3.43-3.21,3.43t-3.26-3.82h-.71v-.75h.65V12.47h-.65v-.75h.71q.41-3.88,3.26-3.88a2.93,2.93,0,0,1,2.19.84,4,4,0,0,1,1,2.4H18.49a3.06,3.06,0,0,0-.6-1.62,1.55,1.55,0,0,0-1.26-.58c-1.06,0-1.69.94-1.89,2.84h2.12l-.21.75h-2v1.37h1.55l-.21.75H14.74q.3,2.79,1.89,2.79T18.49,15Z"/></svg>