<svg id="Layer_1" data-name="Layer 1" xmlns="http://www.w3.org/2000/svg" viewBox="0 0 24 24"><defs><style>.cls-1{fill:#1467ba;}</style></defs><path class="cls-1" d="M5,2.45a1.07,1.07,0,0,0-1,1v12a1,1,0,0,0,1,1H9v4.6a.5.5,0,0,0,.5.5.47.47,0,0,0,.35-.15l4.86-4.95H19a1,1,0,0,0,1-1v-12a1.06,1.06,0,0,0-1-1Zm5,17.39V15.45H5v-12H19v12H14.29"/><path class="cls-1" d="M14.82,10.93q-.24,2.7-2.52,2.7c-1.48,0-2.34-1-2.56-3H9.18V10h.51V9H9.18v-.6h.56c.21-2,1.06-3,2.56-3A2.29,2.29,0,0,1,14,6a3.23,3.23,0,0,1,.8,1.89H13.76a2.45,2.45,0,0,0-.47-1.27,1.2,1.2,0,0,0-1-.46c-.84,0-1.33.74-1.49,2.23h1.67l-.17.6H10.76V10H12l-.16.59h-1c.16,1.47.65,2.2,1.49,2.2s1.34-.63,1.46-1.89Z"/></svg>