<svg id="Layer_1" data-name="Layer 1" xmlns="http://www.w3.org/2000/svg" viewBox="0 0 64 64"><defs><style>.cls-1,.cls-2,.cls-3{fill:#fff;}.cls-1{opacity:0.6;isolation:isolate;}.cls-3{opacity:0.6;}</style></defs><path class="cls-1" d="M43.55,41.5h-23a1,1,0,0,1-1-1V28.35a.29.29,0,0,1,.3-.3.18.18,0,0,1,.15.05c1.1.9,2.5,2,7.55,5.95.15.1.3.25.5.4,1.05.85,2.5,2,4,2s3-1.25,4-2c.2-.15.35-.3.5-.4,4.85-3.75,6.4-5,7.5-5.95a.3.3,0,0,1,.2-.05.32.32,0,0,1,.3.3V40.5A1,1,0,0,1,43.55,41.5Zm-11.5-6.65c-.95,0-2.25-1.1-3.1-1.8H28.9a2.75,2.75,0,0,0-.45-.35c-6-4.65-6.85-5.4-8.15-6.45L20,26a1.42,1.42,0,0,1-.45-.95V23.5a1,1,0,0,1,1-1h23a1,1,0,0,1,1,1V25a1.33,1.33,0,0,1-.45,1l-.25.2c-1.3,1.1-2.1,1.75-8.2,6.5a2.75,2.75,0,0,0-.45.35h-.05v.05C34.3,33.8,33,34.85,32.05,34.85Z"/><path class="cls-2" d="M32.05,34.85c-.95,0-2.25-1.1-3.1-1.8H28.9a2.75,2.75,0,0,0-.45-.35c-6-4.65-6.85-5.4-8.15-6.45L20,26a1.42,1.42,0,0,1-.45-.95V23.5a1,1,0,0,1,1-1h23a1,1,0,0,1,1,1V25a1.33,1.33,0,0,1-.45,1l-.25.2c-1.3,1.1-2.1,1.75-8.2,6.5a2.75,2.75,0,0,0-.45.35h-.05v.05C34.3,33.8,33,34.85,32.05,34.85Z"/><path class="cls-2" d="M32.54,7v4A21,21,0,1,1,11.05,32h-4A25,25,0,1,0,32.54,7Z"/><path class="cls-3" d="M50.07,14.68l-2.83,2.84a21,21,0,1,1-30-.37l-2.82-2.83a25,25,0,1,0,35.69.36Z"/><polygon class="cls-2" points="20.84 9.06 32.59 15.84 32.59 2.27 20.84 9.06"/></svg>