<svg id="Layer_1" data-name="Layer 1" xmlns="http://www.w3.org/2000/svg" viewBox="0 0 24 24"><defs><style>.cls-1,.cls-2{fill:#1467ba;}.cls-2{stroke:#1467ba;stroke-miterlimit:10;stroke-width:0.5px;}</style></defs><path class="cls-1" d="M15,23.45A10.79,10.79,0,0,1,2.56,7.85l1,.53a9.7,9.7,0,0,0,11.12,14h0a9.67,9.67,0,0,0,6.64-12v0a9.66,9.66,0,0,0-9.49-7l0,2.13L9.51,4.21,7.15,2.9,11.77.12l0,2.17A10.79,10.79,0,0,1,15,23.45Z"/><path class="cls-2" d="M6.3,8.55a.54.54,0,0,0-.52.53v7.37A.54.54,0,0,0,6.3,17H17.89a.54.54,0,0,0,.52-.53V9.08a.54.54,0,0,0-.52-.53Zm0,.53H17.88v1.18l-5.79,4-5.79-4Zm0,1.83,2.82,2,2.83,2c.14.09.14.09.29,0l5.64-3.92v5.53H6.3Z"/></svg>