<svg id="Layer_1" data-name="Layer 1" xmlns="http://www.w3.org/2000/svg" viewBox="0 0 64 64"><defs><style>.cls-1,.cls-2{fill:#fff;}.cls-1{opacity:0.6;}</style></defs><polygon class="cls-1" points="26.71 45.1 37.29 45.1 36.225 39.899 32.495 39.899 31.494 39.899 27.775 39.899 26.71 45.1"/><path class="cls-1" d="M39.33087,45.09973H50.92944l-1.27722-2.07837h-.00006l-1.466-2.38556a1.54561,1.54561,0,0,0-1.31678-.73632H38.26562Z"/><path class="cls-1" d="M24.66876,45.09973,25.734,39.89948h-8.6034a1.5456,1.5456,0,0,0-1.31677.73632l-2.407,3.91681-.33625.54712Z"/><path class="cls-1" d="M56.79547,54.64526l-1.54035-2.50659-2.60839-4.24444h.00006l-.48822-.7945h-12.418L41.76855,57H55.4787A1.54554,1.54554,0,0,0,56.79547,54.64526Z"/><polygon class="cls-1" points="37.7 47.1 26.3 47.1 24.272 57 30.5 57 31.376 57 32.376 57 38.176 57 39.728 57 37.7 47.1"/><path class="cls-1" d="M24.25909,47.09973H11.84149L11.226,48.10132l-.45965.748L8.95312,51.79993H8.95306L7.20453,54.64526A1.5455,1.5455,0,0,0,8.52124,57H22.23108Z"/><path class="cls-2" d="M18.06589,25.29356a.65313.65313,0,0,1,.23794.535A5.21994,5.21994,0,0,0,25.676,30.571a.46318.46318,0,0,1,.50741.04746,11.42978,11.42978,0,0,0,1.30108.80466c.47984.23672.99764.39648,1.63779.64346a52.05916,52.05916,0,0,1,.06365,5.26675c-.14372,1.79249-.6061,3.55941-.93059,5.34741h6.20429c-.13072-.59112-.284-1.1693-.38317-1.75662a28.90841,28.90841,0,0,1-.54516-3.70931,19.97288,19.97288,0,0,1,.35213-3.17665.47485.47485,0,0,1,.12647-.27168c.72495-.6709,1.45767-1.3334,2.20505-2.0135a14.45147,14.45147,0,0,0,1.75108.62145,5.19428,5.19428,0,0,0,6.2341-4.25931.48832.48832,0,0,1,.32284-.43155A5.085,5.085,0,0,0,47.58947,23.732,4.95558,4.95558,0,0,0,46.56093,19.704a.56041.56041,0,0,1-.11073-.59311A5.20035,5.20035,0,0,0,42.404,12.43063a.67986.67986,0,0,1-.57457-.44387,5.19233,5.19233,0,0,0-7.08214-2.47219c-.10245.05232-.20659.10134-.31994.15679a1.98586,1.98586,0,0,1-.13543-.1676,5.19531,5.19531,0,0,0-3.82067-2.45728A.653.653,0,0,1,30.34224,7H29.22689a11.36317,11.36317,0,0,0-1.29279.36658,5.13925,5.13925,0,0,0-3.18837,3.69187c-.025.10042-.05092.20064-.07422.29234-.52513.03334-1.04884.02537-1.55856.10592a5.21054,5.21054,0,0,0-4.32344,5.245.54055.54055,0,0,1-.24831.5167,5.07634,5.07634,0,0,0-2.15212,3.88041,3.23934,3.23934,0,0,1-.05845.33489v.06973c.08217.46634.13272.941.25311,1.39729A4.84328,4.84328,0,0,0,18.06589,25.29356Z"/></svg>