<svg id="Layer_1" data-name="Layer 1" xmlns="http://www.w3.org/2000/svg" viewBox="0 0 32 32"><defs><style>.cls-1,.cls-2{fill:#66bb6a;}.cls-2{opacity:0.4;}</style></defs><path class="cls-1" d="M16.40311,20.95865a45.22975,45.22975,0,0,0,4.44123-6.15714,16.17986,16.17986,0,0,0,1.28023-2.54008,6.08294,6.08294,0,0,0,.28406-3.31566,6.27506,6.27506,0,0,0-3.87926-4.8789,6.23261,6.23261,0,0,0-6.39152.75618,6.24656,6.24656,0,0,0-2.51516,3.9186,6.33676,6.33676,0,0,0,.47928,4.07824,30.8915,30.8915,0,0,0,2.732,4.575q1.32531,1.89,2.82705,3.643a1.60246,1.60246,0,0,0,.26851.2063h.13825A2.63486,2.63486,0,0,0,16.40311,20.95865ZM15.996,13.43738a3.383,3.383,0,1,1,3.38746-3.38462A3.38992,3.38992,0,0,1,15.996,13.43738Z"/><polygon class="cls-2" points="13.358 22.543 18.642 22.543 18.11 19.946 16.247 19.946 15.748 19.946 13.89 19.946 13.358 22.543"/><path class="cls-2" d="M19.66154,22.54288h5.7931l-.63793-1.03807h0l-.73222-1.19151a.772.772,0,0,0-.65769-.36777H19.12948Z"/><path class="cls-2" d="M12.3383,22.54288l.532-2.59735H8.57324a.772.772,0,0,0-.65768.36777L6.71332,22.26961l-.16794.27327Z"/><path class="cls-2" d="M28.38452,27.31056l-.76935-1.252-1.3028-2.12h0l-.24385-.39682h-6.2024l1.01293,4.94485h6.84776A.77194.77194,0,0,0,28.38452,27.31056Z"/><polygon class="cls-2" points="18.847 23.542 13.153 23.542 12.14 28.487 15.251 28.487 15.688 28.487 16.188 28.487 19.085 28.487 19.86 28.487 18.847 23.542"/><path class="cls-2" d="M12.13368,23.54182H5.9315l-.30741.50025-.22958.3736-.90565,1.47374h0l-.87334,1.42115a.77192.77192,0,0,0,.65766,1.17611h6.84761Z"/></svg>