<svg id="Layer_1" data-name="Layer 1" xmlns="http://www.w3.org/2000/svg" viewBox="0 0 64 64"><defs><style>.cls-1,.cls-2{fill:#fff;}.cls-2{opacity:0.6;}</style></defs><path class="cls-1" d="M32.80708,41.92789A90.55436,90.55436,0,0,0,41.699,29.60046a32.39377,32.39377,0,0,0,2.56321-5.08558,12.17906,12.17906,0,0,0,.56872-6.63841,12.56354,12.56354,0,0,0-7.7668-9.76821,12.47851,12.47851,0,0,0-12.79668,1.514,12.50646,12.50646,0,0,0-5.03569,7.84556,12.68682,12.68682,0,0,0,.95959,8.16519,61.84635,61.84635,0,0,0,5.46982,9.15985q2.65346,3.7841,5.66013,7.29371a3.20811,3.20811,0,0,0,.5376.413h.2768A5.27557,5.27557,0,0,0,32.80708,41.92789Zm-.815-15.05859a6.77317,6.77317,0,1,1,6.78215-6.77647A6.78708,6.78708,0,0,1,31.99205,26.8693Z"/><polygon class="cls-2" points="26.71 45.1 37.29 45.1 36.225 39.899 32.495 39.899 31.494 39.899 27.775 39.899 26.71 45.1"/><path class="cls-2" d="M39.33087,45.09973H50.92944l-1.27722-2.07837h-.00006l-1.466-2.38556a1.54561,1.54561,0,0,0-1.31678-.73632H38.26562Z"/><path class="cls-2" d="M24.66876,45.09973,25.734,39.89948h-8.6034a1.5456,1.5456,0,0,0-1.31677.73632l-2.407,3.91681-.33625.54712Z"/><path class="cls-2" d="M56.79547,54.64526l-1.54035-2.50659-2.60839-4.24444h.00006l-.48822-.7945h-12.418L41.76855,57H55.4787A1.54554,1.54554,0,0,0,56.79547,54.64526Z"/><polygon class="cls-2" points="37.7 47.1 26.3 47.1 24.272 57 30.5 57 31.376 57 32.376 57 38.176 57 39.728 57 37.7 47.1"/><path class="cls-2" d="M24.25909,47.09973H11.84149L11.226,48.10132l-.45965.748L8.95312,51.79993H8.95306L7.20453,54.64526A1.5455,1.5455,0,0,0,8.52124,57H22.23108Z"/></svg>