<svg id="Layer_1" data-name="Layer 1" xmlns="http://www.w3.org/2000/svg" viewBox="0 0 32 32"><defs><style>.cls-1{fill:none;}.cls-2,.cls-3{fill:#66bb6a;}.cls-2{opacity:0.4;}</style></defs><path class="cls-1" d="M19.38351,10.05276a3.3848,3.3848,0,1,0-3.38745,3.38464A3.39214,3.39214,0,0,0,19.38351,10.05276Z"/><path class="cls-2" d="M14.77071,19.94552h-.88092l-.5321,2.59735h1.05084A7.06044,7.06044,0,0,1,15.576,20.93349C15.30068,20.60958,15.03738,20.27621,14.77071,19.94552Z"/><path class="cls-3" d="M16.6708,19.94552H14.77071c.26667.33069.53.66406.8053.988A9.47142,9.47142,0,0,1,16.6708,19.94552Z"/><path class="cls-2" d="M12.87032,19.94552h-4.297a.772.772,0,0,0-.65772.36773L6.71334,22.26961l-.168.27326h5.79291Z"/><path class="cls-2" d="M28.30819,27.1863a9.71693,9.71693,0,0,1-1.584,1.30035h1.00262a.772.772,0,0,0,.65772-1.17608Z"/><path class="cls-2" d="M13.9996,24.00027a2.41467,2.41467,0,0,1,.048-.45844H13.1531l-1.01294,4.94482H17.275C15.31826,27.19436,13.9996,25.34005,13.9996,24.00027Z"/><path class="cls-2" d="M5.62411,24.04207l-.22962.3736-.90564,1.47369L3.6155,27.31057a.7719.7719,0,0,0,.65766,1.17608h6.84759l1.01294-4.94482H5.93148Z"/><path class="cls-3" d="M22.40865,8.94576a6.27526,6.27526,0,0,0-3.87927-4.87891,6.23272,6.23272,0,0,0-6.39154.75617A6.2468,6.2468,0,0,0,9.6227,8.74166a6.337,6.337,0,0,0,.47925,4.07819,30.89233,30.89233,0,0,0,2.732,4.57507c.61358.87506,1.26648,1.7196,1.93676,2.5506.26667.33069.53.66406.8053.988a9.47142,9.47142,0,0,1,1.09479-.988,9.92365,9.92365,0,0,1,1.1842-.7865,42.26692,42.26692,0,0,0,2.98932-4.35755,16.17842,16.17842,0,0,0,1.28028-2.54A6.08309,6.08309,0,0,0,22.40865,8.94576ZM15.99606,13.4374a3.383,3.383,0,1,1,3.38745-3.38464A3.38994,3.38994,0,0,1,15.99606,13.4374Z"/><path class="cls-3" d="M21.99976,22.3h-.5a1.01974,1.01974,0,0,1,.5.8.89626.89626,0,0,1-.9.9,1.01974,1.01974,0,0,1-.8-.5V24a1.71035,1.71035,0,0,0,1.7,1.8,1.79252,1.79252,0,0,0,1.8-1.8A1.71035,1.71035,0,0,0,21.99976,22.3Z"/><path class="cls-3" d="M21.99976,20c-3.3,0-6,3-6,4s2.7,4,6,4,6-3,6-4S25.29976,20,21.99976,20Zm0,7a3,3,0,1,1,3-3A2.94645,2.94645,0,0,1,21.99976,27Z"/></svg>