<svg id="Layer_1" data-name="Layer 1" xmlns="http://www.w3.org/2000/svg" viewBox="0 0 32 32"><defs><style>.cls-1,.cls-2{fill:#66bb6a;}.cls-1{opacity:0.4;}</style></defs><polygon class="cls-1" points="13.358 22.543 18.642 22.543 18.11 19.946 16.247 19.946 15.748 19.946 13.89 19.946 13.358 22.543"/><path class="cls-1" d="M19.66153,22.54287h5.7931L24.8167,21.5048h0l-.73222-1.19151a.772.772,0,0,0-.65768-.36777H19.12948Z"/><path class="cls-1" d="M12.3383,22.54287l.53206-2.59735H8.57325a.772.772,0,0,0-.65768.36777L6.71333,22.26961l-.16794.27326Z"/><path class="cls-1" d="M28.38451,27.31055l-.76935-1.252-1.30281-2.12h0l-.24385-.39682H19.86615l1.01292,4.94485h6.84776A.77194.77194,0,0,0,28.38451,27.31055Z"/><polygon class="cls-1" points="18.847 23.542 13.153 23.542 12.14 28.487 15.251 28.487 15.688 28.487 16.188 28.487 19.085 28.487 19.86 28.487 18.847 23.542"/><path class="cls-1" d="M12.13369,23.54181H5.93151l-.30741.50026-.22958.37359L4.48887,25.8894h0l-.87333,1.42115a.77192.77192,0,0,0,.65765,1.17611h6.8476Z"/><path class="cls-2" d="M9.04039,12.65036a.32621.32621,0,0,1,.11885.26719,2.60718,2.60718,0,0,0,3.68216,2.36871.23135.23135,0,0,1,.25344.0237,5.70979,5.70979,0,0,0,.64984.4019c.23967.11824.49829.198.818.32139a26.00066,26.00066,0,0,1,.0318,2.63057c-.07178.89528-.30273,1.7778-.4648,2.67085h3.09883c-.06529-.29525-.14186-.584-.19138-.87738a14.44,14.44,0,0,1-.27229-1.85267,9.97547,9.97547,0,0,1,.17588-1.58663.23712.23712,0,0,1,.06317-.1357c.36209-.33509.728-.666,1.10134-1.00567a7.2194,7.2194,0,0,0,.87461.31039,2.59436,2.59436,0,0,0,3.11372-2.12738.24389.24389,0,0,1,.16125-.21554,2.53982,2.53982,0,0,0,1.5316-1.97366,2.47523,2.47523,0,0,0-.51372-2.01189.2799.2799,0,0,1-.05531-.29623,2.5974,2.5974,0,0,0-2.021-3.33655.33957.33957,0,0,1-.287-.2217,2.59339,2.59339,0,0,0-3.53729-1.23478c-.05117.02614-.10319.05062-.1598.07832a.99513.99513,0,0,1-.06764-.08371,2.59488,2.59488,0,0,0-1.9083-1.22733.32568.32568,0,0,1-.06442-.02322h-.55709a5.67877,5.67877,0,0,0-.6457.18309,2.56688,2.56688,0,0,0-1.59248,1.844c-.01252.05016-.02543.10021-.03707.146-.26229.01666-.52386.01268-.77845.05291A2.6025,2.6025,0,0,0,9.40181,8.359a.27.27,0,0,1-.124.25808,2.53543,2.53543,0,0,0-1.07492,1.93813,1.61742,1.61742,0,0,1-.02919.16726v.03483c.041.23292.06629.47.12642.6979A2.419,2.419,0,0,0,9.04039,12.65036Z"/></svg>