<svg id="Layer_1" data-name="Layer 1" xmlns="http://www.w3.org/2000/svg" viewBox="0 0 32 32"><defs><style>.cls-1,.cls-2{fill:#777;}.cls-2{opacity:0.4;}</style></defs><path class="cls-1" d="M16.00043,16a3.41517,3.41517,0,1,0-3.41517-3.41517A3.42154,3.42154,0,0,0,16.00043,16ZM10.65,22.83034H21.35086c.66027,0,.62612-.45536.62612-1.02455V20.78124a3.82537,3.82537,0,0,0-3.58593-3.64285,12.11227,12.11227,0,0,1-2.39062.45535c-1.43437,0-1.78158-.45535-2.39062-.45535a3.82537,3.82537,0,0,0-3.58592,3.64285v1.02455C10.02389,22.375,9.967,22.83034,10.65,22.83034Z"/><path class="cls-1" d="M7.3383,6.9898,8.757,8.40845a10.49524,10.49524,0,1,1-.18379,15.0153L7.159,24.838A12.5,12.5,0,1,0,7.3383,6.9898Z"/><path class="cls-2" d="M16.24738,3.50447V5.51075A10.49525,10.49525,0,1,1,5.5,15.99821h-2A12.5,12.5,0,1,0,16.24738,3.50447Z"/><polygon class="cls-1" points="3.925 11.85 10.476 10.095 5.681 5.299 3.925 11.85"/></svg>