<svg id="Layer_1" data-name="Layer 1" xmlns="http://www.w3.org/2000/svg" viewBox="0 0 24 24"><defs><style>.cls-1{fill:#1467ba;}</style></defs><path class="cls-1" d="M1.83,11.62a11,11,0,1,1,3,7.87l.81-.76a9.87,9.87,0,0,0,17.08-6.35v0a9.85,9.85,0,0,0-9.48-10.2h0A9.85,9.85,0,0,0,3,11.62v0"/><path class="cls-1" d="M5.45,9.75,2.83,8.94.2,8.14l.62,2.68.61,2.67,2-1.87Z"/><path class="cls-1" d="M13,7.5a2.43,2.43,0,0,0-1.73.81,5.2,5.2,0,0,0-.7,2,3,3,0,0,0,0,1.35A11.75,11.75,0,0,0,12,14.1s-3,.65-3.47,1.31a.81.81,0,0,0,0,1.09h9a.83.83,0,0,0,0-1.09c-.45-.66-3.44-1.31-3.44-1.31a12.23,12.23,0,0,0,1.39-2.43,3.23,3.23,0,0,0,0-1.39,5.41,5.41,0,0,0-.73-2A2.45,2.45,0,0,0,13,7.5Z"/></svg>