<svg id="Layer_1" data-name="Layer 1" xmlns="http://www.w3.org/2000/svg" viewBox="0 0 64 64"><defs><style>.cls-1,.cls-2{fill:#fff;}.cls-2{opacity:0.6;}</style></defs><path class="cls-1" d="M32.00086,32a6.83034,6.83034,0,1,0-6.83033-6.83034A6.84307,6.84307,0,0,0,32.00086,32ZM21.3,45.66067H42.70172c1.32054,0,1.25223-.91071,1.25223-2.0491v-2.0491c0-3.41517-3.21026-7.28569-7.17185-7.28569-1.14977,0-1.99218.91071-4.78124.91071-2.86874,0-3.56316-.91071-4.78123-.91071-3.9616,0-7.17186,3.87052-7.17186,7.28569v2.0491C20.04777,44.75,19.93393,45.66067,21.3,45.66067Z"/><path class="cls-1" d="M14.6766,13.97959l2.83731,2.83732a20.99049,20.99049,0,1,1-.36758,30.03059l-2.82842,2.82842a25,25,0,1,0,.35869-35.69633Z"/><path class="cls-2" d="M32.49475,7.00893v4.01258A20.99049,20.99049,0,1,1,11,31.99642H7A25,25,0,1,0,32.49475,7.00893Z"/><polygon class="cls-1" points="7.851 23.701 20.953 20.19 11.361 10.599 7.851 23.701"/></svg>