<svg id="Layer_1" data-name="Layer 1" xmlns="http://www.w3.org/2000/svg" viewBox="0 0 32 32"><defs><style>.cls-1,.cls-2,.cls-3{fill:#3c32c4;}.cls-2{opacity:0;}.cls-3{opacity:0.3;}.cls-4{fill:#fff;}</style></defs><path class="cls-1" d="M26.45,15h2A12.47,12.47,0,0,0,17,3.55v2A10.51,10.51,0,0,1,26.45,15Z"/><path class="cls-1" d="M5.55,17h-2A12.48,12.48,0,0,0,15,28.46v-2A10.51,10.51,0,0,1,5.55,17Z"/><path class="cls-1" d="M15,5.55v-2A12.47,12.47,0,0,0,3.55,15h2A10.51,10.51,0,0,1,15,5.55Z"/><path class="cls-1" d="M26,19.09a10.27,10.27,0,0,1,1.72,1.19A12,12,0,0,0,28.45,17h-2A10.34,10.34,0,0,1,26,19.09Z"/><path class="cls-1" d="M17,28.46l.19,0L17,28.3Z"/><path class="cls-2" d="M17,5.55v2A8.52,8.52,0,0,1,24.44,15h2A10.51,10.51,0,0,0,17,5.55Z"/><path class="cls-2" d="M24.44,17a9.65,9.65,0,0,1-.27,1.32,9.14,9.14,0,0,1,1.85.77A10.34,10.34,0,0,0,26.45,17Z"/><path class="cls-2" d="M7.56,17h-2A10.51,10.51,0,0,0,15,26.45V26.4a4.65,4.65,0,0,1-1-2.15A8.49,8.49,0,0,1,7.56,17Z"/><path class="cls-2" d="M5.55,15h2A8.51,8.51,0,0,1,15,7.57v-2A10.51,10.51,0,0,0,5.55,15Z"/><path class="cls-3" d="M9.58,17h-2A8.49,8.49,0,0,0,14,24.25,2.06,2.06,0,0,1,14,24a3.61,3.61,0,0,1,.54-1.69A6.5,6.5,0,0,1,9.58,17Z"/><path class="cls-3" d="M17,7.57v2A6.47,6.47,0,0,1,22.42,15h2A8.52,8.52,0,0,0,17,7.57Z"/><path class="cls-3" d="M7.56,15h2A6.48,6.48,0,0,1,15,9.59v-2A8.51,8.51,0,0,0,7.56,15Z"/><path class="cls-3" d="M22.42,17a6.65,6.65,0,0,1-.25,1,7.81,7.81,0,0,1,2,.32A9.65,9.65,0,0,0,24.44,17Z"/><path class="cls-2" d="M20.38,17a4.3,4.3,0,0,1-.53,1.31A7.7,7.7,0,0,1,22,18h.18a6.65,6.65,0,0,0,.25-1Z"/><path class="cls-2" d="M9.58,15h2A4.51,4.51,0,0,1,15,11.61v-2A6.48,6.48,0,0,0,9.58,15Z"/><path class="cls-2" d="M17,9.59v2A4.51,4.51,0,0,1,20.38,15h2A6.47,6.47,0,0,0,17,9.59Z"/><path class="cls-2" d="M11.62,17h-2a6.5,6.5,0,0,0,4.95,5.3c.14-.23.29-.47.47-.71V20.38A4.49,4.49,0,0,1,11.62,17Z"/><path class="cls-1" d="M18.29,17A2.57,2.57,0,0,1,17,18.29v1.4a9.42,9.42,0,0,1,2.85-1.38A4.3,4.3,0,0,0,20.38,17Z"/><path class="cls-1" d="M11.62,15h2.09A2.5,2.5,0,0,1,15,13.71v-2.1A4.51,4.51,0,0,0,11.62,15Z"/><path class="cls-1" d="M15,20.38V18.29A2.57,2.57,0,0,1,13.71,17H11.62A4.49,4.49,0,0,0,15,20.38Z"/><path class="cls-1" d="M17,11.61v2.1A2.5,2.5,0,0,1,18.29,15h2.09A4.51,4.51,0,0,0,17,11.61Z"/><path class="cls-2" d="M7.56,17h6.15A2.57,2.57,0,0,0,15,18.29v3.3a9.13,9.13,0,0,1,2-1.9v-1.4A2.57,2.57,0,0,0,18.29,17H28.45c0-.33.05-.65.05-1v0c0-.33,0-.66-.05-1H18.29A2.5,2.5,0,0,0,17,13.71V3.55c-.32,0-.66,0-1,0h0c-.34,0-.67,0-1,0V13.71A2.5,2.5,0,0,0,13.71,15H3.55a8.37,8.37,0,0,0,0,1,8.27,8.27,0,0,0,0,1h4Z"/><path class="cls-2" d="M15,26.4v2.06c.33,0,.67,0,1,0s.67,0,1,0V28.3A9.13,9.13,0,0,1,15,26.4Z"/><path class="cls-1" d="M23.8,24A1.71,1.71,0,0,0,22,22.3h-.5a1,1,0,0,1,.5.8.9.9,0,0,1-.9.9,1,1,0,0,1-.8-.5V24A1.71,1.71,0,0,0,22,25.8,1.79,1.79,0,0,0,23.8,24Z"/><path class="cls-1" d="M22,20c-3.3,0-6,3-6,4s2.7,4,6,4,6-3,6-4S25.3,20,22,20Zm0,7a3,3,0,1,1,3-3A2.95,2.95,0,0,1,22,27Z"/><path class="cls-4" d="M25,24a3,3,0,1,0-3,3A2.95,2.95,0,0,0,25,24Zm-4.7,0v-.5a1,1,0,0,0,.8.5.9.9,0,0,0,.9-.9,1,1,0,0,0-.5-.8H22A1.71,1.71,0,0,1,23.8,24,1.79,1.79,0,0,1,22,25.8,1.71,1.71,0,0,1,20.3,24Z"/></svg>