<svg id="Layer_1" data-name="Layer 1" xmlns="http://www.w3.org/2000/svg" viewBox="0 0 32 32"><defs><style>.cls-1,.cls-2,.cls-3{fill:#008ab2;}.cls-2,.cls-3{opacity:0.4;}.cls-2{isolation:isolate;}</style></defs><path class="cls-1" d="M14.8047,20.09,16,18.8938l5.3262-5.3261a.4853.4853,0,0,0,0-.5435L20.131,11.8284a.4846.4846,0,0,0-.5436,0l-5.1088,5-2.0653-2.0649a.4929.4929,0,0,0-.5435,0l-1.1957,1.1953a.4859.4859,0,0,0,0,.5439L14.2612,20.09A.3081.3081,0,0,0,14.8047,20.09Z"/><path class="cls-1" d="M24.8335,24.8387a12.6552,12.6552,0,0,1-2.49,1.92,13.2032,13.2032,0,0,1-1.64.82c-.35.14-.69.26-1.04.37a12.35,12.35,0,0,1-1.46.34,13.0012,13.0012,0,0,1-1.75.19c-.02,0-.05.01-.07.01h-.12c-.11.01-.23,0-.35,0h-.11l-12.3.01v-2.01h12.76v.01c-.05.01-.1.03-.16.04.06.02.11.02.16.04v-.08c.03,0,.05-.01.08-.01h.03a.0363.0363,0,0,1,.03-.01,10.4881,10.4881,0,1,0-7.45-18.24l1.97,1.29-6.04,3.07.36-6.77,1.99,1.29.12-.14a12.4959,12.4959,0,0,1,17.48,17.86Z"/><path class="cls-1" d="M16.4035,26.4788a.0363.0363,0,0,0-.03.01h-.03c-.03,0-.05.01-.08.01v-.01h-.19C16.1835,26.489,16.2935,26.489,16.4035,26.4788Z"/><path class="cls-2" d="M5.6459,17.6971l-.0007-.004-.0025-.0161a1.0022,1.0022,0,0,0-.9874-.8413,1.0493,1.0493,0,0,0-.16.0127.9987.9987,0,0,0-.8274,1.146l.0053.0322a.9987.9987,0,0,0,.9845.8394,1.0208,1.0208,0,0,0,.1624-.0132,1.0021,1.0021,0,0,0,.827-1.1484l-.001-.0064Z"/><path class="cls-2" d="M13.8635,26.489h-1.54a1.0024,1.0024,0,0,1,.77-.37,1.1334,1.1334,0,0,1,.25.03c.01,0,.02.01.03.01A.9729.9729,0,0,1,13.8635,26.489Z"/><path class="cls-2" d="M10.9235,26.3587a.6357.6357,0,0,1-.1.13h-1.51a.9779.9779,0,0,1-.12-1.18.9873.9873,0,0,1,1.37-.33h.01l.01.01A.9879.9879,0,0,1,10.9235,26.3587Z"/><path class="cls-2" d="M4.4731,15.5555a1.0006,1.0006,0,0,0,1.1175-.8682l.0014-.0108.0005-.0043v-.0015L5.594,14.66a1.0015,1.0015,0,0,0-.8668-1.1186A1.0238,1.0238,0,0,0,4.6,13.533a.9989.9989,0,0,0-.9895.874l-.0041.0322A.9985.9985,0,0,0,4.4731,15.5555Z"/><path class="cls-2" d="M6.5578,20.5764l0,0-.0025-.0049-.001-.002-.0067-.0141a1,1,0,0,0-1.8011.87l.0143.03A1,1,0,0,0,6.5593,20.58Z"/><path class="cls-2" d="M6.7785,24.4251a1,1,0,0,0,1.4771-1.3487l-.0095-.01-.0007-.001h0l-.0089-.01a1,1,0,1,0-1.48,1.3457Z"/><path class="cls-1" d="M16.2635,26.4988v.08c-.05-.02-.1-.02-.16-.04C16.1635,26.5291,16.2135,26.5091,16.2635,26.4988Z"/><path class="cls-2" d="M16.2635,26.4988v.08c-.05-.02-.1-.02-.16-.04C16.1635,26.5291,16.2135,26.5091,16.2635,26.4988Z"/><path class="cls-3" d="M22.6835,27.4988a.9913.9913,0,0,1-1.98.08,13.2032,13.2032,0,0,0,1.64-.82A.9617.9617,0,0,1,22.6835,27.4988Z"/><path class="cls-3" d="M19.6635,27.949a1.01,1.01,0,0,1-.88.55.9757.9757,0,0,1-.58-.21A12.35,12.35,0,0,0,19.6635,27.949Z"/><path class="cls-3" d="M24.5951,26.4939a1,1,0,1,0,1,1A1.0008,1.0008,0,0,0,24.5951,26.4939Z"/><path class="cls-3" d="M28.48,27.3a1.09,1.09,0,0,0-.06-.1856.9558.9558,0,0,0-.09-.1748.9282.9282,0,0,0-.125-.1494.9994.9994,0,0,0-.9-.2754,1.2243,1.2243,0,0,0-.19.0547,1.1438,1.1438,0,0,0-.17.0957.83.83,0,0,0-.1553.125,1.2784,1.2784,0,0,0-.125.1494.9812.9812,0,0,0-.09.1748A.8114.8114,0,0,0,26.52,27.3a.8724.8724,0,0,0-.02.1943.989.989,0,0,0,.29.7051.8542.8542,0,0,0,.1553.1255.8024.8024,0,0,0,.17.0952,1.2712,1.2712,0,0,0,.1851.0547.8958.8958,0,0,0,.2.02.8586.8586,0,0,0,.1953-.02,1.1126,1.1126,0,0,0,.185-.0547,1.1554,1.1554,0,0,0,.3248-.2207.9732.9732,0,0,0,.2949-.7051A1.2431,1.2431,0,0,0,28.48,27.3Z"/></svg>