<svg id="Layer_1" data-name="Layer 1" xmlns="http://www.w3.org/2000/svg" viewBox="0 0 32 32"><defs><style>.cls-1,.cls-2,.cls-3{fill:#008ab2;}.cls-2,.cls-3{opacity:0.4;}.cls-2{isolation:isolate;}.cls-4{fill:#fff;}</style></defs><path class="cls-1" d="M14.8047,20.09,16,18.8938l5.3263-5.3261a.4853.4853,0,0,0,0-.5435L20.131,11.8284a.4845.4845,0,0,0-.5435,0l-5.1089,5-2.0653-2.0649a.4929.4929,0,0,0-.5435,0l-1.1957,1.1953a.4859.4859,0,0,0,0,.5439L14.2612,20.09A.3081.3081,0,0,0,14.8047,20.09Z"/><path class="cls-1" d="M17.1937,28.429c-.25.03-.5.04-.74.05-.02,0-.05.01-.07.01h-.12v.01H3.5037v-2.01h11.57c.06.08.13.15.19.23.08.1.17.19.25.29a10.3848,10.3848,0,0,0,.75.72c.14.11.27.22.41.33.1.08.2.15.3.23C17.0437,28.3387,17.1237,28.3787,17.1937,28.429Z"/><path class="cls-1" d="M24.8373,7.16A12.4971,12.4971,0,0,0,7.356,6.9739L7.23,7.12,5.245,5.8269l-.3641,6.7725,6.0473-3.0713L8.9514,8.241a10.4832,10.4832,0,0,1,17.0751,10.85,9.9233,9.9233,0,0,1,1.7071,1.1821A12.4905,12.4905,0,0,0,24.8373,7.16Z"/><path class="cls-2" d="M6.7786,24.4251a1,1,0,0,0,1.4771-1.3487l-.01-.01-.0007-.001h0l-.0089-.01a1,1,0,1,0-1.48,1.3457Z"/><path class="cls-2" d="M6.5578,20.5764l0,0-.0026-.0049-.0009-.002-.0066-.0141a1,1,0,0,0-1.8012.87l.0143.03A1,1,0,0,0,6.5593,20.58Z"/><path class="cls-2" d="M13.8637,26.489h-1.54a1.0024,1.0024,0,0,1,.77-.37,1.1334,1.1334,0,0,1,.25.03c.01,0,.02.01.03.01A.9729.9729,0,0,1,13.8637,26.489Z"/><path class="cls-2" d="M5.6459,17.6971l-.0006-.004-.0026-.0161a1.0022,1.0022,0,0,0-.9874-.8413,1.047,1.047,0,0,0-.16.0127.9986.9986,0,0,0-.8274,1.146l.0052.0322a.9987.9987,0,0,0,.9844.8394,1.0211,1.0211,0,0,0,.1625-.0132,1.0021,1.0021,0,0,0,.827-1.1484L5.646,17.698Z"/><path class="cls-2" d="M10.9237,26.3587a.6357.6357,0,0,1-.1.13h-1.51a.9779.9779,0,0,1-.12-1.18.9873.9873,0,0,1,1.37-.33h.01l.01.01A.9879.9879,0,0,1,10.9237,26.3587Z"/><path class="cls-2" d="M4.4731,15.5555a1.0006,1.0006,0,0,0,1.1175-.8682l.0014-.0108.0005-.0043v-.0015L5.594,14.66a1.0016,1.0016,0,0,0-.8668-1.1186A1.0226,1.0226,0,0,0,4.6,13.533a.9989.9989,0,0,0-.9895.874l-.0041.0322A.9985.9985,0,0,0,4.4731,15.5555Z"/><path class="cls-3" d="M28.42,27.114c-.0051-.0126-.0127-.0224-.0182-.0351a9.5728,9.5728,0,0,1-1.45,1.249.7857.7857,0,0,0,.1632.0918,1.2712,1.2712,0,0,0,.1851.0547.8964.8964,0,0,0,.2.02.8581.8581,0,0,0,.1953-.02A1.1166,1.1166,0,0,0,27.88,28.42a1.1569,1.1569,0,0,0,.3247-.2207.9736.9736,0,0,0,.2949-.7051,1.2553,1.2553,0,0,0-.02-.1943A1.09,1.09,0,0,0,28.42,27.114Z"/><path class="cls-1" d="M23.7951,23.9954a1.67,1.67,0,0,0-.19-.7734,1.771,1.771,0,0,0-1.61-.9268h-.5a1.02,1.02,0,0,1,.5.8.8962.8962,0,0,1-.9.9,1.02,1.02,0,0,1-.8-.5v.5a1.8454,1.8454,0,0,0,.53,1.3237,1.6344,1.6344,0,0,0,1.17.4761A1.7923,1.7923,0,0,0,23.7951,23.9954Z"/><path class="cls-1" d="M27.9951,23.9954a3.422,3.422,0,0,0-1.1431-1.8169,8.1187,8.1187,0,0,0-1.596-1.23,6.4758,6.4758,0,0,0-3.2609-.9531c-3.3,0-6,3-6,4a4.3164,4.3164,0,0,0,1.7263,2.3437c.1518.1236.3108.2452.4784.3623a7.67,7.67,0,0,0,1.5693.8472c.1672.0664.3375.127.5117.18.1566.0478.3154.0913.4771.1269a5.7227,5.7227,0,0,0,1.2372.14,5.54,5.54,0,0,0,.5581-.0313,5.956,5.956,0,0,0,1.0881-.2172,7.2394,7.2394,0,0,0,1.77-.7979C26.969,25.9842,27.9951,24.6111,27.9951,23.9954Zm-6,3c-.0154,0-.0293-.0044-.0447-.0044a3.1058,3.1058,0,0,1-.9887-.18,2.8892,2.8892,0,0,1-1.3435-.9707,3.0041,3.0041,0,0,1-.6231-1.8452,3.0112,3.0112,0,0,1,5.4409-1.7676,3.0192,3.0192,0,0,1,.5591,1.7676,3.1333,3.1333,0,0,1-.1115.7915,2.9022,2.9022,0,0,1-2.3826,2.16A3.1843,3.1843,0,0,1,21.9951,26.9954Z"/><path class="cls-4" d="M24.8836,24.7869a3.1333,3.1333,0,0,0,.1115-.7915,3.0192,3.0192,0,0,0-.5591-1.7676,3.0112,3.0112,0,0,0-5.4409,1.7676,3.0041,3.0041,0,0,0,.6231,1.8452,2.8892,2.8892,0,0,0,1.3435.9707,3.1058,3.1058,0,0,0,.9887.18c.0154,0,.0293.0044.0447.0044a3.1843,3.1843,0,0,0,.5059-.0488A2.9022,2.9022,0,0,0,24.8836,24.7869Zm-4.0583.5322a1.8454,1.8454,0,0,1-.53-1.3237v-.5a1.02,1.02,0,0,0,.8.5.8962.8962,0,0,0,.9-.9,1.02,1.02,0,0,0-.5-.8h.5a1.771,1.771,0,0,1,1.61.9268,1.67,1.67,0,0,1,.19.7734,1.7923,1.7923,0,0,1-1.8,1.8A1.6344,1.6344,0,0,1,20.8253,25.3191Z"/></svg>