<svg id="Layer_1" data-name="Layer 1" xmlns="http://www.w3.org/2000/svg" viewBox="0 0 24 24"><defs><style>.cls-1{fill:#1467ba;}</style></defs><polygon class="cls-1" points="17.116 9.57 16.251 8.704 10.957 13.996 7.749 10.79 6.884 11.656 10.957 15.729 17.116 9.57"/><path class="cls-1" d="M13.1941,1.0159a11.0091,11.0091,0,0,0-10.88,7.771L.1991,8.14l.618,2.6772.618,2.6768,2.01-1.874,2.009-1.8731-2.07-.6323a9.8412,9.8412,0,0,1,9.7717-6.9726l.0361.0014A9.8461,9.8461,0,0,1,22.67,12.344l-.0013.0371a9.8463,9.8463,0,0,1-10.2017,9.4771L7.9852,21.86H.1991v1.1265H12.814v-.0088a10.9842,10.9842,0,0,0,.38-21.9619Z"/></svg>