<svg id="Layer_1" data-name="Layer 1" xmlns="http://www.w3.org/2000/svg" viewBox="0 0 32 32"><defs><style>.cls-1{fill:#e03c24;}.cls-2{fill:#fff;}.cls-3,.cls-5{fill:#ca0821;}.cls-4{fill:none;}.cls-5{opacity:0.2;isolation:isolate;}</style></defs><path class="cls-1" d="M24.87,24.89a2.89,2.89,0,0,1-2.25,2.05A3,3,0,0,0,24.87,24.89Z"/><path class="cls-1" d="M24.87,23.11a3,3,0,0,0-2.25-2.05A2.89,2.89,0,0,1,24.87,23.11Z"/><path class="cls-1" d="M21.38,21.06a3,3,0,0,0-2.32,2.32A2.9,2.9,0,0,1,21.38,21.06Z"/><path class="cls-1" d="M21.38,26.94a2.9,2.9,0,0,1-2.32-2.32A3,3,0,0,0,21.38,26.94Z"/><path class="cls-2" d="M24.87,23.11a2.46,2.46,0,0,0-.14-.38A3.11,3.11,0,0,0,23,21.17a2.62,2.62,0,0,0-.4-.11h0A3.08,3.08,0,0,0,22,21a2.91,2.91,0,0,0-.6.06h0a3,3,0,0,0-.43.12A3.09,3.09,0,0,0,19.18,23a3,3,0,0,0-.12.43,3.23,3.23,0,0,0,0,1.24,3,3,0,0,0,.12.43A3.09,3.09,0,0,0,21,26.82a3,3,0,0,0,.43.12h0A2.91,2.91,0,0,0,22,27a3.08,3.08,0,0,0,.61-.06h0a2.62,2.62,0,0,0,.4-.11,3.11,3.11,0,0,0,1.71-1.56,2.46,2.46,0,0,0,.14-.38,3.11,3.11,0,0,0,0-1.78ZM22,25.8A1.71,1.71,0,0,1,20.3,24v-.5a1,1,0,0,0,.8.5.9.9,0,0,0,.9-.9,1,1,0,0,0-.5-.8H22A1.71,1.71,0,0,1,23.8,24,1.79,1.79,0,0,1,22,25.8Z"/><path class="cls-3" d="M25.5,21.1A6.54,6.54,0,0,0,22,20c-3.3,0-6,3-6,4s2.7,4,6,4a6.54,6.54,0,0,0,3.5-1.1C27,25.94,28,24.61,28,24S27,22.06,25.5,21.1Zm-.63,3.79a2.46,2.46,0,0,1-.14.38A2.84,2.84,0,0,1,23,26.83a2.62,2.62,0,0,1-.4.11h0A3.08,3.08,0,0,1,22,27a2.91,2.91,0,0,1-.6-.06h0a3,3,0,0,1-.43-.12,2.83,2.83,0,0,1-1.77-1.77,3,3,0,0,1-.12-.43,3.23,3.23,0,0,1,0-1.24,3,3,0,0,1,.12-.43A2.83,2.83,0,0,1,21,21.18a3,3,0,0,1,.43-.12h0A2.91,2.91,0,0,1,22,21a3.08,3.08,0,0,1,.61.06h0a2.62,2.62,0,0,1,.4.11,2.84,2.84,0,0,1,1.71,1.56,2.46,2.46,0,0,1,.14.38,3.11,3.11,0,0,1,0,1.78Z"/><path class="cls-3" d="M23.8,24A1.79,1.79,0,0,1,22,25.8,1.71,1.71,0,0,1,20.3,24v-.5a1,1,0,0,0,.8.5.9.9,0,0,0,.9-.9,1,1,0,0,0-.5-.8H22A1.71,1.71,0,0,1,23.8,24Z"/><path class="cls-4" d="M19.79,20.31a1.39,1.39,0,0,0,1-.42,1.42,1.42,0,0,0,.41-1,1.34,1.34,0,0,0-.26-.79,8.91,8.91,0,0,0-2.61.81,1.42,1.42,0,0,0,.42,1A1.37,1.37,0,0,0,19.79,20.31Z"/><path class="cls-5" d="M13.23,14.15a1.37,1.37,0,0,0,.42-1,1.39,1.39,0,0,0-.42-1,1.37,1.37,0,0,0-1-.42,1.4,1.4,0,0,0-1,.42,1.42,1.42,0,0,0-.41,1,1.4,1.4,0,0,0,.41,1,1.43,1.43,0,0,0,1,.42A1.41,1.41,0,0,0,13.23,14.15Z"/><path class="cls-5" d="M20.81,17.85a1.43,1.43,0,0,0-1-.42,1.41,1.41,0,0,0-1,.42,1.37,1.37,0,0,0-.42,1v0A8.91,8.91,0,0,1,21,18.08C20.91,18,20.87,17.92,20.81,17.85Z"/><path class="cls-5" d="M24.5,3.5H7.5a1,1,0,0,0-1,1v23a1,1,0,0,0,1,1h9.8c-2-1.29-3.3-3.16-3.3-4.5a5.24,5.24,0,0,1,1.79-3.29l.63-.57c.17-.14.35-.28.54-.41a3.09,3.09,0,0,1-.14-.86,2.91,2.91,0,0,1,.23-1.15,3.12,3.12,0,0,1,.64-.95,3,3,0,0,1,.94-.63,2.8,2.8,0,0,1,1.16-.23,2.83,2.83,0,0,1,1.16.23,3,3,0,0,1,1.57,1.58,1.7,1.7,0,0,1,.1.32,8.5,8.5,0,0,1,2.88.79V4.5A1,1,0,0,0,24.5,3.5ZM10.12,15.23a2.9,2.9,0,0,1-.87-2.1A2.88,2.88,0,0,1,9.48,12a3,3,0,0,1,.64-1,3.2,3.2,0,0,1,.94-.64,3.14,3.14,0,0,1,2.31,0,3.07,3.07,0,0,1,.94.64A3.12,3.12,0,0,1,15,12a2.72,2.72,0,0,1,.23,1.15A2.83,2.83,0,0,1,15,14.29a3.2,3.2,0,0,1-.64.94,3.07,3.07,0,0,1-.94.64,3,3,0,0,1-2.31,0A3.2,3.2,0,0,1,10.12,15.23Zm3.24,6.92L12,21.55l6.63-11.7,1.33.6Z"/><path class="cls-3" d="M21.88,16.77a2.94,2.94,0,0,0-.93-.63,2.83,2.83,0,0,0-1.16-.23,2.8,2.8,0,0,0-1.16.23,3,3,0,0,0-.94.63,3.12,3.12,0,0,0-.64.95,2.91,2.91,0,0,0-.23,1.15,3.09,3.09,0,0,0,.14.86,10.69,10.69,0,0,1,1.39-.84v0a1.37,1.37,0,0,1,.42-1,1.41,1.41,0,0,1,1-.42,1.43,1.43,0,0,1,1,.42c.06.07.1.16.15.23A7.17,7.17,0,0,1,22,18c.21,0,.42,0,.62,0a1.7,1.7,0,0,0-.1-.32A3,3,0,0,0,21.88,16.77Z"/><path class="cls-3" d="M13.37,15.87a3.07,3.07,0,0,0,.94-.64,3.2,3.2,0,0,0,.64-.94,2.83,2.83,0,0,0,.23-1.16A2.72,2.72,0,0,0,15,12a3.12,3.12,0,0,0-.64-1,3.07,3.07,0,0,0-.94-.64,3.14,3.14,0,0,0-2.31,0,3.2,3.2,0,0,0-.94.64,3,3,0,0,0-.64,1,2.88,2.88,0,0,0-.23,1.15,2.9,2.9,0,0,0,.87,2.1,3.2,3.2,0,0,0,.94.64,3,3,0,0,0,2.31,0Zm-2.59-2.74a1.42,1.42,0,0,1,.41-1,1.4,1.4,0,0,1,1-.42,1.37,1.37,0,0,1,1,.42,1.39,1.39,0,0,1,.42,1,1.37,1.37,0,0,1-.42,1,1.41,1.41,0,0,1-1,.42,1.43,1.43,0,0,1-1-.42A1.4,1.4,0,0,1,10.78,13.13Z"/><polygon class="cls-3" points="12.04 21.55 13.36 22.15 20 10.45 18.67 9.85 12.04 21.55"/></svg>