<svg id="Layer_1" data-name="Layer 1" xmlns="http://www.w3.org/2000/svg" viewBox="0 0 24 24"><defs><style>.cls-1{fill:#1467ba;}</style></defs><path class="cls-1" d="M17.05,11.88a3.75,3.75,0,0,0-1.54.3,4.18,4.18,0,0,0-1.26.85,4.06,4.06,0,0,0-.85,1.26,3.87,3.87,0,0,0-.3,1.53,4,4,0,0,0,.3,1.55,4.13,4.13,0,0,0,.85,1.25,4.21,4.21,0,0,0,1.26.86,3.92,3.92,0,0,0,1.54.3,4,4,0,0,0,1.55-.3,4.11,4.11,0,0,0,2.1-2.11,3.79,3.79,0,0,0,.3-1.55,3.7,3.7,0,0,0-.3-1.53A4.06,4.06,0,0,0,19.85,13a4.13,4.13,0,0,0-1.25-.85,3.86,3.86,0,0,0-1.55-.3Zm0,5.86a1.9,1.9,0,0,1-1.92-1.92,1.83,1.83,0,0,1,.56-1.35,1.93,1.93,0,0,1,2.72,0A1.83,1.83,0,0,1,19,15.82a1.9,1.9,0,0,1-1.92,1.92Z"/><path class="cls-1" d="M7,4.22a4,4,0,0,0-1.55.3,4.21,4.21,0,0,0-1.26.86A4.13,4.13,0,0,0,3.3,6.63a4.13,4.13,0,0,0,0,3.09A4.13,4.13,0,0,0,4.15,11a4.18,4.18,0,0,0,1.26.85A3.8,3.8,0,0,0,7,12.13a3.74,3.74,0,0,0,1.53-.31A4.06,4.06,0,0,0,9.75,11a4.13,4.13,0,0,0,.85-1.25,3.78,3.78,0,0,0,.3-1.54,3.79,3.79,0,0,0-.3-1.55,4.13,4.13,0,0,0-.85-1.25,4.09,4.09,0,0,0-1.26-.86A3.9,3.9,0,0,0,7,4.22Zm0,5.87a1.87,1.87,0,0,1-1.37-.56A1.83,1.83,0,0,1,5,8.18,1.9,1.9,0,0,1,7,6.26a1.83,1.83,0,0,1,1.35.55,1.87,1.87,0,0,1,.56,1.37A1.91,1.91,0,0,1,7,10.09Z"/><polygon class="cls-1" points="15.56 3.79 6.72 19.4 8.48 20.2 17.33 4.6 15.56 3.79 15.56 3.79"/></svg>