<svg id="Layer_1" data-name="Layer 1" xmlns="http://www.w3.org/2000/svg" viewBox="0 0 32 32"><defs><style>.cls-1,.cls-2{fill:#3e87cf;}.cls-1{opacity:0.6;}.cls-3{fill:#fff;}</style></defs><path class="cls-1" d="M10.32,11.86H4.52A.61.61,0,0,0,4.16,13l3.11,2.26A5.12,5.12,0,0,1,10.32,11.86Z"/><path class="cls-1" d="M21.21,18a.63.63,0,0,1,.24-.45L27.84,13a.61.61,0,0,0-.36-1.1H19.59a.62.62,0,0,1-.58-.42l-2.43-7.5a.61.61,0,0,0-1.16,0L13,11.44a.53.53,0,0,1-.08.15,5.09,5.09,0,0,1,4.18,4.93,5,5,0,0,1-2.06,4h.13a5.52,5.52,0,0,1,.71.11A9.43,9.43,0,0,1,21.21,18Z"/><path class="cls-2" d="M14,24a4.37,4.37,0,0,1,1.07-2.48,16.71,16.71,0,0,1-3,.5c-1.76,0-2.24-.5-3-.5A4.75,4.75,0,0,0,4.59,26v1.24c0,.71.18,1.25,1,1.25H17.32C15.34,27.22,14,25.35,14,24Z"/><circle class="cls-2" cx="12.09" cy="16.52" r="4"/><path class="cls-3" d="M22,27a3,3,0,0,0,3-3A3,3,0,0,1,22,27Z"/><path class="cls-3" d="M19.56,25.73v0A3,3,0,0,0,22,27,3,3,0,0,1,19.56,25.73Z"/><path class="cls-3" d="M25,24a2.94,2.94,0,0,0-2.88-3h0A3,3,0,0,1,25,24Z"/><path class="cls-3" d="M19,24a3.07,3.07,0,0,1,.32-1.29h0A3.07,3.07,0,0,0,19,24Z"/><path class="cls-3" d="M22.12,21h0Z"/><path class="cls-3" d="M22,21a3,3,0,0,0-2.69,1.66h0A3,3,0,0,1,22,21Z"/><path class="cls-3" d="M19,24v0Z"/><path class="cls-3" d="M19,24a3,3,0,0,0,.56,1.77v0A3,3,0,0,1,19,24Z"/><path class="cls-2" d="M23.8,24a1.65,1.65,0,0,0-1.23-1.61l.87,2.68A1.81,1.81,0,0,0,23.8,24Z"/><path class="cls-2" d="M21.82,25.78l-1.34-1A1.62,1.62,0,0,0,21.82,25.78Z"/><path class="cls-2" d="M22,25.8a1.77,1.77,0,0,0,1.44-.73l-.87-2.68A2.12,2.12,0,0,0,22,22.3h-.5a1,1,0,0,1,.5.8.9.9,0,0,1-.9.9,1,1,0,0,1-.8-.5V24a2,2,0,0,0,.18.81l1.34,1Z"/><path class="cls-2" d="M25,24a3,3,0,0,1-5.44,1.77,2.3,2.3,0,0,1,0,.26v1.24a1.27,1.27,0,0,1,0,.2A6.11,6.11,0,0,0,22,28c3.3,0,6-3,6-4s-2.7-4-6-4h-.2l.32,1A2.94,2.94,0,0,1,25,24Z"/><path class="cls-2" d="M19,24a3.07,3.07,0,0,1,.31-1.3A5.87,5.87,0,0,0,18,21.47a7,7,0,0,0-.8.69A4.87,4.87,0,0,1,19,24Z"/><path class="cls-2" d="M19.31,22.66A3,3,0,0,1,22,21h.12l-.32-1A7,7,0,0,0,18,21.47,5.87,5.87,0,0,1,19.31,22.66Z"/><path class="cls-2" d="M19.59,26a2.3,2.3,0,0,0,0-.26A3,3,0,0,1,19,24v0a4.87,4.87,0,0,0-1.83-1.8A3.47,3.47,0,0,0,16,24c0,.74,1.48,2.57,3.58,3.47a1.27,1.27,0,0,0,0-.2Z"/></svg>