<svg id="Layer_1" data-name="Layer 1" xmlns="http://www.w3.org/2000/svg" viewBox="0 0 32 32"><defs><style>.cls-1,.cls-2{fill:#00b050;}.cls-1{opacity:0.2;isolation:isolate;}</style></defs><path class="cls-1" d="M24.5,3.5H7.5a1.037,1.037,0,0,0-1,1v24h.00058c1.18808-.00073,1.18835-2,2.37686-2s1.18875,1.99927,2.37683,2h.00116c1.18726-.00073,1.18753-2,2.37525-2,1.18664,0,1.18692,1.99927,2.37313,2H16.005c1.18607-.00073,1.18634-2,2.37284-2,1.18683,0,1.1871,1.99927,2.3735,2h.00116c1.1864-.00073,1.18668-2,2.37348-2s1.18707,1.99927,2.37347,2H25.5V4.5A1,1,0,0,0,24.5,3.5Z"/><path class="cls-2" d="M20.58569,18.37163Q20.18765,22.75,16.48925,22.75q-3.61549,0-4.16278-4.87593h-.91216v-.96192h.82924v-1.7414h-.82924v-.96192h.91216Q12.84059,9.25,16.48925,9.25a3.70188,3.70188,0,0,1,2.78624,1.078,5.143,5.143,0,0,1,1.3102,3.06818H18.86087a4.07633,4.07633,0,0,0-.7629-2.0731,1.98208,1.98208,0,0,0-1.60872-.74632q-2.03992,0-2.42138,3.63207h2.70332l-.26535.96192H13.985v1.7414h1.97359l-.26536.96192H14.06787q.38145,3.56573,2.42138,3.56573,2.07311,0,2.37162-3.06818Z"/></svg>