<svg id="Layer_1" data-name="Layer 1" xmlns="http://www.w3.org/2000/svg" viewBox="0 0 64 64"><defs><style>.cls-1,.cls-2{fill:#fff;}.cls-1{opacity:0.6;isolation:isolate;}</style></defs><path class="cls-1" d="M49.00006,7H15a2.0739,2.0739,0,0,0-2,2V57h.00116c2.37616-.00146,2.37671-4,4.75372-4s2.37751,3.99854,4.75366,4h.00232c2.37452-.00146,2.37507-4,4.75049-4,2.37329,0,2.37384,3.99854,4.74628,4H32.01c2.37213-.00146,2.37268-4,4.74567-4,2.37365,0,2.3742,3.99854,4.747,4h.00232c2.37281-.00146,2.37336-4,4.747-4s2.37415,3.99854,4.74695,4H51V9A2,2,0,0,0,49.00006,7Z"/><path class="cls-2" d="M41.17138,36.74325Q40.37532,45.5,32.9785,45.5q-7.231,0-8.32556-9.75184H22.82862V33.82433H24.4871v-3.4828H22.82862V28.41769h1.82432Q25.68119,18.5,32.9785,18.5A7.40375,7.40375,0,0,1,38.551,20.656a10.286,10.286,0,0,1,2.6204,6.13636H37.72174A8.15271,8.15271,0,0,0,36.196,22.64618a3.96416,3.96416,0,0,0-3.21745-1.49263q-4.07986,0-4.84276,7.26413h5.40664l-.53071,1.92384H27.9699v3.4828h3.94717l-.53071,1.92384H28.13574q.7629,7.13145,4.84276,7.13146,4.1462,0,4.74324-6.13637Z"/></svg>