<svg id="Layer_1" data-name="Layer 1" xmlns="http://www.w3.org/2000/svg" viewBox="0 0 32 32"><defs><style>.cls-1,.cls-2{fill:#009;}.cls-2{opacity:0.4;}.cls-3{fill:#fff;}</style></defs><path class="cls-1" d="M3.74,14.81a.38.38,0,0,0,0,.72L5.7,16V14Z"/><path class="cls-1" d="M9.31,17v-1.4c0-.93,3-1.68,6.69-1.68s6.69.75,6.69,1.68V17l5.53-1.43a.38.38,0,0,0,.05-.72L16.14,10a.45.45,0,0,0-.28,0L6.6,13.67v2.59Z"/><path class="cls-2" d="M9.91,20l0,0h0Z"/><path class="cls-2" d="M16,20.54a7.38,7.38,0,0,0-1.41,1.75,19.07,19.07,0,0,1-3.27-.44c-1.21-.3-2-.72-2-1.18a.39.39,0,0,1,0-.18l0,0a.57.57,0,0,1,.08-.13l.06,0,.13-.12.07,0L9.91,20s0,0,0,0h0l.35-.15a3.66,3.66,0,0,1,2.38,0l1.44.47A5.92,5.92,0,0,0,16,20.54Z"/><path class="cls-1" d="M22.69,17V18c-.23,0-.46,0-.7,0a9.09,9.09,0,0,0-6,2.55,5.92,5.92,0,0,1-1.81-.3l-1.44-.47a3.66,3.66,0,0,0-2.38,0l-.35.15h0s0,0,0,0l-.19.12-.07,0-.13.12-.06,0a.57.57,0,0,0-.08.13l0,0a.39.39,0,0,0,0,.18V17c0-.22.21-.43.53-.62,1-.6,3.39-1,6.16-1s5.14.42,6.16,1C22.48,16.52,22.67,16.73,22.69,17Z"/><path class="cls-2" d="M6.6,17V13.67L5.7,14v3a1.16,1.16,0,0,0-.1,2.09l-.19,1.76a.27.27,0,0,0,.26.33h1a.27.27,0,0,0,.27-.33l-.2-1.76A1.16,1.16,0,0,0,6.6,17Z"/><path class="cls-3" d="M22,28c-3.3,0-6-3-6-4a3.15,3.15,0,0,1,1-1.67A7.22,7.22,0,0,1,22,20h.13a3.64,3.64,0,0,1,.57,0c3,.37,5.3,3,5.3,3.95S25.29,28,22,28Z"/><path class="cls-1" d="M23.79,24a1.79,1.79,0,0,1-1.8,1.8,1.71,1.71,0,0,1-1.7-1.8v-.5a1,1,0,0,0,.8.5.9.9,0,0,0,.9-.9,1,1,0,0,0-.5-.8H22A1.71,1.71,0,0,1,23.79,24Z"/><path class="cls-1" d="M22.69,20a3.64,3.64,0,0,0-.57,0H22a7.22,7.22,0,0,0-5,2.33A3.15,3.15,0,0,0,16,24c0,1,2.7,4,6,4s6-3,6-4S25.66,20.41,22.69,20ZM22,27a3,3,0,0,1-3-3,3,3,0,0,1,.7-1.93A2.92,2.92,0,0,1,22,21a3,3,0,0,1,0,6Z"/><path class="cls-3" d="M22.51,21A3,3,0,0,0,22,21a2.92,2.92,0,0,0-2.3,1.07A3,3,0,0,0,19,24,3,3,0,1,0,22.51,21ZM22,25.79a1.71,1.71,0,0,1-1.7-1.8v-.5a1,1,0,0,0,.8.5.9.9,0,0,0,.9-.9,1,1,0,0,0-.5-.8H22a1.71,1.71,0,0,1,1.8,1.7A1.79,1.79,0,0,1,22,25.79Z"/></svg>