<svg id="Layer_1" data-name="Layer 1" xmlns="http://www.w3.org/2000/svg" viewBox="0 0 32 32"><defs><style>.cls-1,.cls-4{fill:#003fd7;}.cls-1{opacity:0.2;}.cls-2{fill:#1aad47;}.cls-3{fill:#777;opacity:0.4;}.cls-5{fill:#fff;}</style></defs><path class="cls-1" d="M3.5,9.51h25a0,0,0,0,1,0,0V23.63a.9.9,0,0,1-.9.9H4.4a.9.9,0,0,1-.9-.9V9.51A0,0,0,0,1,3.5,9.51Z"/><polygon class="cls-2" points="12.82 20.91 11.76 19.85 14.02 17.6 11.76 15.34 12.82 14.28 16.14 17.6 12.82 20.91"/><polygon class="cls-2" points="19.18 19.07 15.86 15.75 19.18 12.44 20.24 13.5 17.98 15.75 20.24 18.01 19.18 19.07"/><path class="cls-3" d="M21.19,26.69H17.62V24.53H14.38v2.16H10.81a.76.76,0,0,0-.75.75V28.5H21.94V27.44A.76.76,0,0,0,21.19,26.69Z"/><path class="cls-4" d="M27.6,3.5H4.4a.9.9,0,0,0-.9.9V8h25V4.4A.9.9,0,0,0,27.6,3.5ZM20,6.69a.94.94,0,1,1,.93-.93A.94.94,0,0,1,20,6.69Zm3,0a.94.94,0,1,1,.94-.93A.94.94,0,0,1,23,6.69Zm3,0A.94.94,0,1,1,27,5.76.93.93,0,0,1,26,6.69Z"/><path class="cls-5" d="M20,4.82a.94.94,0,1,0,.93.94A.94.94,0,0,0,20,4.82Z"/><path class="cls-5" d="M23,4.82a.94.94,0,1,0,.94.94A.94.94,0,0,0,23,4.82Z"/><path class="cls-5" d="M26,4.82a.94.94,0,1,0,.94.94A.94.94,0,0,0,26,4.82Z"/></svg>