<svg id="Layer_1" data-name="Layer 1" xmlns="http://www.w3.org/2000/svg" viewBox="0 0 32 32"><defs><style>.cls-1,.cls-4{fill:#003fd7;}.cls-1{opacity:0.2;}.cls-2{fill:#1aad47;}.cls-3{fill:#777;opacity:0.4;}.cls-5{fill:#fff;}</style></defs><path class="cls-1" d="M18.8,18.69l-2.94-2.94,3.32-3.31,1.06,1.06L18,15.75,20.24,18l-.29.28A7.81,7.81,0,0,1,22,18a9.23,9.23,0,0,1,6.5,3V9.51H3.5V23.63a.9.9,0,0,0,.9.9h9.67A2.49,2.49,0,0,1,14,24C14,22.34,16,19.87,18.8,18.69Zm-7,1.16L14,17.6l-2.26-2.26,1.06-1.06,3.32,3.32-3.32,3.31Z"/><polygon class="cls-2" points="12.82 14.28 11.76 15.34 14.02 17.6 11.76 19.85 12.82 20.91 16.14 17.6 12.82 14.28"/><path class="cls-2" d="M18,15.75l2.26-2.25-1.06-1.06-3.32,3.31,2.94,2.94a9.2,9.2,0,0,1,1.15-.4l.29-.28Z"/><path class="cls-3" d="M14.38,25.4v1.29H10.81a.76.76,0,0,0-.75.75V28.5H17.3A8.32,8.32,0,0,1,14.38,25.4Z"/><path class="cls-4" d="M28.5,4.4a.9.9,0,0,0-.9-.9H4.4a.9.9,0,0,0-.9.9V8h25ZM20,6.69a.94.94,0,1,1,.93-.93A.94.94,0,0,1,20,6.69Zm3,0a.94.94,0,1,1,.94-.93A.94.94,0,0,1,23,6.69Zm3,0A.94.94,0,1,1,27,5.76.93.93,0,0,1,26,6.69Z"/><circle class="cls-5" cx="19.98" cy="5.76" r="0.94"/><path class="cls-5" d="M23,4.82a.94.94,0,1,0,.94.94A.94.94,0,0,0,23,4.82Z"/><circle class="cls-5" cx="26.02" cy="5.76" r="0.94"/><path class="cls-4" d="M22,28h0Z"/><path class="cls-4" d="M22.09,22.31H21.5a1,1,0,0,1,.5.8.9.9,0,0,1-.9.9,1,1,0,0,1-.8-.5V24a2,2,0,0,0,.36,1.13A1.63,1.63,0,0,0,22,25.8,1.79,1.79,0,0,0,23.8,24,1.69,1.69,0,0,0,22.09,22.31Z"/><path class="cls-4" d="M25.1,20.87A6.38,6.38,0,0,0,22.21,20H22a6,6,0,0,0-1.91.33,7,7,0,0,0-4,3.39A.79.79,0,0,0,16,24a.52.52,0,0,0,0,.11C16.18,25.19,18.79,28,22,28H22a6.5,6.5,0,0,0,3-.85C26.82,26.18,28,24.66,28,24S26.83,21.83,25.1,20.87ZM22,27a2.94,2.94,0,0,1-2.79-1.87A3.24,3.24,0,0,1,19,24a3,3,0,0,1,.54-1.75A3,3,0,1,1,22,27Z"/></svg>