<svg id="Layer_1" data-name="Layer 1" xmlns="http://www.w3.org/2000/svg" viewBox="0 0 64 64"><defs><style>.cls-1,.cls-3{opacity:0.6;}.cls-2,.cls-3{fill:#fff;}</style></defs><g class="cls-1"><path class="cls-2" d="M55.19,49.07H8.81A1.81,1.81,0,0,1,7,47.26V19H57V47.26A1.81,1.81,0,0,1,55.19,49.07Z"/></g><polygon class="cls-2" points="25.65 41.82 23.53 39.7 28.04 35.19 23.53 30.68 25.65 28.56 32.28 35.19 25.65 41.82"/><polygon class="cls-2" points="38.35 38.13 31.72 31.5 38.35 24.88 40.47 27 35.97 31.5 40.47 36.01 38.35 38.13"/><path class="cls-2" d="M42.38,53.39H35.25V49.07h-6.5v4.32H21.62a1.48,1.48,0,0,0-1.49,1.49V57H43.87V54.88A1.48,1.48,0,0,0,42.38,53.39Z"/><path class="cls-2" d="M55.19,7H8.81A1.81,1.81,0,0,0,7,8.81V16H57V8.81A1.81,1.81,0,0,0,55.19,7ZM40,13.39a1.88,1.88,0,1,1,1.87-1.88A1.88,1.88,0,0,1,40,13.39Zm6,0a1.88,1.88,0,1,1,1.87-1.88A1.88,1.88,0,0,1,46,13.39Zm6,0a1.88,1.88,0,1,1,1.87-1.88A1.88,1.88,0,0,1,52.05,13.39Z"/><path class="cls-3" d="M40,9.64a1.88,1.88,0,1,0,1.87,1.87A1.87,1.87,0,0,0,40,9.64Z"/><path class="cls-3" d="M46,9.64a1.88,1.88,0,1,0,1.87,1.87A1.87,1.87,0,0,0,46,9.64Z"/><path class="cls-3" d="M52.05,9.64a1.88,1.88,0,1,0,1.87,1.87A1.87,1.87,0,0,0,52.05,9.64Z"/></svg>