<svg id="Layer_1" data-name="Layer 1" xmlns="http://www.w3.org/2000/svg" viewBox="0 0 32 32"><defs><style>.cls-1{opacity:0.2;}.cls-2{fill:#ed9c26;isolation:isolate;}.cls-3{fill:#fff;}</style></defs><g class="cls-1"><path class="cls-2" d="M25.5,4.5a1,1,0,0,0-.99995-1H7.5a1.0369,1.0369,0,0,0-1,1v23a1.0369,1.0369,0,0,0,1,1h17a1.0369,1.0369,0,0,0,1-1V4.5Z"/></g><path class="cls-2" d="M20.75274,6.49972h-.899l-.33551,1.85644-8.65155.44947.85968,4.76147H18.577l-.247,1.3667a1.454,1.454,0,0,1,.21759-.022,1.47244,1.47244,0,0,1,.54108.10547l.262-1.4502h.00012l.86261-4.77783.00043-.00073L20.49,7.261h.26276a.38062.38062,0,0,0,0-.76123ZM19.118,10.573H17.95647L18.099,9.19235l1.28046-.06641Zm-1.92706,0H15.91918V9.30538l1.41016-.07324Zm-2.033-1.228v1.228H13.88616l-.11932-1.156Zm0,3.46094H14.11657L13.96471,11.334H15.158ZM13.00542,9.45651l.11524,1.11645H11.95922L11.7691,9.52071Zm-.64276,3.34936L12.09673,11.334h1.10248l.15186,1.47192ZM15.91918,11.334h1.19324l-.15186,1.47192H15.91918Zm1.80689,1.47192.15185-1.47192h1.10254l-.26593,1.47192Z"/><path class="cls-2" d="M18.5476,15.2922a1.09757,1.09757,0,0,0-1.02643.72314H13.69836a1.1038,1.1038,0,1,0,0,.76123h3.82281A1.09986,1.09986,0,1,0,18.5476,15.2922Zm-5.8761,1.44629a.34253.34253,0,1,1,.34265-.34278A.34324.34324,0,0,1,12.6715,16.73849Zm5.8761,0a.34253.34253,0,1,1,.34271-.34278A.34292.34292,0,0,1,18.5476,16.73849Z"/><rect class="cls-3" x="8.93424" y="19.98935" width="14.15939" height="1.66623"/><rect class="cls-3" x="8.93424" y="23.80984" width="14.15939" height="1.66623"/></svg>