<svg id="Layer_1" data-name="Layer 1" xmlns="http://www.w3.org/2000/svg" viewBox="0 0 64 64"><defs><style>.cls-1,.cls-2{fill:#fff;}.cls-1{opacity:0.6;isolation:isolate;}</style></defs><path class="cls-1" d="M49.00008,7H15a2.07372,2.07372,0,0,0-2,2V55a2.0739,2.0739,0,0,0,2,2H49a2.0739,2.0739,0,0,0,2-2V8.99978A1.99979,1.99979,0,0,0,49.00008,7ZM44.72188,49.4197H19.27816V46.42556H44.72188Zm0-5.86524H19.27816V40.56008H44.72188Z"/><path class="cls-2" d="M42.18447,13.22872H40.25783L39.539,17.207,21,18.16964l1.84217,10.20313H37.52212l-.52924,2.92871a2.8286,2.8286,0,0,1,1.62567.17895l.56159-3.10766h.00012L41.02859,18.136l.001-.00293.59174-3.27319h.56311a.81556.81556,0,0,0,0-1.63111Zm-3.50311,8.728H36.19253l.30529-2.95825,2.74378-.14234Zm-8.48566,0H27.47036l-.25562-2.47681,2.981-.15454Zm1.6311-2.71582,3.02173-.15674-.29645,2.87256H31.8268Zm-1.6311,4.34692v3.15406H27.96413l-.32544-3.15406Zm1.6311,0h2.557l-.32544,3.15406H31.8268Zm4.19739,0h2.36249l-.56989,3.15406H35.69863ZM25.583,19.56466l.24689,2.39209H23.34115l-.40741-2.25464Zm-1.9472,4.02319h2.36242l.32556,3.15406H24.20565Z"/><path class="cls-2" d="M37.45919,32.07a2.362,2.362,0,0,0-2.21082,1.54907H27.07912a2.36519,2.36519,0,1,0,.00013,1.63111h8.169A2.36142,2.36142,0,1,0,37.45919,32.07ZM24.86751,35.16891a.73389.73389,0,1,1,.73432-.73438A.73563.73563,0,0,1,24.86751,35.16891Zm12.59168,0a.73389.73389,0,1,1,.73431-.73438A.735.735,0,0,1,37.45919,35.16891Z"/></svg>