<?xml version="1.0" encoding="utf-8"?>
<!-- Generator: Adobe Illustrator 24.2.0, SVG Export Plug-In . SVG Version: 6.00 Build 0)  -->
<svg version="1.1" id="Layer_1" xmlns="http://www.w3.org/2000/svg" xmlns:xlink="http://www.w3.org/1999/xlink" x="0px" y="0px"
	 viewBox="0 0 64 64" style="enable-background:new 0 0 64 64;" xml:space="preserve">
<style type="text/css">
	.st0{fill:#9F8165;}
	.st1{opacity:0.4;fill:#FFFFFF;}
	.st2{fill:#FFFFFF;}
	.st3{fill:#1467BA;}
	.st4{opacity:0.2;enable-background:new    ;}
	.st5{fill:#CA0821;enable-background:new    ;}
	.st6{fill:#6B0AC9;}
	.st7{opacity:0.6;fill:#FFFFFF;enable-background:new    ;}
	.st8{fill:none;}
	.st9{fill:#CA0821;}
	.st10{fill:#CA0821;stroke:#FFFFFF;stroke-width:2;stroke-miterlimit:10;}
	.st11{fill:#6B0AC9;stroke:#FFFFFF;stroke-width:2;stroke-miterlimit:10;}
	.st12{fill:#823591;}
	.st13{fill:#1D1D1B;}
	.st14{fill:#008AB2;}
	.st15{fill:#005DED;}
	.st16{fill:#AA8A30;}
	.st17{fill:#1565C0;}
	.st18{fill:#D32F2F;}
	.st19{fill:#66BB6A;}
	.st20{fill:#0A4466;}
	.st21{fill:#8E24AA;}
	.st22{fill:#161616;}
	.st23{fill:#3E87CF;}
	.st24{fill:#9BC6F2;}
	.st25{fill:#777777;}
	.st26{fill:#2576C7;}
	.st27{opacity:0.6;fill:#2576C7;enable-background:new    ;}
	.st28{opacity:0.6;fill:#FFFFFF;}
	.st29{fill:#FFE39D;}
	.st30{fill:#ED9C26;}
	.st31{fill:#E03C24;}
	.st32{opacity:0.4;fill:#0A4466;}
	.st33{fill:#00796B;}
	.st34{opacity:0.4;fill:#00796B;}
	.st35{fill:#690000;}
	.st36{opacity:0.4;fill:#571B6D;}
	.st37{fill:#571B6D;}
	.st38{opacity:0.6;fill:#571B6D;}
	.st39{opacity:0.2;fill:#CA0821;enable-background:new    ;}
	.st40{opacity:0.4;}
	.st41{opacity:0.6;fill:#CA0821;enable-background:new    ;}
	.st42{opacity:0.6;enable-background:new    ;}
	.st43{opacity:0.6;}
	.st44{opacity:0.6;fill:#3E87CF;}
	.st45{fill:#283593;}
	.st46{opacity:0.4;fill:#777777;}
	.st47{opacity:0.4;fill:#283593;}
	.st48{opacity:0.4;fill:#1565C0;}
	.st49{opacity:0.6;fill:#1565C0;}
	.st50{opacity:0.4;fill:#D32F2F;}
	.st51{opacity:0.4;fill:#66BB6A;}
	.st52{opacity:0.4;fill:#AA8A30;}
	.st53{opacity:0.4;fill:#777777;enable-background:new    ;}
	.st54{opacity:0.4;fill:#9F8165;}
	.st55{fill:#FF7600;}
	.st56{opacity:0.4;fill:#FF7600;}
	.st57{opacity:0.4;fill:#005DED;}
	.st58{fill:#FF7962;}
	.st59{opacity:0.4;fill:#FF7962;}
	.st60{fill:#3606B7;}
	.st61{opacity:0.4;fill:#3606B7;}
	.st62{opacity:0.6;fill:#777777;}
	.st63{fill:#CB1335;}
	.st64{opacity:0.4;fill:#CA0821;}
	.st65{opacity:0.4;fill:#008AB2;enable-background:new    ;}
	.st66{fill:#A08165;}
	.st67{fill:#D8C4B3;}
	.st68{opacity:0.4;fill:#A08165;}
	.st69{fill:#00B78B;}
	.st70{opacity:0.4;fill:#00B78B;}
	.st71{fill:#FFFFFF;enable-background:new    ;}
	.st72{enable-background:new    ;}
	.st73{opacity:0.3;fill:#283593;enable-background:new    ;}
	.st74{fill:#283593;enable-background:new    ;}
	.st75{opacity:0.6;fill:#9BC6F2;}
	.st76{opacity:0.2;fill:#003FD7;}
	.st77{fill:#1AAD47;}
	.st78{fill:#003FD7;}
	.st79{opacity:0;fill:#FFFFFF;enable-background:new    ;}
	.st80{fill:#2B2B2B;}
	.st81{fill:#FCFDFF;}
	.st82{fill:#989898;}
	.st83{fill:#9E8067;}
	.st84{fill:#D6C3B3;}
	.st85{opacity:0.4;fill:#823591;}
	.st86{fill:none;stroke:#1467BA;stroke-miterlimit:10;}
	.st87{fill:none;stroke:#1467BA;stroke-width:1.15;}
	.st88{fill:none;stroke:#1467BA;stroke-width:1.15;stroke-linejoin:round;}
	.st89{fill:#1467BA;stroke:#1467BA;stroke-width:0.5;}
	.st90{fill:none;stroke:#1467BA;stroke-linecap:square;}
	.st91{fill:none;stroke:#1467BA;}
	.st92{fill:none;stroke:#1467BA;stroke-width:1.1641;stroke-miterlimit:10;}
	.st93{fill:#2067B0;}
	.st94{fill:none;stroke:#1467BA;stroke-linecap:round;}
	.st95{fill:none;stroke:#CA0821;stroke-width:2;stroke-linecap:round;stroke-linejoin:round;stroke-miterlimit:10;}
	.st96{fill:none;stroke:#CA0821;stroke-width:3;stroke-miterlimit:10;}
	.st97{fill:none;stroke:#FFFFFF;stroke-width:2.9951;stroke-miterlimit:10;}
	.st98{clip-path:url(#SVGID_4_);}
	.st99{clip-path:url(#SVGID_7_);}
	.st100{fill:none;stroke:#FFFFFF;stroke-miterlimit:10;}
	.st101{clip-path:url(#SVGID_10_);}
	.st102{clip-path:url(#SVGID_13_);}
	.st103{opacity:0.4;fill:#CA0821;enable-background:new    ;}
	.st104{opacity:0.2;}
	.st105{fill:none;stroke:#1467BA;stroke-width:0.8755;stroke-miterlimit:10;}
	.st106{opacity:0.6;fill:#9F8165;}
</style>
<g>
	<path class="st8" d="M16,46.2c-1,0-1.8,0.8-1.8,1.8c0,1,0.8,1.8,1.8,1.8s1.8-0.8,1.8-1.8C17.8,47,17,46.2,16,46.2z"/>
	<path class="st28" d="M49.2,27.5c1.2-1.2,1.2-3.1,0-4.2l-8.5-8.5c-1.2-1.2-3.1-1.2-4.2,0l-4.1,4.1l12.7,12.7L49.2,27.5z"/>
	<polygon class="st28" points="40.8,36 43,33.7 30.3,21 24.1,27.2 32.9,36 	"/>
	<polygon class="st28" points="28.7,36 22,29.3 15.8,35.5 16.2,36 	"/>
	<path class="st28" d="M25,18.8v-3V10c0-1.7-1.3-3-3-3H10c-1.7,0-3,1.3-3,3v5.8v3v8.8v3v8.8V40l18-18V18.8z"/>
	<rect x="36.2" y="17.3" transform="matrix(0.7071 -0.7071 0.7071 0.7071 -7.5338 34.3766)" class="st2" width="3" height="18"/>
	<polygon class="st2" points="32.9,36 24.1,27.2 22,29.3 28.7,36 	"/>
	<polygon class="st2" points="15.8,35.5 15.3,36 16.2,36 	"/>
	<rect x="24.7" y="39" class="st2" width="8.8" height="18"/>
	<rect x="36.4" y="39" class="st2" width="8.8" height="18"/>
	<path class="st2" d="M16,39c-5,0-9,4-9,9c0,5,4,9,9,9h5.7V39H16z M16,49.7c-1,0-1.8-0.8-1.8-1.8c0-1,0.8-1.8,1.8-1.8
		s1.8,0.8,1.8,1.8C17.8,49,17,49.7,16,49.7z"/>
	<path class="st2" d="M54,39h-5.8v18H54c1.7,0,3-1.3,3-3V42C57,40.3,55.7,39,54,39z"/>
	<polygon class="st28" points="46.1,39 45.2,39 45.2,57 48.2,57 48.2,39 	"/>
	<rect x="33.4" y="39" class="st28" width="3" height="18"/>
	<rect x="21.7" y="39" class="st28" width="3" height="18"/>
</g>
</svg>
