<svg id="Layer_1" data-name="Layer 1" xmlns="http://www.w3.org/2000/svg" viewBox="0 0 32 32"><defs><style>.cls-1,.cls-2,.cls-4{isolation:isolate;}.cls-2,.cls-3,.cls-4{fill:#283593;}.cls-2{opacity:0.3;}</style></defs><g class="cls-1"><path class="cls-2" d="M18.5,9.5v-6H7.5a1,1,0,0,0-1,1v23a1,1,0,0,0,1,1h17a1,1,0,0,0,1-1v-17h-6A1,1,0,0,1,18.5,9.5Z"/><path class="cls-3" d="M21,3.5H20v5c0,.3,0,.5.5.5h5V8Z"/><path class="cls-4" d="M9.6,14.8a3.36,3.36,0,0,0,3.69.89l.58.59,7,7.12A1.69,1.69,0,0,0,23.28,21l-7-7.12-.55-.55a3.32,3.32,0,0,0-.84-3.82A4.59,4.59,0,0,0,11.8,8.16a4.08,4.08,0,0,0-1.05.13l1,1,.61.61.51.51a.55.55,0,0,1,.1.34l-.41,1.49c0,.13-.13.24-.23.24l-1.53.4a.41.41,0,0,1-.34-.07l-.47-.5L8.38,10.67A4.39,4.39,0,0,0,9.6,14.8Zm11.72,6.61a.72.72,0,0,1,.95,0,.69.69,0,0,1,0,1,.66.66,0,0,1-.95,0A.69.69,0,0,1,21.32,21.41Z"/></g></svg>