<svg id="Layer_1" data-name="Layer 1" xmlns="http://www.w3.org/2000/svg" viewBox="0 0 100 100"><defs><style>.cls-1,.cls-2{fill:#fff;}.cls-1{opacity:0.6;}</style></defs><g id="_56Jfi8.tif" data-name="56Jfi8.tif"><path class="cls-1" d="M12.56,79.53a6.66,6.66,0,0,0-1.26-.14c-3.14,0-6.28,0-9.42,0-.38,0-.38,0-.38.38v7.5h0v7.52c0,.4,0,.4.39.4h9.26a6.63,6.63,0,0,0,1.26-.11,2.58,2.58,0,0,0,2.19-1.65A4.12,4.12,0,0,0,14.88,92c0-3.13,0-6.27,0-9.4a4.48,4.48,0,0,0-.06-.63A2.71,2.71,0,0,0,12.56,79.53Zm.23,11.92a7.13,7.13,0,0,1,0,.79,1.08,1.08,0,0,1-1.11,1,4.34,4.34,0,0,1-.51,0H4c-.4,0-.4,0-.4-.42V87.28h0V81.69c0-.39,0-.39.37-.39h7.61a1.11,1.11,0,0,1,1.13,1.16c0,.43,0,.86,0,1.3Q12.81,87.61,12.79,91.45Z"/><path class="cls-1" d="M41.47,86.08A2.83,2.83,0,0,0,38.64,83a35.57,35.57,0,0,0-4.13,0,2,2,0,0,0-2,1.38s-.09.11-.1.1a.35.35,0,0,1-.13-.14,1.73,1.73,0,0,0-1.14-1.14,3.77,3.77,0,0,0-1.05-.21c-1.19,0-2.37,0-3.56,0a3.61,3.61,0,0,0-2.1.64A2.93,2.93,0,0,0,23.27,86c0,3,0,5.93,0,8.9,0,.22.09.29.3.29H25c.38,0,.38,0,.38-.39V86.59a5.81,5.81,0,0,1,0-.59,1.11,1.11,0,0,1,1.22-1.2c.89,0,1.79,0,2.68,0,.31,0,.62,0,.92,0a1.06,1.06,0,0,1,1,1,6,6,0,0,1,0,.73v8.29c0,.35,0,.36.36.36H33c.46,0,.46,0,.46-.45v-8.1c0-.22,0-.45,0-.67a1.07,1.07,0,0,1,1.12-1.15c1,0,2,0,2.94,0a7.16,7.16,0,0,1,.8,0,1,1,0,0,1,1,.87,3.35,3.35,0,0,1,.06.71l0,7.6q0,.47,0,.93c0,.19.08.27.27.26h1.48c.35,0,.36,0,.36-.36V90.4h0C41.47,89,41.49,87.52,41.47,86.08Z"/><path class="cls-1" d="M56,86.62a8.25,8.25,0,0,0-.09-1.22,2.62,2.62,0,0,0-2-2.32,5.34,5.34,0,0,0-1.38-.19c-1.52,0-3,0-4.56,0a5.73,5.73,0,0,0-1.31.16,2.57,2.57,0,0,0-1.92,1.63,5.39,5.39,0,0,0-.27,2.22.32.32,0,0,0,.23.17c.54,0,1.09,0,1.64,0,.2,0,.26-.1.26-.28a8.42,8.42,0,0,1,0-.87,1.07,1.07,0,0,1,1-1.12,3.47,3.47,0,0,1,.64-.06h4a4.89,4.89,0,0,1,.66,0,1,1,0,0,1,.94,1c.05.35,0,.72.07,1.08s-.08.36-.32.41c-1.31.3-2.62.6-3.92.92-1.14.28-2.27.55-3.39.89a2.29,2.29,0,0,0-1.79,2.12,5.85,5.85,0,0,0,0,1.32A2.69,2.69,0,0,0,46.82,95a6.43,6.43,0,0,0,1.39.14c1.29,0,2.58,0,3.87,0a11,11,0,0,0,1.29-.1A2.8,2.8,0,0,0,56,92.23c0-1.07,0-2.14,0-3.2h0C56,88.22,56,87.42,56,86.62ZM53.84,92c-.06.9-.46,1.22-1.36,1.25H47.79A1.16,1.16,0,0,1,46.56,92c0-.9.09-1.11,1-1.34,1.53-.39,3.07-.75,4.61-1.12l1.47-.35c.13,0,.23,0,.23.14C53.86,90.22,53.9,91.13,53.84,92Z"/><path class="cls-2" d="M96.93,89.15a11.78,11.78,0,0,0-1.56-.49c-1.7-.42-3.41-.81-5.11-1.23a3.75,3.75,0,0,1-.77-.28.84.84,0,0,1-.33-.29,1.9,1.9,0,0,1,.27-1.77,1.4,1.4,0,0,1,.53-.27,3.35,3.35,0,0,1,.71-.07H95a1.14,1.14,0,0,1,1.29,1.12,5,5,0,0,1,0,.87c0,.26.09.34.34.33.48,0,1,0,1.46,0,.24,0,.36-.08.34-.33s0-.75,0-1.11A2.75,2.75,0,0,0,96.11,83a6.71,6.71,0,0,0-1.42-.14q-1.95,0-3.9,0a8,8,0,0,0-1.29.1,2.68,2.68,0,0,0-2.43,2.18,6.61,6.61,0,0,0-.13,1.6,2.25,2.25,0,0,0,1.48,2.1,5.17,5.17,0,0,0,.75.27c1.57.4,3.14.77,4.71,1.17.65.16,1.3.33,1.94.52a.69.69,0,0,1,.53.66,3.64,3.64,0,0,1,0,.74,1,1,0,0,1-1.1,1c-.38,0-.76,0-1.14,0-1.31,0-2.63,0-4-.05a1,1,0,0,1-1-1,9.11,9.11,0,0,1-.06-1c0-.2-.08-.27-.27-.26H87.17c-.18,0-.26.07-.25.25,0,.42,0,.83.06,1.24A2.77,2.77,0,0,0,89.42,95a6.78,6.78,0,0,0,1,.1c.76,0,1.52,0,2.28,0h2.66a2.6,2.6,0,0,0,.39,0,2.73,2.73,0,0,0,2.6-2.19,7.49,7.49,0,0,0,.1-1.71A2.15,2.15,0,0,0,96.93,89.15Z"/><path class="cls-2" d="M61.93,84.81a3.49,3.49,0,0,1,.44,0c1.49,0,3,0,4.46,0a1.24,1.24,0,0,1,1.41,1.4c0,.21,0,.43,0,.64s.06.29.27.28c.54,0,1.07,0,1.6,0,.18,0,.28-.06.27-.26a17.2,17.2,0,0,0-.18-1.76,2.35,2.35,0,0,0-1.59-1.86A6.15,6.15,0,0,0,67,82.89c-.81,0-1.62,0-2.44,0v0c-1,0-2.07,0-3.1.11a2.66,2.66,0,0,0-2.3,1.48,4.43,4.43,0,0,0-.36,2.41,2.29,2.29,0,0,0,1.63,2.07,10.63,10.63,0,0,0,1.09.35l3.5.85c.84.2,1.69.4,2.52.65.54.16.67.4.67,1,0,1.14-.41,1.54-1.56,1.55H62.52a4.18,4.18,0,0,1-.61-.05,1,1,0,0,1-.91-.89,10,10,0,0,1-.06-1.1c0-.19-.08-.28-.27-.28H59.05c-.17,0-.26.07-.25.25,0,.42,0,.83.06,1.25A2.72,2.72,0,0,0,61.22,95a6.26,6.26,0,0,0,1.05.12c1.48,0,2.95,0,4.43,0a7.15,7.15,0,0,0,1-.08,2.75,2.75,0,0,0,2.34-1.67,4.67,4.67,0,0,0,.28-2.16,2.37,2.37,0,0,0-1.81-2.2c-.38-.13-.77-.25-1.16-.35-1.77-.43-3.55-.83-5.32-1.28C61,87.15,60.81,87,61,85.71A1,1,0,0,1,61.93,84.81Z"/><path class="cls-2" d="M83.22,82.84a.42.42,0,0,0-.46.31q-1,2.52-2,5L78.84,93a1.21,1.21,0,0,1-.18.23c-.06-.06-.15-.11-.18-.19-.71-1.74-1.4-3.49-2.1-5.24-.62-1.56-1.25-3.13-1.87-4.7a.34.34,0,0,0-.37-.25H72.47l-.29,0c0,.13.07.23.11.33l1,2.65c1.18,3,2.37,5.92,3.54,8.89.12.3.27.42.58.38a4.5,4.5,0,0,1,.53,0c-.58,1.48-1.13,2.9-1.71,4.35a2.39,2.39,0,0,0,.31,0c.55,0,1.11,0,1.67,0a.32.32,0,0,0,.37-.25L80,95.81q2.51-6.28,5-12.58c0-.1.07-.21.11-.35-.13,0-.22,0-.31,0Z"/><path class="cls-1" d="M19.8,82.88c-.49,0-1,0-1.46,0s-.39,0-.39.38V89h0c0,1.94,0,3.89,0,5.83,0,.25.08.34.33.33h1.41c.4,0,.4,0,.4-.4v-9.5c0-.7,0-1.41,0-2.12C20.09,83,20,82.88,19.8,82.88Z"/><path class="cls-1" d="M19,78.53A1.49,1.49,0,0,0,17.49,80a1.53,1.53,0,0,0,3.05,0A1.47,1.47,0,0,0,19,78.53Z"/></g><path class="cls-2" d="M22.1,45.33c-1.91-1.85-3.9-3.55-5.62-5.49a8.81,8.81,0,0,1,.43-11.73c2.19-2.32,4.49-4.54,6.75-6.8L41.35,3.63A9,9,0,0,1,52.69,2.25a30.9,30.9,0,0,1,3,2.55C54.28,6.21,53,7.58,51.72,8.88c-2.33,2.31-4.75,4.52-6.4,7.43a29.38,29.38,0,0,0-2.1,5.33A20.83,20.83,0,0,1,37.74,30Q30,37.55,22.32,45.13Z"/><path class="cls-2" d="M40.19,63.77c2.36-2.49,4.57-4.92,6.89-7.25a21.17,21.17,0,0,0,5.7-9.23,21.07,21.07,0,0,1,5.81-9.47c4.95-4.83,9.88-9.7,14.82-14.55.09-.09.19-.17.14-.07a79.58,79.58,0,0,1,5.84,5.62c2.88,3.33,2.38,8.53-.9,11.85-3.66,3.69-7.35,7.36-11,11q-6.55,6.55-13.12,13.11a8.94,8.94,0,0,1-11.08,1.54A26.48,26.48,0,0,1,40.19,63.77Z"/><path class="cls-2" d="M37.47,60.84l-2.4-2.44c1.65-1.72,3.32-3.51,5-5.25s3.42-3.27,5-5a19.18,19.18,0,0,0,4.54-8,21.1,21.1,0,0,1,6-9.65c4.19-4.07,8.33-8.18,12.5-12.27.13-.13.28-.24.39-.34L71,20.38c-1.19,1.24-2.4,2.56-3.67,3.82C63.9,27.59,60.45,31,57,34.33a21.65,21.65,0,0,0-5.68,9.75,18.65,18.65,0,0,1-4.94,8c-2.82,2.84-5.71,5.62-8.56,8.43Z"/><path class="cls-2" d="M27.22,50.54,24.62,48c.47-.49.95-1,1.45-1.48l13.17-13a20.46,20.46,0,0,0,5.56-9.18A20.78,20.78,0,0,1,50.63,15c2.54-2.46,5-4.95,7.58-7.43l2.49,2.58c-.81.84-1.67,1.76-2.56,2.64-2.28,2.26-4.61,4.48-6.87,6.77a19,19,0,0,0-5.05,8.25,22.47,22.47,0,0,1-6.38,10.34C35.58,42.24,31.41,46.42,27.22,50.54Z"/><path class="cls-2" d="M32.33,55.69l-2.5-2.48c1.12-1.16,2.23-2.36,3.39-3.51,3.14-3.12,6.36-6.17,9.44-9.36A19.47,19.47,0,0,0,47.34,32,20,20,0,0,1,52.85,23L63,13.1c.13-.13.28-.25.41-.37l2.51,2.56c-1,1-2.05,2.12-3.12,3.18-3,2.93-6,5.84-8.94,8.77a21.55,21.55,0,0,0-5.61,9.66,18.22,18.22,0,0,1-4.83,7.94c-3.53,3.55-7.14,7-10.71,10.53C32.57,55.49,32.44,55.59,32.33,55.69Z"/></svg>