<svg id="Layer_1" data-name="Layer 1" xmlns="http://www.w3.org/2000/svg" viewBox="0 0 100 100"><defs><style>.cls-1,.cls-2{fill:#fff;}.cls-2{opacity:0.6;}</style></defs><path class="cls-1" d="M99.76,91.3c0,.14-.07.27-.1.41A2.43,2.43,0,0,1,97,94c-1.29,0-2.57,0-3.86,0a2.45,2.45,0,0,1-2.68-2.67c0-1.66,0-3.33,0-5a2.44,2.44,0,0,1,2.72-2.68c1.19,0,2.39,0,3.58,0,1.68,0,2.72.64,2.91,2.39a2,2,0,0,0,.08.31v3.25H92.14c0,.71,0,1.34,0,2a.85.85,0,0,0,.93.86c1.32,0,2.63,0,4,0,.64,0,.94-.34,1-1,0-.3,0-.61,0-1l1.69.12ZM98,88c0-.67,0-1.28,0-1.89a.86.86,0,0,0-.83-.92c-1.42,0-2.85,0-4.28,0a.73.73,0,0,0-.73.69c-.05.69,0,1.39,0,2.11Z"/><path class="cls-2" d="M13.87,92.39c.19-.71.38-1.42.56-2.13q1.19-4.56,2.34-9.13c.09-.36.23-.52.62-.48s.75,0,1.2,0L18,83c-.9,3.5-1.82,7-2.7,10.49-.1.39-.27.53-.66.5-.54,0-1.09,0-1.63,0-.38,0-.56-.07-.66-.49-.88-3.58-1.8-7.15-2.7-10.72-.05-.2-.12-.39-.18-.59H9.33c-.06.19-.13.38-.18.58Q7.77,88.12,6.4,93.46c-.09.38-.22.55-.64.52-.61,0-1.23,0-1.84,0a.55.55,0,0,1-.41-.28Q1.86,87.25.24,80.81s0-.07,0-.1a.18.18,0,0,1,.1,0c1.51-.13,1.51-.13,1.88,1.33q1.26,4.94,2.5,9.88c0,.18.11.35.17.53h.15c.06-.19.12-.39.17-.58C6.15,88.26,7.08,84.69,8,81.12c.1-.36.24-.5.62-.47a12.67,12.67,0,0,0,1.63,0c.35,0,.49.09.58.45.87,3.52,1.77,7,2.67,10.56.06.25.14.5.22.75Z"/><path class="cls-2" d="M59.06,89.55H51.44c0,.75,0,1.46.12,2.17a.79.79,0,0,0,.87.67c1.33,0,2.67,0,4,0a.87.87,0,0,0,.93-.86c0-.34.06-.68.09-1H59a2.54,2.54,0,0,1-2.32,3.43,34.76,34.76,0,0,1-4.33,0,2.37,2.37,0,0,1-2.48-2.63c0-1.66,0-3.33,0-5a2.42,2.42,0,0,1,2.64-2.7q2-.06,3.9,0a2.44,2.44,0,0,1,2.67,2.68C59.08,87.36,59.06,88.42,59.06,89.55ZM57.39,88c0-.66,0-1.29,0-1.91a.9.9,0,0,0-1-.91c-1.32,0-2.63,0-4,0a.89.89,0,0,0-1,.84c-.05.66,0,1.32,0,2Z"/><path class="cls-1" d="M80.42,87.26c.18-1.8-.11-2.12-1.83-2.12H76c-1.22,0-1.49.26-1.53,1.49,0,.12,0,.25,0,.42H72.94a2.59,2.59,0,0,1,2.53-3.42q2-.07,4,0a2.36,2.36,0,0,1,2.59,2.56q.06,2.58,0,5.16A2.4,2.4,0,0,1,79.46,94q-2,.08-3.9,0a2.78,2.78,0,0,1-2.51-4,2.24,2.24,0,0,1,1.68-1.24c1.41-.38,2.84-.73,4.25-1.09Zm0,1.56c-1.78.46-3.5.88-5.2,1.35-.69.19-.8.47-.7,1.25s.36,1,1,1c1.28,0,2.56,0,3.84,0a.93.93,0,0,0,1-1C80.47,90.58,80.44,89.75,80.44,88.82Z"/><path class="cls-1" d="M70.65,87.08H69c0-.31,0-.61-.05-.9,0-.64-.31-1-.93-1-1.35,0-2.71,0-4.06,0-.61,0-.85.36-.91,1s0,1,.69,1.2c1.52.42,3,.79,4.56,1.18l.16,0c1.9.46,2.61,1.44,1.92,3.85a2,2,0,0,1-2,1.44,42.17,42.17,0,0,1-4.77,0,2.21,2.21,0,0,1-2.21-2.3c0-.35,0-.71,0-1.11H63c0,.31,0,.62,0,.92.06.64.35,1,1,1,1.3,0,2.6,0,3.9,0a.92.92,0,0,0,1-.93c.1-.85,0-1.1-.7-1.3-1.47-.4-2.94-.76-4.41-1.14l-.37-.1c-2-.56-2.63-2-1.83-3.89a2,2,0,0,1,1.77-1.33,47.51,47.51,0,0,1,4.92,0c1.47.09,2.08.83,2.25,2.31C70.63,86.33,70.63,86.67,70.65,87.08Z"/><path class="cls-2" d="M29.72,93.94H28.07v-.5c0-2.27,0-4.53,0-6.8,0-1.19-.31-1.5-1.52-1.5H22.15V94a13.26,13.26,0,0,1-1.42,0c-.1,0-.23-.32-.24-.49,0-1.88,0-3.76,0-5.64,0-2.47,0-4.95,0-7.42,0-.14,0-.28,0-.46h1.61v3.67h5.06a2.39,2.39,0,0,1,2.51,2.61C29.75,88.78,29.72,91.33,29.72,93.94Z"/><path class="cls-2" d="M41.46,88.78c0,.86,0,1.73,0,2.6A2.35,2.35,0,0,1,39,93.93a38.19,38.19,0,0,1-4.28,0,2.39,2.39,0,0,1-2.49-2.68c0-1.64,0-3.29,0-4.93a2.45,2.45,0,0,1,2.69-2.71c1.26,0,2.53,0,3.79,0a2.45,2.45,0,0,1,2.73,2.72c0,.81,0,1.62,0,2.44Zm-7.57,0c0,.8,0,1.59,0,2.39s.34,1.24,1.25,1.26q1.71,0,3.42,0c.91,0,1.25-.32,1.27-1.24q0-2.39,0-4.77c0-.94-.36-1.26-1.31-1.27q-1.68,0-3.36,0c-.9,0-1.25.35-1.27,1.25S33.88,88,33.89,88.77Z"/><path class="cls-2" d="M44,79.92h1.64V91.07c0,.22,0,.43,0,.65a.7.7,0,0,0,.75.69H48V94a7.88,7.88,0,0,1-2.78-.2A2,2,0,0,1,44,91.67c0-1.19,0-2.38,0-3.58V79.92Z"/><path class="cls-1" d="M84.65,79.93h1.63V91.1c0,1.21.11,1.32,1.34,1.32h1V94a7.22,7.22,0,0,1-2.92-.26,1.76,1.76,0,0,1-1-1.48,5.58,5.58,0,0,1-.07-.91V80.47C84.63,80.3,84.64,80.14,84.65,79.93Z"/><path class="cls-1" d="M22.1,45.33c-1.91-1.85-3.9-3.55-5.62-5.49a8.81,8.81,0,0,1,.43-11.73c2.19-2.32,4.49-4.54,6.75-6.8L41.35,3.63A9,9,0,0,1,52.69,2.25a30.9,30.9,0,0,1,3,2.55C54.28,6.21,53,7.58,51.72,8.88c-2.33,2.31-4.75,4.52-6.4,7.43a29.38,29.38,0,0,0-2.1,5.33A20.83,20.83,0,0,1,37.74,30Q30,37.55,22.32,45.13Z"/><path class="cls-1" d="M40.19,63.77c2.36-2.49,4.57-4.92,6.89-7.25a21.17,21.17,0,0,0,5.7-9.23,21.07,21.07,0,0,1,5.81-9.47c4.95-4.83,9.88-9.7,14.82-14.55.09-.09.19-.17.14-.07a79.58,79.58,0,0,1,5.84,5.62c2.88,3.33,2.38,8.53-.9,11.85-3.66,3.69-7.35,7.36-11,11q-6.55,6.55-13.12,13.11a8.94,8.94,0,0,1-11.08,1.54A26.48,26.48,0,0,1,40.19,63.77Z"/><path class="cls-1" d="M37.47,60.84l-2.4-2.44c1.65-1.72,3.32-3.51,5-5.25s3.42-3.27,5-5a19.18,19.18,0,0,0,4.54-8,21.1,21.1,0,0,1,6-9.65c4.19-4.07,8.33-8.18,12.5-12.27.13-.13.28-.24.39-.34L71,20.38c-1.19,1.24-2.4,2.56-3.67,3.82C63.9,27.59,60.45,31,57,34.33a21.65,21.65,0,0,0-5.68,9.75,18.65,18.65,0,0,1-4.94,8c-2.82,2.84-5.71,5.62-8.56,8.43Z"/><path class="cls-1" d="M27.22,50.54,24.62,48c.47-.49.95-1,1.45-1.48l13.17-13a20.46,20.46,0,0,0,5.56-9.18A20.78,20.78,0,0,1,50.63,15c2.54-2.46,5-4.95,7.58-7.43l2.49,2.58c-.81.84-1.67,1.76-2.56,2.64-2.28,2.26-4.61,4.48-6.87,6.77a19,19,0,0,0-5.05,8.25,22.47,22.47,0,0,1-6.38,10.34C35.58,42.24,31.41,46.42,27.22,50.54Z"/><path class="cls-1" d="M32.33,55.69l-2.5-2.48c1.12-1.16,2.23-2.36,3.39-3.51,3.14-3.12,6.36-6.17,9.44-9.36A19.47,19.47,0,0,0,47.34,32,20,20,0,0,1,52.85,23L63,13.1c.13-.13.28-.25.41-.37l2.51,2.56c-1,1-2.05,2.12-3.12,3.18-3,2.93-6,5.84-8.94,8.77a21.55,21.55,0,0,0-5.61,9.66,18.22,18.22,0,0,1-4.83,7.94c-3.53,3.55-7.14,7-10.71,10.53C32.57,55.49,32.44,55.59,32.33,55.69Z"/></svg>