<svg id="Layer_1" data-name="Layer 1" xmlns="http://www.w3.org/2000/svg" viewBox="0 0 32 32"><defs><style>.cls-1,.cls-2{fill:#ca0821;}.cls-1{opacity:0.2;isolation:isolate;}.cls-3{fill:#fff;}</style></defs><path class="cls-1" d="M18.5,9.5v-6H7.5a1,1,0,0,0-1,1v23a1,1,0,0,0,1,1h17a1,1,0,0,0,1-1v-17h-6A1,1,0,0,1,18.5,9.5Z"/><path class="cls-2" d="M21,3.5H20v5c0,.3,0,.5.5.5h5V8Z"/><circle class="cls-3" cx="11" cy="14.01" r="1.5"/><circle class="cls-3" cx="11" cy="19.01" r="1.5"/><circle class="cls-3" cx="11" cy="24.01" r="1.5"/><rect class="cls-2" x="14.49" y="23.23" width="8.26" height="1.55"/><rect class="cls-2" x="14.49" y="18.23" width="8.26" height="1.55"/><rect class="cls-2" x="14.49" y="13.23" width="8.26" height="1.55"/><rect class="cls-2" x="9.64" y="6.25" width="6.36" height="4.27" rx="1.05"/></svg>