<svg id="Layer_1" data-name="Layer 1" xmlns="http://www.w3.org/2000/svg" viewBox="0 0 32 32"><defs><style>.cls-1{opacity:0.2;}.cls-1,.cls-2{isolation:isolate;}.cls-2,.cls-3{fill:#ca0821;}.cls-4{fill:#fff;}</style></defs><g class="cls-1"><path class="cls-2" d="M25.5,4.5a1,1,0,0,0-1-1H7.5a1,1,0,0,0-1,1v23a1,1,0,0,0,1,1h17a1,1,0,0,0,1-1V4.5Z"/></g><path class="cls-3" d="M10.87,17.5l2.76-2.76a.62.62,0,0,0,.67-.14.64.64,0,1,0-.9-.9.62.62,0,0,0-.14.67L10.5,17.13s1.6-4.86,1.63-5.52a4.47,4.47,0,0,0,3.64-1.1l.41.41.45.45.56.55.3.31a4.47,4.47,0,0,0-1.1,3.64C15.73,15.9,10.87,17.5,10.87,17.5ZM21.5,9.22,18.78,6.5,16,9.91,18.09,12Z"/><rect class="cls-4" x="8.93" y="19.99" width="14.16" height="1.67"/><rect class="cls-4" x="8.93" y="23.81" width="14.16" height="1.67"/></svg>