<svg id="Layer_1" data-name="Layer 1" xmlns="http://www.w3.org/2000/svg" viewBox="0 0 24 24"><defs><style>.cls-1{fill:#1467ba;}.cls-2{fill:none;stroke:#1467ba;stroke-miterlimit:10;}</style></defs><path class="cls-1" d="M11.61,10.35l.14.14.88.88,1,1a9.65,9.65,0,0,0-1.86,6.29c-2.12.49-6.5,1.84-9.13,2.66.82-2.63,2.17-7,2.66-9.13h.45a9.62,9.62,0,0,0,5.84-1.87m0-1.37a8.3,8.3,0,0,1-5.88,2.24,7.7,7.7,0,0,1-1.26-.09c0,1.3-3.39,11.75-3.39,11.75s10.45-3.34,11.75-3.39c0,0-.75-4.23,2.15-7.14l-.59-.6-1.09-1.09-.89-.88-.8-.8Z"/><path class="cls-1" d="M17.64,2.84l3.52,3.52-4.89,4-2.6-2.6,4-4.89m-.09-1.72L12.12,7.81l4.07,4.07,6.69-5.43L17.55,1.12Z"/><circle class="cls-1" cx="7.84" cy="16.16" r="1.2"/><line class="cls-2" x1="7.84" y1="16.16" x2="2.17" y2="21.83"/><circle class="cls-1" cx="7.84" cy="16.16" r="1.2"/><line class="cls-2" x1="7.84" y1="16.16" x2="2.17" y2="21.83"/></svg>