<svg id="Layer_1" data-name="Layer 1" xmlns="http://www.w3.org/2000/svg" viewBox="0 0 24 24"><defs><style>.cls-1{fill:#1467ba;}</style></defs><path class="cls-1" d="M8.37,3.7336a.15.15,0,0,1,.0968.0357l2.5658,2.1694a2.152,2.152,0,0,0,1.3888.5088H22.35a.15.15,0,0,1,.15.15v13.519a.15.15,0,0,1-.15.15H1.65a.15.15,0,0,1-.15-.15V3.8835a.15.15,0,0,1,.15-.15H8.37m0-1H1.65A1.15,1.15,0,0,0,.5,3.8835V20.1164a1.15,1.15,0,0,0,1.15,1.15h20.7a1.15,1.15,0,0,0,1.15-1.15V6.5974a1.15,1.15,0,0,0-1.15-1.15H12.421a1.1486,1.1486,0,0,1-.7425-.272l-2.5664-2.17a1.1488,1.1488,0,0,0-.7425-.272Z"/></svg>