<svg id="Layer_1" data-name="Layer 1" xmlns="http://www.w3.org/2000/svg" viewBox="0 0 64 64"><defs><style>.cls-1,.cls-2{fill:#fff;}.cls-1{opacity:0.6;isolation:isolate;}</style></defs><path class="cls-1" d="M55.2372,11.1513H40.05a1.76,1.76,0,0,1-1.1358-.416L34.9884,7.4159A1.759,1.759,0,0,0,33.8527,7H21.4562a1.759,1.759,0,0,0-1.7589,1.7588v6.0674H27.502a4.7592,4.7592,0,0,1,3.0732,1.1259l3.5781,3.0254H48.8867a4.7642,4.7642,0,0,1,4.7588,4.7588V35.3471h1.5917a1.759,1.759,0,0,0,1.7589-1.7588V12.91A1.759,1.759,0,0,0,55.2372,11.1513Z"/><path class="cls-1" d="M21.1514,25.6532a4.7593,4.7593,0,0,1,3.0732,1.125l3.5772,3.0254H42.5361a4.7644,4.7644,0,0,1,4.7588,4.76v11.61h1.5916a1.7591,1.7591,0,0,0,1.759-1.7592V23.7367a1.7591,1.7591,0,0,0-1.759-1.7593H33.6991a1.758,1.758,0,0,1-1.1357-.4155l-3.9256-3.32a1.758,1.758,0,0,0-1.1357-.4155H15.1057a1.759,1.759,0,0,0-1.759,1.7588v6.0678Z"/><path class="cls-2" d="M44.2949,34.5629a1.759,1.759,0,0,0-1.759-1.7588H27.3485a1.7612,1.7612,0,0,1-1.1357-.4155l-3.9256-3.32a1.759,1.759,0,0,0-1.1357-.416H8.755A1.7591,1.7591,0,0,0,6.9961,30.412V55.2411A1.759,1.759,0,0,0,8.755,57H42.5359a1.759,1.759,0,0,0,1.759-1.7588Z"/></svg>