<svg id="Layer_1" data-name="Layer 1" xmlns="http://www.w3.org/2000/svg" viewBox="0 0 32 32"><defs><style>.cls-1{fill:#70c7e0;}.cls-2{fill:#008ab2;isolation:isolate;}</style></defs><path class="cls-1" d="M7.4538,19.8a4,4,0,1,0,4,4A4,4,0,0,0,7.4538,19.8Z"/><path class="cls-1" d="M28.7989,26.63a8.6291,8.6291,0,0,1-.61.67h.9972Z"/><path class="cls-2" d="M17,18.2887V13.7569H15v4.5318l-2.9256,1.6889a6.0011,6.0011,0,0,1,.9968,1.7344L16,20.0211l.3268.1885A9.9286,9.9286,0,0,1,18.1806,18.97Z"/><path class="cls-1" d="M20.9981,11.7569V5.88a.5.5,0,0,0-.5-.5H16.1812a.5.5,0,0,1-.3228-.1182l-1.1159-.9438a.5.5,0,0,0-.3228-.1182H11.4981a.5.5,0,0,0-.5.5v7.0576a.5.5,0,0,0,.5.5h9A.5.5,0,0,0,20.9981,11.7569Z"/><path class="cls-2" d="M21.9951,22.295h-.5a1.02,1.02,0,0,1,.5.8.8962.8962,0,0,1-.9.9,1.02,1.02,0,0,1-.8-.5v.5a1.71,1.71,0,0,0,1.7,1.8,1.7923,1.7923,0,0,0,1.8-1.8A1.7105,1.7105,0,0,0,21.9951,22.295Z"/><path class="cls-2" d="M27.9951,23.9952c0-1-2.7-4-6-4s-6,3-6,4,2.7,4,6,4S27.9951,24.9952,27.9951,23.9952Zm-6,3a3,3,0,1,1,3-3A2.9463,2.9463,0,0,1,21.9951,26.9952Z"/></svg>