<svg id="Layer_1" data-name="Layer 1" xmlns="http://www.w3.org/2000/svg" viewBox="0 0 32 32"><defs><style>.cls-1{fill:#70c7e0;}.cls-2{fill:#fff;}.cls-3{fill:#008ab2;}</style></defs><path class="cls-1" d="M17.3907,19.4289,21.2471,12.75l3.28,5.6807A9.726,9.726,0,0,1,28.5,21.0129V10.1281a1.25,1.25,0,0,0-1.25-1.25H16.4577a1.2523,1.2523,0,0,1-.8072-.2954L12.861,6.2233a1.2522,1.2522,0,0,0-.8071-.2954H4.75a1.25,1.25,0,0,0-1.25,1.25V24.822a1.25,1.25,0,0,0,1.25,1.25H14.7738a3.9439,3.9439,0,0,1-.779-2.0772C13.9948,22.6276,15.3672,20.7238,17.3907,19.4289Zm-7.2566,1.8218a4,4,0,1,1,4-4A4,4,0,0,1,10.1341,21.2507Z"/><path class="cls-2" d="M10.1341,13.25a4,4,0,1,0,4,4A4,4,0,0,0,10.1341,13.25Z"/><path class="cls-3" d="M17.3907,19.4289a8.6419,8.6419,0,0,1,4.6041-1.4341,7.9292,7.9292,0,0,1,2.532.4356l-3.28-5.6807Z"/><path class="cls-2" d="M15.9951,23.9953c0-1,2.7-4,6-4s6,3,6,4-2.7,4-6,4S15.9951,24.9953,15.9951,23.9953Z"/><path class="cls-3" d="M21.9951,25.7951a1.7923,1.7923,0,0,0,1.8-1.8,1.7105,1.7105,0,0,0-1.8-1.7h-.5a1.02,1.02,0,0,1,.5.8.8962.8962,0,0,1-.9.9,1.02,1.02,0,0,1-.8-.5v.5A1.71,1.71,0,0,0,21.9951,25.7951Z"/><path class="cls-3" d="M27.9951,23.9953c0-1-2.7-4-6-4s-6,3-6,4,2.7,4,6,4S27.9951,24.9953,27.9951,23.9953Zm-6,3a3,3,0,1,1,3-3A2.9463,2.9463,0,0,1,21.9951,26.9953Z"/><path class="cls-2" d="M24.9951,23.9953a3,3,0,1,0-3,3A2.9463,2.9463,0,0,0,24.9951,23.9953Zm-4.7-.5a1.02,1.02,0,0,0,.8.5.8962.8962,0,0,0,.9-.9,1.02,1.02,0,0,0-.5-.8h.5a1.7105,1.7105,0,0,1,1.8,1.7,1.7923,1.7923,0,0,1-1.8,1.8,1.71,1.71,0,0,1-1.7-1.8Z"/></svg>