<?xml version="1.0" encoding="utf-8"?>
<!-- Generator: Adobe Illustrator 24.2.0, SVG Export Plug-In . SVG Version: 6.00 Build 0)  -->
<svg version="1.1" id="Layer_1" xmlns="http://www.w3.org/2000/svg" xmlns:xlink="http://www.w3.org/1999/xlink" x="0px" y="0px"
	 viewBox="0 0 64 64" style="enable-background:new 0 0 64 64;" xml:space="preserve">
<style type="text/css">
	.st0{fill:#005DED;}
	.st1{fill:#AA8A30;}
	.st2{fill:#1565C0;}
	.st3{fill:#D32F2F;}
	.st4{fill:#66BB6A;}
	.st5{fill:#0A4466;}
	.st6{fill:#8E24AA;}
	.st7{fill:#161616;}
	.st8{fill:#3E87CF;}
	.st9{fill:#9BC6F2;}
	.st10{fill:#777777;}
	.st11{fill:#2576C7;}
	.st12{fill:#FFFFFF;}
	.st13{opacity:0.6;fill:#2576C7;enable-background:new    ;}
	.st14{opacity:0.6;fill:#FFFFFF;enable-background:new    ;}
	.st15{opacity:0.6;fill:#FFFFFF;}
	.st16{fill:#FFE39D;}
	.st17{fill:#ED9C26;}
	.st18{fill:#E03C24;}
	.st19{opacity:0.4;fill:#0A4466;}
	.st20{opacity:0.4;fill:#00796B;}
	.st21{fill:#00796B;}
	.st22{fill:none;}
	.st23{fill:#690000;}
	.st24{fill:#A08165;}
	.st25{fill:#D8C4B3;}
	.st26{fill:#FFD4FF;}
	.st27{opacity:0.6;fill:none;stroke:#FFFFFF;stroke-width:4;stroke-linecap:round;stroke-miterlimit:10;}
	.st28{fill:#571B6D;}
	.st29{opacity:0.4;fill:#571B6D;}
	.st30{opacity:0.6;fill:#571B6D;}
	.st31{fill:#CA0821;}
	.st32{opacity:0.2;fill:#CA0821;enable-background:new    ;}
	.st33{fill:#CA0821;enable-background:new    ;}
	.st34{opacity:0.4;}
	.st35{opacity:0.6;fill:#CA0821;enable-background:new    ;}
	.st36{opacity:0.6;enable-background:new    ;}
	.st37{opacity:0.6;}
	.st38{opacity:0.6;fill:#3E87CF;}
	.st39{fill:#283593;}
	.st40{opacity:0.4;fill:#777777;}
	.st41{opacity:0.4;fill:#283593;}
	.st42{opacity:0.4;fill:#1565C0;}
	.st43{opacity:0.6;fill:#1565C0;}
	.st44{opacity:0.4;fill:#D32F2F;}
	.st45{opacity:0.4;fill:#66BB6A;}
	.st46{opacity:0.4;fill:#AA8A30;}
	.st47{opacity:0.4;fill:#777777;enable-background:new    ;}
	.st48{fill:#9F8165;}
	.st49{opacity:0.4;fill:#9F8165;}
	.st50{fill:#FF7600;}
	.st51{opacity:0.4;fill:#FF7600;}
	.st52{fill:#FBFAFD;}
	.st53{fill:#3606B7;}
	.st54{opacity:0.4;fill:#005DED;}
	.st55{fill:#FF7962;}
	.st56{opacity:0.4;fill:#FF7962;}
	.st57{opacity:0.4;fill:#3606B7;}
	.st58{opacity:0.4;fill:#FFFFFF;}
	.st59{opacity:0.6;fill:#777777;}
</style>
<g>
	<g>
		<path class="st12" d="M28.7,28c0,0.6-0.2,1-0.6,1.4c-0.4,0.4-0.9,0.6-1.4,0.6c-0.6,0-1-0.2-1.4-0.6c-0.4-0.4-0.6-0.9-0.6-1.4
			s0.2-1.1,0.6-1.4c0.4-0.4,0.9-0.6,1.4-0.6c0.6,0,1,0.2,1.4,0.6C28.5,26.9,28.7,27.4,28.7,28z"/>
	</g>
	<g>
		<path class="st12" d="M39.4,36c0,0.6-0.2,1.1-0.6,1.4c-0.4,0.4-0.9,0.6-1.4,0.6s-1.1-0.2-1.4-0.6c-0.4-0.4-0.6-0.9-0.6-1.4
			s0.2-1,0.6-1.4c0.4-0.4,0.9-0.6,1.4-0.6s1,0.2,1.4,0.6C39.2,35,39.4,35.5,39.4,36z"/>
	</g>
	<g>
		<path class="st12" d="M32,14.4c-9.7,0-17.6,7.9-17.6,17.6c0,9.7,7.9,17.6,17.6,17.6S49.6,41.7,49.6,32
			C49.6,22.3,41.7,14.4,32,14.4z M23.7,30.9c-0.4-0.4-0.7-0.8-0.9-1.3c-0.2-0.5-0.3-1.1-0.3-1.6c0-0.6,0.1-1.1,0.3-1.6
			c0.2-0.5,0.5-1,0.9-1.3c0.4-0.4,0.8-0.7,1.3-0.9c0.5-0.2,1-0.3,1.6-0.3c0.6,0,1.1,0.1,1.6,0.3c0.5,0.2,1,0.5,1.3,0.9
			c0.4,0.4,0.7,0.8,0.9,1.3c0.2,0.5,0.3,1,0.3,1.6c0,0.6-0.1,1.1-0.3,1.6c-0.2,0.5-0.5,0.9-0.9,1.3c-0.4,0.4-0.8,0.7-1.3,0.9
			c-0.5,0.2-1,0.3-1.6,0.3c-0.6,0-1.1-0.1-1.6-0.3C24.5,31.6,24.1,31.3,23.7,30.9z M28.3,40.7l-1.9-0.8l9.3-16.5l1.9,0.8L28.3,40.7z
			 M41.2,37.7c-0.2,0.5-0.5,0.9-0.9,1.3c-0.4,0.4-0.8,0.7-1.3,0.9c-0.5,0.2-1.1,0.3-1.6,0.3c-0.6,0-1.1-0.1-1.6-0.3
			c-0.5-0.2-1-0.5-1.3-0.9c-0.4-0.4-0.7-0.8-0.9-1.3c-0.2-0.5-0.3-1-0.3-1.6c0-0.6,0.1-1.1,0.3-1.6c0.2-0.5,0.5-0.9,0.9-1.3
			s0.8-0.7,1.3-0.9c0.5-0.2,1-0.3,1.6-0.3c0.6,0,1.1,0.1,1.6,0.3c0.5,0.2,0.9,0.5,1.3,0.9c0.4,0.4,0.7,0.8,0.9,1.3
			c0.2,0.5,0.3,1,0.3,1.6C41.5,36.6,41.4,37.2,41.2,37.7z"/>
	</g>
	<path class="st22" d="M41.2,34.4c-0.2-0.5-0.5-0.9-0.9-1.3c-0.4-0.4-0.8-0.7-1.3-0.9c-0.5-0.2-1.1-0.3-1.6-0.3
		c-0.6,0-1.1,0.1-1.6,0.3c-0.5,0.2-1,0.5-1.3,0.9s-0.7,0.8-0.9,1.3c-0.2,0.5-0.3,1-0.3,1.6c0,0.6,0.1,1.1,0.3,1.6
		c0.2,0.5,0.5,0.9,0.9,1.3c0.4,0.4,0.8,0.7,1.3,0.9c0.5,0.2,1,0.3,1.6,0.3c0.6,0,1.1-0.1,1.6-0.3c0.5-0.2,0.9-0.5,1.3-0.9
		c0.4-0.4,0.7-0.8,0.9-1.3c0.2-0.5,0.3-1,0.3-1.6C41.5,35.5,41.4,34.9,41.2,34.4z M38.8,37.5c-0.4,0.4-0.9,0.6-1.4,0.6
		s-1.1-0.2-1.4-0.6c-0.4-0.4-0.6-0.9-0.6-1.4s0.2-1,0.6-1.4c0.4-0.4,0.9-0.6,1.4-0.6s1,0.2,1.4,0.6c0.4,0.4,0.6,0.9,0.6,1.4
		S39.2,37.1,38.8,37.5z"/>
	<path class="st22" d="M30.5,26.3c-0.2-0.5-0.5-1-0.9-1.3c-0.4-0.4-0.8-0.7-1.3-0.9c-0.5-0.2-1-0.3-1.6-0.3c-0.6,0-1.1,0.1-1.6,0.3
		c-0.5,0.2-0.9,0.5-1.3,0.9c-0.4,0.4-0.7,0.8-0.9,1.3c-0.2,0.5-0.3,1-0.3,1.6c0,0.6,0.1,1.1,0.3,1.6c0.2,0.5,0.5,0.9,0.9,1.3
		c0.4,0.4,0.8,0.7,1.3,0.9c0.5,0.2,1,0.3,1.6,0.3c0.6,0,1.1-0.1,1.6-0.3c0.5-0.2,1-0.5,1.3-0.9c0.4-0.4,0.7-0.8,0.9-1.3
		c0.2-0.5,0.3-1.1,0.3-1.6C30.8,27.4,30.7,26.8,30.5,26.3z M28.1,29.4c-0.4,0.4-0.9,0.6-1.4,0.6c-0.6,0-1-0.2-1.4-0.6
		c-0.4-0.4-0.6-0.9-0.6-1.4s0.2-1.1,0.6-1.4c0.4-0.4,0.9-0.6,1.4-0.6c0.6,0,1,0.2,1.4,0.6c0.4,0.4,0.6,0.9,0.6,1.4
		S28.5,29,28.1,29.4z"/>
	<polygon class="st22" points="37.6,24.2 28.3,40.7 26.4,39.8 35.8,23.3 	"/>
</g>
<g class="st37">
	<path class="st12" d="M34.1,56.9l-0.4-2.8l1.4-0.2c1.2-0.2,2.4-0.4,3.5-0.8l1.3-0.4l0.8,2.7l-1.4,0.4c-1.3,0.4-2.6,0.7-4,0.9
		L34.1,56.9z M29.8,56.9l-1.4-0.2c-1.3-0.2-2.7-0.5-4-0.9l-1.3-0.4l0.9-2.7l1.3,0.4c1.1,0.4,2.3,0.6,3.5,0.8l1.4,0.2L29.8,56.9z
		 M44.7,53.5l-1.6-2.3l1.2-0.8c1-0.7,2-1.4,2.8-2.2l1-1l1.9,2.1l-1,1c-1,0.9-2.1,1.8-3.2,2.5L44.7,53.5z M19.2,53.5L18,52.7
		c-1.1-0.8-2.2-1.6-3.2-2.5l-1-1l1.9-2.1l1,1c0.9,0.8,1.8,1.6,2.8,2.3l1.2,0.8L19.2,53.5z M52.8,45.9l-2.4-1.4l0.7-1.2
		c0.6-1,1.1-2.1,1.6-3.2l0.5-1.3l2.6,1L55.3,41c-0.5,1.3-1.1,2.5-1.8,3.7L52.8,45.9z M11.1,45.8l-0.7-1.2c-0.7-1.2-1.3-2.4-1.8-3.7
		l-0.5-1.3l2.6-1l0.5,1.3c0.4,1.1,1,2.2,1.6,3.2l0.7,1.2L11.1,45.8z M56.8,35.5L54,35.3l0.1-1.4c0.1-1.2,0.1-2.4,0-3.6L54,28.8
		l2.8-0.3l0.1,1.5c0.1,1.4,0.1,2.7,0,4.1L56.8,35.5z M7.2,35.4L7.1,34c-0.1-1.3-0.1-2.7,0-4l0.1-1.4l2.8,0.2l-0.1,1.4
		c-0.1,1.2-0.1,2.4,0,3.6l0.1,1.4L7.2,35.4z M53.2,25.3L52.7,24c-0.4-1.1-1-2.2-1.6-3.2l-0.7-1.2l2.4-1.4l0.7,1.2
		c0.7,1.2,1.3,2.4,1.8,3.7l0.5,1.3L53.2,25.3z M10.8,25.4l-2.6-1L8.7,23c0.5-1.3,1.1-2.5,1.8-3.7l0.7-1.2l2.4,1.4l-0.7,1.2
		c-0.6,1-1.1,2.1-1.6,3.2L10.8,25.4z M48.2,16.8l-1-1c-0.9-0.8-1.8-1.6-2.8-2.2l-1.2-0.8l1.6-2.3l1.2,0.8c1.1,0.8,2.2,1.6,3.2,2.5
		l1,1L48.2,16.8z M15.8,16.8l-1.9-2.1l1-1c1-0.9,2.1-1.8,3.2-2.5l1.2-0.8l1.6,2.3l-1.2,0.8c-1,0.7-1.9,1.4-2.8,2.3L15.8,16.8z
		 M40,11.3l-1.3-0.4c-1.1-0.4-2.3-0.6-3.5-0.8l-1.4-0.2l0.4-2.8l1.4,0.2c1.3,0.2,2.7,0.5,4,0.9l1.3,0.4L40,11.3z M24,11.3l-0.8-2.7
		l1.3-0.4c1.3-0.4,2.6-0.7,4-0.9l1.4-0.2l0.4,2.8l-1.4,0.2c-1.2,0.2-2.4,0.4-3.5,0.8L24,11.3z"/>
</g>
</svg>
