<svg id="Layer_1" data-name="Layer 1" xmlns="http://www.w3.org/2000/svg" viewBox="0 0 24 24"><defs><style>.cls-1{fill:#1467ba;}</style></defs><path class="cls-1" d="M10.73,10.45a.75.75,0,0,1-.23.55.8.8,0,0,1-1.1,0,.78.78,0,1,1,1.33-.55Z"/><path class="cls-1" d="M14.83,13.55A.78.78,0,1,1,13.5,13a.8.8,0,0,1,1.1,0A.75.75,0,0,1,14.83,13.55Z"/><path class="cls-1" d="M12,5.26A6.74,6.74,0,1,0,18.74,12,6.74,6.74,0,0,0,12,5.26ZM8.82,11.58a1.54,1.54,0,0,1-.35-.51,1.59,1.59,0,0,1-.12-.62,1.64,1.64,0,0,1,.12-.63,1.78,1.78,0,0,1,.35-.51A1.63,1.63,0,0,1,9.33,9,1.6,1.6,0,0,1,10,8.84a1.65,1.65,0,0,1,.63.13,1.56,1.56,0,0,1,.85.85,1.48,1.48,0,0,1,.12.63,1.43,1.43,0,0,1-.12.62,1.52,1.52,0,0,1-.34.51,1.78,1.78,0,0,1-.51.35,1.64,1.64,0,0,1-.63.12,1.59,1.59,0,0,1-.62-.12A1.65,1.65,0,0,1,8.82,11.58Zm1.75,3.75L9.86,15l3.58-6.33.72.33Zm5-1.15a1.78,1.78,0,0,1-.35.51,1.58,1.58,0,0,1-.5.34,1.69,1.69,0,0,1-.63.13,1.65,1.65,0,0,1-.63-.13,1.56,1.56,0,0,1-.85-.85,1.57,1.57,0,0,1,0-1.25,1.52,1.52,0,0,1,.34-.51,1.78,1.78,0,0,1,.51-.35,1.64,1.64,0,0,1,.63-.12,1.68,1.68,0,0,1,.63.12,1.61,1.61,0,0,1,.5.35,1.54,1.54,0,0,1,.35.51,1.69,1.69,0,0,1,0,1.25Z"/><path class="cls-1" d="M12.81,21.57l-.15-1.08.54-.07a9.09,9.09,0,0,0,1.35-.31l.52-.16.32,1-.52.17a9.83,9.83,0,0,1-1.52.34Zm-1.65,0-.54-.07a11.31,11.31,0,0,1-1.53-.35L8.57,21l.33-1,.52.16a8,8,0,0,0,1.35.31l.54.08Zm5.73-1.29-.61-.9.45-.3a8.32,8.32,0,0,0,1.09-.87l.39-.37.75.79-.4.38a10.39,10.39,0,0,1-1.22,1Zm-9.8,0L6.63,20a9.52,9.52,0,0,1-1.22-1L5,18.6l.74-.79.4.38a9.93,9.93,0,0,0,1.08.86l.45.3ZM20,17.33l-.93-.55.27-.46a8.49,8.49,0,0,0,.61-1.25l.2-.51,1,.4-.2.5a10.17,10.17,0,0,1-.68,1.41Zm-16,0-.28-.47A10.17,10.17,0,0,1,3,15.43l-.19-.5,1-.39.19.51a7.88,7.88,0,0,0,.6,1.24l.27.47Zm17.53-4-1.08-.09,0-.55a9.07,9.07,0,0,0,0-1.38l0-.54,1.08-.12.05.57a10.15,10.15,0,0,1,0,1.56Zm-19,0,0-.56a9.9,9.9,0,0,1,0-1.54l0-.55,1.08.09,0,.54a9,9,0,0,0,0,1.37l.05.54ZM20.14,9.45l-.2-.51a7.55,7.55,0,0,0-.6-1.25l-.27-.46L20,6.68l.28.46A10.17,10.17,0,0,1,21,8.55l.19.5Zm-16.28,0-1-.39L3,8.56a10.17,10.17,0,0,1,.68-1.41L4,6.68l.93.55-.27.47A8.49,8.49,0,0,0,4.05,9ZM18.22,6.18l-.39-.37a8.32,8.32,0,0,0-1.09-.87l-.45-.3.61-.9.45.3a10.39,10.39,0,0,1,1.22,1l.4.38Zm-12.45,0L5,5.39,5.43,5A9.52,9.52,0,0,1,6.65,4l.45-.3.6.9-.45.3a8.94,8.94,0,0,0-1.08.87Zm9.31-2.12-.52-.17a7.75,7.75,0,0,0-1.35-.3l-.54-.08.16-1.08.53.08a8.92,8.92,0,0,1,1.53.35l.52.16Zm-6.16,0L8.59,3l.52-.16a9.85,9.85,0,0,1,1.52-.35l.54-.07.16,1.07-.54.08a7.88,7.88,0,0,0-1.36.31Z"/></svg>