<?xml version="1.0" encoding="utf-8"?>
<!-- Generator: Adobe Illustrator 24.2.0, SVG Export Plug-In . SVG Version: 6.00 Build 0)  -->
<svg version="1.1" id="Layer_1" xmlns="http://www.w3.org/2000/svg" xmlns:xlink="http://www.w3.org/1999/xlink" x="0px" y="0px"
	 viewBox="0 0 32 32" style="enable-background:new 0 0 32 32;" xml:space="preserve">
<style type="text/css">
	.st0{fill:#005DED;}
	.st1{fill:#AA8A30;}
	.st2{fill:#1565C0;}
	.st3{fill:#D32F2F;}
	.st4{fill:#66BB6A;}
	.st5{fill:#0A4466;}
	.st6{fill:#8E24AA;}
	.st7{fill:#161616;}
	.st8{fill:#3E87CF;}
	.st9{fill:#9BC6F2;}
	.st10{fill:#777777;}
	.st11{fill:#2576C7;}
	.st12{fill:#FFFFFF;}
	.st13{opacity:0.6;fill:#2576C7;enable-background:new    ;}
	.st14{opacity:0.6;fill:#FFFFFF;enable-background:new    ;}
	.st15{opacity:0.6;fill:#FFFFFF;}
	.st16{fill:#FFE39D;}
	.st17{fill:#ED9C26;}
	.st18{fill:#E03C24;}
	.st19{opacity:0.4;fill:#0A4466;}
	.st20{opacity:0.4;fill:#00796B;}
	.st21{fill:#00796B;}
	.st22{fill:none;}
	.st23{fill:#690000;}
	.st24{fill:#A08165;}
	.st25{fill:#D8C4B3;}
	.st26{fill:#FFD4FF;}
	.st27{opacity:0.6;fill:none;stroke:#FFFFFF;stroke-width:4;stroke-linecap:round;stroke-miterlimit:10;}
	.st28{fill:#571B6D;}
	.st29{opacity:0.4;fill:#571B6D;}
	.st30{opacity:0.6;fill:#571B6D;}
	.st31{fill:#CA0821;}
	.st32{opacity:0.2;fill:#CA0821;enable-background:new    ;}
	.st33{fill:#CA0821;enable-background:new    ;}
	.st34{opacity:0.4;}
	.st35{opacity:0.6;fill:#CA0821;enable-background:new    ;}
	.st36{opacity:0.6;enable-background:new    ;}
	.st37{opacity:0.6;}
	.st38{opacity:0.6;fill:#3E87CF;}
	.st39{fill:#283593;}
	.st40{opacity:0.4;fill:#777777;}
	.st41{opacity:0.4;fill:#283593;}
	.st42{opacity:0.4;fill:#1565C0;}
	.st43{opacity:0.6;fill:#1565C0;}
	.st44{opacity:0.4;fill:#D32F2F;}
	.st45{opacity:0.4;fill:#66BB6A;}
	.st46{opacity:0.4;fill:#AA8A30;}
	.st47{opacity:0.4;fill:#777777;enable-background:new    ;}
	.st48{fill:#9F8165;}
	.st49{opacity:0.4;fill:#9F8165;}
	.st50{fill:#FF7600;}
	.st51{opacity:0.4;fill:#FF7600;}
	.st52{fill:#FBFAFD;}
	.st53{fill:#3606B7;}
	.st54{opacity:0.4;fill:#005DED;}
	.st55{fill:#FF7962;}
	.st56{opacity:0.4;fill:#FF7962;}
	.st57{opacity:0.4;fill:#3606B7;}
	.st58{opacity:0.4;fill:#FFFFFF;}
	.st59{opacity:0.6;fill:#777777;}
</style>
<g>
	<path class="st22" d="M20.6,17.2c-0.1-0.3-0.3-0.5-0.5-0.7c-0.2-0.2-0.4-0.3-0.7-0.4c-0.3-0.1-0.5-0.2-0.8-0.2
		c-0.3,0-0.6,0.1-0.8,0.2c-0.2,0.1-0.5,0.3-0.7,0.4c-0.2,0.2-0.3,0.4-0.5,0.7c-0.1,0.2-0.2,0.5-0.2,0.8c0,0.3,0.1,0.6,0.2,0.8
		c0.1,0.2,0.3,0.5,0.5,0.7c0,0,0,0,0,0c0.3-0.2,0.7-0.4,1-0.6c-0.1,0-0.2-0.1-0.3-0.2c-0.2-0.2-0.3-0.4-0.3-0.7s0.1-0.5,0.3-0.7
		c0.2-0.2,0.4-0.3,0.7-0.3c0.3,0,0.5,0.1,0.7,0.3s0.3,0.4,0.3,0.7c0,0.1,0,0.3-0.1,0.4c0.4-0.1,0.7-0.2,1.1-0.3c0,0,0-0.1,0-0.1
		C20.8,17.7,20.7,17.5,20.6,17.2z"/>
	<polygon class="st22" points="18.8,12.1 17.9,11.7 13.2,19.9 14.1,20.3 	"/>
	<path class="st22" d="M14.1,15.9c0.3-0.1,0.5-0.3,0.7-0.5c0.2-0.2,0.3-0.4,0.4-0.7c0.1-0.3,0.2-0.5,0.2-0.8c0-0.3-0.1-0.6-0.2-0.8
		s-0.3-0.5-0.4-0.7s-0.4-0.3-0.7-0.4c-0.2-0.1-0.5-0.2-0.8-0.2c-0.3,0-0.6,0.1-0.8,0.2c-0.2,0.1-0.5,0.3-0.7,0.4s-0.3,0.4-0.5,0.7
		c-0.1,0.2-0.2,0.5-0.2,0.8c0,0.3,0.1,0.6,0.2,0.8c0.1,0.2,0.3,0.5,0.5,0.7c0.2,0.2,0.4,0.3,0.7,0.5c0.2,0.1,0.5,0.2,0.8,0.2
		C13.6,16.1,13.9,16,14.1,15.9z M12.3,14c0-0.3,0.1-0.5,0.3-0.7c0.2-0.2,0.4-0.3,0.7-0.3c0.3,0,0.5,0.1,0.7,0.3s0.3,0.4,0.3,0.7
		c0,0.3-0.1,0.5-0.3,0.7c-0.2,0.2-0.4,0.3-0.7,0.3c-0.3,0-0.5-0.1-0.7-0.3C12.4,14.5,12.3,14.3,12.3,14z"/>
	<path class="st51" d="M14,14.7c0.2-0.2,0.3-0.4,0.3-0.7c0-0.3-0.1-0.5-0.3-0.7S13.6,13,13.3,13c-0.3,0-0.5,0.1-0.7,0.3
		c-0.2,0.2-0.3,0.4-0.3,0.7c0,0.3,0.1,0.5,0.3,0.7c0.2,0.2,0.4,0.3,0.7,0.3C13.6,15,13.9,14.9,14,14.7z"/>
	<path class="st51" d="M19.4,17.3C19.2,17.1,19,17,18.7,17c-0.3,0-0.5,0.1-0.7,0.3c-0.2,0.2-0.3,0.4-0.3,0.7s0.1,0.5,0.3,0.7
		c0.1,0.1,0.2,0.2,0.3,0.2c0.4-0.2,0.9-0.4,1.4-0.6c0-0.1,0.1-0.2,0.1-0.4C19.7,17.7,19.6,17.5,19.4,17.3z"/>
	<path class="st51" d="M17.2,19.5C17.2,19.5,17.2,19.5,17.2,19.5c-0.2-0.2-0.4-0.5-0.5-0.7c-0.1-0.2-0.2-0.5-0.2-0.8
		c0-0.3,0.1-0.6,0.2-0.8c0.1-0.3,0.3-0.5,0.5-0.7c0.2-0.2,0.4-0.3,0.7-0.4c0.2-0.1,0.5-0.2,0.8-0.2c0.3,0,0.6,0.1,0.8,0.2
		c0.2,0.1,0.5,0.3,0.7,0.4c0.2,0.2,0.3,0.4,0.5,0.7c0.1,0.2,0.2,0.5,0.2,0.8c0,0,0,0.1,0,0.1C21.2,18,21.6,18,22,18
		c0.8,0,1.7,0.2,2.4,0.4c0.2-0.8,0.3-1.6,0.3-2.4c0-4.8-3.9-8.8-8.8-8.8S7.2,11.2,7.2,16c0,4.2,2.9,7.7,6.9,8.6
		c0-0.2-0.1-0.4-0.1-0.6C14,22.7,15.3,20.8,17.2,19.5z M11.9,15.5c-0.2-0.2-0.3-0.4-0.5-0.7c-0.1-0.3-0.2-0.5-0.2-0.8
		c0-0.3,0.1-0.6,0.2-0.8c0.1-0.2,0.3-0.5,0.5-0.7s0.4-0.3,0.7-0.4c0.2-0.1,0.5-0.2,0.8-0.2c0.3,0,0.6,0.1,0.8,0.2
		c0.3,0.1,0.5,0.3,0.7,0.4s0.3,0.4,0.4,0.7s0.2,0.5,0.2,0.8c0,0.3-0.1,0.6-0.2,0.8c-0.1,0.2-0.3,0.5-0.4,0.7
		c-0.2,0.2-0.4,0.3-0.7,0.5c-0.2,0.1-0.5,0.2-0.8,0.2c-0.3,0-0.6-0.1-0.8-0.2C12.3,15.8,12,15.6,11.9,15.5z M17.9,11.7l0.9,0.4
		l-4.7,8.2l-0.9-0.4L17.9,11.7z"/>
	<path class="st50" d="M27.1,15.1c0,0.6,0,1.2,0,1.8L27,17.6l1.4,0.1l0.1-0.7c0.1-0.7,0.1-1.4,0-2l-0.1-0.7L27,14.4L27.1,15.1z"/>
	<path class="st50" d="M5.6,20l-0.3-0.7l-1.3,0.5l0.3,0.7c0.2,0.6,0.5,1.2,0.9,1.8l0.4,0.6l1.2-0.7l-0.4-0.6
		C6.1,21.1,5.9,20.5,5.6,20z"/>
	<path class="st50" d="M5.2,9.7c-0.3,0.6-0.6,1.2-0.9,1.8l-0.3,0.7l1.3,0.5L5.7,12c0.2-0.6,0.5-1.1,0.8-1.6l0.4-0.6L5.6,9.1L5.2,9.7
		z"/>
	<path class="st50" d="M8.4,24.1l-0.5-0.5l-1,1l0.5,0.5c0.5,0.5,1,0.9,1.6,1.3l0.6,0.4l0.8-1.2l-0.6-0.4C9.3,24.8,8.8,24.5,8.4,24.1
		z"/>
	<path class="st50" d="M8.4,7.9c0.4-0.4,0.9-0.8,1.4-1.1l0.6-0.4L9.6,5.2L9,5.6C8.5,6,7.9,6.4,7.4,6.9L6.9,7.4l1,1L8.4,7.9z"/>
	<path class="st50" d="M4.9,16.9c0-0.6,0-1.2,0-1.8L5,14.4l-1.4-0.1L3.5,15c-0.1,0.7-0.1,1.3,0,2l0.1,0.7L5,17.6L4.9,16.9z"/>
	<path class="st50" d="M27.9,19.8l-1.3-0.5l0,0.1c0.4,0.3,0.8,0.6,1.2,0.9L27.9,19.8z"/>
	<path class="st50" d="M12.6,26.6L12,26.3l-0.4,1.3l0.7,0.2c0.6,0.2,1.3,0.4,2,0.5l0.7,0.1l0.2-1.4L14.4,27
		C13.8,26.9,13.2,26.7,12.6,26.6z"/>
	<path class="st50" d="M17.1,28.5l0.1,0c-0.1,0-0.1-0.1-0.2-0.1L17.1,28.5z"/>
	<path class="st50" d="M23.6,7.9l0.5,0.5l1-1l-0.5-0.5c-0.5-0.5-1-0.9-1.6-1.3l-0.6-0.4l-0.8,1.2l0.6,0.4
		C22.7,7.1,23.2,7.5,23.6,7.9z"/>
	<path class="st50" d="M19.3,5.4L20,5.7l0.4-1.3l-0.7-0.2c-0.6-0.2-1.3-0.4-2-0.5l-0.7-0.1l-0.2,1.4L17.6,5
		C18.2,5.1,18.8,5.3,19.3,5.4z"/>
	<path class="st50" d="M26.3,12l0.3,0.7l1.3-0.5l-0.3-0.7c-0.2-0.6-0.5-1.2-0.9-1.8l-0.4-0.6l-1.2,0.7l0.4,0.6
		C25.9,10.9,26.1,11.5,26.3,12z"/>
	<path class="st50" d="M12.7,5.4c0.6-0.2,1.2-0.3,1.8-0.4l0.7-0.1l-0.2-1.4l-0.7,0.1c-0.7,0.1-1.3,0.2-2,0.5l-0.7,0.2L12,5.7
		L12.7,5.4z"/>
	<path class="st50" d="M22,25.8c1,0,1.8-0.8,1.8-1.8S23,22.3,22,22.3h-0.5c0.3,0.2,0.5,0.5,0.5,0.8c0,0.5-0.4,0.9-0.9,0.9
		c-0.3,0-0.6-0.2-0.8-0.5V24C20.3,25,21,25.8,22,25.8z"/>
	<path class="st50" d="M22,20c-3.3,0-6,3-6,4s2.7,4,6,4c3.3,0,6-3,6-4S25.3,20,22,20z M22,27c-1.7,0-3-1.3-3-3s1.3-3,3-3
		c1.7,0,3,1.3,3,3S23.7,27,22,27z"/>
</g>
</svg>
