<?xml version="1.0" encoding="utf-8"?>
<!-- Generator: Adobe Illustrator 24.2.0, SVG Export Plug-In . SVG Version: 6.00 Build 0)  -->
<svg version="1.1" id="Layer_1" xmlns="http://www.w3.org/2000/svg" xmlns:xlink="http://www.w3.org/1999/xlink" x="0px" y="0px"
	 viewBox="0 0 32 32" style="enable-background:new 0 0 32 32;" xml:space="preserve">
<style type="text/css">
	.st0{fill:#005DED;}
	.st1{fill:#AA8A30;}
	.st2{fill:#1565C0;}
	.st3{fill:#D32F2F;}
	.st4{fill:#66BB6A;}
	.st5{fill:#0A4466;}
	.st6{fill:#8E24AA;}
	.st7{fill:#161616;}
	.st8{fill:#3E87CF;}
	.st9{fill:#9BC6F2;}
	.st10{fill:#777777;}
	.st11{fill:#2576C7;}
	.st12{fill:#FFFFFF;}
	.st13{opacity:0.6;fill:#2576C7;enable-background:new    ;}
	.st14{opacity:0.6;fill:#FFFFFF;enable-background:new    ;}
	.st15{opacity:0.6;fill:#FFFFFF;}
	.st16{fill:#FFE39D;}
	.st17{fill:#ED9C26;}
	.st18{fill:#E03C24;}
	.st19{opacity:0.4;fill:#0A4466;}
	.st20{opacity:0.4;fill:#00796B;}
	.st21{fill:#00796B;}
	.st22{fill:none;}
	.st23{fill:#690000;}
	.st24{fill:#A08165;}
	.st25{fill:#D8C4B3;}
	.st26{fill:#FFD4FF;}
	.st27{opacity:0.6;fill:none;stroke:#FFFFFF;stroke-width:4;stroke-linecap:round;stroke-miterlimit:10;}
	.st28{fill:#571B6D;}
	.st29{opacity:0.4;fill:#571B6D;}
	.st30{opacity:0.6;fill:#571B6D;}
	.st31{fill:#CA0821;}
	.st32{opacity:0.2;fill:#CA0821;enable-background:new    ;}
	.st33{fill:#CA0821;enable-background:new    ;}
	.st34{opacity:0.4;}
	.st35{opacity:0.6;fill:#CA0821;enable-background:new    ;}
	.st36{opacity:0.6;enable-background:new    ;}
	.st37{opacity:0.6;}
	.st38{opacity:0.6;fill:#3E87CF;}
	.st39{fill:#283593;}
	.st40{opacity:0.4;fill:#777777;}
	.st41{opacity:0.4;fill:#283593;}
	.st42{opacity:0.4;fill:#1565C0;}
	.st43{opacity:0.6;fill:#1565C0;}
	.st44{opacity:0.4;fill:#D32F2F;}
	.st45{opacity:0.4;fill:#66BB6A;}
	.st46{opacity:0.4;fill:#AA8A30;}
	.st47{opacity:0.4;fill:#777777;enable-background:new    ;}
	.st48{fill:#9F8165;}
	.st49{opacity:0.4;fill:#9F8165;}
	.st50{fill:#FF7600;}
	.st51{opacity:0.4;fill:#FF7600;}
	.st52{fill:#FBFAFD;}
	.st53{fill:#3606B7;}
	.st54{opacity:0.4;fill:#005DED;}
	.st55{fill:#FF7962;}
	.st56{opacity:0.4;fill:#FF7962;}
	.st57{opacity:0.4;fill:#3606B7;}
	.st58{opacity:0.4;fill:#FFFFFF;}
	.st59{opacity:0.6;fill:#777777;}
</style>
<g>
	<g class="st34">
		<path class="st50" d="M14.3,14c0,0.3-0.1,0.5-0.3,0.7c-0.2,0.2-0.4,0.3-0.7,0.3c-0.3,0-0.5-0.1-0.7-0.3c-0.2-0.2-0.3-0.4-0.3-0.7
			c0-0.3,0.1-0.5,0.3-0.7c0.2-0.2,0.4-0.3,0.7-0.3c0.3,0,0.5,0.1,0.7,0.3C14.2,13.5,14.3,13.7,14.3,14z"/>
		<path class="st50" d="M19.7,18c0,0.3-0.1,0.5-0.3,0.7C19.2,18.9,19,19,18.7,19c-0.3,0-0.5-0.1-0.7-0.3c-0.2-0.2-0.3-0.4-0.3-0.7
			s0.1-0.5,0.3-0.7c0.2-0.2,0.4-0.3,0.7-0.3c0.3,0,0.5,0.1,0.7,0.3C19.6,17.5,19.7,17.7,19.7,18z"/>
		<path class="st50" d="M16,7.2c-4.8,0-8.8,3.9-8.8,8.8c0,4.8,3.9,8.8,8.8,8.8s8.8-3.9,8.8-8.8C24.8,11.2,20.8,7.2,16,7.2z
			 M11.9,15.5c-0.2-0.2-0.3-0.4-0.5-0.7c-0.1-0.3-0.2-0.5-0.2-0.8c0-0.3,0.1-0.6,0.2-0.8c0.1-0.2,0.3-0.5,0.5-0.7
			c0.2-0.2,0.4-0.3,0.7-0.5c0.2-0.1,0.5-0.2,0.8-0.2c0.3,0,0.6,0.1,0.8,0.2c0.3,0.1,0.5,0.3,0.7,0.5c0.2,0.2,0.3,0.4,0.5,0.7
			c0.1,0.2,0.2,0.5,0.2,0.8c0,0.3-0.1,0.6-0.2,0.8c-0.1,0.2-0.3,0.5-0.5,0.7c-0.2,0.2-0.4,0.3-0.7,0.5c-0.2,0.1-0.5,0.2-0.8,0.2
			c-0.3,0-0.6-0.1-0.8-0.2C12.3,15.8,12,15.6,11.9,15.5z M14.1,20.3l-0.9-0.4l4.7-8.2l0.9,0.4L14.1,20.3z M20.6,18.8
			c-0.1,0.2-0.3,0.5-0.5,0.7c-0.2,0.2-0.4,0.3-0.7,0.4c-0.3,0.1-0.5,0.2-0.8,0.2c-0.3,0-0.6-0.1-0.8-0.2c-0.2-0.1-0.5-0.3-0.7-0.4
			c-0.2-0.2-0.3-0.4-0.5-0.7c-0.1-0.2-0.2-0.5-0.2-0.8c0-0.3,0.1-0.6,0.2-0.8c0.1-0.3,0.3-0.5,0.5-0.7s0.4-0.3,0.7-0.5
			c0.2-0.1,0.5-0.2,0.8-0.2c0.3,0,0.6,0.1,0.8,0.2c0.2,0.1,0.5,0.3,0.7,0.5c0.2,0.2,0.3,0.4,0.5,0.7c0.1,0.2,0.2,0.5,0.2,0.8
			C20.8,18.3,20.7,18.6,20.6,18.8z"/>
	</g>
	<g>
		<path class="st50" d="M17.1,28.5l-0.2-1.4l0.7-0.1c0.6-0.1,1.2-0.2,1.8-0.4l0.7-0.2l0.4,1.3l-0.7,0.2c-0.6,0.2-1.3,0.4-2,0.4
			L17.1,28.5z M14.9,28.5l-0.7-0.1c-0.7-0.1-1.3-0.3-2-0.5l-0.7-0.2l0.4-1.3l0.7,0.2c0.6,0.2,1.2,0.3,1.8,0.4l0.7,0.1L14.9,28.5z
			 M22.4,26.8l-0.8-1.2l0.6-0.4c0.5-0.3,1-0.7,1.4-1.1l0.5-0.5l1,1l-0.5,0.5c-0.5,0.5-1,0.9-1.6,1.3L22.4,26.8z M9.6,26.7L9,26.4
			c-0.6-0.4-1.1-0.8-1.6-1.3l-0.5-0.5l1-1l0.5,0.5c0.4,0.4,0.9,0.8,1.4,1.1l0.6,0.4L9.6,26.7z M26.4,22.9l-1.2-0.7l0.4-0.6
			c0.3-0.5,0.6-1.1,0.8-1.6l0.3-0.7l1.3,0.5l-0.3,0.7c-0.2,0.6-0.5,1.2-0.9,1.8L26.4,22.9z M5.6,22.9l-0.4-0.6
			c-0.3-0.6-0.6-1.2-0.9-1.8l-0.3-0.7l1.3-0.5L5.6,20c0.2,0.6,0.5,1.1,0.8,1.6l0.4,0.6L5.6,22.9z M28.4,17.8L27,17.6l0.1-0.7
			c0-0.6,0.1-1.2,0-1.8L27,14.4l1.4-0.2l0.1,0.7c0.1,0.7,0.1,1.4,0,2L28.4,17.8z M3.6,17.7L3.5,17c-0.1-0.7-0.1-1.3,0-2l0.1-0.7
			L5,14.4L5,15.1c0,0.6,0,1.2,0,1.8L5,17.6L3.6,17.7z M26.6,12.7L26.3,12c-0.2-0.6-0.5-1.1-0.8-1.6l-0.4-0.6l1.2-0.7l0.4,0.6
			c0.3,0.6,0.6,1.2,0.9,1.8l0.3,0.7L26.6,12.7z M5.4,12.7l-1.3-0.5l0.3-0.7c0.2-0.6,0.5-1.2,0.9-1.8l0.4-0.6l1.2,0.7l-0.4,0.6
			c-0.3,0.5-0.6,1.1-0.8,1.6L5.4,12.7z M24.1,8.4l-0.5-0.5c-0.4-0.4-0.9-0.8-1.4-1.1l-0.6-0.4l0.8-1.2L23,5.6
			c0.6,0.4,1.1,0.8,1.6,1.3l0.5,0.5L24.1,8.4z M7.9,8.4l-1-1l0.5-0.5C7.9,6.4,8.5,6,9,5.6l0.6-0.4l0.8,1.2L9.8,6.8
			c-0.5,0.3-1,0.7-1.4,1.1L7.9,8.4z M20,5.7l-0.7-0.2c-0.6-0.2-1.2-0.3-1.8-0.4l-0.7-0.1l0.2-1.4l0.7,0.1c0.7,0.1,1.3,0.2,2,0.5
			l0.7,0.2L20,5.7z M12,5.7l-0.4-1.3l0.7-0.2c0.6-0.2,1.3-0.4,2-0.5l0.7-0.1l0.2,1.4L14.4,5c-0.6,0.1-1.2,0.2-1.8,0.4L12,5.7z"/>
	</g>
</g>
</svg>
