<svg id="Layer_1" data-name="Layer 1" xmlns="http://www.w3.org/2000/svg" viewBox="0 0 64 64"><defs><style>.cls-1,.cls-2{fill:#fff;}.cls-1{opacity:0.6;}</style></defs><path class="cls-1" d="M42.37078,44.06a7.31462,7.31462,0,1,0,7.31465-7.31465A7.31461,7.31461,0,0,0,42.37078,44.06Zm4.00447.00042a3.31042,3.31042,0,1,1,3.30993,3.30994A3.31394,3.31394,0,0,1,46.37525,44.06044Z"/><path class="cls-1" d="M7,41.66683a9.70774,9.70774,0,1,0,9.70777-9.70771A9.70775,9.70775,0,0,0,7,41.66683Zm4.00416-.00037a5.70343,5.70343,0,1,1,5.70392,5.70392A5.71008,5.71008,0,0,1,11.00415,41.66646Z"/><path class="cls-2" d="M16.70807,45.36838a3.70144,3.70144,0,1,0-3.70193-3.70192A3.70547,3.70547,0,0,0,16.70807,45.36838Z"/><path class="cls-2" d="M7.449,31.53576l1.11109,1.7317,3.30328-2.24222a11.5175,11.5175,0,0,1,4.84484-1.07107A11.7267,11.7267,0,0,1,28.4198,41.66583c0,.33034-.03.65061-.05.97093h12.122a9.28945,9.28945,0,0,1,13.6636-6.74669l.46048-1.0811V31.776a2.94552,2.94552,0,0,0-2.30233-2.87285l-8.71863-1.91193-7.81777-.78075v-.18017L34.2456,15.75005h.82082v-.79076a2.37314,2.37314,0,0,0-2.38237-2.37236H17.33884a2.37314,2.37314,0,0,0-2.38237,2.37236v.79076h.68067l-1.7818,4.60455-.91088,8.17818H11.86337ZM22.40387,15.75005h9.82966L33.7751,26.11032v7.15714h-6.046l-5.31528-4.73468h-.01ZM14.95653,28.53278l.88088-7.93789,1.87186-4.84484h2.69255V28.53278Z"/></svg>