<svg id="Layer_1" data-name="Layer 1" xmlns="http://www.w3.org/2000/svg" viewBox="0 0 64 64"><defs><style>.cls-1,.cls-2{fill:#fff;}.cls-2{opacity:0.6;isolation:isolate;}</style></defs><path class="cls-1" d="M48.8,23.4l3.1-3a1.2,1.2,0,0,0,0-1.4L49,16.1a1.2,1.2,0,0,0-1.4,0l-3,3.1a20.54,20.54,0,0,0-9.6-4V12h3a.94.94,0,0,0,1-1V8a.94.94,0,0,0-1-1H26a1,1,0,0,0-1,1v3a1,1,0,0,0,1,1h3v3.2A21,21,0,0,0,11,36,20.75,20.75,0,0,0,32,57,20.75,20.75,0,0,0,53,36,21.19,21.19,0,0,0,48.8,23.4ZM32,53A17.25,17.25,0,0,1,15,36a17,17,0,0,1,34,0A17.25,17.25,0,0,1,32,53Z"/><path class="cls-1" d="M42.64,40.26l0,.09A.32.32,0,0,0,42.64,40.26Z"/><path class="cls-2" d="M42.68,31.84l-.09-.23A11.07,11.07,0,0,0,41.73,30c-.12-.19-.24-.38-.37-.57a12,12,0,0,0-1-1.25c-.18-.19-.37-.38-.56-.55a10.65,10.65,0,0,0-1.17-1c-.2-.15-.4-.27-.61-.4a10.23,10.23,0,0,0-1.42-.76l-.49-.19a11.13,11.13,0,0,0-1.7-.52L34,24.72a11.38,11.38,0,0,0-2-.2c-.24,0-.47.06-.71.07a11.38,11.38,0,0,0-6.52,2.56l-2-2L20.5,33.8l8.61-2.31-1.83-1.83A7.86,7.86,0,0,1,32,28.06c.25,0,.5.05.75.07a7.16,7.16,0,0,1,.93.12l.36.11A8,8,0,0,1,39.64,34a4.13,4.13,0,0,1,.15.5c0,.17,0,.35.05.52A6.64,6.64,0,0,1,40,36a7.65,7.65,0,0,1-.1,1,5.7,5.7,0,0,1-.06.58,8.47,8.47,0,0,1-.25.86c-.07.21-.12.43-.2.65s-.24.44-.35.66-.24.49-.39.72-.31.38-.47.57-.32.43-.51.63a8.11,8.11,0,0,1-2.33,1.59c-.08,0-.14.08-.21.11a6,6,0,0,1-.94.29,5.4,5.4,0,0,1-.57.18c-.2,0-.4,0-.61.06a7.61,7.61,0,0,1-1,.09,6.54,6.54,0,0,1-.89-.09,5.38,5.38,0,0,1-.69-.07c-.17,0-.32-.1-.48-.14a7.23,7.23,0,0,1-1-.32l-.08,0a7.9,7.9,0,0,1-2.45-1.65L25.73,41l-2.46,2.46c.23.27.48.54.74.79a12,12,0,0,0,1.52,1.25l.3.19a11.89,11.89,0,0,0,1.69.9l.28.1a10.19,10.19,0,0,0,1.9.58l.16,0a12.25,12.25,0,0,0,2.1.2H32a11.35,11.35,0,0,0,2.11-.21l.16,0a11.5,11.5,0,0,0,1.92-.58l.24-.09a12.14,12.14,0,0,0,1.74-.93l.22-.14A11.92,11.92,0,0,0,40,44.17l.12-.12a11.59,11.59,0,0,0,1.38-1.69s.06-.11.1-.16a11.26,11.26,0,0,0,1-1.85l0-.09A11.54,11.54,0,0,0,42.68,31.84Z"/></svg>