<?xml version="1.0" encoding="utf-8"?>
<!-- Generator: Adobe Illustrator 24.2.0, SVG Export Plug-In . SVG Version: 6.00 Build 0)  -->
<svg version="1.1" id="Layer_1" xmlns="http://www.w3.org/2000/svg" xmlns:xlink="http://www.w3.org/1999/xlink" x="0px" y="0px"
	 viewBox="0 0 32 32" style="enable-background:new 0 0 32 32;" xml:space="preserve">
<style type="text/css">
	.st0{fill:none;}
	.st1{fill:#2576C7;}
	.st2{fill:#9BC6F2;}
	.st3{fill:#777777;}
	.st4{fill:#FFFFFF;}
</style>
<g>
	<circle class="st0" cx="23.8" cy="26" r="0.7"/>
	<polygon class="st0" points="11.8,9.6 11.8,9.6 11.8,9.6 	"/>
	<path class="st0" d="M9,25.3c-0.3,0-0.6,0.3-0.7,0.7c0,0.4,0.3,0.7,0.7,0.7s0.7-0.3,0.7-0.7C9.7,25.6,9.4,25.3,9,25.3z"/>
	<path class="st1" d="M14,7.4c-1.2,0-2.2,1-2.2,2.2c0,0,0,0,0,0c0,0.5,0.2,0.9,0.4,1.2c0,0,0,0,0,0h3.6c0.3-0.4,0.4-0.8,0.4-1.2
		C16.2,8.4,15.2,7.4,14,7.4z"/>
	<rect x="19.3" y="9.2" class="st1" width="5.2" height="1.8"/>
	<path class="st2" d="M20.9,13.5h0.5h1.7c0.2,0,0.5,0,0.8,0.1c0.4,0.1,0.4,0.1,0.6,0.2c0.4,0.2,0.8,0.5,1.2,0.9l2.3,2.7V5.7
		C28,4.8,27.2,4,26.2,4H8.8C7.8,4,7,4.8,7,5.7v5.1h5.2c0,0,0,0,0,0c-0.2-0.3-0.4-0.7-0.4-1.2c0,0,0,0,0,0c0,0,0,0,0,0
		c0-1.2,1-2.2,2.2-2.2c1.2,0,2.2,1,2.2,2.2c0,0.4-0.1,0.8-0.4,1.2c0,0,0,0,0,0h0.6c1.6,0,3,1.2,3.3,2.7H20.9z M19.3,9.2h5.2V11h-5.2
		V9.2z"/>
	<path class="st3" d="M16.4,12.9h-11c-0.8,0-1.4,0.6-1.4,1.4v11.6h1.6c0-1.9,1.6-3.5,3.5-3.5c1.9,0,3.5,1.6,3.5,3.5h5.3V14.3
		C17.8,13.5,17.2,12.9,16.4,12.9z"/>
	<path class="st3" d="M9,23.9c-1.1,0-2.1,0.9-2.1,2.1c0.1,1.1,1,2,2.1,2s2.1-0.9,2.1-2.1C11.1,24.8,10.2,23.9,9,23.9z M9,26.7
		c-0.4,0-0.7-0.3-0.7-0.7c0.1-0.4,0.4-0.7,0.7-0.7c0.4,0,0.7,0.3,0.7,0.7C9.7,26.4,9.4,26.7,9,26.7z"/>
	<path class="st3" d="M23.8,23.9c-1.1,0-2.1,0.9-2.1,2.1c0,1.1,0.9,2.1,2.1,2.1s2.1-0.9,2.1-2.1C25.8,24.8,24.9,23.9,23.8,23.9z
		 M23.8,26.7c-0.4,0-0.7-0.3-0.7-0.7c0-0.4,0.3-0.7,0.7-0.7c0.4,0,0.7,0.3,0.7,0.7C24.5,26.4,24.2,26.7,23.8,26.7z"/>
	<path class="st3" d="M27.7,20.1L24.2,16c-0.3-0.3-0.7-0.5-1.1-0.5h-2.2c-0.8,0-1.4,0.6-1.4,1.4v9h0.8c0-1.9,1.6-3.5,3.5-3.5
		c1.9,0,3.4,1.5,3.5,3.3c0.5-0.2,0.8-0.7,0.8-1.3V21C28,20.7,27.9,20.4,27.7,20.1z M20.9,20.6V17h2.2l3.1,3.6H20.9z"/>
	<polygon class="st4" points="20.9,17 20.9,20.6 26.2,20.6 23.1,17 	"/>
</g>
</svg>
