<svg height="32" width="32" xmlns="http://www.w3.org/2000/svg">
  <path d="M26 4H9c-1.1 0-2 .9-2 2v1h9c1.7 0 3 1.3 3 3v10h7c1.1 0 2-.9 2-2V6c0-1.1-.9-2-2-2z" fill="#9bc6f2"/>
  <path d="M25 6H10c-.6 0-1 .4-1 1h7c1.7 0 3 1.3 3 3v8h6c.6 0 1-.4 1-1V7c0-.6-.4-1-1-1z" fill="#9bc6f2"/>
  <path d="M15 9H6c-1.1 0-2 .9-2 2v17h4v-2.5c0-.3.2-.5.5-.5h4c.3 0 .5.2.5.5V28h4V11c0-1.1-.9-2-2-2z" fill="#777"/>
  <path d="M19 13h5v2h-5zM19 9h5v2h-5z" fill="#2576c7"/>
  <g fill="#fff">
    <path d="M9 12.7c0 .1-.2.3-.5.3h-2c-.3 0-.5-.1-.5-.3v-1.4c0-.1.2-.3.5-.3h2c.3 0 .5.2.5.3zM15 12.7c0 .1-.2.3-.5.3h-2c-.3 0-.5-.1-.5-.3v-1.4c0-.1.2-.3.5-.3h2c.3 0 .5.2.5.3zM9 17.7c0 .1-.2.3-.5.3h-2c-.3 0-.5-.1-.5-.3v-1.4c0-.1.2-.3.5-.3h2c.3 0 .5.2.5.3zM15 17.7c0 .1-.2.3-.5.3h-2c-.3 0-.5-.1-.5-.3v-1.4c0-.1.2-.3.5-.3h2c.3 0 .5.2.5.3zM9 22.7c0 .1-.2.3-.5.3h-2c-.3 0-.5-.1-.5-.3v-1.4c0-.1.2-.3.5-.3h2c.3 0 .5.2.5.3zM15 22.7c0 .1-.2.3-.5.3h-2c-.3 0-.5-.1-.5-.3v-1.4c0-.1.2-.3.5-.3h2c.3 0 .5.2.5.3z"/>
  </g>
</svg>
