<svg id="Layer_1" data-name="Layer 1" xmlns="http://www.w3.org/2000/svg" viewBox="0 0 32 32"><defs><style>.cls-1{fill:none;}.cls-2{fill:#2576c7;}.cls-3{fill:#9bc6f2;}.cls-4{fill:#777;}.cls-5{fill:#fff;}</style></defs><circle class="cls-1" cx="23.8" cy="26" r="0.7"/><polygon class="cls-1" points="11.8 9.6 11.8 9.6 11.8 9.6 11.8 9.6"/><path class="cls-1" d="M9,25.3a.84.84,0,0,0-.7.7.7.7,0,1,0,.7-.7Z"/><path class="cls-2" d="M14,7.4a2.22,2.22,0,0,0-2.2,2.2h0a2.11,2.11,0,0,0,.38,1.16l0,0h3.6a1.92,1.92,0,0,0,.4-1.2A2.22,2.22,0,0,0,14,7.4Z"/><rect class="cls-2" x="19.3" y="9.2" width="5.2" height="1.8"/><path class="cls-3" d="M20.9,13.5h2.2a3.37,3.37,0,0,1,.78.08,2.24,2.24,0,0,1,.62.22,4.7,4.7,0,0,1,1.2.9L28,17.4V5.7A1.77,1.77,0,0,0,26.2,4H8.8A1.77,1.77,0,0,0,7,5.7v5.1h5.2l0,0A2.11,2.11,0,0,1,11.8,9.6h0a2.2,2.2,0,0,1,4.4,0,1.92,1.92,0,0,1-.4,1.2h.6a3.43,3.43,0,0,1,3.3,2.7ZM19.3,9.2h5.2V11H19.3Z"/><path class="cls-4" d="M16.4,12.9H5.4A1.37,1.37,0,0,0,4,14.3V25.9H5.6a3.5,3.5,0,0,1,7,0h5.3V14.3A1.52,1.52,0,0,0,16.4,12.9Z"/><path class="cls-4" d="M9,23.9A2.11,2.11,0,0,0,6.9,26,2.16,2.16,0,0,0,9,28a2.11,2.11,0,0,0,2.1-2.1A2,2,0,0,0,9,23.9Zm0,2.8a.68.68,0,0,1-.7-.7.84.84,0,0,1,.7-.7.7.7,0,0,1,0,1.4Z"/><path class="cls-4" d="M23.8,23.9a2.1,2.1,0,1,0,0,4.2A2.05,2.05,0,0,0,25.9,26,2.18,2.18,0,0,0,23.8,23.9Zm0,2.8a.7.7,0,1,1,.7-.7A.68.68,0,0,1,23.8,26.7Z"/><path class="cls-4" d="M27.7,20.1,24.2,16a1.61,1.61,0,0,0-1.1-.5H20.9a1.37,1.37,0,0,0-1.4,1.4v9h.8a3.5,3.5,0,0,1,7-.2,1.34,1.34,0,0,0,.8-1.3V21A3.55,3.55,0,0,0,27.7,20.1Zm-6.8.5V17h2.2l3.1,3.6Z"/><polygon class="cls-5" points="20.9 17 20.9 20.6 26.2 20.6 23.1 17 20.9 17"/></svg>