<svg id="Layer_1" data-name="Layer 1" xmlns="http://www.w3.org/2000/svg" viewBox="0 0 32 32"><defs><style>.cls-1,.cls-3{fill:#cc0017;}.cls-1{opacity:0.4;}.cls-2{fill:#777;}.cls-4{fill:#fff;}</style></defs><path class="cls-1" d="M26,4H9A2,2,0,0,0,7,6V7h9a3,3,0,0,1,3,3V20h7a2,2,0,0,0,2-2V6A2,2,0,0,0,26,4Z"/><path class="cls-2" d="M15,9H6a2,2,0,0,0-2,2V28H8V25.5a.47.47,0,0,1,.5-.5h4a.47.47,0,0,1,.5.5V28h4V11A2,2,0,0,0,15,9Z"/><path class="cls-3" d="M19,13h5v2H19Zm0-4h5v2H19Z"/><path class="cls-4" d="M9,12.7c0,.1-.2.3-.5.3h-2c-.3,0-.5-.1-.5-.3V11.3c0-.1.2-.3.5-.3h2c.3,0,.5.2.5.3Zm6,0c0,.1-.2.3-.5.3h-2c-.3,0-.5-.1-.5-.3V11.3c0-.1.2-.3.5-.3h2c.3,0,.5.2.5.3Zm-6,5c0,.1-.2.3-.5.3h-2c-.3,0-.5-.1-.5-.3V16.3c0-.1.2-.3.5-.3h2c.3,0,.5.2.5.3Zm6,0c0,.1-.2.3-.5.3h-2c-.3,0-.5-.1-.5-.3V16.3c0-.1.2-.3.5-.3h2c.3,0,.5.2.5.3Zm-6,5c0,.1-.2.3-.5.3h-2c-.3,0-.5-.1-.5-.3V21.3c0-.1.2-.3.5-.3h2c.3,0,.5.2.5.3Zm6,0c0,.1-.2.3-.5.3h-2c-.3,0-.5-.1-.5-.3V21.3c0-.1.2-.3.5-.3h2c.3,0,.5.2.5.3Z"/></svg>